<?xml version="1.0" encoding="UTF-8"?>
<svg id="Layer_1" data-name="Layer 1" xmlns="http://www.w3.org/2000/svg" xmlns:xlink="http://www.w3.org/1999/xlink" version="1.1" viewBox="0 0 1000 1000">
  <defs>
    <style>
      .cls-1 {
        clip-path: url(#clippath);
      }

      .cls-2, .cls-3, .cls-4, .cls-5, .cls-6, .cls-7, .cls-8 {
        stroke-width: 0px;
      }

      .cls-2, .cls-9, .cls-10, .cls-11 {
        fill: none;
      }

      .cls-3 {
        fill: #fedf5d;
      }

      .cls-4 {
        fill: #00904e;
      }

      .cls-5 {
        fill: url(#linear-gradient);
      }

      .cls-9 {
        stroke: #010101;
        stroke-linejoin: round;
      }

      .cls-9, .cls-10 {
        stroke-width: 1px;
      }

      .cls-6 {
        fill: #000;
      }

      .cls-7 {
        fill: #010101;
      }

      .cls-10, .cls-11 {
        stroke: #231f20;
        stroke-miterlimit: 10;
      }

      .cls-11 {
        stroke-width: 1.1px;
      }

      .cls-8 {
        fill: #fff;
      }
    </style>
    <clipPath id="clippath">
      <path class="cls-2" d="M500,425c-27.2-17.7-51.5-23.9-72.2-23.9-46.5,0-74.5,30.9-74.5,30.9l-51.1,199c29.8,20,73.8-3.4,73.8-4.3,72.3-46.6,124,14.2,124,14.2,0,0,51.7-60.7,124-14.2,0,.9,44,24.2,73.8,4.3l-51.1-199s-28-30.9-74.5-30.9-45.1,6.1-72.3,23.9"/>
    </clipPath>
    <linearGradient id="linear-gradient" x1="2129.5" y1="1797.5" x2="2137.4" y2="1797.5" gradientTransform="translate(-105952.3 90218.2) scale(49.9 -49.9)" gradientUnits="userSpaceOnUse">
      <stop offset="0" stop-color="#ffdf5d"/>
      <stop offset=".1" stop-color="#feda56"/>
      <stop offset=".3" stop-color="#fdcc44"/>
      <stop offset=".4" stop-color="#fab626"/>
      <stop offset=".5" stop-color="#faae1c"/>
      <stop offset=".6" stop-color="#fab626"/>
      <stop offset=".7" stop-color="#fdcc44"/>
      <stop offset=".9" stop-color="#feda56"/>
      <stop offset="1" stop-color="#ffdf5d"/>
    </linearGradient>
  </defs>
  <polygon class="cls-8" points="493.5 224.7 483.5 230.7 453 235.2 424 241.7 406 250.2 387 265.7 378.5 276.7 374 286.7 374 293.2 346.6 294.2 312.6 303.2 276.1 330.7 261.6 376.7 261.1 753.2 742 759.1 738 375.2 729 338.7 708 314.7 679.5 300.7 654.5 297.7 635 295.7 628 288.2 617 275.7 610 263.2 594.5 252.2 580.5 243.2 566 238.7 549.5 236.2 517.5 228.2 504 218.2 493.5 224.7"/>
  <g>
    <path class="cls-4" d="M745.6,383.4c-.1-1.9-.3-3.9-.6-6-1.3-11-3.8-21.3-7.6-30.6-8.5-20.8-22.8-36.3-42.5-46.1-16.1-7.9-36-12-59-12.1l-2.9-5.5-.4-.6c-3.4-4.9-7.2-9.5-10.9-13.8-7-8.1-13.1-14.2-19.3-19.1-8.5-6.7-18.4-11.8-29.3-15.2-7-2.2-14.9-4-24.1-5.4-2.6-.4-5.3-.7-8-1-4.7-.5-9.6-1-14.4-2.3-7.5-1.9-14.3-6.4-19.2-12.5-.8-1.1-1.6-2.2-2.4-3.4l-5-8.3-5,8.3c-.7,1.2-1.5,2.4-2.3,3.4-4.9,6.1-11.7,10.6-19.2,12.5-4.8,1.2-9.7,1.8-14.4,2.3-2.8.3-5.4.6-8,1-9.2,1.4-17,3.2-24.1,5.4-10.9,3.4-20.8,8.5-29.3,15.2-6.2,4.9-12.4,11-19.3,19-3.4,4-7.4,8.8-10.9,13.8l-3.3,6.1c-23.1,0-42.9,4.1-59,12.1-13.8,6.8-25,16.5-33.4,28.9-9,13.2-14.6,29.3-16.7,47.9-.3,2.3-.5,4.5-.6,7v413.9h491.1v-415ZM266.7,378.9c1.9-16.5,6.8-30.6,14.6-42.1,7.3-10.7,16.7-18.9,28.8-24.8,14.7-7.2,33.1-10.9,54.6-10.9h6.3l6.1-11.6c3.1-4.4,6.7-8.8,9.9-12.5,6.4-7.5,12-13,17.6-17.4,7.4-5.8,16-10.3,25.6-13.3,6.5-2,13.9-3.7,22.5-5,2.4-.4,4.9-.6,7.5-.9,5.1-.5,10.4-1.1,16-2.5,9.1-2.3,17.4-7.5,23.7-14.6,6.3,7.1,14.7,12.3,23.8,14.6,5.6,1.4,10.9,2,16,2.5,2.6.3,5.1.5,7.5.9,8.6,1.3,16,3,22.5,5,9.6,3,18.2,7.5,25.6,13.3,5.6,4.4,11.2,9.9,17.6,17.4,3.3,3.9,6.8,8.1,9.8,12.4l6.2,11.6h6.3c21.6,0,39.9,3.7,54.6,10.9,17.3,8.5,29.3,21.5,36.7,39.7,3.3,8.2,5.6,17.3,6.7,27.2.2,1.9.4,3.7.5,4.9v348.2h-42.3v-26.9h-63.1v-27.7h-256.8v27.7h-63.1v26.9h-42.3v-347.2c.1-1.9.3-3.9.5-5.9"/>
    <path class="cls-3" d="M725,647.7l-45.1-188.6-181-28.2-178.8,28.2-45.1,188.6-.2.7h47.4c1.9,0,3.8,0,5.7,0s2.8,0,4.3,0h154.7c.2,4.7,3,7.5,5.7,9,2.8,1.6,5.6,2,5.6,2h3.7s2.8-.4,5.6-2c2.7-1.5,5.5-4.3,5.7-9h154.6c1.4,0,2.9,0,4.3,0s3.8,0,5.7,0h47.4l-.2-.7Z"/>
    <path class="cls-11" d="M725,647.7l-45.1-188.6-181-28.2-178.8,28.2-45.1,188.6-.2.7h47.4c1.9,0,3.8,0,5.7,0s2.8,0,4.3,0h154.7c.2,4.7,3,7.5,5.7,9,2.8,1.6,5.6,2,5.6,2h3.7s2.8-.4,5.6-2c2.7-1.5,5.5-4.3,5.7-9h154.6c1.4,0,2.9,0,4.3,0s3.8,0,5.7,0h47.4l-.2-.7Z"/>
    <path class="cls-3" d="M667.9,448.4l-8.2-1.5c-29.7-5.6-104.9-29.4-159.8-18.8-54.9-10.5-130.1,13.2-159.8,18.8l-8.2,1.5-50.1,193.8c49.6,12.6,89.4,3.4,113.5-10,45.6-25.3,104.6,11.4,104.6,11.4,0,0,59-36.7,104.6-11.4,24.1,13.4,63.9,22.6,113.5,10l-50.1-193.8Z"/>
    <path class="cls-11" d="M667.9,448.4l-8.2-1.5c-29.7-5.6-104.9-29.4-159.8-18.8-54.9-10.5-130.1,13.2-159.8,18.8l-8.2,1.5-50.1,193.8c49.6,12.6,89.4,3.4,113.5-10,45.6-25.3,104.6,11.4,104.6,11.4,0,0,59-36.7,104.6-11.4,24.1,13.4,63.9,22.6,113.5,10l-50.1-193.8Z"/>
    <path class="cls-3" d="M654.8,437s-97.4-28.8-154.8-10.8c0,0,0,0,0,0s0,0,0,0c-57.4-18-154.8,10.8-154.8,10.8l-52.9,200.6c34.6,12.4,69.8,2.9,88.2-4.9,68.8-41.4,119.5,9.5,119.5,9.5h0s0,0,0,0c0,0,50.8-51,119.5-9.5,18.4,7.8,53.6,17.3,88.2,4.9l-52.9-200.6Z"/>
    <path class="cls-11" d="M654.8,437s-97.4-28.8-154.8-10.8c0,0,0,0,0,0s0,0,0,0c-57.4-18-154.8,10.8-154.8,10.8l-52.9,200.6c34.6,12.4,69.8,2.9,88.2-4.9,68.8-41.4,119.5,9.5,119.5,9.5h0s0,0,0,0c0,0,50.8-51,119.5-9.5,18.4,7.8,53.6,17.3,88.2,4.9l-52.9-200.6Z"/>
  </g>
  <g class="cls-1">
    <rect class="cls-5" x="302.2" y="401.1" width="395.6" height="249.9"/>
  </g>
  <path class="cls-11" d="M646.8,432s-58.5-64.6-146.8-7.1c-88.2-57.5-146.8,7.1-146.8,7.1l-51.1,199c29.8,20,73.8-3.4,73.8-4.3,72.3-46.6,124,14.2,124,14.2,0,0,51.7-60.7,124-14.2,0,.9,44,24.2,73.8,4.3l-51.1-199Z"/>
  <line class="cls-9" x1="500" y1="642.2" x2="500" y2="424.6"/>
  <g>
    <path class="cls-8" d="M496.6,688.7l.9-3.9c-3.1,3.3-4.2,8.5-4.6,13.4.2,1.5,1.8,2.2,3.3,1.8,1.5-.5,3.3-1.7,3.5-3.3,1.3-3.3-.7-6.3-3.1-8.1M498.6,695.3c-1.3.7-2.7,2-4.2,1.5-.2-1.3.2-3.1.9-4.4,1.1.7,3.3,1.1,3.3,2.9"/>
    <path class="cls-8" d="M493.9,704.2l-2,5.9c2,14.6,2.4,30,3.6,45-.9,6.3,3.5,15.3-3.6,18.4-4.4,1.1-10.2.6-12.6-2.9,4-2.9,11.1-2.2,11.3-9-7.3-7.4-20.3-6.3-29.6-3.7-4.4,0-4.8,5.2-6,8.1l4.2-.9c3.8,0,6.6,2.4,9.3,5-3.8,2.9-8.2,4.1-13,4.3-2-.2-4-2-4.7-4.1-3.8-15.3-3.8-33.2-14.3-45l-.9,5c3.1,10.5,8.8,20.3,8.4,31.9-8,10.9-19.2,19.2-32.4,18.8-2.4-.7-3.6-3.1-3.5-5.5,6.4-5.2,15.7-10.1,17.5-18.6,3.7-19-1.1-38.2-.9-57.1.9.9,1.6,2.2,2.7,2.4-.7-5.5-3.3-11.1-5.7-16.2l-1.8,4.4c1.6,21.6,2.9,44.4,3.8,66.5-4.4,4.6-9.7,8.8-15,11.1.5-2,1.6-4.4,1.3-6.3-1.8,2.8-1.1,7.2-4.6,9-6.9,3.5-15.5,6.6-23.6,3.5-5.3-2.6-8-8.1-7.9-13.8-.4-6.3,3.1-10.9,4.8-16.2-.4.9-1.5,2.8-2.9,2.4-2.7-4.1.7-7.9,1.1-12-2.2,4.4-5.5,10.5-1.8,15.5-2,4.1-2.6,8.8-2.6,13.6,0,7,2.2,13.6,8.6,17.3,8.6,4,17.5-.2,24.7-4.2l1.1,6.6c1.3,2.8,3.7,4.6,6.6,4.8,13.5-1.5,27.4-11.4,32.2-24.5,1.5,5.3.7,11.4,4.7,15.7,8,5.3,15.5-1.5,22.1-5.2,4.8,4.2,9.9,7.9,16.8,7,4.4-.5,6.6-5.5,8-9,4.2-17.3-.9-35.8-.7-53.8l3.1,1.8c-1.1-5.5-3.5-11.6-6-15.9M469.9,763c2.4-.9,7.3-.6,10,.9l-5.5,2.6-4.6-3.5Z"/>
    <path class="cls-8" d="M513.1,685.7c-1.6.6-1.3,2.4-2,3.5l2.4-.6c2.8,3-2.7,5.9-3.5,8.3,3.5-2.2,6-5.7,6-9.8-.4-1.3-1.6-1.5-2.9-1.5"/>
    <path class="cls-8" d="M440.5,689.1c0-1.3-1.3-1.3-2.2-1.7-1.7.2-2.6,2-2.6,3.7l2.4-.6c2,3.1-2.7,6.1-3.6,8.3,3.3-2.2,6.2-5.5,6-9.8"/>
    <path class="cls-8" d="M535,699l2.4,1.5c.2-1.1,1.6-2,.7-3.3-3.5-1.3.2-4.1-1.1-6.6-.9-3.5-4-.2-5.5,1.1-2.6,2.4,0,5.7,2.2,7-5.1,5.2-11.3,7.2-16.8,11.4,6.8-1.7,13.2-5,18.1-11.1M532.6,693.3c.4-1.1,2.6-1.6,2.6.2v1.1c-.9.5-1.8-.6-2.6-1.3"/>
    <path class="cls-8" d="M551.3,724.3l-1.1,2.8c5.3-1.5,10.2-4.6,15.3-5.7.7,16,2.8,32,2.4,48.1,6.8-14.7,1.5-33.2,1.6-49l25.2-10.1.7-2.2c-8.8,3.7-17.2,5.7-26,9.4-1.1-3.9-1.3-8.3-1.1-12.2,1.1.4,2,2.4,3.1,2-1.5-5.5-3.3-11.4-6-15.8l-2.2,6.3c1.5,6.8,2,14.2,1.6,21.2l-13.7,5.3Z"/>
    <path class="cls-8" d="M398.5,704.7c.2,1.1,1.3,2,2.6,1.8,2-1.1,2-3.5,2.6-5.3l-2.6,2.4c-3.6-3.5.4-7.9.6-12-2,3.9-4,8.3-3.1,13.1"/>
    <path class="cls-8" d="M465.7,703.8c.4,1.8.2,4.4,2.7,4.1,2.2-.9,2-3.5,2.6-5.3-.9.9-1.1,2.6-2.6,2.4-3.1-3.7-.2-8.1.7-12-2,3.3-3.1,7-3.5,10.9"/>
    <path class="cls-8" d="M578.1,705.5c.2,1.3,1.1,2.6,2.7,2.4,1.8-1.1,1.8-3.5,2.6-5.3l-2.6,2.4c-3.1-3.3-.2-8.7.4-12-2.2,3.7-3.3,7.9-3.1,12.5"/>
    <path class="cls-8" d="M505.2,702.3l-2.4,6.6c2.4,23.4,4.2,48.1,4.6,71.3,2-4.1,3.1-8.5,3.3-13.3l-2.7-50.7,3.1,2.2c-1.5-5.7-3.3-11.1-5.9-16.2"/>
    <path class="cls-8" d="M439.4,703.8c-2.4,4.2-3.8,8.8-3.8,13.8.4,1.3,1.6,1.3,2.6,1.7,1.6-.4,3.5-1.1,4-2.9,1.5-3.1-.2-6.6-2.9-8.5l1.1-4h-.9ZM441.2,713.8c-.5,1.1-1.8,2.2-3.3,2h-.9c-.7-1.5.4-3.1.9-4.4,1.1.6,2.2,1.5,3.3,2.4"/>
    <path class="cls-8" d="M611,710.8c-2.6,3.9-4.6,8.5-4.4,13.8.2,1.7,2,1.7,3.3,1.5,2.2-.6,3.8-2.8,3.5-5.2.5-2.4-1.1-4.6-3.1-5.9-.2-1.7,1.5-3.1.7-4.2M612.3,721c-.5,1.5-2.4,2-3.8,2-1.3-1.5,0-3.1.5-4.4,1.3.4,2.4,1.1,3.3,2.4"/>
    <path class="cls-8" d="M532.8,715.2c-1.6-1.5-3.3-2.8-5.5-3.3l-2.4,5.2,5.9,4.1,2.4-4.1,5.5,3.5c1.1-1.7,2.4-3.3,2.7-5.4-1.8-1.8-4-2.6-5.8-3.9-.9,1.3-1.5,3.3-2.7,3.9"/>
    <path class="cls-8" d="M445.8,729.6c7.1-2.2,14.8-5.3,18.6-12.7.9.7,2.4,2,3.5.7,2.4,2.4,2.6,6.1,3.8,8.8,1.8-3.7,1.6-8.5,4.2-11.8l2.4,1.5c.5-.6.5-1.3.9-1.8-.4-1.5-1.5-3.1-3.3-2.8-3.1,2.6-2.4,7.6-4.2,9.8-.9-3.1-1.5-7.4-5.5-8.5-4.4,8.8-14.3,11.8-20.5,16.8"/>
    <path class="cls-8" d="M391.9,720c4.2.4,9.9-.7,13.3,1.3-4,3.3-9,4.6-12.6,8.1,7.7-1.5,16.6-5.7,18.5-14.2-3.7-2-8.4-1.5-13-1.5-3.7-.2-4.8,3.7-6.2,6.3"/>
    <path class="cls-8" d="M591.8,729.4c.4.9,1.3,2.4,2.6,1.8,2-1.1,2-3.5,2.7-5.3-.9.5-1.5,2.4-2.9,2.4-2.9-3.7.4-8.1.7-12-1.8,4.1-4,8.1-3.1,13.1"/>
    <path class="cls-8" d="M545.2,719.8c-2.6,5.5-6.2,11-10,15.8l-6-6.3c.7-1.1,2.2-.4,3.3-.5v-.6c-2.7-2-5.7-4.2-8.6-5-4.4,7.7,5.9,11.6,8.2,17.7-3.5,6.1-7.3,12.5-5.9,20.4.5,2.6,3.7,3.5,5.9,2.6,4.9-1.8,11-5.9,11.1-12.2,0-5.5-1.8-10.3-5.7-14.4,3.5-5.5,8.8-10.9,7.7-17.7M541,751.2c-3.1,3.5-7.3,6.4-12.1,5.5-1.8-1.5-.2-3.5.2-5l5.3-8.3c2.9,1.6,4.9,5,6.6,7.7"/>
    <path class="cls-8" d="M580.5,731.8c1.3-1.7,2-3.5,2.4-5.4-1.6-1.8-3.7-2.8-5.8-3.7l-2.4,5.2,5.9,3.9Z"/>
    <path class="cls-8" d="M456,740.8l29.2-11.8.5-1.8c-9.7,3.5-19.4,6.6-28.7,10.7l-1.1,2.9Z"/>
    <path class="cls-8" d="M517.3,746.6c2.6-.4,2.4-3.3,2.9-5.3-.9.9-1.1,2.9-2.9,2.4-2.6-3.7.4-8.3.9-11.6-2.2,3.7-3.3,7.9-3.1,12.5-.2.9,1.1,2.6,2.2,2"/>
    <path class="cls-8" d="M618,755c.2-6.8-2-13.5-8-17.1-3.1-1.1-5.9.9-7.9,3.3-1.8,2.6-2.4,6.1-2,9,2.4,7.2,13,.7,15.5,7.2-7.5,9.2-16.8,16.4-27.8,18.6-2.7-.2-6-.4-7.9-2.6,4-3.5,9.5-6.8,10.2-12.4,3.1-7.4-2.9-12.3-4.4-18.2l2.4.6c-2.2-2.8-4.6-5.7-7.1-7.7-3.6,9.2,6,15.5,7.9,23.6-3.3,4.2-7.7,6.6-11.9,9.6-1.8-5.9,1.3-11.6,1.6-16.8-2.6,5.7-3.6,12-4.2,18.4-4.4,2.8-9.3,4.6-14.8,5.3-2.9.2-5.1-1.5-7.1-3.5,3.8-2.9,7.9-6.6,8.8-11.2,3.1-7.4-3.1-12.3-4.6-18.2l2.4.6c-2-2.8-4.4-5.7-7-7.7-3.8,8.7,4.8,14.7,7.5,22.1v2c-2.9,2.9-6.2,5.7-9.5,7.2-.4-5.7,1.8-10.7,2.2-15.3-2.6,5.2-3.7,11.1-4.2,17.1-6.8,4.2-16.1,10-23.8,4.2-6.2-5.7-1.5-15.1-.9-21.4-1.1,1.8-1.6,4.1-2.4,6.1-1.8,7.7-3.1,18.1,4.2,23.6,8.6,3.3,16.8-2,24-6.6,1.1,2.2,2,4.4,4.2,6.1,7.7,4.4,15.9-.9,22.7-4.6,1.1,2.4,3.1,4.3,5.1,5.7,7.3,3.1,14.1-.9,19.7-4.8,6.6-5.9,17.4-12.2,17-22.1M611,747.7c-2.4-.9-7.1,1.1-7.3-2.6.9-1.5,3.1-.9,4.4-.6,1.1.6,2,1.7,2.9,2.6v.5Z"/>
    <path class="cls-8" d="M406.5,753.6c.4,1.5.9,3.3,2.9,2.8,1.6-1.1,2.4-3.1,2.4-5.2-.9.7-1.1,2.6-2.6,2.4-3.3-3.7.2-8.1.7-12-2,3.5-3.7,7.4-3.5,12"/>
    <path class="cls-8" d="M391.9,762.6c.2.9,1.1,2.4,2.6,1.8,2-1.1,2-3.5,2.6-5.3-.7.5-1.3,2.4-2.7,2.4-2.9-3.7.2-8.1.7-12-2,3.9-4,8.3-3.1,13.1"/>
    <path class="cls-8" d="M437.6,751.4c.2-1.5-1.5-2.2-2.9-1.8-1.3.7-2,2-2,3.5l2.4-.6c2,3-2,5.5-3.7,7.9,2.7-1.5,6-5.2,6.2-9"/>
    <polygon class="cls-8" points="602.6 787.3 627.3 769.4 627.3 766.5 602.6 784.9 602.6 787.3"/>
    <path class="cls-8" d="M517.1,777.3c-1.5.7-2,2-2,3.5l2.2-.5c3.1,2.9-2.7,5.7-3.3,8.3,3.3-2,5.5-5.3,6-9,.2-1.7-1.3-2.6-2.9-2.2"/>
    <path class="cls-6" d="M370.9,376.3c-2.8-.3-3-3.7-5.5-4.3-5.4,2.7-6.4,8.9-8.8,13.5-.7,1.3-2,2.8-3.7,2.4-3.6-2.4-2-7.9-2.2-11.5-1.4,3.4-1.4,8.2,0,11.8.8,1.1,1.6,2.8,3.3,2.6,5.4-3,4.2-10,8.8-14,3.8-4.1,3.8,3.8,7.6,3.2,2.2-.2,4.3-.7,5.8-2.2-.4,2.7-1.3,6.4.6,8.9,4.2,1.6,6.9-3.1,10-4.6,2,5.5-5.6,4.7-6,8.3l5.4-3.2c.5,1.5.7,3,2,4.1,1.2,1.2,3.3,1.1,4.9.8,7.4-3.3,15.1-10.6,16.7-18.6l6.6-4c1.6,0,3.1,1.9,5,2,4.9,1,8.7-2.6,11.5-6l.5,2.4c.8,1.5,2.5,1.4,4,1.4,2.7-.5,5-3.4,6.5-5.1.2,1.1.5,2.1,1.3,3,1,.7,2,.4,3.1.3,2.1-.7,2.8-2.9,3.7-4.5.7,1.3,1.6,3.2,3.3,3.4,1.9,0,3.7-1,4.7-2.2,0,3.1.9,6.4,3.5,8.4,4.6.7,4.7-4.7,6.3-7.4,1.1-2.1,3-5.3,5.8-4.9,1.6,3.5,5,6.5,9,6.7,2.9.4,5.8.6,8.8.7l.5-1.3v-2.3c-4.7-.2-9.2-.9-13.5-2-2.1-1.7-2.3-4.9-5-5.5-5,1.7-6,7.1-8.1,11-.7,1.3-2.1,2.8-3.8,2.1-2.6-1.7-2.8-5.1-2.4-8,2.4-9-.2-18.3-.3-27.5l.3-.3c.5.3.9,1.3,1.5.9-.7-2.8-1.9-5.4-3.1-8,.3-.6-.3-1.5.5-1.9,5.4,4.8,8.9,10.6,11.2,16.8,2.5,5.8,0,11.9-3,16.6,2.7-2.4,4.1-5.5,4.8-8.9,1.6-11.8-3.9-22.3-13.7-28.8-1.2,2.6.2,5.5-.7,8.2.2,10.2,1.8,20.5,1.7,31l-.9,1.4c-1.2.9-2.6,1.5-4.3,1.3-1.6-.5-2-2.2-1.7-3.9h-.3c-1.1,1.7-2.2,3.7-3.9,4.8-1,.5-2.6.8-3.5-.3-1-.9-.6-2.1-.3-3.3-2.1,1.7-3.7,4.8-6.5,5.4-1.4.5-3.4.5-4.5-.6-.9-.9-.3-2.1-.3-3.2-1.8.8-3.1,3-4.8,4.4-2.6,1.8-6.7,3-9.3,1.1,2.2-1.9,5.4-2.5,5.9-5.8-3.8-2.5-9.3-1.6-13.3-.3-2.8.6-4.9,2.7-5.1,5.5.9-.5,1.6-.9,2.7-.9,1.7-.3,3.1.8,4.3,1.9l-5.2,3c-.9-1.2-1.5-2.7-2.9-3.4-1.2-.6-2.9-.3-3.7.7-1.4,1.8-2.8,3.8-2.2,6.2,1.6,2.6,5.3.7,7.5.4v1.2c-4.1,5.9-10.1,12.8-17.9,13-1-.4-2.3-1.2-2.7-2.3,2.7-1.9,5.6-3.1,8.3-4.8l.6-1.2c-2.9,1.4-5.6,3.1-8.4,4.7h-.7l.2-3.6c2.9-3.1,6.6-5.6,9.3-8.9.9-2.3,1.5-5.7-.6-7.7-3.5-1.7-7.8-1.6-10.9-4.2.7-.4,1.7-.3,2-.9-1.7-.8-3.7-1.3-5.5-1.3v2.5c2.6,4.2,7.9,5.5,12.5,6.8.9.5,2.3.7,2.5,1.9-5.2,5.1-10.8,10.3-16.9,13.7-1,.4-2.1.3-2.9-.6-.8-3.6-.2-7.7,3.2-9.9.3,1-.5,2.2-.5,3.1,1.1-1.6,1.7-3.3,1.9-5.1.2-.7,0-1.5-.8-1.5-3.1,2.1-5.4,7.6-10,7M420.9,363.6l-2.9,1.9-2.8-1.6c1.7-.5,3.8-.8,5.6-.3M402.5,371.8v-.8c1-1,2.7-.9,3.6.5-1,.6-2.4.7-3.6.4"/>
    <path class="cls-6" d="M505.7,367.4c6.7-.7,13.2-2.2,19.2-4.6.4.9.5,2.1,1,2.9.8,1.8,2.6,2.3,4.5,2.2,1.1-.3,1.9-1.4,2.4-2.3,1-2.4.8-5.8-.7-7.7-.3.8-.6,1.7-.9,2.4-.3,1.5,1.7,2.7.4,3.9-1.1.4-2.8.5-3.8-.3-1.3-1.1-1-3.2-1-4.6-6.5,2.3-13.7,4-21.1,4.7v2.6c-.1,0,.2.9.2.9Z"/>
    <path class="cls-6" d="M579.4,335c.7,0,1.4-.6,1.5-1.3.7-1.8-.4-3.2-1.6-4.3l.5-1.9c-1.8,1.1-2,3.9-2.5,6.2,0,.9,1.1,1.6,2.1,1.3M578.6,331.1c.7.3,1.4.7,1.8,1.4-.3.7-1.2,1.1-2.1.7-.6-.7.1-1.5.3-2.1"/>
    <path class="cls-6" d="M433,333.6c.7-1.7.1-3.6-1.5-4.6.2-.7.8-1.4.6-1.9-.8.4-.9,1.3-1.2,2-.6,1.9-2.1,4.7-.3,6.1,1,0,1.9-.7,2.5-1.6M430.8,331.2c.8,0,1.3.5,1.9,1-.6.7-1.3,1.2-2.2,1.2-.4-.7,0-1.6.3-2.2"/>
    <path class="cls-6" d="M569,337.1c1-.4,1.1-1.6,1.3-2.5-.3.4-.8,1.1-1.3,1-1.6-1.8,0-4.4.2-6-.8,1.8-1.9,3.4-1.6,5.6,0,.9.4,1.7,1.4,1.9"/>
    <path class="cls-6" d="M595.6,337.4c.8-.7.8-1.5,1.1-2.3l-1.2.9c-2.1-1.6,0-4.1.2-6-1.1,1.8-2.1,3.8-1.6,6.2,0,.7.9,1.4,1.6,1.2"/>
    <path class="cls-6" d="M548.3,338.2c.9-.6,1.2-1.6,1.2-2.6-.3.5-.8,1.2-1.3,1.1-1.5-1.9,0-4.2.4-6.1-1.1,1.8-2,3.6-1.8,6,.2.7.6,1.6,1.5,1.6"/>
    <path class="cls-6" d="M420.7,339.1c1.2-.6,1.4-1.9,1.7-3-.5.4-.8,1.5-1.7,1.4-1.1-1.9.2-4.2.6-6.1-.8,1.9-1.8,3.6-1.8,5.9.2.7.2,2,1.2,1.8"/>
    <path class="cls-6" d="M541.3,358.4c-.4,1-1.2,2.1-1.1,3.1l1.2-.3c2.5-.4,4,1.6,5.6,3.2-3.3,1.4-7,1.9-10.3,3.2-6.1.6-8.1,9.8-14.7,8.7-4.5-3.4,0-8.5.4-12.1-1.7,2.6-3,5.4-3.2,8.6-.2,2.6,1,5,3.2,6.3,4.6,1.6,6.6-3.6,9.9-5.8,5-3.7,11.3-4.3,16.9-6.3,2.5,2.9,5.6,4.8,9.3,4.4,1.6-.5,2.6-2.1,3.3-3.4,2.4-8.6-.5-17.6-.1-26.3,4,6.6,9.2,12.7,9.9,20.8-.2,3.9-3.4,7.2-6.6,9.3v-5.8s-.6,1.4-.6,1.4c-.8,2.6.2,6.4-3.1,7.5,1,0,1.7-.7,2.5-1,.5.2.3.7.3.9.9,2.8,1.5,7.1,5.3,7.3,3.9-2.4,3.4-7.4,7.4-10,.9-.4,2.2-.9,2.9,0,1.7,3.3,4.1,7.7,8.7,7.3,1.4-.3,3-1.2,3.7-2.5,1.3-2,.4-4.7-.2-6.4,3.8,3.3,6.7,9.7,12.7,8.7,2.1-.5,2.5-2.7,3.1-4.4l.5,2.5c1.7,4.9,7.1,8.3,11.8,9.3l.3-2.2c-.2-1.1-1.6-1.6-2.5-2.2-1.5-1.5-4.2-2.3-4.5-4.5l7.5-1.3c.8,1.9,2.5,3.8,4.2,5,1.1.5,2.9,1,3.4-.6.8-2.4.7-5.4-1.4-7.2-1.4-.9-3.2-1.2-5-.8-1.2-3.6-1.7-7.8-1.7-11.7l7.2-.6c.7,0,1-.8.9-1.2l-8.1.7c-.5-4.5-.8-9.6-.6-14.4l1.6,1.5c-.6-3.1-2-5.9-3-8.9-.5.2-.7,1.2-1.1,1.9.6,6.4.4,13.5,1.2,19.9-1.7.9-5-.3-5.3,2l5.3-.5c.7,3.8.7,8,1.5,11.7l-5.2,1.1c-1.8.5-2.7,2.4-3.1,3.9l-.4-.5c-4.1-9.3-2.2-21-3.6-31.5-.6-3.4-.9-7.3-2.3-9.9l-.8,2.4c1.8,11.1,2.2,22.8,2.1,34.7,0,1.1-1.1,1.9-2,2.3-1.9.6-3.5-.4-5-1.2-8-8.1-16.6-16.8-25.2-23.6,6.6-3.6,14.1-5,21.6-6.6,2.2,0,5.3-1,6.5,1.1-2,2.4-5.4,4.4-5.6,7.6,1.9-3.8,7.3-5.4,7.2-10.1-.9-2.3-4.3-1.7-6.5-1.6-8,1.4-16.2,2.6-23.1,6.8-.8,1.6-.9,3.6-.7,5.4l13.3,13.2c2,2.3,4.2,4.7,4.7,7.7-1.2,1.1-2.8,1.6-4.6,1.3-4.2-.3-4.7-5-7.3-7.4-5.1-.6-6.6,5.4-8.6,8.6-.6,1-1.6,2.7-3.3,2.1-2.5-.8-2.8-3.6-3.1-5.8,2.8-1.8,6-4.1,7.3-7.3,2.9-11.2-5.3-19.9-10.1-29.1-1.2-1.4-1.1-3.7-2.7-4.7-.6,1.4-1.5,3.3-.2,4.6.7,9.6,1.6,19.1,1.8,28.8-.1.8-.3,1.8-1.3,2.1-2.7,1-5.6,0-7.4-1.8,2.2-1.1,5.6-.8,5.9-4-1.5-1.5-3.3-2.6-5.3-3.3-3.5-1-8.4-1.6-11.8,0M627.1,377.6v.5c-1.2,0-2.4-.8-3.1-2,1.2,0,2.5.6,3.1,1.5M553.2,362.3l-2.9,1-2.7-2.4c2,0,3.9.3,5.5,1.4"/>
    <path class="cls-6" d="M440.1,338.2c-2.6,2.8-5.9,4.4-8.6,6.8,3.4-1.5,6.9-3.4,9.4-6.7l1.2.6c.1-.6,1-1.2.3-1.8-1.4-.2-.3-1.5-.5-2.2.6-2.8-2.5-1.1-3,0-1.1,1.2,0,2.8,1.1,3.3M440.9,335.5v.8c-.6-.2-1-.5-1.3-.8,0-.5,1.4-1,1.3,0"/>
    <path class="cls-6" d="M627.5,342.3c1-2-.4-3.7-1.5-5.1.2-.6.8-1.2.6-1.8-1.7,1.8-3.2,4.8-1.9,7.3.8.4,2.2.7,2.9-.4M625.3,339c.8.4,1.6,1.1,1.8,1.9-.7.3-1.4.6-2.1.3-.6-.7,0-1.5.3-2.1"/>
    <path class="cls-6" d="M610.2,338.1c1,1.4,1.3,3,1.7,4.6-.7.6-1.1,1.3-1,2.3.3-.3,1.3-.9,1.8,0l-1.9.7c-.7,3.8,1.1,7.8,1,11.6.6-3.4-.2-6.8-.9-10.1,1.1-.6,2.4-.5,3.6-.7,1.2-1.7-1.2-3-2.1-4l1.2-4.2c.5-1.7,1.4,0,2,.3h.2c.4-.9,0-1.8-.8-2.4-2.5-.3-1.8,3-2.7,4.5-.8-1.9-.9-4.4-3.2-5.2l-1,1.4c.5.6,1.1,1.7,2,1.2"/>
    <path class="cls-6" d="M450.8,343.2c1-.6,1.3-1.8,1.5-2.8-.5.3-.7,1.4-1.5,1.2-1.3-1.8.1-4.3.4-6-1,2-1.8,3.9-1.6,6.4.1.6.5,1.3,1.2,1.2"/>
    <path class="cls-6" d="M588.1,335.9c-5.1.9-10.3,1.4-15.2,2.7l-.3,1.2,15.2-2.9.3-.9Z"/>
    <path class="cls-6" d="M528.2,343.4l15.1-4.2.5-1c-3.1.7-6.3,1.5-9.3,2.2-2,1.1-5.5.4-6.2,3"/>
    <path class="cls-6" d="M425.9,341.8l1,.7c.4-.4.4-.9.4-1.5l-.7-.8c-2.6.6-2,3.6-2.9,5.5-.4-1.3-.8-2.5-1.8-3.6-.5-.2-1.2-.8-1.6,0-.4.7-1.2,1.5-.2,2.1.5.3,1.1.3,1.4,0,1.1,1.2,1.7,2.8,1.6,4.4-2.6,3.2-6.5,5.3-9.3,7.8,2.5-1.2,5-2.3,7.1-4.3,3.5-2.6,2.7-7.1,5-10.1"/>
    <path class="cls-6" d="M373.7,344.8c-.5.4-.9,1.5-1.7,1.5-1-1.9.2-4.1.6-6.1-1.1,2.2-2.4,5.3-1.1,7.7,1.7,0,1.7-2,2.2-3.1"/>
    <path class="cls-6" d="M537.3,346.5l15.3-3.9.3-.9c-5.1,1-10.1,2.2-15,3.6l-.6,1.2Z"/>
    <path class="cls-6" d="M410.2,347.5l1,.4c2.2-1.8-2-2-.2-3.9,0-.7.2-1.7-.8-1.6-1.3.6-2.7,2-2.7,3.5.2.8,1.1,1,1.6,1.5-2.4,3.1-6.2,4.8-8.5,7.4,3.5-1.5,7-4.2,9.5-7.2M408.7,344.8c0-.7,1.3-1.1,1.3-.2v.8c-.6,0-1-.4-1.3-.7"/>
    <path class="cls-6" d="M467.8,351.4c.7-.8,1.2-1.8,1.4-2.8-.4-.6-1-.7-1.4-.9-2.6-.7.5-2.1,0-3.4l-2.9-1.8-1.4,2.8,1.4.8c2.4.5,0,2.2,0,3.4l3,1.9Z"/>
    <path class="cls-6" d="M390.3,346.8c.5.5,1.3.7,1.9.2,1.1,1.1,1.4,2.6,1.8,4,1.2-1.8.9-4.2,1.9-6.1.4-.8,1,0,1.5.2.5-.5.4-1,.4-1.7-.3-.4-.7-.6-1.1-.7-2,1.1-1.7,3.6-2.3,5.5-.5,0-.4-.8-.6-1.2-.5-1-1.1-2.4-2.6-2.4-2.1,4.6-7.2,7.5-10.9,10.7,3.8-1.7,8-4.7,9.9-8.6"/>
    <path class="cls-6" d="M350.1,362.7c2.4-1.5,4.8-3,6.9-5,3.4-2.7,3.3-6.9,4.7-10.5.3-.5.9-.5,1.1,0,.8.5.7-.7.8-1.2-.2-.5-.5-.7-1-.9-2.2,1.2-1.8,4.1-2.7,5.9-.2-1.2-.7-2.4-1.7-3.4h-1.6c0,.7-1.2,1.3-.4,2,.4.4,1.4.6,1.6,0,.8,1.2,1.7,2.4,1.8,4-2.7,3.4-6.4,6.2-9.5,9.1"/>
    <path class="cls-6" d="M442.4,346.6c-1.1,1.4,1,3.5-.9,4.6-2.6.5-.7-2.6-1.6-3.8l-.7.8c.2,1,.2,2.2.4,3.6.1.4.6,1.1,1.2.9,1-.3,1.4-.9,1.8-1.8l.8.9c.5,0,1.1.2,1.4-.3,1.7-1.8-.3-3.7-.4-5.6-1.1,1.4,0,2.8.5,4.1-2.8,1.6-1.3-2.7-2.6-3.6"/>
    <path class="cls-6" d="M379.3,346.3c-5.2,2.6-10.1,5.9-15.2,8.9l-.4,1.5,14.8-9.1.8-1.3Z"/>
    <path class="cls-6" d="M633.9,381.5l-1.6-26,.3-.3,1.5,1.7c-.8-3.2-1.8-6.3-3.2-9.1l-1.1,2.7c1.1,12.2,2.1,24.9,2.2,37.1,1.2-1.8,1.6-3.9,1.8-6.2"/>
    <path class="cls-6" d="M534.7,355c0,.7.8,1.2,1.4,1.2,1-.6,1.1-1.6,1.2-2.6-.3.5-.8,1.3-1.4,1.1-1.3-1.9,0-4.3.4-5.9-1.1,1.8-1.7,3.8-1.6,6.2"/>
    <path class="cls-6" d="M624.7,356.5c.9-.5,1.2-1.4,1.2-2.4-.3.6-.8.9-1.3.9-1.6-1.8,0-4.3.3-5.9-1.1,1.8-1.8,3.6-1.7,5.9.2.7.8,1.4,1.5,1.5"/>
    <path class="cls-6" d="M588.7,352.8c.5.3,0,1,.9.9.4,0,1-.3.8-.9-.4-.9-1.5-1.2-2.5-1.6-1.7-.4-4.5-.7-5.6.8,1.2,2.8,5.4,3.7,5.8,6.8-2.9-2.2-6.5-4.1-8.4-7-.3,4,4.6,5.7,7.2,7.7.8.2,1.8,0,2.4-.9.4-3.5-4.3-3.9-5.5-6.8,1.6-.5,3.5.3,5,1"/>
    <path class="cls-6" d="M430.3,357.9c0,.7.5,1.6,1.4,1.4.9-.6,1.2-2.3,1.2-2.7-.5.4-.7,1.3-1.4,1.2-1.3-2,.1-4.4.5-6.1-1,2-1.9,3.8-1.7,6.2"/>
    <path class="cls-6" d="M566.1,354.5l-1.3,2.5,2.5,2.1-1.2,2.3c1,.8,2.1,1.9,3.1,2.5.6-.7,1.1-1.6,1.2-2.5-.6-.8-1.5-1.3-2.3-2.1,0-.6.5-.8.7-1.3,1.1-1.8-1.7-2.7-2.7-3.6"/>
    <path class="cls-6" d="M369.7,359.4c-.4.5-1.1,1.1-.7,1.7,1,.9-.3,2.8,1,3.5,1.3,0,2-1.2,2.5-2l.7.8c.8.2,1.3-.2,1.7-.8,1-1.7-.2-3.6-.8-5.1-1.4,1.7,1.1,3.1.2,4.5-2.5.3-.8-2.6-1.9-3.6-1.8,1,1.2,3.5-1.2,4.8-2.5.2-.4-2.8-1.5-3.6"/>
    <path class="cls-6" d="M597.5,365.8c0,.9.4,2.1,1.6,2,.9-.5,1.1-1.4,1.2-2.2l-1.1.9c-2-1.6-.3-4.2.2-6.1-1.2,1.6-1.6,3.4-1.8,5.4"/>
    <path class="cls-6" d="M611.8,369.2c.2.5.8,1.2,1.3,1.2,1.1-.4,1.1-1.9,1.2-2.4-.3.4-.6,1-1.2.9-1.9-1.9,0-4.1.3-6.1-1.1,1.9-2,4-1.6,6.3"/>
    <path class="cls-6" d="M358.5,367c1,.3,2,1,2.8.9.5-1,1.3-1.9,1.2-3.1l-2.9-1.1-1.2,2.3-3-.9-1.2,3.1,2.9,1.2c.8-.7.7-1.9,1.5-2.4"/>
    <path class="cls-6" d="M349.6,375.4c1.3-.5,1.6-2.3,1.6-3.1-.2.7-.8,1.3-1.4,1.5-1.2-1.9,0-4.3.6-6.2-1,2.1-2,4.1-1.8,6.7.1.5.4,1.1,1,1"/>
    <path class="cls-6" d="M526.8,371.3c.7-1.6-1.8-2.2-2.8-3.2l-1.4,2.7,2.5,1.9c1,.7,1.1-.9,1.7-1.4"/>
    <path class="cls-6" d="M447.1,372.1v-1.1c0,0-1.6,1.9-1.6,1.9-5.8-1.3-7.6,5.9-11.9,8.1,2.3-.4,3.6-2.8,5.3-4.3,1.8-3.3,5.5-.7,7.5-3.4.7.5,1.9.3,2.4-.5.2-.8.8-2.1,0-2.7-.3.5-.7,1.1-.3,1.7-.3.5-1,.2-1.4.3"/>
    <path class="cls-6" d="M452.6,377.2c0,.6.6.9,1,.9,1.1-.4,1.5-2,1.5-2.8-.2.6-.8,1.2-1.4,1.2-1.5-1.8.3-4,.5-6.1-1,2.1-2.2,4.3-1.6,6.7"/>
    <path class="cls-6" d="M546.6,381.3c2.1.7,4.8.6,6.4-.9-2.1,0-4.9.7-6.5-.7-.3-2.8,4.1-3.6,4.4-6.2-1.1.5-2.7,2-3.8.2l.3-.7c.3-.8,1.3-.6,1.4.2.3-.5.7-.7.8-1.2,0-.6-.7-.8-1.1-.8-1.1.8-2.5,1.9-2.5,3.3.3.7.8,1,1.4,1.5l-1.3,2c-.4.9-.8,2.6.5,3.3"/>
    <polygon class="cls-6" points="460.2 379.5 475.4 372.8 475.5 371.9 460.6 378.1 460.2 379.5"/>
    <path class="cls-6" d="M512.8,375.5l-3-1.9-1.2,2.7,3,2,1.2-1.9c.9.7,1.9,1.4,2.9,2.1l1-1.5c1.3-2.1-1.7-2.3-2.6-3.4l-1.2,1.9Z"/>
    <path class="cls-6" d="M417.5,384.4c2-.2,4.4-1.4,5.2-2.7-2,.7-4.1,2.1-6.4.9.1-3.1,4.5-4.3,4.4-7.4l-1.3,1.5c-.7.6-1.6.6-2.3,0l.2-.9c.4-.6,1.1-.7,1.5-.2l.6-1.4-.3-.5c-1.4.6-3,2.2-3.2,3.9.1.8.8.9,1.3,1.3-1,1.3-1.4,2.6-1.6,4.2,0,.8,1,1.5,1.9,1.2"/>
    <path class="cls-6" d="M428,380.8c0,.6.4,1.4,1.2,1.2,1.1-.4,1.1-1.8,1.5-2.8l-1.3,1.3c-1.9-1.5,0-4.3.1-6.1-.8,2.1-1.9,3.9-1.6,6.4"/>
    <path class="cls-6" d="M559.6,381.7c0,.6.7,1.1,1.3,1.1,1.1-.4,1.3-2.1,1.2-2.4-.3.4-.7,1-1.2.9-1.9-1.7.1-4.1.3-6.1-1.3,1.9-2,4.1-1.6,6.4"/>
    <path class="cls-6" d="M577.4,384.2c1.7-.5,3.2-2.2,3.3-4,0-.8-.9-1.4-1.7-1.2-.7.4-.8,1.1-.8,1.6h.3c.5-.4,1,0,1.2.3,0,1.5-1.4,2.4-2.3,3.4"/>
    <path class="cls-6" d="M599,390.1c.2.7.9,1.1,1.5,1.1.8-.5,1.1-1.4,1.1-2.3l-1.3.9c-1.7-1.8-.2-4.1.3-6-1.3,1.7-1.9,4-1.6,6.2"/>
    <path class="cls-6" d="M624.8,389.6h.3c1.3-.6,3.1-2,3-3.7,0-.9-1-1.3-1.8-1.3-.5.3-.7.8-.8,1.5.6-.3,1.2-.2,1.6.4.3,1.5-1.6,2.2-2.3,3.2"/>
    <path class="cls-6" d="M369.4,387.5c-.3,1.2-1.2-.2-1.9-.2-2.2-1.6-2,1.8-2.8,2.7l3.1,1.2,1.2-2.3,2.8,1.1c.5-1,1.4-2,1.3-3.1l-2.9-1.2-.9,1.8Z"/>
    <path class="cls-6" d="M613.9,394l.9-.3c1.3-.8,2.8-2.2,2.4-4-.2-.7-.8-.9-1.4-.9-.9,0-1,1-.9,1.6h0c.6-.2,1.1,0,1.4.4,0,1.5-1.7,2.2-2.5,3.3"/>
    <path class="cls-6" d="M360,395c0,.7.5,1.4,1.3,1.1,1-.8,1.2-2,1.4-3.1-.5.6-.8,1.6-1.6,1.4-1.1-2.1.4-4,.7-6-1.2,2-1.8,4.1-1.8,6.5"/>
    <path class="cls-6" d="M633.3,395.3h.4c.4,0,1,0,1.2.6,0,1.3-1.5,2.1-2.5,3.1.5,0,.7-.2.9-.3,1.3-.8,2.8-2.1,2.4-3.9-.3-.6-1-.8-1.5-.9-.8,0-1,.8-1,1.5"/>
    <polygon class="cls-7" points="655.3 414.5 655.3 414.5 655 414.6 655.3 414.5"/>
    <path class="cls-4" d="M524.3,282c13.5-2,22.6,14.7,22.6,14.7-1.8-26.7-30.1-22.8-30.1-22.8,7.2-5.7,21.8,1.5,21.8,1.5-10.6-14.9-25.8-10.6-25.8-10.6,1.8-3.4,12.7-2.7,12.7-2.7-9.9-9.7-21.4,0-21.4,0,.5-5.4-4-13.8-4-13.8,0,0-4.6,8.4-4,13.8,0,0-11.6-9.8-21.4,0,0,0,10.9-.8,12.7,2.7,0,0-15.2-4.3-25.8,10.6,0,0,14.6-7.2,21.8-1.5,0,0-28.4-4-30.1,22.8,0,0,9.1-16.7,22.6-14.7,0,0-28.9,8.2-15.1,33.9,0,0-.7-21.3,15.9-26.2,0,0-21.9,17.5-2.2,32.2,0,0-4.1-16.6,7.4-24.1,0,0-8.1,18.6,7.7,34.3,0,0-3.2-15.9,6.9-24.7v27.6c-.1,4-.4,8.7-.6,12.1-.3,6.2-.7,10.8-.7,11-.8,3.9-.9,6.5-.9,6.5h0s0,1.9,0,1.9v2.3c.1,0-.4,1.3-.4,1.3v.3c-.7,1-.9,1.8-.9,2.6,0,1.2.6,2,.9,2.4l-1,19.6c-2.8,3-5.3,8.3-5.3,8.4l-.4.9h25.6l-.4-.9s-2.5-5.4-5.3-8.4l-1-19.6c.3-.4.9-1.1.9-2.4,0-.7-.2-1.6-.7-2.6l-.3-.7-.3-.9v-2.6c.1,0,.2-1.6.2-1.6h0c0,0,0-2.7-.9-6.5,0-.1-.3-4.8-.7-11.1-.2-3.5-.5-8.2-.6-12.1v-27.6c10.2,8.7,6.9,24.7,6.9,24.7,15.8-15.7,7.7-34.3,7.7-34.3,11.4,7.6,7.4,24.1,7.4,24.1,19.7-14.8-2.2-32.2-2.2-32.2,16.6,4.8,15.9,26.2,15.9,26.2,13.8-25.7-15.1-33.9-15.1-33.9"/>
    <path class="cls-10" d="M524.3,282c13.5-2,22.6,14.7,22.6,14.7-1.8-26.7-30.1-22.8-30.1-22.8,7.2-5.7,21.8,1.5,21.8,1.5-10.6-14.9-25.8-10.6-25.8-10.6,1.8-3.4,12.7-2.7,12.7-2.7-9.9-9.7-21.4,0-21.4,0,.5-5.4-4-13.8-4-13.8,0,0-4.6,8.4-4,13.8,0,0-11.6-9.8-21.4,0,0,0,10.9-.8,12.7,2.7,0,0-15.2-4.3-25.8,10.6,0,0,14.6-7.2,21.8-1.5,0,0-28.4-4-30.1,22.8,0,0,9.1-16.7,22.6-14.7,0,0-28.9,8.2-15.1,33.9,0,0-.7-21.3,15.9-26.2,0,0-21.9,17.5-2.2,32.2,0,0-4.1-16.6,7.4-24.1,0,0-8.1,18.6,7.7,34.3,0,0-3.2-15.9,6.9-24.7v27.6c-.1,4-.4,8.7-.6,12.1-.3,6.2-.7,10.8-.7,11-.8,3.9-.9,6.5-.9,6.5h0s0,1.9,0,1.9v2.3c.1,0-.4,1.3-.4,1.3v.3c-.7,1-.9,1.8-.9,2.6,0,1.2.6,2,.9,2.4l-1,19.6c-2.8,3-5.3,8.3-5.3,8.4l-.4.9h25.6l-.4-.9s-2.5-5.4-5.3-8.4l-1-19.6c.3-.4.9-1.1.9-2.4,0-.7-.2-1.6-.7-2.6l-.3-.7-.3-.9v-2.6c.1,0,.2-1.6.2-1.6h0c0,0,0-2.7-.9-6.5,0-.1-.3-4.8-.7-11.1-.2-3.5-.5-8.2-.6-12.1v-27.6c10.2,8.7,6.9,24.7,6.9,24.7,15.8-15.7,7.7-34.3,7.7-34.3,11.4,7.6,7.4,24.1,7.4,24.1,19.7-14.8-2.2-32.2-2.2-32.2,16.6,4.8,15.9,26.2,15.9,26.2,13.8-25.7-15.1-33.9-15.1-33.9Z"/>
    <path class="cls-4" d="M565.8,402.9c-4.3.8-8.6,1.7-12.8,2.8-4.8,1.3-9.6,2.9-14.2,4.8-5.2,2.1-10.1,4.7-14.9,7.5-5.3,3.2-10.4,6.7-15.3,10.6-5.4,4.2-10.5,8.7-15.5,13.3-2.6,2.4-5.2,4.9-7.8,7.4-1.9,1.8-3.8,3.7-5.7,5.5l-1.2,1-.3.3.2.4c.5,1.3,1.8,3.4,4.3,3.9h.4c0,0,.2-.3.2-.3,0,0,.2-.3.5-.8.4-.5.9-1.2,1.6-1.9,1.3-1.4,3.2-2.7,5.3-2.7.4,0,.9,0,1.3.2,2.7.7,4.3,3.1,4.3,5.6,0,2.2-1.2,4.6-4.2,6.2h-.1c0,0-.5.2-.5.2-.5.1-1.2.3-2.1.3-2.9,0-7.8-1.3-14-8.1l-.4-.4-.4.3c-.4.3-.9.6-1.3.9-2.7,1.6-5.3,3.2-8,4.8-3.6,2.1-6.8,2.9-9.3,2.9-5.1,0-7.8-3.2-7.8-6.6,0-.6,0-1.2.3-1.8,1-3.4,3.3-4,5.3-4.1,1.4,0,2.7.4,3,.6.5.2,1,.7,1.5,1.1l.7.7h.1c0,.1.2.2.2.2l1.1.3h0s.5,0,.5,0c1.1,0,3.9-.7,10-6.1l.2-.2v-.3h0c0-1.4-.3-3.1-1.7-4.3l-.3-.3-.4.2-.5.2c-.3.1-.8.3-1.3.5-1.1.4-2.6.8-4,.8-1.6,0-3.1-.4-4.4-1.7-1.1-1.1-1.6-2.6-1.6-4,0-3.1,2.4-6.1,6.9-6.1h.8c2.8.2,4.4,2.1,5.6,4.6,1.2,2.5,1.9,5.4,2.8,7.5l.3.9.7-.7,1-1h0c48.4-53.4,104-47.1,105.3-47-1.3.1-2.6.2-3.8.4-3.5.4-7,.9-10.5,1.6"/>
    <path class="cls-9" d="M565.8,402.9c-4.3.8-8.6,1.7-12.8,2.8-4.8,1.3-9.6,2.9-14.2,4.8-5.2,2.1-10.1,4.7-14.9,7.5-5.3,3.2-10.4,6.7-15.3,10.6-5.4,4.2-10.5,8.7-15.5,13.3-2.6,2.4-5.2,4.9-7.8,7.4-1.9,1.8-3.8,3.7-5.7,5.5l-1.2,1-.3.3.2.4c.5,1.3,1.8,3.4,4.3,3.9h.4c0,0,.2-.3.2-.3,0,0,.2-.3.5-.8.4-.5.9-1.2,1.6-1.9,1.3-1.4,3.2-2.7,5.3-2.7.4,0,.9,0,1.3.2,2.7.7,4.3,3.1,4.3,5.6,0,2.2-1.2,4.6-4.2,6.2h-.1c0,0-.5.2-.5.2-.5.1-1.2.3-2.1.3-2.9,0-7.8-1.3-14-8.1l-.4-.4-.4.3c-.4.3-.9.6-1.3.9-2.7,1.6-5.3,3.2-8,4.8-3.6,2.1-6.8,2.9-9.3,2.9-5.1,0-7.8-3.2-7.8-6.6,0-.6,0-1.2.3-1.8,1-3.4,3.3-4,5.3-4.1,1.4,0,2.7.4,3,.6.5.2,1,.7,1.5,1.1l.7.7h.1c0,.1.2.2.2.2l1.1.3h0s.5,0,.5,0c1.1,0,3.9-.7,10-6.1l.2-.2v-.3h0c0-1.4-.3-3.1-1.7-4.3l-.3-.3-.4.2-.5.2c-.3.1-.8.3-1.3.5-1.1.4-2.6.8-4,.8-1.6,0-3.1-.4-4.4-1.7-1.1-1.1-1.6-2.6-1.6-4,0-3.1,2.4-6.1,6.9-6.1h.8c2.8.2,4.4,2.1,5.6,4.6,1.2,2.5,1.9,5.4,2.8,7.5l.3.9.7-.7,1-1h0c48.4-53.4,104-47.1,105.3-47-1.3.1-2.6.2-3.8.4-3.5.4-7,.9-10.5,1.6Z"/>
    <path class="cls-4" d="M434.2,402.9c4.3.8,8.6,1.7,12.8,2.8,4.8,1.3,9.6,2.9,14.2,4.8,5.2,2.1,10.1,4.7,14.9,7.5,5.3,3.2,10.4,6.7,15.3,10.6,5.4,4.2,10.5,8.7,15.5,13.3,2.6,2.4,5.2,4.9,7.8,7.4,1.9,1.8,3.8,3.7,5.7,5.5l1.2,1,.3.3-.2.4c-.5,1.3-1.8,3.4-4.3,3.9h-.4c0,0-.2-.3-.2-.3,0,0-.2-.3-.5-.8-.4-.5-.9-1.2-1.6-1.9-1.3-1.4-3.2-2.7-5.3-2.7-.4,0-.9,0-1.3.2-2.7.7-4.3,3.1-4.3,5.6,0,2.2,1.2,4.6,4.2,6.2h.2c0,0,.5.2.5.2.5.1,1.2.3,2.1.3,2.9,0,7.8-1.3,14-8.1l.4-.4.4.3c.4.3.9.6,1.3.9,2.6,1.6,5.3,3.2,8,4.8,3.7,2.1,6.8,2.9,9.3,2.9,5.1,0,7.8-3.2,7.8-6.6,0-.6,0-1.2-.3-1.8-1-3.4-3.3-4-5.3-4.1-1.4,0-2.7.4-3,.6-.5.2-1,.7-1.5,1.1l-.7.7h-.1c0,.1-.2.2-.2.2l-1.1.3h0s-.5,0-.5,0c-1.1,0-3.9-.7-10-6.1l-.2-.2v-.3h0c0-1.4.3-3.1,1.7-4.3l.3-.3.4.2.5.2c.3.1.8.3,1.3.5,1.1.4,2.6.8,4,.8,1.6,0,3.1-.4,4.4-1.7,1.1-1.1,1.6-2.6,1.6-4,0-3.1-2.4-6.1-6.9-6.1h-.8c-2.8.2-4.4,2.1-5.6,4.6-1.2,2.5-1.9,5.4-2.8,7.5l-.3.9-.7-.7-1-1h0c-48.4-53.4-104-47.1-105.3-47,1.3.1,2.6.2,3.8.4,3.5.4,7,.9,10.5,1.6"/>
    <path class="cls-9" d="M434.2,402.9c4.3.8,8.6,1.7,12.8,2.8,4.8,1.3,9.6,2.9,14.2,4.8,5.2,2.1,10.1,4.7,14.9,7.5,5.3,3.2,10.4,6.7,15.3,10.6,5.4,4.2,10.5,8.7,15.5,13.3,2.6,2.4,5.2,4.9,7.8,7.4,1.9,1.8,3.8,3.7,5.7,5.5l1.2,1,.3.3-.2.4c-.5,1.3-1.8,3.4-4.3,3.9h-.4c0,0-.2-.3-.2-.3,0,0-.2-.3-.5-.8-.4-.5-.9-1.2-1.6-1.9-1.3-1.4-3.2-2.7-5.3-2.7-.4,0-.9,0-1.3.2-2.7.7-4.3,3.1-4.3,5.6,0,2.2,1.2,4.6,4.2,6.2h.2c0,0,.5.2.5.2.5.1,1.2.3,2.1.3,2.9,0,7.8-1.3,14-8.1l.4-.4.4.3c.4.3.9.6,1.3.9,2.6,1.6,5.3,3.2,8,4.8,3.7,2.1,6.8,2.9,9.3,2.9,5.1,0,7.8-3.2,7.8-6.6,0-.6,0-1.2-.3-1.8-1-3.4-3.3-4-5.3-4.1-1.4,0-2.7.4-3,.6-.5.2-1,.7-1.5,1.1l-.7.7h-.1c0,.1-.2.2-.2.2l-1.1.3h0s-.5,0-.5,0c-1.1,0-3.9-.7-10-6.1l-.2-.2v-.3h0c0-1.4.3-3.1,1.7-4.3l.3-.3.4.2.5.2c.3.1.8.3,1.3.5,1.1.4,2.6.8,4,.8,1.6,0,3.1-.4,4.4-1.7,1.1-1.1,1.6-2.6,1.6-4,0-3.1-2.4-6.1-6.9-6.1h-.8c-2.8.2-4.4,2.1-5.6,4.6-1.2,2.5-1.9,5.4-2.8,7.5l-.3.9-.7-.7-1-1h0c-48.4-53.4-104-47.1-105.3-47,1.3.1,2.6.2,3.8.4,3.5.4,7,.9,10.5,1.6Z"/>
    <path class="cls-4" d="M637.8,545.2c-1.7,3.3-6.4,11.6-14.7,19.4-9.5,8.9-23.7,17.3-43.7,17.3s-35.3-9.5-44.1-19.1c-4.4-4.8-7.5-9.6-9.4-13.1-1-1.8-1.7-3.3-2.1-4.3h0c0-.1,114.2-.1,114.2-.1Z"/>
    <path class="cls-9" d="M637.8,545.2c-1.7,3.3-6.4,11.6-14.7,19.4-9.5,8.9-23.7,17.3-43.7,17.3s-35.3-9.5-44.1-19.1c-4.4-4.8-7.5-9.6-9.4-13.1-1-1.8-1.7-3.3-2.1-4.3h0c0-.1,114.2-.1,114.2-.1Z"/>
    <polygon class="cls-9" points="580.7 401.1 523.5 543.6 637.9 543.6 580.7 401.1"/>
    <path class="cls-4" d="M476.9,545.2c-1.7,3.3-6.4,11.6-14.7,19.4-9.5,8.9-23.7,17.3-43.7,17.3s-35.3-9.5-44.1-19.1c-4.4-4.8-7.5-9.6-9.4-13.1-1-1.8-1.7-3.3-2.1-4.3h0c0-.1,114.2-.1,114.2-.1Z"/>
    <path class="cls-9" d="M476.9,545.2c-1.7,3.3-6.4,11.6-14.7,19.4-9.5,8.9-23.7,17.3-43.7,17.3s-35.3-9.5-44.1-19.1c-4.4-4.8-7.5-9.6-9.4-13.1-1-1.8-1.7-3.3-2.1-4.3h0c0-.1,114.2-.1,114.2-.1Z"/>
    <polygon class="cls-9" points="419.8 401.1 362.6 543.6 477 543.6 419.8 401.1"/>
  </g>
</svg>