<svg xmlns="http://www.w3.org/2000/svg" xmlns:xlink="http://www.w3.org/1999/xlink" width="434" height="358.018" viewBox="0 0 434 358.018">
  <defs>
    <linearGradient id="linear-gradient" x1="0.683" y1="0.635" x2="0.342" y2="0.347" gradientUnits="objectBoundingBox">
      <stop offset="0" stop-color="#4289c1"/>
      <stop offset="1" stop-color="#b6defb"/>
    </linearGradient>
  </defs>
  <g id="icon-sparkles" transform="translate(5716.428 8256.507)">
    <path id="Pfad_20" data-name="Pfad 20" d="M42.4,215.639C155.68,183.056,182.056,156.691,214.639,43.4c32.583,113.28,58.948,139.656,172.239,172.239C273.6,248.222,247.222,274.587,214.639,387.867,182.056,274.587,155.691,248.211,42.4,215.628Z" transform="translate(-5752.038 -8293.128)" fill="url(#linear-gradient)"/>
    <path id="Vereinigungsmenge_3" data-name="Vereinigungsmenge 3" d="M177.207,351.754c-32.47-112.9-58.038-138.473-170.943-170.988L0,179.015l6.264-1.8c112.9-32.481,138.485-57.981,170.943-170.943L179.015,0l1.751,6.264c32.481,112.9,58.05,138.473,170.954,170.943l6.264,1.8-6.264,1.8c-112.859,32.481-138.439,58.05-170.954,170.954l-1.8,6.264Zm-39.45-214.008a191.5,191.5,0,0,1-66.224,41.269,191.5,191.5,0,0,1,66.224,41.269A191.43,191.43,0,0,1,179.015,286.5a191.589,191.589,0,0,1,41.269-66.213A191.544,191.544,0,0,1,286.5,179.015a191.544,191.544,0,0,1-66.213-41.269,191.691,191.691,0,0,1-41.269-66.213,191.532,191.532,0,0,1-41.258,66.213Z" transform="translate(-5716.428 -8256.507)" fill="#00628f"/>
    <path id="Pfad_20-2" data-name="Pfad 20" d="M42.4,113.887C88.785,100.54,99.586,89.751,112.887,43.4c13.347,46.385,24.136,57.186,70.487,70.487-46.385,13.347-57.186,24.136-70.487,70.487C99.54,137.989,88.751,127.189,42.4,113.887Z" transform="translate(-5468.659 -8295.759)" fill="url(#linear-gradient)"/>
    <path id="Vereinigungsmenge_4" data-name="Vereinigungsmenge 4" d="M72.568,144.033c-13.3-46.26-23.772-56.708-70-70L0,73.307l2.569-.739c46.226-13.3,56.7-23.772,70-70.01L73.307,0l.739,2.558c13.29,46.237,23.727,56.708,70,70.01l2.558.739-2.558.739c-46.271,13.279-56.708,23.727-70.01,69.987L73.3,146.6ZM56.413,56.4A78.514,78.514,0,0,1,29.3,73.307,78.354,78.354,0,0,1,56.413,90.2a78.354,78.354,0,0,1,16.894,27.115A78.513,78.513,0,0,1,90.2,90.2a78.207,78.207,0,0,1,27.1-16.894A78.366,78.366,0,0,1,90.2,56.4,78.366,78.366,0,0,1,73.307,29.3,78.207,78.207,0,0,1,56.413,56.4Z" transform="translate(-5429.03 -8255.13)" fill="#00628f"/>
    <path id="Pfad_20-3" data-name="Pfad 20" d="M42.4,88.489C72.062,79.962,78.962,73.05,87.489,43.4c8.527,29.661,15.439,36.562,45.089,45.089-29.662,8.527-36.562,15.439-45.089,45.089C78.962,103.917,72.05,97.016,42.4,88.489Z" transform="translate(-5492.746 -8050.606)" fill="url(#linear-gradient)"/>
    <path id="Vereinigungsmenge_5" data-name="Vereinigungsmenge 5" d="M46.4,92.088c-8.5-29.559-15.2-36.255-44.759-44.759L0,46.863,1.637,46.4C31.2,37.893,37.893,31.2,46.4,1.637L46.874,0l.466,1.637C55.844,31.2,62.529,37.893,92.088,46.4l1.637.466-1.637.466c-29.559,8.5-36.244,15.2-44.748,44.759l-.466,1.637ZM36.074,36.062a50.239,50.239,0,0,1-17.338,10.8,50.239,50.239,0,0,1,17.338,10.8,50.148,50.148,0,0,1,10.8,17.372A50.023,50.023,0,0,1,57.674,57.7a50.239,50.239,0,0,1,17.36-10.835A50.239,50.239,0,0,1,57.7,36.062,50.023,50.023,0,0,1,46.9,18.725,50.148,50.148,0,0,1,36.074,36.062Z" transform="translate(-5452.134 -8008.989)" fill="#00628f"/>
  </g>
</svg>
