<svg xmlns="http://www.w3.org/2000/svg" xmlns:xlink="http://www.w3.org/1999/xlink" width="139.807" height="132" viewBox="0 0 139.807 132">
  <defs>
    <linearGradient id="linear-gradient" x1="0.067" y1="0.287" x2="1.049" y2="0.77" gradientUnits="objectBoundingBox">
      <stop offset="0.16" stop-color="#76b9dc"/>
      <stop offset="0.45" stop-color="#018dc8"/>
      <stop offset="1" stop-color="#234882"/>
    </linearGradient>
  </defs>
  <g id="img-traveling" transform="translate(-637.708 -243.28)">
    <path id="Pfad_2146" data-name="Pfad 2146" d="M1991.065,972.521a36.46,36.46,0,0,1-9.707-.73,2.4,2.4,0,0,1-1.362-.619,1.571,1.571,0,0,1,.194-2.081,2.694,2.694,0,0,1,2.146-.623,3.947,3.947,0,0,0,1.466.043,3.169,3.169,0,0,0,1.379-1.182,1.9,1.9,0,0,1,1.544-.862,3.783,3.783,0,0,1,1.226.616c.408.216,1,.239,1.233-.159.5-.851-.2-3.183,2.374-3.183,3.717,0,3.11,2.348,3.557,2.845.678.755,1.886.589,2.868.334s2.152-.5,2.91.177c.657.586.725,1.659,1.424,2.195.744.569,1.8.266,2.7.01s2.064-.349,2.587.428a1.62,1.62,0,0,1-.512,2.076,4.006,4.006,0,0,1-2.23.642c-5.092.309-9.714-.171-13.8.077Z" transform="translate(-1230.29 -660.464)" fill="#fff"/>
    <path id="Pfad_2147" data-name="Pfad 2147" d="M861.82,1808.629c0,.472,14.408,1.019,31.008,1.019s30.058-.382,30.058-.854-13.457-.854-30.058-.854-31.008.217-31.008.688Z" transform="translate(-205.46 -1434.368)" fill="#32323f" opacity="0.15"/>
    <g id="Gruppe_2210" data-name="Gruppe 2210" transform="translate(669.039 261.228)" opacity="0.85">
      <path id="Pfad_2148" data-name="Pfad 2148" d="M1027.219,462.39a2.859,2.859,0,0,1-.186,1.041,2.058,2.058,0,0,1-2.977.992c-1.655-.727-2.152.484-3.585.5-1.527.013-1.752-1.83-2.889-1.173-2.192,1.268-4.073-.019-3.182-1.915a2.648,2.648,0,0,1,2.7-1.761c1.617.093,1.376-1.206,3.26-1.133a2.481,2.481,0,0,1,1.243.325c.919.568.8,1.651,2.473,1.441,1.356-.171,3.147.726,3.143,1.687Z" transform="translate(-1014.174 -458.934)" fill="#fff" fill-rule="evenodd"/>
    </g>
    <g id="Gruppe_2212" data-name="Gruppe 2212" transform="translate(651.406 300.2)">
      <path id="Pfad_2149" data-name="Pfad 2149" d="M870.308,960.323a34,34,0,0,1-28.375,33.54c-.338.056-.676.107-1.016.152-.109.015-.219.03-.328.043l-.465.055c-.187.021-.375.041-.563.058q-.932.089-1.878.127c-.457.017-.916.027-1.378.027a34,34,0,0,1-34-34c0-.7.022-1.4.063-2.089h0a33.912,33.912,0,0,1,.871-5.857h0c.113-.474.236-.941.369-1.406q.468-1.638,1.092-3.206.114-.285.232-.567c.157-.377.321-.749.492-1.119q.383-.831.811-1.638a34.384,34.384,0,0,1,1.869-3.118h0q.17-.251.343-.5l.007-.01q.469-.667.968-1.311c.069-.089.138-.178.209-.266a33.767,33.767,0,0,1,2.7-3.021q.749-.745,1.541-1.441s0,0,0,0a33.961,33.961,0,0,1,4.542-3.369c.087-.055.173-.108.26-.161q.605-.367,1.226-.709c.418-.23.841-.453,1.268-.667a34.088,34.088,0,0,1,25.194-2.036q1.312.406,2.578.913.908.361,1.786.776l.152.071c.2.094.4.19.593.288.123.062.246.123.368.187q1.459.75,2.835,1.636,1.016.653,1.98,1.375l.071.052a34.234,34.234,0,0,1,8.166,8.77q.533.823,1.016,1.676a33.786,33.786,0,0,1,4.377,15.361q.027.692.028,1.388Z" transform="translate(-802.3 -926.32)" fill="url(#linear-gradient)"/>
      <g id="Gruppe_2211" data-name="Gruppe 2211" transform="translate(0.065 3.198)">
        <path id="Pfad_2150" data-name="Pfad 2150" d="M845.779,1029.158c.434,2.024.507,3.4-.072,3.977s-3.037,2.676-2.677,3.76a4.216,4.216,0,0,1-.216,3.182c-.049.065-.1.14-.166.22q-.506.084-1.015.153l-.328.043c-.155.019-.311.038-.466.055-.186.021-.374.041-.562.058-.621.058-1.247.1-1.878.126.005-.336.032-.7.042-1.054.029-1.131-2.641-3.8-2.858-5.6s-.072-5.93-2.1-6.58-3.6-1.273-4.05-2.1c-.614-1.12-3.254-.722-4.013-3.471-1.042-3.772,1.193-4.194.47-4.917s.073-1.953-1.3-1.953-3.255.217-4.05-.867a5.543,5.543,0,0,0-4.123-1.808c-1.157.143-3.542.722-5.568-1.23s-4.7-5.641-4.7-4.7,3.4,4.844,2.025,4.339-3.037-5.641-4.845-5.931a.372.372,0,0,1-.25-.19h0a33.9,33.9,0,0,1,.871-5.856h0q.17-.71.369-1.407.468-1.638,1.092-3.206.114-.285.232-.567.236-.565.492-1.119.385-.831.811-1.638a34.359,34.359,0,0,1,1.869-3.118h0q.17-.25.342-.5l.007-.011q.468-.667.968-1.311c.068-.089.138-.178.209-.266a33.735,33.735,0,0,1,2.7-3.021q.748-.745,1.54-1.442l0,0,.534-.359c1.664.072,3.543-.867,4.556-.867s0,.361.868,1.229,1.373.8,1.663,0,1.013-3.978,1.808-2.6.217,3.255,1.158,2.026,3.832-4.483,5.784-3.471,3.037,1.735,2.6,2.892-.434,2.458-2.025,2.242-2.458.579-2.748-.361-2.025.145-3.615,1.446-4.629,4.122-2.676,4.484,3.182,1.012,3.978-.941,1.157-3.617,2.532-3.255.362.941,2.025.578,1.3-1.3,2.314.29,4.031,3.073,1.4,5.472c-3.277,2.989-7.81,4.194-8.422,6.75-.333,1.383.372,1.879-1.654,3.471s-1.012,4.557-1.952,4.557-.867-1.52-2.1-1.23-4.845-.361-5.5,2.1-.362,5.136.651,4.99,2.025-2.314,2.676-1.23-.362,1.736,1.229,1.591,2.17.722,2.82,2.026,1.012.867,2.314.722,3.832-2.893,7.158-2.385,5.425-.291,6.51,1.012a5.694,5.694,0,0,0,4.195,2.242c1.591,0,5.713-.362,6.725,1.952,1.356,3.1-.724,5.859-.362,7.16s-3.688,3.4-3.254,5.425Z" transform="translate(-803.08 -975.954)" fill="#003f5c"/>
        <path id="Pfad_2151" data-name="Pfad 2151" d="M1309.762,995.554a33.831,33.831,0,0,1-4.631,17.14,6.615,6.615,0,0,0-2.535-3.2c-1.952-1.012.362-5.424-1.519-7.52s-3.156-1.231-2.964-4.629c.069-1.211-2.025.072-2.821-.868s-4.4,2.914-9.329,1.013c-3.809-1.471-4.073-4.412-4.29-6.436s.965-3.109,1.932-4.556,1.925-4.7,1.563-5.352-1.084-.723-1.519-2.241,2.459-1.664,3.183-1.88-1.1-1.5-.868-2.46c.218-.9.845-1.151,1.928-1.513a5.336,5.336,0,0,0,2.411-2.969c0-.507,1.272-1.561.867-2.026-.722-.831-2.165,1.338-2.892-.253-.444-.97.809-2.074,1.9-3.053.051.023.1.047.152.072.2.094.4.19.593.288a33.909,33.909,0,0,1,3.2,1.823,1.046,1.046,0,0,1-.2.183c-.723.471,0,.76-.542,1.52s-1.158.722-1.3,1.157,2.423-.722,3.073-.94a8.768,8.768,0,0,0,1.026-.492,34.193,34.193,0,0,1,8.167,8.769,14.311,14.311,0,0,1-2.72-.793c-1.013-.362-1.339-1.264-1.664-.867a.736.736,0,0,0,.144,1.193c.508.361-.036,1.012-.325,1.265s-1.663-1.736-2.2-2.314-2.171-.8-2.967-1.012-.722.035-.469.433,2.711.94,2.892,1.265-.579-.035-.579.4c.216.217,0,1.482-.434.76s-2.529-1.52-3.181-1.664a4.232,4.232,0,0,0-2.893,1.084c-1.23.867-1.52,3.037-2.313,3.543s-.725.869.216.94,3.472-1.736,3.976-2.314,2.171-.073,2.532.722,2.1.8,4.194,1.085.876-.875,1.391-1.4c.916-.937,3.818.749,5.118-.406a3.467,3.467,0,0,1,.3-.243q.677,1.195,1.259,2.447a33.778,33.778,0,0,1,3.118,12.915c.007.173.012.345.017.519.008.289.012.579.012.869Z" transform="translate(-1241.818 -964.75)" fill="#003f5c"/>
      </g>
    </g>
    <path id="Pfad_2152" data-name="Pfad 2152" d="M1216.416,942c-.6-.048-1.207-.082-1.818-.157-7.538-.935-14.5-1.544-14.615-2.017-.2-.786,5.28-.481,10.956-.062q1.312.406,2.578.913.907.361,1.786.776l.152.071c.2.094.4.19.593.288.123.062.246.123.368.187Z" transform="translate(-515.476 -638.099)" fill="#32323f" opacity="0.22"/>
    <g id="Gruppe_2220" data-name="Gruppe 2220" transform="translate(682.443 244.486)">
      <g id="Gruppe_2214" data-name="Gruppe 2214" transform="translate(0 0)">
        <path id="Pfad_2153" data-name="Pfad 2153" d="M1249.933,295.434c-.163-.514.178.743.061.038a11.685,11.685,0,0,0-1.134-2.877c-.949-1.419-.3-1.513-.116-1.579.459-.161,1.789-.139,1.828.254.141,1.416.808,1.862,1.03,2.887.151.7.039.427.024.736s-1.692.541-1.692.541Z" transform="translate(-1242.268 -288.163)" fill="#efaea6"/>
        <g id="Gruppe_2213" data-name="Gruppe 2213">
          <path id="Pfad_2154" data-name="Pfad 2154" d="M1226.341,260.081c.731-1.374,1.731-2.363,2.218-2.312s.345,1.309.209,1.635-.376.973-.376.973l-2.051-.295Z" transform="translate(-1222.086 -257.768)" fill="#fff"/>
          <path id="Pfad_2155" data-name="Pfad 2155" d="M1178.2,275.519c-1.887-.39-4.4.926-1.983,1.527,1.638.408,2.828,1.092,4.2.89a30.123,30.123,0,0,1,5.739.038c1.148.112,1.768.4,1.935.27.2-.161,1-3.172.394-2.99s-1.137,1.531-1.57,1.64a17.726,17.726,0,0,1-4.224-.585c-1.936-.419-2.727-.424-4.493-.789Z" transform="translate(-1175.224 -273.791)" fill="#74a1bb"/>
          <path id="Pfad_2156" data-name="Pfad 2156" d="M1314.436,302.88c-.115,1.03.329,1.316.693,1.352.1.01.206-.037.214-.132a6.37,6.37,0,0,1,.305-1.16l-1.213-.061Z" transform="translate(-1302.834 -299.126)" fill="#fff"/>
          <path id="Pfad_2157" data-name="Pfad 2157" d="M1190.63,297.7c1.492.41,2.622,1,3.914.815a18.55,18.55,0,0,1,2.545-.12,25.058,25.058,0,0,0-3.953-.563A24.787,24.787,0,0,0,1190.63,297.7Z" transform="translate(-1189.348 -294.37)" fill="#0069a8" opacity="0.18"/>
          <path id="Pfad_2158" data-name="Pfad 2158" d="M1224.641,297.791c.366,2.4.993,3.35,1.565,3.328.529-.02.6-.856.47-1.476a5.684,5.684,0,0,1-.128-1.65l-1.908-.2Z" transform="translate(-1220.528 -294.459)" fill="#fff"/>
          <path id="Pfad_2159" data-name="Pfad 2159" d="M1179.56,279.855a4.746,4.746,0,0,0,1.165.34.526.526,0,0,0,.456-.321c.073-.133-.36-.132-.875-.334a2.767,2.767,0,0,0-.746.315Z" transform="translate(-1179.199 -277.728)" fill="#fff"/>
        </g>
        <path id="Pfad_2160" data-name="Pfad 2160" d="M1267.054,293.463c-.115-.536-.1-.983.26-1.025.291-.035.039.389.374.779.048.056.277.572.044.579C1267.459,293.805,1267.173,294.02,1267.054,293.463Z" transform="translate(-1259.353 -289.55)" fill="#efaea6"/>
      </g>
      <path id="Pfad_2161" data-name="Pfad 2161" d="M1639.4,465.244a2.272,2.272,0,0,1,2.22-.337c.414.32.843.661,1.034.34.136-.228-.389-.484-.269-.861.453-1.418,1.8.169,2.1-.786.25-.8-.97-1.517-2.191-1.054a10.684,10.684,0,0,1-2.231.663c-1.11.169-.659,2.033-.659,2.033Z" transform="translate(-1600.688 -445.37)" fill="#efaea6"/>
      <path id="Pfad_2162" data-name="Pfad 2162" d="M1405.541,375.161l-1.846-.075s-1.731.038-1.325-.27a2.315,2.315,0,0,0,.756-.808,8.6,8.6,0,0,0,.441-1.313l.005-.016c.174-.573.345-1.157.345-1.157l.007-.145.172-.223.041-.053.871-1.131a3.164,3.164,0,0,1,.6,1.8c-.1.732.2,2.621-.067,3.388Z" transform="translate(-1383.409 -360.632)" fill="#efaea6"/>
      <path id="Pfad_2163" data-name="Pfad 2163" d="M1417.49,384.78c.174-.573.345-1.157.345-1.157l.007-.145.172-.223.041-.053.211-.032s.725.414.831.653c.151.34-.622,1.033-1.608.958Z" transform="translate(-1397.328 -372.733)" fill="#1f1f3b" opacity="0.14"/>
      <g id="Gruppe_2216" data-name="Gruppe 2216" transform="translate(5.955 27.318)">
        <path id="Pfad_2164" data-name="Pfad 2164" d="M1297.36,896.585c.166-.767.825-2.635.825-2.635l2.016.575-1.015,2.8-1.605.472-.22-1.208Z" transform="translate(-1293.151 -868.323)" fill="#fff"/>
        <path id="Pfad_2165" data-name="Pfad 2165" d="M1250.9,924.208c-.2-.1-.157.126-.3.43-.335.7-3.041.145-3.462.124a.646.646,0,0,0,.266,1.216c.905.188,3.8.8,4.8,1a.462.462,0,0,0,.509-.247c.326-.672.507-1.784.235-1.867-.39-.221-1.19-.255-2.042-.656Z" transform="translate(-1246.783 -896.042)" fill="#1f1f39"/>
        <g id="Gruppe_2215" data-name="Gruppe 2215" transform="translate(34.019 17.573)">
          <path id="Pfad_2166" data-name="Pfad 2166" d="M1658.343,802.179c-.791.044-2.786-.092-2.786-.092l-.007-2.076,3,.232.908,1.409-1.11.528Z" transform="translate(-1655.55 -799.774)" fill="#fff"/>
          <path id="Pfad_2167" data-name="Pfad 2167" d="M1685.642,799.7c-.024.222.172.107.511.146.776.091,1.149,2.8,1.271,3.2a.65.65,0,0,0,1.072-.638c-.122-.908-.5-3.818-.642-4.811a.466.466,0,0,0-.405-.4c-.75-.09-1.872.1-1.859.377-.081.436.153,1.2.053,2.121Z" transform="translate(-1683.074 -797.177)" fill="#1f1f39"/>
        </g>
        <path id="Pfad_2168" data-name="Pfad 2168" d="M1323.793,606.491c-.5-.028-12.126-1.126-13.38-3-1.981-2.959-4.71-10.454-4.71-10.454h0c-.048.049-1.552,1.57-3.257,3.384a30.5,30.5,0,0,0-4.113,5.829c-.553,1.037-2.718,10.936-2.81,11.491s-3.512-.606-3.512-.955,1.978-9.9,2.5-11.554,6.622-12,8.264-15.059l1.541-.156s6.394.96,6.387,1.434c0,.037.027.206.08.48l.442,2.183q.057.277.116.571c.072.36.145.737.218,1.124.727,3.872,1.234,8.121,1.787,8.865.712.958,9.858,2.508,10.32,2.514s.63,3.329.135,3.3Z" transform="translate(-1288.246 -586.02)" fill="#3b3b4c"/>
        <path id="Pfad_2169" data-name="Pfad 2169" d="M1480.158,608.336a16.183,16.183,0,0,1-4-3.066l1.729.118c1,.148,1.089-.116,1.71.194l.442,2.183Q1480.1,608.042,1480.158,608.336Z" transform="translate(-1457.07 -603.668)" fill="#1f1f39" opacity="0.44"/>
        <path id="Pfad_2170" data-name="Pfad 2170" d="M1417.39,658.125c1.705-1.814,3.209-3.336,3.257-3.384h0l-.5-1.42s-2.322,3.087-2.757,4.805Z" transform="translate(-1403.192 -647.719)" fill="#1f1f39" opacity="0.57"/>
      </g>
      <g id="Gruppe_2217" data-name="Gruppe 2217" transform="translate(17.78 47.469)">
        <path id="Pfad_2171" data-name="Pfad 2171" d="M1405.471,837.76a.087.087,0,0,1-.083,0,3.58,3.58,0,0,0-3-.1.089.089,0,0,1-.067-.165,3.75,3.75,0,0,1,3.145.106.089.089,0,0,1,.042.118A.082.082,0,0,1,1405.471,837.76Z" transform="translate(-1401.148 -836.448)" fill="#603a3e"/>
        <path id="Pfad_2172" data-name="Pfad 2172" d="M1392.012,828.377a.092.092,0,0,1-.06.012,4.1,4.1,0,0,0-1.54,0,4.361,4.361,0,0,0-1.416.588h0a.089.089,0,0,1-.092-.152,4.1,4.1,0,0,1,3.078-.612.09.09,0,0,1,.073.1.087.087,0,0,1-.042.062Z" transform="translate(-1388.862 -828.138)" fill="#603a3e"/>
      </g>
      <path id="Pfad_2173" data-name="Pfad 2173" d="M1455.494,619.775l0,0c-.007-.017-.009-.026-.01-.028a.2.2,0,0,1,.013.025Z" transform="translate(-1432.156 -589.624)" fill="#1f1f39" opacity="0.46"/>
      <path id="Pfad_2174" data-name="Pfad 2174" d="M1401.989,402.782c-.647.037-.778,1.161-1.541,1.273-.4.06-.341-.068-.545-.242-.126-.107-.316-.221-.386-.133-3.378,4.254,1.085,13.658.65,14.374-.356.585,2.929,1.587,4.906.96,2.712-.86,2.34-3.843,2.222-4.41s-2.556-10.167-2.556-10.167a15.059,15.059,0,0,1-2.75-1.655Z" transform="translate(-1379.683 -390.711)" fill="#fff"/>
      <path id="Pfad_2175" data-name="Pfad 2175" d="M1450.934,420.016c-.895,1.109-3.725.811-4.862-.235a1.4,1.4,0,0,1-.394-.606c-.279-.831.092-1.968-.538-3.638a27.419,27.419,0,0,1-1.371-4.771,61.587,61.587,0,0,1-.53-7.967,20.694,20.694,0,0,1,3.579,1.363c.838.461,1.283,2.693,1.453,4.145.051.439.088.8.117,1.107,0,.026,0,.052.007.077.059.662.071,1.077.08,1.532,0,.047,0,.1,0,.144,0,.137.006.28.01.436h0c0,.121.008.249.013.388s.011.286.019.449a9.13,9.13,0,0,0,.393,1.805c.052.178.106.362.163.548h0c.635,2.092,2.561,4.352,1.858,5.223Z" transform="translate(-1420.934 -390.73)" fill="#00628f"/>
      <path id="Pfad_2176" data-name="Pfad 2176" d="M1453.248,419.007a3.638,3.638,0,0,0,1.144,1.615c3.1,2.762,5.458,3.787,6.807,4.111,1.517.365,8.378.061,8.583-.007.553-.182.048-2.65-.28-2.646-.237,0-6.205.241-7.573-.128-1.25-.337-4.594-3.3-5.917-3.936-.74-.355-3.133-.057-2.764.993Z" transform="translate(-1430.074 -404.548)" fill="#00628f"/>
      <path id="Pfad_2177" data-name="Pfad 2177" d="M1490.042,471.688c0,.047,0,.1,0,.144,0,.137.006.28.01.436h0c0,.121.008.249.013.388a4.63,4.63,0,0,1-.278-.429,10.715,10.715,0,0,1-1.209-3.118l1.367.9a.417.417,0,0,0,.007.07c0,.026.005.052.007.077.059.662.071,1.077.08,1.532Z" transform="translate(-1462.501 -451.521)" fill="#1f1f3b" opacity="0.25"/>
      <path id="Pfad_2178" data-name="Pfad 2178" d="M1260.6,315.951c.121.424,2.668,5.908,3.918,6.6a17.54,17.54,0,0,0,6.719,1.495,10.139,10.139,0,0,1,.034,2.352c-.137,2.259,1.231,3.766,1.16,6.492-.061,2.309.3,5.224,1.052,6.589.439.8.416,1.285-.7,1.518-.6.126-1.83.578-2.4-.494-.785-1.467-.664-5.76-.617-6.839.018-.42-.085-1.407-.121-2a7.052,7.052,0,0,0-1.348-3.484c-.753-.574-3.653-1.854-5.043-2.6-1.615-.865-4.755-8.015-4.917-8.429-.253-.646,2.206-1.4,2.263-1.208Z" transform="translate(-1251.405 -311.078)" fill="#00628f"/>
      <g id="Gruppe_2218" data-name="Gruppe 2218" transform="translate(18.779 6.896)">
        <path id="Pfad_2179" data-name="Pfad 2179" d="M1404.71,355.2a10.313,10.313,0,0,1-.986,1.752.561.561,0,0,1-.052.048,3,3,0,0,1-2.711-.17c-.394-.226.7-1.155.32-1.354-.22-.116.082-.418.439-.757a5.13,5.13,0,0,0,.657-.69l.024-.036,1.632.853.676.353Z" transform="translate(-1400.874 -352.878)" fill="#efaea6"/>
        <path id="Pfad_2180" data-name="Pfad 2180" d="M1416.048,343.637c.267.842-1.624,1.333-1.7,1.113-.087-.257.464-.69.359-.916-.16-.341-.31-.133-.641-.042-.354.1-.8-.121-.292-.4.416-.233.362-.4.166-.509a1.025,1.025,0,0,0-.142-.067c-.325-.127-.372-.059-.533-.277s.365-.317,0-.6c-.07-.053-.228-.017-.326-.094-.325-.253-.51-.376-.375-.749.261-.718.925-.456,1.247-.186.208.174.53-.3.985-.035.357.211.2.4.513.606.187.122.741,0,.925.4a1,1,0,0,1,.045.115c.217.661-.45.955-.234,1.639Z" transform="translate(-1411.552 -340.632)" fill="#1f1f3b"/>
      </g>
      <g id="Gruppe_2219" data-name="Gruppe 2219" transform="translate(41.794 16.298)">
        <path id="Pfad_2181" data-name="Pfad 2181" d="M2007.291,543.676a1.031,1.031,0,0,0,1.094.783,1.157,1.157,0,0,0-.582.459c-.241.361-1.01-.356-1.029-.835s.515-.406.515-.406Z" transform="translate(-1979.363 -536.177)" fill="#2d2d44"/>
        <path id="Pfad_2182" data-name="Pfad 2182" d="M1677.457,478.141a.778.778,0,1,0,.471-.994A.777.777,0,0,0,1677.457,478.141Z" transform="translate(-1677.412 -475.146)" fill="#2d2d44"/>
        <rect id="Rechteck_1564" data-name="Rechteck 1564" width="0.766" height="14.804" transform="matrix(-0.37, 0.929, -0.929, -0.37, 15.151, 8.023)" fill="#2d2d44"/>
        <circle id="Ellipse_138" data-name="Ellipse 138" cx="1.125" cy="1.125" r="1.125" transform="translate(25.643 15.151) rotate(-83.24)" fill="#2d2d44"/>
        <path id="Pfad_2183" data-name="Pfad 2183" d="M1993.554,617.711a.582.582,0,1,0,.1-.817A.582.582,0,0,0,1993.554,617.711Z" transform="translate(-1967.129 -603.19)" fill="#fff"/>
        <path id="Pfad_2184" data-name="Pfad 2184" d="M1980.8,601.606a1.016,1.016,0,0,0,.977.931,1.239,1.239,0,0,0-.666.379c-.305.328-.962-.494-.9-.975s.59-.336.59-.336Z" transform="translate(-1955.003 -589.269)" fill="#2d2d44"/>
        <path id="Pfad_2185" data-name="Pfad 2185" d="M1854.081,455.148c2.111-1.738,1.359-2.034,4.52-.748s8.441,2.4,8.158,3.791-.518,2.375-.518,2.375l-12.161-5.418Z" transform="translate(-1839.377 -453.606)" fill="#775155"/>
        <path id="Pfad_2186" data-name="Pfad 2186" d="M1807.207,467.857c.186-.969,1.339-6.183,3.1-5.706s14.423,4.606,14.438,5.606-1.614,6.913-3.378,6.692-11.359-3.976-13.079-4.993c-.872-.517-1.273-.631-1.087-1.6Z" transform="translate(-1796.363 -461.412)" fill="#603a3e"/>
        <path id="Pfad_2187" data-name="Pfad 2187" d="M1808.312,516.679a98.588,98.588,0,0,0,11.786,4.669,6.524,6.524,0,0,0-.548-.744c-1.481-1.747-9.3-5.254-11.988-6.974-.174.655-.289,1.2-.337,1.45-.186.969.214,1.084,1.087,1.6Z" transform="translate(-1796.381 -508.635)" fill="#1f1f39" opacity="0.33"/>
        <path id="Pfad_2188" data-name="Pfad 2188" d="M2016.458,548.142a1.128,1.128,0,1,0,.187-1.584A1.127,1.127,0,0,0,2016.458,548.142Z" transform="translate(-1988.019 -538.6)" fill="#2d2d44"/>
        <path id="Pfad_2189" data-name="Pfad 2189" d="M2022.895,553.8a.583.583,0,1,0,.1-.819A.583.583,0,0,0,2022.895,553.8Z" transform="translate(-1994.028 -544.599)" fill="#fff"/>
      </g>
    </g>
    <path id="Pfad_2190" data-name="Pfad 2190" d="M1364.661,247.494c-1.983-.34-2.261-1.287-2.612-4.214-.275,2.774-.609,3.825-2.63,4.129,1.756.8,2.373,1.094,2.667,4.3.454-3.247.842-3.531,2.575-4.219Z" transform="translate(-661.648)" fill="#fff"/>
    <path id="Pfad_2191" data-name="Pfad 2191" d="M661.092,1418.677c1.856,0,5.669,3.292.219,3.819s-13.612.285-16.915.3c-5.391.018-6.729-.2-6.686-2.405.025-1.275.713-2.1,3.555-2.435,2.957-.348,1.446-3.636,5.055-3.536,3.074.085,3.387,4.389,6.2,3.334s2.224,1.819,4.281,2.347c2.261.58,2.435-1.42,4.29-1.42Z" transform="translate(0 -1073.608)" fill="#fff" opacity="0.6"/>
  </g>
</svg>
