<svg xmlns="http://www.w3.org/2000/svg" xmlns:xlink="http://www.w3.org/1999/xlink" width="259.999" height="138.21" viewBox="0 0 259.999 138.21">
  <defs>
    <clipPath id="clip-path">
      <rect id="Rechteck_1471" data-name="Rechteck 1471" width="259.999" height="138.21" fill="none"/>
    </clipPath>
    <clipPath id="clip-path-2">
      <path id="Pfad_8712" data-name="Pfad 8712" d="M264.9,4.951H0v-176.6H264.9" transform="translate(0 171.65)" fill="none"/>
    </clipPath>
    <radialGradient id="radial-gradient" cx="0.326" cy="0.439" r="0.42" gradientTransform="matrix(0.918, 0.823, 1.33, -0.568, 90.354, -124.525)" gradientUnits="objectBoundingBox">
      <stop offset="0.15" stop-color="#e43625"/>
      <stop offset="0.23" stop-color="#e12d22"/>
      <stop offset="0.35" stop-color="#d9151c"/>
      <stop offset="0.41" stop-color="#d50819"/>
      <stop offset="0.86" stop-color="#b10a18"/>
    </radialGradient>
  </defs>
  <g id="img-new-market" clip-path="url(#clip-path)">
    <g id="Gruppe_2694" data-name="Gruppe 2694" transform="translate(0 -15.157)" clip-path="url(#clip-path-2)">
      <path id="Pfad_8526" data-name="Pfad 8526" d="M327.683,1220.027a.185.185,0,0,1-.15-.078.183.183,0,0,1,.044-.255l50.65-35.771a.183.183,0,1,1,.211.3l-50.65,35.771A.18.18,0,0,1,327.683,1220.027Z" transform="translate(-298.581 -1064.195)" fill="#a5cee0"/>
      <path id="Pfad_8527" data-name="Pfad 8527" d="M607.6,1223.083a.183.183,0,0,1-.125-.317l38.353-35.7a.183.183,0,0,1,.25.268l-38.353,35.7a.184.184,0,0,1-.125.049Z" transform="translate(-553.78 -1067.045)" fill="#a5cee0"/>
      <path id="Pfad_8528" data-name="Pfad 8528" d="M870.279,1229.768a.18.18,0,0,1-.113-.039.183.183,0,0,1-.031-.257l28.125-35.736a.183.183,0,1,1,.288.226L870.423,1229.7A.184.184,0,0,1,870.279,1229.768Z" transform="translate(-793.266 -1073.108)" fill="#a5cee0"/>
      <path id="Pfad_8529" data-name="Pfad 8529" d="M1097.8,1234.636a.179.179,0,0,1-.089-.023.184.184,0,0,1-.071-.249l19.66-35.491a.183.183,0,1,1,.321.177l-19.66,35.492A.184.184,0,0,1,1097.8,1234.636Z" transform="translate(-1000.693 -1077.769)" fill="#a5cee0"/>
      <path id="Pfad_8530" data-name="Pfad 8530" d="M1372.878,1235.429l-.034,0a.183.183,0,0,1-.146-.214l6.575-35.529a.183.183,0,0,1,.36.067l-6.575,35.529a.183.183,0,0,1-.18.15Z" transform="translate(-1251.485 -1078.458)" fill="#a5cee0"/>
      <path id="Pfad_8531" data-name="Pfad 8531" d="M2196.4,1221.2a.18.18,0,0,1-.105-.033l-50.65-35.771a.183.183,0,0,1,.211-.3l50.65,35.771a.183.183,0,0,1-.106.333Z" transform="translate(-1956.108 -1065.264)" fill="#a5cee0"/>
      <path id="Pfad_8532" data-name="Pfad 8532" d="M2043.448,1224.249a.178.178,0,0,1-.125-.05l-38.353-35.7a.183.183,0,0,1,.25-.267l38.353,35.7a.183.183,0,0,1-.125.317Z" transform="translate(-1827.877 -1068.107)" fill="#a5cee0"/>
      <path id="Pfad_8533" data-name="Pfad 8533" d="M1886.365,1230.938a.183.183,0,0,1-.144-.069l-28.126-35.736a.183.183,0,1,1,.288-.226l28.125,35.736a.183.183,0,0,1-.031.257A.18.18,0,0,1,1886.365,1230.938Z" transform="translate(-1693.989 -1074.175)" fill="#a5cee0"/>
      <path id="Pfad_8534" data-name="Pfad 8534" d="M1746.256,1235.807a.185.185,0,0,1-.161-.094l-19.66-35.491a.183.183,0,1,1,.32-.177l19.66,35.491a.184.184,0,0,1-.072.249A.181.181,0,0,1,1746.256,1235.807Z" transform="translate(-1573.97 -1078.836)" fill="#a5cee0"/>
      <path id="Pfad_8535" data-name="Pfad 8535" d="M1606.273,1236.59a.184.184,0,0,1-.18-.15l-6.575-35.529a.183.183,0,0,1,.36-.067l6.575,35.529a.183.183,0,0,1-.147.214l-.034,0Z" transform="translate(-1458.277 -1079.516)" fill="#a5cee0"/>
      <path id="Pfad_8536" data-name="Pfad 8536" d="M963.281,1201.04h0l-121.268-.244a.183.183,0,0,1,0-.366h0l121.268.244a.183.183,0,0,1,0,.367Z" transform="translate(-767.496 -1079.275)" fill="#a5cee0"/>
      <path id="Pfad_8537" data-name="Pfad 8537" d="M919.089,1253.674h0l-132.227-.487a.183.183,0,0,1,0-.366h0l132.227.487a.183.183,0,0,1,0,.366Z" transform="translate(-717.216 -1127.039)" fill="#a5cee0"/>
      <path id="Pfad_8538" data-name="Pfad 8538" d="M831.335,1316.86h0l-149.272-.244a.183.183,0,0,1,0-.366h0l149.272.244a.183.183,0,0,1,0,.366Z" transform="translate(-621.67 -1184.868)" fill="#a5cee0"/>
      <path id="Pfad_8539" data-name="Pfad 8539" d="M754.378,1383.05h0l-166.075-.244a.183.183,0,0,1,0-.366h0l166.075.244a.183.183,0,0,1,0,.366Z" transform="translate(-536.189 -1245.213)" fill="#a5cee0"/>
      <path id="Pfad_8540" data-name="Pfad 8540" d="M678.749,1447.332h0l-184.216-1.1a.183.183,0,0,1,0-.366h0l184.216,1.1a.183.183,0,0,1,0,.366Z" transform="translate(-450.699 -1303.042)" fill="#a5cee0"/>
      <path id="Pfad_8541" data-name="Pfad 8541" d="M1307.709,1490.844c0,1.113-12.969,2.4-27.912,2.4s-27.057-.9-27.057-2.014,12.114-2.014,27.057-2.014,27.912.512,27.912,1.624Z" transform="translate(-1142.122 -1342.564)" fill="#323241" opacity="0.11"/>
      <path id="Pfad_8542" data-name="Pfad 8542" d="M1375.135,1021.152a.227.227,0,0,0,.13-.169,9.119,9.119,0,0,1,4.146-6.431.226.226,0,0,0-.249-.378,9.551,9.551,0,0,0-4.343,6.734.226.226,0,0,0,.186.26.232.232,0,0,0,.131-.017Z" transform="translate(-1253.418 -909.431)" fill="#603a3e"/>
      <path id="Pfad_8543" data-name="Pfad 8543" d="M1369,987.515a.228.228,0,0,0,.111-.11,10.453,10.453,0,0,1,2.235-3.222,11.1,11.1,0,0,1,3.286-2.108h0a.226.226,0,0,0-.185-.413,10.453,10.453,0,0,0-5.748,5.552.226.226,0,0,0,.3.3Z" transform="translate(-1247.823 -879.806)" fill="#603a3e"/>
      <path id="Pfad_8544" data-name="Pfad 8544" d="M-3.12,168.1c1.055-6.235,4.891-15.273,4.238-17.662-1.773-6.481-11.377-11.125-16.669-11.357-7.629-.335-6.306,6.081-3.969,12.368,2.664,7.168,5.571,8.746,6.623,11.588s.555,8.271-2.7,8.38-10.913-13.468-14.951-16.155-12.752-15.89-15.42-23.427c-5.463-4.18-7.165-3.473-11.576-2.117-.381.117-1.116.36-2.151.71l-.031.01c-1.5.51-3.627,1.24-6.208,2.136-16.264,5.644-76.919,14.831-87.108,18.975l-.066.026,2.015-38.358c18.142-3.755,61.778-4.343,74.828-6.449,3.279-.53,6.29-.967,8.978-1.29a67.242,67.242,0,0,1,9.619-.629c21.245.715,25.139,1.594,35.571,7.9q.857.519,1.778,1.087c11.834,7.3,16.486,9.668,19.22,14.06,6.1,9.8,9.809,19.568,9.765,23.375-.034,2.928-5.246,17.831-7.541,21.26-1.377,2.057-4.318-.5-4.245-4.436Z" transform="translate(139.59 -80.419)" fill="#efa88f"/>
      <path id="Pfad_8545" data-name="Pfad 8545" d="M-61.784,120.073v.007c-.034.633-.182,1.049-.466,1.185-.313.151-2.267.93-5.491,2.208-10.766,4.263-62.052,11.085-87.659,21.609l2.438-46.41c19.665-3.634,63.16-3.493,73.292-4.644,5.762-.654,9.251-.759,9.636-.149a12.658,12.658,0,0,1,.658,1.245,120.181,120.181,0,0,1,4.6,12.115C-63.059,112.477-61.658,117.744-61.784,120.073Z" transform="translate(141.678 -70.064)" fill="#e6eff1"/>
      <path id="Pfad_8546" data-name="Pfad 8546" d="M-69.978,125.748a.183.183,0,0,1-.037.018c-1.986.851-57.407,13.4-87.685,22.881l1.034-19.687,1.625-30.911c26.342-5.027,72.315-5.365,73.079-4.571a2.192,2.192,0,0,1,.2.253,24.748,24.748,0,0,1,1.315,2.386c1.361,2.7,3.359,7.106,5.267,11.7a133.744,133.744,0,0,1,4.726,12.857c.126.438.239.855.339,1.247.112.45.208.87.281,1.253.27,1.408.26,2.338-.14,2.572Z" transform="translate(143.775 -69.768)" fill="#a5cee0"/>
      <path id="Pfad_8547" data-name="Pfad 8547" d="M-64.348,395.947c-.314.15-2.267.93-5.491,2.207.27,1.408.26,2.338-.14,2.572a.183.183,0,0,1-.037.018c-1.986.851-57.407,13.4-87.685,22.881l1.034-19.687c24.524-5.848,73.472-6.479,86.208-8.285,2.625-.372,4.83-.666,6.547-.889a.184.184,0,0,0,.03,0c-.034.633-.182,1.048-.466,1.185Z" transform="translate(143.775 -344.746)" fill="#334" opacity="0.26"/>
      <path id="Pfad_8548" data-name="Pfad 8548" d="M1405.564,757.31a7.85,7.85,0,0,1,.791,4.319c-.179,1.864-3.455-.14-3.324-.3s1.1-3.974,1.1-3.974l1.428-.047Z" transform="translate(-1279.139 -675.282)" fill="#efa88f"/>
      <path id="Pfad_8549" data-name="Pfad 8549" d="M1440.47,650.623a1.208,1.208,0,1,1-.266-.514,1.208,1.208,0,0,1,.266.514Z" transform="translate(-1311.102 -577.172)" fill="#19192e"/>
      <path id="Pfad_8550" data-name="Pfad 8550" d="M1440.131,654.719c-.106.232-.077.473.064.538s.343-.072.449-.3.077-.473-.064-.538S1440.238,654.486,1440.131,654.719Z" transform="translate(-1312.909 -581.458)" fill="#fff" opacity="0.15"/>
      <path id="Pfad_8551" data-name="Pfad 8551" d="M1446.536,654.874a1.208,1.208,0,0,1-1.8,1.319,1.545,1.545,0,0,0,1.53-1.833,1.212,1.212,0,0,1,.266.513Z" transform="translate(-1317.169 -581.423)" fill="#080815"/>
      <path id="Pfad_8552" data-name="Pfad 8552" d="M1429.152,672.485c-.487.018-2.132-.076-1.718.283s1.222.18,1.413,1.037c.2.917-.577,1.073-.423,1.167.3.157,1.069.971.717,1.548s-4.434,1.249-4.434,1.249a1.505,1.505,0,0,1-.127-1.887,1.145,1.145,0,0,1-.787-1.432c.214-.74,1.346-1.488.275-.9-.61.334-1.018.646-1.28.754-.2.083-.313.05-.367-.177-.127-.526-.993-2.693-.444-2.728l.078,0c.656,0,2.71.386,2.04-.05-.492-.319-1.587-1.026-1.8-1.571-.089-.23-.021-.432.318-.562,1.139-.439,4.458-1.394,4.714-1.037a.475.475,0,0,1,.02.33c-.131.743-.949,2.3-.516,2.164.519-.158,1.631-1.4,1.81-.714.187.708,1,2.511.511,2.531Z" transform="translate(-1296.249 -593.945)" fill="#19192e"/>
      <path id="Pfad_8553" data-name="Pfad 8553" d="M1422.786,708.376c-.2.083-.313.05-.367-.177-.127-.526-.993-2.693-.444-2.728l.078,0a27.072,27.072,0,0,1,.733,2.906Z" transform="translate(-1296.249 -628.02)" fill="#fff" opacity="0.15"/>
      <path id="Pfad_8554" data-name="Pfad 8554" d="M1432.144,668.513c-1.056.322-4.1,1.06-5.053,1.27-.089-.23-.021-.432.318-.562,1.139-.439,4.458-1.394,4.714-1.038A.475.475,0,0,1,1432.144,668.513Z" transform="translate(-1301.046 -593.954)" fill="#fff" opacity="0.15"/>
      <path id="Pfad_8555" data-name="Pfad 8555" d="M1433.421,791.287c.213,2.244-4.194,3.763-12.42,5.907s-12.571,2.008-12.571,2.008c-.672-2.085-1.793-5.455-.873-8.023a6.8,6.8,0,0,1,.66-1.347c.482-.764.992-1.438,1.432-2.1.029-.044.058-.088.087-.132l.053-.081c.009-.014.019-.028.027-.042l.1-.152.072-.118q.044-.072.085-.143l.064-.112.03-.056c.011-.02.022-.04.032-.059s.02-.036.029-.056.022-.041.031-.062l.036-.073.027-.053.01-.021c.009-.018.017-.035.025-.053.02-.042.04-.086.058-.128h0l.018-.042.013-.031c.005-.011.01-.023.014-.034v0l.01-.027c.02-.05.041-.1.058-.152,0,0,0,0,0-.005.019-.049.035-.1.051-.149.005-.017.01-.033.016-.049a.054.054,0,0,1,0-.011l.01-.035a.39.39,0,0,0,.013-.047s0,0,0-.007l0-.01c0-.014.008-.029.012-.043a.067.067,0,0,0,0-.013.082.082,0,0,0,0-.017.015.015,0,0,1,0-.007c0-.011.006-.02.008-.031l.02-.081c.017-.073.033-.148.045-.222a3.806,3.806,0,0,0,.055-.7c0-.1,0-.2,0-.306,0-.028,0-.057,0-.086s0-.07,0-.1c0-.069.006-.139.011-.213,0-.024,0-.047,0-.071,0-.048.006-.1.01-.145,0-.025,0-.049.005-.074q.029-.384.073-.821c.072-.724.168-1.552.254-2.458.005-.056.01-.112.016-.169s.01-.115.016-.173c.016-.173.03-.349.045-.527.005-.06.01-.119.014-.18.018-.239.035-.483.05-.731v0l.011-.187c0-.014,0-.029,0-.043.006-.111.011-.223.017-.336,0-.064.006-.128.008-.192.005-.128.01-.257.014-.388,0-.065,0-.13.005-.2q.014-.589.007-1.2v-.014c0-.063,0-.126,0-.19q-.007-.306-.019-.617c-.026-.622-.072-1.255-.146-1.9a21.754,21.754,0,0,0-.489-2.728c-.7-2.839-.991-4.547-1.324-5.857-.039-.152-.079-.3-.119-.441s-.083-.281-.127-.417l-.027-.08c-.054-.161-.112-.318-.174-.472l-.042-.1c-.026-.064-.054-.128-.083-.192l-.005-.012c-.023-.051-.047-.1-.071-.153l-.074-.153-.039-.077c-.039-.076-.08-.153-.122-.229h0c-.014-.026-.029-.053-.044-.079l-.045-.08c-.031-.053-.062-.106-.095-.16l-.049-.08q-.075-.122-.157-.246c-.081-.124-.168-.25-.259-.382-.065-.092-.133-.186-.2-.282l-.054-.073c-.2-.263-.4-.534-.621-.811h0l-.109-.139q-.273-.346-.556-.7l-.227-.284c-.1-.131-.208-.261-.311-.393l-.135-.172-.134-.172-.1-.123c-.106-.137-.21-.275-.313-.411-.083-.11-.164-.219-.245-.328-.177-.242-.348-.482-.509-.721-.957-1.418-1.564-2.746-1.133-3.69.426-.928,2.042-1.818,4.027-2.506l.071-.025a26.131,26.131,0,0,1,4.507-1.091l.06-.009a9.2,9.2,0,0,1,4.578.136c1.261.633,1.469,2.079,1.317,3.9h0c-.022.265-.053.536-.087.815-.012.1-.027.2-.041.306h0c-.033.236-.069.476-.107.719-.011.07-.022.14-.034.211s-.022.14-.034.212-.025.151-.036.226c-.034.21-.069.423-.1.637,0,.025-.008.049-.011.074h0c-.015.1-.031.193-.047.29s-.031.2-.047.293c-.024.147-.046.295-.068.442-.052.348-.1.7-.144,1.046h0c-.011.079-.02.155-.028.232-.006.057-.013.114-.018.171h0a9.948,9.948,0,0,0-.037,1.116h0a36.385,36.385,0,0,0,1.675,8.534,86.364,86.364,0,0,0,4.8,11.3h0c.264.534.495.993.677,1.349a6.823,6.823,0,0,0,.6.983c.025.034.049.065.074.1l.032.039.051.063c.032.037.064.074.1.11l.016.018.048.05.048.049c.04.041.081.08.123.117l.011.011.01.01.011.01c.042.038.085.075.128.11s.109.086.164.126c.016.012.032.024.049.035a.29.29,0,0,0,.028.019l.057.039.017.011.053.034c.023.015.047.03.072.044l.072.044.069.04.082.045.056.03.022.012c.052.027.106.055.161.081l.084.04.056.027.029.012.049.022.061.026.072.031.072.031.016.006.094.039.2.078c.463.179,1,.363,1.65.58.37.125.774.26,1.218.412a3.655,3.655,0,0,1,1.6,1.328,8.332,8.332,0,0,1,.513.771,11.681,11.681,0,0,1,1.494,4.154Z" transform="translate(-1279.162 -667.97)" fill="#333345"/>
      <path id="Pfad_8556" data-name="Pfad 8556" d="M1495.051,1126.76l-.068.06c-3.491,3.037-13.947,4.046-17.223,3.635a6.57,6.57,0,0,0,1.031-2.139l12.251-2.733s.781-.207,1.725-.383a4.6,4.6,0,0,0,2.283,1.559Z" transform="translate(-1347.273 -1010.688)" fill="#fff" opacity="0.09"/>
      <path id="Pfad_8557" data-name="Pfad 8557" d="M1436.071,804.78c-.135,1.066-.351,2.228-.53,3.412-.557.005-1.234.019-1.531.062-.547.079-4.25.728-4.353.752-.084.02-2.9,1.136-4.292,1.688-.685-.872-1.452-1.806-2.125-2.722,1.628-.713,4.266-1.847,4.266-1.847l5.953-1.272,2.236-.242Z" transform="translate(-1297.567 -718.406)" fill="#fff" opacity="0.15"/>
      <path id="Pfad_8558" data-name="Pfad 8558" d="M1415.84,801.235c1.112-1.093,10.646-3.3,12.54-3.225.572.024,1.193-1.1-.167-1.16-1.039-.049-10.257,1.684-12.866,3.152-1.182.665.166,1.555.493,1.233Z" transform="translate(-1289.936 -711.33)" fill="#19192e"/>
      <path id="Pfad_8559" data-name="Pfad 8559" d="M1435.017,834.834c1.012-.848,7.311-2.389,8.879-2.22,1.687.181,1.712-2.068.2-2.372-.86-.174-8.161.858-10.2,2.311s.445,2.843,1.116,2.281Z" transform="translate(-1306.567 -741.757)" fill="#19192e"/>
      <path id="Pfad_8560" data-name="Pfad 8560" d="M1464.5,898.163c.88,4.322,1.894,10.715.463,12.841a5.6,5.6,0,0,1-2.468,1.734,4.608,4.608,0,0,0,.268-.8,3.754,3.754,0,0,0,.1-.917c-.036-2.5,1.366-8.189-.086-14.045-1.311-5.29-1.174-6.653-2.6-8.831l1.514-.279c.9,1.4,1.925,5.972,2.8,10.293Z" transform="translate(-1331.245 -794.314)" fill="#0f0f11" opacity="0.32"/>
      <path id="Pfad_8561" data-name="Pfad 8561" d="M1469.622,1098.781c1.766.49,10.8-1.37,12.563-2.624,1.9-1.348,3.591,1.968,1.985,3.367-.917.8-11.424,3.907-14.817,3.267s-.9-4.336.267-4.011Z" transform="translate(-1338.045 -983.921)" fill="#19192e"/>
      <path id="Pfad_8562" data-name="Pfad 8562" d="M1455.293,863.94a31.589,31.589,0,0,1,7.308-1.9c1.31,0,1.464-1.24.3-1.318-.663-.044-6.663,1.12-8.347,2.041S1454.734,864.289,1455.293,863.94Z" transform="translate(-1325.49 -769.558)" fill="#19192e"/>
      <path id="Pfad_8563" data-name="Pfad 8563" d="M1476.345,1182.015c.213,2.244-4.194,3.763-12.419,5.907s-12.571,2.008-12.571,2.008c-.673-2.085-1.793-5.455-.872-8.023,3.394,1.574,8.535,2.5,11.976,1.416,3.665-1.158,7.083-4.092,12.349-5.453l.044-.011a11.7,11.7,0,0,1,1.495,4.155Z" transform="translate(-1322.086 -1058.698)" fill="#19192e"/>
      <path id="Pfad_8564" data-name="Pfad 8564" d="M1373.79,763.237c.47,1.762.177,5.286-.47,6.283a3.951,3.951,0,0,1-1.057,1.234l-4.464-4.639,3.759-3.465Z" transform="translate(-1247.023 -680.151)" fill="#efa88f"/>
      <path id="Pfad_8565" data-name="Pfad 8565" d="M1010.417,458.436a.353.353,0,0,1-.337-.25c-.166-.541-.325-1.095-.474-1.646a.353.353,0,0,1,.682-.184c.147.543.3,1.09.467,1.624a.353.353,0,0,1-.235.441.349.349,0,0,1-.1.016Zm87.795-.494a.347.347,0,0,1-.129-.025.353.353,0,0,1-.2-.458c.215-.548.423-1.108.617-1.663a.353.353,0,0,1,.667.234c-.2.563-.408,1.131-.627,1.688a.353.353,0,0,1-.328.224Zm-88.7-2.872a.353.353,0,0,1-.344-.273c-.1-.441-.2-.892-.295-1.338a.353.353,0,1,1,.692-.143c.091.44.189.884.291,1.32a.354.354,0,0,1-.263.425.364.364,0,0,1-.08.01Zm89.855-.419a.354.354,0,0,1-.337-.457c.133-.428.26-.864.38-1.3a.353.353,0,0,1,.681.188c-.122.439-.252.882-.386,1.317A.353.353,0,0,1,1099.365,454.65Zm-90.466-2.581a.354.354,0,0,1-.348-.293c-.1-.587-.2-1.185-.278-1.777a.353.353,0,0,1,.7-.1c.081.584.174,1.174.275,1.754a.352.352,0,0,1-.288.408.356.356,0,0,1-.061.005Zm91.293-.456a.374.374,0,0,1-.081-.01.354.354,0,0,1-.263-.425c.129-.547.248-1.1.356-1.65a.353.353,0,1,1,.693.135c-.109.557-.231,1.121-.362,1.677a.353.353,0,0,1-.344.272Zm-91.74-2.659a.353.353,0,0,1-.35-.313c-.065-.563-.12-1.136-.167-1.7a.353.353,0,1,1,.7-.057c.046.56.1,1.126.165,1.682a.353.353,0,0,1-.311.391l-.041,0Zm92.34-.344a.42.42,0,0,1-.058,0,.352.352,0,0,1-.291-.406c.1-.581.181-1.172.254-1.755a.353.353,0,0,1,.7.087c-.074.592-.161,1.192-.258,1.782A.353.353,0,0,1,1100.793,448.609Zm-92.624-3.131a.352.352,0,0,1-.352-.336c-.022-.455-.04-.915-.051-1.369a.353.353,0,1,1,.706-.018c.011.449.028.9.05,1.351a.353.353,0,0,1-.335.37h-.018Zm93.058-.329h-.031a.353.353,0,0,1-.321-.382c.039-.446.071-.9.1-1.347a.353.353,0,1,1,.705.04c-.026.456-.058.916-.1,1.369a.354.354,0,0,1-.351.323Zm-93.124-2.731h0a.353.353,0,0,1-.352-.355c0-.6.017-1.2.04-1.8a.353.353,0,0,1,.706.027c-.023.59-.036,1.187-.04,1.774a.353.353,0,0,1-.353.351Zm93.285-.412h-.006a.353.353,0,0,1-.347-.358c0-.242.006-.489.006-.735,0-.318,0-.638-.01-.953a.353.353,0,0,1,.706-.015c.007.32.011.645.011.968,0,.249,0,.5-.006.746A.353.353,0,0,1,1101.388,442.005Zm-93.176-2.733h-.023a.353.353,0,0,1-.33-.374c.035-.567.08-1.142.134-1.707a.353.353,0,0,1,.7.066c-.052.558-.1,1.125-.132,1.685a.353.353,0,0,1-.352.331Zm93.123-.328a.353.353,0,0,1-.352-.336c-.03-.588-.073-1.185-.125-1.773a.353.353,0,0,1,.7-.064c.054.6.1,1.2.127,1.8a.353.353,0,0,1-.335.371h-.019Zm-92.8-3.143a.256.256,0,0,1-.045,0,.354.354,0,0,1-.306-.395c.057-.451.121-.907.189-1.356a.353.353,0,1,1,.7.107c-.067.443-.13.894-.186,1.339a.354.354,0,0,1-.35.309Zm92.484-.338a.353.353,0,0,1-.35-.308c-.057-.445-.122-.9-.192-1.34a.353.353,0,0,1,.7-.109c.071.45.137.909.194,1.361a.353.353,0,0,1-.305.4l-.045,0Zm-92.015-2.686a.327.327,0,0,1-.065-.006.353.353,0,0,1-.283-.411c.108-.587.227-1.18.353-1.762a.353.353,0,0,1,.691.15c-.125.574-.242,1.159-.349,1.74A.353.353,0,0,1,1009.009,432.777Zm91.508-.426a.354.354,0,0,1-.346-.285c-.108-.549-.229-1.106-.358-1.653a.353.353,0,0,1,.688-.162c.131.555.253,1.12.363,1.678a.353.353,0,0,1-.278.415A.363.363,0,0,1,1100.518,432.351Zm-90.852-2.649a.348.348,0,0,1-.084-.011.353.353,0,0,1-.26-.427c.134-.552.28-1.109.432-1.656a.353.353,0,0,1,.68.189c-.15.54-.293,1.09-.427,1.634a.353.353,0,0,1-.342.269Zm90.16-.338a.352.352,0,0,1-.341-.262c-.151-.568-.315-1.143-.487-1.707a.354.354,0,1,1,.676-.207c.175.573.342,1.156.495,1.732a.352.352,0,0,1-.342.443Zm-89.225-3.019a.368.368,0,0,1-.106-.016.354.354,0,0,1-.231-.443c.137-.434.28-.872.427-1.3a.353.353,0,0,1,.668.229c-.145.423-.286.855-.421,1.284A.353.353,0,0,1,1010.6,426.344Zm88.208-.321a.353.353,0,0,1-.334-.238c-.146-.424-.3-.852-.459-1.272a.353.353,0,1,1,.66-.249c.161.426.317.861.466,1.291a.352.352,0,0,1-.219.449.347.347,0,0,1-.115.019Zm-87.207-2.57a.353.353,0,0,1-.33-.479c.211-.558.435-1.12.666-1.669a.353.353,0,0,1,.652.274c-.227.542-.449,1.1-.657,1.647a.354.354,0,0,1-.33.228Zm86.085-.373a.353.353,0,0,1-.326-.217c-.216-.516-.444-1.037-.679-1.548a.353.353,0,1,1,.641-.295c.239.519.471,1.047.689,1.57a.353.353,0,0,1-.326.489Zm-84.881-2.532a.352.352,0,0,1-.321-.5c.234-.519.479-1.04.729-1.549a.353.353,0,1,1,.633.313c-.246.5-.488,1.015-.72,1.527a.353.353,0,0,1-.322.208Zm83.612-.257a.353.353,0,0,1-.317-.2c-.26-.529-.534-1.06-.813-1.578a.353.353,0,0,1,.623-.335c.283.526.561,1.064.825,1.6a.353.353,0,0,1-.317.509Zm-82.072-2.869a.346.346,0,0,1-.167-.042.353.353,0,0,1-.144-.479c.215-.4.439-.8.665-1.2a.353.353,0,1,1,.613.351c-.222.389-.443.785-.655,1.181a.354.354,0,0,1-.312.186Zm80.422-.206a.352.352,0,0,1-.305-.176c-.225-.387-.459-.777-.7-1.159a.354.354,0,1,1,.6-.372c.24.389.478.784.706,1.176a.354.354,0,0,1-.127.483.35.35,0,0,1-.177.048Zm-78.89-2.444a.346.346,0,0,1-.185-.053.354.354,0,0,1-.114-.486c.316-.509.645-1.017.977-1.511a.353.353,0,1,1,.585.395c-.328.487-.651.987-.962,1.489A.353.353,0,0,1,1015.876,414.773Zm77.222-.228a.352.352,0,0,1-.294-.157c-.312-.466-.636-.934-.963-1.39a.353.353,0,1,1,.574-.411c.332.462.661.936.977,1.409a.354.354,0,0,1-.1.49A.349.349,0,0,1,1093.1,414.545Zm-75.476-2.39a.353.353,0,0,1-.287-.559c.332-.464.676-.926,1.023-1.376a.353.353,0,0,1,.559.432c-.342.442-.681.9-1.008,1.355a.353.353,0,0,1-.288.147Zm73.7-.105a.351.351,0,0,1-.281-.139c-.356-.469-.726-.938-1.1-1.4a.353.353,0,1,1,.547-.447c.378.464.753.939,1.114,1.415a.353.353,0,0,1-.068.5A.35.35,0,0,1,1091.318,412.049Zm-71.561-2.653a.353.353,0,0,1-.27-.579c.293-.351.594-.7.9-1.04a.353.353,0,1,1,.528.47c-.3.334-.593.679-.882,1.024a.352.352,0,0,1-.271.126Zm69.355-.053a.35.35,0,0,1-.266-.121c-.3-.338-.6-.677-.9-1.007a.353.353,0,1,1,.519-.479c.309.335.617.678.917,1.021a.353.353,0,0,1-.266.585Zm-67.311-2.231a.353.353,0,0,1-.255-.6c.415-.434.843-.863,1.273-1.277a.354.354,0,0,1,.491.51c-.423.408-.845.831-1.253,1.257a.353.353,0,0,1-.255.109Zm65.165-.075a.352.352,0,0,1-.251-.105c-.395-.4-.8-.8-1.211-1.181a.353.353,0,1,1,.485-.513c.414.391.827.795,1.227,1.2a.354.354,0,0,1-.251.6Zm-2.223-2.112a.347.347,0,0,1-.235-.09c-.441-.393-.893-.783-1.346-1.158a.353.353,0,0,1,.451-.543c.459.382.918.776,1.365,1.175a.353.353,0,0,1-.235.616Zm-60.682-.011a.353.353,0,0,1-.238-.615c.423-.383.859-.763,1.3-1.129a.353.353,0,1,1,.453.542c-.43.36-.859.735-1.275,1.112a.355.355,0,0,1-.237.092Zm58-2.222a.347.347,0,0,1-.215-.074c-.357-.276-.72-.549-1.082-.812a.353.353,0,1,1,.416-.571c.366.268.735.545,1.1.825a.353.353,0,0,1-.216.632Zm-55.32-.018a.353.353,0,0,1-.216-.633c.36-.278.73-.554,1.1-.82a.353.353,0,1,1,.413.572c-.363.262-.727.533-1.082.807a.353.353,0,0,1-.216.073Zm2.488-1.782a.353.353,0,0,1-.2-.647c.5-.33,1.008-.655,1.52-.965a.353.353,0,1,1,.366.6c-.5.3-1.006.624-1.495.949a.354.354,0,0,1-.2.059Zm50.278-.046a.35.35,0,0,1-.2-.06c-.466-.314-.943-.623-1.418-.919a.353.353,0,1,1,.373-.6c.482.3.966.615,1.439.933a.353.353,0,0,1-.2.645Zm-47.6-1.6a.353.353,0,0,1-.174-.66c.5-.28,1-.554,1.508-.813a.353.353,0,0,1,.323.629c-.5.256-1,.525-1.484.8a.353.353,0,0,1-.173.046Zm45-.031a.352.352,0,0,1-.177-.049c-.51-.3-1.031-.589-1.549-.864a.353.353,0,0,1,.332-.623c.526.28,1.055.576,1.573.878a.354.354,0,0,1-.178.659Zm-41.9-1.561a.353.353,0,0,1-.149-.674c.411-.191.833-.379,1.252-.559a.353.353,0,1,1,.278.649c-.413.177-.828.362-1.233.55a.356.356,0,0,1-.148.033Zm38.824-.083a.358.358,0,0,1-.154-.035c-.405-.2-.817-.389-1.224-.572a.353.353,0,1,1,.29-.645c.413.185.832.381,1.243.581a.353.353,0,0,1-.155.671Zm-36.006-1.11a.354.354,0,0,1-.127-.683c.556-.214,1.126-.419,1.692-.612a.353.353,0,0,1,.227.668c-.557.189-1.118.392-1.666.6a.356.356,0,0,1-.126.024Zm33.13-.165a.345.345,0,0,1-.132-.026c-.52-.209-1.051-.411-1.577-.6a.353.353,0,1,1,.237-.665c.534.191,1.074.4,1.6.608a.353.353,0,0,1-.132.681Zm-30.156-.86a.354.354,0,0,1-.1-.691c.542-.166,1.1-.326,1.647-.473a.353.353,0,0,1,.183.683c-.542.146-1.088.3-1.622.466A.357.357,0,0,1,1040.8,395.439Zm27.28-.18a.358.358,0,0,1-.109-.017c-.561-.18-1.131-.352-1.7-.507a.353.353,0,0,1,.188-.681c.574.159,1.153.332,1.724.516a.353.353,0,0,1-.109.69Zm-23.913-.72a.353.353,0,0,1-.079-.7c.441-.1.892-.2,1.34-.287a.353.353,0,0,1,.139.693c-.442.088-.887.184-1.321.283A.347.347,0,0,1,1044.165,394.539Zm20.558-.211a.314.314,0,0,1-.08-.01c-.436-.1-.879-.2-1.316-.284a.353.353,0,0,1,.138-.692c.444.088.895.186,1.338.29a.353.353,0,0,1-.079.7Zm-17.555-.377a.353.353,0,0,1-.057-.7c.585-.1,1.184-.184,1.778-.26a.353.353,0,1,1,.09.7c-.586.076-1.177.162-1.755.257A.316.316,0,0,1,1047.168,393.951Zm14.475-.22a.4.4,0,0,1-.055,0c-.553-.086-1.115-.161-1.671-.223a.353.353,0,1,1,.079-.7c.565.064,1.137.139,1.7.227a.353.353,0,0,1-.054.7Zm-11.358-.2a.353.353,0,0,1-.035-.7c.563-.057,1.135-.108,1.705-.148a.353.353,0,1,1,.049.7c-.562.04-1.128.089-1.683.147Zm8.318-.158h-.028c-.584-.046-1.178-.079-1.763-.1a.353.353,0,0,1,.024-.705c.6.02,1.2.054,1.8.1a.353.353,0,0,1-.027.706Zm-4.842-.087a.353.353,0,0,1-.013-.706l.454-.016c.3-.01.614-.016.917-.019h0a.353.353,0,0,1,0,.706c-.3,0-.6.009-.9.018l-.448.016Z" transform="translate(-918.765 -342.731)" fill="#a5cee0"/>
      <path id="Pfad_8566" data-name="Pfad 8566" d="M958.721,967.65a1.937,1.937,0,0,0,.576.183q.083.014.172.024h0a3.345,3.345,0,0,0,1.452-.153l.023-.009a1.4,1.4,0,0,0,.553-.349.681.681,0,0,0,.182-.425.74.74,0,0,1,.033-.183,1.93,1.93,0,0,1,.251-.5c.231-.355.585-.771.977-1.262a9.409,9.409,0,0,0,2.463-6c.013-2.64-1.331-5.8-4.662-5.944-.026,0-.051,0-.078,0a5.511,5.511,0,0,0-5.875,5.812c-.007,3.47,2.555,5.757,3.323,7.378a1.824,1.824,0,0,1,.214.857v.027a.628.628,0,0,0,.4.542Z" transform="translate(-870.481 -853.719)" fill="#f4ad00"/>
      <path id="Pfad_8567" data-name="Pfad 8567" d="M984.749,1041.586h-.019a.147.147,0,0,1-.126-.164c.023-.173.424-3.18.7-5.091a1.575,1.575,0,0,1-.478-.082,1.512,1.512,0,0,1-.586-.393,1.434,1.434,0,0,1-.574.437,2.023,2.023,0,0,1-.686.121c.291,2.012.457,4.848.466,5.012a.146.146,0,1,1-.292.017c0-.041-.177-3.03-.472-5.053a2.1,2.1,0,0,1-1.371-.862,1.129,1.129,0,0,1-.046-1.162.666.666,0,0,1,.586-.405c.2.006.485.132.736.689a6.75,6.75,0,0,1,.349,1.474,1.667,1.667,0,0,0,.63-.106,1.183,1.183,0,0,0,.481-.389,1.933,1.933,0,0,1-.447-1.32.546.546,0,0,1,.624-.456.558.558,0,0,1,.561.507,2.031,2.031,0,0,1-.367,1.256,1.266,1.266,0,0,0,.5.357,1.24,1.24,0,0,0,.429.066c.085-.574.155-1.014.193-1.188.2-.934.675-.978.869-.954a.82.82,0,0,1,.655.827,1.748,1.748,0,0,1-.773,1.294,1.73,1.73,0,0,1-.687.291c-.284,1.939-.706,5.112-.712,5.155a.146.146,0,0,1-.145.127Zm-2.915-7.335a.4.4,0,0,0-.312.25.843.843,0,0,0,.025.853,1.806,1.806,0,0,0,1.088.731,6.143,6.143,0,0,0-.314-1.317c-.146-.323-.321-.511-.479-.516h-.006Zm4.5-.07c-.222,0-.411.267-.511.729-.034.159-.1.558-.177,1.084a1.539,1.539,0,0,0,1.121-1.285.527.527,0,0,0-.4-.525.209.209,0,0,0-.035,0Zm-2.159-.041c-.221,0-.272.116-.291.217a1.59,1.59,0,0,0,.335,1.008,1.679,1.679,0,0,0,.272-.965.267.267,0,0,0-.284-.259h-.032Z" transform="translate(-894.492 -927.402)" fill="#fff" opacity="0.75"/>
      <path id="Pfad_8568" data-name="Pfad 8568" d="M1023.587,965.015a9.409,9.409,0,0,0,2.463-6c.013-2.64-1.331-5.8-4.662-5.944-.026,0-.051,0-.078,0,4.872,5.7,4.034,7.494,2.276,11.945Z" transform="translate(-931.128 -853.757)" fill="#e84e1b" opacity="0.25"/>
      <path id="Pfad_8569" data-name="Pfad 8569" d="M990.321,1105.9a1.907,1.907,0,0,0,.871.877c.038.019.076.036.116.052a1.875,1.875,0,0,0,.666.14l.137,0a1.878,1.878,0,0,0,.679-.107,1.911,1.911,0,0,0,1.253-1.549,1.791,1.791,0,0,0,.017-.209s0-.025.005-.068c.005-.068.014-.182.024-.326.011-.161.025-.36.037-.57.007-.111.013-.226.019-.341.01-.2.018-.4.022-.581,0-.114,0-.22,0-.312a.933.933,0,0,0-.04-.337,15.829,15.829,0,0,0-3.448-.174,3.54,3.54,0,0,0-.354.033.384.384,0,0,0-.13.037.31.31,0,0,0-.084.188,2.208,2.208,0,0,0-.036.291c-.009.123-.013.26-.015.406v.209c0,.226.01.46.019.672,0,.072.007.142.011.208.018.327.036.561.036.561,0,.04,0,.079,0,.119a1.782,1.782,0,0,0,.019.207,1.961,1.961,0,0,0,.058.271,1.853,1.853,0,0,0,.116.3Z" transform="translate(-902.637 -989.882)" fill="#454554"/>
      <path id="Pfad_8570" data-name="Pfad 8570" d="M990.21,1114.433c.6-.147,3.5-.473,4.052-.545,0-.072-.007-.142-.011-.208l-4.034.3a2.849,2.849,0,0,0-.008.454Z" transform="translate(-902.767 -1000.185)" fill="#1f1f3b" opacity="0.6"/>
      <path id="Pfad_8571" data-name="Pfad 8571" d="M990.453,1125.754c.784-.146,3.45-.471,3.951-.537a1.813,1.813,0,0,0-.018-.208l-3.986.258A2.385,2.385,0,0,0,990.453,1125.754Z" transform="translate(-902.947 -1010.514)" fill="#1f1f3b" opacity="0.6"/>
      <path id="Pfad_8572" data-name="Pfad 8572" d="M992.143,1108.894l0,.054a.274.274,0,0,1-.252.294l-3.963.349a.272.272,0,0,1-.3-.245l0-.054a.274.274,0,0,1,.252-.294l3.963-.349A.272.272,0,0,1,992.143,1108.894Z" transform="translate(-900.421 -995.597)" fill="#5e5e6d"/>
      <path id="Pfad_8573" data-name="Pfad 8573" d="M992.337,1120.294l0,.054a.273.273,0,0,1-.249.294l-3.923.346a.271.271,0,0,1-.295-.245l0-.054a.273.273,0,0,1,.249-.294l3.923-.346A.271.271,0,0,1,992.337,1120.294Z" transform="translate(-900.64 -1005.99)" fill="#5e5e6d"/>
      <path id="Pfad_8574" data-name="Pfad 8574" d="M991.7,1135.9a1.9,1.9,0,0,0,.2.423c.9-.133,2.969-.421,3.6-.492a1.935,1.935,0,0,0,.042-.215l-3.838.284Z" transform="translate(-904.132 -1020.188)" fill="#1f1f3b" opacity="0.6"/>
      <path id="Pfad_8575" data-name="Pfad 8575" d="M992.327,1130.874l0,.054a.273.273,0,0,1-.249.294l-3.923.346a.271.271,0,0,1-.295-.245l0-.054a.273.273,0,0,1,.249-.294l3.923-.346a.271.271,0,0,1,.295.245Z" transform="translate(-900.631 -1015.636)" fill="#5e5e6d"/>
      <path id="Pfad_8576" data-name="Pfad 8576" d="M967.329,981.465a.171.171,0,0,1-.17-.158,3.878,3.878,0,0,1,1.269-3.338.171.171,0,0,1,.232.252,3.51,3.51,0,0,0-1.16,3.061.171.171,0,0,1-.157.184Z" transform="translate(-881.743 -876.416)" fill="#fff"/>
      <path id="Pfad_8577" data-name="Pfad 8577" d="M988.07,970.59a.171.171,0,0,1-.1-.312,2.3,2.3,0,0,1,.464-.25.171.171,0,0,1,.124.319,1.966,1.966,0,0,0-.394.213.171.171,0,0,1-.1.03Z" transform="translate(-900.666 -869.207)" fill="#fff"/>
      <line id="Linie_72" data-name="Linie 72" x2="2.601" y2="0.227" transform="translate(96.332 104.936)" fill="none" stroke="#fff" stroke-linecap="round" stroke-linejoin="round" stroke-width="3.23"/>
      <line id="Linie_73" data-name="Linie 73" x2="0.166" y2="0.014" transform="translate(95.691 104.881)" fill="none" stroke="#fff" stroke-linecap="round" stroke-linejoin="round" stroke-width="3.23"/>
      <line id="Linie_74" data-name="Linie 74" y1="0.808" x2="2.482" transform="translate(95.9 101.365)" fill="none" stroke="#fff" stroke-linecap="round" stroke-linejoin="round" stroke-width="3.23"/>
      <line id="Linie_75" data-name="Linie 75" y1="0.052" x2="0.159" transform="translate(95.287 102.32)" fill="none" stroke="#fff" stroke-linecap="round" stroke-linejoin="round" stroke-width="3.23"/>
      <line id="Linie_76" data-name="Linie 76" y1="1.718" x2="1.966" transform="translate(94.888 98.131)" fill="none" stroke="#fff" stroke-linecap="round" stroke-linejoin="round" stroke-width="3.23"/>
      <line id="Linie_77" data-name="Linie 77" y1="0.109" x2="0.126" transform="translate(94.403 100.164)" fill="none" stroke="#fff" stroke-linecap="round" stroke-linejoin="round" stroke-width="3.23"/>
      <line id="Linie_78" data-name="Linie 78" y1="2.402" x2="1.024" transform="translate(91.472 95.569)" fill="none" stroke="#fff" stroke-linecap="round" stroke-linejoin="round" stroke-width="3.23"/>
      <line id="Linie_79" data-name="Linie 79" y1="0.154" x2="0.065" transform="translate(91.22 98.41)" fill="none" stroke="#fff" stroke-linecap="round" stroke-linejoin="round" stroke-width="3.23"/>
      <line id="Linie_80" data-name="Linie 80" x1="0.718" y1="2.51" transform="translate(86.905 95.541)" fill="none" stroke="#fff" stroke-linecap="round" stroke-linejoin="round" stroke-width="3.23"/>
      <line id="Linie_81" data-name="Linie 81" x1="0.046" y1="0.16" transform="translate(87.754 98.511)" fill="none" stroke="#fff" stroke-linecap="round" stroke-linejoin="round" stroke-width="3.23"/>
      <line id="Linie_82" data-name="Linie 82" x1="2.6" y2="0.243" transform="translate(80.286 105.214)" fill="none" stroke="#fff" stroke-linecap="round" stroke-linejoin="round" stroke-width="3.23"/>
      <line id="Linie_83" data-name="Linie 83" x1="0.166" y2="0.016" transform="translate(83.362 105.154)" fill="none" stroke="#fff" stroke-linecap="round" stroke-linejoin="round" stroke-width="3.23"/>
      <line id="Linie_84" data-name="Linie 84" x1="2.372" y1="1.093" transform="translate(80.816 100.945)" fill="none" stroke="#fff" stroke-linecap="round" stroke-linejoin="round" stroke-width="3.23"/>
      <line id="Linie_85" data-name="Linie 85" x1="0.152" y1="0.07" transform="translate(83.621 102.238)" fill="none" stroke="#fff" stroke-linecap="round" stroke-linejoin="round" stroke-width="3.23"/>
      <line id="Linie_86" data-name="Linie 86" x1="1.752" y1="1.936" transform="translate(82.712 97.913)" fill="none" stroke="#fff" stroke-linecap="round" stroke-linejoin="round" stroke-width="3.23"/>
      <line id="Linie_87" data-name="Linie 87" x1="0.112" y1="0.124" transform="translate(84.784 100.203)" fill="none" stroke="#fff" stroke-linecap="round" stroke-linejoin="round" stroke-width="3.23"/>
      <path id="Pfad_8578" data-name="Pfad 8578" d="M1270.185,382.281a.219.219,0,0,1-.168-.187,5.689,5.689,0,0,0-.216-1.02.22.22,0,0,1,.081-.244l.8-.576a.222.222,0,0,0,.073-.268c-.077-.177-.161-.35-.252-.518a.222.222,0,0,0-.249-.109l-.977.25a.218.218,0,0,1-.235-.087,5.706,5.706,0,0,0-.643-.77.22.22,0,0,1-.041-.253l.44-.881a.222.222,0,0,0-.059-.27q-.232-.187-.478-.354a.221.221,0,0,0-.271.019l-.749.675a.219.219,0,0,1-.247.032,5.66,5.66,0,0,0-.892-.372.219.219,0,0,1-.153-.2l-.02-.989a.221.221,0,0,0-.177-.212q-.3-.06-.6-.094a.221.221,0,0,0-.232.143l-.351.95a.221.221,0,0,1-.2.144c-.231.011-.668.04-.947.076a.221.221,0,0,1-.221-.112l-.483-.875a.221.221,0,0,0-.254-.105c-.2.057-.395.122-.586.194a.221.221,0,0,0-.14.235l.13.993a.22.22,0,0,1-.116.223,5.685,5.685,0,0,0-.787.493.219.219,0,0,1-.251.007l-.834-.551a.22.22,0,0,0-.272.024q-.226.212-.433.444a.221.221,0,0,0-.017.274l.572.814a.218.218,0,0,1,0,.253,5.682,5.682,0,0,0-.479.8.218.218,0,0,1-.219.121l-1-.1a.221.221,0,0,0-.23.147q-.1.287-.179.585a.221.221,0,0,0,.113.252l.884.454a.221.221,0,0,1,.118.221c-.033.3-.048.743-.052.97a.22.22,0,0,1-.138.2l-.941.38a.22.22,0,0,0-.136.235c.027.2.063.395.107.587a.222.222,0,0,0,.217.172l.986-.009a.221.221,0,0,1,.209.147,5.724,5.724,0,0,0,.409.909.222.222,0,0,1-.025.25l-.653.767a.219.219,0,0,0-.011.272q.17.236.358.456a.22.22,0,0,0,.272.051l.867-.464a.219.219,0,0,1,.254.034,5.668,5.668,0,0,0,.816.64.22.22,0,0,1,.094.232l-.221.981a.222.222,0,0,0,.118.246c.167.083.338.16.512.23a.221.221,0,0,0,.265-.081l.552-.815a.22.22,0,0,1,.241-.088,5.7,5.7,0,0,0,1.055.188.219.219,0,0,1,.193.162l.26.968a.217.217,0,0,0,.214.162h0c.184-.005.368-.018.549-.037a.221.221,0,0,0,.2-.194l.11-.982a.22.22,0,0,1,.171-.19,5.672,5.672,0,0,0,1.039-.335.218.218,0,0,1,.248.053l.674.73a.221.221,0,0,0,.272.042q.236-.135.461-.288a.222.222,0,0,0,.082-.262l-.36-.926a.218.218,0,0,1,.062-.246,5.756,5.756,0,0,0,.759-.787.219.219,0,0,1,.246-.07l.932.331a.22.22,0,0,0,.26-.09c.1-.155.189-.312.274-.473a.221.221,0,0,0-.05-.269l-.753-.655a.221.221,0,0,1-.061-.245,5.594,5.594,0,0,0,.294-1.036.22.22,0,0,1,.185-.177l.975-.139a.221.221,0,0,0,.189-.2q.025-.351.016-.71v-.022l-1.143-.271Zm-4.784.492a1.06,1.06,0,0,1,0,.13,1.007,1.007,0,0,1-.1.348,1.08,1.08,0,0,1-.065.113,1.022,1.022,0,0,1-.253.262.965.965,0,0,1-.11.069,1.009,1.009,0,0,1-.347.112,1.053,1.053,0,0,1-.1.008h-.026a1.036,1.036,0,0,1-.357-.063.872.872,0,0,1-.121-.055,1.021,1.021,0,0,1-.365-.327,1.03,1.03,0,0,1-.145-.32.871.871,0,0,1-.025-.136c0-.028-.005-.057-.006-.087a1.033,1.033,0,0,1,.066-.392,1.028,1.028,0,0,1,.274-.4,1.032,1.032,0,0,1,.289-.181,1.017,1.017,0,0,1,.358-.075,1.044,1.044,0,0,1,.118,0,1.025,1.025,0,0,1,.138.022,1.015,1.015,0,0,1,.319.134.929.929,0,0,1,.11.082,1.019,1.019,0,0,1,.225.27,1.137,1.137,0,0,1,.059.122,1,1,0,0,1,.073.35v0Z" transform="translate(-1146.431 -327.5)" fill="#0267a4"/>
      <path id="Pfad_8579" data-name="Pfad 8579" d="M1300.187,415.063v.012a3.584,3.584,0,0,1-.017.487,3.812,3.812,0,0,1-.375,1.312,3.875,3.875,0,0,1-.246.427,3.832,3.832,0,0,1-.954.988,3.748,3.748,0,0,1-.417.26,3.79,3.79,0,0,1-1.307.423,3.944,3.944,0,0,1-.4.032l-.094,0a3.8,3.8,0,0,1-1.341-.238,3.83,3.83,0,0,1-1.516-1.031,3.724,3.724,0,0,1-.315-.4,3.823,3.823,0,0,1-.545-1.2,3.749,3.749,0,0,1-.094-.512c-.012-.109-.02-.218-.023-.329a3.82,3.82,0,0,1,.1-.97,3.74,3.74,0,0,1,.154-.505,3.811,3.811,0,0,1,.657-1.106,3.707,3.707,0,0,1,.373-.381,3.806,3.806,0,0,1,1.087-.681,3.9,3.9,0,0,1,.505-.168,3.893,3.893,0,0,1,1.285-.105,3.739,3.739,0,0,1,.521.082,3.82,3.82,0,0,1,2.966,3.608Z" transform="translate(-1178.41 -359.881)" fill="#1f1f39" opacity="0.25"/>
      <path id="Pfad_8580" data-name="Pfad 8580" d="M1317.279,434.012v.006a1.876,1.876,0,0,1-.009.253,1.978,1.978,0,0,1-.2.683,2.154,2.154,0,0,1-.128.222,2.011,2.011,0,0,1-.5.515,1.939,1.939,0,0,1-.217.135,1.971,1.971,0,0,1-.68.22c-.068.009-.137.014-.208.017h-.05a1.971,1.971,0,0,1-.7-.124,1.83,1.83,0,0,1-.238-.107,1.993,1.993,0,0,1-.551-.43,2.079,2.079,0,0,1-.164-.209,1.994,1.994,0,0,1-.284-.627,1.916,1.916,0,0,1-.048-.267c-.006-.057-.011-.114-.012-.171a1.948,1.948,0,0,1,.051-.505,1.977,1.977,0,0,1,.422-.839,2.062,2.062,0,0,1,.193-.2,1.981,1.981,0,0,1,1.268-.5,2.192,2.192,0,0,1,.23.006,1.981,1.981,0,0,1,.9.3,2.04,2.04,0,0,1,.217.161,1.989,1.989,0,0,1,.556.769,1.973,1.973,0,0,1,.144.686Z" transform="translate(-1197.334 -378.773)" fill="none" stroke="#1f1f39" stroke-miterlimit="10" stroke-width="4.59" opacity="0.55"/>
      <path id="Pfad_8581" data-name="Pfad 8581" d="M1299.645,413.221a3.826,3.826,0,0,0-2.169-1.387,3.907,3.907,0,0,0-.521-.082,4.059,4.059,0,0,0-.441-.013,3.84,3.84,0,0,0-.843.117,3.741,3.741,0,0,0-.505.168,3.823,3.823,0,0,0-1.087.681,3.693,3.693,0,0,0-.372.381,3.815,3.815,0,0,0-.657,1.107,3.8,3.8,0,0,0-.251,1.475c0,.111.011.221.023.329a3.782,3.782,0,0,0,.5,1.495c-.047-.06-.091-.122-.134-.185a3.828,3.828,0,0,1-.545-1.2,3.919,3.919,0,0,1-.093-.511c-.012-.109-.02-.218-.023-.329a3.814,3.814,0,0,1,.908-2.582,3.719,3.719,0,0,1,.373-.381,3.808,3.808,0,0,1,1.087-.681,3.943,3.943,0,0,1,.505-.168,3.847,3.847,0,0,1,.843-.117,3.654,3.654,0,0,1,.442.013,3.735,3.735,0,0,1,.521.082,3.809,3.809,0,0,1,1.2.505,3.869,3.869,0,0,1,.418.309,3.82,3.82,0,0,1,.824.979Z" transform="translate(-1178.391 -359.854)" fill="#1f1f39" opacity="0.25"/>
      <path id="Pfad_8582" data-name="Pfad 8582" d="M1379.967,330.765a.069.069,0,0,0,.058-.052,4.256,4.256,0,0,0,.1-1.057h0a.067.067,0,0,0-.041-.06l-.864-.366a.067.067,0,0,1-.04-.05,3.277,3.277,0,0,0-.139-.526.068.068,0,0,1,.014-.068l.609-.644a.067.067,0,0,0,.011-.076,4.286,4.286,0,0,0-.638-.937.069.069,0,0,0-.07-.019l-.9.276a.07.07,0,0,1-.063-.012,3.217,3.217,0,0,0-.322-.235.069.069,0,0,1-.031-.06l.054-.9a.066.066,0,0,0-.038-.064,4.234,4.234,0,0,0-1.125-.349.068.068,0,0,0-.067.03l-.505.778a.065.065,0,0,1-.057.03h-.154c-.062,0-.124.005-.185.011a.067.067,0,0,1-.059-.026l-.553-.744a.068.068,0,0,0-.069-.026,4.254,4.254,0,0,0-1.1.421.067.067,0,0,0-.033.067l.11.9a.066.066,0,0,1-.026.062,3.594,3.594,0,0,0-.3.252.067.067,0,0,1-.062.017l-.916-.218a.065.065,0,0,0-.068.024,4.23,4.23,0,0,0-.578.978.068.068,0,0,0,.016.075l.648.6a.066.066,0,0,1,.019.067,3.458,3.458,0,0,0-.1.525.065.065,0,0,1-.036.052l-.839.42-.037.063a4.268,4.268,0,0,0,.169,1.053.066.066,0,0,0,.061.048l.877.046a.068.068,0,0,1,.058.041,3.434,3.434,0,0,0,.342.612.068.068,0,0,1,.007.065l-.365.846a.066.066,0,0,0,.012.072,4.308,4.308,0,0,0,.766.643.066.066,0,0,0,.077,0l.7-.532a.066.066,0,0,1,.07-.006,3.353,3.353,0,0,0,.767.268.068.068,0,0,1,.05.046l.257.862a.066.066,0,0,0,.058.048,4.24,4.24,0,0,0,.475.013,4.375,4.375,0,0,0,.5-.042.067.067,0,0,0,.056-.051l.2-.876a.067.067,0,0,1,.047-.049,3.359,3.359,0,0,0,.751-.315.068.068,0,0,1,.071,0l.737.486a.066.066,0,0,0,.077,0,4.3,4.3,0,0,0,.724-.687.067.067,0,0,0,.008-.073l-.419-.82a.067.067,0,0,1,0-.065,3.4,3.4,0,0,0,.307-.638.067.067,0,0,1,.056-.044l.872-.1Z" transform="translate(-1250.478 -281.656)" fill="#0267a4"/>
      <path id="Pfad_8583" data-name="Pfad 8583" d="M1398.639,350.035v.007a2.3,2.3,0,0,1-.01.291,2.27,2.27,0,0,1-.224.784,2.139,2.139,0,0,1-.147.255,2.279,2.279,0,0,1-.57.591,2.282,2.282,0,0,1-1.03.408,2.116,2.116,0,0,1-.237.019h-.056a2.281,2.281,0,0,1-.8-.142,2.23,2.23,0,0,1-.273-.123,2.269,2.269,0,0,1-.632-.494,2.462,2.462,0,0,1-.189-.24,2.276,2.276,0,0,1-.326-.72,2.193,2.193,0,0,1-.056-.306c-.007-.064-.012-.131-.014-.2a2.313,2.313,0,0,1,.057-.579,2.37,2.37,0,0,1,.092-.3,2.286,2.286,0,0,1,2.072-1.467,2.176,2.176,0,0,1,.264.008,2.26,2.26,0,0,1,1.031.351,2.224,2.224,0,0,1,.249.185,2.274,2.274,0,0,1,.506.609,2.265,2.265,0,0,1,.3,1.061Z" transform="translate(-1270.974 -301.949)" fill="#1f1f39" opacity="0.25"/>
      <path id="Pfad_8584" data-name="Pfad 8584" d="M1408.853,361.418v0a1.085,1.085,0,0,1-.005.152,1.186,1.186,0,0,1-.116.408,1.4,1.4,0,0,1-.077.133,1.2,1.2,0,0,1-.3.307,1.239,1.239,0,0,1-.13.081,1.172,1.172,0,0,1-.406.132,1.152,1.152,0,0,1-.124.01h-.029a1.2,1.2,0,0,1-.418-.074,1.364,1.364,0,0,1-.142-.064,1.2,1.2,0,0,1-.329-.257,1.234,1.234,0,0,1-.1-.125,1.164,1.164,0,0,1-.17-.374,1.177,1.177,0,0,1-.029-.159c0-.034-.006-.068-.007-.1a1.19,1.19,0,0,1,.078-.459,1.2,1.2,0,0,1,.2-.344,1.1,1.1,0,0,1,.116-.118,1.172,1.172,0,0,1,.338-.212,1.189,1.189,0,0,1,.157-.052,1.168,1.168,0,0,1,.262-.036c.047,0,.092,0,.138,0a1.118,1.118,0,0,1,.162.026,1.2,1.2,0,0,1,.374.157,1.129,1.129,0,0,1,.13.1,1.18,1.18,0,0,1,.263.317,1.039,1.039,0,0,1,.069.142,1.193,1.193,0,0,1,.087.41Z" transform="translate(-1282.283 -313.298)" fill="none" stroke="#1f1f39" stroke-miterlimit="10" stroke-width="2.75" opacity="0.55"/>
      <path id="Pfad_8585" data-name="Pfad 8585" d="M1398.3,349a2.277,2.277,0,0,0-1.608-.877,2.37,2.37,0,0,0-.264-.008,2.306,2.306,0,0,0-.5.071,2.362,2.362,0,0,0-.3.1,2.3,2.3,0,0,0-1.266,1.3,2.331,2.331,0,0,0-.092.3,2.275,2.275,0,0,0-.057.579c0,.066.006.132.014.2a2.332,2.332,0,0,0,.056.306,2.258,2.258,0,0,0,.242.587c-.028-.036-.055-.072-.08-.11a2.281,2.281,0,0,1-.326-.72,2.222,2.222,0,0,1-.056-.306c-.007-.065-.012-.131-.014-.2a2.285,2.285,0,0,1,.057-.579,2.205,2.205,0,0,1,.093-.3,2.308,2.308,0,0,1,.392-.661,2.273,2.273,0,0,1,.222-.228,2.283,2.283,0,0,1,1.456-.577,2.19,2.19,0,0,1,.264.008,2.264,2.264,0,0,1,1.03.351,2.222,2.222,0,0,1,.249.185,2.255,2.255,0,0,1,.492.585Z" transform="translate(-1270.946 -301.995)" fill="#1f1f39" opacity="0.25"/>
      <ellipse id="Ellipse_34" data-name="Ellipse 34" cx="1.093" cy="1.093" rx="1.093" ry="1.093" transform="matrix(1, -0.007, 0.007, 1, 116.854, 54.179)" fill="#fff"/>
      <path id="Pfad_8586" data-name="Pfad 8586" d="M1413.885,367.017a.649.649,0,1,1-.667-.63A.65.65,0,0,1,1413.885,367.017Z" transform="translate(-1287.855 -318.878)" fill="#fff" fill-rule="evenodd"/>
      <path id="Pfad_8587" data-name="Pfad 8587" d="M2013.881,882.4c3.774-1.032,10.638-.35,12.708,6.888,1.814,6.346-1.674,11.763-7.872,13.034-7.147,1.465-4.836-19.922-4.836-19.922Z" transform="translate(-1835.729 -788.983)" fill="#3b3b4c"/>
      <path id="Pfad_8588" data-name="Pfad 8588" d="M1956.524,889.645a10.582,10.582,0,0,1,.405,2.592,9.961,9.961,0,0,1-7.1,9.974,9.745,9.745,0,0,1-1.47.3,9.572,9.572,0,0,1-3.547-.228q-.364-.093-.719-.213l-.027-.009a10.054,10.054,0,0,1-1.085-.442l-.072-.034q-.232-.113-.457-.238l-.016-.009q-.364-.2-.711-.434l-.017-.011-.052-.035c-.064-.043-.127-.087-.191-.132l-.032-.023-.012-.008a10.039,10.039,0,0,1-1.041-.86l-.061-.058c-.056-.054-.112-.109-.167-.163l-.019-.019a10.483,10.483,0,0,1-2.631-4.511,10.257,10.257,0,0,1,3.174-10.7,9.624,9.624,0,0,1,5.918-2.236h0a9.5,9.5,0,0,1,1.337.06,10.043,10.043,0,0,1,6.008,2.973h0a10.479,10.479,0,0,1,2.584,4.464Z" transform="translate(-1766.046 -789.094)" fill="#e6eff1"/>
      <path id="Pfad_8589" data-name="Pfad 8589" d="M1973.182,909.049a8.671,8.671,0,0,1,.333,2.126,8.176,8.176,0,0,1-5.828,8.185,8.41,8.41,0,0,1-4.621-16.162,8.078,8.078,0,0,1,7.995,2.187h0A8.6,8.6,0,0,1,1973.182,909.049Z" transform="translate(-1784.41 -808.011)" fill="#3b3b4c"/>
      <ellipse id="Ellipse_35" data-name="Ellipse 35" cx="6.197" cy="6.416" rx="6.197" ry="6.416" transform="translate(173.241 98.805) rotate(-16.03)" fill="#1991bf"/>
      <ellipse id="Ellipse_36" data-name="Ellipse 36" cx="4.284" cy="4.436" rx="4.284" ry="4.436" transform="translate(175.627 100.178) rotate(-16.03)" fill="#cd2b31"/>
      <ellipse id="Ellipse_37" data-name="Ellipse 37" cx="2.044" cy="2.117" rx="2.044" ry="2.117" transform="translate(178.422 101.785) rotate(-16.03)" fill="#f7b523"/>
      <path id="Pfad_8590" data-name="Pfad 8590" d="M1981.453,997.37l-1.107,1.557-.113.159-1.234,1.735-.117.166-.494.695-.084.118-.436.613-.124.174-.955,1.343-.052.076c-.159.228-.48.671-.48.671l-.534.754-.036.039-.017-.011-.052-.035c-.064-.043-.127-.088-.191-.132l-.032-.023-.011-.008a10.051,10.051,0,0,1-1.041-.86.9.9,0,0,0,.073-.1l.978-1.1.13-.147,1.161-1.31.126-.141,1.161-1.309.078-.087.043-.049.042-.047,1.345-1.517.114-.129,1.439-1.624.423.532Z" transform="translate(-1800.005 -893.661)" fill="#4b4b5b" opacity="0.22"/>
      <path id="Pfad_8591" data-name="Pfad 8591" d="M1919.261,962.569c-.741-.179-12-3.148-12.312-3.184-.339-.04-.764,2.431-.361,2.5.381.064,12.506,1.576,12.623,1.586.287.025.632-.76.048-.9Z" transform="translate(-1738.086 -859.514)" fill="#a05437"/>
      <path id="Pfad_8592" data-name="Pfad 8592" d="M1911.575,944.477a8.159,8.159,0,0,0-.936-1.791,1.4,1.4,0,0,0-.79-.118c.292.987.64,1.626,1.1,1.768.24.074.41.14.513.17s.133.026.111-.03Z" transform="translate(-1741.209 -844.171)" fill="#9b9baa"/>
      <path id="Pfad_8593" data-name="Pfad 8593" d="M1919.831,946.869a7.488,7.488,0,0,0-.916-1.689c-.077.191.29,1.512.805,1.718.1.029.133.026.111-.03Z" transform="translate(-1749.464 -846.563)" fill="#1f1f39" opacity="0.23"/>
      <path id="Pfad_8594" data-name="Pfad 8594" d="M1920.166,946.175a8.074,8.074,0,0,0-.928-1.786,1.19,1.19,0,0,0-.648-.165c.292.987.49,1.668.952,1.811.239.074.411.141.513.171S1920.188,946.231,1920.166,946.175Z" transform="translate(-1749.177 -845.69)" fill="#9b9baa"/>
      <path id="Pfad_8595" data-name="Pfad 8595" d="M1926.79,948.889a7.478,7.478,0,0,0-.916-1.689,2.2,2.2,0,0,0,.805,1.718c.1.029.133.026.111-.03Z" transform="translate(-1755.802 -848.405)" fill="#1f1f39" opacity="0.23"/>
      <path id="Pfad_8596" data-name="Pfad 8596" d="M1927.21,948.146a2.232,2.232,0,0,1-.366-.625s0-.007,0-.011a4.228,4.228,0,0,0-.568-1.136,1.64,1.64,0,0,0-.743-.2c.292.987.594,1.683,1.057,1.826.239.074.411.14.513.17l.032.009h0c.072.019.1.011.078-.039Z" transform="translate(-1755.504 -847.475)" fill="#9b9baa"/>
      <path id="Pfad_8597" data-name="Pfad 8597" d="M1934.792,950.945a2.233,2.233,0,0,1-.365-.625l0-.011a3.693,3.693,0,0,0-.565-1.06,2.915,2.915,0,0,0,.805,1.718l.051.016h0C1934.785,951,1934.811,950.995,1934.792,950.945Z" transform="translate(-1763.086 -850.274)" fill="#1f1f39" opacity="0.23"/>
      <path id="Pfad_8598" data-name="Pfad 8598" d="M1935.594,950.18a7.455,7.455,0,0,0-.886-1.723,2.211,2.211,0,0,0-.758-.257c.292.987.558,1.7,1.02,1.839.239.073.411.14.513.17S1935.616,950.236,1935.594,950.18Z" transform="translate(-1763.181 -849.317)" fill="#9b9baa"/>
      <path id="Pfad_8599" data-name="Pfad 8599" d="M1943.4,952.833a7.4,7.4,0,0,0-.878-1.723,3.39,3.39,0,0,0,.766,1.753C1943.387,952.892,1943.424,952.889,1943.4,952.833Z" transform="translate(-1770.989 -851.97)" fill="#1f1f39" opacity="0.23"/>
      <path id="Pfad_8600" data-name="Pfad 8600" d="M1944.073,952.545a7.474,7.474,0,0,0-.916-1.689,1.965,1.965,0,0,0-.708-.245,3.361,3.361,0,0,0,.963,1.817c.238.078.447.117.549.147s.133.026.111-.03Z" transform="translate(-1770.93 -851.514)" fill="#9b9baa"/>
      <path id="Pfad_8601" data-name="Pfad 8601" d="M1951.28,955.079a7.487,7.487,0,0,0-.916-1.689c-.077.191.29,1.512.805,1.718.1.029.133.026.111-.03Z" transform="translate(-1778.137 -854.048)" fill="#1f1f39" opacity="0.23"/>
      <path id="Pfad_8602" data-name="Pfad 8602" d="M1951.661,955.129a7.1,7.1,0,0,0-.94-1.573,2.963,2.963,0,0,0-.63-.306c.292.987.485,1.6.947,1.738.24.073.41.14.513.17s.133.026.111-.03Z" transform="translate(-1777.896 -853.921)" fill="#9b9baa"/>
      <path id="Pfad_8603" data-name="Pfad 8603" d="M1917.391,962.029c-.737-.193-10.267-2.708-10.581-2.744-.339-.04-.764,2.431-.361,2.5.381.065,10.685,1.335,10.8,1.353.469.071.671-.969.14-1.107Z" transform="translate(-1737.959 -859.422)" fill="#a05437"/>
      <ellipse id="Ellipse_38" data-name="Ellipse 38" cx="1.263" cy="1.263" rx="1.263" ry="1.263" transform="translate(167.225 100.135) rotate(-11.57)" fill="#754942"/>
      <path id="Pfad_8604" data-name="Pfad 8604" d="M1904.206,986.672A8.523,8.523,0,0,1,1902.63,988a1.694,1.694,0,0,1-.79-.154c.642-.766,1.289-1.339,1.755-1.288.241.027.42.034.523.047S1904.247,986.63,1904.206,986.672Z" transform="translate(-1733.907 -884.283)" fill="#9b9baa"/>
      <path id="Pfad_8605" data-name="Pfad 8605" d="M1913.24,987.187a7.773,7.773,0,0,1-1.49,1.289c.005-.2.865-1.374,1.4-1.358.1.011.129.027.087.069Z" transform="translate(-1742.941 -884.798)" fill="#1f1f39" opacity="0.23"/>
      <path id="Pfad_8606" data-name="Pfad 8606" d="M1913.7,987.6a8,8,0,0,1-1.526,1.285,1.312,1.312,0,0,1-.6-.038c.642-.766,1.053-1.415,1.519-1.363.241.026.419.034.523.047s.129.027.087.069Z" transform="translate(-1742.777 -885.125)" fill="#9b9baa"/>
      <path id="Pfad_8607" data-name="Pfad 8607" d="M1920.628,988.119c-.085.086-1.145,1.24-1.458,1.3a2.194,2.194,0,0,1,1.37-1.37C1920.638,988.061,1920.67,988.077,1920.628,988.119Z" transform="translate(-1749.706 -885.648)" fill="#1f1f39" opacity="0.23"/>
      <path id="Pfad_8608" data-name="Pfad 8608" d="M1920.628,988.852a2.155,2.155,0,0,0-.567.415l-.008.007a4.1,4.1,0,0,1-.945.791,2.343,2.343,0,0,1-.718-.012c.642-.765,1.161-1.37,1.628-1.317.241.027.419.034.523.047l.032,0h0C1920.644,988.8,1920.665,988.816,1920.628,988.852Z" transform="translate(-1748.995 -886.271)" fill="#9b9baa"/>
      <path id="Pfad_8609" data-name="Pfad 8609" d="M1928.368,989.351a2.16,2.16,0,0,0-.567.415l-.008.007a3.6,3.6,0,0,1-.913.725,2.826,2.826,0,0,1,1.381-1.218l.051.005h0c.072.011.092.028.055.064Z" transform="translate(-1756.735 -886.769)" fill="#1f1f39" opacity="0.23"/>
      <path id="Pfad_8610" data-name="Pfad 8610" d="M1928.679,990.011a7.214,7.214,0,0,1-1.455,1.19,2.135,2.135,0,0,1-.774-.064c.642-.766,1.152-1.294,1.62-1.242.241.027.419.034.523.047s.129.027.087.069Z" transform="translate(-1756.343 -887.326)" fill="#9b9baa"/>
      <path id="Pfad_8611" data-name="Pfad 8611" d="M1936.747,990.539a7.179,7.179,0,0,1-1.447,1.194,3.285,3.285,0,0,1,1.36-1.263C1936.757,990.482,1936.789,990.5,1936.747,990.539Z" transform="translate(-1764.412 -887.854)" fill="#1f1f39" opacity="0.23"/>
      <path id="Pfad_8612" data-name="Pfad 8612" d="M1937.144,991.192a7.276,7.276,0,0,1-1.469,1.149,1.9,1.9,0,0,1-.725-.055c.642-.766,1.3-1.27,1.56-1.245.242.023.442.069.546.082S1937.185,991.15,1937.144,991.192Z" transform="translate(-1764.093 -888.374)" fill="#9b9baa"/>
      <path id="Pfad_8613" data-name="Pfad 8613" d="M1944.628,992.047a7.27,7.27,0,0,1-1.468,1.149c.005-.2.842-1.233,1.381-1.218C1944.638,991.99,1944.67,992.005,1944.628,992.047Z" transform="translate(-1771.578 -889.229)" fill="#1f1f39" opacity="0.23"/>
      <path id="Pfad_8614" data-name="Pfad 8614" d="M1944.9,992.455a6.932,6.932,0,0,1-1.445,1.036,2.871,2.871,0,0,1-.68.029c.642-.765,1.048-1.233,1.515-1.181.241.026.419.034.523.047s.129.027.087.069Z" transform="translate(-1771.231 -889.555)" fill="#9b9baa"/>
      <path id="Pfad_8615" data-name="Pfad 8615" d="M1046.8,596.832l.006.081.035.483.012.159,0,.053c0,.009,0,.019,0,.027a.393.393,0,0,1-.364.392l-.777.057a.392.392,0,0,1-.419-.363l-.005-.072,0-.059-.008-.108,0-.057-.033-.46,0-.02a.41.41,0,0,1,.005-.1.393.393,0,0,1,.358-.321l.777-.057a.392.392,0,0,1,.4.265.349.349,0,0,1,.019.1Z" transform="translate(-952.943 -528.643)" fill="#616172"/>
      <path id="Pfad_8616" data-name="Pfad 8616" d="M1047.215,606.63l.011.159a1.12,1.12,0,0,1-.134.053l-1.43-.018-.008-.108,0-.057a7.42,7.42,0,0,1,1.565-.029Z" transform="translate(-953.318 -537.877)" fill="#3b3b4c"/>
      <path id="Pfad_8617" data-name="Pfad 8617" d="M1045.435,594.247l-.133.01a.4.4,0,0,1,.02.1l.006.081a6.786,6.786,0,0,0-1.563.052l0-.02a.4.4,0,0,1,.005-.1l-.149.011a2.322,2.322,0,0,1,.031-.419l1.852-.21-.068.5Z" transform="translate(-951.465 -526.165)" fill="#3b3b4c"/>
      <path id="Pfad_8618" data-name="Pfad 8618" d="M1029.462,551.1a2.067,2.067,0,0,0-2.029,2.084,1.838,1.838,0,0,0,.812,1.372l-.057-.794a1.233,1.233,0,0,1-.223-.617,1.661,1.661,0,0,1,3.272-.238,1.226,1.226,0,0,1-.131.643l.057.794a1.837,1.837,0,0,0,.606-1.475,2.066,2.066,0,0,0-2.308-1.77Z" transform="translate(-936.706 -487.278)" fill="#616172"/>
      <path id="Pfad_8619" data-name="Pfad 8619" d="M1039.616,575l.105,1.45a.362.362,0,0,1-.335.388l-.122.009-.133.01-1.534.111-.148.011-.107.008a.362.362,0,0,1-.388-.335l-.105-1.45a.363.363,0,0,1,.29-.381.262.262,0,0,1,.046-.006l.211-.015.157-.012.262-.019.209-.015.265-.019.163-.011.261-.019.223-.016.268-.019.024,0a.363.363,0,0,1,.388.336Z" transform="translate(-945.295 -508.769)" fill="#616172"/>
      <path id="Pfad_8620" data-name="Pfad 8620" d="M1040.578,577.828c.014.172-.02.276-.179.275s-.154-.561-.259-1.9a.268.268,0,0,1,.046-.006l.211-.015c.063.555.172,1.526.182,1.648Z" transform="translate(-948.295 -510.146)" fill="#3b3b4c"/>
      <path id="Pfad_8621" data-name="Pfad 8621" d="M1045.246,577.321c.014.172-.02.276-.179.275-.142,0-.153-.517-.247-1.747l.262-.019C1045.146,576.394,1045.238,577.21,1045.246,577.321Z" transform="translate(-952.562 -509.827)" fill="#3b3b4c"/>
      <path id="Pfad_8622" data-name="Pfad 8622" d="M1050.592,576.876c.014.172-.02.276-.179.275-.139,0-.154-.5-.243-1.691l.265-.02c.064.561.149,1.328.158,1.436Z" transform="translate(-957.439 -509.472)" fill="#3b3b4c"/>
      <path id="Pfad_8623" data-name="Pfad 8623" d="M1055.448,576.613c.014.172-.02.276-.179.275-.143,0-.154-.525-.249-1.77l.261-.019c.064.564.157,1.4.167,1.514Z" transform="translate(-961.861 -509.161)" fill="#3b3b4c"/>
      <path id="Pfad_8624" data-name="Pfad 8624" d="M1060.915,576.034c.014.172-.02.276-.179.275-.136,0-.153-.476-.236-1.6l.267-.019C1060.829,575.239,1060.907,575.931,1060.915,576.034Z" transform="translate(-966.857 -508.788)" fill="#3b3b4c"/>
      <path id="Pfad_8625" data-name="Pfad 8625" d="M970.087,621.4a9.117,9.117,0,0,1-12.3,3.871,9.334,9.334,0,0,1-4.773-6.2c-.035-.156-.067-.313-.1-.471-.007-.038-.013-.076-.019-.114-.011-.067-.021-.134-.03-.2a9.2,9.2,0,0,1-.087-1.146c0-.121,0-.243,0-.365a8.9,8.9,0,0,1,.9-3.666q.05-.1.1-.2c.015-.029.03-.058.046-.086a8.811,8.811,0,0,1,.851-1.3,8.921,8.921,0,0,1,2.015-1.873,9.328,9.328,0,0,1,9.514-.544,9.117,9.117,0,0,1,3.871,12.3Z" transform="translate(-868.651 -539.207)" fill="#616172"/>
      <path id="Pfad_8626" data-name="Pfad 8626" d="M970.087,621.4a9.117,9.117,0,0,1-12.3,3.871,9.334,9.334,0,0,1-4.773-6.2c-.035-.156-.067-.313-.1-.471-.007-.038-.013-.076-.019-.114-.011-.067-.021-.134-.03-.2a9.2,9.2,0,0,1-.087-1.146c0-.121,0-.243,0-.365a8.9,8.9,0,0,1,.9-3.666q.05-.1.1-.2c.015-.029.03-.058.046-.086a8.811,8.811,0,0,1,.851-1.3,8.921,8.921,0,0,1,2.015-1.873,9.328,9.328,0,0,1,9.514-.544,9.117,9.117,0,0,1,3.871,12.3Z" transform="translate(-868.651 -539.207)" fill="#00628f"/>
      <path id="Pfad_8627" data-name="Pfad 8627" d="M959.941,617.56a12.41,12.41,0,0,0-.039,1.306h0c0,.285.013.517.017.615l0,.052s-2.459,4.389-3.054,4.393h-.123c-.17,0-.4.007-.657.008-.394,0-.848-.007-1.227-.045a8.868,8.868,0,0,1,.721-2.11q.05-.1.1-.2c.015-.029.03-.058.046-.087a8.823,8.823,0,0,1,.851-1.3,8.917,8.917,0,0,1,2.015-1.873A9.263,9.263,0,0,1,959.941,617.56Z" transform="translate(-870.545 -547.872)" fill="#fff" opacity="0.17"/>
      <path id="Pfad_8628" data-name="Pfad 8628" d="M983.59,635.581a7.506,7.506,0,0,1-3.472,3.332,7.779,7.779,0,0,1-6.593.007c-.111-.051-.222-.106-.332-.163a8.065,8.065,0,0,1-1.338-.877,7.642,7.642,0,0,1-1.964-9.5,7.409,7.409,0,0,1,7.477-4.006h0a8.109,8.109,0,0,1,2.532.7c.113.052.225.108.337.166a7.817,7.817,0,0,1,3.038,2.81,7.593,7.593,0,0,1,.313,7.532Z" transform="translate(-883.45 -554.04)" fill="#fff"/>
      <path id="Pfad_8629" data-name="Pfad 8629" d="M979.9,625.083a8.169,8.169,0,0,0-1.943-.456h0a7.435,7.435,0,0,0-7.5,4.02,7.669,7.669,0,0,0,1.97,9.535,8.073,8.073,0,0,0,1.1.748c-.111-.051-.222-.106-.332-.163a8.079,8.079,0,0,1-1.338-.877,7.642,7.642,0,0,1-1.964-9.5,7.409,7.409,0,0,1,7.477-4.006h0a8.1,8.1,0,0,1,2.532.7Z" transform="translate(-883.45 -554.049)" fill="#0067a7" opacity="0.36"/>
      <path id="Pfad_8630" data-name="Pfad 8630" d="M1073.908,674.041a7.508,7.508,0,0,1-3.472,3.332,7.975,7.975,0,0,1-2.356.677,8.3,8.3,0,0,0,5.514-11.54,7.592,7.592,0,0,1,.313,7.532Z" transform="translate(-973.768 -592.5)" fill="#474756" opacity="0.26"/>
      <ellipse id="Ellipse_39" data-name="Ellipse 39" cx="4.306" cy="4.306" rx="4.306" ry="4.306" transform="translate(87.725 76.407) rotate(-28)" fill="#7c7c89"/>
      <ellipse id="Ellipse_40" data-name="Ellipse 40" cx="3.9" cy="3.9" rx="3.9" ry="3.9" transform="translate(88.304 79.885) rotate(-62.89)" fill="#fff"/>
      <path id="Pfad_8631" data-name="Pfad 8631" d="M1052.826,651.329l-.573.035-.562.034s.22-1.527.541-1.553c.4-.033.594,1.484.594,1.484Z" transform="translate(-958.825 -577.306)" fill="#7c7c89"/>
      <path id="Pfad_8632" data-name="Pfad 8632" d="M1057.688,760.71l-.539.01-.529.01s.323,1.509.609,1.484C1057.448,762.2,1057.688,760.71,1057.688,760.71Z" transform="translate(-963.32 -678.382)" fill="#7c7c89"/>
      <path id="Pfad_8633" data-name="Pfad 8633" d="M997.039,710.675l-.036-.558-.035-.547s-1.431.321-1.4.671,1.473.434,1.473.434Z" transform="translate(-907.656 -631.758)" fill="#7c7c89"/>
      <path id="Pfad_8634" data-name="Pfad 8634" d="M1106.082,705.193l-.057-.562-.056-.551s1.6.143,1.626.468c.021.26-1.513.644-1.513.644Z" transform="translate(-1008.312 -626.753)" fill="#7c7c89"/>
      <path id="Pfad_8635" data-name="Pfad 8635" d="M1017.771,676.2h0a.2.2,0,0,1-.282.023l-.676-.573a.2.2,0,0,1-.023-.282h0a.2.2,0,0,1,.282-.023l.676.573A.2.2,0,0,1,1017.771,676.2Z" transform="translate(-926.963 -600.516)" fill="#7c7c89"/>
      <path id="Pfad_8636" data-name="Pfad 8636" d="M.183,0H.218A.183.183,0,0,1,.4.183v.884a.183.183,0,0,1-.183.183H.183A.183.183,0,0,1,0,1.067V.183A.183.183,0,0,1,.183,0Z" transform="translate(96.338 80.646) rotate(-49.71)" fill="#7c7c89"/>
      <path id="Pfad_8637" data-name="Pfad 8637" d="M1087.467,670.24h0a.2.2,0,0,1,.023.282l-.575.679a.2.2,0,0,1-.282.023h0a.2.2,0,0,1-.023-.282l.575-.679A.2.2,0,0,1,1087.467,670.24Z" transform="translate(-990.619 -595.857)" fill="#7c7c89"/>
      <path id="Pfad_8638" data-name="Pfad 8638" d="M1021.317,744.1h0a.2.2,0,0,1,.023.282l-.576.679a.2.2,0,0,1-.282.023h0a.2.2,0,0,1-.023-.282l.576-.679a.2.2,0,0,1,.282-.023Z" transform="translate(-930.309 -663.195)" fill="#7c7c89"/>
      <path id="Pfad_8639" data-name="Pfad 8639" d="M1051.7,631.966c-.457.385-.616-.529-.807-.779.038.269.057.606.082.879-.094.029-.267.084-.315-.046.005-.092-.208-1.311-.04-1.344.381-.211.509.457.66.688.135.362.012-.23.018-.364.015-.044-.09-.434.032-.4.134-.033.269-.027.272.159l.1,1.205Z" transform="translate(-957.794 -559.748)" fill="#616172"/>
      <path id="Pfad_8640" data-name="Pfad 8640" d="M1059.345,779.773a.446.446,0,0,1-.3-.715c.146-.2.8-.24.691.156-.042.145-.19-.026-.306.018-.1,0-.2.081-.122.163.4.109.757.349.467.8-.154.214-.882.236-.739-.19.07-.16.216.074.356.021.261-.033.148-.235-.047-.253Z" transform="translate(-965.442 -694.977)" fill="#616172"/>
      <path id="Pfad_8641" data-name="Pfad 8641" d="M1125.8,700.135c-.075-.364.623-.224.791-.285.212.409-.231.329-.457.361l.017.218c.214.005.58-.167.457.246-.034.075-.368.055-.431.073l.02.246.491-.041a.365.365,0,0,1,.048.154c.08.291-.539.168-.659.222-.337.049-.2-1.021-.277-1.2Z" transform="translate(-1026.388 -622.896)" fill="#616172"/>
      <path id="Pfad_8642" data-name="Pfad 8642" d="M977.962,708.1c.43-.265.44.4.555.679a4.073,4.073,0,0,0,.021-.534c0-.17,0-.332,0-.5.186-.152.388-.018.338.236a6.158,6.158,0,0,1-.093,1.078c-.42.317-.522-.136-.615-.5-.052.2.029.511-.144.614-.111.049-.311.057-.381-.061a6.959,6.959,0,0,1-.281-1.021c-.16-.277.245-.463.322-.157C977.879,708.689,977.865,709.291,977.962,708.1Z" transform="translate(-891.032 -630.03)" fill="#616172"/>
      <path id="Pfad_8643" data-name="Pfad 8643" d="M1009.244,751.786a.03.03,0,0,0-.02-.021,1.259,1.259,0,0,1-.785-.707.031.031,0,0,0-.057.026,1.318,1.318,0,0,0,.822.741.032.032,0,0,0,.04-.019.032.032,0,0,0,0-.019Z" transform="translate(-919.339 -669.565)" fill="#603a3e"/>
      <path id="Pfad_8644" data-name="Pfad 8644" d="M1004.855,749.919a.032.032,0,0,0-.012-.018,1.443,1.443,0,0,1-.389-.376,1.548,1.548,0,0,1-.215-.494h0a.031.031,0,1,0-.06.016,1.441,1.441,0,0,0,.63.906.031.031,0,0,0,.043-.008.03.03,0,0,0,0-.026Z" transform="translate(-915.509 -667.713)" fill="#603a3e"/>
      <path id="Pfad_8645" data-name="Pfad 8645" d="M1106.3,660.3a.029.029,0,0,0,.018.023,1.224,1.224,0,0,1,.709.781.033.033,0,0,0,.041.02.031.031,0,0,0,.023-.038,1.282,1.282,0,0,0-.742-.818.035.035,0,0,0-.044.014.031.031,0,0,0,0,.018Z" transform="translate(-1008.613 -586.808)" fill="#603a3e"/>
      <path id="Pfad_8646" data-name="Pfad 8646" d="M1112.859,661.229a.029.029,0,0,0,.01.019,1.283,1.283,0,0,1,.5.917h0a.031.031,0,0,0,.036.026.032.032,0,0,0,.029-.034,1.343,1.343,0,0,0-.517-.954.035.035,0,0,0-.047,0,.029.029,0,0,0-.009.025Z" transform="translate(-1014.592 -587.652)" fill="#603a3e"/>
      <path id="Pfad_8647" data-name="Pfad 8647" d="M1032.431,708.4l-1.262-.644-1.372-.7s-1.406,5.666-1.359,6.381c0,.043.011.068.025.073.214.074,3.968-5.11,3.968-5.11Z" transform="translate(-937.625 -629.469)" fill="url(#radial-gradient)"/>
      <path id="Pfad_8648" data-name="Pfad 8648" d="M1046.474,657.053s1.778-6.134,1.423-6.31c-.16-.079-.549.489-1.153,1.228-1.2,1.472-2.9,3.737-2.9,3.737l1.372.7,1.262.644Z" transform="translate(-951.668 -578.119)" fill="#307ea2"/>
      <path id="Pfad_8649" data-name="Pfad 8649" d="M1028.438,666.161c.58-1.062,1.747-3.37,2.731-5.681a43.958,43.958,0,0,0,2.208-5.279c-1.4,1.588-3.581,4.579-3.581,4.579S1028.391,665.445,1028.438,666.161Z" transform="translate(-937.625 -582.189)" fill="#fff" opacity="0.26"/>
      <ellipse id="Ellipse_41" data-name="Ellipse 41" cx="1.232" cy="1.232" rx="1.232" ry="1.232" transform="matrix(0.354, -0.935, 0.935, 0.354, 91.924, 78.95)" fill="#3b3b4c"/>
      <path id="Pfad_8650" data-name="Pfad 8650" d="M1050.29,704.574a.849.849,0,0,1,.731-.5" transform="translate(-957.549 -626.743)" fill="none" stroke="#fff" stroke-linecap="round" stroke-miterlimit="10" stroke-width="1.61" opacity="0.75"/>
      <path id="Pfad_8651" data-name="Pfad 8651" d="M1049.288,713.784a1.021,1.021,0,0,1-.028-.344" transform="translate(-956.606 -635.286)" fill="none" stroke="#fff" stroke-linecap="round" stroke-miterlimit="10" stroke-width="1.61" opacity="0.75"/>
      <path id="Pfad_8652" data-name="Pfad 8652" d="M1797.2,496.115a4.967,4.967,0,0,0,2.356.094,2.711,2.711,0,0,0-1.157-.163,3.243,3.243,0,0,0-1.2.069Z" transform="translate(-1638.506 -437.082)" fill="#32323f" opacity="0.23"/>
      <path id="Pfad_8653" data-name="Pfad 8653" d="M1763.951,495.135a4.964,4.964,0,0,0,2.356.095,2.713,2.713,0,0,0-1.157-.163,3.244,3.244,0,0,0-1.2.069Z" transform="translate(-1608.192 -436.189)" fill="#32323f" opacity="0.23"/>
      <path id="Pfad_8654" data-name="Pfad 8654" d="M1730.661,494.155a4.966,4.966,0,0,0,2.356.094,2.712,2.712,0,0,0-1.157-.163,3.246,3.246,0,0,0-1.2.069Z" transform="translate(-1577.842 -435.295)" fill="#32323f" opacity="0.23"/>
      <path id="Pfad_8655" data-name="Pfad 8655" d="M1695.941,493.135a4.965,4.965,0,0,0,2.356.094,2.714,2.714,0,0,0-1.157-.163,3.243,3.243,0,0,0-1.2.069Z" transform="translate(-1546.188 -434.365)" fill="#32323f" opacity="0.23"/>
      <path id="Pfad_8656" data-name="Pfad 8656" d="M1661.881,492.125a4.965,4.965,0,0,0,2.356.094,2.713,2.713,0,0,0-1.157-.163,3.244,3.244,0,0,0-1.2.069Z" transform="translate(-1515.135 -433.444)" fill="#32323f" opacity="0.23"/>
      <path id="Pfad_8657" data-name="Pfad 8657" d="M1767.759,397.078l-.238,8.223a.265.265,0,0,1-.246.278l-1.645-.048a.265.265,0,0,1-.231-.291l.238-8.223a.265.265,0,0,1,.246-.278l1.645.048a.263.263,0,0,1,.229.291Z" transform="translate(-1609.513 -346.55)" fill="#0267a4"/>
      <path id="Pfad_8658" data-name="Pfad 8658" d="M1782.982,397.407l-.239,8.223a.265.265,0,0,1-.246.278l-.352-.011c-.094-1.579-.044-5.347.075-8.8l.532.015a.264.264,0,0,1,.23.291Z" transform="translate(-1624.736 -346.879)" fill="#f4f3f2" opacity="0.11"/>
      <path id="Pfad_8659" data-name="Pfad 8659" d="M1798.483,419.217l-.184,6.349a.264.264,0,0,0,.23.291l1.645.048a.265.265,0,0,0,.246-.278l.185-6.349a.323.323,0,0,0-.047-.179.225.225,0,0,0-.183-.112l-.932-.027-.713-.02a.265.265,0,0,0-.246.278Z" transform="translate(-1639.508 -366.79)" fill="#0267a4"/>
      <path id="Pfad_8660" data-name="Pfad 8660" d="M1815.622,419.616l-.185,6.349a.265.265,0,0,1-.246.278l-.352-.011c-.094-1.579-.1-3.472.022-6.923l.532.015A.264.264,0,0,1,1815.622,419.616Z" transform="translate(-1654.524 -367.128)" fill="#f4f3f2" opacity="0.11"/>
      <path id="Pfad_8661" data-name="Pfad 8661" d="M1732.3,406.241l-.215,7.448a.231.231,0,0,0,.232.227l1.292.037.352.011a.23.23,0,0,0,.245-.213l.215-7.448a.231.231,0,0,0-.232-.227l-.532-.015-.275-.008-.838-.024a.254.254,0,0,0-.117.025h0a.218.218,0,0,0-.128.188Z" transform="translate(-1579.145 -355.02)" fill="#0267a4"/>
      <path id="Pfad_8662" data-name="Pfad 8662" d="M1749.879,406.613l-.215,7.448a.23.23,0,0,1-.245.213l-.352-.011c.054-1.013-.124-6.724.05-7.893l.531.015a.23.23,0,0,1,.232.227Z" transform="translate(-1594.597 -355.331)" fill="#f4f3f2" opacity="0.11"/>
      <path id="Pfad_8663" data-name="Pfad 8663" d="M1699.768,377.854l-.287,9.868a.23.23,0,0,1-.245.213l-1.645-.048a.23.23,0,0,1-.232-.227l.287-9.869a.23.23,0,0,1,.245-.213l1.645.048A.23.23,0,0,1,1699.768,377.854Z" transform="translate(-1547.481 -329.082)" fill="#0267a4"/>
      <path id="Pfad_8664" data-name="Pfad 8664" d="M1715.514,378.183l-.287,9.868a.23.23,0,0,1-.245.213l-.352-.011c.008-.405.021-9.242.121-10.313l.531.015a.23.23,0,0,1,.232.227Z" transform="translate(-1563.227 -329.411)" fill="#f4f3f2" opacity="0.11"/>
      <path id="Pfad_8665" data-name="Pfad 8665" d="M1830.311,497.085a4.966,4.966,0,0,0,2.356.095,2.714,2.714,0,0,0-1.157-.163,3.244,3.244,0,0,0-1.2.069Z" transform="translate(-1668.693 -437.966)" fill="#32323f" opacity="0.23"/>
      <path id="Pfad_8666" data-name="Pfad 8666" d="M1834.138,381.8l-.287,9.868a.23.23,0,0,1-.245.213l-1.645-.048a.23.23,0,0,1-.232-.227l.287-9.868a.23.23,0,0,1,.245-.213l1.645.048A.23.23,0,0,1,1834.138,381.8Z" transform="translate(-1669.986 -332.683)" fill="#0267a4"/>
      <path id="Pfad_8667" data-name="Pfad 8667" d="M1849.884,382.133,1849.6,392a.23.23,0,0,1-.245.213L1849,392.2c.008-.405.021-9.242.121-10.314l.532.015a.23.23,0,0,1,.232.227Z" transform="translate(-1685.732 -333.012)" fill="#f4f3f2" opacity="0.11"/>
      <path id="Pfad_8668" data-name="Pfad 8668" d="M1665.659,391.854l-.238,8.544a.23.23,0,0,1-.245.213l-1.645-.048a.23.23,0,0,1-.232-.227l.238-8.544a.23.23,0,0,1,.245-.213l1.645.048A.23.23,0,0,1,1665.659,391.854Z" transform="translate(-1516.429 -341.845)" fill="#0267a4"/>
      <path id="Pfad_8669" data-name="Pfad 8669" d="M1681.109,392.183l-.238,8.544a.23.23,0,0,1-.245.213l-.352-.011c.017-.471-.113-8.364.072-8.989l.532.015a.23.23,0,0,1,.232.227Z" transform="translate(-1531.879 -342.175)" fill="#f4f3f2" opacity="0.11"/>
      <path id="Pfad_8670" data-name="Pfad 8670" d="M1682.761,352c-.281,0-.789-.424-1.935-1.491-.312-.29-.664-.618-.775-.69-.278.041-1.95.546-2.975.865a.158.158,0,0,1-.16-.04c-.962-.963-2.527-2.5-2.816-2.722-.306.07-1.848.684-3.213,1.257l-.026.009-.1.023a.159.159,0,0,1-.071-.311l.089-.019a34.892,34.892,0,0,1,3.353-1.282c.087,0,.19,0,2.944,2.754,1.087-.339,2.83-.866,3.02-.853.111.01.236.111.951.777a9.657,9.657,0,0,0,1.7,1.4,36.023,36.023,0,0,0,3.348-3.181.159.159,0,1,1,.229.222,32.467,32.467,0,0,1-3.491,3.267.24.24,0,0,1-.072.011Zm0-.318Z" transform="translate(-1523.053 -301.75)" fill="#419671"/>
      <path id="Pfad_8671" data-name="Pfad 8671" d="M1667.822,355.879a.649.649,0,1,1-.473-.786A.649.649,0,0,1,1667.822,355.879Z" transform="translate(-1519.387 -308.564)" fill="#419671"/>
      <path id="Pfad_8672" data-name="Pfad 8672" d="M1670.059,358.279a.41.41,0,1,1-.3-.5A.41.41,0,0,1,1670.059,358.279Z" transform="translate(-1521.856 -311.023)" fill="#fff"/>
      <path id="Pfad_8673" data-name="Pfad 8673" d="M1704.313,342.8a.649.649,0,1,1-.473-.786A.649.649,0,0,1,1704.313,342.8Z" transform="translate(-1552.655 -296.639)" fill="#419671"/>
      <path id="Pfad_8674" data-name="Pfad 8674" d="M1706.548,345.209a.409.409,0,1,1-.3-.5A.41.41,0,0,1,1706.548,345.209Z" transform="translate(-1555.124 -299.107)" fill="#fff"/>
      <path id="Pfad_8675" data-name="Pfad 8675" d="M1737.762,373.819a.649.649,0,1,1-.473-.786A.649.649,0,0,1,1737.762,373.819Z" transform="translate(-1583.151 -324.92)" fill="#419671"/>
      <path id="Pfad_8676" data-name="Pfad 8676" d="M1740,376.23a.409.409,0,1,1-.3-.5A.409.409,0,0,1,1740,376.23Z" transform="translate(-1585.62 -327.388)" fill="#fff"/>
      <path id="Pfad_8677" data-name="Pfad 8677" d="M1771.432,364.889a.649.649,0,1,1-.473-.786A.649.649,0,0,1,1771.432,364.889Z" transform="translate(-1613.849 -316.779)" fill="#419671"/>
      <path id="Pfad_8678" data-name="Pfad 8678" d="M1773.668,367.29a.409.409,0,1,1-.3-.5A.41.41,0,0,1,1773.668,367.29Z" transform="translate(-1616.317 -319.238)" fill="#fff"/>
      <path id="Pfad_8679" data-name="Pfad 8679" d="M1802.772,388.479a.649.649,0,1,1-.473-.786A.649.649,0,0,1,1802.772,388.479Z" transform="translate(-1642.421 -338.286)" fill="#419671"/>
      <path id="Pfad_8680" data-name="Pfad 8680" d="M1805.008,390.879a.409.409,0,1,1-.3-.5A.41.41,0,0,1,1805.008,390.879Z" transform="translate(-1644.89 -340.744)" fill="#fff"/>
      <path id="Pfad_8681" data-name="Pfad 8681" d="M1840.843,353.389a.649.649,0,1,1-.473-.786A.649.649,0,0,1,1840.843,353.389Z" transform="translate(-1677.13 -306.294)" fill="#419671"/>
      <path id="Pfad_8682" data-name="Pfad 8682" d="M1843.079,355.79a.41.41,0,1,1-.3-.5A.41.41,0,0,1,1843.079,355.79Z" transform="translate(-1679.598 -308.753)" fill="#fff"/>
      <path id="Pfad_8683" data-name="Pfad 8683" d="M1888.715,538.187c-2.1,5.095-9.142,15.628-8.035,16.915.617.717,12.388,6.582,12.962,6.185,1.085-.75,8.934-16.4,8.192-17.158s-12.491-7.461-13.117-5.943Z" transform="translate(-1714.508 -475.305)" fill="#e6eff1"/>
      <path id="Pfad_8684" data-name="Pfad 8684" d="M2060.475,615.39a1.363,1.363,0,0,1-.2.283,1.339,1.339,0,1,1,.344-.94h0a1.341,1.341,0,0,1-.149.659Z" transform="translate(-1876.234 -544.115)" fill="#b71a2d"/>
      <path id="Pfad_8685" data-name="Pfad 8685" d="M2062.737,617.744a1.08,1.08,0,0,1-.16.231,1.1,1.1,0,1,1,.282-.773h0a1.1,1.1,0,0,1-.123.54Z" transform="translate(-1878.709 -546.579)" fill="#fff"/>
      <ellipse id="Ellipse_42" data-name="Ellipse 42" cx="0.839" cy="0.837" rx="0.839" ry="0.837" transform="matrix(0.459, -0.888, 0.888, 0.459, 181.918, 71.014)" fill="#b71a2d"/>
      <path id="Pfad_8686" data-name="Pfad 8686" d="M2067.624,622.876a.578.578,0,1,1-.247-.781A.58.58,0,0,1,2067.624,622.876Z" transform="translate(-1884.056 -551.948)" fill="#fff"/>
      <path id="Pfad_8687" data-name="Pfad 8687" d="M2070.249,625.62a.3.3,0,1,1-.129-.406A.3.3,0,0,1,2070.249,625.62Z" transform="translate(-1886.926 -554.82)" fill="#b71a2d"/>
      <path id="Pfad_8688" data-name="Pfad 8688" d="M1979.43,653.452c-.334,0-.777-.014-.8-.015l-.011,0-.463-.239a.025.025,0,0,1,.023-.044l.458.237c.078,0,.933.029,1.119.005a.025.025,0,0,1,.028.022.025.025,0,0,1-.022.028,3.248,3.248,0,0,1-.328.011Z" transform="translate(-1803.468 -580.318)" fill="#586063"/>
      <rect id="Rechteck_1455" data-name="Rechteck 1455" width="0.234" height="0.845" rx="0.117" transform="translate(173.716 72.477) rotate(-62.65)" fill="#3b3b4c" opacity="0.27"/>
      <path id="Pfad_8689" data-name="Pfad 8689" d="M1954.9,640.378l.407.211c.014.007.016.03.005.051l-.068.132c-.011.021-.031.032-.045.025l-.407-.211c-.014-.007-.016-.03-.005-.051l.068-.132C1954.868,640.381,1954.888,640.371,1954.9,640.378Z" transform="translate(-1782.174 -568.673)" fill="#3b3b4c" opacity="0.27"/>
      <rect id="Rechteck_1456" data-name="Rechteck 1456" width="0.234" height="0.484" rx="0.117" transform="translate(173.141 72.177) rotate(-62.65)" fill="#3b3b4c" opacity="0.27"/>
      <path id="Pfad_8690" data-name="Pfad 8690" d="M2033.141,634.528h-.005a.025.025,0,0,1-.019-.03c0-.006.129-.608.167-.84l-.25-.15a.025.025,0,0,1,.026-.043l.264.159a.025.025,0,0,1,.011.026c-.035.219-.17.852-.171.858a.025.025,0,0,1-.025.019Z" transform="translate(-1853.505 -562.37)" fill="#586063"/>
      <rect id="Rechteck_1457" data-name="Rechteck 1457" width="0.195" height="0.403" rx="0.098" transform="translate(179.722 72.306) rotate(-62.65)" fill="#3b3b4c" opacity="0.27"/>
      <rect id="Rechteck_1458" data-name="Rechteck 1458" width="0.195" height="0.704" rx="0.098" transform="translate(180.194 72.539) rotate(-62.65)" fill="#3b3b4c" opacity="0.27"/>
      <rect id="Rechteck_1459" data-name="Rechteck 1459" width="0.195" height="0.649" rx="0.098" transform="translate(181.06 72.987) rotate(-62.65)" fill="#3b3b4c" opacity="0.27"/>
      <path id="Pfad_8691" data-name="Pfad 8691" d="M1957.025,686.569a.026.026,0,0,1-.025-.022l-.091-.779-.508-.263a.025.025,0,1,1,.023-.044l.52.269a.024.024,0,0,1,.013.019l.093.792a.024.024,0,0,1-.022.027h0Z" transform="translate(-1783.638 -609.775)" fill="#586063"/>
      <rect id="Rechteck_1460" data-name="Rechteck 1460" width="0.188" height="0.678" rx="0.094" transform="translate(170.75 74.765) rotate(-62.65)" fill="#3b3b4c" opacity="0.27"/>
      <rect id="Rechteck_1461" data-name="Rechteck 1461" width="0.188" height="0.625" rx="0.094" transform="translate(171.567 75.188) rotate(-62.65)" fill="#3b3b4c" opacity="0.27"/>
      <rect id="Rechteck_1462" data-name="Rechteck 1462" width="0.188" height="0.389" rx="0.094" transform="translate(172.18 75.502) rotate(-62.65)" fill="#3b3b4c" opacity="0.27"/>
      <path id="Pfad_8692" data-name="Pfad 8692" d="M1991.462,708.644a.024.024,0,0,1-.012,0l-.272-.14a.025.025,0,0,1-.011-.033c0-.007.322-.681.5-1.034a.025.025,0,0,1,.045.022c-.157.317-.431.892-.487,1.011l.251.13a.025.025,0,0,1,.011.034A.024.024,0,0,1,1991.462,708.644Z" transform="translate(-1815.344 -629.798)" fill="#586063"/>
      <rect id="Rechteck_1463" data-name="Rechteck 1463" width="0.204" height="0.736" rx="0.102" transform="translate(177.263 79.512) rotate(-62.65)" fill="#3b3b4c" opacity="0.27"/>
      <path id="Pfad_8693" data-name="Pfad 8693" d="M1996.693,721.211l.355.184c.013.006.014.026,0,.044l-.059.115c-.01.019-.026.028-.039.022l-.355-.184c-.013-.006-.014-.026,0-.044l.059-.115C1996.664,721.214,1996.681,721.2,1996.693,721.211Z" transform="translate(-1820.289 -642.369)" fill="#3b3b4c" opacity="0.27"/>
      <rect id="Rechteck_1464" data-name="Rechteck 1464" width="0.204" height="0.421" rx="0.102" transform="translate(176.764 79.253) rotate(-62.65)" fill="#3b3b4c" opacity="0.27"/>
      <path id="Pfad_8694" data-name="Pfad 8694" d="M1923.373,705.488a.977.977,0,1,1,.87-.528h0A.979.979,0,0,1,1923.373,705.488Zm0-1.661a.683.683,0,1,0,.606,1h0a.682.682,0,0,0-.606-1Zm.736,1.065Z" transform="translate(-1752.648 -626.254)" fill="#0069a8"/>
      <path id="Pfad_8695" data-name="Pfad 8695" d="M1948.427,617.8a3.083,3.083,0,0,1-1.6-.478.147.147,0,0,1,.163-.245,2.61,2.61,0,0,0,1.871.377,1.016,1.016,0,0,0,.681-.524c.215-.417-.009-.925-.246-1.462-.276-.624-.588-1.332-.128-1.938.513-.676,1.482-.451,2.418-.234.815.189,1.585.367,1.928-.064.554-.7.026-1.5-.534-2.358-.526-.8-1.071-1.634-.692-2.42a2.031,2.031,0,0,1,1.2-1.176c.683-.208,1.554.03,2.822.773a.147.147,0,1,1-.148.254c-1.191-.7-1.989-.927-2.587-.745a1.756,1.756,0,0,0-1.016,1.022c-.307.637.169,1.362.672,2.132.593.9,1.205,1.839.518,2.7-.459.577-1.357.368-2.225.168-.845-.2-1.719-.4-2.117.125-.355.468-.1,1.038.162,1.642a2,2,0,0,1,.238,1.717,1.3,1.3,0,0,1-.869.674A2.025,2.025,0,0,1,1948.427,617.8Z" transform="translate(-1774.859 -538.429)" fill="#0069a8"/>
      <path id="Pfad_8696" data-name="Pfad 8696" d="M1958.8,696.65a11.536,11.536,0,0,0,.493,1.332" transform="translate(-1785.837 -619.979)" fill="none" stroke="#3b3b4d" stroke-linecap="round" stroke-linejoin="round" stroke-width="3.41"/>
      <path id="Pfad_8697" data-name="Pfad 8697" d="M1955.083,702.576a2.09,2.09,0,0,0-1.413.23" transform="translate(-1781.16 -625.327)" fill="none" stroke="#3b3b4d" stroke-linecap="round" stroke-linejoin="round" stroke-width="3.41"/>
      <path id="Pfad_8698" data-name="Pfad 8698" d="M1996.815,587.84a.026.026,0,0,1-.025-.022l-.091-.779-.508-.263a.025.025,0,0,1-.011-.034.025.025,0,0,1,.034-.01l.52.269a.025.025,0,0,1,.013.019l.093.792a.024.024,0,0,1-.022.027h0Z" transform="translate(-1819.915 -519.763)" fill="#586063"/>
      <rect id="Rechteck_1465" data-name="Rechteck 1465" width="0.188" height="0.678" rx="0.094" transform="translate(174.264 66.048) rotate(-62.65)" fill="#3b3b4c" opacity="0.27"/>
      <rect id="Rechteck_1466" data-name="Rechteck 1466" width="0.188" height="0.625" rx="0.094" transform="translate(175.081 66.47) rotate(-62.65)" fill="#3b3b4c" opacity="0.27"/>
      <rect id="Rechteck_1467" data-name="Rechteck 1467" width="0.188" height="0.389" rx="0.094" transform="translate(175.697 66.789) rotate(-62.65)" fill="#3b3b4c" opacity="0.27"/>
      <path id="Pfad_8699" data-name="Pfad 8699" d="M1998.58,597.91a11.56,11.56,0,0,0,.493,1.332" transform="translate(-1822.104 -529.958)" fill="none" stroke="#3b3b4d" stroke-linecap="round" stroke-linejoin="round" stroke-width="3.41"/>
      <path id="Pfad_8700" data-name="Pfad 8700" d="M1994.863,603.836a2.089,2.089,0,0,0-1.413.23" transform="translate(-1817.427 -535.306)" fill="none" stroke="#3b3b4d" stroke-linecap="round" stroke-linejoin="round" stroke-width="3.41"/>
      <path id="Pfad_8701" data-name="Pfad 8701" d="M1994.75,686.76a14.881,14.881,0,0,0,.637,1.724" transform="translate(-1818.612 -610.962)" fill="none" stroke="#3b3b4d" stroke-linecap="round" stroke-linejoin="round" stroke-width="3.41"/>
      <path id="Pfad_8702" data-name="Pfad 8702" d="M1989.938,694.433a2.7,2.7,0,0,0-1.828.3" transform="translate(-1812.559 -617.887)" fill="none" stroke="#3b3b4d" stroke-linecap="round" stroke-linejoin="round" stroke-width="3.41"/>
      <path id="Pfad_8703" data-name="Pfad 8703" d="M2000.62,649.98a14.889,14.889,0,0,0,.638,1.724" transform="translate(-1823.964 -577.43)" fill="none" stroke="#3b3b4d" stroke-linecap="round" stroke-linejoin="round" stroke-width="3.41"/>
      <path id="Pfad_8704" data-name="Pfad 8704" d="M1995.808,657.643a2.7,2.7,0,0,0-1.828.3" transform="translate(-1817.911 -584.346)" fill="none" stroke="#3b3b4d" stroke-linecap="round" stroke-linejoin="round" stroke-width="3.41"/>
      <path id="Pfad_8705" data-name="Pfad 8705" d="M2023.49,620.82a12.851,12.851,0,0,0,.55,1.489" transform="translate(-1844.815 -550.844)" fill="none" stroke="#3b3b4d" stroke-linecap="round" stroke-linejoin="round" stroke-width="3.18"/>
      <path id="Pfad_8706" data-name="Pfad 8706" d="M2019.339,627.442a2.332,2.332,0,0,0-1.579.258" transform="translate(-1839.59 -556.821)" fill="none" stroke="#3b3b4d" stroke-linecap="round" stroke-linejoin="round" stroke-width="3.18"/>
      <path id="Pfad_8707" data-name="Pfad 8707" d="M2046.88,687.58h-.005a.023.023,0,0,1-.018-.028c0-.006.122-.57.157-.788l-.234-.141a.023.023,0,0,1-.008-.033.023.023,0,0,1,.032-.008l.247.149a.022.022,0,0,1,.01.024c-.032.2-.159.8-.16.805a.024.024,0,0,1-.023.019Z" transform="translate(-1866.038 -610.797)" fill="#586063"/>
      <rect id="Rechteck_1468" data-name="Rechteck 1468" width="0.183" height="0.378" rx="0.091" transform="translate(180.92 76.92) rotate(-62.65)" fill="#3b3b4c" opacity="0.27"/>
      <rect id="Rechteck_1469" data-name="Rechteck 1469" width="0.183" height="0.66" rx="0.091" transform="translate(181.364 77.141) rotate(-62.65)" fill="#3b3b4c" opacity="0.27"/>
      <rect id="Rechteck_1470" data-name="Rechteck 1470" width="0.183" height="0.608" rx="0.091" transform="translate(182.178 77.561) rotate(-62.65)" fill="#3b3b4c" opacity="0.27"/>
      <path id="Pfad_8708" data-name="Pfad 8708" d="M2037.82,674.73a12.1,12.1,0,0,0,.517,1.4" transform="translate(-1857.879 -599.994)" fill="none" stroke="#3b3b4d" stroke-linecap="round" stroke-linejoin="round" stroke-width="2.99"/>
      <path id="Pfad_8709" data-name="Pfad 8709" d="M2033.931,680.943a2.181,2.181,0,0,0-1.481.242" transform="translate(-1852.984 -605.602)" fill="none" stroke="#3b3b4d" stroke-linecap="round" stroke-linejoin="round" stroke-width="2.99"/>
      <path id="Pfad_8710" data-name="Pfad 8710" d="M2047.929,611.911a.147.147,0,0,1-.034-.29l.47-.114c-.074-.185-.159-.392-.187-.448a.147.147,0,0,1,.261-.134c.057.11.241.579.262.632a.147.147,0,0,1-.007.122.145.145,0,0,1-.1.075l-.634.154a.147.147,0,0,1-.034,0Z" transform="translate(-1866.961 -541.751)" fill="#0069a8"/>
      <path id="Pfad_8711" data-name="Pfad 8711" d="M2015.742,546.346c-.353.532-.661,1.549,2.608,3.151s4.1.815,4.282.4c.265-.626-1.814-1.177-1.549-1.508.824-1.029-1.55-1.478-2.47-1.966s-.684.52-1.28.256S2016.037,545.9,2015.742,546.346Z" transform="translate(-1837.559 -482.786)" fill="#4a4963"/>
    </g>
  </g>
</svg>
