<svg xmlns="http://www.w3.org/2000/svg" xmlns:xlink="http://www.w3.org/1999/xlink" width="352" height="271" viewBox="0 0 352 271">
  <defs>
    <clipPath id="clip-path">
      <rect id="Rechteck_1176" data-name="Rechteck 1176" width="352" height="271" transform="translate(504 3071)" fill="#fff" stroke="#707070" stroke-width="1"/>
    </clipPath>
    <clipPath id="clip-img-technical-requirements">
      <rect width="352" height="271"/>
    </clipPath>
  </defs>
  <g id="img-technical-requirements" clip-path="url(#clip-img-technical-requirements)">
    <g id="img-technical-requirements-2" data-name="img-technical-requirements" transform="translate(-504 -3071)" clip-path="url(#clip-path)">
      <g id="Gruppe_1855" data-name="Gruppe 1855" transform="translate(446.555 3034.514)">
        <g id="laptop" transform="translate(190.765 161.298)">
          <path id="Pfad_1680" data-name="Pfad 1680" d="M249.493,177H128V96H249.493Z" transform="translate(-87.502 -75.751)" fill="#00628f"/>
          <path id="Pfad_1681" data-name="Pfad 1681" d="M197.426,133.084H5.062A5.1,5.1,0,0,0,0,138.146v5.062a20.288,20.288,0,0,0,20.249,20.249H182.239a20.288,20.288,0,0,0,20.249-20.249v-5.062A5.272,5.272,0,0,0,197.426,133.084ZM40.5,52.249H161.991v81h20.249V47.187A15.239,15.239,0,0,0,167.053,32H35.435A15.239,15.239,0,0,0,20.249,47.187v86.058H40.5Z" transform="translate(0 -32)" fill="#a5cee0"/>
        </g>
        <g id="Gruppe_1849" data-name="Gruppe 1849" transform="translate(151.467 -10.989) rotate(42)">
          <g id="gears" transform="translate(0 109.733) rotate(-18)">
            <path id="Pfad_1470" data-name="Pfad 1470" d="M70.571,23.213a5.123,5.123,0,0,1-1.407,5.673l-5.037,4.493a29.18,29.18,0,0,1,.386,4.538,30.4,30.4,0,0,1-.386,4.947l5.037,4.493a4.963,4.963,0,0,1,1.407,5.673c-.522,1-1.089,2.383-1.725,3.517l-.7,1.225c-.885,1.135-1.43,2.224-2.224,3.29a4.973,4.973,0,0,1-5.6,1.611l-6.422-2.11a28.517,28.517,0,0,1-8.214,4.765l-1.566,6.58A4.626,4.626,0,0,1,40.1,75.971a39.48,39.48,0,0,1-9.258,0,4.841,4.841,0,0,1-4.221-4.062l-1.566-6.58a30.653,30.653,0,0,1-8.021-4.765l-6.4,2.11a4.978,4.978,0,0,1-5.607-1.611c-.8-1.066-1.552-2.178-2.242-3.313l-.685-1.2A37.539,37.539,0,0,1,.37,53.03a4.94,4.94,0,0,1,1.406-5.673l5.033-4.493a29.083,29.083,0,0,1-.59-4.947,29.8,29.8,0,0,1,.59-4.538L1.776,28.886A5.1,5.1,0,0,1,.37,23.213a23.249,23.249,0,0,1,1.721-3.526l.69-1.191a37.737,37.737,0,0,1,2.24-3.317,5.009,5.009,0,0,1,5.607-1.611l6.4,2.11a30.853,30.853,0,0,1,8.021-4.752l1.566-6.6A4.819,4.819,0,0,1,30.839.279a38.511,38.511,0,0,1,9.258,0,4.606,4.606,0,0,1,4.016,4.05l1.566,6.6a28.687,28.687,0,0,1,8.214,4.752l6.422-2.11a5,5,0,0,1,5.6,1.611c.794,1.06,1.339,2.162,2.224,3.3l.7,1.223a38.995,38.995,0,0,1,1.725,3.51Zm-35.1,25.6A10.766,10.766,0,0,0,46.36,37.917a10.892,10.892,0,1,0-21.784,0A10.766,10.766,0,0,0,35.468,48.809Z" transform="translate(0 0)" fill="#a5cee0"/>
            <path id="Pfad_1471" data-name="Pfad 1471" d="M53.03,70.574a4.963,4.963,0,0,1-5.673-1.407l-4.493-5.037a29.347,29.347,0,0,1-9.485,0l-4.493,5.037a5.123,5.123,0,0,1-5.673,1.407A38.836,38.836,0,0,1,19.7,68.849l-1.225-.7c-1.135-.885-2.224-1.43-3.29-2.224a4.973,4.973,0,0,1-1.611-5.6L15.68,53.9a28.517,28.517,0,0,1-4.765-8.214l-6.58-1.566A4.626,4.626,0,0,1,.272,40.1a39.483,39.483,0,0,1,0-9.258A4.841,4.841,0,0,1,4.334,26.62l6.581-1.566a30.409,30.409,0,0,1,4.765-8.01l-2.11-6.422a4.973,4.973,0,0,1,1.611-5.6,18.961,18.961,0,0,1,3.313-2.246l1.2-.681A23.079,23.079,0,0,1,23.213.367a5.123,5.123,0,0,1,5.673,1.407l4.493,5.037a29.345,29.345,0,0,1,9.485,0l4.493-5.037A4.963,4.963,0,0,1,53.03.367a38.83,38.83,0,0,1,3.517,1.725l1.2.681a18.96,18.96,0,0,1,3.313,2.246,4.973,4.973,0,0,1,1.611,5.6l-2.11,6.422a30.408,30.408,0,0,1,4.765,8.01l6.58,1.566a4.841,4.841,0,0,1,4.062,4.221,39.489,39.489,0,0,1,0,9.258,4.626,4.626,0,0,1-4.062,4.016l-6.58,1.566A28.516,28.516,0,0,1,60.563,53.9l2.11,6.422a4.973,4.973,0,0,1-1.611,5.6c-1.066.794-2.156,1.339-3.29,2.224l-1.225.7c-1.135.635-2.519,1.2-3.517,1.725Zm-25.8-35.1A10.892,10.892,0,1,0,38.121,24.578,10.895,10.895,0,0,0,27.23,35.47Z" transform="translate(66.328 42.588)" fill="#e5af21"/>
          </g>
          <g id="gear" transform="translate(44.004 0)">
            <path id="Pfad_1684" data-name="Pfad 1684" d="M103.4,35.8a4.877,4.877,0,0,1-1.354,5.286l-9.3,8.466a40.941,40.941,0,0,1,.365,5.264,42.34,42.34,0,0,1-.365,5.651l9.3,8.466a4.868,4.868,0,0,1,1.354,5.286,54.548,54.548,0,0,1-3.373,7.37l-1.01,1.74a56.615,56.615,0,0,1-4.749,6.726A4.915,4.915,0,0,1,89,91.514L77.032,87.69a47.012,47.012,0,0,1-9.454,5.479l-2.686,12.269a5.151,5.151,0,0,1-3.911,3.825,56.147,56.147,0,0,1-9.325.752,54.955,54.955,0,0,1-8.939-.752,5.151,5.151,0,0,1-3.911-3.825L36.12,93.169a42.231,42.231,0,0,1-9.454-5.479l-11.96,3.825a4.906,4.906,0,0,1-5.267-1.461,56.383,56.383,0,0,1-4.751-6.726l-1.006-1.74a53.592,53.592,0,0,1-3.391-7.37,4.882,4.882,0,0,1,1.364-5.286l9.3-8.466a41.685,41.685,0,0,1,0-10.916l-9.3-8.466A4.872,4.872,0,0,1,.292,35.8a53.848,53.848,0,0,1,3.391-7.37l1-1.74a55.425,55.425,0,0,1,4.753-6.715,4.88,4.88,0,0,1,5.267-1.463l11.96,3.816a41.323,41.323,0,0,1,9.454-5.473L38.806,4.583A4.875,4.875,0,0,1,42.716.754,54.744,54.744,0,0,1,51.655,0a55.936,55.936,0,0,1,9.325.754,4.875,4.875,0,0,1,3.911,3.829l2.686,12.269a45.883,45.883,0,0,1,9.454,5.473L89,18.509a4.89,4.89,0,0,1,5.264,1.463,55.631,55.631,0,0,1,4.749,6.715l1.01,1.74A54.547,54.547,0,0,1,103.4,35.8ZM51.848,72.2a17.287,17.287,0,1,0-17.19-17.383A17.228,17.228,0,0,0,51.848,72.2Z" transform="translate(0)" fill="#00628f"/>
            <path id="Pfad_1685" data-name="Pfad 1685" d="M20.628,10.314A10.314,10.314,0,1,1,10.314,0,10.317,10.317,0,0,1,20.628,10.314Z" transform="translate(41.535 44.694)" fill="#33b7c3"/>
          </g>
        </g>
        <g id="Gruppe_1853" data-name="Gruppe 1853" transform="translate(342.879 200.748)">
          <rect id="Rechteck_1175" data-name="Rechteck 1175" width="31.664" height="15.832" transform="translate(17.271 85.25)" fill="#e5af21"/>
          <g id="mobile" transform="translate(0)">
            <path id="Pfad_1686" data-name="Pfad 1686" d="M98.566,9.985V79.879H32V9.985A9.987,9.987,0,0,1,41.985,0h46.6A9.987,9.987,0,0,1,98.566,9.985Z" transform="translate(-32)" fill="#59c5ce"/>
            <path id="Pfad_1687" data-name="Pfad 1687" d="M32,384v16.642a9.987,9.987,0,0,0,9.985,9.985h46.6a9.987,9.987,0,0,0,9.985-9.985V384Zm43.268,13.126a3.383,3.383,0,0,1-3.328,3.516h-13.5a3.331,3.331,0,0,1,.187-6.657H71.94A3.305,3.305,0,0,1,75.268,397.126Z" transform="translate(-32 -304.121)" fill="#ccedf0"/>
          </g>
        </g>
      </g>
    </g>
  </g>
</svg>
