<svg id="img-datenschutz-to" xmlns="http://www.w3.org/2000/svg" xmlns:xlink="http://www.w3.org/1999/xlink" width="444" height="235.549" viewBox="0 0 444 235.549">
  <defs>
    <radialGradient id="radial-gradient" cx="0.457" cy="0.461" fx="0.2887721657752991" fy="0.152608722448349" r="0.706" gradientTransform="matrix(0.533, -0.299, 0.167, 0.954, -0.572, 0.348)" gradientUnits="objectBoundingBox">
      <stop offset="0.15" stop-color="#e43625"/>
      <stop offset="0.23" stop-color="#e12d22"/>
      <stop offset="0.35" stop-color="#d9151c"/>
      <stop offset="0.41" stop-color="#d50819"/>
      <stop offset="0.86" stop-color="#b10a18"/>
    </radialGradient>
  </defs>
  <path id="Pfad_8056" data-name="Pfad 8056" d="M2311.181,701.361c.445-1.187-4.622.185-8.283-1.9-1.982-1.128-5.052-3.88-6.023-3.722-1.209.2-.967,2.016-.724,2.6s-2.746-.526-3.885.1c-1.633.9-2.284,5.285-.88,6.4,1.246.992,3.7,1.185,5.959,1.377s5.875-1.6,9.673,1.674c.739.636,4.006-6.124,4.162-6.537Z" transform="translate(-2212.613 -590.826)" fill="#eeada5"/>
  <g id="Gruppe_2528" data-name="Gruppe 2528" transform="translate(70.347 28.209)">
    <path id="Pfad_8057" data-name="Pfad 8057" d="M2380.476,206.622c.271,2.677,6.49,37.432,8.956,51.16.29,1.622.532,2.952.7,3.9.188,1.043.293,1.626.293,1.626l4.729-1.042s-.048-1.9-.133-5c-.351-13.375-1.321-49.185-1.66-52.234-.391-3.527-5.8-18.173-8.033-17.947-1.709.173-3.845,9.577-4.6,15.476-.056.452-.107.881-.146,1.288-.012.1-.021.2-.028.3-.04.409-.068.789-.085,1.132,0,.066-.006.13-.007.193-.006.089-.008.172-.008.255,0,.063,0,.127,0,.187v.2c0,.124,0,.241.011.345,0,.06.009.115.015.166Z" transform="translate(-2380.449 -187.081)" fill="#e5af21"/>
    <path id="Pfad_8058" data-name="Pfad 8058" d="M2393.365,199.053a.384.384,0,0,1,.175-.1c.641-.065,1.657,1.938,6.588,6.28-.377-3.4-5.415-17.128-7.778-17.912Z" transform="translate(-2387.218 -187.282)" fill="#fff" opacity="0.22"/>
    <path id="Pfad_8059" data-name="Pfad 8059" d="M2437.216,206.611c1.02-.707,5.068-6.906,6.121-7.77l-1.015-11.733a.564.564,0,0,0-.255-.035c-2.233.228-5.19,16.2-4.851,19.538Z" transform="translate(-2437.189 -187.071)" fill="#1f1f39" opacity="0.14"/>
    <path id="Pfad_8060" data-name="Pfad 8060" d="M2477.89,313.615c-.006-.1-.01-.219-.01-.345C2477.88,313.394,2477.884,313.511,2477.89,313.615Z" transform="translate(-2477.878 -294.24)" fill="#1f1f39"/>
    <path id="Pfad_8061" data-name="Pfad 8061" d="M2399.948,326.83a1.8,1.8,0,0,0,.659,1.377l7.188-.255,2.355-.083-.37-3.948-5.52-58.8c-1.053.864-5.1,7.065-6.121,7.77.271,2.677,6.49,37.432,8.956,51.16a21.536,21.536,0,0,1-3.411-.217c-2.508-.419-.913-1.923-3.458-1.458-1.45.265-.318,3.51-.281,4.454Z" transform="translate(-2398.114 -253.351)" fill="#1f1f39" opacity="0.09"/>
    <path id="Pfad_8062" data-name="Pfad 8062" d="M2328.026,636.409a1.8,1.8,0,0,0,.659,1.377c1.894,1.589,7.215.415,7.268,1.392.108,1.983.692,8.968.963,10.558s-1.529,1.778-2.411,2.864a.518.518,0,0,0-.128.281c-.077.867,3.239,1.141,5.318.875,3.322-.428,5.138-1.264,5.212-1.9s-2.309-1.013-2.573-1.983c-.368-1.348-.932-10.251-.95-11.5-.009-.858,3.139-.244,5.79-1.647,1.185-.63,2.849-7.042.532-7.057h-.043c-1.591.018-.729,1.677-2.588,2.322a28.954,28.954,0,0,1-4.312,1.119c-1,.182-1.981.306-2.9.386-.96.086-1.865.127-2.684.13a21.54,21.54,0,0,1-3.411-.217c-2.508-.419-.912-1.923-3.458-1.458-1.45.265-.318,3.51-.281,4.454Z" transform="translate(-2326.193 -562.93)" fill="#307ea2"/>
    <path id="Pfad_8063" data-name="Pfad 8063" d="M2332.888,653.764c3.322-.428,5.138-1.264,5.212-1.9s-2.309-1.013-2.573-1.983c-.368-1.348-.932-10.251-.95-11.5-.009-.858,3.139-.244,5.79-1.647,1.185-.63,2.849-7.042.532-7.057a.4.4,0,0,0-.043,0c-.3,2.69-2.346,6.737-6.727,7.318-1.942.255,1.618,12.868.219,14.248-1.362,1.345-3.148,3.47-6.776,1.642-.077.867,3.239,1.141,5.318.875Z" transform="translate(-2319.385 -562.939)" fill="#fff" opacity="0.22"/>
  </g>
  <path id="Pfad_8064" data-name="Pfad 8064" d="M2385.66,713.388a10.675,10.675,0,0,1,3.218-.14,1.556,1.556,0,0,1,1.61,1.481c.124,1.506-.152,5.092-.912,5.572a5.182,5.182,0,0,1-3.836-.163c-.734-.5-.078-6.751-.078-6.751Z" transform="translate(-2306.211 -605.648)" fill="#eeada5"/>
  <path id="Pfad_8065" data-name="Pfad 8065" d="M2377.231,697.947a6.172,6.172,0,0,0-3.376-1.672c-.892-.244-1.839-1.077-.892-1.963a2.429,2.429,0,0,1,2.641-.134,10.689,10.689,0,0,1,1.639.92Z" transform="translate(-2291.004 -589.215)" fill="#eeada5"/>
  <path id="Pfad_8066" data-name="Pfad 8066" d="M1128.492,1134.893c-10.709.694-25.859,1.754-20.191,12.336,4.531,8.459,47.472,24.228,63.988,24.035,18.323-.214,127.692-11.052,114.083-17.311s-80.261-22.973-80.261-22.973Z" transform="translate(-1010.477 -960.438)" fill="#424242" opacity="0.16"/>
  <path id="Pfad_8067" data-name="Pfad 8067" d="M1170.217,652.161c-2.381.833-5.014-.846-4.5,10.415s5.937,72.654,8.762,74.818c4.65,3.562,48.7,20.048,54.909,20.753,7.718.876,104.656-9.142,106.006-9.737,1.948-.857,3.4-5.543.211-6.454s-71.294-14.583-71.294-14.583l-94.095-75.214Z" transform="translate(-1069.244 -553.82)" fill="#5c5c5c"/>
  <path id="Pfad_8068" data-name="Pfad 8068" d="M1337.608,709.348l-103.756,8.9a6.11,6.11,0,0,1-2.974-.25c-6.706-2.3-16.551-5.181-50.881-18.906-1.345-.538-1.8-3.794-1.874-5.308l-7.267-74.745a3.258,3.258,0,0,1,3.1-3.4l99.14-6.137a2.929,2.929,0,0,1,3.063,2.729c.511,7.528,3.869,46.335,6.74,74.985,0,0,48.09,16.224,55.2,18.5l.042.012.118.036a1.933,1.933,0,0,1-.653,3.583Z" transform="translate(-1071.782 -517.59)" fill="#a8a8a8"/>
  <path id="Pfad_8069" data-name="Pfad 8069" d="M1674.34,705.955l-96.523,8.521-6.657-74.023,96.79-5.593Z" transform="translate(-1467.256 -539.129)" fill="#a5cee0"/>
  <path id="Pfad_8070" data-name="Pfad 8070" d="M1389.635,1155.075c6.218,2.762,30.707,11.085,36.689,11.1,7.214.018,77.74-6.139,80.772-7.985s-32.88-10-32.88-10l-84.581,6.886Z" transform="translate(-1272.822 -975.053)" fill="#424242"/>
  <path id="Pfad_8071" data-name="Pfad 8071" d="M1410.995,1247.907c-.392.947,12.891,6.609,16.582,6.184,4.488-.517,36.591-3.26,37.346-3.827s-17.192-6.043-17.192-6.043-36.347,2.74-36.739,3.688Z" transform="translate(-1233.71 -1056.603)" fill="#424242"/>
  <g id="Gruppe_2530" data-name="Gruppe 2530" transform="translate(52.483 191.893)">
    <path id="Pfad_8072" data-name="Pfad 8072" d="M2062.532,1284.3c-3.664-.751-7-2.363-6.866-.994s1.973,3.263,4.256,4.009,72.325,19.393,73.269,19.164,3.056-1.882,1.338-3.307-72-18.873-72-18.873Z" transform="translate(-2053.639 -1281.236)" fill="#32323f" opacity="0.16"/>
    <g id="Gruppe_2529" data-name="Gruppe 2529">
      <path id="Pfad_8073" data-name="Pfad 8073" d="M2060.255,1394.951l-3.375-.9-3.164-.845.225-.84.991-3.717,3.164.844,3.375.9a2.1,2.1,0,0,1,1.487,2.569l-.133.5a2.1,2.1,0,0,1-2.569,1.488Z" transform="translate(-1981.192 -1371.148)" fill="#f7e7bc"/>
      <path id="Pfad_8074" data-name="Pfad 8074" d="M2160,1295.484l-3.163-.845-65.635-17.5-1.018-.64-3.335-2.1a.875.875,0,0,1,.431-1.616l5.137-.205,65.635,17.5,3.163.844-.989,3.711Z" transform="translate(-2084.316 -1272.58)" fill="#e5af21"/>
      <path id="Pfad_8075" data-name="Pfad 8075" d="M2545.915,1277.137l-5.89-3.406a.605.605,0,0,1,.3-1.129l6.8-.021.082.021c.033.813.474.912.339,1.273-.17.46-1.259.373-1.4.886s.468.422.332.933-.453.427-.537.74S2546.11,1276.428,2545.915,1277.137Z" transform="translate(-2539.025 -1272.58)" fill="#f5b1b4"/>
      <path id="Pfad_8076" data-name="Pfad 8076" d="M2579.791,1274.563l-2.1-1.217a.347.347,0,0,1,.173-.648l2.425-.008a.067.067,0,0,1,.066.057c.1.583-.4.588-.458.956a4.512,4.512,0,0,0,0,.8.067.067,0,0,1-.1.062Z" transform="translate(-2577.513 -1272.673)" fill="#1f1e39"/>
    </g>
  </g>
  <path id="Pfad_8077" data-name="Pfad 8077" d="M1985.292,142.118c2.492,0,7.613,4.708.294,5.462s-18.282.407-22.717.424c-7.241.026-9.037-.29-8.979-3.441.033-1.823.958-3,4.775-3.483,3.97-.5,1.942-5.2,6.789-5.057,4.129.122,4.549,6.277,8.327,4.77s2.987,2.6,5.75,3.357C1982.567,144.977,1982.8,142.118,1985.292,142.118Z" transform="translate(-1839.996 -115.508)" fill="#e6eff1" opacity="0.75"/>
  <path id="Pfad_8078" data-name="Pfad 8078" d="M832.806,731.489a39.77,39.77,0,0,0,13.212-1.249,3.011,3.011,0,0,0,1.853-1.058,3.21,3.21,0,0,0-.264-3.56,3.177,3.177,0,0,0-2.921-1.066,4.287,4.287,0,0,1-1.995.074c-.805-.293-1.338-1.217-1.877-2.022s-1.27-1.6-2.1-1.475c-.623.095-1.114.683-1.669,1.052a1.1,1.1,0,0,1-1.678-.271c-.68-1.455.274-5.444-3.23-5.444-5.059,0-4.233,4.016-4.842,4.867-.923,1.291-2.566,1.007-3.9.57s-2.93-.852-3.961.3c-.894,1-.986,2.838-1.938,3.753-1.012.974-2.45.454-3.678.017s-2.808-.6-3.521.731a3.231,3.231,0,0,0,.7,3.55,4.675,4.675,0,0,0,3.035,1.1c6.929.528,13.22-.292,18.778.131Z" transform="translate(-526.438 -608.433)" fill="#e6eff1"/>
  <g id="Gruppe_2538" data-name="Gruppe 2538" transform="translate(89.404 32.902)">
    <g id="Gruppe_2534" data-name="Gruppe 2534" transform="translate(42.297 19.885)">
      <g id="Gruppe_2531" data-name="Gruppe 2531">
        <path id="Pfad_8079" data-name="Pfad 8079" d="M1956.841,354.978c-.623-1.751-2.378-4.492-4.629-4.872-1.742-.294-.238,1.494-.884,1.362-1.08-.223-8.58-.644-6.222.676,2.162,1.209-1.509,1.033-4.417,3.215s-5.415,7.081-3.4,5.854,4.424-3.554,5.365-3.176-1.038,2.42.261,1.788,6.68-4.709,6.387-3.5-.706,2.764.581,1.613,3.052-2.975,4.542-1.983,2.423-.983,2.423-.983Z" transform="translate(-1936.56 -350.073)" fill="url(#radial-gradient)"/>
        <path id="Pfad_8080" data-name="Pfad 8080" d="M1934.922,377.59c-.568-1.28-1.173-1.03-2.083-.353s-1.861,1.353-1.579,1.713.392.933.97.808a14.883,14.883,0,0,0,2.692-2.17Z" transform="translate(-1913.831 -372.667)" fill="#272735"/>
      </g>
      <path id="Pfad_8081" data-name="Pfad 8081" d="M1877.967,438.483l-.08.514s.022,1.137.181,2.556c.071.636.167,1.327.3,2,.067.336.152,1.395.306,2.71.294,2.485.834,5.882,1.96,7.052,1.292,1.339-3.268,3.3-3.268,3.3l-7.171-5.151a15.19,15.19,0,0,1,.288-5.213c.348-1.811.946-4.175,1.3-5.338a12.069,12.069,0,0,1,.532-1.4c.222-.492.466-.964.718-1.4a20.9,20.9,0,0,1,1.82-2.687l3.112,3.052Z" transform="translate(-1850.558 -422.559)" fill="#efaea6"/>
      <path id="Pfad_8082" data-name="Pfad 8082" d="M1889.987,458.506c.071.636.167,1.327.3,2,.066.336.152,1.395.306,2.71-4.267-.961-6.755-4.86-5.754-7.672.32-.9,3.321,2.479,3.321,2.479l1.824.481Z" transform="translate(-1862.479 -439.512)" fill="#1f1f39" opacity="0.14"/>
      <g id="Gruppe_2532" data-name="Gruppe 2532" transform="translate(16.952 4.005)">
        <path id="Pfad_8083" data-name="Pfad 8083" d="M1862.225,417.042c-1.619.3,1.423,4.857-.286,5.237a13.184,13.184,0,0,1-4.853.071,13.036,13.036,0,0,1-3.651-1.111,4.144,4.144,0,0,1-1.9-1.57,8.969,8.969,0,0,1-.505-1.356c-.145-.484-.282-1.021-.41-1.571-.5-2.147-.842-4.478-.842-4.478l9.9-1.8c.671,2.3,4.165,6.28,2.547,6.582Z" transform="translate(-1846.23 -405.359)" fill="#efaea6"/>
        <path id="Pfad_8084" data-name="Pfad 8084" d="M1870.917,384.791c1.345-.1,1.448.2,2.281-.412s-1.01-1.549.652-2.15,2.31-.611,2.1-2.563c-.3-2.826-1.518-2.367-3.011-1.752-.96.4-1.639-1.683-3.625-1.214-1.558.368-1.193,1.229-2.567,1.618-.829.235-2.756-.813-3.875.43-2.075,2.306.425,4.184-1.212,6.537-1.91,2.743,4.581,6.6,5.1,5.887.6-.831-.974-3-.333-3.7.965-1.056,1.3-.137,2.428.558,1.206.742,3.094.445,1.524-1.132s-.677-2.016.54-2.105Z" transform="translate(-1861.31 -376.63)" fill="#1f1f39"/>
      </g>
      <path id="Pfad_8085" data-name="Pfad 8085" d="M1855.969,435.126c-.385-.051.133,1.521-.988,3.275a8.684,8.684,0,0,1-4.058,3.17.308.308,0,0,1-.033.014,47.9,47.9,0,0,1,1.158-4.709,11.654,11.654,0,0,1,.532-1.4c-.145-.484-.282-1.021-.41-1.571l1.126.169,9.595-3.4,1.133,2.224s-6.348,2.459-8.054,2.23Z" transform="translate(-1830.822 -418.517)" fill="#1f1f39" opacity="0.2"/>
      <path id="Pfad_8086" data-name="Pfad 8086" d="M1893.027,388.915c.551-1.282-1.187-3.441-1.624-6.409a8.184,8.184,0,0,1,4.006-8.6,12.655,12.655,0,0,1,4.037-1.384c6.475-1.166-.169,10.993.167,12.366.78,3.188-2.651,6.495-4.382,6.709a1.977,1.977,0,0,1-2.2-2.687Z" transform="translate(-1875.184 -369.075)" fill="#556"/>
      <path id="Pfad_8087" data-name="Pfad 8087" d="M1855.228,371.763c.211,1.062.015,1.811-.76,2.2-1.694.857-10.964,3.862-11.044,2.076-.109-2.435-3.09-2.446-1.915-4.956.807-1.724,2.983-.679,2.983-.679,1.6-1.154,2.182-1.9,2.438-2.651,1.135-3.333-7.7-2.934-5.487-4.42,3.663-2.453,9.642-.348,11.643,3.438.35.664.673,1.288.956,1.874a13.792,13.792,0,0,1,1.185,3.114Z" transform="translate(-1820.626 -360.442)" fill="#a5a5ad"/>
      <path id="Pfad_8088" data-name="Pfad 8088" d="M1850.1,407.605c-1.188.347-5.992,1.745-7.215,1.936-1.4.222-1.722-1.149-.575-1.835a59.353,59.353,0,0,1,6.6-3.216,13.8,13.8,0,0,1,1.185,3.114Z" transform="translate(-1815.496 -396.284)" fill="#3b3b4c"/>
      <g id="Gruppe_2533" data-name="Gruppe 2533" transform="translate(27.24 8.478)">
        <path id="Pfad_8089" data-name="Pfad 8089" d="M1880.012,418.491c.461,1.126.887,3.064,1.129,2.915s.481.03.434-.354-.614-3-1-2.956a.8.8,0,0,0-.567.4Z" transform="translate(-1880.01 -416.316)" fill="#a5a5ad"/>
        <path id="Pfad_8090" data-name="Pfad 8090" d="M1870.2,414.451c.461,1.126.887,3.064,1.129,2.915s.481.03.434-.354-.614-3-1-2.956a.8.8,0,0,0-.567.4Z" transform="translate(-1868.721 -412.886)" fill="#a5a5ad"/>
        <path id="Pfad_8091" data-name="Pfad 8091" d="M1859.892,411.231c.461,1.126.887,3.064,1.129,2.915s.481.03.434-.354-.614-3-1-2.956a.8.8,0,0,0-.567.4Z" transform="translate(-1856.857 -410.151)" fill="#a5a5ad"/>
        <path id="Pfad_8092" data-name="Pfad 8092" d="M1849.111,406.714c.5,1.243.982,3.367,1.223,3.212s.487.047.428-.374-.7-3.295-1.092-3.254a.761.761,0,0,0-.56.415Z" transform="translate(-1844.541 -406.297)" fill="#a5a5ad"/>
      </g>
      <path id="Pfad_8093" data-name="Pfad 8093" d="M1919.027,421.506a.891.891,0,1,1-1.146-.713A.959.959,0,0,1,1919.027,421.506Z" transform="translate(-1895.891 -410.1)" fill="#3b3b4c"/>
      <path id="Pfad_8094" data-name="Pfad 8094" d="M1944.324,406.84a5.849,5.849,0,0,1,1.22-5.87" transform="translate(-1926.382 -393.295)" fill="none" stroke="#fff" stroke-linecap="round" stroke-linejoin="round" stroke-width="4.7"/>
    </g>
    <path id="Pfad_8095" data-name="Pfad 8095" d="M1356.5,550.5c6.5-2.232,7.888,4.963,9.776,2.179.519-.766-2.019-2.913-1.223-4.4.56-1.047.195-1.814,5.344-5.543,3.811-2.761.063-5.905-2.96-3.9-7.545,5.009-13.261,4.988-13.261,4.988Z" transform="translate(-1221.611 -489.951)" fill="#efaea6"/>
    <g id="Gruppe_2535" data-name="Gruppe 2535" transform="translate(42.325 99.285)">
      <path id="Pfad_8096" data-name="Pfad 8096" d="M1780.936,913.667l-22.028,1.835c-2-3.164-3.862-6.609-4.04-6.888,0,0,0,0,0,0a.133.133,0,0,0-.014-.023c.028,2.176.069,5.329.108,7.271l-21.032,1.784a319.7,319.7,0,0,1-4.478-32.517c-.137-2.019,27.831-7.741,27.831-7.741l6.879-.756c3.916,6.449,11.392,23.525,16.774,37.037Z" transform="translate(-1729.45 -876.63)" fill="#3b3b4c"/>
      <path id="Pfad_8097" data-name="Pfad 8097" d="M1876.522,1045.5l-.691.1c-1.971-3.056-3.853-6.644-4-6.926,0,0,0,0,0,0a.129.129,0,0,0-.014-.023v0c-.131-4.111-.6-8.86-.6-8.86s3.09,9.222,5.312,15.72Z" transform="translate(-1846.412 -1006.686)" fill="#1f1f39" opacity="0.57"/>
    </g>
    <path id="Pfad_8098" data-name="Pfad 8098" d="M1848.6,515.429c2.657-.867,3.035,4.01,5.739,4.18,1.428.09,1.1-.588,1.752-1.328.4-.455.78-.967,1.452-.24,13.678,14.762,2.615,52.953,4.375,55.566,1.438,2.137-11.613,7.319-18.737,5.585-17.929-4.365-9.83-10.393-9.23-16.258.228-2.23,5.578-40.156,5.578-40.156a53.2,53.2,0,0,0,9.073-7.348Z" transform="translate(-1786.076 -470.522)" fill="#fff"/>
    <path id="Pfad_8099" data-name="Pfad 8099" d="M1514.343,548.548c-.805.636-17.633,7.025-26.486,7.636-6.92.477-24.49-2.428-26.42-.59-2.978,2.833-3.268,10.545-3.01,13.98.171,2.28,1.582,6.686,1.79,8.3.505,4.005,3.367,11.988,2.539,14.428s-.888,4.325-1.953,5.22-9.394,4.062-11.207,2.319a10.842,10.842,0,0,1-2.624-6.344c0-.069-.009-.139-.012-.21-.128-3.049,1.974-7.76,2.042-12.056a107.087,107.087,0,0,0-.464-13.3c-1.149-10.5,3.138-16.8,1.912-25.476-.134-.939-.243-1.8-.332-2.577-.041-.359-.074-.7-.109-1.028-.176-1.767-.238-3.061-.252-3.945a13.906,13.906,0,0,1,.032-1.544c.048.01.1.02.147.035,11.668,3.7,30.336,10.961,36.008,11.1,4.307.107,23.06-5.644,25.293-6.92,1.671-.955,4.552,9.832,3.1,10.976Z" transform="translate(-1378.327 -485.837)" fill="#00628f"/>
    <path id="Pfad_8100" data-name="Pfad 8100" d="M1975.44,942.485c-1.883,6.443-15.035,14.2-15.035,14.2s-2.019-11.41-1.751-13.229,16.786-.969,16.786-.969Z" transform="translate(-1916.188 -833.102)" fill="#32323f"/>
    <path id="Pfad_8101" data-name="Pfad 8101" d="M1992.649,517.68c.451,3.346-2.847,18.311.6,29.759,2.747,9.141-2.448,18.093-2.429,22.783.018,4.629,1.048,11.466-3.058,14.164s-10.931,5.364-13.933,5.489c-2.4.1-5.845-3.085-4.379-7.508,1.187-3.587,7.013-15.378,7.511-22.136a20.8,20.8,0,0,0,.03-3.584c-.006-.063-.015-.124-.023-.183-.107-.743-.238-1.506-.383-2.266-.648-3.421-1.562-6.805-1.665-8.287V545.9a3.357,3.357,0,0,1-.008-.362v-.011a.53.53,0,0,1,.01-.086v-.012a.266.266,0,0,1,.006-.036v-.007c-1.322.8-10.178,15.442-17.513,16.858-4.481.865-24.711-5.587-26.508-6.3-.644-.258-.514-9.394,1.544-9.008s18.573,4.3,22.133,3.474c5.018-1.158,10.765-14.771,19.434-22.457,5.754-5.1,18.632-10.266,18.632-10.266Z" transform="translate(-1930.561 -472.521)" fill="#00628f"/>
    <path id="Pfad_8102" data-name="Pfad 8102" d="M2031.315,675.548c-.194,1.107-.205,11.724-2.562,14.993-.006-.063-.015-.124-.022-.182-.107-.743-.238-1.506-.383-2.266-.648-3.422-1.562-6.805-1.665-8.287v-.012a3.352,3.352,0,0,1-.007-.362v-.011c0-.036.007-.065.01-.086s.006-.042.007-.05v-.008s4.836-4.954,4.621-3.73Z" transform="translate(-1982.328 -606.418)" fill="#1f1f3b" opacity="0.24"/>
    <g id="Gruppe_2537" data-name="Gruppe 2537" transform="translate(119.157)">
      <g id="Gruppe_2536" data-name="Gruppe 2536">
        <path id="Pfad_8103" data-name="Pfad 8103" d="M1386.028,420.015c1.274-.5.916-.644,2.416-1.692,1.333-.933,1.536-1.27,2.452-1,.722.216.8.676,1.276.575,1.009-.211,2.108-.974,2.492.014.553,1.426,1.226,2.467.83,3.687s-1.79,1.8-3.476,2.253a29.312,29.312,0,0,1-4.988.923c-.785,0-1-4.763-1-4.763Z" transform="translate(-1369.174 -387.223)" fill="#efaea6"/>
        <path id="Pfad_8104" data-name="Pfad 8104" d="M1396.184,421.8c-2.6,1.472-3.249.336-3.737,1.435s1.259,3.01,1.494,3.186a4.9,4.9,0,0,0,2.821-.1c.3-.271.489-5.13-.579-4.527Z" transform="translate(-1371.515 -391.053)" fill="#efaea6"/>
        <path id="Pfad_8105" data-name="Pfad 8105" d="M1277.32,228.7h0c1.378,7.322,3.539,19.25,5.771,31.861.307,1.733.615,3.479.923,5.228,3.423,19.455,6.787,39.243,7.556,45.34.071.547.119.986.143,1.3.327,4.074.709,7.923-2.321,10.866a9.777,9.777,0,0,1-1.189.982,12.365,12.365,0,0,1-1.256.777c-4.522,2.456-10.074,4.293-16.99-1.178a34.385,34.385,0,0,1-5.391-5.505c-4.954-6.178-10.266-31.461-14.125-53.185-3.025-17.032-5.156-31.876-5.516-33.61-.822-3.945-2.586-8.661,4.127-9.672,6.051-.911,5.739,3.5,10.733,2.574.1-.018.193-.038.287-.059,3.4-.784,2.227-3.545,4.786-4.447a4.48,4.48,0,0,1,.7-.178c2.592-.464,1.714,2.194,4.768,1.719,2.951-.458.926-2.817,2.741-3.224,2.04-.455,2.026.808,2.787,3.1C1276,221.83,1276.531,224.511,1277.32,228.7Z" transform="translate(-1244.089 -218.199)" fill="#e6eff1"/>
        <path id="Pfad_8106" data-name="Pfad 8106" d="M1279.1,318.166c.312,1.742.624,3.507.935,5.287,3.465,19.778,6.808,41.015,6.668,45.469,0,.142-.012.267-.024.374-.507,4.656-1.637,5.82-4.7,7.268-.85.4-1.848.826-3.025,1.353-10.489,4.7-15.248-4.88-17.735-11.514-1.233-3.289-15.679-70.579-14.719-74.45.356-1.433,7.512-3.382,14.272-4.589,5.271-.942,10.3-1.432,11.677-.872a.73.73,0,0,1,.3.195c.6.742,3.408,14.986,6.353,31.478Z" transform="translate(-1239.217 -275.993)" fill="#74a1bb"/>
      </g>
      <path id="Pfad_8107" data-name="Pfad 8107" d="M1386.528,269.062c.062.241.124.486.185.73.339,1.338.677,2.705,1.01,4.092.053.217.115.433.157.653,6.6,34.153,6.623,45.515,3.594,64.26a19.981,19.981,0,0,1-2.006,5.254,34.4,34.4,0,0,1-5.391-5.505c-4.953-6.178-10.266-31.461-14.125-53.185-3.025-17.032-5.156-31.876-5.516-33.61-.822-3.945-2.586-8.661,4.127-9.672,6.052-.911,5.739,3.5,10.733,2.574.1-.018.193-.038.287-.059.489,1.645,1.089,3.631,1.764,5.9,1.491,5.009,3.351,11.4,5.181,18.568Z" transform="translate(-1363.598 -238.371)" fill="#1f1f39" opacity="0.08"/>
    </g>
  </g>
  <path id="Pfad_8108" data-name="Pfad 8108" d="M2283.21,229.255c4.755-.7,5.436-2.7,6.318-8.9.617,5.881,1.4,8.113,6.238,8.782-4.218,1.677-5.7,2.286-6.453,9.084-1.039-6.885-1.966-7.493-6.1-8.972Z" transform="translate(-2196.053 -187.132)" fill="#fff"/>
  <path id="Pfad_8109" data-name="Pfad 8109" d="M2469.71,532.275c2.787-.433,3.185-1.678,3.7-5.536.361,3.661.822,5.048,3.655,5.466-2.471,1.043-3.34,1.424-3.78,5.653C2472.677,533.574,2472.135,533.2,2469.71,532.275Z" transform="translate(-2405.476 -447.312)" fill="#fff"/>
  <g id="Gruppe_2539" data-name="Gruppe 2539" transform="translate(252.924 45.819)">
    <path id="Pfad_8110" data-name="Pfad 8110" d="M1030.79,304.079c1.173,2.838,1.357,8.568,4.215,6.755,4.984-3.162,5.2-7.368,9.839-6.948,3.194.29,6.01,5.783,4.34,8.743-2.188,3.878-10.741,3.841-9.366,6.731,1.11,2.331,7.378,4.438,4.8,5.668-3.771,1.8-33.925,6.772-33.552,4.5s18.55-28.285,19.723-25.447Z" transform="translate(-1011.063 -303.857)" fill="#f4f4f4"/>
    <path id="Pfad_8111" data-name="Pfad 8111" d="M1040.335,314.508c1.006,2.432,2.275,7.524,4.726,5.971,4.273-2.71,6.246-8.438,10.029-7.149,1.424.486,3.414,5.088,3.017,6.581-.985,3.688-11.226,5.125-10.047,7.6.952,2,6.326,3.8,4.115,4.86-3.233,1.543-29.962,6.44-29.642,4.489s16.8-24.787,17.8-22.355Z" transform="translate(-1021.27 -311.744)" fill="#003f5c"/>
  </g>
  <g id="Gruppe_2540" data-name="Gruppe 2540" transform="translate(248.108 77.534)">
    <path id="Pfad_8112" data-name="Pfad 8112" d="M1080.27,514.387c1.086,2.627,1.256,7.932,3.9,6.255,4.614-2.927,4.81-6.82,9.109-6.433,2.957.267,5.564,5.353,4.017,8.094-2.027,3.59-9.943,3.556-8.671,6.232,1.027,2.159,6.831,4.109,4.444,5.247-3.492,1.666-31.408,6.27-31.061,4.164s17.173-26.185,18.259-23.558Z" transform="translate(-1062.006 -514.182)" fill="#f4f4f4"/>
    <path id="Pfad_8113" data-name="Pfad 8113" d="M1089.108,524.048c.93,2.251,2.106,6.967,4.374,5.528,3.955-2.509,5.783-7.812,9.286-6.618,1.318.449,3.161,4.711,2.792,6.092-.911,3.414-10.394,4.745-9.3,7.04.881,1.85,5.857,3.523,3.811,4.5-2.993,1.428-27.738,5.962-27.443,4.156s15.551-22.947,16.482-20.695Z" transform="translate(-1071.458 -521.487)" fill="#003f5c"/>
  </g>
  <g id="Gruppe_2541" data-name="Gruppe 2541" transform="translate(290.4 64.446)">
    <path id="Pfad_8114" data-name="Pfad 8114" d="M881.78,427.517c.679,1.642.786,4.961,2.44,3.912,2.886-1.831,3.008-4.266,5.7-4.023,1.849.167,3.48,3.348,2.512,5.062-1.267,2.245-6.219,2.223-5.423,3.9.642,1.35,4.272,2.569,2.779,3.281-2.183,1.042-19.642,3.921-19.425,2.6S881.1,425.875,881.78,427.517Z" transform="translate(-870.359 -427.388)" fill="#f4f4f4"/>
    <path id="Pfad_8115" data-name="Pfad 8115" d="M887.321,433.556c.582,1.408,1.318,4.356,2.735,3.456,2.474-1.57,3.616-4.886,5.807-4.139.823.28,1.977,2.946,1.746,3.809-.57,2.135-6.5,2.968-5.818,4.4.55,1.158,3.663,2.2,2.382,2.814-1.873.894-17.347,3.729-17.161,2.6S886.739,432.147,887.321,433.556Z" transform="translate(-876.284 -431.954)" fill="#003f5c"/>
  </g>
  <g id="Gruppe_2542" data-name="Gruppe 2542" transform="translate(301.309 38.692)">
    <path id="Pfad_8116" data-name="Pfad 8116" d="M776.894,256.749c.84,2.034.973,6.14,3.02,4.842,3.572-2.266,3.723-5.281,7.051-4.979,2.289.207,4.307,4.144,3.109,6.265-1.568,2.779-7.7,2.752-6.712,4.824.795,1.671,5.288,3.18,3.441,4.062-2.7,1.291-24.313,4.852-24.045,3.222S776.054,254.715,776.894,256.749Z" transform="translate(-762.757 -256.591)" fill="#f4f4f4"/>
    <path id="Pfad_8117" data-name="Pfad 8117" d="M783.724,264.222c.721,1.743,1.63,5.392,3.387,4.279,3.063-1.942,4.477-6.048,7.188-5.124,1.019.347,2.447,3.646,2.162,4.715-.706,2.643-8.046,3.673-7.2,5.45.682,1.433,4.534,2.726,2.949,3.483-2.318,1.105-21.473,4.616-21.243,3.218s12.039-17.763,12.758-16.02Z" transform="translate(-770.061 -262.241)" fill="#003f5c"/>
  </g>
  <g id="Gruppe_2543" data-name="Gruppe 2543" transform="translate(324.716 54.327)">
    <path id="Pfad_8118" data-name="Pfad 8118" d="M641.373,360.419c.742,1.8.86,5.425,2.669,4.278,3.156-2,3.29-4.665,6.231-4.4,2.022.183,3.806,3.661,2.747,5.536-1.386,2.455-6.8,2.432-5.931,4.263.7,1.476,4.673,2.811,3.04,3.589-2.388,1.14-21.483,4.289-21.246,2.847s11.747-17.911,12.49-16.113Z" transform="translate(-628.88 -360.278)" fill="#f4f4f4"/>
    <path id="Pfad_8119" data-name="Pfad 8119" d="M647.42,367.021c.636,1.541,1.44,4.765,2.992,3.78,2.705-1.716,3.955-5.344,6.351-4.527.9.308,2.162,3.222,1.911,4.166-.623,2.336-7.11,3.245-6.363,4.815.6,1.267,4.006,2.41,2.606,3.078-2.048.977-18.973,4.077-18.77,2.842s10.637-15.7,11.273-14.156Z" transform="translate(-635.347 -365.27)" fill="#003f5c"/>
  </g>
  <g id="Gruppe_2544" data-name="Gruppe 2544" transform="translate(338.364 30.018)">
    <path id="Pfad_8120" data-name="Pfad 8120" d="M550.863,199.209c.742,1.8.859,5.425,2.669,4.278,3.156-2,3.29-4.665,6.231-4.4,2.022.182,3.806,3.661,2.747,5.536-1.386,2.455-6.8,2.432-5.931,4.263.7,1.476,4.673,2.811,3.04,3.589-2.389,1.14-21.483,4.289-21.246,2.847s11.747-17.911,12.49-16.114Z" transform="translate(-538.37 -199.068)" fill="#f4f4f4"/>
    <path id="Pfad_8121" data-name="Pfad 8121" d="M556.91,205.811c.636,1.541,1.44,4.765,2.992,3.78,2.705-1.716,3.955-5.344,6.351-4.527.9.308,2.162,3.222,1.911,4.166-.623,2.336-7.11,3.245-6.363,4.815.6,1.267,4.007,2.41,2.606,3.078-2.048.977-18.972,4.077-18.77,2.842s10.637-15.7,11.273-14.156Z" transform="translate(-544.837 -204.06)" fill="#003f5c"/>
  </g>
  <g id="Gruppe_2545" data-name="Gruppe 2545" transform="translate(367.929 27.929)">
    <path id="Pfad_8122" data-name="Pfad 8122" d="M363.017,185.37c.381,1.69-.062,4.9,1.7,4.162,3.075-1.283,3.593-3.6,6.137-2.927,1.749.466,2.793,3.791,1.58,5.279-1.588,1.95-6.342,1.113-5.854,2.853.4,1.4,3.682,3.173,2.131,3.611-2.271.642-19.524.532-19.1-.7s13.021-13.969,13.4-12.279Z" transform="translate(-349.606 -185.217)" fill="#f4f4f4"/>
    <path id="Pfad_8123" data-name="Pfad 8123" d="M368.8,194.46c.327,1.449.549,4.4,2.06,3.773,2.636-1.1,4.281-4.1,6.262-3.022.745.406,1.414,3.158,1.051,3.949-.9,1.959-6.736,1.781-6.317,3.272.338,1.2,3.158,2.72,1.826,3.1-1.947.55-17.287.725-16.923-.33s11.712-12.19,12.039-10.741Z" transform="translate(-356.001 -192.955)" fill="#003f5c"/>
  </g>
  <rect id="Rechteck_1430" data-name="Rechteck 1430" width="444" height="235.549" fill="none"/>
</svg>
