<svg id="img-bereitstellung-grey" xmlns="http://www.w3.org/2000/svg" width="444" height="236.422" viewBox="0 0 444 236.422">
  <rect id="Rechteck_1437" data-name="Rechteck 1437" width="444" height="236.422" transform="translate(0)" fill="none"/>
  <g id="Gruppe_2600" data-name="Gruppe 2600" transform="translate(91.77 47.967)">
    <path id="Pfad_8269" data-name="Pfad 8269" d="M612.56,1347.071c0,2.013,61.851,4.352,133.118,4.352s129.038-1.633,129.038-3.646-57.772-3.646-129.038-3.646S612.56,1345.057,612.56,1347.071Z" transform="translate(-612.56 -1189.069)" fill="#a8a8a8" opacity="0.12"/>
    <g id="Gruppe_2598" data-name="Gruppe 2598" transform="translate(88.612 94.806)">
      <rect id="Rechteck_1438" data-name="Rechteck 1438" width="47.633" height="63.245" transform="translate(5.163)" fill="#a8a8a8"/>
      <path id="Pfad_8270" data-name="Pfad 8270" d="M1281.023,1305.8v6.889H1233.39v-9.114c3.886,1.529,41.961,2.142,47.633,2.223Z" transform="translate(-1228.227 -1249.451)" fill="#888a8a"/>
      <rect id="Rechteck_1439" data-name="Rechteck 1439" width="57.96" height="6.856" rx="3.428" transform="translate(0 57.303)" fill="#d0d3d4"/>
    </g>
    <g id="Gruppe_2599" data-name="Gruppe 2599" transform="translate(13.904)">
      <path id="Pfad_8271" data-name="Pfad 8271" d="M911.987,321.02l-.251,123.6a3.064,3.064,0,0,1-3.072,3.057l-7.762-.015-1.5,0-14.144-.027-1.494,0-176.1-.338a3.065,3.065,0,0,1-3.057-3.072l.251-123.6a3.067,3.067,0,0,1,3.072-3.059l201,.387a3.065,3.065,0,0,1,3.057,3.072Z" transform="translate(-704.61 -317.56)" fill="#424242"/>
      <path id="Pfad_8272" data-name="Pfad 8272" d="M932.712,470.6l-191.091-.367a2.866,2.866,0,0,1-2.861-2.873l.233-114.137a2.866,2.866,0,0,1,2.873-2.861l191.091.367a2.866,2.866,0,0,1,2.861,2.873l-.233,114.137a2.866,2.866,0,0,1-2.873,2.861Z" transform="translate(-733.602 -345.406)" fill="#f4f4f4"/>
    </g>
  </g>
  <g id="Gruppe_2601" data-name="Gruppe 2601" transform="translate(168.504 144.502)" opacity="0.61">
    <path id="Pfad_8273" data-name="Pfad 8273" d="M1328.539,1030.19l-15.908.038c-.557,0-1.057.275-1.115.612l-.308,1.778c-.059.337.346.609.9.607l15.908-.038c.557,0,1.057-.275,1.115-.612l.308-1.778C1329.5,1030.46,1329.1,1030.188,1328.539,1030.19Z" transform="translate(-1282.408 -1019.085)" fill="#5c5c5c" opacity="0.75"/>
    <path id="Pfad_8274" data-name="Pfad 8274" d="M1545.672,1029.76l-9.723.023a.711.711,0,0,0-.693.548l-.329,1.9a.468.468,0,0,0,.5.545l9.723-.023a.711.711,0,0,0,.693-.548l.329-1.9A.468.468,0,0,0,1545.672,1029.76Z" transform="translate(-1472.333 -1018.72)" fill="#5c5c5c" opacity="0.75"/>
    <path id="Pfad_8275" data-name="Pfad 8275" d="M1452.281,1030.549l-.329,1.9c-.053.3.311.547.813.545l8.447-.02c.5,0,.95-.248,1-.55l.329-1.9c.053-.3-.311-.547-.812-.545l-8.447.02C1452.781,1030,1452.332,1030.247,1452.281,1030.549Z" transform="translate(-1401.893 -1018.907)" fill="#5c5c5c" opacity="0.75"/>
    <path id="Pfad_8276" data-name="Pfad 8276" d="M1295.919,1067.54l-15.908.038c-.557,0-1.057.275-1.115.612l-.308,1.778c-.059.337.346.609.9.607l15.908-.038c.557,0,1.057-.275,1.115-.612l.308-1.778C1296.881,1067.81,1296.476,1067.539,1295.919,1067.54Z" transform="translate(-1254.715 -1050.793)" fill="#5c5c5c" opacity="0.75"/>
    <path id="Pfad_8277" data-name="Pfad 8277" d="M1419.651,1067.9l-.329,1.9c-.053.3.311.547.813.545l8.447-.02c.5,0,.95-.248,1-.55l.329-1.9c.053-.3-.311-.547-.813-.545l-8.447.02C1420.151,1067.35,1419.7,1067.6,1419.651,1067.9Z" transform="translate(-1374.191 -1050.615)" fill="#5c5c5c" opacity="0.75"/>
    <path id="Pfad_8278" data-name="Pfad 8278" d="M1503.451,1067.3l-.473,1.9c-.076.3.436.545,1.145.542l11.922-.052c.707,0,1.341-.251,1.417-.554l.473-1.9c.076-.3-.437-.545-1.145-.542l-11.922.052C1504.161,1066.744,1503.527,1066.992,1503.451,1067.3Z" transform="translate(-1445.21 -1050.071)" fill="#5c5c5c" opacity="0.75"/>
    <path id="Pfad_8279" data-name="Pfad 8279" d="M1202.739,1031.99l-12.274.029a.832.832,0,0,0-.85.55l-.329,1.9c-.053.3.243.547.661.545l12.274-.029a.832.832,0,0,0,.85-.55l.329-1.9C1203.454,1032.233,1203.158,1031.989,1202.739,1031.99Z" transform="translate(-1178.901 -1020.613)" fill="#5c5c5c" opacity="0.75"/>
    <path id="Pfad_8280" data-name="Pfad 8280" d="M1122.975,1032.8l-.329,1.9c-.053.3.243.547.662.547l7.048-.017a.836.836,0,0,0,.852-.55l.329-1.9c.053-.3-.243-.547-.662-.547l-7.048.017A.836.836,0,0,0,1122.975,1032.8Z" transform="translate(-1122.327 -1020.817)" fill="#5c5c5c" opacity="0.75"/>
    <path id="Pfad_8281" data-name="Pfad 8281" d="M1198.826,1068.57l-8.113.02a.653.653,0,0,0-.6.548l-.329,1.9a.43.43,0,0,0,.4.547l8.113-.02a.654.654,0,0,0,.6-.548l.329-1.9A.43.43,0,0,0,1198.826,1068.57Z" transform="translate(-1179.325 -1051.668)" fill="#5c5c5c" opacity="0.75"/>
    <path id="Pfad_8282" data-name="Pfad 8282" d="M1120.905,1069.306l-.329,1.9c-.053.3.243.547.661.547l7.048-.017a.836.836,0,0,0,.852-.55l.329-1.9c.053-.3-.243-.547-.662-.547l-7.048.017A.836.836,0,0,0,1120.905,1069.306Z" transform="translate(-1120.57 -1051.812)" fill="#5c5c5c" opacity="0.75"/>
    <path id="Pfad_8283" data-name="Pfad 8283" d="M1253.506,957.35l-22.106.023a1.492,1.492,0,0,0-1.548,1.016l-.425,2.957c-.08.56.483,1.014,1.258,1.014l22.106-.023a1.492,1.492,0,0,0,1.548-1.017l.425-2.958C1254.844,957.8,1254.281,957.35,1253.506,957.35Z" transform="translate(-1212.978 -957.247)" fill="#5c5c5c"/>
    <path id="Pfad_8284" data-name="Pfad 8284" d="M1526.294,958.144l-.453,3.163c-.072.5.434.911,1.13.911l17.664-.012a1.341,1.341,0,0,0,1.391-.912l.453-3.163c.072-.5-.434-.911-1.13-.911l-17.663.012A1.341,1.341,0,0,0,1526.294,958.144Z" transform="translate(-1464.62 -957.137)" fill="#5c5c5c"/>
    <path id="Pfad_8285" data-name="Pfad 8285" d="M1429.239,957.581l-.359,3.163a.846.846,0,0,0,.909.912l9.436.009a1.108,1.108,0,0,0,1.116-.911l.359-3.163a.846.846,0,0,0-.909-.912l-9.436-.009A1.108,1.108,0,0,0,1429.239,957.581Z" transform="translate(-1382.306 -956.67)" fill="#5c5c5c"/>
  </g>
  <path id="Pfad_8286" data-name="Pfad 8286" d="M467.142,903.715c2.5,0,7.645,4.527.3,5.252s-18.355.391-22.81.406c-7.27.024-9.073-.278-9.016-3.308.033-1.754.962-2.888,4.794-3.349,3.986-.479,1.95-5,6.817-4.864,4.145.116,4.568,6.036,8.36,4.586s3,2.5,5.773,3.228C464.405,906.464,464.641,903.715,467.142,903.715Z" transform="translate(-370.569 -762.232)" fill="#fff" opacity="0.88"/>
  <path id="Pfad_8287" data-name="Pfad 8287" d="M1725.459,133.617a54.11,54.11,0,0,0,16.719-1.467,3.889,3.889,0,0,0,2.346-1.245,3.553,3.553,0,0,0-.334-4.182,4.192,4.192,0,0,0-3.7-1.252,5.815,5.815,0,0,1-2.525.086c-1.018-.343-1.693-1.429-2.376-2.376s-1.607-1.882-2.66-1.733c-.789.11-1.411.8-2.112,1.237a1.453,1.453,0,0,1-2.124-.319c-.861-1.71.347-6.4-4.087-6.4-6.4,0-5.356,4.717-6.126,5.719-1.168,1.518-3.248,1.183-4.939.669s-3.707-1-5.012.356c-1.131,1.177-1.249,3.334-2.452,4.409-1.281,1.145-3.1.533-4.654.02s-3.554-.7-4.454.859a3.6,3.6,0,0,0,.882,4.172,6.2,6.2,0,0,0,3.841,1.29C1710.464,134.084,1718.426,133.12,1725.459,133.617Z" transform="translate(-1441.111 -98.453)" fill="#fff"/>
  <g id="Gruppe_2602" data-name="Gruppe 2602" transform="translate(160.032 60.266)">
    <path id="Pfad_8288" data-name="Pfad 8288" d="M1160.2,474.709a8.67,8.67,0,0,1-5.74,2.121h-75.348a8.652,8.652,0,0,1-5.634-2.03,8.79,8.79,0,0,1-1.737-11.566l37.567-60.25a8.775,8.775,0,0,1,14.958.347l2.672,4.26,35.111,55.992a8.785,8.785,0,0,1-1.847,11.125Z" transform="translate(-1069.425 -398.988)" fill="#424242"/>
    <path id="Pfad_8289" data-name="Pfad 8289" d="M1154.382,476.889a8.67,8.67,0,0,1-5.74,2.121h-75.348a8.652,8.652,0,0,1-5.634-2.03,8.79,8.79,0,0,1-1.737-11.566l37.567-60.25a8.775,8.775,0,0,1,14.958.347l2.672,4.26,35.111,55.992a8.784,8.784,0,0,1-1.847,11.125Z" transform="translate(-1064.484 -400.838)" fill="#a8a8a8"/>
    <path id="Pfad_8290" data-name="Pfad 8290" d="M1193.8,537.693h-58.44a7.709,7.709,0,0,1-6.465-11.907l29.14-46.737a7.709,7.709,0,0,1,13.1.295l29.311,46.742a7.708,7.708,0,0,1-6.648,11.608Zm-34.272-57.682-29.14,46.736a5.935,5.935,0,0,0,4.974,9.173h58.44a5.935,5.935,0,0,0,5.125-8.927l-29.311-46.74a5.9,5.9,0,0,0-4.98-2.93l-.142,0a5.894,5.894,0,0,0-4.965,2.69Z" transform="translate(-1118.094 -463.983)" fill="#424242"/>
    <path id="Pfad_8291" data-name="Pfad 8291" d="M1340.939,596.538c0,5.069.27,11.59.618,16.73-.3,5.865,2.724,7.673,7.123,5.466a140.712,140.712,0,0,0,1.233-19.269C1350.062,594.081,1343.907,594.679,1340.939,596.538Zm-.1,30.753c-.349,6.848,9.814,6.848,9.466,0C1350.656,620.443,1340.493,620.443,1340.841,627.292Z" transform="translate(-1299.09 -565.573)" fill="#424242"/>
  </g>
  <g id="Gruppe_2603" data-name="Gruppe 2603" transform="translate(169.034 139.833)">
    <ellipse id="Ellipse_28" data-name="Ellipse 28" cx="6.092" cy="6.092" rx="6.092" ry="6.092" transform="translate(0 12.026) rotate(-80.78)" fill="#8f0e23"/>
    <path id="Pfad_8491" data-name="Pfad 8491" d="M5.577,6.078a.5.5,0,0,1-.354-.146L-.354.354a.5.5,0,0,1,0-.707.5.5,0,0,1,.707,0L5.93,5.225a.5.5,0,0,1-.354.854Z" transform="translate(4.003 4.517)" fill="#fff"/>
    <path id="Pfad_8492" data-name="Pfad 8492" d="M0,6.078a.5.5,0,0,1-.354-.146.5.5,0,0,1,0-.707L5.223-.354a.5.5,0,0,1,.707,0,.5.5,0,0,1,0,.707L.354,5.932A.5.5,0,0,1,0,6.078Z" transform="translate(4.003 4.517)" fill="#fff"/>
  </g>
  <g id="Gruppe_2604" data-name="Gruppe 2604" transform="translate(139.015 62.411)">
    <path id="Pfad_8292" data-name="Pfad 8292" d="M1066.211,439.838c-.861-.071-4.951-12.8-6-11.023s-2.036,6.54-2.64,4.486-5.853-20.69-3.515-20.1,4.522,11.653,5.308,10.714,2.047-5.462,3.541-3.832,5.016,19.894,3.3,19.752Z" transform="translate(-1034.109 -413.189)" fill="#a8a8a8"/>
    <path id="Pfad_8293" data-name="Pfad 8293" d="M948.343,549.58c-.574.452-10.424-5.081-10.052-3.38s2.5,5.222.944,4.3-15.52-9.453-13.732-10.43,9.5,4.619,9.446,3.586-1.871-4.56-.009-4.409,14.544,9.44,13.4,10.338Z" transform="translate(-925.345 -520.199)" fill="#a8a8a8"/>
  </g>
  <g id="Gruppe_2609" data-name="Gruppe 2609" transform="translate(269 110.955)">
    <g id="Gruppe_2605" data-name="Gruppe 2605" transform="translate(24.924 85.783)">
      <path id="Pfad_8294" data-name="Pfad 8294" d="M1986.5,1292.4c-.2-1.387-1.053-4.858-1.053-4.858l3.728-.3.866,5.244-2.412,1.8Z" transform="translate(-1979.529 -1287.24)" fill="#fff"/>
      <path id="Pfad_8295" data-name="Pfad 8295" d="M1943.778,1321.2c-.322-.243-1.016.64-1.153,1.227-.313,1.346-4.517,1.583-5.264,1.716a1.151,1.151,0,0,0,.949,2.01c1.664-.034,7-.122,8.819-.171a.832.832,0,0,0,.795-.634c.307-1.3.3-4.338-.212-4.372-.683.167-2.706,1.15-3.933.222Z" transform="translate(-1936.963 -1316.86)" fill="#666"/>
    </g>
    <g id="Gruppe_2606" data-name="Gruppe 2606" transform="translate(37.65 85.081)">
      <path id="Pfad_8296" data-name="Pfad 8296" d="M2049.684,1287.226c.442-1.332,1.121-4.8,1.121-4.8l-3.652-.932-.972,5.223,2.062,2.176,1.442-1.665Z" transform="translate(-2045.568 -1281.49)" fill="#fff"/>
      <path id="Pfad_8297" data-name="Pfad 8297" d="M2045.962,1312.544c.4.074.28.45.348,1.049.157,1.371,4.807,2.8,5.534,3.01a1.154,1.154,0,0,1-1.171,1.894c-1.651-.216-6.94-.889-8.745-1.137a.829.829,0,0,1-.718-.717c-.156-1.325.159-4.876.668-4.854C2042.538,1312.031,2044.141,1312.208,2045.962,1312.544Z" transform="translate(-2041.17 -1308.089)" fill="#666"/>
    </g>
    <path id="Pfad_8298" data-name="Pfad 8298" d="M1947.508,901.309c.7.552,3.574,0,5.18-.3.561-.622-3.865-18.253-2.965-22.681.865-4.255,2.1-8.441,3.071-11.847a8.132,8.132,0,0,1,1.539-2.79s5.255,11.7,5.34,15.188c.148,6.077-4.453,20.615-4.107,21.215s2.959,1.238,5.165,1.069c.673-1.859,5.489-16.487,5.585-22.5.049-3.073.21-6.077-3.1-19.78-.734-3.038-1.718-6.819-1.971-7.554,0,0,.651.049.65.045-.8-2.339-1.167,1.545-1.307.137a17.238,17.238,0,0,1,0-1.74c-.021-.631-1.191-1.391-1.291-2.137.108.8-3.314-6.729-12.477.946a11.7,11.7,0,0,0-1.727,2.7c-.078.336-.366,4.189-.878,8.059-.377,2.855-1.341,15.68-1.468,18.986-.249,6.471,4.06,22.43,4.76,22.982Z" transform="translate(-1917.106 -813.309)" fill="#a8a8a8"/>
    <path id="Pfad_8299" data-name="Pfad 8299" d="M2041.336,972.91a.044.044,0,0,1,0,.009.406.406,0,0,1-.045-.028A.3.3,0,0,1,2041.336,972.91Z" transform="translate(-2003.626 -925.495)" fill="#656b89" opacity="0.46"/>
    <path id="Pfad_8300" data-name="Pfad 8300" d="M2024.6,969.65c-.671.865-1.006,1.188-1.822,3.769l.9-7.619.919,3.85Z" transform="translate(-1987.376 -919.271)" fill="#656b89" opacity="0.46"/>
    <path id="Pfad_8301" data-name="Pfad 8301" d="M1740.392,722.169a14.35,14.35,0,0,1-2.218-1.318,5.488,5.488,0,0,0-2.441-1.264,6.9,6.9,0,0,1-2.855-1.873,1.335,1.335,0,0,1,1.674-1.368c.777.282,1.823,1.473,2.4,1.138.413-.238-.118-1.363.289-1.323.838.082,1.144,1.73,2.248,2.48.962.653,2,.666,2.323,1.044s-1.422,2.484-1.422,2.484Z" transform="translate(-1732.868 -700.117)" fill="#d0d3d4"/>
    <path id="Pfad_8302" data-name="Pfad 8302" d="M1983,630.783l3.1-1.108c-.076-1.431-1.839-4.319-2.162-5.583-.354-1.386-2.421-1.492-2.421-1.492l-.625,1.965.085.243a10.849,10.849,0,0,1,.066,3.6c-.2.661.016,1.6-.6,2.634-.464.774,2.558-.26,2.558-.26Z" transform="translate(-1950.166 -617.982)" fill="#d0d3d4"/>
    <path id="Pfad_8303" data-name="Pfad 8303" d="M1984.511,639.167a8.7,8.7,0,0,1,.255,2.523c2.031.744,2.2-2.707,1.668-3.219-.334-.32-.817.127-.817.127l-1.107.569Z" transform="translate(-1953.78 -631.813)" fill="#656b89" opacity="0.14"/>
    <path id="Pfad_8304" data-name="Pfad 8304" d="M1965.851,653.963c-1.486-.341-1.781,2.608-2.967,2.759-.721.09-.576-.238-.933-.564a2.931,2.931,0,0,0-2.044.528c-6.434,7.393,4.188,23.691,3.385,24.978-.657,1.052.489,4.51,4.094,3.633,8.3-2.019,6.216-4.054,5.647-7.143-.192-1.038-2.529-20.45-2.529-20.45s-2.361-1.839-4.65-3.74Z" transform="translate(-1930.355 -645.491)" fill="#fff"/>
    <path id="Pfad_8305" data-name="Pfad 8305" d="M1777.591,682.533c1.859,1.143,10.966,7.347,14.017,6.842,3.132-.518,5.714-5.747,6.945-7.146h0a.035.035,0,0,1,.007-.007.934.934,0,0,1,.431-.332.174.174,0,0,1,.094.007c.443.17.709,2.393.866,4.584.141,1.978.607,4.952.613,5.337.075,4.207-.807,2.91-1.307,8.425-.209,2.3,1.96,4.075,6.16,2.931.637-.173,2.093-2.407,1.907-3.283-.447-2.111-2.543-6.477-2.356-11.291.2-5.267-2.378-8.263-2.059-12.621a22.038,22.038,0,0,0,.007-4.461c-.009-.06-.015-.088-.015-.088-.179.073-.355.15-.529.23-.242.11-.479.227-.709.348h0c-6.886,3.6-9.553,11.676-11.009,12.048-2.106.541-11.887-6.274-12.1-5.162,0,0-1.319,3.419-.958,3.642Z" transform="translate(-1772.076 -660.849)" fill="#888a8a"/>
    <path id="Pfad_8306" data-name="Pfad 8306" d="M2025.045,677.853a19.333,19.333,0,0,1,1.206,7.072,3.685,3.685,0,0,0,1.533,2.521c2.386,1.939,5.685-.915,4.653-3.638-1.971-5.2-.445-4.881-1.023-10.49a4.554,4.554,0,0,1,.043-.672c.043-.769-.117-2.673-.222-4.029-.045-.585-.081-1.069-.083-1.313v-.052c.009-.829,1.366.865,1.281-.344-.042-.592-.1-1.292-.192-2.163a18.261,18.261,0,0,0-1.574-6.226,3.814,3.814,0,0,0-.907-1.155h0a18.267,18.267,0,0,0-7.926-3.4c-.114-.02-.186-.029-.209-.032h-.007a107.454,107.454,0,0,0,.771,15.179,43.736,43.736,0,0,0,2.66,8.745Z" transform="translate(-1986.33 -645.486)" fill="#888a8a"/>
    <path id="Pfad_8307" data-name="Pfad 8307" d="M1955.4,605.937c.524,1.005.626,3.477,1.284,3.074s1.1,2.125,1.818,1.721c1.732-.979,3.018-3.223,2.729-4.161a18.442,18.442,0,0,0-1.827-3.11l-4,2.477Z" transform="translate(-1928.224 -601.179)" fill="#d0d3d4"/>
    <path id="Pfad_8308" data-name="Pfad 8308" d="M1943.74,589.393c-.5.387-.435.521-.922.573s-.16-.852-.931-.539-1.565.739-2.135,0c-.824-1.072.314-1.52,1.031-1.774.462-.164.012-1.1.851-1.555.658-.36.814.051,1.416-.244.363-.178.684-1.144,1.478-1.065,1.473.147,1.227,1.58,2.564,1.881,1.56.35.587,3.717.175,3.633-.481-.1-.65-1.343-1.1-1.385-.679-.062-.492.359-.653.954-.172.635-.921,1.124-.9.086s-.429-.91-.877-.558Z" transform="translate(-1914.236 -584.782)" fill="#666"/>
    <path id="Pfad_8309" data-name="Pfad 8309" d="M2078.151,738.83a17.108,17.108,0,0,0,.253,2.248,16.568,16.568,0,0,0,2.665,6.773c.016-.216.031-.441.043-.672.043-.769-.117-2.673-.222-4.029.386.305.772.606,1.153.9l.049-.753-1.285-1.456-2.656-3.008Z" transform="translate(-2035.984 -720.018)" fill="#656b89" opacity="0.25"/>
    <g id="Gruppe_2607" data-name="Gruppe 2607" transform="translate(37.283 10.39)">
      <path id="Pfad_8310" data-name="Pfad 8310" d="M2233.855,677.717a14.145,14.145,0,0,0,1.969-1.656,5.431,5.431,0,0,1,2.2-1.639,6.84,6.84,0,0,0,2.5-2.307,1.342,1.342,0,0,0-1.879-1.081c-.719.4-1.732,1.481-2.358,1.244-.447-.17-.093-2.461-.5-2.414-.9.105-.536,2.945-1.5,3.861-.84.8-1.99,1.341-2.25,1.767s1.816,2.223,1.816,2.223Z" transform="translate(-2208.344 -669.864)" fill="#888a8a"/>
      <path id="Pfad_8311" data-name="Pfad 8311" d="M2038.356,675.694c.351,1.3,2.262,3.389,4.615,5.492.111.1-.734-1.642-.62-1.544.8.7,2.6,3.244,3.443,3.914.386.305.772.606,1.153.9,2.863,2.176,5.524,3.849,6.32,3.886,3.137.145,11.971-9.555,12.292-10.114.083-.145-.049-.453-.289-.832a19.163,19.163,0,0,0-1.779-2.2c-.289-.317-.49-.526-.49-.526s-7.27,7.044-9.391,7.117c-1.644.059-3.041-1.537-8.385-8.331l-.907-1.155h0c-.071-.023-2.336-.762-4.3-1.3a1.1,1.1,0,0,0-.919.105c-1.077.685-1.053,3.432-.741,4.59Z" transform="translate(-2038.171 -670.814)" fill="#888a8a"/>
    </g>
    <g id="Gruppe_2608" data-name="Gruppe 2608" transform="translate(31.722 5.276)">
      <path id="Pfad_8312" data-name="Pfad 8312" d="M1996.762,669.856c.108-.125,2.2,2.072,4.26,2.409a4.511,4.511,0,0,0,1.721-.023,26.183,26.183,0,0,0,5.049-1.514c-2.377-1.928-1.952-1.606-2.982-1.928-1.356.885-1.482,1.622-2.364,1.772a6.555,6.555,0,0,1-1.928.027,10.867,10.867,0,0,1-3.1-.939c-.429-.2-.611-.626-1.027-.526-.552.133.232.883.37.723Z" transform="translate(-1995.762 -663.816)" fill="#656b89" opacity="0.18"/>
      <path id="Pfad_8313" data-name="Pfad 8313" d="M1992.652,633.734a.693.693,0,0,1,.555-.854c.417-.1.5.054.927.25a8.871,8.871,0,0,0,5.028.912c1.882-.321,5.356-3.849,8.225-4.036s4.388,1.956,8.465,1.464,7.795-3.292,9-3.423,1.976-.081,2.079.374a2.286,2.286,0,0,1-.968,1.9,53.192,53.192,0,0,1-9.644,3.313c-3.186.462-6.621-1.509-8.647-1.122s-5.859,2.672-8.214,3.2c-2.625.589-5.594-1.769-5.732-1.61a.735.735,0,0,1-.619.325c-.244.009-.4-.435-.456-.694Z" transform="translate(-1992.634 -627.986)" fill="#d0d3d4"/>
    </g>
  </g>
  <rect id="Rechteck_1440" data-name="Rechteck 1440" width="444" height="236.422" transform="translate(0)" fill="none"/>
</svg>
