<svg id="img-benutzerfreundlich-to" xmlns="http://www.w3.org/2000/svg" width="444" height="236.153" viewBox="0 0 444 236.153">
  <g id="Gruppe_2687" data-name="Gruppe 2687" transform="translate(77.199 49.435)">
    <g id="Gruppe_2677" data-name="Gruppe 2677" transform="translate(125.369 109.129)">
      <path id="Pfad_8497" data-name="Pfad 8497" d="M1368.473,1063.807c-2.824-.712-7.069-2.051-9.011-1.671-3.345.654-4.115,1.968-5.527.84-1.745-1.395,5.014-6.944-1.135-5.612-2.456.532-9.233,2.91-9.4.943-.3-3.6,1.574-3.289,5.165-4.305,4.085-1.155,6.029-2.957,9.078-2.313,3.791.8,7.01,2.491,9.335,2.839s2.487,7.36,2.487,7.36l-1,1.919Z" transform="translate(-1343.373 -1051.553)" fill="#efaea6"/>
      <path id="Pfad_8498" data-name="Pfad 8498" d="M1368.473,1063.807c-2.824-.712-7.069-2.051-9.011-1.671-3.345.654-4.115,1.968-5.527.84-1.745-1.395,5.014-6.944-1.135-5.612-2.456.532-9.233,2.91-9.4.943-.3-3.6,1.574-3.289,5.165-4.305,4.085-1.155,6.029-2.957,9.078-2.313,3.791.8,7.01,2.491,9.335,2.839s2.487,7.36,2.487,7.36l-1,1.919Z" transform="translate(-1343.373 -1051.553)" opacity="0.4"/>
    </g>
    <path id="Pfad_8499" data-name="Pfad 8499" d="M1992.974,587.062c4.386,1.776,12.534-2.738,12.534-2.738,2.85-5.677,5.257-17.8,4.2-23.894-1.161-6.688-1.757-6.329-1.757-6.329l-10.269,6.149-4.831,2.9a17.82,17.82,0,0,1-.569,7.259c-.8,3.182.814,2.576-2.425,7.262-2.427,3.509-1.267,7.62,3.12,9.4Z" transform="translate(-1765.945 -519.98)" fill="#efaea6"/>
    <path id="Pfad_8500" data-name="Pfad 8500" d="M2012.481,614.435a24.694,24.694,0,0,1-.751,7.947c9.756,9.2,13.236-2.387,12.307-5.4-.641-2.084-6.725-5.439-6.725-5.439Z" transform="translate(-1785.579 -568.761)" fill="#1f1f39" opacity="0.14"/>
    <g id="Gruppe_2678" data-name="Gruppe 2678" transform="translate(214.471 10.731)">
      <path id="Pfad_8501" data-name="Pfad 8501" d="M1949.023,489.35c-.8,5.643-7.565,16.141-3.733,16.349s-1.706,11.922,2.364,12.289c9.859.891,21.586-4.7,23.142-9.4s1.641-18.051,1.641-18.051l-23.412-1.188Z" transform="translate(-1942.637 -475.727)" fill="#efaea6"/>
      <path id="Pfad_8502" data-name="Pfad 8502" d="M1950.516,418.66c-3.135.187-3.275.917-5.4-.264s1.828-3.973-2.2-4.88-8.485-1.413-8.639-6.093c-.223-6.773,5.689-5.38,9.334-4.39,2.346.638,3.234-4.488,7.968-3.993,3.714.388,3.151,2.536,6.449,3.028,1.992.3,6.1-2.778,9.081-.187,5.537,4.8.38,10.023,4.923,15.072,5.3,5.89-8.42,17.02-9.847,15.5-1.665-1.776,1.27-7.4-.434-8.853-2.57-2.194-3.04.078-5.418,2.072-2.541,2.129-6.994,2.012-3.884-2.2S1953.355,418.491,1950.516,418.66Z" transform="translate(-1934.269 -399.007)" fill="#1f1f39"/>
    </g>
    <path id="Pfad_8503" data-name="Pfad 8503" d="M1661.724,1431.067H1526.46a223.222,223.222,0,0,1,31.279-11.339c4.031-1.173,8.33-2.342,12.929-3.51q6.743-1.715,14.372-3.429s11.175-5.54,38.35-5.7c.3,0,.606,0,.911,0,13.337-.018,33.661,9.716,35.276,13.725A27.281,27.281,0,0,1,1661.724,1431.067Z" transform="translate(-1373.483 -1244.349)" fill="#3b3b4c"/>
    <path id="Pfad_8504" data-name="Pfad 8504" d="M1927.16,698.456c-6.583-1.6-7.7,7.28-12.977,7.915-3.2.385-3.132-5.439-4.706-6.924-.97-.915-2.822-.789-4.51,1.146-28.917,33.156-5.888,101.128-5.888,101.128a116.738,116.738,0,0,0,46.3,19.016c21.3,3.684,21.56-8.378,20.568-13.049-3.8-17.9-24.638-95.027-24.638-95.027S1937.255,707.148,1927.16,698.456Z" transform="translate(-1682.533 -642.407)" fill="#fff"/>
    <path id="Pfad_8505" data-name="Pfad 8505" d="M2123.981,830.2h-42.176a110.05,110.05,0,0,0-4.726-23.974c-.137-.416-.279-.839-.425-1.262-3.375-9.768-14.058-27.756-15.465-40.062-3-26.191,8.972-57.723,10.613-65.372,0,0,5.528-.2,18.523,12.893,5.462,5.5,14.533,21.3,15.537,33.319,1.571,18.834,1.834,34.974,4.64,46.679,2.616,10.919,6.034,25.019,13.48,37.781Z" transform="translate(-1827.172 -643.482)" fill="#00628f"/>
    <path id="Pfad_8506" data-name="Pfad 8506" d="M2079.308,1057.042c-.43-1.5-.912-3.044-1.463-4.628-3.375-9.765-14.058-27.755-15.468-40.061-.514-4.486-.165-13.639.148-18.4l28.249-3.032C2075.992,1003.853,2079.306,1046.572,2079.308,1057.042Z" transform="translate(-1828.366 -890.934)" fill="#1f1f39" opacity="0.17"/>
    <path id="Pfad_8507" data-name="Pfad 8507" d="M910.412,815.777c-2.194-.309-70.68,1.672-78.426.314-1.77-.311-3.623-3.21-5.543-7.76-.626-1.485-1.259-3.147-1.9-4.951-1.448-4.082-2.927-8.9-4.43-14.063-3.669-12.6-7.484-27.311-11.335-38.617-.778-2.287-1.558-4.436-2.34-6.4-.306-.772-.638-1.506-.921-2.229-2.116-5.37,1.654-3.456,3.584-3.278.427.039,1.687,3.034,3.438,7.778,3.078,8.339,7.672,22.083,11.929,34.677,2.135,6.318,4.184,12.345,5.916,17.258,1.054,2.993,1.989,5.572,2.752,7.549.484,1.252.9,2.262,1.23,2.983,3.308,4.617,74.509-2.675,76.048,6.74Z" transform="translate(-760.719 -676.422)" fill="#424242"/>
    <g id="Gruppe_2679" data-name="Gruppe 2679" transform="translate(147.976 55.856)">
      <path id="Pfad_8508" data-name="Pfad 8508" d="M1571.824,777.19c-3.357-22.257-9.3-35.276-7.687-53.88a83.5,83.5,0,0,1,6.11-24.8c-15.548-1.191-15.444,2.278-16.724,3.011l-14.287,32.269c-9.4,15.948-9.737,16.784-14.319,17.511-4.706.069-28.486,1.9-29.679,2.081s-3.4,12.362-.553,12.909c5.867,1.129,32.506,1.662,43.015-.176,5.974-1.045,9.5-11.741,15.1-20.18,2.174,12.6,3.138,29.654,2.649,36.552-.629,8.892-3.8,20.337,5.157,25.5,0,0,6.4,4.361,10.255.4,6.6-6.786,4.483-7.823.957-31.2Z" transform="translate(-1493.293 -698.264)" fill="#00628f"/>
      <path id="Pfad_8509" data-name="Pfad 8509" d="M1571.824,777.19c-3.357-22.257-9.3-35.276-7.687-53.88a83.5,83.5,0,0,1,6.11-24.8c-15.548-1.191-15.444,2.278-16.724,3.011l-14.287,32.269c-9.4,15.948-9.737,16.784-14.319,17.511-4.706.069-28.486,1.9-29.679,2.081s-3.4,12.362-.553,12.909c5.867,1.129,32.506,1.662,43.015-.176,5.974-1.045,9.5-11.741,15.1-20.18,2.174,12.6,3.138,29.654,2.649,36.552-.629,8.892-3.8,20.337,5.157,25.5,0,0,6.4,4.361,10.255.4,6.6-6.786,4.483-7.823.957-31.2Z" transform="translate(-1493.293 -698.264)" opacity="0.4"/>
    </g>
    <path id="Pfad_8510" data-name="Pfad 8510" d="M1363.488,1121.081c-3.326-.838-8.325-2.416-10.613-1.968-3.939.77-4.845,2.318-6.508.989-2.054-1.642,5.9-8.177-1.338-6.609-2.894.627-10.873,3.427-11.066,1.11-.353-4.239,1.853-3.874,6.083-5.07,4.81-1.36,7.1-3.483,10.691-2.723,4.465.944,8.256,2.934,10.994,3.343s2.927,8.667,2.927,8.667l-1.173,2.26Z" transform="translate(-1209.982 -989.213)" fill="#efaea6"/>
    <path id="Pfad_8511" data-name="Pfad 8511" d="M1597.962,820.492c-42.779,43.478-40.925,45.2-51.184,45.569-7.937-.624-48.357-1.773-50.4-1.713s-5.379,12.3-.707,13.47c9.636,2.42,42.393,6.52,60.476,5.64,15.45-.752,49.515-36.155,49.515-36.155s13.1-6.134,6.891-19.285-14.586-7.524-14.586-7.524Z" transform="translate(-1345.322 -745.19)" fill="#00628f"/>
    <g id="Gruppe_2680" data-name="Gruppe 2680" transform="translate(0 138.985)">
      <path id="Pfad_8512" data-name="Pfad 8512" d="M1745.173,1269.11s-.015,4.458-.077,12.092c-.038,4.8-.095,10.849-.18,17.84-.053,4.386-.116,9.139-.191,14.186q0,.333-.009.665H1731.65c.119-3.933.232-7.722.338-11.339.232-8.022.425-15.2.552-21.189h0c.105-4.957.167-9.1.167-12.255Z" transform="translate(-1547.732 -1266.16)" fill="#4c3a33"/>
      <path id="Pfad_8513" data-name="Pfad 8513" d="M708.548,1338.138H695.26c.142-11.287.27-21.213.347-28.994.045-4.65.072-8.533.072-11.484h12.464s.069,4.218.154,11.486C708.38,1316.255,708.48,1326.283,708.548,1338.138Z" transform="translate(-667.62 -1290.405)" fill="#4c3a33"/>
      <path id="Pfad_8514" data-name="Pfad 8514" d="M720.81,1265.092c-5.756-2.708-181.071,6.6-208.85,1.832v-11.032c6.97-2.817,23.351-4.623,59.779-4.69,72.514-.133,151.079-3.655,152.795,0s2.488,16.813-3.723,13.889Z" transform="translate(-511.96 -1249.548)" fill="#e5af21"/>
    </g>
    <g id="Gruppe_2684" data-name="Gruppe 2684" transform="translate(75.715)">
      <path id="Pfad_8515" data-name="Pfad 8515" d="M1058.15,370.972a1.37,1.37,0,0,1,0,1.933l-6.247,6.247a1.37,1.37,0,0,1-1.933,0l-3.124-3.124a1.367,1.367,0,1,1,1.933-1.933l2.158,2.158,5.281-5.281a1.37,1.37,0,0,1,1.933,0Z" transform="translate(-1041.565 -364.129)" fill="#008f48"/>
      <path id="Pfad_8516" data-name="Pfad 8516" d="M1032.823,327.84a3.125,3.125,0,0,1,3.124,3.124v15.619a3.127,3.127,0,0,1-3.124,3.124H1017.2a3.126,3.126,0,0,1-3.124-3.124V330.964a3.124,3.124,0,0,1,3.124-3.124Zm-2.158,8.775a1.367,1.367,0,0,0-1.933-1.933l-5.281,5.281-2.158-2.158a1.367,1.367,0,0,0-1.933,1.933l3.124,3.124a1.37,1.37,0,0,0,1.933,0Z" transform="translate(-1014.08 -327.84)" fill="#008f48" opacity="0.4"/>
      <path id="Pfad_8517" data-name="Pfad 8517" d="M1058.15,552.532a1.37,1.37,0,0,1,0,1.933l-6.247,6.247a1.37,1.37,0,0,1-1.933,0l-3.124-3.124a1.367,1.367,0,0,1,1.933-1.933l2.158,2.158,5.281-5.281a1.37,1.37,0,0,1,1.933,0Z" transform="translate(-1041.565 -518.311)" fill="#008f48"/>
      <path id="Pfad_8518" data-name="Pfad 8518" d="M1032.823,509.41a3.125,3.125,0,0,1,3.124,3.124v15.619a3.127,3.127,0,0,1-3.124,3.124H1017.2a3.126,3.126,0,0,1-3.124-3.124V512.534a3.124,3.124,0,0,1,3.124-3.124Zm-2.158,8.774a1.367,1.367,0,0,0-1.933-1.933l-5.281,5.281-2.158-2.158a1.367,1.367,0,0,0-1.933,1.933l3.124,3.124a1.37,1.37,0,0,0,1.933,0Z" transform="translate(-1014.08 -482.031)" fill="#008f48" opacity="0.4"/>
      <path id="Pfad_8519" data-name="Pfad 8519" d="M1058.15,739.522a1.37,1.37,0,0,1,0,1.933L1051.9,747.7a1.37,1.37,0,0,1-1.933,0l-3.124-3.124a1.367,1.367,0,1,1,1.933-1.933l2.158,2.158,5.281-5.281a1.37,1.37,0,0,1,1.933,0Z" transform="translate(-1041.565 -677.105)" fill="#008f48"/>
      <path id="Pfad_8520" data-name="Pfad 8520" d="M1032.823,696.39a3.125,3.125,0,0,1,3.124,3.124v15.619a3.127,3.127,0,0,1-3.124,3.124H1017.2a3.126,3.126,0,0,1-3.124-3.124V699.514a3.124,3.124,0,0,1,3.124-3.124Zm-2.158,8.776a1.367,1.367,0,0,0-1.933-1.933l-5.281,5.281-2.158-2.158a1.367,1.367,0,0,0-1.933,1.933l3.124,3.124a1.37,1.37,0,0,0,1.933,0Z" transform="translate(-1014.08 -640.816)" fill="#008f48" opacity="0.4"/>
      <g id="Gruppe_2681" data-name="Gruppe 2681" transform="translate(32.513 31.657)">
        <rect id="Rechteck_1444" data-name="Rechteck 1444" width="28.086" height="4.489" rx="2.245" fill="#424242"/>
        <rect id="Rechteck_1445" data-name="Rechteck 1445" width="19.297" height="4.489" rx="2.245" transform="translate(30.739)" fill="#424242"/>
        <rect id="Rechteck_1446" data-name="Rechteck 1446" width="19.297" height="4.489" rx="2.245" transform="translate(46.198 8.82)" fill="#424242"/>
        <rect id="Rechteck_1447" data-name="Rechteck 1447" width="43.191" height="4.489" rx="2.245" transform="translate(0 8.82)" fill="#424242"/>
      </g>
      <g id="Gruppe_2682" data-name="Gruppe 2682" transform="translate(32.513 4.466)">
        <rect id="Rechteck_1448" data-name="Rechteck 1448" width="60.185" height="4.489" rx="2.245" fill="#424242"/>
        <rect id="Rechteck_1449" data-name="Rechteck 1449" width="28.086" height="4.489" rx="2.245" transform="translate(0 8.444)" fill="#424242"/>
        <rect id="Rechteck_1450" data-name="Rechteck 1450" width="48.644" height="4.489" rx="2.245" transform="translate(30.541 8.444)" fill="#424242"/>
      </g>
      <g id="Gruppe_2683" data-name="Gruppe 2683" transform="translate(32.513 59.773)">
        <rect id="Rechteck_1451" data-name="Rechteck 1451" width="28.086" height="4.489" rx="2.245" fill="#424242"/>
        <rect id="Rechteck_1452" data-name="Rechteck 1452" width="44.106" height="4.489" rx="2.245" transform="translate(30.541)" fill="#424242"/>
        <rect id="Rechteck_1453" data-name="Rechteck 1453" width="44.106" height="4.489" rx="2.245" transform="translate(0 8.978)" fill="#424242"/>
      </g>
    </g>
    <g id="Gruppe_2686" data-name="Gruppe 2686" transform="translate(29.855 118.247)">
      <g id="Gruppe_2685" data-name="Gruppe 2685" transform="translate(1.445)">
        <path id="Pfad_8521" data-name="Pfad 8521" d="M734.166,1139.36a8.3,8.3,0,0,0-5.508,2.114,6.844,6.844,0,0,0-1.71,2.467,6.583,6.583,0,0,0-1.71-2.443,8.249,8.249,0,0,0-5.508-2.138.2.2,0,0,0-.2.2,7.134,7.134,0,0,0,2.286,5.133,7.4,7.4,0,0,0,10.264-.024,7.057,7.057,0,0,0,2.284-5.109A.2.2,0,0,0,734.166,1139.36Z" transform="translate(-719.53 -1135.237)" fill="#008f48"/>
        <path id="Pfad_8522" data-name="Pfad 8522" d="M753.612,1118.991a6.98,6.98,0,0,1,1.137-1.3,7.641,7.641,0,0,1,1.552-1.166,8.535,8.535,0,0,0-2.491-4.438.312.312,0,0,0-.389,0,8.49,8.49,0,0,0-2.491,4.432,7.64,7.64,0,0,1,1.526,1.143,7.469,7.469,0,0,1,1.158,1.329Z" transform="translate(-746.195 -1112.02)" fill="#008f48" opacity="0.4"/>
      </g>
      <path id="Pfad_8523" data-name="Pfad 8523" d="M727.038,1175.547a4.912,4.912,0,0,0-2.073-1.672h.161a1.454,1.454,0,0,0,.893-.29.842.842,0,0,0,0-1.4,1.454,1.454,0,0,0-.893-.29H712.455a1.431,1.431,0,0,0-.858.29.8.8,0,0,0,0,1.4,1.431,1.431,0,0,0,.858.29h.2a4.887,4.887,0,0,0-2.075,1.672,3.45,3.45,0,0,0-.617,2.277h0a8.7,8.7,0,0,0,1.107,3.948,9.928,9.928,0,0,0,2.968,3.44,3.235,3.235,0,0,0,1.705.508h6.128a3.244,3.244,0,0,0,1.705-.508,9.465,9.465,0,0,0,2.934-3.44,8.371,8.371,0,0,0,1.141-3.948,3.434,3.434,0,0,0-.615-2.277Z" transform="translate(-709.948 -1162.871)" fill="#a5cee0"/>
    </g>
  </g>
  <rect id="Rechteck_1454" data-name="Rechteck 1454" width="444" height="236.021" fill="none"/>
</svg>
