<svg id="img-dynamische-gebietsoptimierung-grey" xmlns="http://www.w3.org/2000/svg" width="444" height="236.021" viewBox="0 0 444 236.021">
  <path id="Pfad_8769" data-name="Pfad 8769" d="M1201.65,1226.308c0,4.572,17.709,8.278,38.56,8.278s37.754-3.706,37.754-8.278-16.9-8.278-37.754-8.278S1201.65,1221.737,1201.65,1226.308Z" transform="translate(-1020.452 -1034.362)" fill="#a1a297" opacity="0.11"/>
  <g id="Gruppe_2711" data-name="Gruppe 2711" transform="translate(171.764 77.051)">
    <g id="Gruppe_2707" data-name="Gruppe 2707" transform="translate(30.777 105.924)">
      <path id="Pfad_8770" data-name="Pfad 8770" d="M1392.98,1219.809c-.25-1.713-1.3-6-1.3-6l4.6-.371,1.069,6.475-2.978,2.218Z" transform="translate(-1384.369 -1213.44)" fill="#fff"/>
      <path id="Pfad_8771" data-name="Pfad 8771" d="M1351.608,1247.456c-.4-.3-1.254.79-1.423,1.516-.386,1.662-5.578,1.954-6.5,2.119a1.422,1.422,0,0,0,1.172,2.482c2.055-.042,8.64-.151,10.89-.211a1.027,1.027,0,0,0,.982-.783c.378-1.606.366-5.356-.262-5.4-.843.207-3.342,1.42-4.857.274Z" transform="translate(-1343.192 -1242.092)" fill="#666"/>
    </g>
    <g id="Gruppe_2708" data-name="Gruppe 2708" transform="translate(46.491 105.057)">
      <path id="Pfad_8772" data-name="Pfad 8772" d="M1456.736,1214.773c.546-1.645,1.384-5.932,1.384-5.932l-4.51-1.151-1.2,6.449,2.547,2.687,1.781-2.055Z" transform="translate(-1451.654 -1207.69)" fill="#fff"/>
      <path id="Pfad_8773" data-name="Pfad 8773" d="M1453.317,1238.921c.493.092.345.556.43,1.3.194,1.693,5.935,3.453,6.834,3.717a1.426,1.426,0,0,1-1.446,2.339c-2.039-.267-8.569-1.1-10.8-1.4a1.024,1.024,0,0,1-.887-.885c-.193-1.636.2-6.021.825-5.994C1449.089,1238.288,1451.069,1238.507,1453.317,1238.921Z" transform="translate(-1447.4 -1233.421)" fill="#666"/>
    </g>
    <path id="Pfad_8774" data-name="Pfad 8774" d="M1354.849,840.706c.864.682,4.414,0,6.4-.372.692-.768-4.773-22.539-3.661-28.006,1.068-5.254,2.6-10.423,3.792-14.628a10.044,10.044,0,0,1,1.9-3.446s6.488,14.45,6.594,18.754c.183,7.5-5.5,25.455-5.071,26.2s3.654,1.529,6.377,1.319c.831-2.3,6.778-20.358,6.9-27.779.06-3.794.26-7.5-3.83-24.424-.906-3.752-2.122-8.42-2.434-9.328,0,0,.8.06.8.056-.991-2.888-1.442,1.907-1.613.169a21.2,21.2,0,0,1,0-2.149c-.026-.78-1.47-1.717-1.594-2.639.133.985-4.092-8.309-15.406,1.169a14.444,14.444,0,0,0-2.132,3.336c-.1.415-.452,5.172-1.084,9.951-.466,3.525-1.656,19.362-1.812,23.443-.308,7.99,5.014,27.7,5.878,28.377Z" transform="translate(-1317.309 -732.045)" fill="#a8a8a8"/>
    <path id="Pfad_8775" data-name="Pfad 8775" d="M1447.577,899.114a.049.049,0,0,1,0,.01.447.447,0,0,1-.056-.035A.358.358,0,0,1,1447.577,899.114Z" transform="translate(-1401.011 -840.567)" fill="#656b89" opacity="0.46"/>
    <path id="Pfad_8776" data-name="Pfad 8776" d="M1431.26,896.754c-.829,1.068-1.242,1.467-2.25,4.653l1.116-9.408,1.136,4.754Z" transform="translate(-1385.292 -834.546)" fill="#656b89" opacity="0.46"/>
    <path id="Pfad_8777" data-name="Pfad 8777" d="M1148.378,649.77a17.688,17.688,0,0,1-2.738-1.627,6.774,6.774,0,0,0-3.014-1.561,8.524,8.524,0,0,1-3.526-2.313,1.648,1.648,0,0,1,2.067-1.689c.959.348,2.251,1.819,2.966,1.405.51-.294-.146-1.683.357-1.633,1.035.1,1.413,2.137,2.776,3.063,1.188.807,2.465.822,2.868,1.289s-1.755,3.067-1.755,3.067Z" transform="translate(-1139.088 -622.542)" fill="#d0d3d4"/>
    <path id="Pfad_8778" data-name="Pfad 8778" d="M1389.834,558.9l3.828-1.368c-.094-1.767-2.271-5.333-2.669-6.894-.437-1.711-2.99-1.843-2.99-1.843l-.772,2.426.105.3a13.384,13.384,0,0,1,.081,4.447c-.252.816.02,1.975-.745,3.253-.573.956,3.159-.321,3.159-.321Z" transform="translate(-1349.289 -543.097)" fill="#d0d3d4"/>
    <path id="Pfad_8779" data-name="Pfad 8779" d="M1390.732,565.557a10.736,10.736,0,0,1,.315,3.115c2.508.918,2.722-3.343,2.06-3.975-.413-.4-1.009.157-1.009.157l-1.368.7Z" transform="translate(-1352.785 -556.477)" fill="#656b89" opacity="0.14"/>
    <path id="Pfad_8780" data-name="Pfad 8780" d="M1373.956,580.17c-1.835-.421-2.2,3.221-3.664,3.406-.89.112-.712-.294-1.152-.7a3.619,3.619,0,0,0-2.524.651c-7.945,9.129,5.171,29.253,4.18,30.843-.811,1.3.6,5.569,5.055,4.486,10.254-2.493,7.675-5.006,6.973-8.82-.237-1.282-3.123-25.251-3.123-25.251s-2.915-2.271-5.742-4.619Z" transform="translate(-1330.125 -569.708)" fill="#fff"/>
    <path id="Pfad_8781" data-name="Pfad 8781" d="M1183.825,611.34c2.3,1.411,13.541,9.072,17.308,8.449,3.868-.639,7.056-7.1,8.575-8.824h0a.044.044,0,0,1,.009-.009,1.152,1.152,0,0,1,.532-.41.214.214,0,0,1,.116.009c.547.21.876,2.955,1.069,5.661.173,2.443.749,6.115.757,6.59.092,5.195-1,3.593-1.614,10.4-.258,2.842,2.42,5.032,7.606,3.619.787-.214,2.584-2.972,2.355-4.053-.552-2.607-3.139-8-2.909-13.942.252-6.5-2.936-10.2-2.542-15.584a27.222,27.222,0,0,0,.009-5.508c-.01-.074-.018-.109-.018-.109-.222.09-.439.185-.653.283-.3.136-.591.281-.876.43h0c-8.5,4.447-11.8,14.417-13.594,14.877-2.6.668-14.678-7.748-14.946-6.374,0,0-1.629,4.222-1.184,4.5Z" transform="translate(-1177.015 -584.564)" fill="#888a8a"/>
    <path id="Pfad_8782" data-name="Pfad 8782" d="M1432.077,609.67a23.868,23.868,0,0,1,1.49,8.732,4.55,4.55,0,0,0,1.892,3.112c2.947,2.394,7.02-1.129,5.745-4.492-2.434-6.424-.549-6.027-1.264-12.953a5.637,5.637,0,0,1,.053-.829c.053-.95-.145-3.3-.274-4.975-.056-.722-.1-1.319-.1-1.621v-.065c.011-1.024,1.688,1.068,1.582-.425-.051-.731-.127-1.6-.237-2.67a22.548,22.548,0,0,0-1.944-7.687,4.71,4.71,0,0,0-1.12-1.426h0a22.557,22.557,0,0,0-9.786-4.2c-.141-.024-.229-.036-.258-.039h0l-.009,0h0a132.68,132.68,0,0,0,.951,18.743,54.005,54.005,0,0,0,3.284,10.8Z" transform="translate(-1384.271 -569.703)" fill="#888a8a"/>
    <path id="Pfad_8783" data-name="Pfad 8783" d="M1361.62,532.708c.647,1.241.774,4.293,1.585,3.8s1.363,2.624,2.245,2.125c2.138-1.209,3.726-3.979,3.37-5.137a22.777,22.777,0,0,0-2.256-3.841l-4.943,3.058Z" transform="translate(-1328.064 -526.835)" fill="#d0d3d4"/>
    <path id="Pfad_8784" data-name="Pfad 8784" d="M1350.964,516.676c-.612.478-.537.644-1.138.707s-.2-1.052-1.149-.665-1.933.912-2.636,0c-1.018-1.324.388-1.877,1.273-2.191.57-.2.015-1.353,1.051-1.919.813-.445,1.006.063,1.749-.3.448-.22.844-1.413,1.825-1.315,1.818.181,1.515,1.951,3.167,2.322,1.926.433.725,4.59.216,4.486-.594-.121-.8-1.659-1.359-1.71-.838-.077-.608.443-.807,1.178-.213.784-1.137,1.387-1.108.106s-.529-1.123-1.083-.689Z" transform="translate(-1314.532 -510.982)" fill="#666"/>
    <path id="Pfad_8785" data-name="Pfad 8785" d="M1484.371,665.02a21.106,21.106,0,0,0,.312,2.776,20.454,20.454,0,0,0,3.29,8.363c.02-.267.038-.544.053-.829.053-.95-.145-3.3-.275-4.975.477.377.953.748,1.423,1.107l.06-.93-1.586-1.8-3.28-3.714Z" transform="translate(-1432.305 -641.792)" fill="#656b89" opacity="0.25"/>
    <g id="Gruppe_2709" data-name="Gruppe 2709" transform="translate(46.037 12.828)">
      <path id="Pfad_8786" data-name="Pfad 8786" d="M1640.507,605.751a17.435,17.435,0,0,0,2.431-2.045,6.709,6.709,0,0,1,2.714-2.024,8.446,8.446,0,0,0,3.093-2.848,1.657,1.657,0,0,0-2.321-1.334c-.888.5-2.138,1.829-2.912,1.537-.552-.21-.115-3.039-.618-2.981-1.116.13-.662,3.637-1.852,4.768-1.037.986-2.458,1.656-2.777,2.182s2.242,2.744,2.242,2.744Z" transform="translate(-1609.007 -596.054)" fill="#d0d3d4"/>
      <path id="Pfad_8787" data-name="Pfad 8787" d="M1444.62,603c.433,1.61,2.793,4.185,5.7,6.781.137.122-.906-2.028-.766-1.906.986.867,3.207,4,4.251,4.833.476.377.953.748,1.423,1.107,3.534,2.687,6.82,4.753,7.8,4.8,3.874.179,14.782-11.8,15.178-12.489.1-.179-.06-.559-.357-1.027a23.586,23.586,0,0,0-2.2-2.711c-.356-.392-.6-.65-.6-.65s-8.977,8.7-11.6,8.788c-2.03.072-3.755-1.9-10.353-10.287l-1.12-1.427h0c-.088-.029-2.885-.941-5.306-1.609a1.355,1.355,0,0,0-1.135.13c-1.33.846-1.3,4.237-.915,5.668Z" transform="translate(-1444.391 -596.973)" fill="#888a8a"/>
    </g>
    <g id="Gruppe_2710" data-name="Gruppe 2710" transform="translate(39.17 6.515)">
      <path id="Pfad_8788" data-name="Pfad 8788" d="M1403.124,596.3c.133-.154,2.72,2.559,5.26,2.975a5.564,5.564,0,0,0,2.125-.029,32.326,32.326,0,0,0,6.235-1.87c-2.936-2.381-2.411-1.983-3.682-2.381-1.674,1.093-1.831,2-2.919,2.188a8.1,8.1,0,0,1-2.381.033,13.419,13.419,0,0,1-3.826-1.16c-.529-.241-.754-.774-1.268-.65C1401.986,595.576,1402.954,596.5,1403.124,596.3Z" transform="translate(-1401.888 -588.846)" fill="#656b89" opacity="0.18"/>
      <path id="Pfad_8789" data-name="Pfad 8789" d="M1398.876,561.284a.856.856,0,0,1,.686-1.054c.514-.124.615.066,1.144.309a10.954,10.954,0,0,0,6.208,1.126c2.323-.4,6.614-4.753,10.156-4.984s5.418,2.416,10.453,1.808,9.625-4.065,11.115-4.227,2.44-.1,2.567.461a2.822,2.822,0,0,1-1.2,2.348c-.882.673-9.5,3.741-11.908,4.091-3.934.57-8.176-1.864-10.677-1.386s-7.235,3.3-10.142,3.952c-3.242.727-6.908-2.185-7.078-1.987a.908.908,0,0,1-.765.4c-.3.011-.49-.537-.562-.856Z" transform="translate(-1398.854 -554.186)" fill="#d0d3d4"/>
    </g>
  </g>
  <path id="Pfad_8790" data-name="Pfad 8790" d="M875.5,191.053a47.1,47.1,0,0,1-14.192-1.212,3.344,3.344,0,0,1-1.992-1.028,2.874,2.874,0,0,1,.284-3.456,3.617,3.617,0,0,1,3.138-1.034,5.06,5.06,0,0,0,2.144.071c.864-.283,1.437-1.181,2.016-1.963s1.365-1.555,2.257-1.432c.669.092,1.2.663,1.793,1.022a1.252,1.252,0,0,0,1.8-.264c.731-1.413-.3-5.285,3.47-5.285,5.435,0,4.546,3.9,5.2,4.726.992,1.255,2.756.977,4.193.553s3.147-.826,4.255.294c.961.973,1.06,2.755,2.082,3.645,1.087.945,2.633.442,3.951.017s3.017-.581,3.782.71a2.923,2.923,0,0,1-.749,3.447,5.367,5.367,0,0,1-3.262,1.066c-7.443.513-14.2-.283-20.173.127Z" transform="translate(-729.351 -149.86)" fill="#d8d9da"/>
  <path id="Pfad_8791" data-name="Pfad 8791" d="M1939.462,599.1c-2.532,0-7.734,4.49-.3,5.21s18.571.389,23.077.4c7.356.024,9.18-.276,9.122-3.281-.033-1.739-1-5.376-4.872-5.831-4.034-.475-1.4,2.959-6.324,3.094-4.194.116-4.917-3.969-9.014-4.037-4.848-.081-3.958,4.338-6.764,5.059-3.085.792-2.393-.617-4.923-.617Z" transform="translate(-1643.493 -504.993)" fill="#d8d9da"/>
  <g id="Gruppe_2712" data-name="Gruppe 2712" transform="translate(217.654 49.473)">
    <path id="Pfad_8792" data-name="Pfad 8792" d="M1454.2,328.09h-5.717a5.072,5.072,0,0,0-5.067,5.067,1.65,1.65,0,0,0,1.689,1.642,1.679,1.679,0,0,0,1.689-1.642,1.691,1.691,0,0,1,1.689-1.689h5.717a2.733,2.733,0,0,1,2.728,2.734,2.78,2.78,0,0,1-1.609,2.5l-5.156,3.022a1.6,1.6,0,0,0-.834,1.457v2.111a1.689,1.689,0,1,0,3.378,0v-1.146l4.222-2.48a6.109,6.109,0,0,0-2.728-11.573Z" transform="translate(-1443.42 -328.09)" fill="#8f0e23"/>
    <path id="Pfad_8793" data-name="Pfad 8793" d="M1481.931,456.89A2.111,2.111,0,0,0,1479.82,459a2.072,2.072,0,0,0,2.111,2.064,2.1,2.1,0,0,0,2.111-2.064A2.14,2.14,0,0,0,1481.931,456.89Z" transform="translate(-1474.331 -437.468)" fill="#8f0e23" opacity="0.4"/>
  </g>
  <g id="Gruppe_2713" data-name="Gruppe 2713" transform="translate(246.114 39.688)">
    <path id="Pfad_8794" data-name="Pfad 8794" d="M1647.377,264.993l-7.272-1.63a6.614,6.614,0,0,0-7.893,5,2.151,2.151,0,0,0,1.681,2.571,2.189,2.189,0,0,0,2.618-1.607,2.2,2.2,0,0,1,2.631-1.668l7.272,1.63a3.564,3.564,0,0,1,2.692,4.257,3.622,3.622,0,0,1-2.761,2.719l-7.423,2.375a2.085,2.085,0,0,0-1.476,1.615l-.6,2.686a2.2,2.2,0,0,0,4.3.964l.327-1.457,6.08-1.951a7.967,7.967,0,0,0-.17-15.506Z" transform="translate(-1632.159 -263.202)" fill="#8f0e23"/>
    <path id="Pfad_8795" data-name="Pfad 8795" d="M1650.593,432.57a2.753,2.753,0,0,0-3.289,2.084,2.7,2.7,0,0,0,2.1,3.228,2.74,2.74,0,0,0,3.275-2.024A2.793,2.793,0,0,0,1650.593,432.57Z" transform="translate(-1644.963 -406.973)" fill="#8f0e23" opacity="0.4"/>
  </g>
  <g id="Gruppe_2714" data-name="Gruppe 2714" transform="translate(260.476 67.998)">
    <path id="Pfad_8796" data-name="Pfad 8796" d="M1737.448,452.129l-4.8-1.077a4.367,4.367,0,0,0-5.211,3.3,1.419,1.419,0,0,0,1.11,1.7,1.446,1.446,0,0,0,1.728-1.062,1.456,1.456,0,0,1,1.737-1.1l4.8,1.077a2.354,2.354,0,0,1,1.778,2.811,2.391,2.391,0,0,1-1.823,1.8l-4.9,1.568a1.378,1.378,0,0,0-.976,1.066l-.4,1.773a1.454,1.454,0,0,0,2.838.636l.216-.962,4.014-1.289a5.261,5.261,0,0,0-.113-10.239Z" transform="translate(-1727.399 -450.946)" fill="#8f0e23"/>
    <path id="Pfad_8797" data-name="Pfad 8797" d="M1739.573,562.769a1.818,1.818,0,0,0-2.171,1.377,1.782,1.782,0,0,0,1.384,2.131,1.811,1.811,0,0,0,2.163-1.336,1.845,1.845,0,0,0-1.377-2.171Z" transform="translate(-1735.856 -545.869)" fill="#8f0e23" opacity="0.4"/>
  </g>
  <rect id="Rechteck_1473" data-name="Rechteck 1473" width="444" height="236.021" fill="none"/>
</svg>
