<svg xmlns="http://www.w3.org/2000/svg" width="444" height="236.17" viewBox="0 0 444 236.17">
  <g id="img-bereitstellung-to" transform="translate(-1.87)">
    <g id="Gruppe_2610" data-name="Gruppe 2610" transform="translate(207.011 87.348)">
      <path id="Pfad_8314" data-name="Pfad 8314" d="M2237.462,658.907a16.2,16.2,0,0,0-1.652-.307" transform="translate(-2094.153 -658.075)" fill="none" stroke="#fff" stroke-linecap="round" stroke-miterlimit="10" stroke-width="8.17"/>
      <path id="Pfad_8315" data-name="Pfad 8315" d="M1537.887,742.5c2.436-11.954,28.408-17.071,29.016-30.42,1.189-26.147-15.471-42.56-49.515-48.784-1.75-.32-2.286-1.83-2.676-2.934-.423-1.2-.712-1.891-1.715-2.24l.954-2.737a5.67,5.67,0,0,1,3.493,4.01,4.312,4.312,0,0,0,.459,1.048c17.174,3.142,30.285,8.941,38.984,17.24,9.209,8.783,14.024,20.43,12.911,34.528-1.357,17.179-26.612,18.8-29.071,30.867m-1.308-1.839c3.006-2.684,5.776-4.915,9.781-5.547a10.65,10.65,0,0,1,10.3,3.664,10.521,10.521,0,0,1,1.667,10.266c-1.278,3.23-4.126,5.315-8.021,5.87a11.654,11.654,0,0,1-9.423-2.8,23.054,23.054,0,0,1-5.24-6.737c-6.125,5.325-14.981,11.42-35.508,11.42q-2.91,0-6.139-.17c-18.594-.989-27.288-.944-39.323-.883-3.117.016-6.339.033-10.024.033-17.253,0-78.963-2.8-79.218-4.283l2.856-.49a.787.787,0,0,0-.085-.271c.018.028,61.183,2.146,76.447,2.146,3.679,0,6.9-.016,10.009-.033,12.083-.062,20.814-.106,39.491.887,24.512,1.3,33.821-5.449,40.162-11.045m3.555.71a20.9,20.9,0,0,0,4.872,6.491,8.757,8.757,0,0,0,7.159,2.155c2.82-.4,4.858-1.848,5.736-4.069a7.578,7.578,0,0,0-1.234-7.388,7.729,7.729,0,0,0-7.586-2.613C1546.192,739.094,1543.743,741.238,1540.7,743.973Z" transform="translate(-1368.27 -655.381)" fill="#a8a8a8"/>
    </g>
    <g id="Gruppe_2657" data-name="Gruppe 2657" transform="translate(43.096 75.059)">
      <path id="Pfad_8316" data-name="Pfad 8316" d="M399.2,1225.45c-16.286.658-39.483,14.3-33.942,20.376,11,12.063,89.819,9.893,122.417,9.893s241.944.487,242.344-10.618c.784-21.73-131.861-17.677-144.186-18.554C574.448,1225.737,399.2,1225.45,399.2,1225.45Z" transform="translate(-364.418 -1120.078)" fill="#32323f" opacity="0.12"/>
      <rect id="Rechteck_1441" data-name="Rechteck 1441" width="147.418" height="104.205" rx="6" transform="translate(31.727 0)" fill="#303035"/>
      <path id="Pfad_8317" data-name="Pfad 8317" d="M713.012,690.059H580.573a4.623,4.623,0,0,1-4.623-4.623V600.892a4.623,4.623,0,0,1,4.623-4.622H713.012a4.623,4.623,0,0,1,4.623,4.622v84.544A4.623,4.623,0,0,1,713.012,690.059Z" transform="translate(-541.41 -593.633)" fill="#fff"/>
      <path id="Pfad_8318" data-name="Pfad 8318" d="M429.353,1306.411c2.714.062,189.545-.91,189.754.849s1.128,7.385-4.3,7.581-171.966-.318-181.192-.388c-5.258-.039-5.514-8.07-4.262-8.042Z" transform="translate(-418.227 -1187.642)" fill="#424242"/>
      <path id="Pfad_8319" data-name="Pfad 8319" d="M431.722,1214.161c5.984-5.382,17.862-18.2,21.1-18.2,4.3,0,145.638-.078,147.086-.078,1.164,0,21.675,19.068,21.675,19.068l-189.865-.789Z" transform="translate(-420.731 -1095.336)" fill="#99999d"/>
      <path id="Pfad_8320" data-name="Pfad 8320" d="M582.373,1208.888l-5.359,6.406a.86.86,0,0,0,.66,1.412H719.068a.859.859,0,0,0,.55-1.52l-7.91-6.6a.865.865,0,0,0-.552-.2l-128.125.189A.855.855,0,0,0,582.373,1208.888Z" transform="translate(-542.131 -1105.804)" fill="#424242"/>
      <path id="Pfad_8321" data-name="Pfad 8321" d="M829.7,1264.3l-4.384,5.413,59.434.165-3.8-5.945Z" transform="translate(-750.061 -1152.275)" fill="#48485b" opacity="0.37"/>
      <path id="Pfad_8322" data-name="Pfad 8322" d="M914.33,1309.59a3.593,3.593,0,0,0,2.978,2.485c1.878.087,24.651.057,25.62.057,1.638,0,2.3-2.418,2.3-2.418l-30.9-.123Z" transform="translate(-824.537 -1190.479)" fill="#c6c6ca" opacity="0.91"/>
      <g id="Gruppe_2615" data-name="Gruppe 2615" transform="translate(51.403 10.38)">
        <g id="Gruppe_2611" data-name="Gruppe 2611" transform="translate(12.979 3.217)">
          <path id="Pfad_8323" data-name="Pfad 8323" d="M788.591,678.548q-.012-.588-.065-1.164a15.726,15.726,0,0,0-.674-3.331,15.48,15.48,0,0,0-3.868-6.317c-.18-.178-.366-.353-.555-.523-.082-.072-.165-.145-.248-.216s-.168-.14-.253-.211-.15-.121-.227-.183c-.015-.01-.028-.023-.044-.033-.07-.055-.14-.109-.212-.163-.168-.124-.338-.247-.511-.366-.091-.062-.183-.124-.276-.185-.054-.038-.109-.072-.165-.106a.055.055,0,0,0-.018-.011c-.07-.046-.141-.09-.212-.132-.281-.173-.567-.335-.861-.488-.078-.042-.157-.082-.235-.121-.1-.049-.2-.1-.3-.144-.2-.095-.4-.184-.6-.269-.1-.044-.206-.083-.307-.124l-.281-.106c-.015-.007-.031-.011-.046-.016-.1-.036-.2-.072-.3-.1s-.186-.062-.281-.092l-.121-.037c-.065-.021-.131-.041-.2-.059-.131-.039-.26-.075-.39-.109-.088-.025-.178-.046-.266-.065-.028-.008-.056-.015-.083-.021-.2-.046-.4-.09-.6-.129-.082-.015-.161-.031-.245-.044-.065-.011-.132-.024-.2-.033-.028,0-.054-.01-.083-.013-.078-.013-.155-.025-.234-.034s-.185-.024-.276-.034-.186-.021-.279-.029-.17-.016-.256-.023a.068.068,0,0,0-.031,0c-.06,0-.121-.01-.18-.013-.083-.006-.168-.01-.251-.015-.1,0-.2-.01-.307-.011-.232-.007-.464-.008-.7,0-.111,0-.219,0-.328.01a.158.158,0,0,0-.039,0h-.013c-.034,0-.067,0-.1.007s-.073,0-.111,0a.208.208,0,0,0-.044,0c-.021,0-.041,0-.06,0l-.188.015c-.065,0-.132.01-.2.016-.018,0-.034,0-.054,0a.276.276,0,0,0-.036,0c-.029,0-.06.005-.09.01-.078.008-.158.016-.235.028a.221.221,0,0,0-.034,0l-.154.021c-.042,0-.082.01-.122.018-.025,0-.046,0-.069.01s-.044.006-.065.01c-.091.015-.184.029-.276.046-.02,0-.041.006-.06.01l-.248.046c-.028,0-.054.01-.082.016a.1.1,0,0,0-.021,0c-.111.024-.225.046-.335.072h0s-.006,0-.01,0c-.038.008-.077.016-.114.026l-.033.008c-.065.015-.129.031-.193.047l-.049.013c-.072.018-.141.036-.212.057a.1.1,0,0,0-.021,0c-.047.013-.1.026-.144.042a.182.182,0,0,0-.024.007c-.02,0-.039.01-.059.016-.044.013-.088.026-.132.041-.024.006-.049.015-.072.023-.046.013-.09.028-.134.044s-.062.018-.091.029a.4.4,0,0,0-.062.021.375.375,0,0,0-.06.02c-.044.015-.088.029-.132.046a.862.862,0,0,0-.091.034.052.052,0,0,0-.025.01c-.074.024-.149.052-.22.082-.039.015-.078.028-.118.046l-.029.01h0l-.152.06-.051.021-.062.024-.044.02c-.007,0-.011,0-.018.006l-.132.057-.147.064-.008,0c-.1.044-.194.087-.289.132a.352.352,0,0,0-.051.024l-.142.069-.252.126c-.2.1-.4.211-.6.323-.047.028-.095.054-.14.083-.162.093-.323.193-.48.294l-.126.082c-.055.034-.111.072-.166.111s-.095.064-.14.1c-.149.1-.294.207-.438.314-.044.034-.088.065-.132.1s-.109.083-.163.127c-.038.028-.077.059-.114.09-.073.059-.147.119-.219.178s-.167.141-.25.212c-.02.016-.041.034-.06.054-.059.049-.116.1-.173.154-.162.145-.322.294-.477.451-.054.052-.106.1-.158.158l-.083.083c-.044.044-.085.088-.127.132-.062.064-.121.129-.178.194l-.111.124c-.029.031-.059.062-.083.093-.049.056-.1.113-.149.17s-.119.14-.176.209-.139.17-.2.255-.121.15-.176.227c-.034.044-.065.088-.1.132-.108.144-.214.292-.315.441-.049.072-.1.145-.149.219s-.1.149-.145.222c-.065.1-.132.209-.2.315-.029.047-.059.1-.088.145-.015.024-.028.049-.044.073-.028.047-.056.1-.083.147-.005.01-.012.019-.016.029-.042.074-.083.149-.122.222s-.07.131-.1.2l-.025.046c-.007.015-.015.028-.023.042l-.039.078v0c-.038.072-.072.142-.108.216-.06.121-.118.24-.173.362l-.015.034c-.038.083-.073.167-.111.25l-.02.046a.111.111,0,0,0-.01.024c-.046.106-.091.214-.134.323-.015.034-.028.065-.041.1-.021.052-.042.1-.062.157-.01.029-.023.059-.033.088-.031.082-.062.163-.091.247l-.015.042c-.021.057-.041.114-.06.173-.01.028-.021.059-.031.088s-.013.039-.018.059c-.025.067-.046.137-.065.206-.028.087-.056.178-.082.266,0,0,0,0,0,.007l-.024.088c-.016.057-.033.114-.049.173l-.015.052a.053.053,0,0,1,0,.015c0,.011-.007.024-.01.034-.025.091-.049.183-.072.276,0,.016-.01.034-.013.051a.349.349,0,0,0-.008.034l-.02.077a.192.192,0,0,0-.01.044c-.013.054-.025.109-.036.163a.347.347,0,0,0-.01.034c-.007.029-.013.062-.02.091s-.013.062-.02.091-.018.083-.026.126c-.015.073-.028.149-.044.222,0,.016-.007.034-.01.051l-.02.109c-.01.047-.016.095-.024.142a.172.172,0,0,1-.005.026c-.01.062-.021.126-.029.19,0,.026-.008.052-.011.078s-.008.054-.011.082,0,.034-.006.052c-.007.044-.013.085-.018.131l-.01.072c0,.034-.01.069-.011.1s-.01.078-.015.119-.013.111-.018.17a.08.08,0,0,1,0,.028c0,.01,0,.02,0,.029q-.015.145-.024.289c0,.041-.007.082-.01.123,0,.015,0,.029,0,.044-.008.1-.013.191-.016.287,0,.028,0,.054,0,.082-.005.082-.007.163-.01.247v.129c0,.1,0,.206,0,.307v.335a1,1,0,0,0,0,.121c0,.069,0,.14.007.207v0c0,.091.008.184.013.276,0,.042,0,.083.008.122,0,.065.01.129.015.194s.008.106.015.16a.711.711,0,0,0,.01.1c0,.067.011.136.02.2l.029.266c.011.1.025.194.039.289s.028.191.044.286c.018.116.039.232.06.345s.039.209.062.312h0c.018.091.038.18.057.271s.034.154.054.23.034.149.054.22c.054.217.114.436.18.652.018.062.037.124.057.188.026.083.054.167.082.248v0s0,.007,0,.01c.021.064.044.126.065.188,0,.018.011.036.018.054.02.054.039.106.057.158.01.025.018.049.028.074a.014.014,0,0,0,0,.01.369.369,0,0,0,.016.047c.018.051.038.1.059.15,0,.015.01.031.016.046.028.077.059.152.091.227.06.149.122.294.188.439.007.015.013.031.02.044s.016.036.025.054.024.056.038.083.026.059.041.087c.033.072.067.144.1.216a.109.109,0,0,1,.011.025c.015.031.029.064.046.095.046.091.091.181.141.271l.039.072s0,.006,0,.01c.033.062.065.124.1.188h0c.047.088.1.178.15.266s.1.176.155.265c.034.055.069.111.1.168a.248.248,0,0,0,.023.034c.015.023.028.044.042.065.025.038.046.077.072.114s.054.088.083.131h0c.023.034.046.07.072.1l.028.044.069.1c.016.024.036.051.054.075.039.057.08.114.121.17v0c.029.042.062.083.091.124.068.093.137.186.207.276v0c.013.018.026.036.041.054l.114.147s0,.005,0,.007c.059.073.118.147.176.219,0,0,0,0,0,.007a.225.225,0,0,0,.026.031c.034.041.065.08.1.119s.044.051.064.075c.065.077.132.154.2.23.024.026.047.054.072.082.056.062.111.122.168.183.023.024.044.051.067.073h0c.054.054.106.111.16.165s.082.083.122.124a.078.078,0,0,0,.016.016c.016.016.033.033.049.047.075.075.15.15.227.222.016.015.033.033.049.047l.011.01s0,0,.007,0,.015.016.024.024c.031.029.062.06.093.087l.062.056c.106.1.214.191.323.286l.013.011a.854.854,0,0,0,.073.064c.029.024.06.051.09.073.1.082.2.165.3.245.025.02.051.041.077.06l.126.095c.129.1.256.193.389.286l.013.008c.072.052.145.1.217.153l.248.167.065.044a.014.014,0,0,0,.01,0c.072.047.144.093.217.139l.016.01c.111.07.225.137.338.2l.087.05c.041.025.082.046.122.07.1.057.2.114.309.168.157.083.313.167.47.243q.4.2.826.372c.186.077.374.15.565.219s.382.135.573.2.389.121.585.173l.028,0,4.391.493.026,0h.006c.42-.016.833-.054,1.241-.106.054-.006.106-.015.155-.02.111-.015.211-.029.3-.044l.1-.015.083-.015a14.52,14.52,0,0,0,3.093-.9q.482-.2.945-.433a14.794,14.794,0,0,0,1.86-1.11c.2-.14.4-.284.586-.433a15.234,15.234,0,0,0,1.509-1.341c.246-.248.482-.506.71-.771s.423-.51.622-.776c.026-.033.049-.065.073-.1s.062-.083.09-.124c.054-.072.1-.147.158-.22l.013-.018c.047-.072.1-.142.145-.214s.1-.153.152-.232c.037-.057.073-.114.109-.173.074-.114.144-.23.214-.346.034-.06.07-.121.1-.18.049-.083.1-.168.144-.255.09-.162.178-.327.26-.495l.033-.062.054-.113h0l.008-.015c.01-.018.026-.054.049-.1.064-.131.122-.266.181-.4.034-.073.065-.148.1-.224l.044-.1s0,0,0,0c.011-.028.024-.055.034-.083s.024-.056.034-.083.015-.038.023-.056c.062-.152.119-.305.175-.459.01-.028.021-.057.031-.085a.031.031,0,0,0,0-.016c.029-.082.057-.162.083-.247,0-.008.005-.015.008-.025s.015-.044.023-.064.018-.059.028-.088.025-.08.038-.119c0-.015.01-.033.015-.047s0-.007,0-.01c.01-.028.018-.059.028-.088s.018-.062.028-.091h0c.008-.028.015-.052.023-.078s.018-.06.026-.088c.015-.049.028-.1.039-.144a.448.448,0,0,0,.013-.044l.024-.09c.024-.09.046-.18.069-.271.013-.059.028-.116.043-.175.02-.087.039-.175.057-.26.015-.065.028-.134.042-.2.005-.026.01-.054.015-.082a.011.011,0,0,1,0-.01c.006-.031.011-.062.018-.091.012-.062.023-.121.033-.181v-.005c.01-.062.021-.124.031-.188v0c0-.031.01-.062.015-.091.01-.062.02-.122.028-.184,0-.034.01-.07.015-.1,0,0,0-.01,0-.015.011-.087.025-.173.034-.26v-.015c.008-.054.013-.111.02-.165s.01-.083.013-.127.011-.111.015-.168v0c0-.054.01-.111.015-.167,0-.039.007-.08.008-.119l.01-.134c0-.034,0-.069.006-.1s0-.072,0-.106c0-.06.005-.119.008-.178q0-.054,0-.108c0-.057,0-.114,0-.173v-.361c0-.119,0-.222-.007-.323Zm-14.616,8.783a8.387,8.387,0,0,1-4.632-1.385,8.272,8.272,0,0,1-2.7-10.969q.179-.318.382-.616a8.264,8.264,0,0,1,.823-1.022,8.391,8.391,0,0,1,2.524-1.835c.165-.078.333-.15.5-.217a8.479,8.479,0,0,1,7.328.54,8.3,8.3,0,0,1,4.165,7.108v.082a8.326,8.326,0,0,1-5.573,7.838,8.463,8.463,0,0,1-2.815.478Z" transform="translate(-758.709 -663.45)" fill="#8cc9da"/>
          <path id="Pfad_8324" data-name="Pfad 8324" d="M853.89,663.5q.615.024,1.218.1" transform="translate(-838.348 -663.482)" fill="none" stroke="#fff" stroke-linecap="round" stroke-miterlimit="10" stroke-width="1.42"/>
          <path id="Pfad_8325" data-name="Pfad 8325" d="M826.472,665.979l-3.738,5.784a8.479,8.479,0,0,0-7.328-.541c-.17.067-.338.14-.5.217L811.94,664.8l.051-.025c.095-.046.193-.09.289-.132l.008,0q.074-.034.147-.064l.132-.057.018-.007.044-.02.062-.024.2-.082h0a.105.105,0,0,1,.029-.011c.039-.016.078-.031.118-.046.072-.028.147-.055.22-.082a.064.064,0,0,1,.024-.01c.031-.013.062-.024.092-.034a.322.322,0,0,1,.057-.018,1.3,1.3,0,0,1,.135-.046l.062-.021a.872.872,0,0,1,.091-.029l.134-.044.072-.023c.044-.015.088-.028.132-.041.02-.007.039-.011.059-.016a.1.1,0,0,1,.024-.006l.144-.042a.05.05,0,0,1,.021-.005c.07-.021.14-.039.212-.057a.443.443,0,0,1,.049-.013.176.176,0,0,1,.042-.01c.049-.015.1-.028.15-.039l.033-.008c.042-.01.082-.02.122-.028h0c.111-.026.224-.049.335-.072a.1.1,0,0,0,.021,0c.026-.007.054-.011.082-.016l.248-.046c.02,0,.041-.007.06-.01l.276-.046c.023,0,.044-.006.065-.01.064-.01.129-.02.193-.028s.1-.015.153-.021a.215.215,0,0,0,.034,0l.235-.028c.044,0,.083-.01.126-.013.018,0,.034,0,.054,0,.065-.006.131-.011.2-.016l.188-.015c.02,0,.039,0,.06,0s.028,0,.044,0c.07,0,.14-.01.214-.011a.285.285,0,0,0,.052,0c.109,0,.217-.008.328-.01.233,0,.467,0,.7,0,.1,0,.206.007.307.011.083,0,.168.008.251.015.062,0,.121.008.18.013a.1.1,0,0,1,.031,0c.087.005.172.013.256.023s.186.018.279.029.185.023.276.034.155.021.233.034c.028,0,.056.008.083.013.065.01.132.021.2.033.082.013.162.028.245.044.2.039.4.082.6.129.028.007.056.013.083.021l.266.065c.131.034.26.07.39.109.065.018.132.038.2.059.042.011.082.024.121.038.095.029.188.062.281.091s.2.069.3.1l.046.016.281.106c.1.041.206.082.307.124.2.083.405.175.6.269.1.046.2.095.3.144.08.039.158.08.235.121.292.152.58.313.861.488l.212.132.018.011c.055.034.111.069.165.106.088.07.18.131.271.194Z" transform="translate(-803.248 -663.389)" fill="#3b3b4d"/>
          <path id="Pfad_8326" data-name="Pfad 8326" d="M788.663,720.511c0,.041,0,.08,0,.121v.106c0,.059,0,.116,0,.173a.808.808,0,0,1,0,.108c0,.06,0,.119-.008.178,0,.034,0,.072,0,.106s0,.07-.007.1l-.01.134c0,.039,0,.08-.008.119s-.01.111-.015.167v0c0,.055-.008.111-.015.168-.01.1-.021.2-.033.292v.015c-.011.091-.024.183-.036.274s-.028.194-.044.289c0,.031-.01.062-.015.092l-.031.191v0c-.016.092-.034.183-.051.274,0,0,0,.007,0,.01-.073.38-.16.754-.263,1.122-.021.078-.044.155-.065.232-.006.026-.015.051-.023.077h0c-.01.033-.018.062-.028.091s-.018.06-.028.088-.011.039-.018.059c-.013.039-.025.08-.038.119s-.033.1-.049.152c0,.008,0,.015-.008.025-.028.083-.054.163-.083.247-.011.034-.025.069-.036.1-.055.155-.113.307-.175.459l-.093.229c-.013.034-.028.069-.044.1-.031.075-.064.15-.1.224-.059.136-.119.269-.181.4-.024.049-.041.083-.049.1s-.006.013-.008.015h0c-.029.061-.059.119-.087.178-.083.167-.171.331-.26.495-.046.085-.095.17-.144.255-.034.06-.069.121-.1.18-.069.118-.141.233-.214.346-.034.059-.072.116-.109.173-.047.078-.1.155-.152.232s-.1.142-.145.214l-.013.018c-.054.073-.1.148-.158.22s-.109.15-.163.222a15.067,15.067,0,0,1-6.207,4.848,14.441,14.441,0,0,1-5.019,1.107c-.194.01-.39.013-.586.013a14.617,14.617,0,0,1-2.745-.26l-.067-.015c-.234-.044-.465-.1-.694-.153-.008,0-.016,0-.024,0-.091-.025-.183-.046-.274-.072a14.39,14.39,0,0,1-2.1-.743c-.08-.034-.158-.072-.235-.106-.313-.145-.619-.3-.919-.469-.075-.042-.15-.083-.225-.127s-.149-.085-.22-.131-.147-.088-.219-.134-.145-.09-.217-.139c0,0-.007,0-.01,0-.18-.119-.359-.238-.532-.363-.09-.062-.178-.127-.266-.193s-.175-.131-.261-.2-.158-.124-.237-.188a.626.626,0,0,1-.049-.043c-.06-.049-.121-.1-.178-.15q-.037-.029-.074-.064c-.072-.062-.142-.121-.214-.186s-.122-.111-.185-.167c-.031-.028-.062-.057-.093-.087a.342.342,0,0,1-.025-.024s0,0-.006-.005c-.059-.055-.118-.111-.176-.168a.085.085,0,0,1-.018-.016l-.144-.142a.078.078,0,0,1-.016-.016c-.059-.06-.117-.121-.176-.178-.043-.044-.083-.085-.124-.131a.506.506,0,0,1-.049-.054l-.17-.186c-.118-.127-.229-.256-.338-.387l-.1-.119-.055-.069c-.044-.051-.083-.1-.122-.154a.483.483,0,0,1-.034-.044l-.114-.147a.46.46,0,0,1-.041-.054c-.047-.062-.1-.124-.142-.189s-.085-.116-.127-.176l-.029-.039v0l-.118-.168c-.01-.013-.018-.028-.028-.041l-.1-.14a.4.4,0,0,1-.028-.044.142.142,0,0,1-.016-.026c-.039-.059-.077-.118-.114-.176,0,0-.005-.005-.005-.005a.341.341,0,0,1-.021-.031.273.273,0,0,1-.025-.041c-.029-.046-.059-.093-.088-.141-.008-.011-.015-.024-.023-.034-.038-.062-.075-.121-.111-.185-.088-.147-.175-.3-.256-.447-.007-.01-.012-.02-.016-.028-.036-.065-.072-.131-.106-.2,0,0,0,0,0-.006a.139.139,0,0,1-.011-.021s0-.007,0-.01c-.034-.064-.065-.129-.1-.193a.12.12,0,0,1-.013-.024c-.038-.073-.075-.149-.111-.222a.11.11,0,0,1-.011-.025c-.031-.065-.062-.131-.091-.2l-.01-.021c-.015-.028-.028-.057-.041-.086a.747.747,0,0,1-.036-.082c-.01-.018-.016-.037-.026-.055-.038-.082-.073-.163-.108-.247-.021-.051-.044-.1-.064-.152-.013-.028-.026-.057-.036-.085a.374.374,0,0,1-.018-.046c-.013-.034-.028-.067-.041-.1s-.023-.054-.033-.082a.214.214,0,0,1-.016-.046c-.021-.049-.041-.1-.059-.15-.006-.02-.015-.039-.023-.059s-.018-.049-.028-.073c-.018-.052-.037-.1-.057-.158-.006-.018-.013-.036-.018-.054l-.044-.131c-.01-.023-.015-.044-.025-.065v0c-.028-.082-.054-.165-.082-.248-.02-.062-.039-.124-.057-.188-.065-.216-.126-.433-.18-.652-.02-.072-.038-.147-.054-.22s-.038-.154-.054-.23-.039-.178-.057-.269h0c-.023-.1-.043-.207-.062-.314s-.042-.23-.06-.344c-.015-.095-.029-.189-.044-.286s-.028-.193-.039-.289-.021-.178-.029-.266c-.008-.067-.015-.135-.02-.2a.962.962,0,0,1-.01-.1c-.007-.054-.01-.106-.015-.16l-.015-.194c0-.041,0-.082-.008-.122,0-.091-.01-.185-.013-.276v0c0-.069,0-.14-.007-.207,0-.041,0-.08,0-.121v-.335c0-.1,0-.206,0-.307v-.129c0-.083,0-.165.01-.247,0-.028,0-.054,0-.082,0-.1.01-.191.016-.287a.2.2,0,0,1,0-.044c0-.042,0-.083.01-.123q.01-.147.024-.289a.087.087,0,0,1,0-.029.08.08,0,0,1,0-.028c0-.057.011-.113.018-.17,0-.041.01-.08.015-.119s.008-.07.011-.1l.01-.072c0-.044.011-.087.018-.131,0-.018,0-.034.006-.052s.008-.054.011-.082.008-.052.011-.078l.015-.1c0-.031.01-.062.015-.091a.12.12,0,0,1,0-.026.029.029,0,0,1,0-.016c.006-.041.013-.082.021-.121v0c.006-.036.013-.072.02-.109l0-.025v0c.01-.055.021-.111.033-.168,0-.026.01-.052.015-.077.008-.044.016-.083.026-.126l.02-.091.02-.091c.015-.065.029-.132.046-.2,0-.015.007-.028.01-.044.008-.037.016-.073.028-.111s.015-.069.025-.1c.015-.057.029-.116.046-.175.008-.028.015-.055.024-.083a.054.054,0,0,1,0-.015l.015-.052c.01-.041.021-.08.033-.119s.016-.06.026-.09.01-.034.015-.054c0,0,0,0,0-.007.013-.044.026-.083.038-.127s.034-.109.051-.165c.01-.028.018-.055.028-.085v0c.01-.029.018-.059.028-.088a.012.012,0,0,1,0-.01c0-.015.01-.033.016-.047.013-.039.026-.078.039-.119s.021-.057.029-.087.021-.057.031-.086c.031-.086.062-.173.095-.26.01-.028.023-.057.034-.085.02-.052.041-.1.062-.157.046-.121.095-.237.144-.354.012-.028.025-.056.036-.083s.015-.034.025-.052a.253.253,0,0,0,.013-.031c.033-.072.065-.147.1-.217l.015-.034c.072-.158.147-.315.225-.472.024-.047.044-.083.052-.1a.025.025,0,0,0,0-.01v0h0c.011-.023.025-.046.036-.069s.013-.028.021-.043h0l6.151,3.4a8.263,8.263,0,0,0,1.553,10.06,8.05,8.05,0,0,0,1.15.909,8.393,8.393,0,0,0,13.022-6.933v-.082l.32,0,5.911.069h0Z" transform="translate(-758.777 -704.974)" fill="#0b75aa"/>
          <path id="Pfad_8327" data-name="Pfad 8327" d="M769.383,711.38l-3.627,5.961-.01,0c-.18-.119-.359-.238-.532-.362-.09-.062-.178-.127-.266-.193s-.175-.131-.261-.2-.158-.124-.237-.188a.628.628,0,0,1-.049-.043c-.06-.049-.121-.1-.178-.15q-.037-.029-.074-.064c-.072-.062-.142-.121-.214-.186s-.122-.111-.184-.167c-.031-.028-.062-.057-.093-.087a.12.12,0,0,1-.024-.024s0,0-.006,0l-.012-.01c-.055-.052-.111-.1-.163-.158a.085.085,0,0,1-.018-.016l-.144-.142a.086.086,0,0,1-.016-.016c-.042-.042-.083-.083-.122-.124l-.052-.054c-.042-.044-.083-.085-.124-.131a.5.5,0,0,1-.049-.054c-.057-.062-.113-.122-.17-.186-.118-.127-.229-.256-.338-.387l-.1-.119c-.01-.01-.018-.021-.026-.031s-.021-.025-.029-.038c-.044-.051-.083-.1-.122-.154s-.1-.126-.15-.189a.481.481,0,0,1-.041-.054c-.047-.062-.1-.124-.142-.189s-.085-.116-.127-.176-.1-.14-.149-.209-.083-.121-.124-.181a.4.4,0,0,1-.028-.044.143.143,0,0,1-.016-.026c-.039-.059-.077-.118-.114-.176,0,0,0,0,0,0-.015-.024-.029-.046-.046-.072-.029-.046-.059-.093-.088-.141-.008-.011-.015-.024-.023-.034-.038-.062-.075-.121-.111-.185-.088-.147-.175-.3-.256-.447-.042-.073-.083-.15-.122-.227,0,0,0,0,0-.006-.039-.074-.078-.149-.116-.224a.112.112,0,0,1-.013-.024c-.074-.145-.145-.292-.216-.439,0-.006-.007-.013-.01-.021-.015-.028-.028-.057-.041-.086a.722.722,0,0,1-.036-.082c-.01-.018-.016-.038-.026-.055-.037-.082-.073-.163-.108-.247-.021-.051-.044-.1-.064-.152-.013-.028-.026-.057-.036-.085a.377.377,0,0,1-.018-.046c-.013-.034-.028-.067-.041-.1s-.023-.054-.033-.082a.216.216,0,0,1-.016-.046c-.026-.065-.051-.132-.075-.2-.037-.1-.072-.2-.108-.3l-.044-.13c-.008-.02-.015-.038-.021-.057,0,0,0,0,0-.01v0c-.028-.082-.054-.165-.082-.248-.019-.062-.039-.124-.057-.188-.065-.216-.126-.433-.18-.652-.02-.072-.038-.147-.054-.22s-.038-.154-.054-.23-.039-.178-.057-.269h0c-.023-.1-.042-.207-.062-.313s-.042-.23-.06-.345c-.015-.095-.029-.189-.044-.286s-.028-.193-.039-.289-.021-.178-.029-.266c-.008-.067-.015-.136-.02-.2a.974.974,0,0,1-.01-.1c-.007-.054-.01-.106-.015-.16l-.015-.194c0-.041,0-.082-.008-.122,0-.091-.01-.185-.013-.276v0c0-.069,0-.14-.006-.207,0-.041,0-.08,0-.121v-.335c0-.1,0-.206,0-.307v-.129c0-.083,0-.165.01-.247,0-.028,0-.054,0-.082,0-.1.01-.191.016-.287a.2.2,0,0,1,0-.044c0-.042,0-.083.01-.122q.01-.147.025-.289a.086.086,0,0,1,0-.029.08.08,0,0,1,0-.028c0-.057.011-.113.018-.17l.015-.119c0-.034.008-.07.011-.1l.01-.072c0-.044.011-.086.018-.131,0-.018,0-.034.007-.052s.008-.054.011-.082.008-.052.011-.078l.015-.1.015-.091a.127.127,0,0,1,0-.026.029.029,0,0,1,0-.016c.006-.041.013-.082.021-.121v0c.007-.036.013-.072.019-.109l0-.025v0c.01-.056.021-.111.033-.168,0-.026.01-.052.015-.077.008-.044.016-.083.026-.126s.013-.062.02-.091.013-.062.02-.091c.015-.065.029-.132.046-.2,0-.015.007-.028.01-.044.008-.038.016-.073.028-.111s.015-.069.024-.1c.015-.057.029-.116.046-.175.008-.028.015-.055.024-.083a.053.053,0,0,1,0-.015l.015-.052c.01-.041.021-.08.033-.119s.016-.06.026-.09.01-.034.015-.054c0,0,0,0,0-.007.013-.044.026-.083.038-.127s.034-.109.051-.165c.01-.028.018-.056.028-.085v0c.01-.029.018-.059.028-.088a.012.012,0,0,1,0-.01c0-.015.01-.033.016-.047.013-.039.026-.078.039-.119s.021-.057.029-.087.021-.057.031-.086c.031-.087.062-.173.095-.26.01-.028.023-.057.034-.085.02-.052.041-.1.062-.157.046-.121.095-.237.144-.354.011-.028.025-.055.036-.083s.015-.034.025-.052a.262.262,0,0,0,.013-.031c.033-.072.065-.147.1-.217l.015-.034c.072-.158.147-.315.225-.472.024-.047.044-.083.052-.1,0,0,0,0,0,0v-.011h0c.011-.023.024-.046.036-.069s.013-.028.021-.042.016-.031.026-.046c.041-.078.082-.157.124-.233l.1-.185.016-.029c.028-.049.056-.1.083-.147.015-.024.028-.049.044-.073.029-.047.059-.1.088-.145a.081.081,0,0,1,.01-.015c.13-.217.268-.433.411-.643q.265-.4.557-.772c.227-.294.465-.581.714-.857l0,0,5.173,4.913a8.542,8.542,0,0,0-.823,1.022q-.2.3-.382.616a8.263,8.263,0,0,0,1.553,10.06,7.607,7.607,0,0,0,1.145.916Z" transform="translate(-758.752 -688.884)" fill="#c62020"/>
          <path id="Pfad_8328" data-name="Pfad 8328" d="M783.469,676.368c-.17.067-.338.14-.5.217a8.37,8.37,0,0,0-2.524,1.835,8.537,8.537,0,0,0-.823,1.022l-5.849-3.964c.047-.073.1-.149.145-.222s.1-.147.149-.219c.1-.15.207-.3.315-.441.034-.044.065-.088.1-.132.057-.077.116-.152.176-.227s.134-.17.2-.255.116-.14.176-.209.1-.114.149-.17q.039-.047.083-.093c.036-.042.073-.083.111-.124.059-.065.119-.131.178-.194.042-.044.083-.088.127-.132.028-.028.054-.057.083-.083.052-.054.1-.106.158-.158.157-.157.313-.305.477-.451.057-.054.114-.1.173-.153.02-.02.041-.036.06-.054.083-.072.165-.142.25-.212s.145-.121.219-.178c.038-.031.077-.062.114-.09.054-.044.109-.085.163-.127s.088-.065.132-.1c.142-.106.289-.212.438-.314.046-.033.093-.065.14-.1s.111-.075.167-.111l.126-.082q.237-.152.48-.294l.14-.083q.294-.169.6-.323c.083-.044.168-.083.251-.126.046-.025.095-.046.142-.069l.051-.024c.095-.046.193-.09.289-.132l.008,0q.074-.034.147-.064l.132-.057.018-.007.044-.02.062-.024.051-.021.152-.06h0l2.515,6.833Z" transform="translate(-771.311 -668.536)" fill="#f4aa08"/>
          <path id="Pfad_8329" data-name="Pfad 8329" d="M804.285,803.682a14.446,14.446,0,0,1-5.019,1.107c-.194.01-.39.013-.586.013a14.612,14.612,0,0,1-2.745-.26l-.067-.015c-.234-.044-.465-.1-.694-.153-.008,0-.016,0-.024,0-.091-.024-.183-.046-.274-.072a14.384,14.384,0,0,1-2.1-.743c-.08-.034-.158-.072-.235-.106-.313-.145-.619-.3-.919-.469-.075-.042-.15-.083-.225-.127s-.149-.085-.22-.131-.147-.088-.219-.134-.145-.09-.217-.139c0,0-.006,0-.01,0-.18-.119-.359-.238-.532-.362-.09-.062-.178-.127-.266-.193s-.175-.131-.261-.2-.158-.124-.237-.188a.613.613,0,0,1-.049-.042c-.06-.049-.121-.1-.178-.15q-.037-.029-.073-.064c-.072-.062-.142-.121-.214-.186s-.122-.111-.185-.167l-.093-.087a.333.333,0,0,1-.024-.025l4.6-5.2a8.043,8.043,0,0,0,1.15.91,8.463,8.463,0,0,0,7.449.9l2.467,6.29Z" transform="translate(-783.736 -773.995)" fill="#419f81"/>
          <path id="Pfad_8330" data-name="Pfad 8330" d="M788.642,678.548q-.012-.588-.065-1.164a15.73,15.73,0,0,0-.674-3.331,15.481,15.481,0,0,0-3.868-6.317c-.18-.178-.366-.353-.555-.521-.082-.072-.165-.145-.248-.217s-.168-.14-.253-.211-.15-.121-.227-.183c-.015-.01-.028-.023-.044-.033-.07-.055-.14-.109-.212-.163-.168-.124-.338-.247-.511-.366-.092-.062-.183-.124-.276-.185-.054-.038-.109-.072-.165-.106a.054.054,0,0,0-.018-.011c-.07-.046-.14-.09-.212-.132-.281-.173-.567-.335-.86-.488-.078-.042-.157-.082-.235-.121-.1-.049-.2-.1-.3-.144-.2-.095-.4-.184-.6-.269-.1-.044-.206-.083-.307-.124l-.281-.106c-.015-.007-.031-.011-.046-.016-.1-.036-.2-.072-.3-.1s-.186-.062-.281-.092l-.121-.037c-.065-.021-.131-.041-.2-.059-.131-.039-.26-.075-.39-.109-.088-.025-.178-.046-.266-.065-.028-.008-.056-.015-.083-.021-.2-.046-.4-.09-.6-.129-.082-.015-.162-.031-.245-.044-.065-.011-.132-.024-.2-.033-.028,0-.054-.01-.083-.013-.078-.013-.155-.025-.234-.034s-.185-.024-.276-.034-.186-.021-.279-.029-.17-.016-.256-.023a.067.067,0,0,0-.031,0c-.06,0-.121-.01-.18-.013-.083-.006-.168-.01-.251-.015-.1,0-.2-.01-.307-.011-.232-.007-.464-.008-.7,0-.122,0-.246.007-.367.013h-.013c-.034,0-.067,0-.1.007-.052,0-.1,0-.155.008-.021,0-.041,0-.06,0l-.188.015c-.065,0-.132.01-.2.016-.018,0-.034,0-.054,0a.278.278,0,0,0-.036,0c-.109.01-.217.025-.325.036a.223.223,0,0,0-.034,0c-.091.011-.186.024-.276.039-.024,0-.046,0-.069.01s-.044.007-.065.01c-.091.015-.184.029-.276.046-.02.005-.041.007-.06.01-.111.02-.219.042-.328.064a.1.1,0,0,0-.021,0c-.111.024-.225.046-.335.072h0s-.007,0-.01,0c-.1.023-.2.046-.3.072a.134.134,0,0,0-.042.01l-.049.013c-.072.018-.14.036-.212.057a.1.1,0,0,0-.021,0c-.047.013-.1.026-.144.042a.183.183,0,0,0-.025.007c-.02,0-.039.01-.059.016-.044.013-.088.026-.132.041-.025.006-.049.015-.072.023-.046.013-.09.028-.134.044s-.062.018-.091.029a.4.4,0,0,0-.062.021.376.376,0,0,0-.06.02.57.57,0,0,0-.075.028c-.051.015-.1.033-.15.052a.051.051,0,0,0-.024.01c-.074.025-.149.052-.22.082-.039.015-.078.028-.118.046l-.029.01h0l-.152.06-.051.021-.062.025-.044.02c-.006,0-.011,0-.018.006l-.132.057-.147.064-.008.005c-.1.044-.194.087-.289.132a.359.359,0,0,0-.051.024l-.142.069-.252.126c-.2.1-.4.211-.6.323-.047.028-.095.054-.14.083-.162.093-.323.193-.48.294l-.126.082c-.055.034-.111.072-.167.111s-.095.064-.14.1c-.149.1-.294.207-.438.314-.044.034-.088.065-.132.1s-.109.083-.163.127c-.038.028-.077.059-.114.09-.073.059-.147.119-.219.178s-.167.14-.25.212c-.02.016-.041.034-.06.054-.059.049-.116.1-.173.154-.162.145-.322.294-.477.451-.054.052-.106.1-.158.158l-.083.083c-.044.044-.085.088-.127.132-.062.064-.121.129-.178.194l-.111.124c-.029.031-.059.062-.083.093-.049.056-.1.113-.149.17s-.119.14-.176.209-.139.17-.2.255-.121.15-.176.227c-.034.044-.065.088-.1.132-.108.144-.214.292-.315.441-.024.033-.046.065-.068.1s-.054.082-.08.121c-.049.073-.1.149-.145.222-.065.1-.132.209-.2.315-.044.072-.088.145-.131.219-.028.047-.056.1-.083.147l-.016.029-.1.185c-.007.013-.013.026-.02.037-.036.065-.07.131-.1.2l-.024.046c-.007.015-.015.028-.023.042l-.039.078v0c-.038.072-.072.142-.108.216-.06.121-.117.24-.173.362l-.015.034c-.044.1-.088.2-.131.3a.111.111,0,0,0-.01.024c-.046.106-.092.214-.134.323s-.091.227-.134.343c-.031.082-.062.163-.091.247l-.015.042c-.021.057-.041.114-.06.173s-.034.1-.049.147c-.01.028-.02.057-.029.086v0c-.011.037-.024.075-.034.113s-.029.091-.044.139-.024.083-.038.127c0,0,0,0,0,.006l-.024.088c-.023.073-.044.15-.064.225a.052.052,0,0,1,0,.015c-.005.011-.007.025-.01.034-.024.091-.049.183-.072.276a.52.52,0,0,0-.013.051.333.333,0,0,0-.008.034c-.025.093-.046.188-.065.284,0,.011-.006.025-.01.034-.006.029-.013.062-.02.091s-.013.062-.02.091-.018.083-.026.126l-.015.077c-.01.047-.018.1-.028.145,0,.016-.006.034-.01.051-.007.036-.013.072-.02.109v0c-.008.041-.015.082-.021.121a.029.029,0,0,1,0,.016.177.177,0,0,1,0,.026c-.01.062-.021.126-.029.189,0,.026-.008.052-.011.078s-.008.054-.011.082a.5.5,0,0,0-.007.052c-.01.065-.02.134-.028.2,0,.034-.01.069-.012.1-.013.1-.024.209-.034.313a.09.09,0,0,1,0,.029q-.015.145-.024.289c0,.041-.007.082-.01.122,0,.015,0,.029,0,.044-.008.1-.013.191-.016.287-.006.127-.011.253-.015.382v.077c0,.1,0,.206,0,.307v.335a1,1,0,0,0,0,.121c0,.069,0,.14.007.207v0c0,.091.008.184.013.276,0,.042,0,.083.008.122l.015.194c0,.054.008.106.015.16a.711.711,0,0,0,.01.1c0,.067.011.136.02.2.01.088.019.178.029.266s.024.194.039.289.028.191.044.286c.018.116.039.232.06.344s.039.209.062.312h0c.018.091.038.18.057.271s.034.154.054.23.034.149.054.22c.054.217.114.436.18.652.018.062.038.124.057.188.026.083.054.167.082.248v0s0,.006,0,.01c.021.064.044.126.065.188,0,.018.011.036.018.054.02.054.039.106.057.158.01.025.018.049.028.073a.014.014,0,0,0,0,.01.407.407,0,0,0,.016.047c.018.051.038.1.059.15,0,.015.01.031.016.046s.021.054.033.082.028.067.041.1a.489.489,0,0,0,.018.046c.01.028.024.057.036.085.021.051.044.1.064.152.034.083.07.165.108.247.01.018.016.038.026.056s.024.054.036.082.026.059.041.087c.033.072.067.144.1.216a.111.111,0,0,1,.011.024c.015.031.029.064.046.095s.044.085.065.127.047.1.072.144l.039.072s0,.007,0,.01.007.015.011.021,0,0,0,.007l.083.16h0c.008.013.015.024.023.036.042.077.083.154.127.229s.1.176.155.265l.1.168a.241.241,0,0,0,.023.034l.088.141a.273.273,0,0,0,.024.041.369.369,0,0,0,.021.031,0,0,0,0,0,0,0c.018.033.039.064.061.095h0c.018.028.036.054.054.08a.145.145,0,0,0,.016.026l.028.044.069.1c.01.011.018.024.028.038.046.07.1.14.145.207v0c.051.072.1.142.158.214s.095.127.142.189c.013.018.026.036.041.054l.114.147c.062.08.122.158.188.234a.226.226,0,0,0,.026.031c.034.041.065.08.1.119.109.131.22.26.338.387l.17.186c.015.018.031.034.049.054a.172.172,0,0,1,.015.018h0c.054.054.106.111.16.165s.082.083.122.124a.075.075,0,0,0,.016.016l.144.142a.056.056,0,0,0,.018.016c.054.054.108.106.163.158l.011.01s0,0,.006,0,.015.016.025.025c.031.029.062.06.093.086.062.056.121.111.185.167s.14.124.214.186a.867.867,0,0,0,.073.064l.178.15c.015.015.033.028.049.042l.237.188c.087.067.175.134.261.2s.176.13.266.193c.175.126.353.247.532.362a.014.014,0,0,0,.01,0c.072.047.144.093.217.139s.145.09.219.134.147.088.22.13.15.085.225.127c.222.124.449.243.678.354.082.039.16.077.242.113s.157.072.235.106c.116.054.232.1.348.152.186.077.374.15.565.219s.381.134.573.2.389.121.585.173c.082.023.185.047.3.075.008,0,.016,0,.025,0,.212.049.464.1.694.154l.067.015c.338.072.609.126.609.126a13.917,13.917,0,0,0,2.748.122c.56-.026,1.043-.078,1.4-.126.111-.015.211-.029.3-.044l.1-.015.083-.015a14.521,14.521,0,0,0,3.093-.9q.483-.2.945-.433a14.8,14.8,0,0,0,1.86-1.11q.3-.21.586-.433a15.219,15.219,0,0,0,1.509-1.341c.247-.248.482-.506.71-.771s.423-.509.622-.776c.026-.033.049-.065.073-.1s.062-.083.09-.124c.054-.072.1-.147.158-.22l.013-.018c.047-.072.1-.142.145-.214s.1-.153.152-.232c.038-.057.073-.114.109-.173.073-.114.144-.23.214-.346.034-.06.07-.121.1-.18.049-.083.1-.168.144-.255.09-.162.178-.327.26-.495.011-.021.023-.042.033-.062l.054-.113h0l.008-.015c.01-.018.026-.054.049-.1.064-.131.122-.266.181-.4.034-.073.065-.149.1-.224l.044-.1s0,0,0,0c.011-.028.025-.055.034-.083s.025-.056.034-.083.015-.038.023-.056c.062-.152.119-.305.175-.459.01-.028.021-.057.031-.085a.032.032,0,0,0,0-.016c.029-.082.057-.162.083-.247,0-.008,0-.015.008-.025s.015-.044.023-.064.018-.059.028-.088.025-.078.036-.119c0-.015.01-.033.015-.047s0-.006,0-.01c.01-.028.018-.059.028-.088s.018-.06.028-.092h0c.008-.028.015-.052.023-.078s.018-.06.026-.088c.015-.049.028-.1.039-.144,0-.015.01-.029.013-.044l.025-.09c.025-.09.046-.18.069-.271.013-.059.028-.116.042-.175.02-.087.039-.175.057-.26.015-.065.028-.134.042-.2,0-.026.01-.054.015-.082a.011.011,0,0,1,0-.01c.007-.031.011-.062.018-.091.011-.062.023-.121.033-.181v0c.01-.062.021-.124.031-.188v0l.015-.091c.01-.062.02-.122.028-.184,0-.034.01-.07.015-.1,0,0,0-.01,0-.015.012-.087.025-.173.034-.26v-.015c.008-.054.013-.111.02-.165s.01-.083.013-.127.011-.111.015-.168v0c0-.054.01-.111.015-.167,0-.039.007-.08.008-.119s.006-.09.01-.134,0-.069.007-.1,0-.072,0-.106c0-.06,0-.119.008-.178q0-.054,0-.108c0-.057,0-.114,0-.173v-.691Zm-20.4,6.489a8.263,8.263,0,0,1-1.553-10.06q.179-.318.382-.616a8.264,8.264,0,0,1,.823-1.022,8.392,8.392,0,0,1,2.524-1.835c.165-.078.333-.15.5-.217a8.479,8.479,0,0,1,7.328.54,8.3,8.3,0,0,1,4.165,7.108v.082a8.325,8.325,0,0,1-5.573,7.838,8.4,8.4,0,0,1-8.6-1.816Z" transform="translate(-758.759 -663.45)" fill="none" stroke="#fff" stroke-miterlimit="10" stroke-width="2.32"/>
        </g>
        <path id="Pfad_8331" data-name="Pfad 8331" d="M902.193,687.194c-.028-.011-.056-.025-.083-.034.018.006.036.015.054.023l.029.013Z" transform="translate(-865.715 -680.062)" fill="#8cc9da"/>
        <path id="Pfad_8332" data-name="Pfad 8332" d="M906.5,694.792s3.057-3.159,3.543-3.124,2.293,0,2.293,0" transform="translate(-869.388 -683.834)" fill="none" stroke="#586063" stroke-linecap="round" stroke-linejoin="round" stroke-width="1.29"/>
        <path id="Pfad_8333" data-name="Pfad 8333" d="M914.48,814.62c.028,1.226.137,3.525.137,3.525h1.28" transform="translate(-876.065 -786.71)" fill="none" stroke="#586063" stroke-linecap="round" stroke-linejoin="round" stroke-width="1.29"/>
        <path id="Pfad_8334" data-name="Pfad 8334" d="M744.589,761.28c-.682.349-4.2,1.581-4.2,1.581H738.21" transform="translate(-728.578 -742.079)" fill="none" stroke="#586063" stroke-linecap="round" stroke-linejoin="round" stroke-width="1.29"/>
        <path id="Pfad_8335" data-name="Pfad 8335" d="M946.471,690.29h3.179c.111,0,.2.055.2.124v.361c0,.069-.091.124-.2.124h-3.179c-.111,0-.2-.056-.2-.124v-.361C946.27,690.345,946.36,690.29,946.471,690.29Z" transform="translate(-902.664 -682.681)" fill="#3b3b4d" opacity="0.76"/>
        <path id="Pfad_8336" data-name="Pfad 8336" d="M711.779,768.76h3.135c.111,0,.2.065.2.147v.426c0,.082-.09.147-.2.147h-3.135c-.111,0-.2-.065-.2-.147v-.426C711.58,768.825,711.67,768.76,711.779,768.76Z" transform="translate(-706.296 -748.338)" fill="#3b3b4d" opacity="0.76"/>
        <path id="Pfad_8337" data-name="Pfad 8337" d="M679.339,768.76h1.917a.126.126,0,0,1,.119.131v.457a.126.126,0,0,1-.119.13h-1.917a.126.126,0,0,1-.119-.13v-.457A.125.125,0,0,1,679.339,768.76Z" transform="translate(-679.22 -748.338)" fill="#3b3b4d" opacity="0.76"/>
        <path id="Pfad_8338" data-name="Pfad 8338" d="M697.181,768.891v.457c0,.072-.08.13-.178.13h-1.666c-.1,0-.178-.059-.178-.13v-.457c0-.072.08-.131.178-.131H697C697.1,768.76,697.181,768.819,697.181,768.891Z" transform="translate(-692.557 -748.338)" fill="#3b3b4d" opacity="0.76"/>
        <path id="Pfad_8339" data-name="Pfad 8339" d="M973.529,690.41h1.621a.107.107,0,0,1,.1.111v.385a.1.1,0,0,1-.1.111h-1.621a.107.107,0,0,1-.1-.111v-.385A.105.105,0,0,1,973.529,690.41Z" transform="translate(-925.39 -682.781)" fill="#3b3b4d" opacity="0.76"/>
        <path id="Pfad_8340" data-name="Pfad 8340" d="M988.628,690.531v.385c0,.062-.067.111-.15.111H987.07c-.083,0-.15-.051-.15-.111v-.385c0-.062.067-.111.15-.111h1.408C988.559,690.42,988.628,690.471,988.628,690.531Z" transform="translate(-936.677 -682.79)" fill="#3b3b4d" opacity="0.76"/>
        <g id="Gruppe_2612" data-name="Gruppe 2612" transform="translate(8.19 30.325)">
          <path id="Pfad_8341" data-name="Pfad 8341" d="M792.034,829.41c-.736.305-3.444,1.145-3.444,1.145" transform="translate(-778.922 -829.41)" fill="none" stroke="#586063" stroke-linecap="round" stroke-linejoin="round" stroke-width="1.29"/>
          <path id="Pfad_8342" data-name="Pfad 8342" d="M774.37,834.989v.38c0,.06.067.109.15.109h1.386c.082,0,.15-.049.15-.109v-.38c0-.06-.067-.109-.15-.109H774.52C774.439,834.88,774.37,834.929,774.37,834.989Z" transform="translate(-767.024 -833.987)" fill="#3b3b4d" opacity="0.76"/>
          <path id="Pfad_8343" data-name="Pfad 8343" d="M755.7,834.76h-2.613c-.091,0-.167.054-.167.121v.354c0,.067.073.121.167.121H755.7c.091,0,.167-.054.167-.121v-.354C755.866,834.814,755.792,834.76,755.7,834.76Z" transform="translate(-749.076 -833.886)" fill="#3b3b4d" opacity="0.76"/>
          <path id="Pfad_8344" data-name="Pfad 8344" d="M731.943,834.76h-2.415c-.082,0-.148.049-.148.109v.38c0,.06.067.109.148.109h2.415c.082,0,.15-.049.15-.109v-.38C732.094,834.809,732.027,834.76,731.943,834.76Z" transform="translate(-729.38 -833.886)" fill="#3b3b4d" opacity="0.76"/>
        </g>
        <g id="Gruppe_2613" data-name="Gruppe 2613" transform="translate(9.797)">
          <path id="Pfad_8345" data-name="Pfad 8345" d="M808.479,651.751l-4.647-4.541-1.752.007" transform="translate(-791.816 -646.635)" fill="none" stroke="#586063" stroke-linecap="round" stroke-linejoin="round" stroke-width="1.33"/>
          <path id="Pfad_8346" data-name="Pfad 8346" d="M786.36,643.841v.457a.151.151,0,0,0,.167.131h1.55a.153.153,0,0,0,.167-.131v-.457a.152.152,0,0,0-.167-.131h-1.55A.152.152,0,0,0,786.36,643.841Z" transform="translate(-778.663 -643.707)" fill="#3b3b4d" opacity="0.76"/>
          <path id="Pfad_8347" data-name="Pfad 8347" d="M762.956,643.69h-2.92a.171.171,0,0,0-.186.147v.428a.169.169,0,0,0,.186.147h2.92a.171.171,0,0,0,.186-.147v-.428A.17.17,0,0,0,762.956,643.69Z" transform="translate(-756.481 -643.69)" fill="#3b3b4d" opacity="0.76"/>
          <path id="Pfad_8348" data-name="Pfad 8348" d="M742.086,643.69h-2.7a.152.152,0,0,0-.167.131v.457a.151.151,0,0,0,.167.131h2.7a.152.152,0,0,0,.166-.131v-.457A.151.151,0,0,0,742.086,643.69Z" transform="translate(-739.22 -643.69)" fill="#3b3b4d" opacity="0.76"/>
        </g>
        <g id="Gruppe_2614" data-name="Gruppe 2614" transform="translate(3.961 7.426)">
          <path id="Pfad_8349" data-name="Pfad 8349" d="M765.463,692.839l-2.557-1.889H760.46" transform="translate(-751.156 -690.659)" fill="none" stroke="#586063" stroke-linecap="round" stroke-linejoin="round" stroke-width="1.29"/>
          <path id="Pfad_8350" data-name="Pfad 8350" d="M703.64,689.17h2.516c.088,0,.16.054.16.118v.343c0,.064-.072.118-.16.118H703.64c-.088,0-.16-.054-.16-.118v-.343C703.48,689.224,703.55,689.17,703.64,689.17Z" transform="translate(-703.48 -689.17)" fill="#3b3b4d" opacity="0.76"/>
          <path id="Pfad_8351" data-name="Pfad 8351" d="M727.164,689.17h2.329c.08,0,.144.047.144.1v.366c0,.059-.064.1-.144.1h-2.329c-.08,0-.144-.047-.144-.1v-.366C727.02,689.217,727.084,689.17,727.164,689.17Z" transform="translate(-723.176 -689.17)" fill="#3b3b4d" opacity="0.76"/>
          <path id="Pfad_8352" data-name="Pfad 8352" d="M746.4,689.276v.366c0,.059-.064.106-.144.106h-1.337c-.08,0-.144-.047-.144-.106v-.366c0-.059.064-.106.144-.106h1.337C746.341,689.17,746.4,689.217,746.4,689.276Z" transform="translate(-738.036 -689.17)" fill="#3b3b4d" opacity="0.76"/>
        </g>
        <path id="Pfad_8353" data-name="Pfad 8353" d="M957.643,834.08h2.732c.1,0,.173.057.173.127v.372c0,.07-.078.127-.173.127h-2.732c-.1,0-.173-.057-.173-.127v-.372C957.47,834.135,957.547,834.08,957.643,834.08Z" transform="translate(-912.036 -802.992)" fill="#3b3b4d" opacity="0.76"/>
        <path id="Pfad_8354" data-name="Pfad 8354" d="M929.393,834.08h1.669a.109.109,0,0,1,.1.114v.4a.11.11,0,0,1-.1.114h-1.669a.109.109,0,0,1-.1-.114v-.4A.108.108,0,0,1,929.393,834.08Z" transform="translate(-888.457 -802.992)" fill="#3b3b4d" opacity="0.76"/>
        <path id="Pfad_8355" data-name="Pfad 8355" d="M944.913,834.194v.4c0,.062-.07.114-.157.114h-1.45c-.086,0-.157-.052-.157-.114v-.4c0-.062.07-.114.157-.114h1.45C944.843,834.08,944.913,834.131,944.913,834.194Z" transform="translate(-900.054 -802.992)" fill="#3b3b4d" opacity="0.76"/>
      </g>
      <g id="Gruppe_2630" data-name="Gruppe 2630" transform="translate(49.216 49.975)">
        <g id="Gruppe_2622" data-name="Gruppe 2622" transform="translate(0 5.664)">
          <path id="Pfad_8356" data-name="Pfad 8356" d="M880.23,1103.819c0,.209,1.63.452,3.507.452s3.4-.17,3.4-.38-1.522-.38-3.4-.38-3.507.1-3.507.307Z" transform="translate(-845.221 -1073.688)" fill="#32323f" opacity="0.23"/>
          <path id="Pfad_8357" data-name="Pfad 8357" d="M827.56,1103.819c0,.209,1.63.452,3.507.452s3.4-.17,3.4-.38-1.522-.38-3.4-.38-3.507.1-3.507.307Z" transform="translate(-801.152 -1073.688)" fill="#32323f" opacity="0.23"/>
          <path id="Pfad_8358" data-name="Pfad 8358" d="M774.81,1103.819c0,.209,1.63.452,3.507.452s3.4-.17,3.4-.38-1.522-.38-3.4-.38-3.507.1-3.507.307Z" transform="translate(-757.015 -1073.688)" fill="#32323f" opacity="0.23"/>
          <path id="Pfad_8359" data-name="Pfad 8359" d="M719.8,1103.819c0,.209,1.63.452,3.507.452s3.4-.17,3.4-.38-1.522-.38-3.4-.38-3.507.1-3.507.307Z" transform="translate(-710.987 -1073.688)" fill="#32323f" opacity="0.23"/>
          <path id="Pfad_8360" data-name="Pfad 8360" d="M665.83,1103.819c0,.209,1.63.452,3.507.452s3.4-.17,3.4-.38-1.522-.38-3.4-.38-3.507.1-3.507.307Z" transform="translate(-665.83 -1073.688)" fill="#32323f" opacity="0.23"/>
          <g id="Gruppe_2616" data-name="Gruppe 2616" transform="translate(26.748 4.44)">
            <path id="Pfad_8361" data-name="Pfad 8361" d="M835.854,948.894l.012,24.094a.778.778,0,0,1-.7.836l-4.819,0a.775.775,0,0,1-.7-.834L829.64,948.9a.778.778,0,0,1,.7-.836l4.819,0A.775.775,0,0,1,835.854,948.894Z" transform="translate(-829.64 -948.06)" fill="#0267a4"/>
            <path id="Pfad_8362" data-name="Pfad 8362" d="M856.089,948.911l.011,24.094a.778.778,0,0,1-.7.836H854.37c-.41-4.614-.591-15.649-.537-25.761h1.559a.775.775,0,0,1,.7.833Z" transform="translate(-849.874 -948.077)" fill="#f4f3f2" opacity="0.11"/>
          </g>
          <g id="Gruppe_2617" data-name="Gruppe 2617" transform="translate(35.263 9.934)">
            <path id="Pfad_8363" data-name="Pfad 8363" d="M881.79,982.546l0,18.6a.776.776,0,0,0,.7.834l4.819,0a.775.775,0,0,0,.7-.834l0-18.6a.934.934,0,0,0-.152-.519.664.664,0,0,0-.545-.314h-2.728l-2.09,0a.776.776,0,0,0-.7.834Z" transform="translate(-881.79 -981.71)" fill="#0267a4"/>
            <path id="Pfad_8364" data-name="Pfad 8364" d="M908.238,982.551l.005,18.6a.778.778,0,0,1-.7.836h-1.034c-.41-4.614-.585-10.155-.531-20.267h1.559a.775.775,0,0,1,.7.833Z" transform="translate(-902.023 -981.718)" fill="#f4f3f2" opacity="0.11"/>
          </g>
          <g id="Gruppe_2618" data-name="Gruppe 2618" transform="translate(18.133 7.095)">
            <path id="Pfad_8365" data-name="Pfad 8365" d="M776.882,964.983l.01,21.821a.673.673,0,0,0,.7.643h4.819a.671.671,0,0,0,.7-.643l-.01-21.821a.673.673,0,0,0-.7-.643h-4.82a.761.761,0,0,0-.34.082h0a.635.635,0,0,0-.358.562Z" transform="translate(-776.88 -964.337)" fill="#0267a4"/>
            <path id="Pfad_8366" data-name="Pfad 8366" d="M802.9,964.963l.01,21.821a.671.671,0,0,1-.7.643h-1.034c.072-2.97-.941-19.674-.536-23.108h1.559A.672.672,0,0,1,802.9,964.963Z" transform="translate(-796.687 -964.32)" fill="#f4f3f2" opacity="0.11"/>
          </g>
          <g id="Gruppe_2619" data-name="Gruppe 2619" transform="translate(9.154)">
            <path id="Pfad_8367" data-name="Pfad 8367" d="M728.1,921.523l.01,28.913a.671.671,0,0,1-.7.643l-4.819,0a.673.673,0,0,1-.7-.643l-.01-28.913a.672.672,0,0,1,.7-.643l4.819,0A.672.672,0,0,1,728.1,921.523Z" transform="translate(-721.89 -920.878)" fill="#0267a4"/>
            <path id="Pfad_8368" data-name="Pfad 8368" d="M748.208,921.515l.01,28.913a.671.671,0,0,1-.7.643h-1.034c-.013-1.187-.735-27.055-.536-30.2h1.559a.672.672,0,0,1,.7.643Z" transform="translate(-741.994 -920.87)" fill="#f4f3f2" opacity="0.11"/>
          </g>
          <path id="Pfad_8369" data-name="Pfad 8369" d="M932.69,1103.819c0,.209,1.63.452,3.507.452s3.4-.17,3.4-.38-1.522-.38-3.4-.38-3.507.1-3.507.307Z" transform="translate(-889.115 -1073.688)" fill="#32323f" opacity="0.23"/>
          <g id="Gruppe_2620" data-name="Gruppe 2620" transform="translate(43.916)">
            <path id="Pfad_8370" data-name="Pfad 8370" d="M940.994,921.523l.01,28.913a.671.671,0,0,1-.7.643l-4.819,0a.673.673,0,0,1-.7-.643l-.01-28.913a.672.672,0,0,1,.7-.643l4.819,0A.672.672,0,0,1,940.994,921.523Z" transform="translate(-934.78 -920.878)" fill="#0267a4"/>
            <path id="Pfad_8371" data-name="Pfad 8371" d="M961.1,921.515l.01,28.913a.671.671,0,0,1-.7.643h-1.034c-.013-1.187-.735-27.055-.536-30.2H960.4a.672.672,0,0,1,.7.643Z" transform="translate(-954.884 -920.87)" fill="#f4f3f2" opacity="0.11"/>
          </g>
          <g id="Gruppe_2621" data-name="Gruppe 2621" transform="translate(0.313 3.881)">
            <path id="Pfad_8372" data-name="Pfad 8372" d="M673.965,945.293,674,970.325a.671.671,0,0,1-.7.643l-4.819,0a.673.673,0,0,1-.7-.643L667.75,945.3a.672.672,0,0,1,.7-.643l4.819,0A.673.673,0,0,1,673.965,945.293Z" transform="translate(-667.75 -944.648)" fill="#0267a4"/>
            <path id="Pfad_8373" data-name="Pfad 8373" d="M693.587,945.285l.038,25.031a.671.671,0,0,1-.7.643h-1.034c.008-1.38-1.052-24.473-.563-26.32h1.559a.673.673,0,0,1,.7.643Z" transform="translate(-687.373 -944.64)" fill="#f4f3f2" opacity="0.11"/>
          </g>
        </g>
        <g id="Gruppe_2629" data-name="Gruppe 2629" transform="translate(1.153)">
          <path id="Pfad_8374" data-name="Pfad 8374" d="M727.544,899.368s-8.512,9.306-9.747,9.738c-1.039.362-7.537-6.114-8.11-6.146s-8.853,2.825-8.853,2.825-8.362-7.895-8.716-7.875c-.821.042-9.572,4.018-9.572,4.018l-.3.075" transform="translate(-680.722 -895.994)" fill="none" stroke="#419671" stroke-linecap="round" stroke-linejoin="round" stroke-width="6.68"/>
          <g id="Gruppe_2623" data-name="Gruppe 2623" transform="translate(0 3.661)">
            <ellipse id="Ellipse_29" data-name="Ellipse 29" cx="1.899" cy="1.899" rx="1.899" ry="1.899" fill="#419671"/>
            <path id="Pfad_8375" data-name="Pfad 8375" d="M679.608,914.362a1.2,1.2,0,1,1-.916-1.425A1.2,1.2,0,0,1,679.608,914.362Z" transform="translate(-676.528 -912.205)" fill="#fff"/>
          </g>
          <g id="Gruppe_2624" data-name="Gruppe 2624" transform="translate(9.333)">
            <ellipse id="Ellipse_30" data-name="Ellipse 30" cx="1.899" cy="1.899" rx="1.899" ry="1.899" fill="#419671"/>
            <path id="Pfad_8376" data-name="Pfad 8376" d="M736.758,891.962a1.2,1.2,0,1,1-.916-1.425A1.2,1.2,0,0,1,736.758,891.962Z" transform="translate(-733.68 -889.801)" fill="#fff"/>
          </g>
          <g id="Gruppe_2625" data-name="Gruppe 2625" transform="translate(18.223 7.771)">
            <path id="Pfad_8377" data-name="Pfad 8377" d="M788.25,936.077a1.9,1.9,0,1,1-1.453-2.26A1.9,1.9,0,0,1,788.25,936.077Z" transform="translate(-784.493 -933.773)" fill="#419671"/>
            <path id="Pfad_8378" data-name="Pfad 8378" d="M791.168,939.512a1.2,1.2,0,1,1-.916-1.425A1.2,1.2,0,0,1,791.168,939.512Z" transform="translate(-788.095 -937.359)" fill="#fff"/>
          </g>
          <g id="Gruppe_2626" data-name="Gruppe 2626" transform="translate(26.851 5.204)">
            <ellipse id="Ellipse_31" data-name="Ellipse 31" cx="1.899" cy="1.899" rx="1.899" ry="1.899" fill="#419671"/>
            <path id="Pfad_8379" data-name="Pfad 8379" d="M844.058,923.8a1.2,1.2,0,1,1-.916-1.426A1.2,1.2,0,0,1,844.058,923.8Z" transform="translate(-840.977 -921.646)" fill="#fff"/>
          </g>
          <g id="Gruppe_2627" data-name="Gruppe 2627" transform="translate(35.133 11.061)">
            <ellipse id="Ellipse_32" data-name="Ellipse 32" cx="1.899" cy="1.899" rx="1.899" ry="1.899" fill="#419671"/>
            <path id="Pfad_8380" data-name="Pfad 8380" d="M894.748,959.682a1.2,1.2,0,1,1-.916-1.425A1.2,1.2,0,0,1,894.748,959.682Z" transform="translate(-891.671 -957.525)" fill="#fff"/>
          </g>
          <g id="Gruppe_2628" data-name="Gruppe 2628" transform="translate(44.711 1.705)">
            <path id="Pfad_8381" data-name="Pfad 8381" d="M950.47,898.927a1.9,1.9,0,1,1-1.453-2.26A1.9,1.9,0,0,1,950.47,898.927Z" transform="translate(-946.713 -896.624)" fill="#419671"/>
            <path id="Pfad_8382" data-name="Pfad 8382" d="M953.378,902.362a1.2,1.2,0,1,1-.916-1.425A1.2,1.2,0,0,1,953.378,902.362Z" transform="translate(-950.307 -900.209)" fill="#fff"/>
          </g>
        </g>
      </g>
      <g id="Gruppe_2656" data-name="Gruppe 2656" transform="translate(122.474 52.886)">
        <path id="Pfad_8383" data-name="Pfad 8383" d="M1148.845,921.738a17.178,17.178,0,0,1-14.338,16.946c-.17.028-.341.054-.513.077l-.167.023c-.078.01-.157.02-.237.028s-.188.021-.284.029c-.313.029-.63.052-.948.064-.23.008-.464.015-.7.015a17.181,17.181,0,0,1-17.181-17.181c0-.354.011-.707.033-1.056h0a17.311,17.311,0,0,1,.439-2.959h0c.057-.238.119-.477.186-.71q.238-.828.552-1.62c.039-.1.077-.191.118-.286.08-.189.162-.379.248-.565.129-.281.266-.555.41-.826a17.818,17.818,0,0,1,.944-1.576h0c.057-.083.114-.168.173-.251,0,0,0,0,.005,0q.237-.338.488-.661l.106-.134a17.3,17.3,0,0,1,1.362-1.527c.253-.25.511-.493.777-.728h0a17.36,17.36,0,0,1,2.294-1.7l.131-.082c.2-.124.41-.243.619-.359s.424-.229.642-.336a17.218,17.218,0,0,1,14.031-.568c.306.121.606.253.9.392l.077.036c.1.047.2.1.3.145a16.773,16.773,0,0,1,1.618.921c.343.219.676.452,1,.694.011.008.024.016.036.026a16.942,16.942,0,0,1,1.912,1.672,17.345,17.345,0,0,1,2.214,2.758q.269.414.513.847a17.068,17.068,0,0,1,2.211,7.761c.015.234.02.467.02.7Z" transform="translate(-1114.48 -904.47)" fill="#98d4e2"/>
        <g id="Gruppe_2631" data-name="Gruppe 2631" transform="translate(0.038 1.701)">
          <path id="Pfad_8384" data-name="Pfad 8384" d="M1136.283,943.97c.219,1.022.256,1.716-.036,2.01s-1.535,1.352-1.352,1.9a2.128,2.128,0,0,1-.109,1.608c-.025.034-.054.072-.083.111-.17.028-.341.054-.513.078l-.167.023c-.078.01-.157.02-.237.028s-.188.021-.284.029c-.313.029-.63.052-.949.064,0-.17.015-.353.021-.532.015-.571-1.334-1.917-1.443-2.831s-.036-3-1.058-3.324-1.817-.642-2.046-1.06c-.31-.565-1.644-.364-2.028-1.754-.526-1.906.6-2.119.237-2.485s.036-.988-.658-.988-1.644.111-2.046-.439a2.787,2.787,0,0,0-2.082-.913,3.049,3.049,0,0,1-2.814-.622c-1.024-.986-2.376-2.849-2.376-2.374s1.718,2.448,1.022,2.193-1.535-2.849-2.448-3a.184.184,0,0,1-.126-.1h0a17.308,17.308,0,0,1,.439-2.959h0c.057-.238.119-.477.186-.71q.238-.828.552-1.62c.039-.1.077-.191.118-.286.08-.189.161-.379.248-.565.131-.281.266-.555.41-.826a17.844,17.844,0,0,1,.944-1.576h0c.057-.083.115-.168.173-.252,0,0,0,0,0,0q.238-.338.488-.661c.034-.044.07-.09.106-.134a17.215,17.215,0,0,1,1.362-1.527q.377-.377.777-.73h0l.269-.183a18.687,18.687,0,0,0,2.3-.439c.511,0,0,.183.439.622s.694.4.841,0,.511-2.01.913-1.316.111,1.646.584,1.024,1.937-2.265,2.921-1.754,1.535.877,1.316,1.461-.219,1.241-1.022,1.133-1.241.292-1.388-.183-1.022.072-1.827.73-2.338,2.082-1.352,2.265,1.608.511,2.01-.475.584-1.827,1.28-1.644.183.475,1.022.292.658-.658,1.169.147,2.036,1.551.707,2.764c-1.656,1.51-3.945,2.119-4.255,3.411-.168.7.188.95-.836,1.754s-.511,2.3-.986,2.3-.439-.767-1.058-.622-2.448-.183-2.776,1.058-.183,2.595.33,2.521,1.022-1.169,1.352-.622-.183.877.622.805,1.1.364,1.424,1.024.511.439,1.169.364,1.937-1.461,3.617-1.205,2.74-.147,3.289.511a2.876,2.876,0,0,0,2.12,1.133c.8,0,2.887-.183,3.4.986.684,1.568-.366,2.96-.183,3.617S1136.063,942.948,1136.283,943.97Z" transform="translate(-1114.709 -917.087)" fill="#0069a8"/>
          <path id="Pfad_8385" data-name="Pfad 8385" d="M1252.152,930a17.084,17.084,0,0,1-2.34,8.659,3.338,3.338,0,0,0-1.28-1.618c-.986-.511.183-2.74-.767-3.8s-1.6-.622-1.5-2.338c.034-.612-1.022.036-1.424-.439s-2.226,1.473-4.714.511a3.316,3.316,0,0,1-2.168-3.251c-.111-1.024.488-1.571.977-2.3a4.964,4.964,0,0,0,.788-2.7c-.181-.328-.547-.366-.767-1.133s1.242-.841,1.608-.951-.557-.758-.439-1.242c.111-.456.428-.581.975-.764a2.7,2.7,0,0,0,1.218-1.5c0-.256.642-.789.439-1.024-.364-.42-1.094.676-1.462-.127-.225-.49.41-1.048.959-1.541l.077.036c.1.047.2.1.3.145a16.768,16.768,0,0,1,1.618.921.528.528,0,0,1-.1.092c-.366.238,0,.384-.274.767s-.585.364-.658.585,1.223-.364,1.553-.475a4.81,4.81,0,0,0,.518-.248,16.954,16.954,0,0,1,1.912,1.672,17.361,17.361,0,0,1,2.214,2.758,7.418,7.418,0,0,1-1.375-.4c-.511-.183-.676-.639-.841-.439a.373.373,0,0,0,.072.6c.257.183-.018.511-.163.64s-.841-.877-1.113-1.169a3.945,3.945,0,0,0-1.5-.511c-.4-.111-.364.018-.237.219s1.37.475,1.461.64-.292-.018-.292.2c.109.111,0,.748-.219.384a3.6,3.6,0,0,0-1.608-.841,2.139,2.139,0,0,0-1.461.547c-.622.439-.768,1.535-1.169,1.791s-.366.439.109.475a4.636,4.636,0,0,0,2.008-1.169c.256-.292,1.1-.036,1.28.364s1.058.4,2.119.547.443-.441.7-.709c.462-.474,1.928.379,2.585-.206a1.439,1.439,0,0,1,.152-.122c.227.4.441.815.635,1.236a17.077,17.077,0,0,1,1.576,6.525c0,.087,0,.175.008.263,0,.144,0,.291,0,.438Z" transform="translate(-1217.825 -914.43)" fill="#0069a8"/>
        </g>
        <g id="Gruppe_2633" data-name="Gruppe 2633" transform="translate(22.706 4.959)">
          <g id="Gruppe_2632" data-name="Gruppe 2632">
            <path id="Pfad_8386" data-name="Pfad 8386" d="M1255.426,935.041a.87.87,0,0,0-.083-.212.647.647,0,0,0-.459-.327.784.784,0,0,0-.128-.016c-.7-.049-.854.55-.869,1.087a2.89,2.89,0,0,0,.4,1.2c.015.028.031.054.046.082a1.64,1.64,0,0,0,.176.258c.026.029.049.046.064.046a3.084,3.084,0,0,0,.875-1.434A1.812,1.812,0,0,0,1255.426,935.041Zm-.278.264a.452.452,0,0,1-.483.42.415.415,0,0,1-.1-.02.453.453,0,1,1,.584-.4Z" transform="translate(-1253.831 -934.466)" fill="#ce9006"/>
            <path id="Pfad_8387" data-name="Pfad 8387" d="M1255.088,934.974a1.023,1.023,0,0,0-.039-.131.657.657,0,0,0-.456-.428,1.008,1.008,0,0,0-.184-.031c-.7-.049-.864.521-.869,1.087a2.658,2.658,0,0,0,.415,1.225c.02.033.039.062.057.091a.843.843,0,0,0,.2.238.046.046,0,0,0,.024.006,2.989,2.989,0,0,0,.86-1.409,1.851,1.851,0,0,0-.01-.653Zm-1.19.17a.452.452,0,0,1,.483-.42.425.425,0,0,1,.1.02.454.454,0,1,1-.586.4Z" transform="translate(-1253.54 -934.382)" fill="#f4ad00"/>
          </g>
          <path id="Pfad_8388" data-name="Pfad 8388" d="M1257.3,938.552a3.11,3.11,0,0,1-.875,1.434c-.015,0-.037-.016-.064-.046a.839.839,0,0,1-.2-.238c-.02-.029-.038-.06-.057-.091l.038-.008c.671-.165,1.037-1.172,1.1-1.718a.067.067,0,0,1,0-.024l.046.006a1.81,1.81,0,0,1,.015.687Z" transform="translate(-1255.682 -937.292)" fill="#234882" opacity="0.1"/>
        </g>
        <g id="Gruppe_2635" data-name="Gruppe 2635" transform="translate(3.759 3.163)">
          <g id="Gruppe_2634" data-name="Gruppe 2634">
            <path id="Pfad_8389" data-name="Pfad 8389" d="M1140.23,924.309a1.2,1.2,0,0,0-.121-.309.947.947,0,0,0-.666-.478,1.286,1.286,0,0,0-.186-.026c-1.019-.077-1.244.8-1.27,1.576a4.257,4.257,0,0,0,.565,1.754l.065.118a2.318,2.318,0,0,0,.255.376c.039.044.072.067.093.067a4.516,4.516,0,0,0,1.283-2.079,2.564,2.564,0,0,0-.02-1Zm-.407.384a.659.659,0,0,1-.707.607.853.853,0,0,1-.149-.028.659.659,0,0,1,.248-1.285.462.462,0,0,1,.067.008A.658.658,0,0,1,1139.824,924.693Z" transform="translate(-1137.907 -923.473)" fill="#ce9006"/>
            <path id="Pfad_8390" data-name="Pfad 8390" d="M1139.751,924.242a1.527,1.527,0,0,0-.056-.189.954.954,0,0,0-.66-.622,1.3,1.3,0,0,0-.266-.046c-1.019-.077-1.26.751-1.27,1.576a3.876,3.876,0,0,0,.594,1.783c.028.047.056.091.083.134a1.291,1.291,0,0,0,.291.348.084.084,0,0,0,.034.011,4.371,4.371,0,0,0,1.26-2.043,2.672,2.672,0,0,0-.01-.95Zm-1.729.238a.658.658,0,0,1,.707-.607.924.924,0,0,1,.15.028.659.659,0,0,1-.248,1.285.46.46,0,0,1-.067-.008.656.656,0,0,1-.541-.7Z" transform="translate(-1137.499 -923.38)" fill="#f4ad00"/>
          </g>
          <path id="Pfad_8391" data-name="Pfad 8391" d="M1142.88,929.456a4.518,4.518,0,0,1-1.284,2.078c-.023,0-.054-.024-.093-.067a1.288,1.288,0,0,1-.291-.348c-.028-.042-.055-.087-.083-.134.018,0,.036-.007.054-.011.98-.237,1.514-1.695,1.607-2.489a.241.241,0,0,1,0-.036l.067.011a2.591,2.591,0,0,1,.02,1Z" transform="translate(-1140.537 -927.622)" fill="#234882" opacity="0.1"/>
        </g>
        <g id="Gruppe_2637" data-name="Gruppe 2637" transform="translate(24.646)">
          <g id="Gruppe_2636" data-name="Gruppe 2636">
            <path id="Pfad_8392" data-name="Pfad 8392" d="M1267.426,904.709a.926.926,0,0,0-.09-.227.7.7,0,0,0-.492-.349,1.185,1.185,0,0,0-.137-.018c-.748-.052-.913.588-.929,1.164a3.134,3.134,0,0,0,.421,1.286c.016.029.033.059.049.087a1.945,1.945,0,0,0,.188.276c.029.033.054.049.069.049a3.312,3.312,0,0,0,.935-1.532,1.9,1.9,0,0,0-.016-.735Zm-.3.281a.484.484,0,0,1-.516.449.494.494,0,0,1-.109-.021.484.484,0,0,1,.176-.945.464.464,0,0,1,.049,0,.486.486,0,0,1,.4.511Z" transform="translate(-1265.719 -904.095)" fill="#ce9006"/>
            <path id="Pfad_8393" data-name="Pfad 8393" d="M1267.075,904.644a1.04,1.04,0,0,0-.043-.141.7.7,0,0,0-.487-.455,1.142,1.142,0,0,0-.2-.034c-.748-.052-.922.555-.929,1.162a2.823,2.823,0,0,0,.442,1.308l.062.1a1,1,0,0,0,.216.256.062.062,0,0,0,.025.008,3.2,3.2,0,0,0,.919-1.506,1.994,1.994,0,0,0-.01-.7Zm-1.274.18a.483.483,0,0,1,.516-.449.539.539,0,0,1,.111.021.485.485,0,0,1-.176.947.467.467,0,0,1-.049,0,.488.488,0,0,1-.4-.513Z" transform="translate(-1265.42 -904.011)" fill="#f4ad00"/>
          </g>
          <path id="Pfad_8394" data-name="Pfad 8394" d="M1269.412,908.461a3.313,3.313,0,0,1-.936,1.532q-.024,0-.069-.049a.935.935,0,0,1-.215-.256c-.021-.031-.041-.062-.062-.1l.041-.008c.719-.178,1.105-1.251,1.171-1.835a.07.07,0,0,1,0-.026l.049.007a1.914,1.914,0,0,1,.018.733Z" transform="translate(-1267.687 -907.114)" fill="#234882" opacity="0.1"/>
        </g>
        <g id="Gruppe_2639" data-name="Gruppe 2639" transform="translate(17.387 24.39)">
          <g id="Gruppe_2638" data-name="Gruppe 2638">
            <path id="Pfad_8395" data-name="Pfad 8395" d="M1223.957,1054.4a1.455,1.455,0,0,0-.131-.337,1.032,1.032,0,0,0-.73-.518,1.475,1.475,0,0,0-.2-.028c-1.11-.078-1.354.874-1.377,1.724a4.626,4.626,0,0,0,.625,1.907c.024.044.049.086.072.129a2.774,2.774,0,0,0,.279.41c.044.046.078.072.1.072a4.92,4.92,0,0,0,1.388-2.273,2.866,2.866,0,0,0-.028-1.087Zm-.441.418a.72.72,0,0,1-.767.666.75.75,0,0,1-.162-.031.718.718,0,0,1,.263-1.4.544.544,0,0,1,.072.008.72.72,0,0,1,.594.758Z" transform="translate(-1221.426 -1053.491)" fill="#ce9006"/>
            <path id="Pfad_8396" data-name="Pfad 8396" d="M1223.414,1054.318a1.477,1.477,0,0,0-.062-.208,1.041,1.041,0,0,0-.722-.676,1.421,1.421,0,0,0-.292-.049c-1.11-.078-1.37.826-1.378,1.724a4.218,4.218,0,0,0,.656,1.941c.031.052.062.1.091.145a1.356,1.356,0,0,0,.32.379.078.078,0,0,0,.036.013,4.758,4.758,0,0,0,1.364-2.234,2.827,2.827,0,0,0-.015-1.039Zm-1.886.268a.719.719,0,0,1,.767-.666.788.788,0,0,1,.163.031.718.718,0,0,1-.263,1.4.506.506,0,0,1-.072-.008.716.716,0,0,1-.594-.758Z" transform="translate(-1220.96 -1053.381)" fill="#f4ad00"/>
          </g>
          <path id="Pfad_8397" data-name="Pfad 8397" d="M1226.891,1059.969a4.91,4.91,0,0,1-1.388,2.273c-.025,0-.059-.024-.1-.072a1.36,1.36,0,0,1-.32-.379c-.031-.046-.06-.093-.091-.145.02,0,.041-.008.059-.013,1.066-.263,1.642-1.856,1.737-2.722a.352.352,0,0,1,.005-.041l.072.011a2.768,2.768,0,0,1,.029,1.088Z" transform="translate(-1224.332 -1057.974)" fill="#234882" opacity="0.1"/>
        </g>
        <g id="Gruppe_2641" data-name="Gruppe 2641" transform="translate(27.615 12.608)">
          <g id="Gruppe_2640" data-name="Gruppe 2640">
            <path id="Pfad_8398" data-name="Pfad 8398" d="M1286.189,982.094a1.138,1.138,0,0,0-.114-.291.894.894,0,0,0-.63-.449,1.374,1.374,0,0,0-.175-.025c-.96-.067-1.171.754-1.192,1.492a3.964,3.964,0,0,0,.542,1.649l.062.111a2.16,2.16,0,0,0,.242.352c.037.041.067.062.088.062a4.256,4.256,0,0,0,1.2-1.966,2.492,2.492,0,0,0-.025-.939Zm-.382.362a.621.621,0,0,1-.663.576.663.663,0,0,1-.141-.026.621.621,0,0,1,.227-1.213c.021,0,.042,0,.062.006a.621.621,0,0,1,.513.656Z" transform="translate(-1283.999 -981.31)" fill="#ce9006"/>
            <path id="Pfad_8399" data-name="Pfad 8399" d="M1285.722,982.034a1.539,1.539,0,0,0-.054-.178.9.9,0,0,0-.624-.585,1.27,1.27,0,0,0-.253-.043c-.962-.067-1.186.714-1.192,1.492a3.65,3.65,0,0,0,.568,1.68c.026.044.054.086.08.126a1.162,1.162,0,0,0,.276.326.08.08,0,0,0,.033.011,4.1,4.1,0,0,0,1.181-1.933,2.561,2.561,0,0,0-.015-.9Zm-1.631.232a.621.621,0,0,1,.663-.576.642.642,0,0,1,.141.026.621.621,0,0,1-.227,1.213c-.021,0-.042,0-.062-.006A.623.623,0,0,1,1284.091,982.266Z" transform="translate(-1283.599 -981.225)" fill="#f4ad00"/>
          </g>
          <path id="Pfad_8400" data-name="Pfad 8400" d="M1288.716,986.929a4.254,4.254,0,0,1-1.2,1.966c-.021,0-.051-.023-.088-.062a1.185,1.185,0,0,1-.276-.327c-.026-.039-.054-.081-.08-.126.016,0,.034-.006.052-.011.923-.227,1.421-1.607,1.5-2.355a.2.2,0,0,1,.005-.034l.062.01a2.459,2.459,0,0,1,.025.94Z" transform="translate(-1286.503 -985.204)" fill="#234882" opacity="0.1"/>
        </g>
        <g id="Gruppe_2643" data-name="Gruppe 2643" transform="translate(23.903 9.463)">
          <g id="Gruppe_2642" data-name="Gruppe 2642">
            <path id="Pfad_8401" data-name="Pfad 8401" d="M1262.766,962.611a.873.873,0,0,0-.083-.212.646.646,0,0,0-.459-.327.77.77,0,0,0-.127-.016c-.7-.049-.854.55-.869,1.088a2.886,2.886,0,0,0,.4,1.2c.015.028.031.054.046.082a1.639,1.639,0,0,0,.176.258c.026.029.049.046.064.046a3.083,3.083,0,0,0,.875-1.434A1.808,1.808,0,0,0,1262.766,962.611Zm-.279.266a.454.454,0,0,1-.485.42.412.412,0,0,1-.1-.02.453.453,0,0,1,.165-.885.413.413,0,0,1,.046,0,.455.455,0,0,1,.376.478Z" transform="translate(-1261.169 -962.038)" fill="#ce9006"/>
            <path id="Pfad_8402" data-name="Pfad 8402" d="M1262.417,962.554a1.018,1.018,0,0,0-.039-.13.657.657,0,0,0-.456-.428,1.01,1.01,0,0,0-.184-.031c-.7-.049-.864.521-.869,1.087a2.657,2.657,0,0,0,.415,1.225c.02.033.039.062.057.091a.842.842,0,0,0,.2.238.047.047,0,0,0,.025.006,2.987,2.987,0,0,0,.86-1.409,1.771,1.771,0,0,0-.01-.653Zm-1.19.17a.451.451,0,0,1,.483-.42.431.431,0,0,1,.1.02.453.453,0,0,1-.167.885.444.444,0,0,1-.046,0,.454.454,0,0,1-.374-.478Z" transform="translate(-1260.87 -961.962)" fill="#f4ad00"/>
          </g>
          <path id="Pfad_8403" data-name="Pfad 8403" d="M1264.627,966.132a3.108,3.108,0,0,1-.875,1.434c-.015,0-.037-.016-.064-.046a.839.839,0,0,1-.2-.238c-.02-.029-.038-.06-.057-.092l.038-.008c.671-.165,1.037-1.172,1.1-1.718a.063.063,0,0,1,0-.025l.046.007a1.813,1.813,0,0,1,.015.687Z" transform="translate(-1263.012 -964.872)" fill="#234882" opacity="0.1"/>
        </g>
        <g id="Gruppe_2645" data-name="Gruppe 2645" transform="translate(13.953 22.547)">
          <g id="Gruppe_2644" data-name="Gruppe 2644">
            <path id="Pfad_8404" data-name="Pfad 8404" d="M1201.382,1042.6a.667.667,0,0,0-.064-.163.5.5,0,0,0-.353-.251.752.752,0,0,0-.1-.015c-.539-.038-.656.423-.669.836a2.252,2.252,0,0,0,.3.926c.011.021.025.042.034.062a1.167,1.167,0,0,0,.135.2q.032.034.049.034a2.38,2.38,0,0,0,.673-1.1,1.345,1.345,0,0,0-.013-.526Zm-.214.2a.349.349,0,0,1-.372.323.26.26,0,0,1-.078-.015.349.349,0,0,1,.127-.681.184.184,0,0,1,.034.005.348.348,0,0,1,.287.367Z" transform="translate(-1200.155 -1042.155)" fill="#ce9006"/>
            <path id="Pfad_8405" data-name="Pfad 8405" d="M1201.12,1042.552a.939.939,0,0,0-.029-.1.5.5,0,0,0-.351-.328.784.784,0,0,0-.14-.025c-.539-.037-.665.4-.67.836a2.049,2.049,0,0,0,.319.942l.044.072a.664.664,0,0,0,.155.183.027.027,0,0,0,.018.005,2.315,2.315,0,0,0,.661-1.084,1.436,1.436,0,0,0-.008-.5Zm-.914.13a.349.349,0,0,1,.372-.323.258.258,0,0,1,.08.015.348.348,0,0,1-.127.681.182.182,0,0,1-.034,0,.346.346,0,0,1-.289-.367Z" transform="translate(-1199.93 -1042.096)" fill="#f4ad00"/>
          </g>
          <path id="Pfad_8406" data-name="Pfad 8406" d="M1202.821,1045.321a2.4,2.4,0,0,1-.673,1.1c-.011,0-.028-.013-.049-.034a.668.668,0,0,1-.155-.183c-.015-.023-.03-.045-.044-.072.01,0,.02,0,.029,0,.516-.127.8-.9.844-1.321v-.02l.034,0a1.409,1.409,0,0,1,.013.526Z" transform="translate(-1201.578 -1044.35)" fill="#234882" opacity="0.1"/>
        </g>
        <g id="Gruppe_2647" data-name="Gruppe 2647" transform="translate(26.258 3.918)">
          <g id="Gruppe_2646" data-name="Gruppe 2646">
            <path id="Pfad_8407" data-name="Pfad 8407" d="M1277.907,928.891a1.232,1.232,0,0,0-.114-.294.9.9,0,0,0-.637-.452,1.439,1.439,0,0,0-.176-.024c-.97-.067-1.182.761-1.2,1.505a4.016,4.016,0,0,0,.545,1.666c.021.039.042.077.062.111a1.993,1.993,0,0,0,.245.356c.038.041.069.062.09.062a4.282,4.282,0,0,0,1.212-1.984,2.479,2.479,0,0,0-.025-.949Zm-.384.366a.63.63,0,0,1-.671.583.65.65,0,0,1-.14-.026.628.628,0,0,1,.232-1.226c.021,0,.044,0,.064.006A.629.629,0,0,1,1277.523,929.257Z" transform="translate(-1275.697 -928.099)" fill="#ce9006"/>
            <path id="Pfad_8408" data-name="Pfad 8408" d="M1277.432,928.824a1.5,1.5,0,0,0-.054-.18.908.908,0,0,0-.63-.591,1.431,1.431,0,0,0-.255-.044c-.97-.067-1.2.72-1.2,1.506a3.669,3.669,0,0,0,.575,1.695c.026.044.054.088.08.127a1.187,1.187,0,0,0,.279.33.078.078,0,0,0,.033.011,4.155,4.155,0,0,0,1.192-1.951,2.567,2.567,0,0,0-.015-.9Zm-1.646.234a.629.629,0,0,1,.669-.583.681.681,0,0,1,.142.026.628.628,0,0,1-.23,1.226c-.021,0-.044,0-.062-.007A.629.629,0,0,1,1275.786,929.058Z" transform="translate(-1275.29 -928.005)" fill="#f4ad00"/>
          </g>
          <path id="Pfad_8409" data-name="Pfad 8409" d="M1280.47,933.758a4.308,4.308,0,0,1-1.212,1.984c-.021,0-.052-.023-.09-.062a1.191,1.191,0,0,1-.279-.33c-.026-.041-.054-.082-.08-.128.018,0,.034-.006.052-.011.931-.229,1.434-1.622,1.517-2.377a.223.223,0,0,1,0-.034l.064.01a2.507,2.507,0,0,1,.025.949Z" transform="translate(-1278.235 -932.017)" fill="#234882" opacity="0.1"/>
        </g>
        <g id="Gruppe_2649" data-name="Gruppe 2649" transform="translate(11.512 6.438)">
          <g id="Gruppe_2648" data-name="Gruppe 2648">
            <path id="Pfad_8410" data-name="Pfad 8410" d="M1187.163,944.178a1.015,1.015,0,0,0-.1-.247.754.754,0,0,0-.532-.379,1.018,1.018,0,0,0-.149-.02c-.812-.057-.99.638-1.008,1.261a3.35,3.35,0,0,0,.459,1.394c.018.033.034.064.054.093a2.016,2.016,0,0,0,.2.3c.031.034.057.054.073.054a3.581,3.581,0,0,0,1.014-1.662,2.043,2.043,0,0,0-.02-.8Zm-.322.305a.527.527,0,0,1-.56.488.484.484,0,0,1-.119-.023.526.526,0,0,1,.191-1.027.314.314,0,0,1,.054.006A.526.526,0,0,1,1186.841,944.483Z" transform="translate(-1185.312 -943.515)" fill="#ce9006"/>
            <path id="Pfad_8411" data-name="Pfad 8411" d="M1186.772,944.123a1.275,1.275,0,0,0-.044-.15.762.762,0,0,0-.528-.495,1.025,1.025,0,0,0-.214-.036c-.812-.057-1,.6-1.008,1.261a3.076,3.076,0,0,0,.48,1.419c.023.038.044.072.067.106a1,1,0,0,0,.234.276.067.067,0,0,0,.026.008,3.478,3.478,0,0,0,1-1.633,2.057,2.057,0,0,0-.011-.758Zm-1.378.2a.527.527,0,0,1,.56-.488.464.464,0,0,1,.119.023.526.526,0,0,1-.191,1.027.3.3,0,0,1-.054-.006A.527.527,0,0,1,1185.394,944.319Z" transform="translate(-1184.979 -943.439)" fill="#f4ad00"/>
          </g>
          <path id="Pfad_8412" data-name="Pfad 8412" d="M1189.318,948.253a3.612,3.612,0,0,1-1.014,1.662c-.018,0-.044-.018-.074-.054a1.006,1.006,0,0,1-.233-.276c-.023-.034-.044-.068-.067-.106a.431.431,0,0,0,.044-.01c.779-.191,1.2-1.357,1.271-1.99a.093.093,0,0,1,0-.029l.054.008a2.041,2.041,0,0,1,.02.8Z" transform="translate(-1187.448 -946.795)" fill="#234882" opacity="0.1"/>
        </g>
        <g id="Gruppe_2651" data-name="Gruppe 2651" transform="translate(7.666 9.558)">
          <g id="Gruppe_2650" data-name="Gruppe 2650">
            <path id="Pfad_8413" data-name="Pfad 8413" d="M1163.613,963.278a1.023,1.023,0,0,0-.1-.246.754.754,0,0,0-.532-.379,1.014,1.014,0,0,0-.149-.02c-.812-.057-.989.638-1.007,1.261a3.345,3.345,0,0,0,.459,1.394c.018.032.034.064.054.093a2.012,2.012,0,0,0,.2.3c.031.034.057.054.073.054a3.58,3.58,0,0,0,1.014-1.662,2.046,2.046,0,0,0-.02-.8Zm-.323.307a.527.527,0,0,1-.56.488.482.482,0,0,1-.119-.023.526.526,0,0,1,.191-1.027.31.31,0,0,1,.054.007A.523.523,0,0,1,1163.289,963.585Z" transform="translate(-1161.762 -962.617)" fill="#ce9006"/>
            <path id="Pfad_8414" data-name="Pfad 8414" d="M1163.222,963.233a1.293,1.293,0,0,0-.044-.15.763.763,0,0,0-.527-.495,1.017,1.017,0,0,0-.214-.036c-.811-.057-1,.6-1.007,1.261a3.076,3.076,0,0,0,.48,1.419c.023.038.044.072.067.106a1.008,1.008,0,0,0,.234.276.066.066,0,0,0,.026.008,3.473,3.473,0,0,0,1-1.633,2.133,2.133,0,0,0-.011-.758Zm-1.38.194a.527.527,0,0,1,.56-.488.476.476,0,0,1,.119.023.526.526,0,0,1-.191,1.027.3.3,0,0,1-.054-.007A.527.527,0,0,1,1161.843,963.427Z" transform="translate(-1161.429 -962.549)" fill="#f4ad00"/>
          </g>
          <path id="Pfad_8415" data-name="Pfad 8415" d="M1165.768,967.353a3.611,3.611,0,0,1-1.014,1.662c-.018,0-.044-.018-.073-.054a1,1,0,0,1-.234-.276c-.023-.034-.044-.068-.067-.106a.421.421,0,0,0,.044-.01c.779-.191,1.2-1.357,1.27-1.99a.093.093,0,0,1,0-.029l.054.008a2.043,2.043,0,0,1,.02.8Z" transform="translate(-1163.898 -965.897)" fill="#234882" opacity="0.1"/>
        </g>
        <g id="Gruppe_2653" data-name="Gruppe 2653" transform="translate(3.228 11.855)">
          <g id="Gruppe_2652" data-name="Gruppe 2652">
            <path id="Pfad_8416" data-name="Pfad 8416" d="M1136.02,977.224a.734.734,0,0,0-.08-.2.62.62,0,0,0-.436-.31.919.919,0,0,0-.121-.016c-.663-.046-.81.522-.825,1.032a2.753,2.753,0,0,0,.374,1.141l.044.077a1.488,1.488,0,0,0,.168.245c.025.028.046.044.062.044a2.948,2.948,0,0,0,.831-1.359,1.7,1.7,0,0,0-.016-.652Zm-.265.252a.43.43,0,0,1-.459.4.462.462,0,0,1-.1-.018.43.43,0,0,1,.157-.839.382.382,0,0,1,.044,0,.43.43,0,0,1,.354.454Z" transform="translate(-1134.508 -976.681)" fill="#ce9006"/>
            <path id="Pfad_8417" data-name="Pfad 8417" d="M1135.716,977.175c-.01-.044-.023-.083-.036-.124a.619.619,0,0,0-.431-.4.936.936,0,0,0-.175-.029c-.665-.046-.82.495-.825,1.032a2.54,2.54,0,0,0,.392,1.162c.018.031.036.06.054.086a.836.836,0,0,0,.191.227.041.041,0,0,0,.023.006,2.852,2.852,0,0,0,.817-1.337A1.743,1.743,0,0,0,1135.716,977.175Zm-1.128.16a.43.43,0,0,1,.459-.4.5.5,0,0,1,.1.018.43.43,0,0,1-.2.833A.426.426,0,0,1,1134.588,977.334Z" transform="translate(-1134.25 -976.613)" fill="#f4ad00"/>
          </g>
          <path id="Pfad_8418" data-name="Pfad 8418" d="M1137.768,980.558a2.933,2.933,0,0,1-.831,1.359c-.015,0-.034-.015-.062-.044a.83.83,0,0,1-.191-.227c-.018-.028-.036-.056-.054-.087a.167.167,0,0,0,.034-.007c.637-.157.981-1.11,1.039-1.628a.063.063,0,0,1,0-.024l.044.007a1.619,1.619,0,0,1,.018.65Z" transform="translate(-1136.241 -979.363)" fill="#234882" opacity="0.1"/>
        </g>
        <g id="Gruppe_2655" data-name="Gruppe 2655" transform="translate(6.732 16.031)">
          <g id="Gruppe_2654" data-name="Gruppe 2654">
            <path id="Pfad_8419" data-name="Pfad 8419" d="M1158.187,1003.033a1.108,1.108,0,0,0-.111-.279.849.849,0,0,0-.606-.429,1.315,1.315,0,0,0-.168-.023c-.922-.064-1.125.725-1.145,1.434a3.834,3.834,0,0,0,.521,1.587c.02.036.041.072.06.106a1.985,1.985,0,0,0,.234.34c.036.039.064.06.085.06a4.1,4.1,0,0,0,1.154-1.889,2.376,2.376,0,0,0-.024-.9Zm-.366.349a.6.6,0,1,1-.554-.639c.021,0,.041.005.062.006A.6.6,0,0,1,1157.821,1003.382Z" transform="translate(-1156.084 -1002.28)" fill="#ce9006"/>
            <path id="Pfad_8420" data-name="Pfad 8420" d="M1157.749,1002.966a1.635,1.635,0,0,0-.05-.171.867.867,0,0,0-.6-.563,1.2,1.2,0,0,0-.243-.041c-.923-.064-1.14.686-1.145,1.434a3.51,3.51,0,0,0,.545,1.615c.026.044.052.083.077.121a1.111,1.111,0,0,0,.266.313.067.067,0,0,0,.031.01,3.957,3.957,0,0,0,1.135-1.858,2.4,2.4,0,0,0-.015-.862Zm-1.569.222a.6.6,0,0,1,.637-.555.615.615,0,0,1,.135.025.6.6,0,0,1-.217,1.169c-.021,0-.041,0-.061-.007A.6.6,0,0,1,1156.18,1003.188Z" transform="translate(-1155.709 -1002.187)" fill="#f4ad00"/>
          </g>
          <path id="Pfad_8421" data-name="Pfad 8421" d="M1160.622,1007.664a4.071,4.071,0,0,1-1.155,1.889c-.02,0-.049-.021-.085-.06a1.162,1.162,0,0,1-.266-.314c-.024-.037-.051-.078-.077-.121a.383.383,0,0,0,.049-.011c.885-.217,1.365-1.543,1.444-2.263,0-.012,0-.023,0-.034l.062.01a2.31,2.31,0,0,1,.025.9Z" transform="translate(-1158.496 -1006.005)" fill="#234882" opacity="0.1"/>
        </g>
      </g>
    </g>
    <g id="Gruppe_2658" data-name="Gruppe 2658" transform="translate(201.444 29.83)">
      <path id="Pfad_8422" data-name="Pfad 8422" d="M1219.728,252.047a11.494,11.494,0,0,0-11.26-11.686h-.094a1.03,1.03,0,0,1-1.008-1.139,18.393,18.393,0,0,0,.065-2.274,17.553,17.553,0,0,0-17.6-17.177,17.063,17.063,0,0,0-8.066,2.112,3.587,3.587,0,0,1-4.48-.879,14.062,14.062,0,0,0-15.3-4.367,2.267,2.267,0,0,1-2.894-1.539,20.215,20.215,0,0,0-39.662,5.74,21.208,21.208,0,0,0,.228,3.367,2.158,2.158,0,0,1-2.217,2.5c-.3-.018-.608-.026-.914-.027a18.094,18.094,0,0,0-17.98,18.2c-.042,10.094,6.352,18.3,16.241,18.341.332,0,2.248,0,2.575-.013l91.881.4a11.549,11.549,0,0,0,10.486-11.554Z" transform="translate(-1096.454 -198.041)" fill="#00628f"/>
      <path id="Pfad_8423" data-name="Pfad 8423" d="M1204.268,234.637a11.494,11.494,0,0,0-11.26-11.686h-.093a1.031,1.031,0,0,1-1.008-1.139,18.345,18.345,0,0,0,.065-2.274,17.553,17.553,0,0,0-17.6-17.177,17.062,17.062,0,0,0-8.065,2.112,3.587,3.587,0,0,1-4.48-.879,14.062,14.062,0,0,0-15.3-4.367,2.267,2.267,0,0,1-2.895-1.539,20.215,20.215,0,0,0-39.663,5.74,21.222,21.222,0,0,0,.228,3.367,2.158,2.158,0,0,1-2.217,2.5c-.3-.018-.608-.026-.914-.027a18.094,18.094,0,0,0-17.98,18.2c-.042,10.094,6.352,18.3,16.241,18.341.332,0,2.248,0,2.575-.014l91.881.4a11.549,11.549,0,0,0,10.486-11.554Z" transform="translate(-1083.088 -182.989)" fill="#e6eff1"/>
    </g>
    <g id="Gruppe_2664" data-name="Gruppe 2664" transform="translate(313.664 70.433)">
      <path id="Pfad_8424" data-name="Pfad 8424" d="M2161.93,1267.553c-.127-1.318-.026-4.66-.026-4.66l3.556-.154-.2,5.019-2.353,1.613-.978-1.819Z" transform="translate(-2138.937 -1146.652)" fill="#fff"/>
      <path id="Pfad_8425" data-name="Pfad 8425" d="M2128.163,1288.784c-.375-.07-.206.273-.322.833-.262,1.282-4.946,1.543-5.646,1.692a1.084,1.084,0,0,0,.941,1.871c1.567-.082,6.594-.328,8.308-.428a.794.794,0,0,0,.735-.622c.26-1.238.1-3.132-.384-3.15-.733-.193-2.064.1-3.631-.194Z" transform="translate(-2105.447 -1168.436)" fill="#1f1f39"/>
      <g id="Gruppe_2659" data-name="Gruppe 2659" transform="translate(58.378 108.682)">
        <path id="Pfad_8426" data-name="Pfad 8426" d="M2382.888,1222.93c-1.179-.614-3.929-2.523-3.929-2.523l1.871-3.017,4.1,2.9.031,2.821-2.077-.186Z" transform="translate(-2378.96 -1217.39)" fill="#fff"/>
        <path id="Pfad_8427" data-name="Pfad 8427" d="M2391.508,1235.993c-.287.253.09.326.467.754.862.978-1.816,4.817-2.131,5.459a1.1,1.1,0,0,0,2.076.387c.9-1.284,3.8-5.382,4.781-6.791a.777.777,0,0,0-.044-.954c-.832-.948-2.445-1.961-2.755-1.594-.606.461-1.2,1.68-2.4,2.738Z" transform="translate(-2388.054 -1230.6)" fill="#1f1f39"/>
      </g>
      <path id="Pfad_8428" data-name="Pfad 8428" d="M2153.023,1009.868c-.1,1.11,6.1,1.546,6.19.264s-.778-17.311,1.021-22.925a68.378,68.378,0,0,1,4.138-10.61c1.816-3.39,3.427-6.108,3.476-6.192v0c.169,1.545,1.911,12.547,4.074,18.061s18.629,16.043,18.915,16.519,4.608-3.133,4.151-4.139-14.717-11.381-15.947-16.057a107.891,107.891,0,0,1-1.968-17.671c-.067-1.875-.122-3.6-.161-5.011-.065-2.283-.1-3.759-.1-3.759l-9.972.2-5.787-.9c-.405,2.841-7.265,24.153-8,27.546s.064,23.572-.033,24.68Z" transform="translate(-2131.299 -891.37)" fill="#3b3b4d"/>
      <path id="Pfad_8429" data-name="Pfad 8429" d="M2250.591,772.671l2.877-2.038c-.5-1.457-.865-5.15-1.571-6.362-.774-1.329-.875-1.207-.875-1.207l-1.742,2.1-.82.99a3.953,3.953,0,0,1,.444,1.586,8.236,8.236,0,0,1-.292,2.977c-.251.934,1.979,1.953,1.979,1.953Z" transform="translate(-2211.391 -728.564)" fill="#f4b1ae"/>
      <path id="Pfad_8430" data-name="Pfad 8430" d="M2248.45,776.939a5.461,5.461,0,0,1,.459,1.746c2.317.183,2.947-1.728,2.242-2.1a15.647,15.647,0,0,0-1.881-.632Z" transform="translate(-2211.383 -739.348)" fill="#191937" opacity="0.14"/>
      <path id="Pfad_8431" data-name="Pfad 8431" d="M2224.152,796.747c-1.28-.513-2.078,1.021-3.163.937-.656-.051-.552-.627-.807-.981-.157-.219-.531-.124-1.055-.154-1.375-.08-5.558,25.3-5.558,25.3a4.6,4.6,0,0,0,3.666,2.111c2.756.31,8.043-.271,8.074-1.23s1.207-24.271,1.207-24.271a7.569,7.569,0,0,0-2.365-1.718Z" transform="translate(-2182.198 -756.583)" fill="#fff"/>
      <path id="Pfad_8432" data-name="Pfad 8432" d="M2177.723,695.655c-.14.8-.2,3.653-.442,6.113s.562,8.2.034,12.687-.4,8.011-2.27,10.845c-2.08,3.158-7.976.927-7.291-.323a40.849,40.849,0,0,0,4.208-11.236c.491-1.724,1.783-9.88,1.334-12.135-.2-1.024-6.726-8.246-7.322-11.433-.655-3.5-2.374-12.189-1.964-13.562a16.724,16.724,0,0,1,4.554-.557,85.01,85.01,0,0,0,2.182,12.633,12.882,12.882,0,0,0,7.026,7.036" transform="translate(-2140.678 -655.736)" fill="#0267a2"/>
      <path id="Pfad_8433" data-name="Pfad 8433" d="M2262.91,966.07c1.153,4.45,3.614,5.976,6.277,7.136-.067-1.874-.051-2.634-.092-4.046l-.16-.356-6.025-2.732Z" transform="translate(-2223.481 -898.424)" fill="#191937" opacity="0.48"/>
      <path id="Pfad_8434" data-name="Pfad 8434" d="M2177.723,695.655c-.14.8-.2,3.653-.442,6.113s.562,8.2.034,12.687-.4,8.011-2.27,10.845c-2.08,3.158-7.976.927-7.291-.323a40.849,40.849,0,0,0,4.208-11.236c.491-1.724,1.783-9.88,1.334-12.135-.2-1.024-6.726-8.246-7.322-11.433-.655-3.5-2.374-12.189-1.964-13.562a16.724,16.724,0,0,1,4.554-.557,85.01,85.01,0,0,0,2.182,12.633,12.882,12.882,0,0,0,7.026,7.036" transform="translate(-2140.678 -655.736)" fill="#003f5c" opacity="0.21"/>
      <path id="Pfad_8435" data-name="Pfad 8435" d="M2261.734,825.56c.415,1.491,2.853,3.421,4.041,4.015.965.483,4.6,1.573,4.68-.49.173-4.267-1.933-5.1-1.823-8.1.581-3.109.206-5.352,1.032-8.39.8-2.856,3.085-11.384-5.179-14.454-.906.41-1.473,2.7-1.827,5.547a104.8,104.8,0,0,0-.575,11.386v.652c-.594,2.627-.766,8.345-.351,9.836Z" transform="translate(-2222.305 -757.914)" fill="#00628f"/>
      <path id="Pfad_8436" data-name="Pfad 8436" d="M2265.05,838.155a84.542,84.542,0,0,0,4.791-9.077c.511-1.831-1.012-2.412-1.643-3.117s-2.227.405-2.227.405c-.114.121-.23.256-.344.4a104.684,104.684,0,0,0-.575,11.386Z" transform="translate(-2225.272 -780.997)" fill="#191937" opacity="0.22"/>
      <g id="Gruppe_2660" data-name="Gruppe 2660" transform="translate(35.003 30.114)">
        <path id="Pfad_8437" data-name="Pfad 8437" d="M2238.465,749.41c-.591.976-2.675,2.394-1.974,2.722s-1.249,2.062-.518,2.439c1.773.913,4.4.774,5.059.029a18.562,18.562,0,0,0,1.716-3.194Z" transform="translate(-2235.806 -747.255)" fill="#f4b1ae"/>
        <path id="Pfad_8438" data-name="Pfad 8438" d="M2249.024,740.226c-.6-.2-.684-.08-.988-.459s.652-.591-.031-1.065-1.476-.9-1.138-1.777c.487-1.262,1.483-.557,2.087-.1.388.3.955-.58,1.8-.129.663.353.39.705.969,1.047.349.206,1.355-.047,1.711.655.66,1.3-.712,1.871-.256,3.145.531,1.486-2.9,2.49-3.05,2.1-.173-.454.815-1.264.61-1.661-.308-.6-.575-.217-1.174-.031-.641.2-1.464-.162-.553-.7s.558-.846.015-1.03Z" transform="translate(-2244.994 -736.212)" fill="#1f1f39"/>
      </g>
      <path id="Pfad_8439" data-name="Pfad 8439" d="M2223.98,1031.594c1.816-3.39,3.427-6.109,3.477-6.192v0l-.23-2.031A35.092,35.092,0,0,0,2223.98,1031.594Z" transform="translate(-2190.908 -946.368)" fill="#191937" opacity="0.48"/>
      <path id="Pfad_8440" data-name="Pfad 8440" d="M2180.572,627.45c-.361-1.741.108-2.459-.524-3.434s-1.22-1.937-.5-2.355c.973-.565,1-1.061,1.365-1.9,1.05-2.444,4.018-.157,3.471,2.928-.174.991-1.4,2.392-.588,4.482s-3.223.283-3.223.283Z" transform="translate(-2153.454 -607.798)" fill="#ffada4"/>
      <g id="Gruppe_2661" data-name="Gruppe 2661" transform="translate(33.127 -0.001)">
        <path id="Pfad_8441" data-name="Pfad 8441" d="M2242.427,584.76a.322.322,0,0,1-.216-.214,13,13,0,0,0-7.063-8.308.323.323,0,1,1,.281-.581,13.613,13.613,0,0,1,7.4,8.7.323.323,0,0,1-.214.4A.319.319,0,0,1,2242.427,584.76Z" transform="translate(-2233.227 -571.732)" fill="#424242"/>
        <path id="Pfad_8442" data-name="Pfad 8442" d="M2233.529,559.038a.326.326,0,0,1-.178-.134,14.922,14.922,0,0,0-3.762-4.134,15.814,15.814,0,0,0-5.039-2.361h0a.322.322,0,0,1,.184-.617,14.9,14.9,0,0,1,9.162,6.765.322.322,0,0,1-.364.483Z" transform="translate(-2224.318 -551.778)" fill="#424242"/>
      </g>
      <path id="Pfad_8443" data-name="Pfad 8443" d="M2235.49,640.412c2.095.25,3.566-.364,3.925-1.788a23.642,23.642,0,0,0,.867-4.458c-.119-1.827-4.726-3.156-4.726-3.156Z" transform="translate(-2200.539 -618.074)" fill="#424242"/>
      <path id="Pfad_8444" data-name="Pfad 8444" d="M2026.546,591.994c5.1,1.447,16.172.023,22.182.127a8.972,8.972,0,0,0,7.663-3.475,11.881,11.881,0,0,0,2.064-8.866c-1.492-8.77-26.668-10.341-31.01-10.584s-8.827,15.816-3.759,21.732c.838.978,1.158.585,2.861,1.068Z" transform="translate(-2021.438 -566.351)" fill="#424242"/>
      <path id="Pfad_8445" data-name="Pfad 8445" d="M2052.72,691.677c5.1,1.447,16.172.023,22.182.127a8.971,8.971,0,0,0,7.663-3.475C2073.552,690.6,2058.245,691.441,2052.72,691.677Z" transform="translate(-2047.612 -666.034)" fill="#01010f" opacity="0.36"/>
      <g id="Gruppe_2662" data-name="Gruppe 2662" transform="translate(12.855 22.205)">
        <path id="Pfad_8446" data-name="Pfad 8446" d="M2107.209,695.024c-.717-1.52-2.637-2.028-2.043-2.947.65-1,.3-2.359-.245-1.775-1.268,1.375-1-.593-1.86-1.883-1.407-2.116-4.782,1.344-1.51,5.129.627.725,2.28,1.6,2.845,3.641S2107.209,695.024,2107.209,695.024Z" transform="translate(-2100.167 -687.775)" fill="#f4b1ae"/>
        <path id="Pfad_8447" data-name="Pfad 8447" d="M2146.808,735.635c-11.531-2.381-14.085-2.374-16.1-4.118-1.576-1.365-8.093-10.5-8.651-11.8-.327-.758-4.789,2.573-4.25,3.107s5.863,9.413,8.324,12.272c2.439,2.835,17.793,6.167,19.927,6.066C2146.907,741.123,2148.883,736.063,2146.808,735.635Z" transform="translate(-2114.89 -714.409)" fill="#00628f"/>
      </g>
      <g id="Gruppe_2663" data-name="Gruppe 2663" transform="translate(37.912 35.587)">
        <path id="Pfad_8448" data-name="Pfad 8448" d="M2256.677,804.184c.1-.121,2.1,1.917,4.023,2.19a4.34,4.34,0,0,0,1.6-.062c.325-.075,2.044-.612,2.044-.612a6.015,6.015,0,0,0-1.55-1.5c-1.241.87.008.369-.81.531a6,6,0,0,1-1.8.07,9.978,9.978,0,0,1-2.908-.821c-.4-.176-.583-.581-.969-.477-.511.139.237.833.361.678Z" transform="translate(-2255.727 -797.975)" fill="#1f1f39" opacity="0.18"/>
        <path id="Pfad_8449" data-name="Pfad 8449" d="M2253.64,775.656a.628.628,0,0,1,.475-.784c.367-.1.442.038.828.206a7.74,7.74,0,0,0,4.482.715c1.664-.331,4.668-3.6,7.211-3.829s3.939,1.674,7.546,1.14,6.845-3.148,7.913-3.292,1.752-.116,1.854.294a2.08,2.08,0,0,1-.818,1.741,46.553,46.553,0,0,1-8.486,3.207c-2.819.487-5.909-1.221-7.7-.828s-5.142,2.544-7.219,3.073c-2.317.59-5-1.479-5.124-1.331a.649.649,0,0,1-.542.307c-.217.013-.363-.385-.42-.617Z" transform="translate(-2253.621 -769.733)" fill="#f4ad00"/>
      </g>
    </g>
    <path id="Pfad_8450" data-name="Pfad 8450" d="M2133.746,599.969a.573.573,0,0,1-.268-.067,26.078,26.078,0,0,0-11.181-2.611.571.571,0,0,1,0-1.141h0a27.356,27.356,0,0,1,11.709,2.745.571.571,0,0,1-.268,1.076Z" transform="translate(-1791.689 -518.47)" fill="#f7f7f7"/>
    <path id="Pfad_8451" data-name="Pfad 8451" d="M2208.054,626.022a.571.571,0,0,1-.563-.48,2.953,2.953,0,0,0-.87-1.535.57.57,0,1,1,.821-.792,4.06,4.06,0,0,1,1.174,2.146.568.568,0,0,1-.565.661Z" transform="translate(-1862.585 -540.97)" fill="#f7f7f7"/>
    <g id="Gruppe_2666" data-name="Gruppe 2666" transform="translate(166.911 91.395)">
      <path id="Pfad_8452" data-name="Pfad 8452" d="M1152.5,688.493a15.853,15.853,0,0,0-28.568,1.38,15.527,15.527,0,0,0,1.153,14.312.929.929,0,0,0,1.385.222l2.547-2.129a.928.928,0,0,0,.22-1.155,10.949,10.949,0,0,1-1.064-2.825,10.634,10.634,0,1,1,19.774,2.619c-.023.042-.044.083-.068.127a.925.925,0,0,0,.281,1.2l2.694,1.906a.93.93,0,0,0,1.341-.292A15.554,15.554,0,0,0,1152.5,688.493Z" transform="translate(-1122.693 -680.163)" fill="#419f81"/>
      <path id="Pfad_8453" data-name="Pfad 8453" d="M1178.244,688.5a15.787,15.787,0,0,0-24.455-4.412.963.963,0,0,0-.006,1.432c.94.862,1.794,1.61,2.523,2.229a.967.967,0,0,0,1.246,0,10.569,10.569,0,0,1,14.219.669,10.613,10.613,0,0,1,1.922,12.5c-.016.033-.034.065-.052.1a.967.967,0,0,0,.291,1.247l2.634,1.863a.968.968,0,0,0,1.395-.3,15.537,15.537,0,0,0,.289-15.327Z" transform="translate(-1148.441 -680.168)" fill="#c62020"/>
      <path id="Pfad_8454" data-name="Pfad 8454" d="M1150.72,684.814c1.55,1.452,2.908,2.626,3.932,3.478a10.566,10.566,0,0,1,14.82.129l3.912-3.473a15.982,15.982,0,0,0-22.662-.135Z" transform="translate(-1146.143 -680.168)" fill="#f4ad00"/>
      <g id="Gruppe_2665" data-name="Gruppe 2665" transform="translate(13.606 8.314)">
        <path id="Pfad_8455" data-name="Pfad 8455" d="M1208.337,767.224a2.06,2.06,0,1,1-2.3,1.785A2.061,2.061,0,0,1,1208.337,767.224Z" transform="translate(-1206.018 -761.309)" fill="#3b3b4c"/>
        <path id="Pfad_8456" data-name="Pfad 8456" d="M1215.41,738.946c.209-1.639,4.672-8.324,5.478-7.836.447.273-3.457,7.852-4.559,8.388-.428.207-.919-.55-.919-.55Z" transform="translate(-1213.876 -731.084)" fill="#3b3b4c"/>
      </g>
    </g>
    <g id="Gruppe_2668" data-name="Gruppe 2668" transform="translate(250.745 57.369)">
      <path id="Pfad_8457" data-name="Pfad 8457" d="M1481.879,402.79a1.637,1.637,0,0,1,.688.15l9.662,4.1a3.164,3.164,0,0,1,1.965,2.889c-.026,5.136-2.12,14.449-10.96,18.683a3.172,3.172,0,0,1-2.709,0c-8.843-4.233-10.936-13.547-11.006-18.683a3.288,3.288,0,0,1,2.011-2.889l9.667-4.1a1.635,1.635,0,0,1,.682-.15h0Z" transform="translate(-1469.52 -402.791)" fill="#00628f" opacity="0.4"/>
      <g id="Gruppe_2667" data-name="Gruppe 2667" transform="translate(7.609 6.919)">
        <path id="Pfad_8458" data-name="Pfad 8458" d="M1525.7,485.15a1.35,1.35,0,0,1,1.35-1.35h6.752a1.351,1.351,0,0,1,1.35,1.35V489.2a1.351,1.351,0,0,1-1.35,1.35h-6.752a1.351,1.351,0,0,1-1.35-1.35Z" transform="translate(-1525.7 -479.748)" fill="#00628f"/>
        <path id="Pfad_8459" data-name="Pfad 8459" d="M1541.208,455.23a1.687,1.687,0,0,0-1.687,1.688v1.013h-1.35v-1.013a3.038,3.038,0,1,1,6.076,0v1.013h-1.35v-1.013A1.688,1.688,0,0,0,1541.208,455.23Z" transform="translate(-1536.481 -453.88)" fill="#00628f" opacity="0.4"/>
      </g>
    </g>
    <rect id="Rechteck_1442" data-name="Rechteck 1442" width="444" height="236.171" transform="translate(1.87)" fill="none"/>
  </g>
</svg>
