<svg xmlns="http://www.w3.org/2000/svg" xmlns:xlink="http://www.w3.org/1999/xlink" width="444" height="236.422" viewBox="0 0 444 236.422">
  <defs>
    <clipPath id="clip-path">
      <rect id="Rechteck_1407" data-name="Rechteck 1407" width="1.914" height="1.893" fill="none"/>
    </clipPath>
    <clipPath id="clip-path-2">
      <rect id="Rechteck_1408" data-name="Rechteck 1408" width="21.043" height="13.074" fill="none"/>
    </clipPath>
  </defs>
  <g id="img-routeplanner-grey" transform="translate(-412 -10746.059)">
    <g id="genauigkeit-sg" transform="translate(407 10746.059)">
      <path id="Pfad_8233" data-name="Pfad 8233" d="M572.226,790.063l-1.086-2.98,82.783-30.16.512.16,57.679,18.071,110.118-1.439,58.017-35.856,1.668,2.7-58.765,36.318-111.5,1.458-.242-.076L654,760.272Z" transform="translate(-480.626 -626.408)" fill="#666"/>
      <g id="Gruppe_2587" data-name="Gruppe 2587" transform="translate(45.875 80.977)">
        <path id="Pfad_8234" data-name="Pfad 8234" d="M301.7,1044.472c0,2.7,10.442,4.882,22.736,4.882s22.261-2.186,22.261-4.882-9.966-4.882-22.261-4.882S301.7,1041.776,301.7,1044.472Z" transform="translate(-297.759 -963.54)" fill="#666"/>
        <g id="Gruppe_2583" data-name="Gruppe 2583" transform="translate(28.279 72.691)">
          <path id="Pfad_8235" data-name="Pfad 8235" d="M469.481,1021.72c.171-1.175.893-4.116.893-4.116l-3.16-.254-.734,4.442,2.044,1.523.956-1.6Z" transform="translate(-465.929 -1017.35)" fill="#d0d3d4"/>
          <path id="Pfad_8236" data-name="Pfad 8236" d="M466.515,1040.666c.273-.207.861.542.977,1.041.264,1.14,3.828,1.341,4.46,1.455a.976.976,0,0,1-.8,1.7c-1.411-.029-5.93-.1-7.472-.145a.706.706,0,0,1-.674-.536c-.26-1.1-.251-3.675.18-3.7.578.142,2.293.974,3.334.189Z" transform="translate(-462.829 -1036.986)" fill="#888a8a"/>
        </g>
        <g id="Gruppe_2584" data-name="Gruppe 2584" transform="translate(17.658 72.094)">
          <path id="Pfad_8237" data-name="Pfad 8237" d="M425.65,1018.261c-.375-1.128-.95-4.071-.95-4.071l3.1-.79.823,4.426-1.748,1.844-1.222-1.409Z" transform="translate(-419.839 -1013.4)" fill="#d0d3d4"/>
          <path id="Pfad_8238" data-name="Pfad 8238" d="M397.755,1034.8c-.338.062-.237.381-.295.89-.133,1.161-4.072,2.37-4.69,2.551a.978.978,0,0,0,.992,1.6c1.4-.183,5.88-.754,7.41-.964a.7.7,0,0,0,.609-.607c.133-1.124-.134-4.131-.566-4.113-.559.2-1.918.355-3.46.641Z" transform="translate(-392.517 -1031.024)" fill="#888a8a"/>
        </g>
        <path id="Pfad_8239" data-name="Pfad 8239" d="M405.085,762.094c-.594.467-3.029,0-4.389-.255-.474-.527,3.275-15.467,2.512-19.218-.733-3.605-1.782-7.152-2.6-10.039a6.9,6.9,0,0,0-1.3-2.364s-4.453,9.916-4.525,12.869c-.125,5.149,3.773,17.467,3.48,17.976s-2.507,1.048-4.376.9c-.57-1.576-4.651-13.97-4.732-19.062-.041-2.6-.178-5.149,2.628-16.76.622-2.574,1.456-5.778,1.669-6.4,0,0-.551.042-.551.039.68-1.982.989,1.308,1.107.116a14.536,14.536,0,0,0,0-1.474c.018-.535,1.009-1.178,1.094-1.811-.091.677,2.808-5.7,10.572.8a9.963,9.963,0,0,1,1.464,2.288c.066.284.311,3.55.743,6.829.319,2.42,1.136,13.286,1.243,16.088.211,5.483-3.441,19-4.033,19.473Z" transform="translate(-371.986 -687.526)" fill="#a8a8a8"/>
        <path id="Pfad_8240" data-name="Pfad 8240" d="M453.74,802.007a.027.027,0,0,0,0,.008c.024-.015.035-.021.038-.024A.256.256,0,0,0,453.74,802.007Z" transform="translate(-426.834 -761.829)" fill="#656b89" opacity="0.46"/>
        <path id="Pfad_8241" data-name="Pfad 8241" d="M456.451,800.4A7.466,7.466,0,0,1,458,803.6l-.766-6.456-.779,3.263Z" transform="translate(-429.135 -757.711)" fill="#656b89" opacity="0.46"/>
        <path id="Pfad_8242" data-name="Pfad 8242" d="M616.121,631.206A12.076,12.076,0,0,0,618,630.089a4.639,4.639,0,0,1,2.068-1.071,5.858,5.858,0,0,0,2.42-1.588,1.13,1.13,0,0,0-1.418-1.159c-.659.24-1.545,1.248-2.035.964-.35-.2.1-1.154-.245-1.121-.71.07-.97,1.467-1.9,2.1-.816.553-1.692.563-1.968.885s1.2,2.106,1.2,2.106Z" transform="translate(-563.636 -612.519)" fill="#d0d3d4"/>
        <path id="Pfad_8243" data-name="Pfad 8243" d="M466.318,568.963l-2.628-.938c.063-1.213,1.559-3.66,1.831-4.731.3-1.174,2.051-1.264,2.051-1.264l.53,1.666-.073.205a9.214,9.214,0,0,0-.056,3.051,6.355,6.355,0,0,0,.511,2.231c.393.655-2.168-.221-2.168-.221Z" transform="translate(-435.281 -558.114)" fill="#d0d3d4"/>
        <path id="Pfad_8244" data-name="Pfad 8244" d="M482.5,573.5a7.333,7.333,0,0,0-.216,2.137c-1.72.63-1.867-2.294-1.414-2.728.284-.272.692.107.692.107l.938.482Z" transform="translate(-449.676 -567.266)" fill="#656b89" opacity="0.14"/>
        <path id="Pfad_8245" data-name="Pfad 8245" d="M428.862,583.51c1.26-.288,1.509,2.21,2.515,2.337.61.077.488-.2.791-.477a2.485,2.485,0,0,1,1.733.447c5.453,6.264-3.548,20.074-2.868,21.165.556.891-.414,3.821-3.468,3.078-7.037-1.711-5.267-3.435-4.785-6.052.162-.881,2.142-17.328,2.142-17.328S426.921,585.12,428.862,583.51Z" transform="translate(-400.08 -576.33)" fill="#fff"/>
        <path id="Pfad_8246" data-name="Pfad 8246" d="M492.659,604.879c-1.575.968-9.292,6.225-11.877,5.8-2.654-.438-4.841-4.87-5.885-6.055h0l-.006-.006a.778.778,0,0,0-.366-.281.144.144,0,0,0-.08.006c-.376.143-.6,2.029-.734,3.885-.119,1.677-.515,4.2-.52,4.522-.063,3.565.684,2.465,1.107,7.139.177,1.95-1.662,3.453-5.22,2.483a3.985,3.985,0,0,1-1.616-2.782c.379-1.79,2.154-5.487,2-9.567-.172-4.464,2.013-7,1.745-10.694a18.624,18.624,0,0,1-.006-3.781c.008-.051.012-.076.012-.076.151.062.3.127.447.195.205.094.4.192.6.295h0c5.835,3.051,8.095,9.894,9.329,10.209,1.785.458,10.073-5.317,10.256-4.374,0,0,1.118,2.9.813,3.086Z" transform="translate(-438.472 -586.503)" fill="#888a8a"/>
        <path id="Pfad_8247" data-name="Pfad 8247" d="M411.968,603.769a16.368,16.368,0,0,0-1.023,5.992,3.118,3.118,0,0,1-1.3,2.136c-2.022,1.643-4.817-.775-3.942-3.081,1.669-4.408.378-4.136.867-8.889a3.917,3.917,0,0,0-.036-.569c-.036-.651.1-2.264.189-3.414.039-.5.068-.9.071-1.113v-.044c-.006-.7-1.159.733-1.086-.292.035-.5.086-1.1.163-1.832a15.475,15.475,0,0,1,1.334-5.275,3.217,3.217,0,0,1,.769-.979h0a15.5,15.5,0,0,1,6.716-2.882c.1-.017.157-.024.177-.027h.006a91.156,91.156,0,0,1-.653,12.862,37,37,0,0,1-2.254,7.409Z" transform="translate(-385.913 -576.341)" fill="#888a8a"/>
        <path id="Pfad_8248" data-name="Pfad 8248" d="M484.877,551.008c-.444.852-.53,2.945-1.087,2.6s-.935,1.8-1.541,1.459c-1.467-.829-2.557-2.731-2.313-3.526a15.67,15.67,0,0,1,1.548-2.636l3.392,2.1Z" transform="translate(-449.044 -546.976)" fill="#d0d3d4"/>
        <path id="Pfad_8249" data-name="Pfad 8249" d="M479.734,540.013c.42.328.369.443.781.485s.136-.722.789-.456,1.326.625,1.808,0c.7-.908-.266-1.288-.873-1.5-.391-.139-.011-.929-.722-1.317-.557-.305-.69.044-1.2-.207-.308-.151-.58-.97-1.252-.9-1.248.125-1.039,1.338-2.172,1.593-1.322.3-.5,3.149-.148,3.078.408-.083.551-1.137.932-1.174.576-.053.417.3.554.808.145.538.781.952.76.072s.362-.77.743-.473Z" transform="translate(-445.873 -536.105)" fill="#666"/>
        <path id="Pfad_8250" data-name="Pfad 8250" d="M409.97,641.65a14.339,14.339,0,0,1-.215,1.9,14.064,14.064,0,0,1-2.258,5.74c-.014-.184-.026-.373-.036-.569-.036-.651.1-2.264.189-3.414-.326.258-.654.514-.977.76l-.042-.639,1.089-1.234Z" transform="translate(-386.84 -625.708)" fill="#656b89" opacity="0.25"/>
        <g id="Gruppe_2585" data-name="Gruppe 2585" transform="translate(0 8.806)">
          <path id="Pfad_8251" data-name="Pfad 8251" d="M281.262,601.059a11.979,11.979,0,0,1-1.668-1.4,4.6,4.6,0,0,0-1.862-1.388,5.8,5.8,0,0,1-2.122-1.955,1.137,1.137,0,0,1,1.594-.915c.609.341,1.467,1.255,2,1.054.379-.143.079-2.086.424-2.045.766.089.455,2.5,1.272,3.272.711.677,1.687,1.136,1.906,1.5s-1.539,1.884-1.539,1.884Z" transform="translate(-275.61 -594.406)" fill="#d0d3d4"/>
          <path id="Pfad_8252" data-name="Pfad 8252" d="M325.43,599.192c-.3,1.106-1.917,2.871-3.911,4.654-.094.083.622-1.391.526-1.308-.677.6-2.2,2.748-2.917,3.317-.326.258-.654.514-.977.76-2.424,1.844-4.679,3.261-5.355,3.293-2.658.122-10.143-8.1-10.416-8.569-.071-.122.041-.384.245-.7a16.285,16.285,0,0,1,1.507-1.861c.245-.269.414-.446.414-.446s6.16,5.968,7.957,6.031c1.393.05,2.575-1.3,7.105-7.058q.369-.469.769-.979h0c.06-.02,1.979-.646,3.642-1.1a.931.931,0,0,1,.779.089c.912.58.893,2.908.628,3.89Z" transform="translate(-298.318 -595.057)" fill="#888a8a"/>
        </g>
        <g id="Gruppe_2586" data-name="Gruppe 2586" transform="translate(2.904 4.473)">
          <path id="Pfad_8253" data-name="Pfad 8253" d="M429.178,594.566c-.091-.106-1.867,1.755-3.61,2.042a3.825,3.825,0,0,1-1.459-.02,22.047,22.047,0,0,1-4.279-1.284c2.013-1.634,1.654-1.361,2.527-1.634,1.148.749,1.257,1.375,2,1.5a5.5,5.5,0,0,0,1.634.023,9.219,9.219,0,0,0,2.625-.8c.364-.166.518-.532.87-.446.468.113-.2.748-.314.612Z" transform="translate(-400.95 -589.448)" fill="#656b89" opacity="0.18"/>
          <path id="Pfad_8254" data-name="Pfad 8254" d="M323.895,570.587a.588.588,0,0,0-.471-.723c-.352-.085-.421.045-.785.211a7.513,7.513,0,0,1-4.26.773c-1.6-.272-4.539-3.261-6.969-3.42s-3.719,1.657-7.173,1.24-6.6-2.79-7.626-2.9-1.674-.068-1.761.317a1.941,1.941,0,0,0,.82,1.612,45.007,45.007,0,0,0,8.172,2.808c2.7.391,5.61-1.278,7.327-.952s4.965,2.264,6.96,2.711c2.225.5,4.74-1.5,4.858-1.364a.618.618,0,0,0,.524.275c.207.008.337-.369.385-.588Z" transform="translate(-294.834 -565.715)" fill="#d0d3d4"/>
        </g>
      </g>
      <path id="Pfad_8255" data-name="Pfad 8255" d="M863.447,291.828a47.183,47.183,0,0,1-14.217-1.214,3.35,3.35,0,0,1-2-1.03,2.879,2.879,0,0,1,.284-3.462,3.623,3.623,0,0,1,3.143-1.036,5.069,5.069,0,0,0,2.148.071c.865-.284,1.439-1.183,2.019-1.967s1.367-1.557,2.261-1.435c.671.092,1.2.665,1.8,1.024a1.254,1.254,0,0,0,1.805-.264c.733-1.415-.3-5.294,3.476-5.294,5.444,0,4.554,3.9,5.21,4.734.994,1.257,2.761.979,4.2.554s3.152-.828,4.263.295c.962.974,1.062,2.76,2.086,3.651,1.089.947,2.637.443,3.958.017s3.022-.582,3.788.711a2.928,2.928,0,0,1-.751,3.453,5.376,5.376,0,0,1-3.267,1.068c-7.456.514-14.226-.284-20.207.127Z" transform="translate(-714.631 -235.347)" fill="#d8d9da"/>
      <path id="Pfad_8256" data-name="Pfad 8256" d="M1819.959,458.462c-2.536,0-7.747,4.5-.3,5.219s18.6.39,23.116.4c7.368.024,9.2-.276,9.137-3.287-.033-1.742-1-5.385-4.88-5.841-4.041-.476-1.4,2.964-6.335,3.1-4.2.116-4.926-3.976-9.03-4.044-4.856-.082-3.965,4.346-6.776,5.068-3.091.793-2.4-.618-4.932-.618Z" transform="translate(-1537.294 -385.435)" fill="#d8d9da"/>
      <g id="Gruppe_2589" data-name="Gruppe 2589" transform="translate(157.133 88.796)">
        <ellipse id="Ellipse_24" data-name="Ellipse 24" cx="6.555" cy="4.012" rx="6.555" ry="4.012" transform="translate(9.646 39.381)" fill="#666"/>
        <g id="Gruppe_2588" data-name="Gruppe 2588">
          <path id="Pfad_8257" data-name="Pfad 8257" d="M1026.391,629.992c-4.4-5.417-14.2-18.547-14.2-25.921a16.2,16.2,0,0,1,32.4,0c0,7.374-9.872,20.5-14.2,25.921a2.549,2.549,0,0,1-4,0Zm-3.4-25.921a2.7,2.7,0,1,0-2.7-2.7A2.7,2.7,0,0,0,1022.991,604.071Zm10.8-5.4a2.7,2.7,0,1,0,2.7,2.7A2.7,2.7,0,0,0,1033.791,598.671Z" transform="translate(-1012.19 -587.87)" fill="#babebe"/>
          <path id="Pfad_8258" data-name="Pfad 8258" d="M1069.328,662.071a2.7,2.7,0,1,1-2.7-2.7A2.7,2.7,0,0,1,1069.328,662.071Zm10.8,0a2.7,2.7,0,1,1-2.7-2.7A2.7,2.7,0,0,1,1080.129,662.071Zm-8.1,9.788a6.78,6.78,0,0,0-5.35,2.624,1.684,1.684,0,1,1-2.8-1.873,10.117,10.117,0,0,1,16.305,0,1.686,1.686,0,0,1-2.8,1.873,6.78,6.78,0,0,0-5.35-2.624Z" transform="translate(-1055.827 -648.57)" fill="#666"/>
        </g>
      </g>
      <g id="Gruppe_2591" data-name="Gruppe 2591" transform="translate(215.054 106.943)">
        <ellipse id="Ellipse_25" data-name="Ellipse 25" cx="6.555" cy="4.012" rx="6.555" ry="4.012" transform="translate(9.646 39.381)" fill="#666"/>
        <g id="Gruppe_2590" data-name="Gruppe 2590">
          <path id="Pfad_8259" data-name="Pfad 8259" d="M1409.851,750.133c-4.4-5.417-14.2-18.547-14.2-25.921a16.2,16.2,0,1,1,32.4,0c0,7.374-9.872,20.5-14.2,25.921a2.549,2.549,0,0,1-4,0Zm-3.4-25.923a2.7,2.7,0,1,0-2.7-2.7A2.7,2.7,0,0,0,1406.452,724.21Zm10.8-5.4a2.7,2.7,0,1,0,2.7,2.7A2.7,2.7,0,0,0,1417.251,718.81Z" transform="translate(-1395.65 -708.01)" fill="#babebe"/>
          <path id="Pfad_8260" data-name="Pfad 8260" d="M1452.779,782.211a2.7,2.7,0,1,1-2.7-2.7A2.7,2.7,0,0,1,1452.779,782.211Zm10.8,0a2.7,2.7,0,1,1-2.7-2.7A2.7,2.7,0,0,1,1463.58,782.211Zm-8.1,9.786a6.78,6.78,0,0,0-5.35,2.624,1.685,1.685,0,0,1-2.8-1.873,10.117,10.117,0,0,1,16.306,0,1.686,1.686,0,0,1-2.8,1.873,6.78,6.78,0,0,0-5.35-2.624Z" transform="translate(-1439.279 -768.71)" fill="#666"/>
        </g>
      </g>
      <g id="Gruppe_2592" data-name="Gruppe 2592" transform="translate(117.639 140.62)">
        <path id="Pfad_8261" data-name="Pfad 8261" d="M764.921,973.092c-4.4-5.417-14.2-18.547-14.2-25.921a16.2,16.2,0,1,1,32.4,0c0,7.374-9.872,20.5-14.2,25.921a2.549,2.549,0,0,1-4,0Zm-3.4-25.923a2.7,2.7,0,1,0-2.7-2.7A2.7,2.7,0,0,0,761.521,947.17Zm10.8-5.4a2.7,2.7,0,1,0,2.7,2.7A2.7,2.7,0,0,0,772.321,941.77Z" transform="translate(-750.72 -930.97)" fill="#babebe"/>
        <path id="Pfad_8262" data-name="Pfad 8262" d="M807.849,1005.171a2.7,2.7,0,1,1-2.7-2.7A2.7,2.7,0,0,1,807.849,1005.171Zm10.8,0a2.7,2.7,0,1,1-2.7-2.7A2.7,2.7,0,0,1,818.651,1005.171Zm-8.1,9.786a6.78,6.78,0,0,0-5.35,2.624,1.684,1.684,0,1,1-2.8-1.873,10.117,10.117,0,0,1,16.306,0,1.686,1.686,0,0,1-2.8,1.873,6.78,6.78,0,0,0-5.35-2.624Z" transform="translate(-794.349 -991.67)" fill="#666"/>
      </g>
      <g id="i" transform="translate(279.051 133.429)">
        <path id="Pfad_8263" data-name="Pfad 8263" d="M1833.542,925.483c-4.4-5.417-14.2-18.547-14.2-25.921a16.2,16.2,0,1,1,32.4,0c0,7.374-9.872,20.5-14.2,25.921a2.549,2.549,0,0,1-4,0Zm-3.4-25.921a2.7,2.7,0,1,0-2.7-2.7A2.7,2.7,0,0,0,1830.141,899.561Zm10.8-5.4a2.7,2.7,0,1,0,2.7,2.7A2.7,2.7,0,0,0,1840.943,894.16Z" transform="translate(-1819.34 -883.36)" fill="#babebe"/>
        <path id="Pfad_8264" data-name="Pfad 8264" d="M1876.479,957.561a2.7,2.7,0,1,1-2.7-2.7A2.7,2.7,0,0,1,1876.479,957.561Zm10.8,0a2.7,2.7,0,1,1-2.7-2.7A2.7,2.7,0,0,1,1887.279,957.561Zm-8.1,9.788a6.78,6.78,0,0,0-5.35,2.624,1.684,1.684,0,1,1-2.8-1.873,10.117,10.117,0,0,1,16.305,0,1.686,1.686,0,0,1-2.8,1.873,6.78,6.78,0,0,0-5.35-2.624Z" transform="translate(-1862.977 -944.06)" fill="#666"/>
      </g>
      <g id="Gruppe_2595" data-name="Gruppe 2595" transform="translate(384.255 69.408)">
        <ellipse id="Ellipse_26" data-name="Ellipse 26" cx="6.555" cy="4.012" rx="6.555" ry="4.012" transform="translate(9.646 39.381)" fill="#666"/>
        <g id="Gruppe_2594" data-name="Gruppe 2594">
          <path id="Pfad_8265" data-name="Pfad 8265" d="M2530.042,501.633c-4.4-5.417-14.2-18.547-14.2-25.921a16.2,16.2,0,1,1,32.4,0c0,7.374-9.873,20.5-14.2,25.921a2.548,2.548,0,0,1-4,0Zm-3.4-25.921a2.7,2.7,0,1,0-2.7-2.7A2.7,2.7,0,0,0,2526.641,475.711Zm10.8-5.4a2.7,2.7,0,1,0,2.7,2.7A2.7,2.7,0,0,0,2537.443,470.311Z" transform="translate(-2515.84 -459.51)" fill="#babebe"/>
          <path id="Pfad_8266" data-name="Pfad 8266" d="M2572.979,533.711a2.7,2.7,0,1,1-2.7-2.7A2.7,2.7,0,0,1,2572.979,533.711Zm10.8,0a2.7,2.7,0,1,1-2.7-2.7A2.7,2.7,0,0,1,2583.779,533.711Zm-8.1,9.788a6.779,6.779,0,0,0-5.35,2.624,1.685,1.685,0,1,1-2.8-1.873,10.117,10.117,0,0,1,16.305,0,1.686,1.686,0,0,1-2.8,1.873,6.78,6.78,0,0,0-5.35-2.624Z" transform="translate(-2559.477 -520.21)" fill="#666"/>
        </g>
      </g>
      <g id="Gruppe_2597" data-name="Gruppe 2597" transform="translate(325.863 104.065)">
        <ellipse id="Ellipse_27" data-name="Ellipse 27" cx="6.555" cy="4.012" rx="6.555" ry="4.012" transform="translate(9.646 39.381)" fill="#666"/>
        <g id="Gruppe_2596" data-name="Gruppe 2596">
          <path id="Pfad_8267" data-name="Pfad 8267" d="M2143.461,731.083c-4.4-5.417-14.2-18.547-14.2-25.921a16.2,16.2,0,0,1,32.4,0c0,7.374-9.873,20.5-14.2,25.921a2.549,2.549,0,0,1-4,0Zm-3.4-25.923a2.7,2.7,0,1,0-2.7-2.7A2.7,2.7,0,0,0,2140.061,705.16Zm10.8-5.4a2.7,2.7,0,1,0,2.7,2.7A2.7,2.7,0,0,0,2150.861,699.76Z" transform="translate(-2129.26 -688.96)" fill="#babebe"/>
          <path id="Pfad_8268" data-name="Pfad 8268" d="M2186.4,763.161a2.7,2.7,0,1,1-2.7-2.7A2.7,2.7,0,0,1,2186.4,763.161Zm10.8,0a2.7,2.7,0,1,1-2.7-2.7A2.7,2.7,0,0,1,2197.2,763.161Zm-8.1,9.786a6.781,6.781,0,0,0-5.35,2.624,1.685,1.685,0,0,1-2.8-1.873,10.117,10.117,0,0,1,16.306,0,1.686,1.686,0,0,1-2.8,1.873,6.781,6.781,0,0,0-5.35-2.624Z" transform="translate(-2172.897 -749.66)" fill="#666"/>
        </g>
      </g>
      <rect id="Rechteck_1436" data-name="Rechteck 1436" width="444" height="236.422" transform="translate(5)" fill="none"/>
    </g>
    <rect id="Rechteck_1406" data-name="Rechteck 1406" width="6.853" height="6.853" transform="matrix(0.978, -0.208, 0.208, 0.978, 590.327, 10824.533)" fill="#e0e0e0"/>
    <path id="Pfad_7490" data-name="Pfad 7490" d="M123.377,25.632c0,10.2-10.474,18.463-23.4,18.463S76.587,35.829,76.587,25.632,87.061,7.169,99.981,7.169s23.4,8.266,23.4,18.463" transform="translate(509.413 10788.422)" fill="#e0e0e0"/>
    <path id="Pfad_7491" data-name="Pfad 7491" d="M105.421,17.193h-2.591a2.3,2.3,0,0,0-2.3,2.3.748.748,0,0,0,.766.744.761.761,0,0,0,.766-.744.766.766,0,0,1,.766-.766h2.591a1.239,1.239,0,0,1,1.237,1.239,1.259,1.259,0,0,1-.73,1.132l-2.338,1.371a.724.724,0,0,0-.377.66v.957a.765.765,0,0,0,1.531,0v-.519l1.915-1.125a2.77,2.77,0,0,0-1.237-5.247" transform="translate(505.42 10786.75)" fill="#7b0a1c"/>
    <g id="Gruppe_2307" data-name="Gruppe 2307" transform="translate(608.441 10812.748)" style="isolation: isolate">
      <g id="Gruppe_2306" data-name="Gruppe 2306" transform="translate(0 0)">
        <g id="Gruppe_2305" data-name="Gruppe 2305" clip-path="url(#clip-path)">
          <path id="Pfad_7492" data-name="Pfad 7492" d="M104.475,27.76a.957.957,0,0,0-.957.957.939.939,0,0,0,.957.935.953.953,0,0,0,.957-.935.971.971,0,0,0-.957-.957" transform="translate(-103.519 -27.76)" fill="#7b0a1c"/>
        </g>
      </g>
    </g>
    <path id="Pfad_7493" data-name="Pfad 7493" d="M110.785,32.671l-1.841,1.738a.308.308,0,0,1-.518-.222v-.922h-9.8v.922a.307.307,0,0,1-.517.223l-1.842-1.74a.316.316,0,0,1,0-.446L98.1,30.488a.307.307,0,0,1,.518.222v.919h9.8V30.71a.307.307,0,0,1,.518-.222l1.841,1.738a.316.316,0,0,1,0,.446" transform="translate(506.147 10784.548)" fill="#040506"/>
    <g id="Gruppe_2310" data-name="Gruppe 2310" transform="translate(599.251 10809.293)" opacity="0.4" style="isolation: isolate">
      <g id="Gruppe_2309" data-name="Gruppe 2309" transform="translate(0 0)">
        <g id="Gruppe_2308" data-name="Gruppe 2308" clip-path="url(#clip-path-2)">
          <path id="Pfad_7494" data-name="Pfad 7494" d="M94.94,26.881a1.634,1.634,0,1,0-1.635-1.634,1.633,1.633,0,0,0,1.635,1.634m.817.817H94.123a1.635,1.635,0,0,0-1.634,1.634v2.451a.813.813,0,0,0,.794.817l.022,3.268a.818.818,0,0,0,.817.817h1.634a.817.817,0,0,0,.817-.817V33.408l-1.286-1.213a1.045,1.045,0,0,1-.348-.817,1.125,1.125,0,0,1,.348-.817l1.841-1.738a1.129,1.129,0,0,1,.143-.092A1.656,1.656,0,0,0,95.757,27.7m15.323-.817a1.634,1.634,0,1,0-1.634-1.634,1.633,1.633,0,0,0,1.634,1.634m.817.817h-1.634a1.656,1.656,0,0,0-1.517,1.032,1.021,1.021,0,0,1,.143.092l1.841,1.737a1.134,1.134,0,0,1,0,1.636l-1.286,1.212v2.461a.817.817,0,0,0,.817.817H111.9a.818.818,0,0,0,.817-.817V32.6a.817.817,0,0,0,.817-.817V29.332A1.636,1.636,0,0,0,111.9,27.7" transform="translate(-92.489 -23.613)" fill="#040506"/>
        </g>
      </g>
    </g>
  </g>
</svg>
