<svg xmlns="http://www.w3.org/2000/svg" width="167.998" height="132" viewBox="0 0 167.998 132">
  <g id="img-seasonal-optimization" transform="translate(-504.66 -215.68)">
    <path id="Pfad_1925" data-name="Pfad 1925" d="M642.772,350.678l-10,6.9L585.006,371.1c5.9-13.254,20.531-39.821,26.874-54.358-6.924-3.041-12.807-1.416-20.859-1.416l-.536,0h-.021l-.42.006h0l-.322.007-.344.008-.52.018-.109,0-.462.02q-.272.013-.543.029t-.539.034c-.023,0-.045,0-.067,0-.154.01-.308.021-.462.034l-.028,0-.526.043q-.548.047-1.093.105c-.172.018-.344.037-.515.056s-.356.042-.533.064l-.028,0-.5.066-.441.061-.154.023-.388.058-.177.027-.366.058-.089.014-.343.058-.045.008-.235.04q-.46.081-.917.169c-.174.033-.347.067-.52.1s-.346.071-.518.108q-.295.062-.587.128l-.416.094-.051.013-.447.106-.1.025c-.132.032-.264.064-.4.1l-.108.027c-.153.039-.3.077-.456.118s-.3.079-.449.119l-.124.034-.392.109-.084.023c-.156.044-.312.089-.468.135q-.682.2-1.358.416l-.219.071q-.967.313-1.92.662c-.123.045-.246.09-.369.136-.255.1-.508.192-.761.292-.129.05-.257.1-.385.151-.076.029-.151.06-.226.091-.11.044-.219.088-.328.134-.05.019-.1.04-.148.061q-.256.1-.511.214c-.186.079-.371.159-.555.24s-.379.167-.568.253-.371.169-.556.256-.37.173-.554.262q-.249.119-.5.241l-.09.045q-.242.119-.484.241l-.033.017q-.268.135-.535.274c-.17.088-.341.178-.511.268l-.109.059-.437.236-.049.027-.414.229-.162.091-.285.162-.274.158q-.777.449-1.539.924c-.138.086-.275.172-.412.259l-.075.047c-.11.071-.22.14-.329.213q-.346.222-.689.451l-.424.286-.031.022c-.139.094-.278.19-.416.287l-.181.125c-.131.092-.261.183-.391.277l-.027.019-.085.061-.242.175-.027.019-.108.079c-.135.1-.27.2-.4.3q-.267.2-.532.4l-.235.181c-.105.082-.211.162-.316.245l-.306.242-.158.124-.075.061c-.1.08-.2.16-.3.24l-.081.066-.2.167-.258.214-.1.087-.156.131-.206.173-.141.122q-.249.214-.5.431c-.089.078-.178.157-.267.236-.133.118-.265.236-.4.356l-.263.239c-.162.149-.322.3-.482.448l-.236.223q-.257.245-.511.493l-.243.239q-.2.193-.39.389l-.24.243q-.237.241-.469.484l-.169.176q-.271.285-.538.574l-.217.236c-.129.141-.257.283-.385.426-.073.081-.145.161-.217.243q-.229.259-.455.521l-.12.138q-.275.32-.545.647l-.192.234c-.126.152-.251.306-.374.46l-.2.245q-.217.273-.43.548l-.111.142c-.173.225-.344.452-.515.679-.058.077-.116.156-.173.234-.12.161-.238.324-.356.487l-.181.252q-.2.279-.394.56l-.112.161q-.242.351-.478.7l-.162.245q-.165.249-.327.5l-.175.272c-.116.183-.232.367-.346.551l-.123.2q-.22.358-.435.72c-.054.09-.106.181-.159.272q-.144.246-.286.493c-.058.1-.116.2-.174.3q-.146.257-.289.517c-.047.085-.094.17-.141.256-.131.24-.259.481-.387.723l-.166.32q-.118.228-.235.458c-.06.119-.12.237-.179.356q-.113.227-.223.455c-.055.113-.111.225-.165.339l0,.006h0c-.046.1-.09.194-.136.291-.088.187-.176.373-.262.56-.076.167-.149.334-.224.5-.057.129-.116.257-.172.386-.106.241-.208.484-.309.726-.024.056-.049.113-.072.17q-.185.444-.361.893a.163.163,0,0,0-.007.018q-.728,1.845-1.327,3.752a55.357,55.357,0,0,0-1.449,5.647,56.2,56.2,0,0,0,98.906,46.111c7.73-9.591,11.832-22.073,11.832-35.333a51.115,51.115,0,0,0-3.906-20.338Z" transform="translate(-27.633 -90.837)" fill="#545466"/>
    <path id="Pfad_1926" data-name="Pfad 1926" d="M1229.54,757.482c0,13.305-4.1,25.829-11.833,35.453l-9.125-8.032-35.223-27.129,42.959-13.59,11.088-3.782c1.909,5.65,2.133,10.787,2.133,17.082Z" transform="translate(-612.267 -480.649)" fill="#fff"/>
    <path id="Pfad_1927" data-name="Pfad 1927" d="M1472.908,331.318c-.152-.087-.306-.173-.458-.258l.3.168Z" transform="translate(-886.116 -105.643)" fill="#8cc9da"/>
    <path id="Pfad_1928" data-name="Pfad 1928" d="M613.845,371.675a56.14,56.14,0,0,1-97.457-51.756,55.245,55.245,0,0,1,2.87-7.3,56.2,56.2,0,0,1,14.267-18.55q.18-.154.362-.305l.174-.145.046-.039q.172-.144.347-.285c.15-.123.3-.246.454-.367q1.01-.807,2.058-1.568.177-.13.354-.256l.027-.019c.13-.093.26-.185.391-.277l.181-.125c.138-.1.277-.193.416-.287l.031-.022.424-.286q.343-.228.689-.451c.109-.072.219-.142.329-.213l.075-.047c.137-.087.274-.173.412-.259q.761-.474,1.539-.924l.274-.158.285-.162.162-.091.414-.229.049-.027.437-.236.109-.059c.17-.09.34-.18.511-.268s.356-.184.535-.274l.033-.017q.242-.122.484-.241l.09-.045q.248-.122.5-.241c.184-.088.368-.176.554-.262s.37-.172.556-.256.378-.17.568-.253.37-.161.555-.24q.254-.11.511-.214c.049-.021.1-.042.148-.061q.163-.068.328-.134c.075-.031.15-.061.226-.091.128-.051.256-.1.385-.151.253-.1.506-.2.761-.292.122-.046.246-.092.369-.136q.952-.348,1.92-.662l.219-.071q.675-.217,1.358-.416c.155-.045.311-.091.468-.135l.084-.024.392-.109.124-.034c.149-.04.3-.081.449-.119s.3-.079.456-.118l.108-.027c.132-.034.263-.066.4-.1l.1-.025.447-.106.051-.013.416-.094q.292-.066.587-.128.258-.056.518-.108t.52-.1q.457-.088.916-.169l.235-.04.045-.008.344-.058.089-.014.366-.058.177-.027.388-.058.154-.023.44-.061.5-.066c.009,0,.018,0,.028,0,.177-.022.355-.044.533-.064s.343-.039.515-.056q.544-.058,1.093-.105l.526-.043.028,0c.154-.013.308-.023.462-.034l.068,0q.27-.019.539-.034t.543-.029l.462-.02.109,0,.52-.018.343-.008.322-.007h0l.42-.006h.021l.536,0a56.14,56.14,0,0,1,22.632,4.729c-6.431,14.739-16.774,38.4-22.632,51.55l35.223,27.038Z" transform="translate(-8.405 -59.487)" fill="#a5cee0"/>
    <path id="Pfad_1929" data-name="Pfad 1929" d="M806.227,285.4c-6.431,14.789-16.774,38.527-22.632,51.725-11.821-13.7-27.206-31.947-36.5-43q.18-.154.362-.306l.174-.146.046-.039q.172-.144.347-.286c.15-.123.3-.246.454-.368q1.01-.81,2.058-1.573.177-.13.354-.257l.027-.019c.13-.094.26-.186.391-.278l.181-.126c.138-.1.277-.193.416-.288s.3-.207.455-.309q.343-.229.689-.452c.109-.073.219-.143.329-.214l.075-.047c.137-.088.274-.174.412-.26q.761-.476,1.538-.927l.274-.159.285-.163.162-.091.414-.229.049-.027.437-.237.109-.059c.17-.09.34-.181.511-.269s.356-.185.535-.275l.033-.017q.242-.123.484-.242l.09-.045q.248-.123.5-.242c.184-.089.368-.176.554-.262s.37-.172.556-.257.378-.17.568-.254.37-.161.555-.241q.254-.11.511-.215c.049-.021.1-.042.148-.062q.163-.068.328-.134c.075-.031.15-.062.226-.091.128-.051.256-.1.385-.152q.38-.151.761-.293.184-.07.369-.137.952-.349,1.92-.664l.219-.071q.675-.218,1.358-.418c.155-.046.311-.091.468-.135l.084-.024.392-.11.124-.034c.149-.041.3-.081.449-.12s.3-.079.456-.118l.108-.027c.132-.034.263-.066.4-.1l.1-.025.447-.106.052-.013.416-.095q.292-.066.587-.128.258-.056.518-.108t.52-.1q.457-.089.917-.17l.235-.04.045-.008.343-.058.09-.014.366-.058.177-.027.388-.058.154-.023.441-.061.5-.066c.009,0,.019,0,.028,0,.177-.022.355-.044.533-.064s.343-.039.515-.057q.544-.058,1.093-.105l.526-.043.028,0c.154-.013.308-.024.462-.034l.068,0q.27-.019.539-.034c.181-.011.361-.02.543-.029l.462-.02.109,0,.52-.018.343-.008.322-.007h0l.42-.006h.021l.536,0A55.976,55.976,0,0,1,806.227,285.4Z" transform="translate(-221.98 -59.487)" fill="#003f5c"/>
    <path id="Pfad_1930" data-name="Pfad 1930" d="M597.662,443.02c-27.594-8.657-44.429-14.071-53.632-17.069a56.367,56.367,0,0,1,21.979-29.641l31.653,46.711Z" transform="translate(-36.047 -165.386)" fill="#00628f"/>
    <path id="Pfad_1931" data-name="Pfad 1931" d="M570.02,685.162c-14.942,21.131-26.137,36.749-32.48,45.554a56.164,56.164,0,0,1-18.283-69.946l50.763,24.391Z" transform="translate(-8.405 -407.757)" fill="#e5af21"/>
    <path id="Pfad_1932" data-name="Pfad 1932" d="M672.658,1742.243c0,1.015-39.636,2.193-85.306,2.193s-82.692-.823-82.692-1.838,37.023-1.838,82.692-1.838,85.306.468,85.306,1.482Z" transform="translate(0 -1396.756)" fill="#32323f" opacity="0.18"/>
    <g id="Gruppe_2154" data-name="Gruppe 2154" transform="translate(614.751 299.036)">
      <g id="Gruppe_2142" data-name="Gruppe 2142" transform="translate(0 1.161)">
        <path id="Pfad_1933" data-name="Pfad 1933" d="M1810.138,1268.62l-.588-.188a.512.512,0,0,1-.338-.651l14.951-44.341a.533.533,0,0,1,.667-.329l.588.188a.513.513,0,0,1,.338.651l-14.951,44.341A.533.533,0,0,1,1810.138,1268.62Z" transform="translate(-1809.186 -1222.965)" fill="#7e4f54"/>
        <g id="Gruppe_2138" data-name="Gruppe 2138" transform="translate(13.047 8.013)">
          <path id="Pfad_1934" data-name="Pfad 1934" d="M1963.78,1317.245v.132a.813.813,0,0,0,.157.549.215.215,0,0,0,.033.031.245.245,0,0,0,.037.026c.085.053.1.03.2.03h11.812a.394.394,0,0,0,.063,0c.129-.019.145-.1.238-.236.009-.012.017-.025.024-.037a.679.679,0,0,0,.1-.349v-.132c0-.351-.1-.646-.42-.646H1964.21c-.323,0-.429.285-.429.635Z" transform="translate(-1963.78 -1316.61)" fill="#6b3e45"/>
          <path id="Pfad_1935" data-name="Pfad 1935" d="M1965.45,1326.831a.412.412,0,0,0,.048.026.535.535,0,0,0,.24.057h11.812a.368.368,0,0,0,.063,0c.129-.019.145-.1.238-.236l.025-.037a50.071,50.071,0,0,0-12.409.19l-.015,0Z" transform="translate(-1965.309 -1325.51)" fill="#1f1f3b" opacity="0.24"/>
        </g>
        <g id="Gruppe_2139" data-name="Gruppe 2139" transform="translate(10.191 16.648)">
          <path id="Pfad_1936" data-name="Pfad 1936" d="M1929.94,1419.575v.132a.814.814,0,0,0,.157.549.235.235,0,0,0,.033.031.252.252,0,0,0,.037.026c.085.053.1.03.2.03h11.813a.389.389,0,0,0,.062,0c.129-.019.145-.1.238-.236.009-.012.017-.024.024-.037a.679.679,0,0,0,.1-.349v-.132c0-.351-.1-.646-.42-.646h-11.812c-.322,0-.429.285-.429.636Z" transform="translate(-1929.94 -1418.94)" fill="#6b3e45"/>
          <path id="Pfad_1937" data-name="Pfad 1937" d="M1931.61,1429.151a.411.411,0,0,0,.048.026.537.537,0,0,0,.24.057h11.812a.381.381,0,0,0,.063,0c.129-.019.145-.1.238-.236a.442.442,0,0,0,.024-.037,50.075,50.075,0,0,0-12.409.19l-.015,0Z" transform="translate(-1931.469 -1427.83)" fill="#1f1f3b" opacity="0.24"/>
        </g>
        <g id="Gruppe_2140" data-name="Gruppe 2140" transform="translate(7.369 25.063)">
          <path id="Pfad_1938" data-name="Pfad 1938" d="M1896.51,1519.285v.132a.814.814,0,0,0,.157.549.233.233,0,0,0,.033.031.255.255,0,0,0,.037.026c.085.053.1.03.2.03h11.813a.392.392,0,0,0,.063,0c.129-.019.145-.1.238-.236l.024-.037a.681.681,0,0,0,.1-.349v-.132c0-.351-.1-.646-.42-.646h-11.812c-.322,0-.428.285-.428.635Z" transform="translate(-1896.51 -1518.65)" fill="#6b3e45"/>
          <path id="Pfad_1939" data-name="Pfad 1939" d="M1898.18,1528.861a.431.431,0,0,0,.048.026.536.536,0,0,0,.24.057h11.812a.405.405,0,0,0,.063,0c.129-.02.145-.1.238-.236.008-.012.017-.025.024-.037a50.063,50.063,0,0,0-12.409.19l-.015,0Z" transform="translate(-1898.039 -1527.54)" fill="#1f1f3b" opacity="0.24"/>
        </g>
        <g id="Gruppe_2141" data-name="Gruppe 2141" transform="translate(4.26 34.393)">
          <path id="Pfad_1940" data-name="Pfad 1940" d="M1859.67,1629.835v.132a.814.814,0,0,0,.157.549.256.256,0,0,0,.033.031.245.245,0,0,0,.037.026c.085.053.1.03.2.03h11.812a.391.391,0,0,0,.063,0c.129-.019.145-.1.238-.236.009-.012.017-.024.024-.037a.681.681,0,0,0,.1-.349v-.132c0-.351-.1-.646-.42-.646H1860.1c-.323,0-.429.285-.429.635Z" transform="translate(-1859.67 -1629.2)" fill="#6b3e45"/>
          <path id="Pfad_1941" data-name="Pfad 1941" d="M1861.35,1639.421a.5.5,0,0,0,.048.026.536.536,0,0,0,.24.056h11.813a.393.393,0,0,0,.063,0c.129-.019.145-.1.238-.236.009-.012.017-.025.024-.037a50.074,50.074,0,0,0-12.409.19l-.015,0Z" transform="translate(-1861.208 -1638.099)" fill="#1f1f3b" opacity="0.24"/>
        </g>
        <path id="Pfad_1942" data-name="Pfad 1942" d="M1961.794,1267.442l-.592-.178a.513.513,0,0,1-.349-.645L1975,1222.028a.531.531,0,0,1,.661-.34l.592.178a.513.513,0,0,1,.35.645l-14.147,44.591A.531.531,0,0,1,1961.794,1267.442Z" transform="translate(-1948.032 -1221.665)" fill="#7e4f54"/>
      </g>
      <g id="Gruppe_2147" data-name="Gruppe 2147" transform="translate(0 1.161)" opacity="0.35">
        <path id="Pfad_1943" data-name="Pfad 1943" d="M1810.138,1268.62l-.588-.188a.512.512,0,0,1-.338-.651l14.951-44.341a.533.533,0,0,1,.667-.329l.588.188a.513.513,0,0,1,.338.651l-14.951,44.341A.533.533,0,0,1,1810.138,1268.62Z" transform="translate(-1809.186 -1222.965)" fill="#32323f"/>
        <g id="Gruppe_2143" data-name="Gruppe 2143" transform="translate(13.047 8.013)">
          <path id="Pfad_1944" data-name="Pfad 1944" d="M1963.78,1317.245v.132a.813.813,0,0,0,.157.549.215.215,0,0,0,.033.031.245.245,0,0,0,.037.026c.085.053.1.03.2.03h11.812a.394.394,0,0,0,.063,0c.129-.019.145-.1.238-.236.009-.012.017-.025.024-.037a.679.679,0,0,0,.1-.349v-.132c0-.351-.1-.646-.42-.646H1964.21c-.323,0-.429.285-.429.635Z" transform="translate(-1963.78 -1316.61)" fill="#32323f"/>
          <path id="Pfad_1945" data-name="Pfad 1945" d="M1965.45,1326.831a.412.412,0,0,0,.048.026.535.535,0,0,0,.24.057h11.812a.368.368,0,0,0,.063,0c.129-.019.145-.1.238-.236l.025-.037a50.071,50.071,0,0,0-12.409.19l-.015,0Z" transform="translate(-1965.309 -1325.51)" fill="#32323f" opacity="0.24"/>
        </g>
        <g id="Gruppe_2144" data-name="Gruppe 2144" transform="translate(10.191 16.648)">
          <path id="Pfad_1946" data-name="Pfad 1946" d="M1929.94,1419.575v.132a.814.814,0,0,0,.157.549.235.235,0,0,0,.033.031.252.252,0,0,0,.037.026c.085.053.1.03.2.03h11.813a.389.389,0,0,0,.062,0c.129-.019.145-.1.238-.236.009-.012.017-.024.024-.037a.679.679,0,0,0,.1-.349v-.132c0-.351-.1-.646-.42-.646h-11.812c-.322,0-.429.285-.429.636Z" transform="translate(-1929.94 -1418.94)" fill="#32323f"/>
          <path id="Pfad_1947" data-name="Pfad 1947" d="M1931.61,1429.151a.411.411,0,0,0,.048.026.537.537,0,0,0,.24.057h11.812a.381.381,0,0,0,.063,0c.129-.019.145-.1.238-.236a.442.442,0,0,0,.024-.037,50.075,50.075,0,0,0-12.409.19l-.015,0Z" transform="translate(-1931.469 -1427.83)" fill="#32323f" opacity="0.24"/>
        </g>
        <g id="Gruppe_2145" data-name="Gruppe 2145" transform="translate(7.369 25.063)">
          <path id="Pfad_1948" data-name="Pfad 1948" d="M1896.51,1519.285v.132a.814.814,0,0,0,.157.549.233.233,0,0,0,.033.031.255.255,0,0,0,.037.026c.085.053.1.03.2.03h11.813a.392.392,0,0,0,.063,0c.129-.019.145-.1.238-.236l.024-.037a.681.681,0,0,0,.1-.349v-.132c0-.351-.1-.646-.42-.646h-11.812c-.322,0-.428.285-.428.635Z" transform="translate(-1896.51 -1518.65)" fill="#32323f"/>
          <path id="Pfad_1949" data-name="Pfad 1949" d="M1898.18,1528.861a.431.431,0,0,0,.048.026.536.536,0,0,0,.24.057h11.812a.405.405,0,0,0,.063,0c.129-.02.145-.1.238-.236.008-.012.017-.025.024-.037a50.063,50.063,0,0,0-12.409.19l-.015,0Z" transform="translate(-1898.039 -1527.54)" fill="#32323f" opacity="0.24"/>
        </g>
        <g id="Gruppe_2146" data-name="Gruppe 2146" transform="translate(4.26 34.393)">
          <path id="Pfad_1950" data-name="Pfad 1950" d="M1859.67,1629.835v.132a.814.814,0,0,0,.157.549.256.256,0,0,0,.033.031.245.245,0,0,0,.037.026c.085.053.1.03.2.03h11.812a.391.391,0,0,0,.063,0c.129-.019.145-.1.238-.236.009-.012.017-.024.024-.037a.681.681,0,0,0,.1-.349v-.132c0-.351-.1-.646-.42-.646H1860.1c-.323,0-.429.285-.429.635Z" transform="translate(-1859.67 -1629.2)" fill="#32323f"/>
          <path id="Pfad_1951" data-name="Pfad 1951" d="M1861.35,1639.421a.5.5,0,0,0,.048.026.536.536,0,0,0,.24.056h11.813a.393.393,0,0,0,.063,0c.129-.019.145-.1.238-.236.009-.012.017-.025.024-.037a50.074,50.074,0,0,0-12.409.19l-.015,0Z" transform="translate(-1861.208 -1638.099)" fill="#32323f" opacity="0.24"/>
        </g>
        <path id="Pfad_1952" data-name="Pfad 1952" d="M1961.794,1267.442l-.592-.178a.513.513,0,0,1-.349-.645L1975,1222.028a.531.531,0,0,1,.661-.34l.592.178a.513.513,0,0,1,.35.645l-14.147,44.591A.531.531,0,0,1,1961.794,1267.442Z" transform="translate(-1948.032 -1221.665)" fill="#32323f"/>
      </g>
      <g id="Gruppe_2152" data-name="Gruppe 2152" transform="translate(15.87 0.128)">
        <path id="Pfad_1953" data-name="Pfad 1953" d="M2155.04,1257.635l.588-.193a.529.529,0,0,0,.337-.667l-14.951-45.525a.529.529,0,0,0-.668-.338l-.588.193a.529.529,0,0,0-.337.667l14.951,45.524A.529.529,0,0,0,2155.04,1257.635Z" transform="translate(-2127.399 -1210.762)" fill="#7e4f54"/>
        <g id="Gruppe_2148" data-name="Gruppe 2148" transform="translate(2.885 8.225)">
          <path id="Pfad_1954" data-name="Pfad 1954" d="M2044.092,1307.544v.136a.85.85,0,0,1-.157.563.255.255,0,0,1-.033.032.2.2,0,0,1-.037.027c-.085.055-.1.03-.2.03H2031.85a.393.393,0,0,1-.062,0c-.129-.02-.145-.106-.238-.243l-.024-.038a.711.711,0,0,1-.1-.358v-.136c0-.36.1-.663.42-.663h11.812c.323,0,.429.293.429.653Z" transform="translate(-2031.43 -1306.89)" fill="#6b3e45"/>
          <path id="Pfad_1955" data-name="Pfad 1955" d="M2044.995,1317.385a.342.342,0,0,1-.048.027.516.516,0,0,1-.24.058h-11.812a.374.374,0,0,1-.062,0c-.129-.02-.145-.106-.238-.243-.008-.012-.017-.025-.024-.038a48.75,48.75,0,0,1,12.409.195l.015,0Z" transform="translate(-2032.474 -1316.028)" fill="#1f1f3b" opacity="0.24"/>
        </g>
        <g id="Gruppe_2149" data-name="Gruppe 2149" transform="translate(5.741 17.09)">
          <path id="Pfad_1956" data-name="Pfad 1956" d="M2077.933,1412.594v.136a.85.85,0,0,1-.157.563.255.255,0,0,1-.033.032.2.2,0,0,1-.037.027c-.085.055-.1.03-.2.03h-11.812a.374.374,0,0,1-.062,0c-.129-.019-.145-.106-.238-.243-.009-.012-.017-.025-.025-.038a.713.713,0,0,1-.1-.358v-.136c0-.36.1-.663.42-.663H2077.5c.322,0,.428.293.428.653Z" transform="translate(-2065.27 -1411.94)" fill="#6b3e45"/>
          <path id="Pfad_1957" data-name="Pfad 1957" d="M2078.834,1422.445a.329.329,0,0,1-.048.027.515.515,0,0,1-.24.058h-11.812a.368.368,0,0,1-.062,0c-.129-.019-.145-.106-.238-.243-.008-.012-.017-.025-.024-.038a48.76,48.76,0,0,1,12.409.195l.015,0Z" transform="translate(-2066.314 -1421.088)" fill="#1f1f3b" opacity="0.24"/>
        </g>
        <g id="Gruppe_2150" data-name="Gruppe 2150" transform="translate(8.562 25.729)">
          <path id="Pfad_1958" data-name="Pfad 1958" d="M2111.362,1514.964v.136a.849.849,0,0,1-.157.563.229.229,0,0,1-.033.032.2.2,0,0,1-.037.027c-.085.055-.1.03-.2.03H2099.12a.381.381,0,0,1-.062,0c-.129-.019-.145-.106-.238-.243-.009-.012-.017-.025-.025-.038a.71.71,0,0,1-.1-.358v-.136c0-.36.1-.663.42-.663h11.813c.323,0,.428.293.428.653Z" transform="translate(-2098.7 -1514.31)" fill="#6b3e45"/>
          <path id="Pfad_1959" data-name="Pfad 1959" d="M2112.265,1524.815a.37.37,0,0,1-.048.027.519.519,0,0,1-.24.058h-11.812a.378.378,0,0,1-.062,0c-.129-.019-.145-.106-.238-.243-.009-.012-.017-.025-.025-.038a48.747,48.747,0,0,1,12.409.195l.015,0Z" transform="translate(-2099.744 -1523.458)" fill="#1f1f3b" opacity="0.24"/>
        </g>
        <g id="Gruppe_2151" data-name="Gruppe 2151" transform="translate(11.671 35.308)">
          <path id="Pfad_1960" data-name="Pfad 1960" d="M2148.2,1628.464v.136a.848.848,0,0,1-.157.563.311.311,0,0,1-.07.059c-.085.055-.1.031-.2.031H2135.96a.385.385,0,0,1-.062,0c-.129-.019-.146-.106-.238-.243-.008-.012-.017-.025-.024-.038a.712.712,0,0,1-.1-.358v-.136c0-.36.1-.663.42-.663h11.813c.322,0,.429.293.429.653Z" transform="translate(-2135.54 -1627.81)" fill="#6b3e45"/>
          <path id="Pfad_1961" data-name="Pfad 1961" d="M2149.1,1638.315a.341.341,0,0,1-.048.027.518.518,0,0,1-.24.058H2137a.368.368,0,0,1-.062,0c-.129-.019-.145-.106-.238-.243-.008-.012-.017-.025-.025-.038a48.761,48.761,0,0,1,12.409.195l.015.005Z" transform="translate(-2136.583 -1636.958)" fill="#1f1f3b" opacity="0.24"/>
        </g>
        <path id="Pfad_1962" data-name="Pfad 1962" d="M2012.071,1256.427l.592-.183a.529.529,0,0,0,.349-.662l-14.146-45.78a.529.529,0,0,0-.662-.349l-.592.183a.529.529,0,0,0-.349.662l14.147,45.78A.529.529,0,0,0,2012.071,1256.427Z" transform="translate(-1997.239 -1209.429)" fill="#7e4f54"/>
      </g>
      <g id="Gruppe_2153" data-name="Gruppe 2153" transform="translate(12.681 0.003)">
        <path id="Pfad_1963" data-name="Pfad 1963" d="M1978.5,1208.986v.218a1.428,1.428,0,0,1-.236.9.342.342,0,0,1-.05.051.412.412,0,0,1-.056.044c-.127.088-.148.049-.306.049h-17.77a.69.69,0,0,1-.094-.006c-.195-.032-.219-.171-.359-.389-.013-.019-.025-.041-.036-.061a1.2,1.2,0,0,1-.144-.574V1209c0-.577.148-1.062.632-1.062h17.77c.485,0,.646.47.646,1.046Z" transform="translate(-1959.45 -1207.94)" fill="#6b3e45"/>
        <path id="Pfad_1964" data-name="Pfad 1964" d="M1979.861,1224.742a.783.783,0,0,1-.433.137h-17.771a.6.6,0,0,1-.094-.007c-.2-.031-.218-.17-.358-.389a.575.575,0,0,1-.036-.062c4.792-.98,16.461-.341,18.668.313Z" transform="translate(-1961.024 -1222.569)" fill="#1f1f3b" opacity="0.24"/>
      </g>
      <path id="Pfad_1965" data-name="Pfad 1965" d="M1977.2,1207.91c.446,1.254-14.683,1.057-17.727,1.254v-.189c0-.577.148-1.062.632-1.062l17.094,0Z" transform="translate(-1946.787 -1207.91)" fill="#32323f" opacity="0.65"/>
    </g>
    <path id="Pfad_1966" data-name="Pfad 1966" d="M1828.312,525.185s-.912,1.67-1.246,1.576a3.857,3.857,0,0,1-1.567-1.158,1.15,1.15,0,0,0-.645-.365,7.271,7.271,0,0,0-1.268-.122c-.46-.029-.8-.1-.749-.41.069-.444.828-.8-.946-1.968-.337-.224.4-.751,1.107-.891.057-.011.115-.02.171-.026a1.883,1.883,0,0,1,1.193.408,4.229,4.229,0,0,1,.992.965c.356.525.832.635,1.511,1a9.436,9.436,0,0,1,1.446.995Z" transform="translate(-1205.99 -280.377)" fill="#efaea6"/>
    <path id="Pfad_1967" data-name="Pfad 1967" d="M2066.816,476.227l2.145-.6c.021-.979-1.027-3.035-1.181-3.911a3.816,3.816,0,0,0-1.357-1.847l-.72,2.018.045.17a7.5,7.5,0,0,1-.132,2.457,5.178,5.178,0,0,1-.537,1.764c-.351.5,1.738-.05,1.738-.05Z" transform="translate(-1428.695 -232.803)" fill="#efaea6"/>
    <path id="Pfad_1968" data-name="Pfad 1968" d="M2073.089,496.379a7.687,7.687,0,0,1-.049,1.725c1.333.608,2.04-.9,1.7-1.281a9.809,9.809,0,0,0-.976-.783l-.678.338Z" transform="translate(-1436.021 -256.7)" fill="#1f1f3b" opacity="0.14"/>
    <path id="Pfad_1969" data-name="Pfad 1969" d="M2051.276,462.9c-.019.8-.789,2.36-.251,2.331s-.042,1.684.531,1.674c1.388-.025,2.93-.982,3.069-1.658a13.076,13.076,0,0,0-.068-2.536Z" transform="translate(-1415.69 -226.183)" fill="#efaea6"/>
    <path id="Pfad_1970" data-name="Pfad 1970" d="M2046.794,443.345c-.434.073-.442.177-.756.046s.189-.581-.387-.646-1.2-.068-1.3-.717c-.143-.939.7-.835,1.228-.752.337.053.377-.673,1.045-.677.524,0,.481.3.948.323.282.011.8-.478,1.261-.164.851.584.218,1.388.933,2.022.835.739-.894,2.5-1.117,2.306-.26-.222.056-1.048-.206-1.225-.394-.267-.422.057-.721.37-.319.335-.941.386-.577-.248s.045-.706-.348-.64Z" transform="translate(-1409.735 -205.938)" fill="#1f1f3b"/>
    <path id="Pfad_1971" data-name="Pfad 1971" d="M2017.706,1145.6c-.1-.952-.025-3.365-.025-3.365l2.632-.092-.142,3.624-1.739,1.152-.726-1.318Z" transform="translate(-1385.311 -848.507)" fill="#fff"/>
    <path id="Pfad_1972" data-name="Pfad 1972" d="M1963.664,1172.659c-.222-.17-.717.426-.818.825-.233.916-3.17,1.032-3.692,1.115a.786.786,0,0,0,.639,1.383c1.162-.005,4.884-.008,6.155-.021a.58.58,0,0,0,.562-.424c.229-.884.257-2.959-.1-2.988-.478.107-1.9.756-2.747.109Z" transform="translate(-1331.483 -876.356)" fill="#1f1f3b"/>
    <path id="Pfad_1973" data-name="Pfad 1973" d="M2137.414,1145.632c-.1-.952-.045-3.365-.045-3.365l2.631-.106-.121,3.625-1.732,1.161-.733-1.315Z" transform="translate(-1494.907 -848.526)" fill="#fff"/>
    <path id="Pfad_1974" data-name="Pfad 1974" d="M2083.628,1168.447c-.282.019-.232.283-.33.684-.225.917-3.566,1.512-4.089,1.6a.786.786,0,0,0,.651,1.377c1.162-.015,4.883-.049,6.155-.073a.58.58,0,0,0,.558-.429c.22-.886.3-3.319-.052-3.345-.477.111-1.6.1-2.893.187Z" transform="translate(-1441.411 -872.428)" fill="#1f1f3b"/>
    <path id="Pfad_1975" data-name="Pfad 1975" d="M2019.642,713.156c-.034.43-.078.9-.138,1.413-.227,1.924-.2,8.422-.081,12.546.116,4.1-.247,13.7-.247,15.171-1.247.546-2.018.376-3.8,0,0,0-.317-7.919-.667-14.853-.284-5.63-.367-5.065-1.4-12.233h0c-.012.035-.264.733-.631,1.807a95.188,95.188,0,0,0-2.726,9.2c-.981,4.527-.468,16.325-.879,16.731-1.223.72-3.292.79-3.844-.21,0,0-.234-14.591.2-16.876.294-1.554,2.783-16.781,3.338-20.872,0,0,10.454-2.4,10.79,1.347a13.41,13.41,0,0,1,.053,1.4c-.009.581.024,1.12.055,1.711a26.115,26.115,0,0,1-.024,3.72Z" transform="translate(-1373.876 -447.485)" fill="#3b3b4d"/>
    <path id="Pfad_1976" data-name="Pfad 1976" d="M1337.916,575.01c2.728,3.079-44.14,16.332-53.236,18.288,7.691-9.144,41.571-21.688,41.571-21.688l11.664,3.4Z" transform="translate(-714.193 -325.996)" fill="#49495b"/>
    <path id="Pfad_1977" data-name="Pfad 1977" d="M2112.732,809.7a.014.014,0,0,1,0,.006l-.031-.02A.2.2,0,0,1,2112.732,809.7Z" transform="translate(-1472.334 -544.024)" fill="#1f1f3b" opacity="0.46"/>
    <path id="Pfad_1978" data-name="Pfad 1978" d="M2092.311,813.988h0c-.012.035-.494,1.391-.861,2.465l.43-4.333A9.673,9.673,0,0,0,2092.311,813.988Z" transform="translate(-1452.878 -546.255)" fill="#1f1f3b" opacity="0.54"/>
    <path id="Pfad_1979" data-name="Pfad 1979" d="M2129.92,763.849c-.091-.02-3.809-.914-4.38-3.029,0,0,3.165.308,4.34.434.052.965.076,2.049.039,2.6Z" transform="translate(-1484.091 -499.27)" fill="#1f1f3b" opacity="0.35"/>
    <path id="Pfad_1980" data-name="Pfad 1980" d="M2048.814,515.011c-.949-.257-1.042,1.311-2,1.387-.505.04-.393-.181-.632-.414-.147-.143-.284-.3-.517-.066-4.724,4.847.2,17.07-.406,17.923-.492.7,3.506,2.22,6.017,1.608,3.444-.84,2.728-4.587,2.627-5.3s-2.263-12.781-2.263-12.781S2050.349,516.378,2048.814,515.011Z" transform="translate(-1409.061 -274.13)" fill="#fff"/>
    <path id="Pfad_1981" data-name="Pfad 1981" d="M1870.62,527.654c.369-.576,6.865,2.485,8.148,2.324,2.016-.252,4.37-2.767,8.193-3.9a12.615,12.615,0,0,1-.156,2.927c-.361,2.8,1.213,4.785.894,8.168-.413,4.376.665,8.845-.413,9.832-.628.575-1.5.685-2.549-.406-1.653-1.717-.566-7.351-.416-8.688.059-.521.188-1.223.3-1.95a10.674,10.674,0,0,0-.056-2.311c-.083-2.274-4.073-.474-6.208-.512-1.591-.029-7.6-2.221-7.826-2.476-.651-.725.091-3.01.091-3.01Z" transform="translate(-1250.357 -284.294)" fill="#0069a8"/>
    <path id="Pfad_1982" data-name="Pfad 1982" d="M1870.62,527.654c.369-.576,6.865,2.485,8.148,2.324,2.016-.252,4.37-2.767,8.193-3.9a12.615,12.615,0,0,1-.156,2.927c-.361,2.8,1.213,4.785.894,8.168-.413,4.376.665,8.845-.413,9.832-.628.575-1.5.685-2.549-.406-1.653-1.717-.566-7.351-.416-8.688.059-.521.188-1.223.3-1.95a10.674,10.674,0,0,0-.056-2.311c-.083-2.274-4.073-.474-6.208-.512-1.591-.029-7.6-2.221-7.826-2.476-.651-.725.091-3.01.091-3.01Z" transform="translate(-1250.357 -284.294)" fill="#00628f" opacity="0.18"/>
    <path id="Pfad_1983" data-name="Pfad 1983" d="M1337.916,249.118l-10.963,4.518-42.274,13.77c5.859-13.2,16.2-36.937,22.632-51.725A56.349,56.349,0,0,1,1337.916,249.118Z" transform="translate(-714.193)" fill="#307ea2"/>
    <path id="Pfad_1984" data-name="Pfad 1984" d="M2108.4,537.115c-1.506.941-2.408.949-3.733-.446-1.1-1.157-.126-2.617-.8-5.354-.176-.711-.335-1.473-.479-2.263a70.4,70.4,0,0,1-.884-7.113c-.28-3.683-.242-6.637.077-6.62,3.528.2,5.267,4.679,4.671,10.679-.1,1.325.478,2.328.893,4.064l.171.652C2108.925,533.368,2109.2,536.61,2108.4,537.115Z" transform="translate(-1462.823 -274.439)" fill="#00628f"/>
    <path id="Pfad_1985" data-name="Pfad 1985" d="M2107.643,571.61c-.57,3.128-1.779,7.45-2.219,8.982a70.472,70.472,0,0,1-.884-7.113Z" transform="translate(-1464.863 -325.985)" fill="#1f1f3b" opacity="0.24"/>
    <path id="Pfad_1986" data-name="Pfad 1986" d="M1854.192,629.661c-1.534-.187-1.16-1.106-2.052-1.232-.38-.054.074,1.043-2.577,1.027-1.6-.01-1.381,1.549-.373,1.662s4.421.336,4.87.411.132-1.867.132-1.867Z" transform="translate(-1230.337 -378.017)" fill="#efaea6"/>
    <path id="Pfad_1987" data-name="Pfad 1987" d="M1918.184,541.654c-1.342.47-10.06.17-10.06.17s-.457,2.6-.037,2.744,8.815,1.407,10.559.781c1.922-.69,8.373-7.627,8.962-8.463a2.511,2.511,0,0,0-.882-3.755c-1.711-1.072-7.2,8.052-8.542,8.523Z" transform="translate(-1284.827 -290.666)" fill="#00628f"/>
    <g id="Gruppe_2155" data-name="Gruppe 2155" transform="translate(637.425 242.022)">
      <path id="Pfad_1988" data-name="Pfad 1988" d="M2081.629,532.461c.09-.054.876,1.713,2.03,2.343a2.812,2.812,0,0,0,1.031.342,15.34,15.34,0,0,0,3.053-.149,6.175,6.175,0,0,0-.537-1.176,6.072,6.072,0,0,1-2.342.248,4.08,4.08,0,0,1-1.154-.381,6.732,6.732,0,0,1-1.648-1.21c-.214-.208-.232-.507-.5-.532-.357-.034-.047.584.068.515Z" transform="translate(-2081.095 -531.675)" fill="#e5af21" opacity="0.18"/>
      <path id="Pfad_1989" data-name="Pfad 1989" d="M2077.865,529.162a.445.445,0,0,1,.51-.4c.269.025.285.136.5.344a5.5,5.5,0,0,0,2.8,1.592c1.189.194,4-1.23,5.75-.752s2.2,2.094,4.735,2.637,5.336-.389,6.083-.219,1.194.359,1.16.657a1.48,1.48,0,0,1-.978.954,33.086,33.086,0,0,1-6.442.02c-2-.377-3.627-2.284-4.916-2.468s-4.053.413-5.567.246c-1.688-.185-2.961-2.23-3.076-2.161a.461.461,0,0,1-.437.069c-.147-.046-.145-.346-.125-.516Z" transform="translate(-2077.854 -528.756)" fill="#e5af21"/>
    </g>
  </g>
</svg>
