<svg id="img-benutzerfreundlich-grey" xmlns="http://www.w3.org/2000/svg" width="444" height="235.796" viewBox="0 0 444 235.796">
  <g id="Gruppe_2676" data-name="Gruppe 2676" transform="translate(67.875 55.239)">
    <path id="Pfad_8460" data-name="Pfad 8460" d="M1542.145,389.529c3.088-7.354-.407-19.636,2.361-17.44s1.921,5.275,3.146,4.518,5.193-7.131,5.365-8.781c.484-4.649,12.976,2.438,9.706,8.94s-2.725,7.019-5.747,10.213-6.856,13.235-7.841,16.068-9.427-5.254-9.286-5.926,2.295-7.591,2.295-7.591Z" transform="translate(-1375.529 -366.329)" fill="#d0d3d4"/>
    <path id="Pfad_8461" data-name="Pfad 8461" d="M817.238,584.692c-4.387,1.776-12.534-2.738-12.534-2.738-2.85-5.677-5.257-17.8-4.2-23.894,1.161-6.688,1.757-6.329,1.757-6.329l10.269,6.149,4.831,2.9a17.819,17.819,0,0,0,.569,7.259c.8,3.182-.814,2.575,2.425,7.262,2.426,3.509,1.267,7.619-3.12,9.4Z" transform="translate(-747.457 -523.771)" fill="#d0d3d4"/>
    <path id="Pfad_8462" data-name="Pfad 8462" d="M847.832,595.425a24.69,24.69,0,0,0,.751,7.947c-9.756,9.2-13.236-2.387-12.308-5.4.641-2.084,6.725-5.439,6.725-5.439Z" transform="translate(-777.925 -558.421)" fill="#231f20" opacity="0.14"/>
    <g id="Gruppe_2669" data-name="Gruppe 2669" transform="translate(29.832 3.493)">
      <path id="Pfad_8463" data-name="Pfad 8463" d="M737.1,453.09c5.106,2.532,17.588,2.894,15.592,6.17s10.794,5.339,8.8,8.9c-4.843,8.634-16.091,15.136-20.842,13.764s-15.812-8.86-15.812-8.86Z" transform="translate(-713.24 -443.5)" fill="#d0d3d4"/>
      <path id="Pfad_8464" data-name="Pfad 8464" d="M671.219,410.623c1.927-2.48,2.609-2.182,2.836-4.6s-4.31-.74-2.776-4.578,3.636-7.8-.136-10.572c-5.459-4.017-7.656,1.647-8.9,5.213-.8,2.3-5.529.128-7.8,4.311-1.782,3.281.308,4.034-1.152,7.031-.882,1.809-5.739,3.455-5.293,7.381.829,7.285,8.049,5.983,9.641,12.588,1.858,7.7,18.8,2.687,18.35.648-.523-2.378-6.817-3.139-7.052-5.367-.356-3.361,1.784-2.462,4.774-3.295,3.194-.89,5.615-4.629.38-4.45s-4.616-2.067-2.871-4.311Z" transform="translate(-647.968 -389.491)" fill="#666"/>
    </g>
    <path id="Pfad_8465" data-name="Pfad 8465" d="M506.96,1428.7H642.224a223.229,223.229,0,0,0-31.279-11.339c-4.031-1.173-8.33-2.342-12.929-3.51q-6.742-1.715-14.372-3.429s-11.175-5.54-38.351-5.7c-.3,0-.606,0-.911,0-13.337-.018-33.661,9.716-35.276,13.725a27.284,27.284,0,0,0-2.147,10.252Z" transform="translate(-498.391 -1248.14)" fill="#2a2c30"/>
    <path id="Pfad_8466" data-name="Pfad 8466" d="M576.067,696.086c6.584-1.6,7.7,7.28,12.977,7.915,3.2.385,3.132-5.439,4.706-6.924.97-.915,2.821-.789,4.51,1.146,28.917,33.156,5.888,101.128,5.888,101.128a116.738,116.738,0,0,1-46.3,19.016c-21.3,3.684-21.56-8.378-20.568-13.049,3.8-17.9,24.638-95.027,24.638-95.027S565.972,704.777,576.067,696.086Z" transform="translate(-523.884 -646.198)" fill="#fff"/>
    <path id="Pfad_8467" data-name="Pfad 8467" d="M909.309,537.46c22.917-.692,55.869,23.537,65.434,24.506.76-4.159,16.782-29.9,24.837-53.2,4.055-4.379,12.066,5.9,14.306,8.992-7.653,24.962-18.026,51.31-26.312,59.9-11.219,11.632-56.721-10.433-58.76-5.612-3.014,7.132-5.34,40.5-4.711,49.391s3.8,20.337-5.157,25.5c0,0-6.4,4.361-10.255.4-6.6-6.786-4.483-7.823-.958-31.2,3.357-22.257,9.3-35.276,7.687-53.881a83.5,83.5,0,0,0-6.11-24.8Z" transform="translate(-835.901 -486.381)" fill="#bcbdbe"/>
    <path id="Pfad_8468" data-name="Pfad 8468" d="M909.309,537.46c22.917-.692,55.869,23.537,65.434,24.506.76-4.159,16.782-29.9,24.837-53.2,4.055-4.379,12.066,5.9,14.306,8.992-7.653,24.962-18.026,51.31-26.312,59.9-11.219,11.632-56.721-10.433-58.76-5.612-3.014,7.132-5.34,40.5-4.711,49.391s3.8,20.337-5.157,25.5c0,0-6.4,4.361-10.255.4-6.6-6.786-4.483-7.823-.958-31.2,3.357-22.257,9.3-35.276,7.687-53.881a83.5,83.5,0,0,0-6.11-24.8Z" transform="translate(-835.901 -486.381)" fill="#888a8a"/>
    <path id="Pfad_8469" data-name="Pfad 8469" d="M450.132,827.83h42.176a110.05,110.05,0,0,1,4.726-23.974c.137-.416.279-.838.425-1.262,3.375-9.768,14.058-27.756,15.465-40.062,3-26.191-8.972-57.723-10.613-65.372,0,0-5.528-.2-18.523,12.893-5.462,5.5-14.533,21.3-15.537,33.319-1.571,18.834-1.834,34.974-4.64,46.679-2.616,10.919-6.035,25.019-13.481,37.781Z" transform="translate(-450.13 -647.273)" fill="#888a8a"/>
    <path id="Pfad_8470" data-name="Pfad 8470" d="M689.736,1054.672c.43-1.5.912-3.045,1.463-4.628,3.375-9.765,14.058-27.755,15.468-40.061.514-4.486.164-13.639-.148-18.4L678.27,988.55C693.052,1001.483,689.738,1044.2,689.736,1054.672Z" transform="translate(-643.869 -894.725)" fill="#231f20" opacity="0.17"/>
    <g id="Gruppe_2670" data-name="Gruppe 2670" transform="translate(83.016 132.825)">
      <path id="Pfad_8471" data-name="Pfad 8471" d="M1109.12,1266.74s.015,4.457.077,12.092c.038,4.8.095,10.849.179,17.84.053,4.386.116,9.139.192,14.187q0,.332.009.665h13.066c-.119-3.933-.232-7.722-.338-11.339-.232-8.022-.425-15.2-.552-21.189h0c-.105-4.956-.167-9.1-.167-12.255Z" transform="translate(-1092.766 -1263.792)" fill="#424242"/>
      <path id="Pfad_8472" data-name="Pfad 8472" d="M2147.07,1335.768h13.288c-.142-11.287-.27-21.213-.347-28.994-.045-4.65-.073-8.533-.073-11.484h-12.464s-.069,4.218-.154,11.486C2147.237,1313.885,2147.138,1323.913,2147.07,1335.768Z" transform="translate(-1974.203 -1288.037)" fill="#2a2c30"/>
      <path id="Pfad_8473" data-name="Pfad 8473" d="M1005.612,1262.732c5.756-2.708,181.071,6.6,208.849,1.832v-11.032c-6.969-2.817-23.351-4.623-59.779-4.69-72.514-.133-151.079-3.655-152.795,0s-2.488,16.813,3.723,13.889Z" transform="translate(-1000.668 -1247.188)" fill="#959697"/>
    </g>
    <path id="Pfad_8474" data-name="Pfad 8474" d="M1393.88,1118.711c3.326-.839,8.325-2.416,10.613-1.968,3.939.771,4.845,2.318,6.508.989,2.054-1.642-5.905-8.177,1.338-6.609,2.894.627,10.874,3.427,11.067,1.11.353-4.239-1.853-3.874-6.083-5.07-4.81-1.36-7.1-3.483-10.691-2.723-4.465.944-8.256,2.934-10.994,3.343s-2.927,8.667-2.927,8.667l1.173,2.26Z" transform="translate(-1250.578 -993.004)" fill="#d0d3d4"/>
    <path id="Pfad_8475" data-name="Pfad 8475" d="M651.476,818.122c42.779,43.477,40.925,45.2,51.184,45.569,7.938-.624,48.357-1.773,50.4-1.713s5.379,12.3.707,13.47c-9.635,2.42-42.393,6.52-60.476,5.64-15.45-.752-49.515-36.155-49.515-36.155s-13.1-6.134-6.891-19.285,14.586-7.524,14.586-7.524Z" transform="translate(-607.308 -748.981)" fill="#888a8a"/>
    <g id="Gruppe_2671" data-name="Gruppe 2671" transform="translate(220.006 74.276)" opacity="0.77">
      <path id="Pfad_8476" data-name="Pfad 8476" d="M1989.34,876.22c1.1-1.092,2.247-3.482,1.442-3.847S1989.34,876.22,1989.34,876.22Z" transform="translate(-1977.248 -870.324)" fill="#2a2c30"/>
      <path id="Pfad_8477" data-name="Pfad 8477" d="M1914.406,900.9c-1.55-1.356-4.827-2.655-5.235-1.558S1914.406,900.9,1914.406,900.9Z" transform="translate(-1909.15 -892.897)" fill="#2a2c30"/>
      <path id="Pfad_8478" data-name="Pfad 8478" d="M1964.366,864.327c.639-1.956.549-5.477-.623-5.421S1964.366,864.327,1964.366,864.327Z" transform="translate(-1955.174 -858.906)" fill="#2a2c30"/>
      <path id="Pfad_8479" data-name="Pfad 8479" d="M1943.747,877.922c-.089-1.384-1.028-3.568-1.748-3.239S1943.747,877.922,1943.747,877.922Z" transform="translate(-1936.934 -872.275)" fill="#2a2c30"/>
    </g>
    <g id="Gruppe_2675" data-name="Gruppe 2675" transform="translate(79.275 21.316)">
      <path id="Pfad_8480" data-name="Pfad 8480" d="M1339.922,683.1c8.758,4.082,13.173,4.656,13.051,6.3s-7.5,19.7-9.233,19.137c-4.964-1.621-14.14-6.822-14.14-6.822l10.32-18.612Z" transform="translate(-1276.259 -656.65)" fill="#424242"/>
      <g id="Gruppe_2672" data-name="Gruppe 2672" transform="translate(65.788 31.839)">
        <path id="Pfad_8481" data-name="Pfad 8481" d="M1468.806,743.148h0a2.143,2.143,0,0,1-2.836-1.069l-9.147-20.21a2.143,2.143,0,0,1,1.069-2.836h0a2.143,2.143,0,0,1,2.836,1.069l9.147,20.211A2.143,2.143,0,0,1,1468.806,743.148Z" transform="translate(-1449.922 -718.841)" fill="#424242"/>
        <path id="Pfad_8482" data-name="Pfad 8482" d="M1437.254,774.16h0a2.144,2.144,0,0,0-2.731-1.318l-20.943,7.312a2.145,2.145,0,0,0-1.318,2.731h0a2.145,2.145,0,0,0,2.731,1.318l20.943-7.312A2.146,2.146,0,0,0,1437.254,774.16Z" transform="translate(-1412.142 -764.597)" fill="#424242"/>
      </g>
      <path id="Pfad_8483" data-name="Pfad 8483" d="M1564.125,797.478h0a2.143,2.143,0,0,1-2.836-1.069l-9.147-20.21a2.143,2.143,0,0,1,1.069-2.836h0a2.143,2.143,0,0,1,2.836,1.069l9.147,20.211A2.143,2.143,0,0,1,1564.125,797.478Z" transform="translate(-1465.081 -733.14)" fill="#424242"/>
      <path id="Pfad_8484" data-name="Pfad 8484" d="M1541.934,805.86h0a2.145,2.145,0,0,0-2.731-1.318l-20.943,7.312a2.145,2.145,0,0,0-1.318,2.731h0a2.145,2.145,0,0,0,2.731,1.318l20.943-7.312A2.145,2.145,0,0,0,1541.934,805.86Z" transform="translate(-1435.249 -759.678)" fill="#424242"/>
      <path id="Pfad_8485" data-name="Pfad 8485" d="M1614.531,881.311h0a2.144,2.144,0,0,0,2.6,1.555l21.512-5.418a2.144,2.144,0,0,0,1.555-2.6h0a2.144,2.144,0,0,0-2.6-1.555l-21.512,5.418A2.144,2.144,0,0,0,1614.531,881.311Z" transform="translate(-1518.169 -818.106)" fill="#424242"/>
      <path id="Pfad_8486" data-name="Pfad 8486" d="M1658.829,805.351h0a2.143,2.143,0,0,1,2.731,1.318l7.312,20.943a2.144,2.144,0,0,1-1.318,2.731h0a2.144,2.144,0,0,1-2.731-1.318l-7.312-20.943A2.143,2.143,0,0,1,1658.829,805.351Z" transform="translate(-1554.622 -760.365)" fill="#424242"/>
      <path id="Pfad_8487" data-name="Pfad 8487" d="M1769.1,897.968h0a2.143,2.143,0,0,1-2.836-1.069l-9.147-20.21a2.143,2.143,0,0,1,1.069-2.836h0a2.143,2.143,0,0,1,2.836,1.069l9.147,20.211A2.143,2.143,0,0,1,1769.1,897.968Z" transform="translate(-1639.144 -818.477)" fill="#424242"/>
      <path id="Pfad_8488" data-name="Pfad 8488" d="M1732.364,898.27h0a2.145,2.145,0,0,0-2.731-1.318l-20.943,7.312a2.145,2.145,0,0,0-1.318,2.731h0a2.145,2.145,0,0,0,2.731,1.318L1731.046,901A2.145,2.145,0,0,0,1732.364,898.27Z" transform="translate(-1596.964 -838.153)" fill="#424242"/>
      <path id="Pfad_8489" data-name="Pfad 8489" d="M1858.966,920.858h0a2.143,2.143,0,0,1-2.836-1.069l-9.147-20.21a2.143,2.143,0,0,1,1.069-2.836h0a2.143,2.143,0,0,1,2.836,1.069l9.147,20.21A2.143,2.143,0,0,1,1858.966,920.858Z" transform="translate(-1715.462 -837.915)" fill="#424242"/>
      <path id="Pfad_8490" data-name="Pfad 8490" d="M1842.094,961.33h0a2.145,2.145,0,0,0-2.731-1.318l-20.943,7.312a2.145,2.145,0,0,0-1.318,2.731h0a2.145,2.145,0,0,0,2.731,1.318l20.943-7.312a2.145,2.145,0,0,0,1.318-2.731Z" transform="translate(-1690.148 -891.704)" fill="#424242"/>
      <path id="Pfad_8491" data-name="Pfad 8491" d="M1925.781,1018.95l-2.429,5.033-2.413.608-8.355,2.1a2.144,2.144,0,0,1-1.048-4.157l7.983-2.01,4.175-1.052,2.085-.525Z" transform="translate(-1769.068 -941.857)" fill="#424242"/>
      <path id="Pfad_8492" data-name="Pfad 8492" d="M1962.682,970.975l-2.634,5.46-.89-2.55-1.419-4.064-2.7-7.731a2.143,2.143,0,1,1,4.046-1.413l2.826,8.091.769,2.2Z" transform="translate(-1807.287 -891.151)" fill="#424242"/>
      <g id="Gruppe_2674" data-name="Gruppe 2674">
        <path id="Pfad_8493" data-name="Pfad 8493" d="M1043.179,534.876c-21.157-12.119-35.953-38.639-54.576-21.673-23.6,21.5-8.652,30.963-.947,34.644,7.411,3.541,10.656-3.406,18.21,1.629,3.667,3.6-5.017,5.19-2.669,8.785,5.955,9.118,18.573-5.9,26.818-1.6s13.166-21.789,13.166-21.789Z" transform="translate(-975.857 -507.693)" fill="#a8a8a8"/>
        <g id="Gruppe_2673" data-name="Gruppe 2673" transform="translate(5.896 4.683)" opacity="0.57">
          <path id="Pfad_8494" data-name="Pfad 8494" d="M1033.578,561.177a2.4,2.4,0,0,0-3.764-2.693,72.9,72.9,0,0,0-14.441,15.72,2.4,2.4,0,0,0,3.972,2.7,68.058,68.058,0,0,1,13.491-14.686A2.378,2.378,0,0,0,1033.578,561.177Z" transform="translate(-1014.958 -555.053)" fill="#fff"/>
          <ellipse id="Ellipse_33" data-name="Ellipse 33" cx="2.294" cy="3.138" rx="2.294" ry="3.138" transform="translate(20.103 4.584) rotate(-88.08)" fill="#fff"/>
        </g>
      </g>
    </g>
    <path id="Pfad_8495" data-name="Pfad 8495" d="M1425.762,813.407c2.194-.309,70.68,1.672,78.426.314,1.77-.311,3.623-3.21,5.543-7.76.626-1.485,1.259-3.147,1.9-4.95,1.448-4.082,2.927-8.9,4.43-14.063,3.669-12.6,7.484-27.311,11.335-38.617.778-2.288,1.558-4.436,2.34-6.4.306-.772.638-1.506.921-2.229,2.115-5.37-1.654-3.456-3.584-3.278-.427.039-1.687,3.034-3.438,7.778-3.078,8.339-7.672,22.083-11.929,34.677-2.135,6.318-4.185,12.345-5.916,17.258-1.054,2.993-1.989,5.572-2.752,7.549-.484,1.252-.9,2.262-1.23,2.983-3.308,4.617-74.509-2.675-76.048,6.74Z" transform="translate(-1278.644 -680.213)" fill="#424242"/>
    <path id="Pfad_8496" data-name="Pfad 8496" d="M988.428,500.537c2.784,2.432,4.911,1.25,6.339.116.324-.256.789,0,.648.354-.9,2.268-1.4,3.411,2.681,3.067a.343.343,0,0,1,.3.593c-3.188,3.153-1.3,4.607,1.176,6.252.259.172.158.547-.172.644-3.078.894-6-2.251-5.775,2.562a.444.444,0,0,1-.725.311c-3.034-2.8-2.779-1.748-6.075.654-.314.228-.743.008-.647-.33,1.013-3.554-1.1-3.866-3.227-4.177a.347.347,0,0,1-.06-.679c4.417-2.03,1.511-3.883-.583-4.8-.383-.167-.19-.7.252-.692,3.256.038,4.819.924,5.154-3.6A.45.45,0,0,1,988.428,500.537Z" transform="translate(-901.883 -480.22)" fill="#8f0e23"/>
  </g>
  <rect id="Rechteck_1443" data-name="Rechteck 1443" width="444" height="235.796" fill="none"/>
</svg>
