<svg xmlns="http://www.w3.org/2000/svg" width="145.877" height="132" viewBox="0 0 145.877 132">
  <g id="img-working-hours" transform="translate(-710.09 -347.66)">
    <path id="Pfad_2095" data-name="Pfad 2095" d="M965.674,1711.1c0,1.2-28.716,2.6-61.8,2.6s-59.91-.977-59.91-2.182,26.823-2.182,59.91-2.182,61.8.555,61.8,1.76Z" transform="translate(-121.327 -1234.044)" fill="#32323f" opacity="0.1"/>
    <g id="Gruppe_2186" data-name="Gruppe 2186" transform="translate(710.09 347.66)">
      <path id="Pfad_2096" data-name="Pfad 2096" d="M841.083,412.676q0,.817-.021,1.631c-.9,35.154-30.637,63.385-65.985,63.385s-64.988-29.109-64.988-65.016a65.032,65.032,0,0,1,40.239-60.134q1.354-.56,2.737-1.057a64.284,64.284,0,0,1,6.276-1.9,65.679,65.679,0,0,1,31.443-.023,66.076,66.076,0,0,1,8.453,2.686q.838.329,1.662.681a66.7,66.7,0,0,1,32.524,29.53,63.333,63.333,0,0,1,7.654,29.523c0,.232,0,.465,0,.7Z" transform="translate(-710.09 -347.66)" fill="#74a1bb"/>
      <path id="Pfad_2097" data-name="Pfad 2097" d="M906.312,497.12A56.383,56.383,0,0,1,861.077,552.6a59.244,59.244,0,0,1-11.74,1.176c-31.579,0-57.177-25.181-57.177-56.246s25.6-56.241,57.177-56.241A59.7,59.7,0,0,1,871.06,445.4l0,0a54.666,54.666,0,0,1,35.248,51.719Z" transform="translate(-784.471 -432.517)" fill="#fff"/>
      <path id="Pfad_2098" data-name="Pfad 2098" d="M1396.481,497.461a56.677,56.677,0,0,1-45.634,55.426,59.241,59.241,0,0,1-11.74,1.175,48.867,48.867,0,0,1-6.808-.394c.881.04,1.127-.02,2.018-.02a59.242,59.242,0,0,0,11.74-1.175,56.385,56.385,0,0,0,45.235-55.481,54.666,54.666,0,0,0-35.248-51.719l0,0a59.916,59.916,0,0,0-14.237-3.631,56.845,56.845,0,0,1,19.026,4.044l0,0c21.384,8.35,35.646,28.19,35.646,51.773Z" transform="translate(-1274.003 -432.835)" fill="#474756" opacity="0.17"/>
      <path id="Pfad_2099" data-name="Pfad 2099" d="M809.01,618.406c-15.122-10.121-25.95-26.924-25.95-46.274,0-20.7,12.27-39.059,29.2-48.822a60.984,60.984,0,0,0-3.254,95.1Z" transform="translate(-776.223 -506.853)" fill="#474756" opacity="0.17"/>
      <path id="Pfad_2100" data-name="Pfad 2100" d="M1374.591,624.9c-.249-4.362.4-13.421,1.06-22.37a115.755,115.755,0,0,1,2.23-15.363c.443-1.493.962-4.077,1.387-5.614.492-1.783,3.6-1.537,4.043-.36.329.872-.686,2.611-1.087,4.278-.2.82,1.464.894,1.264,1.844-.192.909-1.7-.825-2.028,1.541-.109.79.111,7.068-.387,13.549-.769,10-2.181,20.688-2.742,22.931-.553,2.209-3.361,6.174-3.738-.437Z" transform="translate(-1312.282 -558.452)" fill="#474756"/>
      <path id="Pfad_2101" data-name="Pfad 2101" d="M1058.92,1003.128a124.718,124.718,0,0,0-29.455-5.314c-1.963-.079-6.891.634-7.285,2.189-.473,1.867,4.6,3.857,6.559,4.343s30.052,1.1,30.052,1.1l.128-2.321Z" transform="translate(-992.911 -936.865)" fill="#474756"/>
      <path id="Pfad_2102" data-name="Pfad 2102" d="M1386.156,1043.81s17.467,47.678,17.351,48.614-1.36,1.088-1.5.368-17.338-48.349-17.338-48.349Z" transform="translate(-1321.466 -978.53)" fill="#0267a4"/>
      <g id="Gruppe_2179" data-name="Gruppe 2179" transform="translate(59.651 62.395)">
        <circle id="Ellipse_137" data-name="Ellipse 137" cx="4.489" cy="4.489" r="4.489" fill="#3b3b4c"/>
        <path id="Pfad_2103" data-name="Pfad 2103" d="M1365.78,1027.43a3.1,3.1,0,0,0-2.76,1.689" transform="translate(-1361.496 -1026.107)" fill="none" stroke="#fff" stroke-linecap="round" stroke-miterlimit="10" stroke-width="5.52" opacity="0.75"/>
        <path id="Pfad_2104" data-name="Pfad 2104" d="M1406.445,1030.032a3.7,3.7,0,0,0-1.1-.6" transform="translate(-1399.85 -1027.92)" fill="none" stroke="#fff" stroke-linecap="round" stroke-miterlimit="10" stroke-width="5.52" opacity="0.75"/>
      </g>
      <g id="Gruppe_2180" data-name="Gruppe 2180" transform="translate(61.73 10.338)" opacity="0.7">
        <rect id="Rechteck_1561" data-name="Rechteck 1561" width="4.411" height="8.862" rx="2.206" fill="#474756"/>
        <rect id="Rechteck_1562" data-name="Rechteck 1562" width="4.411" height="8.862" rx="2.206" transform="translate(0 99.987)" fill="#474756"/>
      </g>
      <g id="Gruppe_2181" data-name="Gruppe 2181" transform="translate(10.368 61.622)" opacity="0.7">
        <path id="Pfad_2105" data-name="Pfad 2105" d="M829.612,1017.255h0a2.206,2.206,0,0,1-2.206,2.206h-4.451a2.206,2.206,0,0,1-2.206-2.206h0a2.206,2.206,0,0,1,2.206-2.206h4.451A2.206,2.206,0,0,1,829.612,1017.255Z" transform="translate(-820.75 -1014.115)" fill="#474756"/>
        <rect id="Rechteck_1563" data-name="Rechteck 1563" width="4.411" height="8.862" rx="2.206" transform="translate(101.988 4.411) rotate(-90)" fill="#474756"/>
      </g>
      <g id="Gruppe_2182" data-name="Gruppe 2182" transform="translate(36.816 17.128)" opacity="0.7">
        <path id="Pfad_2106" data-name="Pfad 2106" d="M1108.524,538.462h0a2.206,2.206,0,0,1-3.007-.831l-2.2-3.872a2.206,2.206,0,0,1,.831-3.007h0a2.206,2.206,0,0,1,3.007.831l2.2,3.872A2.206,2.206,0,0,1,1108.524,538.462Z" transform="translate(-1103.035 -530.465)" fill="#474756"/>
        <path id="Pfad_2107" data-name="Pfad 2107" d="M1634.6,1466.272h0a2.206,2.206,0,0,1-3.007-.831l-2.2-3.872a2.206,2.206,0,0,1,.831-3.007h0a2.206,2.206,0,0,1,3.007.831l2.2,3.872A2.206,2.206,0,0,1,1634.6,1466.272Z" transform="translate(-1579.825 -1371.29)" fill="#474756"/>
      </g>
      <g id="Gruppe_2183" data-name="Gruppe 2183" transform="translate(17.227 36.695)" opacity="0.7">
        <path id="Pfad_2108" data-name="Pfad 2108" d="M901.941,744.518h0a2.206,2.206,0,0,1-3.009.823l-3.866-2.206a2.206,2.206,0,0,1-.823-3.009h0a2.206,2.206,0,0,1,3.008-.823l3.866,2.206A2.206,2.206,0,0,1,901.941,744.518Z" transform="translate(-893.954 -739.014)" fill="#474756"/>
        <path id="Pfad_2109" data-name="Pfad 2109" d="M1828.371,1273.038h0a2.206,2.206,0,0,1-3.009.823l-3.866-2.205a2.206,2.206,0,0,1-.823-3.009h0a2.206,2.206,0,0,1,3.008-.823l3.866,2.206A2.206,2.206,0,0,1,1828.371,1273.038Z" transform="translate(-1733.583 -1218.015)" fill="#474756"/>
      </g>
      <g id="Gruppe_2184" data-name="Gruppe 2184" transform="translate(36.816 17.128)" opacity="0.7">
        <path id="Pfad_2110" data-name="Pfad 2110" d="M1630.233,538.462h0a2.206,2.206,0,0,0,3.007-.831l2.2-3.872a2.206,2.206,0,0,0-.831-3.007h0a2.206,2.206,0,0,0-3.007.831l-2.2,3.872A2.206,2.206,0,0,0,1630.233,538.462Z" transform="translate(-1579.824 -530.465)" fill="#474756"/>
        <path id="Pfad_2111" data-name="Pfad 2111" d="M1104.143,1466.272h0a2.206,2.206,0,0,0,3.007-.831l2.2-3.872a2.206,2.206,0,0,0-.831-3.007h0a2.206,2.206,0,0,0-3.007.831l-2.2,3.872A2.206,2.206,0,0,0,1104.143,1466.272Z" transform="translate(-1103.025 -1371.29)" fill="#474756"/>
      </g>
      <g id="Gruppe_2185" data-name="Gruppe 2185" transform="translate(17.226 36.695)" opacity="0.7">
        <path id="Pfad_2112" data-name="Pfad 2112" d="M1820.664,744.518h0a2.206,2.206,0,0,0,3.008.823l3.866-2.206a2.206,2.206,0,0,0,.823-3.009h0a2.206,2.206,0,0,0-3.009-.823l-3.866,2.206A2.206,2.206,0,0,0,1820.664,744.518Z" transform="translate(-1733.573 -739.014)" fill="#474756"/>
        <path id="Pfad_2113" data-name="Pfad 2113" d="M894.234,1273.038h0a2.206,2.206,0,0,0,3.009.823l3.866-2.205a2.206,2.206,0,0,0,.823-3.009h0a2.206,2.206,0,0,0-3.009-.823l-3.866,2.206A2.206,2.206,0,0,0,894.234,1273.038Z" transform="translate(-893.944 -1218.015)" fill="#474756"/>
      </g>
    </g>
    <g id="Gruppe_2204" data-name="Gruppe 2204" transform="translate(770.191 365.307)">
      <g id="Gruppe_2188" data-name="Gruppe 2188" transform="translate(67.038 28.952)">
        <path id="Pfad_2114" data-name="Pfad 2114" d="M2087.076,889.219h0l-.04,0a.8.8,0,0,0-.538.231l-.027.03-.032.039-.377.5h0l-.015.021v0l-.029.038-.417.557-1.113,1.484a.736.736,0,0,0-.137.333,1.24,1.24,0,0,0,.535,1.115l.559.426.887.677c.007.007.016,0,.022,0l.365-.485a.018.018,0,0,0,0-.023l-.89-.679h0l-.129-.1a.928.928,0,0,1-.4-.826.548.548,0,0,1,.1-.259l.942-1.255.407-.543h0l.113-.151a.59.59,0,0,1,.468-.226.967.967,0,0,1,.52.137.991.991,0,0,1,.12.08l.007,0,.112.085.9.689.007,0a.016.016,0,0,0,.022,0l.365-.485a.017.017,0,0,0,0-.023l-.007,0-.9-.691-.537-.41a1.365,1.365,0,0,0-.852-.3Z" transform="translate(-2082.717 -885.075)" fill="#201b2c"/>
        <path id="Pfad_2115" data-name="Pfad 2115" d="M2103.563,889.189h0a.229.229,0,0,0-.035,0,.813.813,0,0,0-.544.23c-.009.01-.019.02-.027.03l-.032.039-.373.509h0l-.015.022v0a.017.017,0,0,0,.008.023l.166.058h0l0,0h0l.284.1.006,0h0l.335.117a.6.6,0,0,1,.469-.226h0a1.069,1.069,0,0,1,.646.22l.007,0,.111.086.9.688,0,0a.017.017,0,0,0,.021-.006l.365-.485a.016.016,0,0,0,0-.023l-.9-.691-.542-.415a1.362,1.362,0,0,0-.85-.294Z" transform="translate(-2099.208 -885.048)" fill="#201b2c"/>
        <g id="Gruppe_2187" data-name="Gruppe 2187">
          <path id="Pfad_2116" data-name="Pfad 2116" d="M2078.947,845.363l6.505,4.9a.941.941,0,0,1,.135,1.315l-.007.009L2076.31,864.4c-1.062,1.433-1.981.725-2.367.435l-6.3-4.434a2.058,2.058,0,0,1-.16-2.7l8.374-11.3.314-.424a1.982,1.982,0,0,1,2.773-.608Z" transform="translate(-2067.053 -845.019)" fill="#603a3e"/>
          <path id="Pfad_2117" data-name="Pfad 2117" d="M2164.22,845.372l6.505,4.9a.941.941,0,0,1,.135,1.315h0a.017.017,0,0,1-.018.007,5.9,5.9,0,0,1-2.073-1.3,22.319,22.319,0,0,0-7.616-3.885.015.015,0,0,1-.007-.024l.3-.406a1.982,1.982,0,0,1,2.773-.608Z" transform="translate(-2152.327 -845.028)" fill="#775155"/>
        </g>
      </g>
      <g id="Gruppe_2190" data-name="Gruppe 2190" transform="translate(42.625 41.197)">
        <g id="Gruppe_2189" data-name="Gruppe 2189" transform="translate(12.52 39.309)">
          <path id="Pfad_2118" data-name="Pfad 2118" d="M1943.638,1401.038c-1.075-.782-3.518-3.078-3.518-3.078l2.235-2.711,3.639,3.482-.343,2.8Z" transform="translate(-1940.12 -1395.25)" fill="#fff"/>
          <path id="Pfad_2119" data-name="Pfad 2119" d="M1959,1430.178c-.3.229.068.333.413.789.789,1.045-.855,3.313-1.473,3.9-.532.508-.047,2.738,1.323,1.343a50,50,0,0,0,4.883-5.8.783.783,0,0,0,.018-.953c-.759-1.013-2.289-2.152-2.619-1.811-.63.409-1.292,1.578-2.545,2.534Z" transform="translate(-1956.076 -1424.553)" fill="#1f1f39"/>
        </g>
        <path id="Pfad_2120" data-name="Pfad 2120" d="M1813.081,976.4c-3.188.918-4.659,6.061-4.888,9.246-.571,7.931-2.367,15.788-1.445,19.044,1.029,3.631,13,14.519,13.725,15.1s4.123-2.772,3.578-3.64-10.8-11.738-10.9-12.9c-.5-5.371,6-19.951,5.019-23.561-1.695-6.25-5.087-3.3-5.087-3.3Z" transform="translate(-1806.49 -975.705)" fill="#3b3b4c"/>
      </g>
      <g id="Gruppe_2192" data-name="Gruppe 2192" transform="translate(27.58 39.811)">
        <g id="Gruppe_2191" data-name="Gruppe 2191" transform="translate(24.533 28.285)">
          <path id="Pfad_2121" data-name="Pfad 2121" d="M1912.552,1267.022c-1.372-.051-4.792-.61-4.792-.61l.352-3.612,5.128.886,1.319,2.6-2.009.739Z" transform="translate(-1907.76 -1262.8)" fill="#fff"/>
          <path id="Pfad_2122" data-name="Pfad 2122" d="M1952.186,1271.708c-.125.37.25.246.809.438,1.279.441,1.69,4.319,1.745,5.047.028.376,1.282,1.084,1.564-.746.236-1.532.025-1.869.426-7.51a.809.809,0,0,0-.534-.827c-1.235-.431-3.2-.526-3.291-.042C1952.6,1268.782,1952.707,1270.166,1952.186,1271.708Z" transform="translate(-1948.001 -1267.281)" fill="#1f1f39"/>
        </g>
        <path id="Pfad_2123" data-name="Pfad 2123" d="M1674.1,989.77a9.9,9.9,0,0,1-1.216,3.4.964.964,0,0,1-.6.456c-1.1.118-24.586-2.41-26.157-7.745s6.293-13.567,9.379-16.875c.781-.838,4.407-3.664,4.727-4.487a5.838,5.838,0,0,1,3.4-3.292c2.408-1.12,3.634.959,4.33,2.59s.6,5.448-1.982,8.67a28.934,28.934,0,0,1-3.891,3.235c-2.005,1.517-4.338,3.262-6.02,4.835-1.428,1.335-2.387,2.545-2.28,3.385.188,1.472,17.342,3.314,20.392,4.739a3.323,3.323,0,0,1-.085,1.084Z" transform="translate(-1645.916 -960.915)" fill="#3b3b4c"/>
        <path id="Pfad_2124" data-name="Pfad 2124" d="M1674.1,989.77a9.9,9.9,0,0,1-1.216,3.4.964.964,0,0,1-.6.456c-1.1.118-24.586-2.41-26.157-7.745s6.293-13.567,9.379-16.875c.781-.838,4.407-3.664,4.727-4.487a5.838,5.838,0,0,1,3.4-3.292c2.408-1.12,3.634.959,4.33,2.59s.6,5.448-1.982,8.67a28.934,28.934,0,0,1-3.891,3.235c-2.005,1.517-4.338,3.262-6.02,4.835-1.428,1.335-2.387,2.545-2.28,3.385.188,1.472,17.342,3.314,20.392,4.739a3.323,3.323,0,0,1-.085,1.084Z" transform="translate(-1645.916 -960.915)" fill="#3b3b4c"/>
      </g>
      <path id="Pfad_2125" data-name="Pfad 2125" d="M1473.919,612.789a19.255,19.255,0,0,0-2.153-2.241,5.279,5.279,0,0,1-1.733-2.22c-.289-.753-.814-3.973-1.977-3.932-.515.018-.964,2.111-.652,3.049,1.1,3.294-.947,1.9-.487,3.29.2.589,1.818-.676,2.54,1.221a8.475,8.475,0,0,0,2.312,2.952c.433.2,2.15-2.118,2.15-2.118Z" transform="translate(-1456.045 -597.989)" fill="#efaea6"/>
      <path id="Pfad_2126" data-name="Pfad 2126" d="M2028.35,853.44a19.276,19.276,0,0,1,2.569,1.8,3.774,3.774,0,0,0,2,1.255c.786.18,2.407.712,2.173,1.9-.1.506-1.491,2.436-2.155,1.768-1.28-1.289-.7.541-1.439.176-.557-.274.071-2-1.908-2.447a7.39,7.39,0,0,1-3.028-1.933c-.26-.4,1.792-2.518,1.792-2.518Z" transform="translate(-1963.294 -823.699)" fill="#efaea6"/>
      <path id="Pfad_2127" data-name="Pfad 2127" d="M1740.243,713.114a3.823,3.823,0,0,1,.112,1.046,6.461,6.461,0,0,1,0,2.318c-.24.735,2.085-.7,2.085-.7l2.376-1.5c-.334-1.185-2.353-3.274-2.861-4.272a4.811,4.811,0,0,0-2.317-1.726l-.131,2.63,0,.059.117.187a13.656,13.656,0,0,1,.627,1.956Z" transform="translate(-1703.152 -692.139)" fill="#efaea6"/>
      <path id="Pfad_2128" data-name="Pfad 2128" d="M1739.49,730.963l.117.187a13.629,13.629,0,0,1,.627,1.956c1.6.021,1.844-1.869,1.327-2.182a12.243,12.243,0,0,0-1.468-.585l-.6.564,0,.059Z" transform="translate(-1703.142 -712.133)" fill="#1f1f39" opacity="0.14"/>
      <path id="Pfad_2129" data-name="Pfad 2129" d="M1740.749,751.83c-1.206-.052-.869,1.894-1.989,2.253-.591.189-.521-.111-.872-.33-.217-.135-.426-.293-.635.063-4.254,7.246,5.1,20.839,4.626,22.051-.388.99,4.815,1.128,7.635-.319,3.869-1.985.992-5.1.67-5.95s-4.869-15.876-4.869-15.876a23.067,23.067,0,0,1-4.564-1.892Z" transform="translate(-1700.107 -731.608)" fill="#fff"/>
      <path id="Pfad_2130" data-name="Pfad 2130" d="M1526.74,699.26c-.927.5-3.061-.241-4.54-1-.7-.361-.962-3.2-1.164-4.879a31.383,31.383,0,0,0-1.558-5.81c-.333-.654-2.3-4.6-3.658-5.665-1.186-.928-9.338-3.279-10.627-4.139-3.648-2.431-9.068-9.51-9.266-9.888-.653-1.238,2.105-3.559,2.476-3.164.444.471,6.649,7.685,8.414,8.561,2.838,1.41,5.817,1.783,12.637,1.547a16.29,16.29,0,0,1,.648,3.626c.365,3.523,3.111,5.49,3.395,9.751.457,6.86,5.1,10.059,3.243,11.056Z" transform="translate(-1482.309 -652.619)" fill="#00628f"/>
      <path id="Pfad_2131" data-name="Pfad 2131" d="M1862.66,1014.07c.751,1.452,5.995,4.65,5.995,4.65a19.393,19.393,0,0,0,.547-3.537C1869.112,1014.362,1862.66,1014.07,1862.66,1014.07Z" transform="translate(-1814.772 -969.279)" fill="#1f1f39" opacity="0.59"/>
      <g id="Gruppe_2193" data-name="Gruppe 2193" transform="translate(34.197 12.099)">
        <path id="Pfad_2132" data-name="Pfad 2132" d="M1718.271,686.111c-.4.953-2.069,2.473-1.4,2.693s-.844,2.013-.144,2.272c1.7.63,4.016.209,4.5-.542a16.869,16.869,0,0,0,1.112-3.093l-4.068-1.331Z" transform="translate(-1716.533 -684.145)" fill="#efaea6"/>
        <path id="Pfad_2133" data-name="Pfad 2133" d="M1727.69,668.641c-.56-.118-.619,0-.938-.305s.5-.61-.166-.963-1.43-.655-1.243-1.485c.27-1.2,1.247-.673,1.844-.323.384.225.774-.633,1.585-.319.636.246.439.6,1,.841.337.148,1.2-.2,1.608.4.756,1.109-.391,1.779.18,2.884.664,1.289-2.259,2.586-2.441,2.251-.212-.392.561-1.239.327-1.576-.352-.509-.539-.132-1.048.1-.544.252-1.323.018-.584-.573s.387-.83-.121-.937Z" transform="translate(-1724.492 -665.142)" fill="#1f1f39"/>
      </g>
      <path id="Pfad_2134" data-name="Pfad 2134" d="M1785.33,751.72s.074,1.168.277,2.906c.02.167.04.341.062.519.03.236.062.481.1.732.027.2.057.412.087.625.545,3.779,1.6,8.827,3.516,11.375,2.6,3.459,2.277,6.972,3.047,8.513s5.736,2.741,7.75,2.137c4.776-1.43-.011-4.455-.97-5.836a22.188,22.188,0,0,1-3.743-8.344c-.054-.212-.109-.423-.165-.636-.52-1.973-1.868-3.045-1-4.172a1.147,1.147,0,0,1,.252-.236,1.871,1.871,0,0,1,.527-.242c1.681-.5,5.181.3,7.748,1.579,1.729.863,6.634,4.975,8.019,5.767.748.426,2.47-2.957,1.83-3.545a89.1,89.1,0,0,0-7.984-5.994c-.1-.059-.189-.112-.272-.16a42.28,42.28,0,0,0-8.522-3.148q-.627-.176-1.26-.338c-.8-.207-1.59-.4-2.368-.573a29.892,29.892,0,0,0-6.928-.928Z" transform="translate(-1744.688 -731.499)" fill="#00628f"/>
      <g id="Gruppe_2194" data-name="Gruppe 2194" transform="translate(38.09 17.453)">
        <path id="Pfad_2135" data-name="Pfad 2135" d="M1758.613,763.293c.047.219.165.557.371.646a.8.8,0,0,0,.594.049.1.1,0,0,1,.066,0c.222.08.957.588,1.9.987.062.026.125.053.188.077l.2.077a5,5,0,0,0,1.844.329,3.13,3.13,0,0,0,.587-.074,19.232,19.232,0,0,0,3.316-1.277c.235-.1.467-.212.7-.317.126-.058.252-.114.378-.17a12.89,12.89,0,0,1,2.521-.922,2.3,2.3,0,0,1,.385-.038c-.418-.116-.84-.23-1.26-.339-.8-.207-1.59-.4-2.368-.573-.384.232-.764.479-1.131.72l-.513.336a7.3,7.3,0,0,1-2.258,1.156,5.306,5.306,0,0,1-1.4.039,6.938,6.938,0,0,1-1.241-.244l-.1-.028-.006,0a10.407,10.407,0,0,1-1.456-.567c-.358-.168-.426-.3-.775-.216-.463.112-.587.129-.542.35Z" transform="translate(-1758.557 -758.053)" fill="#e5af21" opacity="0.3"/>
        <path id="Pfad_2136" data-name="Pfad 2136" d="M1758.49,728a.61.61,0,0,0,.517-.281c.008-.01.031-.008.066,0a18.805,18.805,0,0,0,2.308,1.108,4.979,4.979,0,0,0,1.848.3,3.194,3.194,0,0,0,.587-.081,19.222,19.222,0,0,0,3.3-1.323l.693-.326c.125-.06.251-.118.376-.176a12.963,12.963,0,0,1,2.508-.957c1.7-.343,4.581,1.314,7.248.9a44.252,44.252,0,0,0,8.075-2.888,1.973,1.973,0,0,0,.807-1.626c-.087-.387-.732-.425-1.743-.305s-4.119,2.53-7.535,2.977-4.693-1.369-7.1-1.19a9.784,9.784,0,0,0-4.132,1.962l-.509.344a7.28,7.28,0,0,1-2.242,1.187,5.268,5.268,0,0,1-1.4.058,7.015,7.015,0,0,1-1.245-.226,10.2,10.2,0,0,1-1.569-.575c-.36-.164-.429-.294-.778-.207a.6.6,0,0,0-.464.732c.05.219.179.6.383.588Z" transform="translate(-1758.091 -722.287)" fill="#e5af21"/>
      </g>
      <path id="Pfad_2137" data-name="Pfad 2137" d="M1853.449,828.31c.661,2.206,2.8,4.046,3.729,4.907-.054-.212-.109-.423-.165-.636-.52-1.973-1.868-3.045-1-4.172a1.147,1.147,0,0,1,.252-.236,1.867,1.867,0,0,1,.528-.242,3.118,3.118,0,0,0-.885-.233c-.3.008-2.644-.014-2.457.612Z" transform="translate(-1806.414 -800.368)" fill="#1f1f39" opacity="0.18"/>
      <path id="Pfad_2138" data-name="Pfad 2138" d="M1760.875,1092.26l-.565,2.505c-2.005,1.517-4.338,3.262-6.02,4.835.007-.028.015-.059.025-.092C1754.969,1097.376,1760.875,1092.26,1760.875,1092.26Z" transform="translate(-1716.556 -1040.143)" fill="#1f1f39" opacity="0.59"/>
      <path id="Pfad_2139" data-name="Pfad 2139" d="M1876.5,1241.081c-.065,1.36-.427,2.346-.155,2.773s2.45,3.517,2.73,3.52,1.391.166,1.391.166-3.364-3.133-3.342-3.882a23.49,23.49,0,0,1,.3-2.346l-.929-.232Z" transform="translate(-1827.083 -1175.019)" fill="#1f1f39" opacity="0.59"/>
      <path id="Pfad_2140" data-name="Pfad 2140" d="M1798.579,1226.919a18.407,18.407,0,0,0-.227,3.584c.043.44.727,2.6.727,2.6l-.769-.116a18.549,18.549,0,0,1-.605-2.7c.013-.3-.145-3.534-.145-3.534Z" transform="translate(-1755.772 -1162.032)" fill="#1f1f39" opacity="0.59"/>
    </g>
    <g id="Gruppe_2205" data-name="Gruppe 2205" transform="translate(765.352 384.557)">
      <path id="Pfad_2141" data-name="Pfad 2141" d="M1324.852,753.576a.139.139,0,0,1-.129.032,5.72,5.72,0,0,0-4.734.766.142.142,0,1,1-.154-.238,5.989,5.989,0,0,1,4.958-.8.143.143,0,0,1,.1.172A.147.147,0,0,1,1324.852,753.576Z" transform="translate(-1317.908 -752.011)" fill="#603a3e"/>
      <path id="Pfad_2142" data-name="Pfad 2142" d="M1304.677,741.547a.144.144,0,0,1-.091.037,6.579,6.579,0,0,0-2.412.474,6.956,6.956,0,0,0-2.035,1.359h0a.142.142,0,0,1-.191-.21,6.553,6.553,0,0,1,4.63-1.908.142.142,0,0,1,.1.247Z" transform="translate(-1299.901 -741.3)" fill="#603a3e"/>
    </g>
  </g>
</svg>
