<svg xmlns="http://www.w3.org/2000/svg" width="444" height="236.021" viewBox="0 0 444 236.021">
  <g id="img-datenschutz-grey" transform="translate(-504 -12683.421)">
    <path id="Pfad_8525" data-name="Pfad 8525" d="M1957.965,142.119c-2.492,0-7.613,4.708-.294,5.462s18.282.407,22.717.424c7.241.026,9.037-.29,8.98-3.441-.033-1.823-.958-3-4.775-3.483-3.97-.5-1.942-5.2-6.789-5.058-4.129.122-4.549,6.278-8.327,4.77s-2.987,2.6-5.75,3.357C1960.69,144.978,1960.456,142.119,1957.965,142.119Z" transform="translate(-1177.889 12637.384)" fill="#e6e6e6" opacity="0.75"/>
    <g id="datenschutz-sg" transform="translate(504 12683.421)">
      <path id="Pfad_8015" data-name="Pfad 8015" d="M1817.839,710.281c4.4,9.351,4.031,11.724,2.052,12.3-1.267.368-3.564-1.567-3.564-1.567l.063-8.939,1.449-1.794Z" transform="translate(-1651.186 -603.176)" fill="#fff" opacity="0.28"/>
      <g id="Gruppe_2521" data-name="Gruppe 2521" transform="translate(235.203 99.115)">
        <path id="Pfad_8016" data-name="Pfad 8016" d="M613.968,1051.81c0,3.66.178,2.774-2.2,3.863s-64.3,25.821-67.05,25.271-94.833-10.493-94.836-11.409c0-1.038,0-3.15,0-3.15l164.09-14.575Z" transform="translate(-449.877 -972.399)" fill="#666"/>
        <path id="Pfad_8017" data-name="Pfad 8017" d="M614,181.985V261.1c-38.508,13.193-69.9,25.751-69.9,25.751L449.91,275.677c30-10,64.427-21.82,64.427-21.82,1.047-78.751,1.26-72.023,1.26-72.023l98.4.152Z" transform="translate(-449.909 -181.691)" fill="#adafac"/>
        <path id="Pfad_8018" data-name="Pfad 8018" d="M737.416,1009.836c-5.656,2.827-42.718,16.833-48.156,15.684s-68.24-7.5-68.24-7.5l35.273-12.4Z" transform="translate(-588.942 -930.424)" fill="#8b8b8b"/>
        <path id="Pfad_8019" data-name="Pfad 8019" d="M502.78,303.724l88.964,3.481-.871-67.865H502.78Z" transform="translate(-432.478 -234.079)" fill="#d6d7d8"/>
        <path id="Pfad_8020" data-name="Pfad 8020" d="M502.78,303.724l88.964,3.481-.871-67.865H502.78Z" transform="translate(-432.478 -234.079)" fill="#a7a8a0" opacity="0.27"/>
        <path id="Pfad_8021" data-name="Pfad 8021" d="M429.93,313.524l128.578,5.03L557.25,220.47H429.93Z" transform="translate(-392.593 -216.931)" fill="none"/>
        <path id="Pfad_8022" data-name="Pfad 8022" d="M428.651,184.92c.821,0,1.194.695,1.658,1.68s.434,77.455-.1,78.849a2.664,2.664,0,0,1-1.9,1.629s-.479-82.158.342-82.158Z" transform="translate(-264.561 -184.625)" fill="#666"/>
        <path id="Pfad_8023" data-name="Pfad 8023" d="M1189.17,303.848l26.321.906V239.34H1189.17Z" transform="translate(-1118.869 -234.079)" fill="#787878"/>
        <path id="Pfad_8024" data-name="Pfad 8024" d="M1209.094,239.34c-3.085.761-18.4,7.767-19.035,8.764s-1.2,61.062-.7,61.666a2.616,2.616,0,0,0,1.443.745Z" transform="translate(-1112.472 -234.079)" fill="#666"/>
        <path id="Pfad_8025" data-name="Pfad 8025" d="M1207.459,956.09c-.863,1.966-11.014,7.984-12.315,7.95s-5.974-2.19-5.974-2.19,13.514-5.761,15.9-5.761h2.387Z" transform="translate(-1110.837 -885.414)" fill="#666" opacity="0.2"/>
        <g id="Gruppe_2520" data-name="Gruppe 2520" transform="translate(77.382 5.261)">
          <path id="Pfad_8026" data-name="Pfad 8026" d="M1203.276,239.34c-18.582,8.814-18.78,9.282-18.78,9.282s-2.2,61.893,0,61.893,18.542-3.757,18.39-6.285C1202.71,301.32,1203.276,239.34,1203.276,239.34Z" transform="translate(-1183.52 -239.34)" fill="#d2d3d4"/>
          <g id="Gruppe_2519" data-name="Gruppe 2519" transform="translate(2.338 38.188)">
            <path id="Pfad_8027" data-name="Pfad 8027" d="M1347.964,662.938a1.218,1.218,0,0,0,1.435,1.074,1.421,1.421,0,0,0,.922-1.672,1.218,1.218,0,0,0-1.435-1.074A1.421,1.421,0,0,0,1347.964,662.938Z" transform="translate(-1347.936 -660.918)" fill="#666"/>
            <path id="Pfad_8028" data-name="Pfad 8028" d="M1306.844,660.081l4.836-1.227a.4.4,0,0,0,.259-.469l-.057-.306a.342.342,0,0,0-.4-.3l-4.836,1.227a.4.4,0,0,0-.259.469l.058.306A.342.342,0,0,0,1306.844,660.081Z" transform="translate(-1305.742 -657.769)" fill="#666"/>
          </g>
        </g>
      </g>
      <g id="Gruppe_2526" data-name="Gruppe 2526" transform="translate(92 39.429)">
        <g id="Gruppe_2522" data-name="Gruppe 2522" transform="translate(80.014 38.48)">
          <path id="Pfad_8029" data-name="Pfad 8029" d="M1894.453,538.345a.57.57,0,0,1-.4-.353,22.977,22.977,0,0,0-13.4-13.857.57.57,0,0,1,.43-1.055,24.064,24.064,0,0,1,14.039,14.51.572.572,0,0,1-.332.736.555.555,0,0,1-.332.021Z" transform="translate(-1876.787 -516.363)" fill="#b6bbbe"/>
          <path id="Pfad_8030" data-name="Pfad 8030" d="M1900.9,496.824a.576.576,0,0,1-.328-.216,26.371,26.371,0,0,0-7.1-6.867,27.962,27.962,0,0,0-9.156-3.594h-.005a.57.57,0,0,1,.256-1.111c7.561,1.7,12.468,4.853,16.929,10.9a.57.57,0,0,1-.588.894Z" transform="translate(-1883.872 -485.022)" fill="#b6bbbe"/>
        </g>
        <path id="Pfad_8031" data-name="Pfad 8031" d="M2293.091,321.625c-2.567-.9-4.47-4.971-4.876-3.868s-.035,4.535.768,5.232,3.709.581,3.709.581l.4-1.947Z" transform="translate(-2266.305 -308.491)" fill="#666"/>
        <g id="Gruppe_2523" data-name="Gruppe 2523" transform="translate(0 117.844)">
          <path id="Pfad_8032" data-name="Pfad 8032" d="M2336.05,944c.335-2.019,1.806-6.969,1.806-6.969l5.274,1.2-2.279,7.415-4.087,1.461-.714-3.11Z" transform="translate(-2324.772 -937.03)" fill="#d8d9da"/>
          <path id="Pfad_8033" data-name="Pfad 8033" d="M2359.79,965.293c-.146-.563-1.493-.688-1.995.035-1.148,1.658-8,.328-9.07.109a1.684,1.684,0,0,0,.167,3.232c2.231.845,9.374,3.575,11.822,4.483a1.2,1.2,0,0,0,1.4-.434c1.116-1.6,2.242-4.837,1.584-5.157-1-.137-3.253.265-3.912-2.269Z" transform="translate(-2347.558 -959.947)" fill="#666"/>
        </g>
        <g id="Gruppe_2524" data-name="Gruppe 2524" transform="translate(92.012 74.279)">
          <path id="Pfad_8034" data-name="Pfad 8034" d="M1863.249,701.208c-1.808.959-6.637,2.792-6.637,2.792l-2.242-4.923,7.278-2.686,3.641,2.365-2.038,2.455Z" transform="translate(-1854.37 -695.077)" fill="#d8d9da"/>
          <path id="Pfad_8035" data-name="Pfad 8035" d="M1823.523,695.268c-.36.458.358,1.6,1.238,1.565,2.014-.093,5.116,6.163,5.589,7.144a1.684,1.684,0,0,0,2.469-2.093c-.683-2.288-2.844-9.62-3.608-12.119a1.2,1.2,0,0,0-1.2-.852c-1.947.083-5.206,1.152-5.06,1.868C1823.451,691.66,1825.139,693.207,1823.523,695.268Z" transform="translate(-1816.514 -688.913)" fill="#666"/>
        </g>
        <path id="Pfad_8036" data-name="Pfad 8036" d="M1893.231,616.75q1.164.69,2.2,1.231a36.683,36.683,0,0,0,4.925,2.2,15.048,15.048,0,0,0,1.564.481c2.448-4.428,9.637-29.118,12.006-37.606,1.138-4.072,4.354-8.129,7.441-11.281l.005-.005c.142-.146.283-.286.423-.427a59.736,59.736,0,0,1,6.241-5.438.315.315,0,0,1,.041-.03.077.077,0,0,1,.016-.014h0c3.731,11.98,3.74,18.3,13.828,23.977,8.538,4.806,36.815-8.7,36.815-8.7.03-.212.058-.418.084-.618.419-3.227.3-4.946-.062-5.7a.719.719,0,0,0-.52-.465c-.747-.114-28.818,8.739-31.931,6.781-4.086-2.572-2.295-8.665-3.64-17.411-.035-.244-.076-.488-.118-.737-.721-4.21-1.181-8.814-2.105-10.821-.374-.811-5-2.887-5.762-3.375a9.4,9.4,0,0,0-6.463-.98,33.041,33.041,0,0,0-10.456,3.91c-.792,8.264-11.864,21.171-12.951,28.7-.966,6.677-11.579,36.328-11.579,36.328Z" transform="translate(-1882.978 -498.178)" fill="#888a8a"/>
        <path id="Pfad_8037" data-name="Pfad 8037" d="M2037.41,1005.956c0,1.6,18.916,3.47,40.71,3.47s28.442-1.3,28.442-2.908-6.647-2.908-28.442-2.908-40.71.74-40.71,2.344Z" transform="translate(-2035.769 -874.076)" fill="#83857e" opacity="0.23"/>
        <path id="Pfad_8038" data-name="Pfad 8038" d="M2183.65,638.627a60.347,60.347,0,0,1,6.3-5.482c-.768-2.539-1.04-3.875-1.04-3.875Z" transform="translate(-2144.836 -565.463)" fill="#666" opacity="0.2"/>
        <g id="Gruppe_2525" data-name="Gruppe 2525" transform="translate(31.131 0)">
          <path id="Pfad_8039" data-name="Pfad 8039" d="M2182.7,286.828a26.686,26.686,0,0,1-1.073,4.99c.72.36.6-.534.584,1.375-.019,2.772.244,4.923,3.3,2.521v2.762l1.182,3.763,5.141-3.085c-2.9-3.506.158-11.8-2.044-13.725s-6.96.316-7.092,1.4Z" transform="translate(-2177.499 -281.373)" fill="#d2d3d4"/>
          <path id="Pfad_8040" data-name="Pfad 8040" d="M2182,280.123c1.3-1.041.131-3.2-1.133-1.758-1.264-.04-1.193-.169-1.152-1.289s-.855-.679-1.793-1.441-2.039-1.2-1.222-2.481a13.8,13.8,0,0,0,.934-1.366c.323-.641.411-1.877,1.471-1.155s.9,1.561,2.2.241,2.893-1.361,3.524.479c.729,2.128,1.4.307,2.3,2.321,1.623,3.612-.783,3.57-.5,5.652s-.389,4.27-1.979,4.23S2182,281.22,2182,280.123Z" transform="translate(-2172.441 -269.21)" fill="#bebab6"/>
          <path id="Pfad_8041" data-name="Pfad 8041" d="M2202.553,343.383c.85-1.069,1.333-.964,1.6-.736,2.379,2.051.084,2.581-.641,4.063s-.957-.565-.957-.565v-2.762Z" transform="translate(-2194.538 -329.042)" fill="#565772" opacity="0.16"/>
          <path id="Pfad_8042" data-name="Pfad 8042" d="M2192.207,271.115c.562,2.585-14.7-.03-15.083-.765s2.049-1.765,4.164-1.435c1.275-2.96,9.157-5.9,10.919,2.2Z" transform="translate(-2177.084 -265.862)" fill="#666"/>
        </g>
        <path id="Pfad_8043" data-name="Pfad 8043" d="M2272.659,345.544c.677-.63.707-.283,1.712-.988s2.249-1.266,2.47-1.865a1.4,1.4,0,0,0,.007-1.166c-.2-.676.78-1.1.864-1.773s-1.761-1.522-2.586-1.619-2.044,1.728-2.82,2.616a17.908,17.908,0,0,0-1.775,3.612c-.239.474,2.126,1.183,2.126,1.183Z" transform="translate(-2247.851 -325.441)" fill="#d2d3d4"/>
        <path id="Pfad_8044" data-name="Pfad 8044" d="M2112.044,384.159c5.135,3.074,13.8-10.2,14.756-8.159a.748.748,0,0,1,.035.105c.1,5.591,2.925,9.473,1.471,19.8-.135.967-.309,1.991-.526,3.078,6.918,6.24,23.06,3.93,23.5.056s-1.7-26.9-2.69-29.643c-1.291-3.566-6.168-7.466-7.436-7.968-1.164-.462-6.86-1.2-10.142.119a5.644,5.644,0,0,0-.8.39c-1.214.729-2.324,1.329-3.411,1.991a21.835,21.835,0,0,0-5.034,4.105c-3.371,3.668-3.894,7.589-5.785,8.417-.959-1.67,5.075-14.025,5.075-14.025-.88-.593-4.156-2.642-4.811-2.139C2115.761,362.215,2106.2,380.66,2112.044,384.159Z" transform="translate(-2093.325 -343.645)" fill="#888a8a"/>
        <path id="Pfad_8045" data-name="Pfad 8045" d="M2230.135,450.235c.1,5.591,2.925,9.473,1.471,19.8.24-.49.517-1.187.737-1.566,1.489-2.569,1.42-15.258.918-16.264-.45-.9-1.013-1.234-3.162-2.077A.818.818,0,0,1,2230.135,450.235Z" transform="translate(-2196.625 -417.777)" fill="#666"/>
        <path id="Pfad_8046" data-name="Pfad 8046" d="M2181.516,302.439c-.75,1.675-.983,2.925-.432,3.269a9.188,9.188,0,0,0,4.133-.683,2.03,2.03,0,0,1,2.36.065c.47.26,3.669,1.092,3.7.822.078-.614-1.161-1.045-1.856-1.478a21.006,21.006,0,0,0-5.529-1.872c-1.388-.1-2.193-.541-2.381-.125Z" transform="translate(-2145.663 -295.871)" fill="#666"/>
        <path id="Pfad_8047" data-name="Pfad 8047" d="M2173.672,314.19c1.936-1.427,1.846-1.772,1.817-.887a1.377,1.377,0,0,1-1.607,1.126c-.389-.181-.21-.241-.21-.241Z" transform="translate(-2128.624 -304.574)" fill="#565772"/>
        <path id="Pfad_8048" data-name="Pfad 8048" d="M2175.758,320.847c1.176.414.711.33,1.071,1.276s-.646.27-.9-.3S2175.076,320.607,2175.758,320.847Z" transform="translate(-2130.348 -311.151)" fill="#666"/>
        <path id="Pfad_8049" data-name="Pfad 8049" d="M2100.64,547.812c4.2,6.365,10.965,12.793,14.45,15.913-.035-.244-.075-.488-.117-.737-.722-4.21-1.182-8.814-2.105-10.821-.374-.811-5-2.887-5.763-3.375a9.4,9.4,0,0,0-6.463-.98Z" transform="translate(-2055.399 -498.178)" fill="#666" opacity="0.2"/>
        <path id="Pfad_8050" data-name="Pfad 8050" d="M2030.229,347.36c8.1,1.384,23.3-2.732,34.378,9.664s8.848,24.337,4.76,28.288c-5.156,4.985-16.292,5.176-23.532-2.658s-1.956-17.6-4.237-21.96c-2.957-5.657-9.989-11.169-12.235-11.56s.864-1.773.864-1.773Z" transform="translate(-2000.367 -333.051)" fill="#666"/>
        <path id="Pfad_8051" data-name="Pfad 8051" d="M2168.5,370.221c2.26,1.975,6.235,6.117,6.881,8.4.554,1.958.014,12.347,1.431,13.29s5.981-19.439,5.981-19.439l-10.086-4.63a5.631,5.631,0,0,0-.8.39c-1.215.729-2.325,1.329-3.411,1.991Z" transform="translate(-2135.018 -349.935)" fill="#666" opacity="0.2"/>
      </g>
      <g id="Gruppe_2527" data-name="Gruppe 2527" transform="translate(138.127 60.095)">
        <path id="Pfad_8052" data-name="Pfad 8052" d="M8.52,6.919c-.614.778-1.634,2.026-2.71,1.2C-10.139-.425,12.208-4.272,8.52,6.919Zm-2.145-.8c2.715-2.074-3.12-6.238-4.237-3.1Z" transform="translate(11.736 4.196) rotate(120)" fill="#fff"/>
        <path id="Pfad_8053" data-name="Pfad 8053" d="M.02,1.789c-.574-4.6,11.539.916,9.1,2.744-1.949.376-1.76-1.58-3.287,1.12C9.517,12.223.921,4.008.022,1.789Zm2.364.067c1.007.873,1.841,3.41,2.813,1.213A20.506,20.506,0,0,0,2.384,1.855Z" transform="translate(13.895 11.02) rotate(120)" fill="#fff"/>
        <path id="Pfad_8054" data-name="Pfad 8054" d="M1.571,5.56C.9,5.409-.4,4.677.121,3.888.44,3.817,2.9-.748,3.45.107,4.942.632,4.6,1.748,3.717,2.628c.449.748,8.731,4.962,4.119,5.353C6.29,7.642,2.528,2.422,1.571,5.558Z" transform="translate(18.214 16.753) rotate(120)" fill="#fff"/>
        <path id="Pfad_8055" data-name="Pfad 8055" d="M.02,1.788c-.574-4.6,11.54.917,9.1,2.744-1.949.376-1.76-1.58-3.288,1.12C9.518,12.223.921,4.008.022,1.788Zm2.362.069C3.39,2.73,4.224,5.268,5.195,3.07A20.474,20.474,0,0,0,2.382,1.857Z" transform="translate(18.893 22.351) rotate(120)" fill="#fff"/>
      </g>
      <rect id="Rechteck_1429" data-name="Rechteck 1429" width="444" height="236.021" fill="none"/>
    </g>
    <path id="Pfad_8524" data-name="Pfad 8524" d="M1985.292,142.118c2.492,0,7.613,4.708.294,5.462s-18.282.407-22.717.424c-7.241.026-9.037-.29-8.979-3.441.033-1.823.958-3,4.775-3.483,3.97-.5,1.942-5.2,6.789-5.057,4.129.122,4.549,6.277,8.327,4.77s2.987,2.6,5.75,3.357C1982.567,144.977,1982.8,142.118,1985.292,142.118Z" transform="translate(-1252.996 12591.384)" fill="#e6e6e6" opacity="0.75"/>
  </g>
</svg>
