<svg id="img-quality-to" xmlns="http://www.w3.org/2000/svg" width="444" height="238.98" viewBox="0 0 444 238.98">
  <ellipse id="Ellipse_78" data-name="Ellipse 78" cx="142.918" cy="4.529" rx="142.918" ry="4.529" transform="translate(79.289 212.598)" fill="#2e2e3f" opacity="0.11"/>
  <path id="Pfad_9446" data-name="Pfad 9446" d="M1259.838,408.027c-.218,9.349-128.7,8.5-128.7,0,0-60.026-1.976-165.164,2.011-174.53,1.115-2.617,13.461-4.385,30.026-5.328a620.586,620.586,0,0,1,63.325-.016c18.618,1.015,34.331,2.746,34.352,5.652C1261.259,292.324,1260.364,385.425,1259.838,408.027Z" transform="translate(-954.839 -195.396)" fill="#775155"/>
  <path id="Pfad_9447" data-name="Pfad 9447" d="M1310.162,416.317c-1.94,7.887-113.9,5.717-114.176-.058-2.762-57.054,1.306-136.612,2.969-145.135,1.126-5.774,113.178-7.056,112.413-.4C1305.134,325.018,1314.686,397.916,1310.162,416.317Z" transform="translate(-1010.064 -209.844)" fill="#1f1f3b" opacity="0.24"/>
  <path id="Pfad_9448" data-name="Pfad 9448" d="M1297.081,410.228c-1.94,7.887-113.7,4.509-113.975-1.264-2.762-57.054,1.306-136.612,2.969-145.135,1.126-5.774,114.392-5.722,113.42.905-7.843,53.391,2.111,127.095-2.413,145.5Z" transform="translate(-999.124 -204.157)" fill="#fff"/>
  <g id="Gruppe_2982" data-name="Gruppe 2982" transform="translate(199.921 94.823)">
    <g id="Gruppe_2979" data-name="Gruppe 2979" transform="translate(23.376 7.471)" opacity="0.82">
      <path id="Pfad_9449" data-name="Pfad 9449" d="M1610.058,673.09l11.575.209a.894.894,0,0,1,.788.884l.157,2.537a.739.739,0,0,1-.68.857l-11.575-.209a.894.894,0,0,1-.788-.884l-.157-2.537A.739.739,0,0,1,1610.058,673.09Z" transform="translate(-1589.871 -672.732)" fill="#4a4963"/>
      <path id="Pfad_9450" data-name="Pfad 9450" d="M1471,670.55l7.074.128c.24,0,.457.357.483.79l.169,2.717c.027.432-.146.777-.388.773l-7.074-.128c-.24,0-.457-.357-.484-.79l-.169-2.717C1470.587,670.891,1470.76,670.546,1471,670.55Z" transform="translate(-1470.611 -670.55)" fill="#4a4963"/>
      <path id="Pfad_9451" data-name="Pfad 9451" d="M1546.394,672.715l.169,2.714a.663.663,0,0,1-.612.77l-6.145-.111a.8.8,0,0,1-.708-.794l-.169-2.714a.663.663,0,0,1,.611-.77l6.145.111A.8.8,0,0,1,1546.394,672.715Z" transform="translate(-1529.325 -671.632)" fill="#4a4963"/>
      <path id="Pfad_9452" data-name="Pfad 9452" d="M1755.889,677.81l8.931.162c.3.006.572.36.6.791l.169,2.717c.027.432-.2.777-.5.772l-8.931-.161c-.3-.006-.572-.36-.6-.791l-.168-2.717C1755.36,678.15,1755.585,677.8,1755.889,677.81Z" transform="translate(-1715.358 -676.789)" fill="#4a4963"/>
      <path id="Pfad_9453" data-name="Pfad 9453" d="M1840.765,680.125l.169,2.714c.027.432-.2.777-.5.773l-5.127-.093c-.3-.006-.572-.36-.6-.793l-.169-2.714c-.027-.431.2-.777.5-.773l5.128.093C1840.47,679.338,1840.738,679.692,1840.765,680.125Z" transform="translate(-1783.382 -678.018)" fill="#4a4963"/>
    </g>
    <g id="Gruppe_2981" data-name="Gruppe 2981">
      <g id="Gruppe_2980" data-name="Gruppe 2980" transform="translate(0 1.428)">
        <path id="Pfad_9454" data-name="Pfad 9454" d="M1309.386,632.091c-.638.866-2.018,11.086-.935,11.561,1.753.769,10.834.541,11.8-.315s1.569-10.987,1.136-11.572-11.336-.581-12,.325Z" transform="translate(-1307.523 -630.827)" fill="#fff"/>
        <path id="Pfad_9455" data-name="Pfad 9455" d="M1310.3,641.388a18.465,18.465,0,0,1-5.288-.513,1.14,1.14,0,0,1-.562-.79c-.551-2.066.523-10.55,1.282-11.579h0c.194-.263.589-.559,2.832-.765,1.252-.114,2.872-.178,4.561-.181h.112c4.9,0,5.211.417,5.36.62.112.152.266.358.247,2.259-.011,1.068-.079,2.448-.185,3.787-.292,3.656-.721,5.757-1.272,6.247-.7.617-4.019.918-7.084.918Zm-4.781-1.463a22.491,22.491,0,0,0,5.826.378c3.182-.079,5.018-.415,5.323-.631.669-.835,1.317-9.271,1.056-10.789a32.017,32.017,0,0,0-5.536-.243c-3.528.055-5.258.342-5.611.531a27.218,27.218,0,0,0-.966,5.355c-.372,3.338-.264,5.019-.093,5.4Zm1.029-10.736Zm11.3-.267Z" transform="translate(-1304.303 -627.56)" fill="#3b3b4d"/>
      </g>
      <path id="Pfad_9456" data-name="Pfad 9456" d="M1324.4,629.72c-1.895,0-2.579-1.293-3.3-2.661-.15-.284-.307-.578-.486-.9a1.071,1.071,0,1,1,1.864-1.057c.2.344.365.665.516.949.766,1.445.9,1.538,1.473,1.521.494-.014,1.484-1.034,2.739-2.326a79.663,79.663,0,0,1,8.368-7.623,1.072,1.072,0,1,1,1.329,1.681,77.989,77.989,0,0,0-8.159,7.436c-1.84,1.895-2.853,2.938-4.217,2.976h-.121Z" transform="translate(-1318.194 -617.397)" fill="#00628f"/>
    </g>
  </g>
  <g id="Gruppe_2986" data-name="Gruppe 2986" transform="translate(201.071 71.638)">
    <g id="Gruppe_2983" data-name="Gruppe 2983" transform="translate(22.59 7.034)" opacity="0.8">
      <path id="Pfad_9457" data-name="Pfad 9457" d="M1612.228,519.02l11.575.209a.894.894,0,0,1,.788.884l.158,2.537a.739.739,0,0,1-.68.857l-11.575-.209a.894.894,0,0,1-.788-.884l-.157-2.537A.739.739,0,0,1,1612.228,519.02Z" transform="translate(-1592.041 -518.662)" fill="#4a4963"/>
      <path id="Pfad_9458" data-name="Pfad 9458" d="M1473.172,516.48l7.074.128c.24,0,.457.357.483.79l.169,2.717c.027.432-.146.777-.388.773l-7.074-.128c-.24,0-.457-.357-.483-.79l-.169-2.717C1472.757,516.821,1472.93,516.476,1473.172,516.48Z" transform="translate(-1472.781 -516.48)" fill="#4a4963"/>
      <path id="Pfad_9459" data-name="Pfad 9459" d="M1548.564,518.645l.169,2.714a.663.663,0,0,1-.611.77l-6.145-.111a.8.8,0,0,1-.709-.794l-.169-2.714a.663.663,0,0,1,.611-.77l6.145.111A.8.8,0,0,1,1548.564,518.645Z" transform="translate(-1531.495 -517.562)" fill="#4a4963"/>
      <path id="Pfad_9460" data-name="Pfad 9460" d="M1758.059,523.75l8.931.162c.3.006.572.36.6.791l.168,2.717c.027.432-.2.777-.5.772l-8.931-.162c-.3-.006-.572-.36-.6-.791l-.169-2.717C1757.53,524.09,1757.755,523.744,1758.059,523.75Z" transform="translate(-1717.527 -522.728)" fill="#4a4963"/>
      <path id="Pfad_9461" data-name="Pfad 9461" d="M1842.935,526.064l.169,2.714c.027.432-.2.777-.5.773l-5.128-.093c-.3-.006-.572-.36-.6-.793l-.169-2.714c-.027-.432.2-.777.5-.772l5.128.093c.3.006.572.36.6.793Z" transform="translate(-1785.552 -523.957)" fill="#4a4963"/>
    </g>
    <g id="Gruppe_2985" data-name="Gruppe 2985">
      <g id="Gruppe_2984" data-name="Gruppe 2984" transform="translate(0 1.428)">
        <path id="Pfad_9462" data-name="Pfad 9462" d="M1317.146,481.131c-.638.866-2.018,11.086-.935,11.561,1.753.769,10.834.541,11.8-.315s1.569-10.987,1.136-11.572-11.336-.58-12,.325Z" transform="translate(-1315.282 -479.867)" fill="#fff"/>
        <path id="Pfad_9463" data-name="Pfad 9463" d="M1318.064,490.428a18.466,18.466,0,0,1-5.288-.513,1.141,1.141,0,0,1-.562-.79c-.551-2.066.523-10.55,1.282-11.579h0c.194-.263.589-.559,2.831-.765,1.251-.114,2.87-.178,4.56-.181H1321c4.9,0,5.211.417,5.359.62.112.152.266.358.247,2.259-.011,1.068-.079,2.448-.186,3.787-.292,3.656-.721,5.757-1.272,6.246-.7.617-4.019.918-7.084.918Zm-4.78-1.463a22.559,22.559,0,0,0,5.826.378c3.182-.079,5.018-.415,5.323-.631.669-.835,1.317-9.271,1.056-10.789a32.148,32.148,0,0,0-5.536-.243c-3.528.055-5.258.342-5.611.531a27.247,27.247,0,0,0-.965,5.355c-.373,3.338-.264,5.019-.093,5.4Zm1.029-10.736Zm11.3-.267Z" transform="translate(-1312.063 -476.6)" fill="#3b3b4d"/>
      </g>
      <path id="Pfad_9464" data-name="Pfad 9464" d="M1332.156,478.76c-1.895,0-2.579-1.293-3.3-2.661-.15-.284-.306-.578-.486-.9a1.071,1.071,0,1,1,1.864-1.057c.2.344.365.665.516.949.766,1.445.9,1.538,1.472,1.521.493-.014,1.484-1.035,2.74-2.326a79.664,79.664,0,0,1,8.368-7.623,1.072,1.072,0,1,1,1.33,1.681,78.137,78.137,0,0,0-8.159,7.436c-1.84,1.895-2.853,2.938-4.217,2.976h-.121Z" transform="translate(-1325.954 -466.437)" fill="#00628f"/>
    </g>
  </g>
  <g id="Gruppe_2990" data-name="Gruppe 2990" transform="translate(198.405 139.539)">
    <g id="Gruppe_2987" data-name="Gruppe 2987" transform="translate(24.035 7.423)" opacity="0.82">
      <path id="Pfad_9465" data-name="Pfad 9465" d="M1604.648,963.9l11.575.209a.894.894,0,0,1,.789.884l.157,2.537a.739.739,0,0,1-.68.857l-11.575-.21a.894.894,0,0,1-.789-.884l-.157-2.537A.739.739,0,0,1,1604.648,963.9Z" transform="translate(-1584.461 -963.542)" fill="#4a4963"/>
      <path id="Pfad_9466" data-name="Pfad 9466" d="M1465.591,961.36l7.074.128c.24,0,.457.357.484.79l.169,2.717c.026.432-.146.777-.388.773l-7.075-.128c-.24,0-.457-.357-.484-.79l-.169-2.717C1465.177,961.7,1465.35,961.356,1465.591,961.36Z" transform="translate(-1465.201 -961.36)" fill="#4a4963"/>
      <path id="Pfad_9467" data-name="Pfad 9467" d="M1540.984,963.525l.169,2.714a.664.664,0,0,1-.612.77l-6.145-.111a.8.8,0,0,1-.708-.794l-.169-2.714a.663.663,0,0,1,.612-.77l6.145.111A.8.8,0,0,1,1540.984,963.525Z" transform="translate(-1523.915 -962.442)" fill="#4a4963"/>
      <path id="Pfad_9468" data-name="Pfad 9468" d="M1750.479,968.63l8.931.162c.3.006.572.36.6.791l.169,2.717c.026.432-.2.777-.5.772l-8.931-.162c-.3-.006-.572-.36-.6-.791l-.169-2.717C1749.95,968.97,1750.175,968.624,1750.479,968.63Z" transform="translate(-1709.947 -967.608)" fill="#4a4963"/>
      <path id="Pfad_9469" data-name="Pfad 9469" d="M1835.355,970.944l.169,2.714c.027.432-.2.777-.5.773l-5.128-.093c-.3-.005-.572-.36-.6-.793l-.168-2.714c-.027-.432.2-.777.5-.772l5.128.093c.3.006.572.36.6.793Z" transform="translate(-1777.972 -968.837)" fill="#4a4963"/>
    </g>
    <g id="Gruppe_2989" data-name="Gruppe 2989">
      <g id="Gruppe_2988" data-name="Gruppe 2988" transform="translate(0 1.429)">
        <path id="Pfad_9470" data-name="Pfad 9470" d="M1299.276,923.241c-.638.866-2.018,11.086-.935,11.561,1.753.769,10.834.541,11.8-.315s1.569-10.987,1.136-11.572-11.336-.581-12,.325Z" transform="translate(-1297.414 -921.977)" fill="#fff"/>
        <path id="Pfad_9471" data-name="Pfad 9471" d="M1300.2,932.538a18.443,18.443,0,0,1-5.286-.513,1.14,1.14,0,0,1-.562-.79c-.551-2.066.523-10.55,1.282-11.579h0c.194-.263.588-.56,2.829-.765,1.251-.114,2.87-.179,4.558-.181h.117c4.9,0,5.209.417,5.359.62.113.152.266.358.247,2.259-.011,1.068-.079,2.449-.185,3.787-.293,3.656-.721,5.757-1.272,6.246-.7.617-4.019.918-7.086.918Zm-4.781-1.463a22.566,22.566,0,0,0,5.826.378c3.182-.079,5.018-.415,5.323-.631.669-.835,1.317-9.271,1.056-10.789a32.008,32.008,0,0,0-5.536-.243c-3.528.055-5.258.342-5.611.531a27.278,27.278,0,0,0-.966,5.357c-.372,3.338-.264,5.019-.093,5.4Zm12.333-11Z" transform="translate(-1294.203 -918.71)" fill="#3b3b4d"/>
      </g>
      <path id="Pfad_9472" data-name="Pfad 9472" d="M1314.3,920.87c-1.895,0-2.579-1.293-3.3-2.661-.15-.284-.306-.578-.486-.9a1.071,1.071,0,1,1,1.864-1.057c.2.344.366.666.516.949.766,1.445.9,1.539,1.472,1.521.493-.014,1.484-1.034,2.739-2.326a79.652,79.652,0,0,1,8.368-7.622,1.072,1.072,0,0,1,1.33,1.681,78.153,78.153,0,0,0-8.16,7.435c-1.84,1.895-2.853,2.938-4.217,2.976h-.121Z" transform="translate(-1308.094 -908.547)" fill="#00628f"/>
    </g>
  </g>
  <g id="Gruppe_2994" data-name="Gruppe 2994" transform="translate(197.789 116.962)">
    <g id="Gruppe_2991" data-name="Gruppe 2991" transform="translate(24.467 6.245)" opacity="0.82">
      <path id="Pfad_9473" data-name="Pfad 9473" d="M1719.413,813.449l-8.93-.2c-.3-.007-.586.336-.63.766l-.278,2.707c-.044.43.166.784.47.791l8.93.2c.3.007.586-.336.63-.766l.278-2.707C1719.926,813.81,1719.716,813.456,1719.413,813.449Z" transform="translate(-1675.653 -812.227)" fill="#4a4963"/>
      <path id="Pfad_9474" data-name="Pfad 9474" d="M1657.753,812.847l-.278,2.706c-.043.43.166.786.471.791l5.127.115c.3.007.586-.337.631-.767l.278-2.706c.043-.43-.166-.786-.471-.791l-5.127-.115C1658.081,812.072,1657.8,812.417,1657.753,812.847Z" transform="translate(-1630.876 -811.222)" fill="#4a4963"/>
      <path id="Pfad_9475" data-name="Pfad 9475" d="M1480.934,806.238l-11.573-.258a.9.9,0,0,0-.824.852l-.26,2.529a.738.738,0,0,0,.645.884l11.573.259a.894.894,0,0,0,.824-.852l.26-2.529A.738.738,0,0,0,1480.934,806.238Z" transform="translate(-1468.271 -805.979)" fill="#4a4963"/>
      <path id="Pfad_9476" data-name="Pfad 9476" d="M1578.579,809.194l-.278,2.706a.663.663,0,0,0,.58.794l6.145.138a.8.8,0,0,0,.739-.765l.278-2.706a.664.664,0,0,0-.581-.794l-6.145-.138A.8.8,0,0,0,1578.579,809.194Z" transform="translate(-1562.831 -808.085)" fill="#4a4963"/>
    </g>
    <g id="Gruppe_2993" data-name="Gruppe 2993">
      <g id="Gruppe_2992" data-name="Gruppe 2992" transform="translate(0 1.427)">
        <path id="Pfad_9477" data-name="Pfad 9477" d="M1299.276,776.231c-.638.866-2.018,11.086-.935,11.561,1.753.769,10.834.541,11.8-.315s1.569-10.987,1.136-11.572-11.336-.58-12,.325Z" transform="translate(-1297.414 -774.967)" fill="#fff"/>
        <path id="Pfad_9478" data-name="Pfad 9478" d="M1300.2,785.528a18.45,18.45,0,0,1-5.286-.513,1.141,1.141,0,0,1-.562-.79c-.551-2.066.523-10.55,1.282-11.579h0c.194-.263.588-.559,2.829-.765,1.251-.114,2.87-.178,4.558-.181h.117c4.9,0,5.209.418,5.359.62.113.152.266.358.247,2.259-.011,1.068-.079,2.449-.185,3.787-.293,3.656-.721,5.757-1.272,6.247-.7.617-4.019.918-7.086.918Zm-4.781-1.463a22.564,22.564,0,0,0,5.826.378c3.182-.079,5.018-.415,5.323-.631.669-.835,1.317-9.271,1.056-10.789a32.153,32.153,0,0,0-5.536-.243c-3.528.055-5.258.342-5.611.531a27.278,27.278,0,0,0-.966,5.357c-.372,3.34-.264,5.019-.093,5.4Zm12.333-11Z" transform="translate(-1294.203 -771.7)" fill="#3b3b4d"/>
      </g>
      <path id="Pfad_9479" data-name="Pfad 9479" d="M1314.3,773.87c-1.895,0-2.579-1.293-3.3-2.661-.15-.284-.306-.578-.486-.9a1.071,1.071,0,1,1,1.864-1.057c.2.344.366.666.516.949.766,1.445.9,1.539,1.472,1.521.493-.014,1.484-1.034,2.739-2.326a79.656,79.656,0,0,1,8.368-7.623,1.072,1.072,0,0,1,1.33,1.681,78.145,78.145,0,0,0-8.16,7.435c-1.84,1.895-2.853,2.938-4.217,2.976h-.121Z" transform="translate(-1308.094 -761.547)" fill="#00628f"/>
    </g>
  </g>
  <g id="Gruppe_2998" data-name="Gruppe 2998" transform="translate(197.622 164.095)">
    <g id="Gruppe_2995" data-name="Gruppe 2995" transform="translate(24.413 6.119)" opacity="0.82">
      <path id="Pfad_9480" data-name="Pfad 9480" d="M1717.953,1119.429l-8.93-.2c-.3-.007-.586.336-.629.766l-.279,2.707c-.043.43.166.784.469.791l8.93.2c.3.007.586-.336.63-.766l.278-2.707C1718.466,1119.79,1718.257,1119.436,1717.953,1119.429Z" transform="translate(-1674.193 -1118.209)" fill="#4a4963"/>
      <path id="Pfad_9481" data-name="Pfad 9481" d="M1656.293,1118.837l-.278,2.706c-.043.43.166.786.471.791l5.128.115c.3.007.586-.337.631-.767l.278-2.706c.044-.43-.166-.786-.471-.791l-5.127-.115C1656.621,1118.063,1656.338,1118.407,1656.293,1118.837Z" transform="translate(-1629.416 -1117.212)" fill="#4a4963"/>
      <path id="Pfad_9482" data-name="Pfad 9482" d="M1479.474,1112.228l-11.574-.259a.9.9,0,0,0-.824.852l-.26,2.529a.738.738,0,0,0,.645.884l11.574.259a.9.9,0,0,0,.824-.852l.26-2.529A.738.738,0,0,0,1479.474,1112.228Z" transform="translate(-1466.812 -1111.969)" fill="#4a4963"/>
      <path id="Pfad_9483" data-name="Pfad 9483" d="M1577.119,1115.184l-.278,2.706a.663.663,0,0,0,.58.794l6.146.138a.8.8,0,0,0,.739-.765l.278-2.706a.663.663,0,0,0-.581-.794l-6.145-.138A.8.8,0,0,0,1577.119,1115.184Z" transform="translate(-1561.371 -1114.075)" fill="#4a4963"/>
    </g>
    <g id="Gruppe_2997" data-name="Gruppe 2997">
      <g id="Gruppe_2996" data-name="Gruppe 2996" transform="translate(0 1.427)">
        <path id="Pfad_9484" data-name="Pfad 9484" d="M1298.206,1083.121c-.638.866-2.018,11.086-.935,11.561,1.753.769,10.834.541,11.8-.315s1.569-10.987,1.136-11.572-11.336-.581-12,.325Z" transform="translate(-1296.343 -1081.857)" fill="#fff"/>
        <path id="Pfad_9485" data-name="Pfad 9485" d="M1299.124,1092.418a18.462,18.462,0,0,1-5.288-.513,1.14,1.14,0,0,1-.562-.79c-.551-2.066.523-10.55,1.282-11.579h0c.194-.263.589-.559,2.831-.765,1.251-.114,2.87-.178,4.56-.182h.115c4.9,0,5.211.417,5.36.62.113.152.266.358.247,2.259-.011,1.068-.079,2.448-.185,3.786-.292,3.656-.721,5.757-1.272,6.246-.7.617-4.019.918-7.084.918Zm-4.781-1.463a22.493,22.493,0,0,0,5.826.378c3.182-.079,5.018-.415,5.323-.631.669-.835,1.317-9.271,1.056-10.789a32.12,32.12,0,0,0-5.537-.243c-3.528.055-5.258.341-5.611.531a27.242,27.242,0,0,0-.966,5.355c-.372,3.338-.264,5.019-.093,5.4Zm12.333-11Z" transform="translate(-1293.123 -1078.59)" fill="#3b3b4d"/>
      </g>
      <path id="Pfad_9486" data-name="Pfad 9486" d="M1313.216,1080.76c-1.895,0-2.579-1.293-3.3-2.661-.15-.284-.307-.578-.486-.9a1.071,1.071,0,0,1,1.864-1.057c.2.344.365.665.516.949.766,1.445.9,1.538,1.471,1.521.494-.014,1.484-1.034,2.74-2.326a79.66,79.66,0,0,1,8.367-7.623,1.072,1.072,0,1,1,1.33,1.681,78.149,78.149,0,0,0-8.159,7.436c-1.84,1.895-2.853,2.938-4.217,2.976h-.121Z" transform="translate(-1307.014 -1068.437)" fill="#00628f"/>
    </g>
  </g>
  <g id="Gruppe_2999" data-name="Gruppe 2999" transform="translate(206.885 15.252)">
    <path id="Pfad_9487" data-name="Pfad 9487" d="M1391.807,241.894c-28.05-.621-31.381-5.286-30.685-13.731a633.848,633.848,0,0,1,63.447,0C1424.922,232.658,1424.879,242.626,1391.807,241.894Z" transform="translate(-1360.199 -210.662)" fill="#1f1f3b" opacity="0.24"/>
    <path id="Pfad_9488" data-name="Pfad 9488" d="M1355.263,124.7c-1.106,9.455.977,13.062,30.483,13.717,35.879.8,32.816-9.406,32.624-13.421-.287-6.013-16.592-2.278-16.636-6.024-.156-12.983-21.879-11.59-25.361-7.971-5.85,6.085-2.759,8.668-8.036,8.873s-12.525.122-13.075,4.825Z" transform="translate(-1355.045 -108.507)" fill="#535366"/>
  </g>
  <circle id="Ellipse_79" data-name="Ellipse 79" cx="3.452" cy="3.452" r="3.452" transform="translate(232.715 23.282) rotate(-45)" fill="#fff"/>
  <g id="Gruppe_3009" data-name="Gruppe 3009" transform="translate(274.025 52.569)">
    <g id="Gruppe_3005" data-name="Gruppe 3005">
      <ellipse id="Ellipse_80" data-name="Ellipse 80" cx="23.504" cy="23.504" rx="23.504" ry="23.504" transform="translate(5.013 3.083)" fill="#f4ad00"/>
      <g id="Gruppe_3004" data-name="Gruppe 3004">
        <g id="Gruppe_3000" data-name="Gruppe 3000" transform="translate(0 49.605)">
          <path id="Pfad_9489" data-name="Pfad 9489" d="M1825.942,686.77q-.061.312-.149.659c-1.862,7.291-12.792,26.071-15.716,26.779a1.452,1.452,0,0,1-1.944-.984c-.2-.482-.343-1.081-.537-1.691a4.065,4.065,0,0,0-2.019-2.69c-.784-.38-2.955-.326-4.95-.356a21.91,21.91,0,0,1-2.384-.131h0c-1.238-.162-1.927-.523-1.258-1.349,1.766-2.186,11.6-14.833,16.019-22.78.473-.849.884-1.645,1.216-2.368,0,0,13.033-1.827,11.723,4.912Z" transform="translate(-1796.724 -681.633)" fill="#c62020"/>
          <path id="Pfad_9490" data-name="Pfad 9490" d="M1826.468,693.611c-.226,1.091-3.652,7.1-7.051,12.37-2.793,4.331-6.5,9.662-9.513,12.525a21.865,21.865,0,0,1-2.384-.131c2.326-1.715,5.994-6.359,10.389-13.166a98.1,98.1,0,0,0,6.876-11.919l1.681.321Z" transform="translate(-1806.003 -691.652)" fill="#fff"/>
          <path id="Pfad_9491" data-name="Pfad 9491" d="M1890.939,708.41a106.444,106.444,0,0,1-6.637,13.917c-4.738,8.568-7.838,12.089-9.694,13.509-.2-.482-.343-1.081-.537-1.691,2.256-2.014,5.3-6.393,8.7-12.555a107.128,107.128,0,0,0,6.522-13.65Z" transform="translate(-1863.198 -704.242)" fill="#fff"/>
        </g>
        <g id="Gruppe_3001" data-name="Gruppe 3001" transform="translate(29.83 48.136)">
          <path id="Pfad_9492" data-name="Pfad 9492" d="M2037.266,697.442h0a22.123,22.123,0,0,1-2.379.187c-1.995.077-4.166.075-4.941.472a4.062,4.062,0,0,0-1.954,2.737c-.18.614-.306,1.216-.5,1.7a1.453,1.453,0,0,1-1.92,1.03c-2.8-.61-13.236-17.415-15.989-25.28a15.843,15.843,0,0,1-.521-1.775c-1.47-6.706,11.6-5.188,11.6-5.188.516,1.056,1.207,2.266,2.017,3.57,4.875,7.847,14.085,19.13,15.81,21.164.688.811.009,1.188-1.225,1.379Z" transform="translate(-2008.95 -671.181)" fill="#c62020"/>
          <path id="Pfad_9493" data-name="Pfad 9493" d="M2071.48,682.868c.253,1.085,3.819,7.015,7.34,12.2,2.894,4.263,6.729,9.506,9.807,12.3a22.117,22.117,0,0,0,2.379-.187c-2.367-1.659-6.142-6.216-10.7-12.916a98.229,98.229,0,0,1-7.157-11.753l-1.673.36Z" transform="translate(-2062.691 -680.918)" fill="#fff"/>
          <path id="Pfad_9494" data-name="Pfad 9494" d="M2020.11,698.879a106.294,106.294,0,0,0,6.964,13.755c4.939,8.455,8.122,11.9,10.011,13.276.191-.488.318-1.089.5-1.7-2.3-1.959-5.448-6.266-9-12.345a107.215,107.215,0,0,1-6.842-13.491Z" transform="translate(-2018.542 -694.548)" fill="#fff"/>
        </g>
        <g id="Gruppe_3002" data-name="Gruppe 3002" transform="translate(16.279 48.135)">
          <path id="Pfad_9495" data-name="Pfad 9495" d="M1925.479,686.761c-.041.208-.09.427-.149.659a15.1,15.1,0,0,1-1.9-.105c-.536-.058-1.12-.139-1.74-.242a38.071,38.071,0,0,1-5.875-1.465c-.547-.187-1.081-.386-1.594-.6a18.194,18.194,0,0,1-1.68-.791c.472-.849.884-1.644,1.216-2.368C1913.756,681.849,1926.788,680.022,1925.479,686.761Z" transform="translate(-1912.54 -680.154)" fill="#191930" opacity="0.24"/>
          <path id="Pfad_9496" data-name="Pfad 9496" d="M2022.665,674.89c-.527.212-1.139.429-1.808.646-.523.17-1.08.342-1.659.51-1.921.559-4.078,1.095-5.981,1.517-.6.133-1.172.254-1.7.361-.741.149-1.4.27-1.947.357a15.8,15.8,0,0,1-.521-1.775c-1.47-6.706,11.6-5.188,11.6-5.188.516,1.056,1.208,2.266,2.017,3.57Z" transform="translate(-1995.381 -671.171)" fill="#191930" opacity="0.24"/>
        </g>
        <g id="Gruppe_3003" data-name="Gruppe 3003" transform="translate(1.259)">
          <path id="Pfad_9497" data-name="Pfad 9497" d="M1833.637,328.732a27.123,27.123,0,0,0-5.96.462q-1.107.211-2.183.51a27.095,27.095,0,0,0,12.879,52.607,27.091,27.091,0,0,0-4.735-53.581Zm-17.471,38.959a.033.033,0,0,1-.006-.007,20.172,20.172,0,0,1-3.86-9.022.345.345,0,0,0-.006-.037,20.426,20.426,0,0,1,.648-9.148c.021-.067.041-.135.063-.2l.076-.235h0c.023-.069.045-.136.069-.205.01-.027.018-.055.028-.081.021-.062.044-.124.065-.186.028-.077.056-.156.086-.233.053-.143.11-.287.166-.429l.034-.083c.02-.049.041-.1.061-.149.009-.018.016-.037.024-.056.025-.06.052-.122.077-.181.035-.083.072-.166.108-.249s.066-.149.1-.223.081-.174.122-.261c.029-.062.059-.122.09-.184h0c.036-.075.073-.148.11-.221s.074-.146.112-.219c.074-.142.15-.284.228-.424l.038-.067c.069-.124.139-.246.209-.367.042-.072.084-.143.128-.215s.077-.129.118-.194l.007-.011.129-.207c.043-.069.089-.138.132-.205l.135-.2.129-.191c.125-.183.253-.363.385-.541l.088-.119c.083-.112.169-.224.254-.333l.15-.191.118-.146.028-.034.063-.077.129-.156.128-.15c.053-.062.105-.122.16-.184l.125-.142c.021-.025.044-.048.066-.073q.2-.228.418-.447l.084-.089a.13.13,0,0,1,.014-.014l.122-.125.107-.105c.028-.028.058-.056.086-.086s.07-.069.107-.1l.087-.084q.226-.215.455-.422l.105-.094c.084-.075.17-.149.256-.222l.077-.066.162-.135.146-.121.161-.129c.036-.029.073-.059.11-.087s.1-.08.155-.121l.183-.139c.048-.035.094-.072.143-.107.159-.118.321-.233.484-.347l.164-.112c.06-.041.12-.082.18-.121s.11-.072.163-.108l.1-.063c.171-.111.344-.218.519-.323L1822,338l.129-.076.09-.052c.056-.032.112-.065.169-.1s.124-.07.187-.1l.207-.111s.005,0,.008,0l.208-.11c.06-.031.121-.063.181-.093l.135-.067c.09-.045.18-.09.271-.132l.128-.06c.14-.066.281-.131.423-.193l.194-.084c.123-.053.25-.105.375-.156l.118-.048.141-.055.129-.051c.1-.038.2-.075.3-.11l.142-.052.142-.049.143-.049c.218-.074.438-.145.659-.211l-.19.059c-.127.039-.252.08-.377.122l-.188.065-.188.066-.183.066h0l-.3.112c-.329.126-.655.263-.975.406-.059.027-.12.053-.178.082a20.208,20.208,0,0,0-2.235,1.206c-.056.035-.111.069-.165.1l-.164.105c-.108.07-.216.142-.323.215l-.16.11c-.107.075-.212.149-.318.225l-.157.114c-.1.077-.208.155-.311.233l-.152.118c-.052.041-.1.08-.154.122s-.1.08-.152.122q-.489.4-.95.824c-.035.032-.07.063-.1.1l-.111.105-.141.135c-.044.042-.087.086-.132.128l-.014.014-.118.118-.02.02-.13.131-.135.139-.1.11c-.017.017-.032.035-.049.052l-.113.122c-.064.07-.131.142-.194.214-.036.039-.072.081-.108.122s-.058.066-.087.1l-.106.121-.079.093c-.041.048-.08.094-.119.142s-.1.122-.15.184c-.035.042-.069.086-.1.128s-.06.076-.09.114l-.08.1c-.029.038-.059.076-.087.114s-.069.091-.1.136-.066.089-.1.132c-.049.066-.1.134-.146.2-.034.046-.068.094-.1.142l-.059.084q-.169.24-.329.486c-.034.051-.068.1-.1.155s-.083.129-.124.2c-.025.039-.051.08-.075.121q-.324.527-.618,1.077c-.023.044-.047.086-.069.129l-.08.155q-.333.647-.618,1.32l-.055.129c-.063.152-.125.3-.182.455-.019.048-.037.1-.055.142-.008.022-.017.045-.025.066-.015.042-.032.084-.048.126s-.032.089-.048.134c-.022.062-.045.125-.066.187q-.135.39-.256.786c-.012.045-.027.089-.039.133s-.027.09-.04.135-.027.094-.039.142-.027.094-.039.141c-.017.065-.035.129-.052.194-.066.252-.127.5-.183.76-.011.049-.021.1-.032.148-.007.034-.016.069-.021.1-.011.056-.024.114-.035.17l-.029.149c-.01.051-.018.1-.028.152s-.02.108-.029.162q-.034.2-.063.392c-.009.059-.017.117-.025.176l-.009.062c-.014.1-.028.2-.041.306-.018.146-.035.294-.051.441-.006.059-.011.118-.017.177l0,.027c0,.051-.009.1-.013.152,0,.025,0,.052-.007.077,0,.044-.007.089-.01.132,0,.017,0,.035,0,.053,0,.046-.007.093-.01.141s-.005.093-.008.138-.007.1-.009.157-.006.125-.009.188-.006.126-.007.19c-.006.176-.01.353-.01.527v.16c0,.129,0,.26,0,.388,0,.049,0,.1,0,.149s0,.08,0,.119c0,.056,0,.114.007.17,0,.025,0,.049,0,.074,0,.073.007.146.011.219a.367.367,0,0,0,0,.039q.006.1.012.2c0,.028,0,.058.006.086,0,.045.007.091.011.136s.008.1.013.153.007.09.013.136c0,.028.005.058.008.086.006.058.011.115.017.173,0,.034.007.067.011.1.006.06.013.119.021.18l.008.072c.005.049.013.1.02.148s.013.093.018.141.014.1.023.152l.013.083c.007.049.016.1.024.149s.018.115.028.171l.013.076c.008.051.017.1.027.149s.015.089.024.134c0,.02.007.039.011.059.013.069.027.136.039.205s.03.148.046.221c.01.048.021.1.032.145s.018.086.028.129q.112.493.247.977c.016.055.031.108.046.163s.03.1.044.152c.021.07.043.142.065.212l.017.055c.017.055.035.111.053.166s.028.09.043.134.037.111.056.166c.027.079.053.157.081.235s.058.163.089.243a.027.027,0,0,0,0,.01l.076.2.027.069c.027.069.053.138.082.207,0,0,0,.006,0,.008.029.072.057.143.087.215.006.014.011.028.018.042.028.07.058.139.087.207a.163.163,0,0,0,.01.021c.028.066.056.131.086.2.009.018.015.035.024.052l.084.186.021.046c.025.056.052.111.079.166.011.024.021.046.034.07.035.073.07.146.106.218s.077.155.116.232.066.129.1.194c.055.105.112.212.17.316l.1.176q.338.6.713,1.178l.073.111.084.125c.014.022.03.044.045.066l.093.136c.018.025.035.052.053.077.038.055.076.11.115.163l.009.011c.034.049.07.1.1.146l.087.118c.036.051.074.1.114.152s.076.1.115.152.072.094.108.141.09.115.136.172.076.1.115.143.069.086.1.128c.013.017.027.032.041.049.041.051.083.1.125.149a.054.054,0,0,0,.01.01l.148.173q.325.373.666.729c.122.127.246.253.371.375.059.059.118.117.178.174-.163-.193-.323-.389-.481-.588l-.088-.114c-.041-.052-.082-.105-.122-.159-.062-.082-.122-.163-.183-.245l-.1-.134-.006-.008c-.043-.06-.087-.119-.129-.18-.031-.042-.06-.086-.09-.129s-.044-.063-.065-.094l-.1-.149-.1-.152-.033-.051c-.038-.058-.076-.118-.114-.177s-.08-.125-.118-.187l-.122-.2c-.04-.065-.079-.129-.117-.194-.077-.129-.153-.262-.228-.394-.029-.053-.059-.105-.088-.157s-.066-.119-.1-.181c-.055-.1-.11-.205-.163-.309l-.072-.139c-.028-.055-.056-.111-.083-.166-.018-.035-.035-.072-.052-.107-.028-.058-.056-.115-.084-.174s-.049-.1-.072-.152c-.039-.083-.078-.167-.114-.25-.028-.062-.056-.124-.083-.187-.121-.28-.238-.561-.347-.846-.013-.032-.024-.065-.037-.1-.027-.07-.052-.141-.079-.211s-.041-.114-.061-.17c-.013-.038-.027-.074-.039-.111l-.042-.124c-.055-.16-.107-.32-.158-.482-.02-.062-.038-.124-.057-.186s-.033-.11-.049-.164c-.021-.072-.042-.143-.062-.215-.015-.053-.029-.107-.045-.16-.009-.034-.018-.068-.027-.1-.017-.062-.032-.124-.047-.187s-.035-.141-.052-.209c0-.007,0-.014-.006-.022-.018-.073-.035-.146-.052-.219s-.034-.146-.049-.219a.013.013,0,0,0,0-.01c-.017-.074-.032-.15-.048-.225s-.027-.129-.039-.193c-.018-.091-.035-.183-.052-.274-.014-.075-.027-.148-.04-.222s-.023-.146-.035-.218a.063.063,0,0,0,0-.017c-.008-.055-.017-.108-.025-.163-.014-.1-.029-.2-.042-.3-.01-.073-.02-.146-.028-.221-.006-.042-.01-.083-.014-.125s-.011-.1-.017-.148a.09.09,0,0,0,0-.02c-.015-.141-.03-.281-.041-.422-.014-.164-.027-.329-.037-.495s-.017-.311-.024-.467V357.6c-.006-.157-.01-.316-.013-.474s0-.318,0-.477,0-.329.01-.493a20.144,20.144,0,0,1,34.119-13.849c-.067-.079-.135-.157-.2-.236s-.138-.156-.207-.233-.139-.155-.211-.229c-.04-.042-.079-.084-.12-.126s-.08-.086-.122-.128l-.011-.013c-.068-.07-.135-.139-.2-.207-.021-.021-.041-.042-.062-.062-.058-.059-.117-.115-.176-.173l-.027-.025c-.06-.059-.121-.118-.183-.176l-.094-.089c-.051-.049-.1-.1-.155-.143l-.062-.056-.159-.143-.1-.09c-.048-.042-.1-.084-.143-.125-.027-.024-.055-.048-.083-.07l-.173-.146c-.018-.015-.036-.031-.056-.045l-.181-.149c-.03-.025-.061-.049-.091-.073-.048-.039-.1-.079-.146-.115s-.079-.062-.118-.091-.086-.066-.128-.1-.089-.067-.135-.1l-.109-.082-.144-.1-.187-.133-.257-.179-.084-.058c-.17-.114-.343-.226-.516-.336l-.09-.056q-.293-.183-.595-.356l-.1-.059c-.141-.08-.284-.159-.428-.235l-.143-.076c-.1-.051-.193-.1-.29-.149s-.194-.1-.292-.145l-.143-.069c-.1-.046-.2-.094-.3-.139l-.3-.133-.15-.065-.152-.063c-.053-.022-.107-.045-.161-.066l-.3-.117a20.286,20.286,0,0,1,8.724,6.49c-.166-.17-.333-.339-.5-.5a20.083,20.083,0,0,1,4.481,9.555,20.49,20.49,0,0,1,.268,4.024,20.094,20.094,0,0,1-19.626,19.584q-.565.013-1.139-.006a20.09,20.09,0,0,1-13.337-5.636q.426.5.884.977a20.307,20.307,0,0,1-3.179-3.328Z" transform="translate(-1805.678 -328.717)" fill="#f4ad00"/>
          <path id="Pfad_9498" data-name="Pfad 9498" d="M1831.753,332.11a48.5,48.5,0,0,1-1.855,7.052l-.144.049c-.048.017-.1.032-.142.051s-.1.034-.142.052c-.1.035-.2.072-.294.11l-.129.051-.141.055-.118.048q-.187.076-.375.156l-.194.084c-.142.062-.284.126-.423.193-.042.02-.086.039-.128.06-.091.044-.181.087-.271.132-.045.022-.09.044-.133.067l-.181.093-.208.11s-.005,0-.009,0l-.207.112c-.063.034-.125.069-.187.1l-.169.1c-.031.017-.06.034-.09.052l-.129.076-.128.076c-.174.105-.349.212-.52.323l-.1.063c-.055.035-.11.072-.163.108s-.121.08-.18.121l-.164.112c-.163.114-.325.229-.484.347l-.144.107c-.06.045-.122.093-.183.139s-.1.08-.155.121l-.109.087c-.053.044-.108.086-.16.129s-.1.08-.146.121l-.162.135-.077.066c-.086.073-.172.148-.256.222l-.105.094q-.232.207-.456.422l-.089.084-.107.1c-.029.028-.057.056-.086.086s-.071.07-.107.107l-.122.124-.014.014-.084.089c-.142.148-.281.3-.419.447l-.066.073-.125.141-.16.184c-.044.049-.086.1-.128.15l-.129.156c-.023.025-.042.051-.063.077-.01.011-.018.022-.026.034l-.118.146c-.051.063-.1.127-.15.191-.086.11-.172.222-.254.333l-.089.119c-.131.178-.26.358-.385.541-.044.063-.087.128-.13.191s-.09.135-.135.2-.089.136-.132.205-.087.138-.129.207a.075.075,0,0,1-.007.011l-.118.193c-.044.072-.086.143-.128.215-.072.122-.141.245-.209.368l-.038.067c-.077.141-.153.281-.228.424-.038.073-.076.145-.113.219s-.074.146-.109.221h0c-.031.062-.06.124-.09.184q-.063.131-.122.261-.053.112-.1.224c-.037.083-.073.164-.108.249-.027.06-.052.121-.077.183-.007.018-.015.037-.024.056-.021.049-.041.1-.061.149l-.034.083c-.058.142-.112.284-.166.429-.03.077-.058.155-.086.233-.023.062-.044.124-.066.186-.01.027-.02.053-.028.082-.024.067-.046.136-.069.205v0c-.025.079-.05.157-.076.235l-.063.2a20.479,20.479,0,0,1-6.605.368,27.127,27.127,0,0,1,19.157-20.141q1.075-.3,2.183-.51Z" transform="translate(-1809.753 -331.633)" fill="#f4c83d" opacity="0.78"/>
          <path id="Pfad_9499" data-name="Pfad 9499" d="M1891.5,400.835a20.094,20.094,0,0,1-19.626,19.584l-3.621-.95-.994.354a2.108,2.108,0,0,0,.224.223,20.068,20.068,0,0,1-10.085-5.268q.426.5.884.977a20.3,20.3,0,0,1-7.045-12.358.342.342,0,0,0-.006-.037,20.436,20.436,0,0,1,.648-9.148c.021-.067.041-.135.063-.2l.076-.235h0c.023-.069.045-.136.069-.205.01-.027.018-.055.028-.082.021-.062.044-.124.065-.186.028-.077.056-.156.086-.233.054-.143.11-.287.166-.429l.034-.083c.02-.049.039-.1.06-.149.009-.018.016-.037.024-.056.025-.06.052-.122.077-.181.035-.083.072-.166.108-.249s.066-.149.1-.224.082-.174.122-.261c.029-.062.059-.122.09-.184h0l.11-.221c.037-.073.075-.146.113-.219.075-.142.15-.284.228-.424l.038-.067c.069-.124.139-.246.21-.367.042-.072.084-.143.128-.215s.077-.129.118-.194l.007-.011.129-.207.132-.205c.045-.069.09-.136.135-.2s.086-.128.13-.191q.188-.274.385-.541l.089-.12c.083-.112.169-.223.254-.333l.151-.191.118-.146c.008-.011.018-.023.028-.034l.063-.077.129-.156c.042-.051.084-.1.128-.15l.16-.184.125-.142c.021-.025.044-.048.066-.073q.2-.228.417-.447l.084-.089a.132.132,0,0,1,.014-.014l.122-.125.107-.105c.028-.028.058-.056.086-.086s.07-.069.107-.1l.087-.084q.226-.215.455-.422l.106-.094c.084-.074.17-.149.256-.222l.077-.066.162-.135.146-.121.16-.129.11-.087c.051-.041.1-.08.155-.121l.183-.139c.048-.035.094-.072.143-.107q.239-.177.484-.347l.164-.112c.061-.041.12-.082.18-.121l.163-.108.1-.063c.171-.111.344-.218.519-.323l.129-.077.129-.076.09-.052c.056-.032.112-.065.169-.1s.124-.07.187-.1.138-.074.206-.111c0,0,.006,0,.008,0l.208-.11c.06-.031.121-.063.181-.093l.135-.067c.09-.045.18-.09.271-.132l.128-.06c.141-.066.281-.131.423-.193l.194-.084c.124-.053.25-.105.375-.156l.118-.048.141-.055.129-.051c.1-.038.2-.074.3-.11l.142-.052.142-.049.143-.049c.218-.074.438-.145.659-.211l-.19.059c-.126.039-.252.08-.377.122l-.188.065a20.2,20.2,0,0,0-9.888,7.448l-.056.079a20.149,20.149,0,0,0,2,25.462c.18.187.363.371.548.55a20.165,20.165,0,0,1-3.455-5.829c-.011-.031-.023-.06-.034-.091a20.071,20.071,0,0,1-1.289-7.26c0-.164,0-.329.01-.493a20.144,20.144,0,0,1,34.119-13.849,20.154,20.154,0,0,0-8.088-5.764,20.289,20.289,0,0,1,8.724,6.49c-.166-.17-.333-.339-.5-.5a20.083,20.083,0,0,1,4.481,9.555,20.462,20.462,0,0,1,.269,4.024Z" transform="translate(-1844.615 -373.454)" fill="#f4c83d" opacity="0.02"/>
          <path id="Pfad_9500" data-name="Pfad 9500" d="M1913.74,628.117a20.233,20.233,0,0,1-2.579.25c-.441.016-.887.016-1.334,0a20.394,20.394,0,0,1-3.04-.326,20.167,20.167,0,0,1-9.272-4.355q-.46-.474-.884-.977a20.069,20.069,0,0,0,10.085,5.268,20.443,20.443,0,0,0,3.253.368q.571.019,1.139.006a20.129,20.129,0,0,0,2.635-.235Z" transform="translate(-1883.846 -581.387)" fill="#d39333" opacity="0.19"/>
          <path id="Pfad_9501" data-name="Pfad 9501" d="M1887.376,381.838a20.144,20.144,0,0,0-29.353,27.521,20.149,20.149,0,0,1,8.344-33.841c.08-.022.159-.046.239-.067a20.378,20.378,0,0,1,11.808.308l.194.066.125.044c.083.028.166.058.247.089A20.16,20.16,0,0,1,1887.376,381.838Z" transform="translate(-1845.372 -368.257)" fill="#d39333" opacity="0.19"/>
          <path id="Pfad_9502" data-name="Pfad 9502" d="M2109.921,436.465a20.055,20.055,0,0,0-4.481-9.555c.172.164.339.333.5.5A20.181,20.181,0,0,1,2109.921,436.465Z" transform="translate(-2063.306 -413.108)" fill="#d39333" opacity="0.19"/>
          <path id="Pfad_9503" data-name="Pfad 9503" d="M1886.737,381.8a20.144,20.144,0,0,0-34.12,13.849,20.78,20.78,0,0,0,4.861,13.921,19.287,19.287,0,0,1-6.346-15.246,20.435,20.435,0,0,1,14.6-18.845c.08-.022.159-.046.239-.068a20.253,20.253,0,0,1,11.808.308l.194.066.125.044.247.089a20.16,20.16,0,0,1,8.4,5.881Z" transform="translate(-1844.734 -368.215)" fill="#cc820a"/>
          <path id="Pfad_9504" data-name="Pfad 9504" d="M1932.121,442.057a20.126,20.126,0,0,1-20.783,19.486q-.723-.023-1.434-.1a20.064,20.064,0,0,1-12.4-6.036q-.459-.474-.884-.977a20.067,20.067,0,0,0,10.085,5.268,20.421,20.421,0,0,0,3.252.368q.571.019,1.139.006a20.14,20.14,0,0,0,14.877-33.165c.172.165.339.333.5.5A20.079,20.079,0,0,1,1932.121,442.057Z" transform="translate(-1883.837 -413.108)" fill="#f4c83d"/>
        </g>
      </g>
    </g>
    <g id="Gruppe_3008" data-name="Gruppe 3008" transform="translate(7.917 6.927)">
      <g id="Gruppe_3006" data-name="Gruppe 3006" transform="translate(0 0)">
        <circle id="Ellipse_81" data-name="Ellipse 81" cx="14.232" cy="14.232" r="14.232" transform="translate(1.205 21.011) rotate(-45)" fill="none" stroke="#cc820a" stroke-miterlimit="10" stroke-width="12.04"/>
        <circle id="Ellipse_82" data-name="Ellipse 82" cx="14.232" cy="14.232" r="14.232" transform="translate(0 20.127) rotate(-45)" fill="none" stroke="#fcbe32" stroke-miterlimit="10" stroke-width="16.91"/>
      </g>
      <g id="Gruppe_3007" data-name="Gruppe 3007" transform="translate(10.666 6.503)">
        <path id="Pfad_9505" data-name="Pfad 9505" d="M1936.767,450.325h-.12c-3.723-.081-5.181-2.115-6.336-4.583-.227-.484-.8-2.461-1.071-3-.6-1.2.484-1.706,1.684-2.309a2.433,2.433,0,0,1,3.267,1.081c.3.6.339,1.489.568,1.979,1.068,2.285,1.373,1.957,2,1.969,0,0,.267-.011,1.058-.6.834-.621,1.911-1.624,3.272-2.893a134.369,134.369,0,0,1,14.707-12.1c1.094-.78,2.242-1.342,3.022-.249s.921,3.141-.107,3.857a119.97,119.97,0,0,0-14.306,12.057C1941.094,448.607,1939.248,450.325,1936.767,450.325Z" transform="translate(-1929.05 -428.338)" fill="#cc820a"/>
        <path id="Pfad_9506" data-name="Pfad 9506" d="M1936.116,445.181H1936c-3.724-.082-4.918-2.635-6.073-5.105-.226-.484-.459-.984-.731-1.524a2.433,2.433,0,1,1,4.347-2.186c.3.6.563,1.157.792,1.647,1.068,2.285,1.148,2.288,1.772,2.3,0,0,.267-.011,1.058-.6.834-.621,1.911-1.623,3.272-2.893a134.417,134.417,0,0,1,14.707-12.1,2.433,2.433,0,0,1,2.824,3.962,130.266,130.266,0,0,0-14.215,11.7c-3.308,3.08-5.153,4.8-7.634,4.8Z" transform="translate(-1928.934 -424.266)" fill="#fcbe32"/>
      </g>
    </g>
  </g>
  <g id="Gruppe_3014" data-name="Gruppe 3014" transform="translate(71.35 77.5)">
    <path id="Pfad_9507" data-name="Pfad 9507" d="M711.812,889.92c-1.808-.249-3.739-1.9-3.552-1.029s.873,1.465.312,1.278-3.864-1.744-3.365.187.374,4.737,2.43,3.677,3.3-1.309,4.612-1.06-.436-3.054-.436-3.054Z" transform="translate(-671.225 -822.259)" fill="#efaea6"/>
    <g id="Gruppe_3012" data-name="Gruppe 3012" transform="translate(39.759 48.729)">
      <path id="Pfad_9508" data-name="Pfad 9508" d="M1092.81,813.634s2.071,1.645,2.447,1.344a5.336,5.336,0,0,0,1.379-2.33,1.6,1.6,0,0,1,.628-.815,10.1,10.1,0,0,1,1.556-.842c.574-.285.971-.554.738-.93-.329-.53-1.49-.571.146-3.03.311-.468-.912-.748-1.9-.541-.08.017-.157.037-.233.059a2.616,2.616,0,0,0-1.306,1.168,5.879,5.879,0,0,0-.748,1.773c-.173.864-.721,1.262-1.4,2.091A13.047,13.047,0,0,0,1092.81,813.634Z" transform="translate(-1044.15 -800.324)" fill="#efaea6"/>
      <path id="Pfad_9509" data-name="Pfad 9509" d="M958.079,795.087l-2.981-.833c-.028-1.361,1.427-4.217,1.642-5.435a5.3,5.3,0,0,1,1.885-2.568l1,2.8-.063.236a10.425,10.425,0,0,0,.184,3.414,7.184,7.184,0,0,0,.745,2.451c.488.7-2.415-.069-2.415-.069Z" transform="translate(-925.793 -782.99)" fill="#efaea6"/>
      <path id="Pfad_9510" data-name="Pfad 9510" d="M972.369,806.673a10.776,10.776,0,0,0,.067,2.4c-1.851.845-2.762-2.554-2.3-3.075.292-.326,1.286.208,1.286.208l.942.471Z" transform="translate(-938.619 -799.869)" fill="#1f1f3b" opacity="0.14"/>
      <g id="Gruppe_3010" data-name="Gruppe 3010" transform="translate(28.467)">
        <path id="Pfad_9511" data-name="Pfad 9511" d="M965.247,776.44c1.265,2.293,2.333,2.26,1.56,2.707-.594.344,1.143,1.914.495,2.256-1.572.825-3.7.552-4.294-.153a18.3,18.3,0,0,1-1.557-3.011l3.8-1.8Z" transform="translate(-959.721 -774.559)" fill="#efaea6"/>
        <path id="Pfad_9512" data-name="Pfad 9512" d="M953.245,766.787c.533-.181.609-.065.876-.413s-.586-.562.018-.994,1.306-.821,1-1.642c-.446-1.186-1.326-.544-1.86-.124-.343.27-.856-.557-1.605-.149-.588.319-.342.654-.853.963-.309.187-1.209-.066-1.518.585-.576,1.208.651,1.76.257,2.942-.46,1.379,2.607,2.371,2.735,2.011.149-.42-.737-1.193-.558-1.56.27-.554.509-.193,1.046-.01.572.2,1.3-.128.486-.645s-.5-.8-.022-.963Z" transform="translate(-949.145 -763.059)" fill="#1f1f3b"/>
      </g>
      <path id="Pfad_9513" data-name="Pfad 9513" d="M1010.774,1351.994c.134-1.324.034-4.676.034-4.676l-3.657-.128.2,5.035,2.418,1.6,1.009-1.832Z" transform="translate(-970.53 -1265.086)" fill="#fff"/>
      <path id="Pfad_9514" data-name="Pfad 9514" d="M1009.413,1372.693c.308-.236,1,.592,1.137,1.147.325,1.272,4.405,1.434,5.132,1.549a1.091,1.091,0,0,1-.887,1.922c-1.615-.007-6.786-.011-8.553-.03a.808.808,0,0,1-.781-.589c-.318-1.228-.357-4.111.136-4.152.665.149,2.641,1.051,3.818.152Z" transform="translate(-968.874 -1286.872)" fill="#1f1f3b"/>
      <path id="Pfad_9515" data-name="Pfad 9515" d="M910.984,1352.024c.142-1.323.062-4.676.062-4.676l-3.656-.148.167,5.036,2.408,1.614,1.019-1.827Z" transform="translate(-884.792 -1265.094)" fill="#fff"/>
      <path id="Pfad_9516" data-name="Pfad 9516" d="M909.177,1369.249c.394.025.322.394.458.95.312,1.275,4.956,2.1,5.683,2.222a1.092,1.092,0,0,1-.905,1.915c-1.615-.021-6.786-.069-8.553-.1a.806.806,0,0,1-.776-.6c-.306-1.231-.422-4.612.072-4.648.663.155,2.228.143,4.02.259Z" transform="translate(-882.583 -1283.821)" fill="#1f1f3b"/>
      <path id="Pfad_9517" data-name="Pfad 9517" d="M895.038,994.263c.046.6.108,1.249.193,1.964a160.866,160.866,0,0,1,.817,17.425c-.162,5.7.343,19.04.343,21.082,1.732.759,2.8.523,5.278,0,0,0,.44-11.006.928-20.641.4-7.824.51-7.039,1.947-17h0c.017.048.367,1.018.877,2.512a132.457,132.457,0,0,1,3.788,12.788c1.362,6.29.651,22.686,1.221,23.251,1.7,1,4.574,1.1,5.341-.293,0,0,.326-20.275-.278-23.452-.409-2.159-3.868-23.32-4.64-29,0,0-15.232-3.322-15.7,1.882a18.628,18.628,0,0,0-.075,1.94c.013.808-.032,1.556-.076,2.378a36.262,36.262,0,0,0,.034,5.17Z" transform="translate(-874.08 -951.097)" fill="#3b3b4d"/>
      <path id="Pfad_9518" data-name="Pfad 9518" d="M953.8,1069.83a.021.021,0,0,0,0,.008.311.311,0,0,0,.042-.028.273.273,0,0,0-.045.021Z" transform="translate(-924.678 -1026.694)" fill="#1f1f3b" opacity="0.46"/>
      <path id="Pfad_9519" data-name="Pfad 9519" d="M963.332,1074.425h0c.017.048.686,1.933,1.2,3.426l-.6-6.02a13.423,13.423,0,0,1-.6,2.595Z" transform="translate(-932.869 -1028.43)" fill="#1f1f3b" opacity="0.54"/>
      <path id="Pfad_9520" data-name="Pfad 9520" d="M894.934,1033.24c.126-.028,6-1.279,6.79-4.22,0,0-5.1.439-6.737.613-.072,1.341-.105,2.847-.055,3.607Z" transform="translate(-874.064 -991.637)" fill="#1f1f3b" opacity="0.35"/>
      <path id="Pfad_9521" data-name="Pfad 9521" d="M912.251,823.947c1.32-.358,1.448,1.822,2.779,1.927.7.056.547-.25.878-.573.2-.2.4-.423.718-.091,6.566,6.737-.271,23.722.565,24.907.683.97-4.873,3.085-8.362,2.233-4.786-1.167-4.495-6.364-4.356-7.357s3.221-17.864,3.221-17.864a26.2,26.2,0,0,0,4.557-3.182Z" transform="translate(-882.234 -815.354)" fill="#fff"/>
      <path id="Pfad_9522" data-name="Pfad 9522" d="M1000.014,833.606c-.653.662-4.343,9.755-6.057,9.214-2.448-.773-4.316-8.07-9.63-9.639a17.526,17.526,0,0,0,.218,4.068c.5,3.885-1.685,6.65-1.241,11.351.573,6.081-.923,12.292.573,13.662.873.8,2.082.953,3.542-.564,2.3-2.385.787-10.214.578-12.074-.082-.724-.261-1.7-.415-2.71-.19-1.256-.554-2.752.079-3.21.181-.132,3.9,4.369,6.869,4.314,2.21-.041,8.292-11.384,8.448-11.834.441-1.281-2.309-3.24-2.964-2.576Z" transform="translate(-949.936 -823.324)" fill="#00628f"/>
      <path id="Pfad_9523" data-name="Pfad 9523" d="M889,854.451a5.264,5.264,0,0,0,6.717-.592c1.527-1.608-.018-3.69,1.112-7.44a47.584,47.584,0,0,0,1.808-8.4,106.407,106.407,0,0,0-.02-13.827,9.469,9.469,0,0,0-6.054,2.926c-1.148,1.195-1.87,4.653-1.992,7.18-.039.829-.062,1.5-.073,2.059-.022,1.151,0,1.868.041,2.655.016.313.031.638.046,1h0c.017.415.034.883.044,1.449a20.808,20.808,0,0,1-.685,4.131h0c-.852,3.688-2.063,8.155-.943,8.857Z" transform="translate(-868.595 -815.598)" fill="#00628f"/>
      <path id="Pfad_9524" data-name="Pfad 9524" d="M771.98,828.839c-11.844,7.63-10.24,7.992-12.2,8.224s-12.832-.292-12.832-.292-.649,4.1-.125,4.425,11.73,1.214,14.285.894c2.814-.353,13.574-8.508,14.628-9.464s1.417-4.974-.507-4.884a6.3,6.3,0,0,0-3.245,1.1Z" transform="translate(-746.615 -818.648)" fill="#00628f"/>
      <g id="Gruppe_3011" data-name="Gruppe 3011" transform="translate(5.164 8.773)">
        <path id="Pfad_9525" data-name="Pfad 9525" d="M915.5,836.944c-.1-.091-1.567,1.9-3.184,2.365a3.585,3.585,0,0,1-1.382.142c-1.368-.149-5.465-1.233-5.465-1.233s1.174-.8,2.11-1.563a13.165,13.165,0,0,0,3.432,1.4,5.227,5.227,0,0,0,1.547-.158,8.624,8.624,0,0,0,2.392-1.057c.325-.2.43-.569.773-.526.455.056-.1.742-.228.624Z" transform="translate(-888.305 -834.791)" fill="#e5af21" opacity="0.18"/>
        <path id="Pfad_9526" data-name="Pfad 9526" d="M811.325,827.143a.571.571,0,0,0-.527-.645c-.343-.044-.394.091-.718.291A7.034,7.034,0,0,1,806.138,828c-1.538-.086-4.658-2.641-6.975-2.526s-3.328,2.007-6.643,1.987-6.558-1.959-7.538-1.954-1.591.119-1.629.5a1.894,1.894,0,0,0,.957,1.462,42.378,42.378,0,0,0,8.043,1.8c2.6.079,5.16-1.851,6.821-1.726s4.949,1.633,6.886,1.846c2.159.235,4.314-1.968,4.439-1.85a.586.586,0,0,0,.527.207c.2-.017.277-.392.3-.609Z" transform="translate(-783.351 -825.473)" fill="#e5af21"/>
      </g>
    </g>
    <g id="Gruppe_3013" data-name="Gruppe 3013" transform="translate(0 0)">
      <path id="Pfad_9527" data-name="Pfad 9527" d="M506.362,488.646a16.852,16.852,0,0,1-3.895,3.947,24.014,24.014,0,0,1-3.663,2.291,27.165,27.165,0,0,1-3.615,1.522q-.677.232-1.4.439c-.229.066-.46.121-.694.166-6.21,1.219-14.267-4.3-20.356-12.431a50.1,50.1,0,0,1-3.936-6.152c-6.426-11.88-5.553-24.868-3.708-29.441,1.214-3.008,4.852-7.077,11.218-10.376q.439-.226.894-.45l1.9,3.285.71,1.228,1.483,2.569,19.972,34.586,2.784,4.821.978,1.7,1.328,2.3Z" transform="translate(-463.752 -435.098)" fill="#a5cee0"/>
      <ellipse id="Ellipse_83" data-name="Ellipse 83" cx="15.998" cy="26.698" rx="15.998" ry="26.698" transform="translate(0.257 13.121) rotate(-24.21)" fill="#0267a4"/>
      <ellipse id="Ellipse_84" data-name="Ellipse 84" cx="15.998" cy="26.698" rx="15.998" ry="26.698" transform="translate(0.257 13.121) rotate(-24.21)" fill="#307ea2" opacity="0.15"/>
      <path id="Pfad_9528" data-name="Pfad 9528" d="M530.332,528.718a15.944,15.944,0,0,1-2.972,5.83c-8.8.131-18.992-8.012-24.681-20.578a45.153,45.153,0,0,1-3.43-11.146h0a97.589,97.589,0,0,1,5.618-16.6,8.683,8.683,0,0,1,1.916-.637c12.3-2.571,30.373,20.689,23.546,43.13Z" transform="translate(-494.26 -475.69)" fill="#fff" opacity="0.72"/>
      <path id="Pfad_9529" data-name="Pfad 9529" d="M550.159,780.237a18.41,18.41,0,0,1-1.484,2.329c-.284-.808-.492-1.4-.609-1.725-6.21,1.219-14.267-4.3-20.356-12.431,7.167,6.044,16.79,10.642,21.6,9.2h0c.744-.224,1.186-.146,1.385.152a.766.766,0,0,1,.118.364A4.375,4.375,0,0,1,550.159,780.237Z" transform="translate(-518.72 -718.929)" fill="#0d0d1e" opacity="0.26"/>
      <path id="Pfad_9530" data-name="Pfad 9530" d="M534.319,450.779c-6.834-15.1-20.169-23.811-29.783-19.459-.305.139-.6.288-.894.45-6.592,3.65-9.333,13.034-7.572,23.622h0a45.185,45.185,0,0,0,3.43,11.148c5.154,11.387,14.008,19.143,22.173,20.4q.7.11,1.384.152c.377.024.752.032,1.123.027a12.758,12.758,0,0,0,5.1-1.119c.173-.079.344-.16.512-.246,9.181-4.674,11.236-20.146,4.525-34.972Zm-3,1.358a38.672,38.672,0,0,1,1.437,3.649c2.905,8.637,2.29,17.078-1.375,22.023a10.784,10.784,0,0,1-4.231,3.476c-7.958,3.6-19-3.61-24.651-16.1-4.839-10.692-4.172-21.788,1.1-27.028a10.473,10.473,0,0,1,3.064-2.122c.156-.072.316-.138.474-.2,6.057-2.384,13.749,1.251,19.514,8.575a37.466,37.466,0,0,1,4.664,7.729Z" transform="translate(-491.079 -428.257)" fill="#0267a4"/>
      <path id="Pfad_9531" data-name="Pfad 9531" d="M534.319,450.779c-6.834-15.1-20.169-23.811-29.783-19.459-.305.139-.6.288-.894.45-6.592,3.65-9.333,13.034-7.572,23.622h0a45.185,45.185,0,0,0,3.43,11.148c5.154,11.387,14.008,19.143,22.173,20.4q.7.11,1.384.152c.377.024.752.032,1.123.027a12.758,12.758,0,0,0,5.1-1.119c.173-.079.344-.16.512-.246,9.181-4.674,11.236-20.146,4.525-34.972Zm-3,1.358a38.672,38.672,0,0,1,1.437,3.649c2.905,8.637,2.29,17.078-1.375,22.023a10.784,10.784,0,0,1-4.231,3.476c-7.958,3.6-19-3.61-24.651-16.1-4.839-10.692-4.172-21.788,1.1-27.028a10.473,10.473,0,0,1,3.064-2.122c.156-.072.316-.138.474-.2,6.057-2.384,13.749,1.251,19.514,8.575a37.466,37.466,0,0,1,4.664,7.729Z" transform="translate(-491.079 -428.257)" fill="#74a1bb" opacity="0.24"/>
      <path id="Pfad_9532" data-name="Pfad 9532" d="M671.508,838.459c0,.008.007.018.011.029.021.051.051.131.09.24.118.328.325.916.61,1.725,3.468,9.888,20.212,66.779,24.24,73.4.017.025.032.052.048.076.032.051.063.1.093.141s.055.079.082.112.031.041.046.059c1.982,2.419,3.678,2.177,4.778,1.1a4.432,4.432,0,0,0,1.268-3.794c-.812-2.664-24.13-71.484-25.454-74.945-.022-.055-.038-.1-.048-.124-.316-.846-1.618-.855-2.909-.465A6.7,6.7,0,0,0,672.2,837.1C671.645,837.537,671.335,838.027,671.508,838.459Z" transform="translate(-642.265 -776.816)" fill="#a5cee0"/>
      <path id="Pfad_9533" data-name="Pfad 9533" d="M671.508,846.6c0,.008.007.018.011.029.021.051.051.131.09.24.118.328.325.917.61,1.725,3.468,9.888,20.212,66.779,24.24,73.4.017.025.032.052.048.076.032.051.063.1.093.141s.055.079.082.113.031.041.046.059c1.982,2.419,3.678,2.177,4.778,1.1-7.226-8.03-26-69.013-29.306-78.243C671.645,845.68,671.335,846.171,671.508,846.6Z" transform="translate(-642.265 -784.96)" fill="#0d0d1e" opacity="0.2"/>
    </g>
    <path id="Pfad_9534" data-name="Pfad 9534" d="M719.759,886.815c-1-.623-1.621-.686-1.964-.187-.28.406,2.4,1.839,2.586,1.869s-.623-1.682-.623-1.682Z" transform="translate(-682.069 -820.244)" fill="#efaea6"/>
  </g>
  <path id="Pfad_9535" data-name="Pfad 9535" d="M2154.61,639.816c-3.965-.627-4.533-2.429-5.268-8.016-.514,5.3-1.169,7.31-5.2,7.915,3.517,1.511,4.753,2.061,5.38,8.186C2150.386,641.7,2151.159,641.149,2154.61,639.816Z" transform="translate(-1820.254 -534.731)" fill="#f7e7bc"/>
  <path id="Pfad_9536" data-name="Pfad 9536" d="M1878.363,373.181c-2.623-.415-3-1.607-3.483-5.3-.34,3.506-.773,4.834-3.439,5.233,2.326,1,3.143,1.362,3.558,5.413.573-4.1,1.084-4.466,3.365-5.347Z" transform="translate(-1588.919 -311.485)" fill="#fff"/>
  <rect id="Rechteck_1479" data-name="Rechteck 1479" width="444" height="238.98" fill="none"/>
</svg>
