<svg xmlns="http://www.w3.org/2000/svg" width="210.489" height="132" viewBox="0 0 210.489 132">
  <g id="img-quit-job" transform="translate(-373.606 -339.27)">
    <g id="Gruppe_2158" data-name="Gruppe 2158" transform="translate(373.606 398.601)">
      <path id="Pfad_1990" data-name="Pfad 1990" d="M450.884,1215.463a3.575,3.575,0,0,1-1.141,2.147s-.715.995-.378,1.608,3.135,1.323,3.073-.182a4.913,4.913,0,0,1,1.279-2.958l-1.71-1.447-1.122.832Z" transform="translate(-442.268 -1192.917)" fill="#efaea6"/>
      <g id="Gruppe_2157" data-name="Gruppe 2157" transform="translate(0 25.455)">
        <path id="Pfad_1991" data-name="Pfad 1991" d="M445.254,1255.191l-2.612-.062c-.4-.009-.74.446-.754,1.017l-.038,1.584a.014.014,0,0,0,.014.014l.486.011a.014.014,0,0,0,.014-.014l.027-1.117c.01-.427.262-.768.564-.76l1.953.046c.3.007.537.359.527.786l-.027,1.117a.014.014,0,0,0,.014.014l.486.011a.014.014,0,0,0,.014-.014l.038-1.584c.014-.572-.3-1.042-.7-1.052Z" transform="translate(-435.531 -1255.12)" fill="#201b2c"/>
        <path id="Pfad_1992" data-name="Pfad 1992" d="M442.661,1255.042c-.4-.009-.741.446-.754,1.017l-.037,1.584a.014.014,0,0,0,.014.014l.486.012a.014.014,0,0,0,.014-.014l.027-1.117c.01-.427.263-.768.564-.761h0l.227-.7a.015.015,0,0,0-.013-.018l-.527-.019Z" transform="translate(-435.549 -1255.04)" fill="#201b2c"/>
        <g id="Gruppe_2156" data-name="Gruppe 2156" transform="translate(0 1.482)">
          <path id="Pfad_1993" data-name="Pfad 1993" d="M373.822,1272.682l-.216,7.353a.8.8,0,0,0,.781.828h.01l13.123.554c1.482.043,1.5-1,1.515-1.439l.411-6.942a1.758,1.758,0,0,0-1.666-1.62l-11.681-.35-.438-.014A1.716,1.716,0,0,0,373.822,1272.682Z" transform="translate(-373.606 -1271.049)" fill="#603a3e"/>
          <path id="Pfad_1994" data-name="Pfad 1994" d="M373.822,1272.673l-.216,7.353a.8.8,0,0,0,.781.828h0a.016.016,0,0,0,.014-.009,5.78,5.78,0,0,0,.238-2.2,21.817,21.817,0,0,1,1.455-7.574.014.014,0,0,0-.013-.018l-.419-.013a1.716,1.716,0,0,0-1.839,1.631Z" transform="translate(-373.606 -1271.041)" fill="#775155"/>
        </g>
      </g>
      <path id="Pfad_1995" data-name="Pfad 1995" d="M464.281,992.042c-2.525,6.237-4.611,11.68-4.611,11.68s2.63,1.7,3.059,1.291,10.028-24.857,10.028-24.857-3.419-.6-8.476,11.887Z" transform="translate(-451.701 -980.151)" fill="#00628f"/>
      <path id="Pfad_1996" data-name="Pfad 1996" d="M455.914,1250.766s.593-.819.056-1.441-1.938-.075-1.938-.075l-.242,1.072.97.622,1.156-.18Z" transform="translate(-446.365 -1224.13)" fill="#efaea6"/>
    </g>
    <path id="Pfad_1997" data-name="Pfad 1997" d="M1703.6,1743.879c0,.561-22.707,1.213-48.871,1.213s-47.374-.455-47.374-1.016,21.21-1.016,47.374-1.016,48.871.258,48.871.819Z" transform="translate(-1119.5 -1273.822)" fill="#32323f" opacity="0.12"/>
    <g id="Gruppe_2167" data-name="Gruppe 2167" transform="translate(379.546 388.686)">
      <path id="Pfad_1998" data-name="Pfad 1998" d="M1072.963,1744.006c0,.539-12.291,1.164-26.452,1.164s-25.641-.436-25.641-.975,11.479-.975,25.641-.975S1072.963,1743.468,1072.963,1744.006Z" transform="translate(-966.873 -1662.653)" fill="#32323f" opacity="0.12"/>
      <g id="Gruppe_2166" data-name="Gruppe 2166" transform="translate(0 0)">
        <path id="Pfad_1999" data-name="Pfad 1999" d="M928.02,1156.078c-.719.251-.7.951-1.5,1.2a7.886,7.886,0,0,0-3.31,1.7,1.94,1.94,0,0,1-3.285-.749c-.273-.966,2.432-1.895,2.851-2.255.334-.287-.48-.5-.247-1.133s1.234.625,2.339.262a9.081,9.081,0,0,1,2.692-.3c.441.008.464,1.281.464,1.281Z" transform="translate(-875.254 -1128.59)" fill="#efaea6"/>
        <path id="Pfad_2000" data-name="Pfad 2000" d="M1233.368,1288.058a.056.056,0,0,0,0,.007.307.307,0,0,1-.036-.026A.3.3,0,0,1,1233.368,1288.058Z" transform="translate(-1159.659 -1249.623)" fill="#1f1f3b" opacity="0.46"/>
        <g id="Gruppe_2160" data-name="Gruppe 2160" transform="translate(63.954 28.023)">
          <path id="Pfad_2001" data-name="Pfad 2001" d="M1193.187,1674.891c-.1-1.184.015-4.181.015-4.181l3.16-.081-.218,4.5-2.1,1.409-.854-1.647Z" transform="translate(-1187.149 -1624.808)" fill="#fff"/>
          <path id="Pfad_2002" data-name="Pfad 2002" d="M1134.185,1705.14c-.264-.214-.865.52-.993,1.016-.292,1.134-3.818,1.242-4.447,1.338a.977.977,0,0,0,.748,1.726c1.395.008,5.862.052,7.388.052a.7.7,0,0,0,.681-.519c.286-1.1.347-3.672-.079-3.712-.575.127-2.292.915-3.3.1Z" transform="translate(-1128.391 -1656.032)" fill="#1f1f3b"/>
          <g id="Gruppe_2159" data-name="Gruppe 2159" transform="translate(26.549 41.695)">
            <path id="Pfad_2003" data-name="Pfad 2003" d="M1427.307,1631.368c-.832-.849-2.646-3.236-2.646-3.236l2.388-2.071,2.693,3.611-.728,2.424-1.707-.729Z" transform="translate(-1423.775 -1626.06)" fill="#fff"/>
            <path id="Pfad_2004" data-name="Pfad 2004" d="M1417.52,1651.223c-.252.23,0,.448.219.911.5,1.059-2.178,4.137-2.6,4.612a.977.977,0,0,0,1.678.851c1.079-.883,4.547-3.7,5.721-4.674a.7.7,0,0,0,.193-.834c-.479-1.026-2.285-3.451-2.638-3.211-.362.465-1.425,1.3-2.572,2.345Z" transform="translate(-1415.098 -1646.749)" fill="#1f1f3b"/>
          </g>
          <path id="Pfad_2005" data-name="Pfad 2005" d="M1198.612,1186.946c-.045.534-.105,1.116-.184,1.753a139.925,139.925,0,0,0-.116,15.228c.285,2.508,8.316,13.833,8.448,14.186s-3.421,3.477-3.854,2.927-9.166-10.273-10.211-16.274c-.7-4.02-1.171-6.459-2.319-15.377v0c-.015.041-.327.906-.781,2.235-.972,2.839-2.6,7.8-3.392,11.4-1.236,5.611-.777,20.274-1.274,20.774-1.477.879-3.961.94-4.611-.309,0,0-.09-18.128.462-20.961.374-1.926,3.56-20.811,4.281-25.885,0,0,13.187-2.83,13.542,1.825a17.158,17.158,0,0,1,.045,1.734c-.018.722.014,1.392.044,2.126a33.531,33.531,0,0,1-.079,4.621Z" transform="translate(-1175.504 -1175.789)" fill="#3b3b4d"/>
          <path id="Pfad_2006" data-name="Pfad 2006" d="M1278.556,1299.875v0c-.015.041-.611,1.72-1.066,3.049l.573-5.376A12.288,12.288,0,0,0,1278.556,1299.875Z" transform="translate(-1263.683 -1286.275)" fill="#1f1f3b" opacity="0.79"/>
          <path id="Pfad_2007" data-name="Pfad 2007" d="M1325.611,1234.627c-.108-.026-4.783-2.078-5.441-4.713,0,0,3.96-.118,5.369.054C1325.588,1231.168,1325.662,1233.949,1325.611,1234.627Z" transform="translate(-1302.411 -1224.867)" fill="#1f1f3b" opacity="0.35"/>
        </g>
        <path id="Pfad_2008" data-name="Pfad 2008" d="M925.39,1183.12c.069.7,1.82,2.271,2.136,2.18s.541-.817.541-.817Z" transform="translate(-880.234 -1154.418)" fill="#1f1f39" opacity="0.28"/>
        <path id="Pfad_2009" data-name="Pfad 2009" d="M948,1160.846c.063-.278-1.742-1.81-1.637-1.931s.245-.855.091-.9a6.738,6.738,0,0,0-1.294.544s2.057,2.534,2.151,2.546a3.987,3.987,0,0,0,.69-.264Z" transform="translate(-898.174 -1131.641)" fill="#1f1f39" opacity="0.28"/>
        <path id="Pfad_2010" data-name="Pfad 2010" d="M898.4,1143.721c.622.439.415,1.108,1.118,1.567a12.492,12.492,0,0,1,2.716,2.543c1.14,1.39,2.33.607,3.006-.484.528-.854-1.46-1.823-1.765-2.285-.243-.368.6-.345.549-1.021s-1.358.262-2.32-.391a9.108,9.108,0,0,0-2.5-1.032C898.772,1142.5,898.4,1143.721,898.4,1143.721Z" transform="translate(-855.744 -1117.659)" fill="#efaea6"/>
        <g id="Gruppe_2163" data-name="Gruppe 2163" transform="translate(49.541 1.744)">
          <path id="Pfad_2011" data-name="Pfad 2011" d="M1531.837,1052.841c1-.338,1.841-1.611,2.31-1.465.681.213-.553,1.277.638,1.277.443,0,3.045-.182,2.894.681-.165.945-.866,2.182-1.83,2.128a32.455,32.455,0,0,0-4.453-.161c-.953.152-.346-2.194.441-2.46Z" transform="translate(-1479.223 -1036.607)" fill="#efaea6"/>
          <g id="Gruppe_2161" data-name="Gruppe 2161" transform="translate(19.484 3.053)">
            <path id="Pfad_2012" data-name="Pfad 2012" d="M1186.587,932.092l2.18-1.694c-.435-1.135-2.6-3.011-3.186-3.948a4.731,4.731,0,0,0-2.421-1.491l.118,2.659.131.174a9.326,9.326,0,0,1,1,2.889,6.454,6.454,0,0,1,.21,2.281c-.167.745,1.97-.87,1.97-.87Z" transform="translate(-1183.16 -924.96)" fill="#efaea6"/>
            <path id="Pfad_2013" data-name="Pfad 2013" d="M1187.87,953.037a9.615,9.615,0,0,1,.751,2.009c1.813.076,1.916-2,1.355-2.271a12.036,12.036,0,0,0-1.487-.444Z" transform="translate(-1187.434 -949.796)" fill="#1f1f3b" opacity="0.14"/>
          </g>
          <path id="Pfad_2014" data-name="Pfad 2014" d="M1189.139,965.518c-1.182-.057-.856,1.867-1.955,2.215-.581.183-.51-.113-.855-.331-.212-.134-.418-.293-.623.058-4.185,7.136,4.958,20.62,4.491,21.814-.382.977,4.718,1.749,7.487.336,3.8-1.939,2.515-6.412,2.2-7.251s-6.275-14.946-6.275-14.946a22.591,22.591,0,0,1-4.471-1.895Z" transform="translate(-1164.989 -958.708)" fill="#fff"/>
          <path id="Pfad_2015" data-name="Pfad 2015" d="M972.986,1001.693c.719-.194,8.512-2.013,9.566-3.2,1.812-2.046,6.048-8.281,10.912-11.98a16.21,16.21,0,0,1,.628,3.586c.352,3.483,2.745,5.471,3.309,9.653.73,5.41,3.229,10.533,2.241,12.017-.575.864-1.563,1.231-3.095.191-2.41-1.636-2.7-8.75-2.894-10.41-.076-.646-.119-1.531-.191-2.442-.091-1.132-.815-2.713-1.5-2.773-1.063-.093-5.219,4.667-8.34,5.86-3.1,1.186-9.231,3.333-9.756,3.113s-1.6-3.42-.884-3.613Z" transform="translate(-972.747 -977.758)" fill="#00628f"/>
          <path id="Pfad_2016" data-name="Pfad 2016" d="M1233.551,964.776a98.538,98.538,0,0,0,2.74,12.052,43.817,43.817,0,0,0,3.2,6.975c1.7,3.05.814,5.162,2.42,6.269a4.432,4.432,0,0,0,5.773-.779c.8-.828-1.107-4.486-2.56-7.536h0c-.456-.957-.868-1.857-1.134-2.587a6.693,6.693,0,0,1-.266-.882c-.1-.5-.183-.907-.252-1.27h0c-.059-.323-.111-.609-.161-.885-.126-.693-.245-1.323-.495-2.321-.063-.251-.133-.524-.214-.828q-.115-.432-.259-.952c-.606-2.179-1.9-5.053-3.108-5.874a8.054,8.054,0,0,0-5.682-1.383Z" transform="translate(-1209.4 -957.965)" fill="#00628f"/>
          <path id="Pfad_2017" data-name="Pfad 2017" d="M1303.47,1032.51c.028.1,1.647,5.793,3.961,8.192a6.722,6.722,0,0,1-.266-.882c-.1-.5-.183-.907-.252-1.269h0c-.059-.323-.111-.609-.161-.885-.126-.693-.245-1.323-.495-2.321-.063-.251-.133-.524-.214-.828Z" transform="translate(-1272.845 -1019.498)" fill="#1f1f3b" opacity="0.18"/>
          <g id="Gruppe_2162" data-name="Gruppe 2162" transform="translate(17.593)">
            <path id="Pfad_2018" data-name="Pfad 2018" d="M1167.539,917.15c-.1.944-1.156,2.733-.517,2.745s-.207,2,.471,2.033c1.645.09,3.559-.912,3.787-1.7a15.631,15.631,0,0,0,.157-3.016l-3.9-.058Z" transform="translate(-1166.441 -914.821)" fill="#efaea6"/>
            <path id="Pfad_2019" data-name="Pfad 2019" d="M1165.516,895.268c-.52.05-.539.172-.9-.012s.279-.672-.4-.8-1.42-.184-1.475-.963c-.08-1.127.911-.93,1.524-.786.395.093.509-.767,1.3-.712.619.043.54.4,1.092.466.333.038,1-.5,1.508-.085.951.767.127,1.667.915,2.48.919.949-1.292,2.884-1.539,2.639-.288-.286.164-1.239-.129-1.471-.442-.35-.5.031-.887.377-.408.37-1.15.377-.66-.344S1165.987,895.223,1165.516,895.268Z" transform="translate(-1162.74 -891.993)" fill="#191939"/>
          </g>
          <path id="Pfad_2020" data-name="Pfad 2020" d="M1257.729,975.094c5.313,2.534,8.931,6.705,11.569,7.386,1.71.442,7.916.256,10.469.043.635-.053,1.618,3.49.936,3.618-.536.1-9.815.83-12.34.244-1.874-.434-12.74-7.03-13.74-7.785s-1.583-4.193.139-4.24a5.757,5.757,0,0,1,2.964.734Z" transform="translate(-1227.654 -966.731)" fill="#00628f"/>
          <path id="Pfad_2021" data-name="Pfad 2021" d="M1212.394,983.731c.1-.094,1.593,1.872,3.211,2.316a3.556,3.556,0,0,0,1.379.122,50.432,50.432,0,0,0,5.827-1.793,20.856,20.856,0,0,1-2.276-1.586c-1.156.612-2.935,1.94-3.652,1.99a5.147,5.147,0,0,1-1.545-.135,8.635,8.635,0,0,1-2.4-1.02c-.327-.194-.438-.562-.779-.514-.453.063.114.74.237.62Z" transform="translate(-1189.832 -974.382)" fill="#1f1f3b" opacity="0.18"/>
          <path id="Pfad_2022" data-name="Pfad 2022" d="M1208.82,962.783a.54.54,0,0,1,.477-.629c.323-.052.376.073.691.253a6.669,6.669,0,0,0,3.773,1.026c1.454-.13,4.321-2.656,6.518-2.621s3.222,1.8,6.358,1.671,6.144-2.07,7.071-2.1,1.51.062,1.56.422a1.793,1.793,0,0,1-.856,1.418,40,40,0,0,1-7.554,1.969c-2.457.158-4.95-1.591-6.518-1.418s-4.631,1.709-6.457,1.971c-2.036.293-4.152-1.729-4.267-1.613a.556.556,0,0,1-.492.214C1208.937,963.343,1208.848,962.988,1208.82,962.783Z" transform="translate(-1186.955 -954.051)" fill="#f4ad00"/>
        </g>
        <path id="Pfad_2023" data-name="Pfad 2023" d="M662.592,1665c.181-1.27.236-4.505.236-4.505l-3.369-.275-.039,4.86,2.16,1.644,1.011-1.723Z" transform="translate(-638.893 -1587.339)" fill="#fff"/>
        <path id="Pfad_2024" data-name="Pfad 2024" d="M658.014,1709.94c.357-.074.2.26.314.8.264,1.235,4.712,1.4,5.381,1.53a1.055,1.055,0,0,1-.873,1.829c-1.491-.05-6.265-.193-7.9-.257a.751.751,0,0,1-.7-.589c-.258-1.194-.124-3.03.332-3.056.695-.2,1.961.054,3.447-.256Z" transform="translate(-634.07 -1632.445)" fill="#1f1f39"/>
        <g id="Gruppe_2164" data-name="Gruppe 2164" transform="translate(0 68.631)">
          <path id="Pfad_2025" data-name="Pfad 2025" d="M455.195,1619.89c.606-1.13,1.766-4.15,1.766-4.15l-3.069-1.42-1.7,4.551,1.465,2.288,1.54-1.271Z" transform="translate(-450.853 -1614.32)" fill="#fff"/>
          <path id="Pfad_2026" data-name="Pfad 2026" d="M442.539,1658.99c.357.073.08.318-.029.859-.247,1.239,3.771,3.161,4.332,3.547a1.054,1.054,0,0,1-1.526,1.332c-1.348-.639-5.673-2.671-7.143-3.379a.751.751,0,0,1-.413-.821c.235-1.2,1.086-2.831,1.515-2.672.717.093,1.779.83,3.265,1.136Z" transform="translate(-437.746 -1653.814)" fill="#1f1f39"/>
        </g>
        <path id="Pfad_2027" data-name="Pfad 2027" d="M468.039,1149.775c1.9,7.452,2.966,22.441,3,23.318.124,2.832,1.074,20.615.863,21.535-3.357.4-4.689-.048-4.754-.375s-.866-15.686-1.282-18.83c-.563-4.26-4.886-15.291-4.886-15.291.02,6.145.194,14.02-.874,15.92-2.064,4.277-6.778,15.193-6.778,15.193-2.075-.373-4.831-1.539-4.717-1.84s5.7-13.558,5.91-14.952c1.052-7.16-2.417-19.02.049-29.84,1.183-5.191,10.852,3.279,10.852,3.279l2.613,1.883Z" transform="translate(-447.607 -1117.948)" fill="#4b4b5b"/>
        <path id="Pfad_2028" data-name="Pfad 2028" d="M571,1292.152c-.057,1.759.081,3.628.074,5.671l-1.22-9.4A17.629,17.629,0,0,0,571,1292.152Z" transform="translate(-557.617 -1249.967)" fill="#1f1f39" opacity="0.62"/>
        <g id="Gruppe_2165" data-name="Gruppe 2165" transform="translate(18.792)">
          <path id="Pfad_2029" data-name="Pfad 2029" d="M648.217,890.476a15.185,15.185,0,0,0,.484,2.846c-.415.187-.324-.316-.363.763-.057,1.568-.257,2.777-1.924,1.349-.05,1.154-.067,1.561-.067,1.561l-.758,2.1-2.889-.716c.916-1.8.26-7.824,1.549-8.859s3.921.339,3.968.956Z" transform="translate(-642.513 -887.665)" fill="#efaea6"/>
          <path id="Pfad_2030" data-name="Pfad 2030" d="M643.8,878.96c-.711-.619,0-1.811.682-.968.714.007.677-.068.682-.7s.5-.365,1.047-.773,1.18-.632.75-1.375a7.6,7.6,0,0,1-.494-.794c-.167-.369-.186-1.07-.8-.687s-.544.862-1.248.085-1.6-.836-2,.19c-.463,1.186-.8.142-1.357,1.259-1,2,.355,2.036.144,3.207s.116,2.422,1.014,2.436,1.557-1.258,1.583-1.879Z" transform="translate(-640.681 -873.164)" fill="#6d3522"/>
          <path id="Pfad_2031" data-name="Pfad 2031" d="M667.934,951.877c-.454-.624-.729-.576-.884-.453-1.393,1.1-.11,1.457.263,2.311s.554-.628.554-.628l.067-1.232Z" transform="translate(-664.033 -944.108)" fill="#1f1f39" opacity="0.16"/>
        </g>
        <path id="Pfad_2032" data-name="Pfad 2032" d="M517.626,963.828c.776-.081,4.552.493,5.95,1.981a39.6,39.6,0,0,1,3.4,3.52,52.836,52.836,0,0,0,6.537,6.276c1.226,1.059,10.9,4.928,11.636,5.073s-.272,3.959-1.418,3.581-7.683-2.041-12.307-4.624c-2.882-1.61-7.5-6.735-8.186-5.47-1.014,3.362-2.271,5.818-2.854,13.227-4.785,2.373-15.128-1.073-14.77-3.282s5.512-16,6.484-17.355c1.266-1.771,4.754-2.845,5.53-2.925Z" transform="translate(-499.319 -955.426)" fill="#00628f"/>
        <path id="Pfad_2033" data-name="Pfad 2033" d="M665.271,1073.205c-.888,2.946-2.277,6.042-2.72,11.758-.144-.044-.2-.945-.3-1.348-.419-1.65.361-9.381.8-9.859s.819-.633,2.447-.786C665.4,1072.99,665.311,1073.132,665.271,1073.205Z" transform="translate(-641.355 -1054.468)" fill="#1f1f39" opacity="0.28"/>
      </g>
    </g>
    <g id="Gruppe_2171" data-name="Gruppe 2171" transform="translate(538.881 388.317)">
      <g id="Gruppe_2168" data-name="Gruppe 2168" transform="translate(12.902 74.491)">
        <path id="Pfad_2034" data-name="Pfad 2034" d="M2361.861,1677.922c-.115-1.185-.03-4.188-.03-4.188l3.146-.114-.169,4.51-2.079,1.434-.868-1.641Z" transform="translate(-2355.872 -1673.62)" fill="#fff"/>
        <path id="Pfad_2035" data-name="Pfad 2035" d="M2303.506,1708.226c-.265-.211-.856.53-.978,1.028-.279,1.139-3.788,1.284-4.413,1.387a.979.979,0,0,0,.763,1.72c1.388-.006,5.835-.009,7.355-.026a.7.7,0,0,0,.672-.528c.273-1.1.306-3.682-.118-3.718-.572.133-2.272.941-3.283.136Z" transform="translate(-2297.771 -1704.898)" fill="#1f1f3b"/>
      </g>
      <g id="Gruppe_2169" data-name="Gruppe 2169" transform="translate(25.011 74.493)">
        <path id="Pfad_2036" data-name="Pfad 2036" d="M2492.244,1677.961c-.121-1.184-.053-4.188-.053-4.188l3.145-.132-.143,4.51-2.071,1.445-.877-1.636Z" transform="translate(-2486.279 -1673.64)" fill="#fff"/>
        <path id="Pfad_2037" data-name="Pfad 2037" d="M2434.155,1703.491c-.338.023-.277.352-.395.851-.269,1.142-4.262,1.882-4.886,1.991a.979.979,0,0,0,.779,1.714c1.388-.018,5.836-.061,7.355-.091a.7.7,0,0,0,.667-.533c.264-1.1.362-4.131-.062-4.163-.57.138-1.916.129-3.457.231Z" transform="translate(-2428.537 -1700.517)" fill="#1f1f3b"/>
      </g>
      <path id="Pfad_2038" data-name="Pfad 2038" d="M2366.1,1188.144c-.04.536-.093,1.12-.166,1.757a149.869,149.869,0,0,0-.7,15.6c.14,5.106-.295,17.051-.295,18.881-1.489.68-2.411.468-4.539,0,0,0-.378-9.855-.8-18.484-.341-7.006-.439-6.3-1.674-15.224v0c-.015.042-.316.91-.755,2.247-.938,2.854-2.506,7.841-3.258,11.452-1.171,5.633-.56,20.316-1.05,20.823-1.461.9-3.934.983-4.594-.261,0,0-.28-18.158.24-21,.352-1.933,3.326-20.884,3.99-25.974,0,0,13.1-2.974,13.5,1.685a17.255,17.255,0,0,1,.064,1.736c-.01.723.028,1.394.066,2.129a33.82,33.82,0,0,1-.03,4.629Z" transform="translate(-2330.626 -1148.523)" fill="#3b3b4d"/>
      <path id="Pfad_2039" data-name="Pfad 2039" d="M2465.368,1296.568a.024.024,0,0,1,0,.007.266.266,0,0,1-.036-.026A.21.21,0,0,1,2465.368,1296.568Z" transform="translate(-2436.912 -1256.976)" fill="#1f1f3b" opacity="0.46"/>
      <path id="Pfad_2040" data-name="Pfad 2040" d="M2443.209,1301.634v0c-.015.042-.591,1.729-1.029,3.066l.515-5.392a12.4,12.4,0,0,0,.515,2.324Z" transform="translate(-2415.905 -1259.48)" fill="#1f1f3b" opacity="0.54"/>
      <path id="Pfad_2041" data-name="Pfad 2041" d="M2485.15,1244.9c-.108-.025-5.158-1.146-5.84-3.779,0,0,4.389.393,5.793.549.061,1.2.091,2.549.046,3.23Z" transform="translate(-2449.597 -1206.678)" fill="#1f1f3b" opacity="0.35"/>
      <path id="Pfad_2042" data-name="Pfad 2042" d="M2427.728,913.446l2.683-.609c.091-1.215-.878-3.294-1.194-4.5a12.736,12.736,0,0,0-1.7-2.815l-.869,2.462-.325.352s.625,2.113.207,3.049a7.015,7.015,0,0,1-.946,2.012c-.467.6,2.145.048,2.145.048Z" transform="translate(-2400.794 -902.155)" fill="#8b4c30"/>
      <path id="Pfad_2043" data-name="Pfad 2043" d="M2434.11,935.621a5.394,5.394,0,0,1,.319,2.3c1.6.839,2.654-1.7,2.265-2.184-.243-.3-1.537-.551-1.537-.551l-1.047.43Z" transform="translate(-2408.583 -929.077)" fill="#191939" opacity="0.2"/>
      <path id="Pfad_2044" data-name="Pfad 2044" d="M2164.309,891.677c-1.8-1.846-1.4-3.537-2.021-3.407-.645.135-.338,2.469-.593,1.883a2.111,2.111,0,0,0-2.207-1.287c-.96.2-2.181,1.685,1.012,3.243s3.652,2.458,3.652,2.458l.156-2.89Z" transform="translate(-2158.436 -886.496)" fill="#8b4c30"/>
      <path id="Pfad_2045" data-name="Pfad 2045" d="M2406.7,954.177c-1.193-.443-1.751,2.013-2.749,2.015-.606,0-.451-.261-.712-.573-.161-.192-.308-.4-.609-.132-6.111,5.561-1.47,21.193-2.271,22.194-.656.819,3.955,3.09,7.008,2.571,4.185-.712,4.31-5.372,4.262-6.267s-1.479-16.168-1.479-16.168-1.757-1.8-3.448-3.64Z" transform="translate(-2377.101 -946.258)" fill="#fff"/>
      <path id="Pfad_2046" data-name="Pfad 2046" d="M2204.11,921.394c.521.673,5.42,6.938,7.4,7.852,3.054,1.408,7.425-.21,8.591,1.2a6.11,6.11,0,0,1,1.453,4.809c-.216.889-.451,1.745-.581,2.383-.334,1.641-2.281,8.5-.513,10.812,1.124,1.469,2.172,1.429,2.985.786,1.4-1.1.633-6.76,1.632-12.136.772-4.157-.869-6.8-.116-10.221a15.9,15.9,0,0,0,.5-3.844c-6.562,1.935-10.563,2.3-12.522,2.012s-6.4-6-7.144-6.528C2205.218,918.109,2203.863,921.075,2204.11,921.394Z" transform="translate(-2199.854 -913.915)" fill="#00628f"/>
      <path id="Pfad_2047" data-name="Pfad 2047" d="M2471.769,982.352a4.395,4.395,0,0,1-5.715-.99c-1.193-1.541.281-3.293-.419-6.718-.056-.272-.116-.577-.176-.9a41,41,0,0,1-.77-6.721c0-.853.028-1.753.068-2.665.193-4.388.743-9.072.922-10.214a10.973,10.973,0,0,1,5,3.568c.9,1.146,1.27,4.283,1.193,6.547-.026.743-.054,1.339-.084,1.843-.063,1.029-.138,1.668-.226,2.367-.075.593-.158,1.23-.253,2.184-.261,2.634,1.936,10.906.463,11.7Z" transform="translate(-2436.33 -946.273)" fill="#00628f"/>
      <path id="Pfad_2048" data-name="Pfad 2048" d="M2482.856,1022.5c-.6,2.862,3.26,7.139,1.948,9.056-.363-1.951-4.665-3.253-4.659-5.245,0-.853-.888-3.792-.848-4.7Z" transform="translate(-2449.584 -1007.495)" fill="#1f1f3b" opacity="0.15"/>
      <path id="Pfad_2049" data-name="Pfad 2049" d="M2479.31,984.817c5.978,10.134,6.22,11.092,6.1,12.856s-3.979,10.55-3.979,10.55,2.806,1.178,3.163.766,4.728-10.093,4.629-11.133-4.318-14.1-4.954-15.181-3.912-2.539-4.148-.83A11.909,11.909,0,0,1,2479.31,984.817Z" transform="translate(-2449.597 -970.701)" fill="#00628f"/>
      <g id="Gruppe_2170" data-name="Gruppe 2170" transform="translate(23.337 0)">
        <path id="Pfad_2050" data-name="Pfad 2050" d="M2411.566,894.78c-.224,1.045-1.627,2.922-.913,3.011s-.475,2.209.281,2.331c1.833.3,4.1-.6,4.454-1.457a17.565,17.565,0,0,0,.544-3.357Z" transform="translate(-2410.452 -892.409)" fill="#8b4c30"/>
        <path id="Pfad_2051" data-name="Pfad 2051" d="M2423.864,872.809a2.01,2.01,0,0,1-1.767-1.257c-.229-.959.759-2.026,2.115-2.328a4.119,4.119,0,0,1,2.895.789,3.139,3.139,0,0,1,1.1,2.257c.178,1.252-2.089,3.578-2.336,3.274-.288-.355.334-1.368.034-1.662-.452-.445-.569-.025-1.041.317-.5.366-1.335.285-.7-.464S2424.4,872.815,2423.864,872.809Z" transform="translate(-2420.989 -869.179)" fill="#191939"/>
      </g>
    </g>
    <g id="Gruppe_2176" data-name="Gruppe 2176" transform="translate(505.986 389.779)">
      <path id="Pfad_2052" data-name="Pfad 2052" d="M2102.41,1721.12" transform="translate(-2074.703 -1643.693)" fill="#0d1b3e"/>
      <path id="Pfad_2053" data-name="Pfad 2053" d="M2056.8,1240.862c.176,2.127.357,4.349.527,6.532.669,8.579,3.655,16.353,3.6,17.159a3.261,3.261,0,0,1-.952,2.512l-1.27,1.812,2.939.674,2.011-2.232s-1.421-18.544-1.634-20.363a40.006,40.006,0,0,1,.3-5.206c.066-.689.138-1.395.21-2.086.31-2.952.642-5.645.642-5.645a31.718,31.718,0,0,1,.943-4.814c.6-1.1.443-7.552-2.657-6.734-5.1,1.345-5.812,5.07-5.812,5.07s.5,5.529,1.06,12.247l.089,1.075Z" transform="translate(-2032.273 -1191.153)" fill="#efaea6"/>
      <path id="Pfad_2054" data-name="Pfad 2054" d="M2067.514,1681.488a2.768,2.768,0,0,1,1.062,2.961,7.137,7.137,0,0,0-.252,3.178l-.516.048s-.135-2.3-.651-2.679c-.747.479-3.523,3.138-4.229,3.319s-2.611.715-2.889.384a1.528,1.528,0,0,1,.243-1.829,19.541,19.541,0,0,1,2.456-1.856s.106-.03.121.07c.035.227.114.6,1.046.319,1.233-.371,2.807-2.706,3.269-3.829a.218.218,0,0,1,.339-.088Z" transform="translate(-2036.072 -1607.686)" fill="#00628f"/>
      <g id="Gruppe_2172" data-name="Gruppe 2172" transform="translate(4.661 34.431)">
        <path id="Pfad_2055" data-name="Pfad 2055" d="M1913.169,1256.9l-1.656,1.128a.585.585,0,0,0-.155.155c-.516.756-3.509,4.419-4.719,6.2-.008.013-1.489-.463-1.5-.45-.881,1.545-3.985,8.746-4.184,11.48-.255,3.528-1.29,19.192-1.56,20.126s-.847,1.57-2.291,2.35l-.045.021h0a.588.588,0,0,0,.261,1.126l2.75-.121a.579.579,0,0,0,.185-.039l1.558-.6a.586.586,0,0,0,.367-.441s3.983-21.339,4.346-22.82,5.746-11.6,5.746-11.6c.112-.136,2.768,1.515,2.945,1.518.611.008,2.212-.339,3.839-3.763.489-1.029-.821-2.769-1.252-3.3a.589.589,0,0,0-.327-.2l-3.853-.86a.588.588,0,0,0-.459.088Z" transform="translate(-1892.712 -1256.798)" fill="#efaea6"/>
        <path id="Pfad_2056" data-name="Pfad 2056" d="M1861.176,1698.2c-.566,0-2.33.309-3.651.457a6.555,6.555,0,0,1-1.359.06c-.027,0-.051-.008-.073-.013a6.037,6.037,0,0,1-2.512-1.165c-.206-.4.3-1.109,1.127-1.343a8.07,8.07,0,0,1,1.463-.188c.557-.034,1.087-.044,1.324-.046h.13s.1.031.062.119c-.087.2-.215.54.676.79,1.183.332,3.649-.745,4.585-1.41a.2.2,0,0,1,.3.094,2.634,2.634,0,0,1-.655,2.932,6.768,6.768,0,0,0-1.822,2.421l-.438-.224s1.065-1.914.845-2.481Z" transform="translate(-1853.535 -1654.806)" fill="#00628f"/>
      </g>
      <path id="Pfad_2057" data-name="Pfad 2057" d="M1967.053,1187.008c-.462,1.034-6.271.893-9.805-.4-3.159-1.153-7.151,1.113-8.941.08-.855-2.511,4.435-11.631,5.188-21.177,4.1,1.491,10.6-1.813,10.6-1.813s.038.064.105.183a37.315,37.315,0,0,1,2.626,5.617,10.39,10.39,0,0,1,.61,2.674c.126,2.278-1.361,6.746-1.63,9.964-.2,2.415,1.764,3.71,1.245,4.871Z" transform="translate(-1934.785 -1137.89)" fill="#334"/>
      <path id="Pfad_2058" data-name="Pfad 2058" d="M1997.908,977.03l-1.814.982-2.514,9.794s.838,5.993,2.222,8.091c1.8,2.731,7.627-.266,7.38-.893-2.259-5.751-3.075-17.975-3.075-17.975Z" transform="translate(-1975.95 -968.505)" fill="#fff"/>
      <path id="Pfad_2059" data-name="Pfad 2059" d="M2068.852,1171.287c-3.418,1.766-8.2-.609-8.2-.609l4.937-4.431.638-.577a37.3,37.3,0,0,1,2.626,5.617Z" transform="translate(-2036.81 -1139.677)" fill="#070716" opacity="0.28"/>
      <path id="Pfad_2060" data-name="Pfad 2060" d="M2052.138,985.961c.353,2.164.831,9.689.851,10.23s-3.008.992-3.083.118-1-8.348-1.188-9.216c-.269-1.239-3.493-4.539-4.407-3.741-.755.659-1.511,3.916-1.182,6.157a4.089,4.089,0,0,0,.365,1.252c1.014,2,2.1,2.165,1.974,3.235s-5.626,4.769-6.172,4.221-.454-7.732-1.031-9.361c-.514-1.449-1.73-4.066-.823-6.126a52.476,52.476,0,0,0,1.911-6.216c.006-.024.012-.046.019-.068.132-.514.21-.835.21-.835a9.037,9.037,0,0,1,1.429.56,27.858,27.858,0,0,1,3.9,2.385c3.624,2.583,7.015,6.116,7.226,7.4Z" transform="translate(-2015.455 -967.216)" fill="#00628f"/>
      <path id="Pfad_2061" data-name="Pfad 2061" d="M1821.461,994.133c-.631,2,2.149,6.888,2.42,10.588,0,.049.007.1.01.146a5.51,5.51,0,0,1-.154,1.76,2.479,2.479,0,0,1-1.985,1.346c-.491.056-.639-.048-.565-.566.665-4.683-2.7-9.151-2.638-12.807.01-.585.739-1.653.24-1.78-1.43-.366-5.055,2.8-7.052,2.72-2.989-.115-8.6-1.478-8.541-3.155.029-.877.421-2.548.87-2.253.824.543,5.393,2.483,7.73,2,2.05-.423,7.755-6.02,11.836-6.043a4.275,4.275,0,0,0-.22,1.142c-.044.547-.172,1.211-.236,1.967C1822.994,991.361,1822.21,991.761,1821.461,994.133Z" transform="translate(-1803.196 -976.726)" fill="#00628f"/>
      <path id="Pfad_2062" data-name="Pfad 2062" d="M2089.315,1065.386a10.246,10.246,0,0,1-1.3-2.571c-.07-.756,1.041-2.663,2.479-3.585C2089.743,1059.888,2088.987,1063.146,2089.315,1065.386Z" transform="translate(-2061.642 -1043.093)" fill="#070716" opacity="0.17"/>
      <path id="Pfad_2063" data-name="Pfad 2063" d="M2066.5,984.056c-3.352-.039-4.781-.661-5.56-2.043l-.033-.06.052-.008,1.639-.275a27.884,27.884,0,0,1,3.9,2.385Z" transform="translate(-2037.046 -972.715)" fill="#070716" opacity="0.17"/>
      <g id="Gruppe_2173" data-name="Gruppe 2173" transform="translate(18.901)">
        <path id="Pfad_2064" data-name="Pfad 2064" d="M2012.054,915.093c-.024.021-.048.041-.071.062-1.959,1.665-.957,3.788-2.36,3.652-.379-.037-1.038-3.793-.838-4.347a1.884,1.884,0,0,1,.112-.242c.29-.54.864-1.236.552-1.57a.694.694,0,0,0-.505-.189c-.424-.013-.918.172-1.084.1-.49-.218.119-1.131,0-1.45s.042-.226.135-.272c.237-.118.032-.138-.143-.232-.265-.143-.035-.3.03-.543s-.437-.2-.55-.459.288-.284.747-.762c.532-.553.278-.993.475-1.59a1.724,1.724,0,0,1,.067-.169l3.08.956.492,2.017s2.237,2.93-.137,5.04Z" transform="translate(-2007.312 -905.032)" fill="#f5b1b4"/>
        <path id="Pfad_2065" data-name="Pfad 2065" d="M2037.867,898.687c-.951.69-4.4-3.082-7.09-.932-1.065.85-1.886-.335-2.9-.711a1.619,1.619,0,0,0-.516-.107,15.264,15.264,0,0,1-1.635.015h0a3.417,3.417,0,0,1-.44-.092c-.133-.037-.279-.083-.438-.144a10.283,10.283,0,0,1-1.035-.465,3.261,3.261,0,0,1-1.079-.907h0c-.009-.012-.02-.025-.03-.038a11.927,11.927,0,0,1-1.571-4.223.865.865,0,0,1,.17-.812c.263-.252.61-.562.451-.916a.458.458,0,0,0-.74-.138c-.345.507-.688.619-.642-.1a1.457,1.457,0,0,0-.909-1.665,1.037,1.037,0,0,1-.458-.271h0c-.383-.423-.043-1.07.1-1.306.684-1.119,2.146-1.108,3.849-.508,2.411.849,2.713,4.51,3.28,5.008s1.23-.285,2.775.7c1.8,1.153,1.423,2.1,2.056,2.548.554.392,1.706.289,3.035.656,2.269.627,5.264,3.319,3.768,4.407Z" transform="translate(-2017.762 -884.967)" fill="#39394f"/>
      </g>
      <path id="Pfad_2066" data-name="Pfad 2066" d="M2025.87,965.633a2.128,2.128,0,0,1-1.46,1.259c.29-.54.864-1.236.552-1.571a.7.7,0,0,0-.506-.189C2025.739,965.093,2025.873,965.374,2025.87,965.633Z" transform="translate(-2003.926 -957.706)" fill="#070716" opacity="0.17"/>
      <g id="Gruppe_2175" data-name="Gruppe 2175" transform="translate(27.177 29.126)">
        <path id="Pfad_2067" data-name="Pfad 2067" d="M2167.143,1232.13a.785.785,0,0,1,.3-.289.589.589,0,0,1,.225-.065l.542-.041.016,0h0l.066-.005,2.224-.168h.021a.58.58,0,0,1,.312.062h0a1.21,1.21,0,0,1,.574,1.013l.051.673.084,1.084-.565.043-.083-1.089-.013-.156a.907.907,0,0,0-.421-.753h0a.406.406,0,0,0-.061-.026h0a.409.409,0,0,0-.179-.026l-1.981.151h0l-.164.011c-.332.027-.571.427-.534.9l.011.134h0l.082,1.1,0,.007-.564.044-.084-1.112h0l-.049-.652c0-.037,0-.075-.006-.11,0-.057,0-.11.006-.163a1.319,1.319,0,0,1,.185-.564Z" transform="translate(-2160.443 -1228.589)" fill="#201b2c"/>
        <path id="Pfad_2068" data-name="Pfad 2068" d="M2172.96,1199.637a7.177,7.177,0,0,1-.243,1.5c-.2.856-.739,1.877-.3,1.993s.419-.378.63-.489-.26.4.016.8a1.7,1.7,0,0,0,1.87.253c.487-.341.39-.972.383-1.818a9.452,9.452,0,0,1-.14-2.377l-2.219.137Z" transform="translate(-2165.254 -1199.5)" fill="#f5b1b4"/>
        <path id="Pfad_2069" data-name="Pfad 2069" d="M2167.148,1233.835h0a.791.791,0,0,1,.305-.294h0a.6.6,0,0,1,.223-.064l.542-.035h.016l.04,0-.037.181v0l0,.006v0l0,0h0v0l-.06.267v0l-.074.342c-.331.026-.57.429-.536.9l0,.006.01.134h0l.083,1.1-.561.043-.085-1.1h0l-.049-.652c0-.037,0-.075-.006-.11,0-.057,0-.11.007-.163a1.322,1.322,0,0,1,.182-.567Z" transform="translate(-2160.452 -1230.297)" fill="#201b2c"/>
        <g id="Gruppe_2174" data-name="Gruppe 2174" transform="translate(0 4.424)">
          <path id="Pfad_2070" data-name="Pfad 2070" d="M2096.7,1250.2l.57,8.1a.872.872,0,0,0,.931.808l.026,0,14.451-.831c1.629-.115,1.538-1.264,1.5-1.744l-.31-7.658a1.936,1.936,0,0,0-2-1.594l-12.848.9-.482.033a1.893,1.893,0,0,0-1.838,1.99Z" transform="translate(-2096.689 -1247.276)" fill="#603a3e"/>
          <path id="Pfad_2071" data-name="Pfad 2071" d="M2096.7,1259.042l.569,8.1a.872.872,0,0,0,.931.808l.026,0a6.352,6.352,0,0,0,.023-2.447,24.073,24.073,0,0,1,.77-8.484l-.482.033a1.892,1.892,0,0,0-1.838,1.99Z" transform="translate(-2096.698 -1256.118)" fill="#775155"/>
        </g>
      </g>
    </g>
    <g id="Gruppe_2178" data-name="Gruppe 2178" transform="translate(482.341 390.451)">
      <path id="Pfad_2072" data-name="Pfad 2072" d="M1798.478,1385.51a22.058,22.058,0,0,0-.366,9.161c.608,2.722,4.706,19.231,4.416,19.713s-1.419,2.522-1.656,3.036,5.424-1.568,5.4-2.608-.34-.5-.962-2.044a52.256,52.256,0,0,1-1.462-8.251c-.1-1.161.1-12.685-.3-13.961S1798.478,1385.51,1798.478,1385.51Z" transform="translate(-1774.633 -1339.832)" fill="#f5b1b4"/>
      <path id="Pfad_2073" data-name="Pfad 2073" d="M1818.415,1679.019a.357.357,0,0,0-.431.025,2.818,2.818,0,0,0-.882,1.306,2.768,2.768,0,0,1-1.136,1.984c-1.026.8-2.155.776-2.494,1.153s-2.262,1.809-1.59,2.452c.708.542,3.078-.144,3.839-.87a30.182,30.182,0,0,1,2.737-2.506c.239.27.373.165.373.165.594-.576,1.469-1.259,1.524-1.51a2.274,2.274,0,0,0-.775-1.373C1819.289,1679.6,1818.725,1679.224,1818.415,1679.019Z" transform="translate(-1787.306 -1606.107)" fill="#1f1e39"/>
      <path id="Pfad_2074" data-name="Pfad 2074" d="M1672.692,1395.705c-.025.509-.431,3.173-.945,6.375-.155.963-.32,1.975-.487,2.991-.769,4.674-1.594,9.446-1.756,10.04-.315,1.153-1.553,6.756-1.487,8.46s.57,1.3.223,2.308-7.643-.051-7.227-.462,3.228-.92,3.684-1.28c.31-.245,1.094-11.379,1.679-19.387.079-1.075.153-2.094.224-3.022.175-2.339.318-4.106.4-4.757.366-2.835,1.6-2.067,3.949-2.058C1670.952,1394.914,1672.759,1394.339,1672.692,1395.705Z" transform="translate(-1650.519 -1348.256)" fill="#f5b1b4"/>
      <path id="Pfad_2075" data-name="Pfad 2075" d="M1647.351,1716a.378.378,0,0,0-.356-.276,2.923,2.923,0,0,0-1.588.4,2.877,2.877,0,0,1-2.254.748c-1.357-.087-2.28-.614-2.8-.556s-2.784.479-2.694,1.434c.188.9,2.259,1.425,3.356,1.388s3.995-.51,3.952-.382c0,.372.181.382.181.382a10.505,10.505,0,0,0,2.236-.118,2.292,2.292,0,0,0,.328-1.587c-.068-.385-.252-1.064-.355-1.434Z" transform="translate(-1629.336 -1639.469)" fill="#1f1e39"/>
      <path id="Pfad_2076" data-name="Pfad 2076" d="M1806.518,1471.878c-1.6.636-4.025.54-5.216.725-.3-1.253-.36-1.508-.472-2.01-.02-.093-.041-.186-.059-.28l4.277-1.134,1.458,1.606C1806.51,1471.14,1806.515,1471.506,1806.518,1471.878Z" transform="translate(-1777.35 -1415.754)" fill="#1f1f39" opacity="0"/>
      <path id="Pfad_2077" data-name="Pfad 2077" d="M1724.48,1461.847c-.155.963-.281,1.745-.449,2.76-1.453-.591-3.444-.318-4.921-.092.079-1.075.153-2.094.224-3.021l.244-.834Z" transform="translate(-1703.252 -1408.023)" fill="#1f1f39" opacity="0"/>
      <path id="Pfad_2078" data-name="Pfad 2078" d="M1719.514,1197.933c-1.495,1.836-6.191.458-7.94,1.4a7.268,7.268,0,0,1-1.377.487c-2.144.585-5.8,1.137-7.312.745-1.936-.506-3.836-2.469-8.482.059-1.158-4.256,1.744-22.978,3.842-27.887h0a5.747,5.747,0,0,1,.328-.664s5.17-3.047,9.671-.741a8.071,8.071,0,0,1,2.173,1.643c.011.017.022.035.032.052,4.617,7.387.952,15.13,9.067,24.906Z" transform="translate(-1680.592 -1144.705)" fill="#00628f"/>
      <path id="Pfad_2079" data-name="Pfad 2079" d="M1588.157,1001.309c-.15.12-.838-2.859-.568-3.153a35.719,35.719,0,0,1,4.4-1.23c1.29-.437,5.505-1.473,7.366-2.578,1.355-.8,2.325-1.08,6.3-3.476-1.914,2-1.5,5.549-1.332,7.276a10.3,10.3,0,0,0,1.686,4.952c.011.017.022.035.032.052.3.569-1.5.813-3.793.846-3.385.048-7.854-.359-8.3-.856a.537.537,0,0,1-.11-.281c-.225-1.532,2.3-7.377,2.255-8.39-.045-1.094-2.059-1.6-2.228-2.441s1.688-2.713,1.263-2.442a13.131,13.131,0,0,1-7.566,1.985c-1.431-.088-8.485-5.755-8.485-5.755s2.066-2.509,2.877-2.066c.6.328,5.386,4.87,6.492,4.8,1.328-.089,8.28-3.927,10.482-5.051a19.335,19.335,0,0,1,3.1-.223c1.01.084,3.7,2.132,4.413,3.041.788,1.013-.079,5-1.072,8.262-.582,1.912-16.795,6.395-17.216,6.732Z" transform="translate(-1576.188 -974.829)" fill="#e6eff1"/>
      <path id="Pfad_2080" data-name="Pfad 2080" d="M1798.379,939.639c.382,1.758.289,2.669,0,3.163s-.607,1.684-.042,1.663a10.385,10.385,0,0,0,2.526-1.174,3.478,3.478,0,0,0,.958-1.27s-1.288-2.233-2.174-4.1S1798.379,939.639,1798.379,939.639Z" transform="translate(-1774.86 -933.201)" fill="#f5b1b4"/>
      <path id="Pfad_2081" data-name="Pfad 2081" d="M1802.087,958.991c-.012-.232-.039-.491-.082-.78-.014-.1-.135-.768-.155-.877a1.039,1.039,0,0,1,.369-.248c.137-.025.418.006.547-.15.213-.26.63.491.446.932A3.2,3.2,0,0,1,1802.087,958.991Z" transform="translate(-1778.33 -950.895)" fill="#1f1f39" opacity="0.28"/>
      <path id="Pfad_2082" data-name="Pfad 2082" d="M1552.958,971.969c-.255-.306-.221-1.181-.9-1.475-.3-.128-.238.873-.554.793-.778-.2-2.021-1.294-2.517-1.167-1.106.283-1.628,2.606-.493,2.586,1.088-.018,2.474.792,2.676.671S1552.958,971.969,1552.958,971.969Z" transform="translate(-1547.855 -962.898)" fill="#efaea6"/>
      <path id="Pfad_2083" data-name="Pfad 2083" d="M1641.586,1148.5a3.658,3.658,0,0,1-3.915.431c-.956-.625-1.267-2.25-.229-1.787,1.62.722.86-.443,1.242-.483.637-.067,1.726.875,2.058.686.207-.118.844,1.155.844,1.155Z" transform="translate(-1628.56 -1123.093)" fill="#efaea6"/>
      <path id="Pfad_2084" data-name="Pfad 2084" d="M1688.833,1003.152c.239.456-.865.7-2.491.8-.406.024-.844.04-1.3.046-3.385.048-7.854-.359-8.3-.856a.536.536,0,0,1-.11-.281h0a12.526,12.526,0,0,1,.9-3.9c-3.151,1.06-6.348,2.166-6.579,2.351-.15.12-.838-2.859-.568-3.153a35.714,35.714,0,0,1,4.4-1.23c.695-.235,2.239-.644,3.806-1.146a5.3,5.3,0,0,0,.3-1.308c-.045-1.094-2.059-1.6-2.228-2.441s1.7-2.687,1.263-2.442c-1.38.766,1.6-4.967,3.8-6.091a19.327,19.327,0,0,1,3.1-.223c1.01.084,3.654,2.173,4.413,3.041.336.385-.028,2.422-.9,4.623l.11-.067c-.052.054-.1.109-.15.166a18.758,18.758,0,0,1-1.1,2.294,15.1,15.1,0,0,0-.082,4.817,10.305,10.305,0,0,0,1.686,4.952c.011.017.022.035.032.052Z" transform="translate(-1658.977 -974.829)" fill="#fff"/>
      <path id="Pfad_2085" data-name="Pfad 2085" d="M1776.83,1060.958c3.9-2.446,4.435-2.933,4.624-5.3.46,1.951.079,2.5-.138,2.856A24.98,24.98,0,0,1,1776.83,1060.958Z" transform="translate(-1755.627 -1040.526)" fill="#1f1f39" opacity="0.28"/>
      <path id="Pfad_2086" data-name="Pfad 2086" d="M1755.978,1119.816c-.048-.02,8.7-3.243,8.708-3.406.009.378,0,.674.021.907C1764.443,1117.258,1756.135,1119.884,1755.978,1119.816Z" transform="translate(-1736.706 -1095.65)" fill="#1f1f39" opacity="0.28"/>
      <path id="Pfad_2087" data-name="Pfad 2087" d="M1755.418,1021.46a8.209,8.209,0,0,0-2.338,2.792c.588-1.4.88-2.13.88-2.13A6.163,6.163,0,0,1,1755.418,1021.46Z" transform="translate(-1734.076 -1009.493)" fill="#1f1f39" opacity="0.28"/>
      <path id="Pfad_2088" data-name="Pfad 2088" d="M1850.093,1173.951c-1.495,1.836-6.191.458-7.94,1.4a7.276,7.276,0,0,1-1.377.487c-3.217-7.161-3.042-18.127-2.24-25.994.089-.873.185-1.709.286-2.5.157-1.233.325-2.347.487-3.309a10.3,10.3,0,0,0,1.686,4.952c.011.017.022.035.033.052,4.617,7.387.952,15.13,9.066,24.906Z" transform="translate(-1811.171 -1120.722)" fill="#1f1f39" opacity="0.16"/>
      <g id="Gruppe_2177" data-name="Gruppe 2177" transform="translate(21.373 0)">
        <path id="Pfad_2089" data-name="Pfad 2089" d="M1780.054,915.17c-.742,1.393-1.649,1.914-1.139,2.152.386.18-1.083,3.068.516,2.953s3-.665,3.4-2.271.685-2.539.685-2.539Z" transform="translate(-1778.667 -913.045)" fill="#f5b1b4"/>
        <path id="Pfad_2090" data-name="Pfad 2090" d="M1790.075,894.6a6.545,6.545,0,0,0,1.359,1.593.539.539,0,0,0,.73-.017c.153-.216.518-.225.846.01.394.282-.066.736-.3,1.051a.888.888,0,0,0-.015.89c.538.983-.932,3.236,4.842,4.863a15.328,15.328,0,0,0,4.4.5c2.849-.072,5.2-.862,5.359-1.687.118-.6-1.094-1.632-2-2s-1.284.213-1.979-.1c-.794-.357.423-2.2-1.969-2.51s-2.588.231-3.32-.193-1.495-4.713-4.371-4.775a3.748,3.748,0,0,0-3.309,1.319,1.477,1.477,0,0,0-.271,1.054Z" transform="translate(-1788.989 -892.223)" fill="#1f1f39"/>
      </g>
    </g>
    <path id="Pfad_2091" data-name="Pfad 2091" d="M420.789,1745.271c0,.521-10.52,1.126-22.642,1.126s-21.947-.422-21.947-.944,9.826-.944,21.947-.944S420.789,1744.75,420.789,1745.271Z" transform="translate(-2.354 -1275.137)" fill="#32323f" opacity="0.12"/>
    <path id="Pfad_2092" data-name="Pfad 2092" d="M1947.127,558.2c-2.09,0-6.384,3.707-.247,4.3s15.328.32,19.047.333c6.071.02,7.577-.228,7.528-2.709-.028-1.435-.821-4.436-4.021-4.813-3.329-.392-1.156,2.442-5.22,2.554-3.461.1-4.059-3.275-7.44-3.332-4-.067-3.267,3.581-5.584,4.175-2.546.653-1.975-.509-4.064-.509Z" transform="translate(-1424.712 -195.331)" fill="#fff"/>
    <path id="Pfad_2093" data-name="Pfad 2093" d="M1318.906,351.269a41.363,41.363,0,0,0,12.066-1,2.863,2.863,0,0,0,1.693-.846,2.306,2.306,0,0,0-.241-2.844,3.145,3.145,0,0,0-2.668-.852,4.444,4.444,0,0,1-1.822.058c-.735-.233-1.221-.972-1.714-1.615s-1.16-1.279-1.92-1.179a4.577,4.577,0,0,0-1.524.841,1.088,1.088,0,0,1-1.532-.217c-.621-1.162.251-4.349-2.949-4.349-4.62,0-3.865,3.208-4.422,3.887-.843,1.032-2.344.8-3.565.456s-2.675-.681-3.617.242c-.817.8-.9,2.267-1.77,3-.925.778-2.238.363-3.359.014s-2.565-.478-3.215.584a2.351,2.351,0,0,0,.636,2.835,4.655,4.655,0,0,0,2.772.877c6.328.421,12.074-.233,17.149.1Z" transform="translate(-838.883)" fill="#fff" opacity="0.78"/>
  </g>
</svg>
