<svg xmlns="http://www.w3.org/2000/svg" width="444" height="236.02" viewBox="0 0 444 236.02">
  <g id="img-optimierung-grey" transform="translate(-412 -5921.609)">
    <g id="Gruppe_2918" data-name="Gruppe 2918" transform="translate(592.939 6113.129)" opacity="0.58">
      <path id="Pfad_9299" data-name="Pfad 9299" d="M1632.333,1271.06c2.143-.163,3.339-.766,4.724-.894s5.558-.164,5.962,1.675.178,3.617-4.584,3.393-6.671-.745-6.743-.977a13.5,13.5,0,0,1,.639-3.2Z" transform="translate(-1626.135 -1270.114)" fill="#ccc"/>
      <path id="Pfad_9300" data-name="Pfad 9300" d="M1717.387,1272.221c-.3,1.8.1,3.257-.579,3.156s-3.732-.424-4.074-1.69-.241-2.019,1.144-2.146,3.584.228,3.509.682Z" transform="translate(-1712.567 -1271.304)" fill="#ccc"/>
    </g>
    <g id="Gruppe_2919" data-name="Gruppe 2919" transform="translate(622.898 6115.297)" opacity="0.58">
      <path id="Pfad_9301" data-name="Pfad 9301" d="M1431.752,1285.987c2.144-.35,3.3-1.019,4.687-1.267s5.585-.668,6.139,1,.469,3.332-4.346,3.566-6.778-.071-6.87-.279a11.719,11.719,0,0,1,.389-3.019Z" transform="translate(-1425.537 -1284.485)" fill="#ccc"/>
      <path id="Pfad_9302" data-name="Pfad 9302" d="M1518.437,1292.7c-.157,1.7.36,3.007-.332,2.977s-3.792-.047-4.239-1.188-.4-1.847.982-2.094S1518.476,1292.273,1518.437,1292.7Z" transform="translate(-1513.614 -1291.094)" fill="#ccc"/>
    </g>
    <g id="Gruppe_2923" data-name="Gruppe 2923" transform="translate(635.504 5965.451)">
      <g id="Gruppe_2920" data-name="Gruppe 2920" transform="translate(0 2.764)">
        <path id="Pfad_9303" data-name="Pfad 9303" d="M1447.022,312.188a.285.285,0,0,0,.184-.066.291.291,0,0,0,.041-.409l-2.075-2.53a.29.29,0,1,0-.449.368l2.075,2.53A.292.292,0,0,0,1447.022,312.188Z" transform="translate(-1444.657 -309.077)" fill="#f4f4f2"/>
        <path id="Pfad_9304" data-name="Pfad 9304" d="M1440.01,331.351a.291.291,0,0,0,.223-.476l-.145-.175a.29.29,0,1,0-.446.371l.145.175A.289.289,0,0,0,1440.01,331.351Z" transform="translate(-1436.879 -327.35)" fill="#f4f4f2"/>
      </g>
      <g id="Gruppe_2921" data-name="Gruppe 2921" transform="translate(4.693 0.429)">
        <path id="Pfad_9305" data-name="Pfad 9305" d="M1422.533,297.312a.3.3,0,0,0,.08-.011.291.291,0,0,0,.2-.359l-.9-3.144a.291.291,0,0,0-.559.158l.9,3.144A.289.289,0,0,0,1422.533,297.312Z" transform="translate(-1421.347 -293.587)" fill="#f4f4f2"/>
        <path id="Pfad_9306" data-name="Pfad 9306" d="M1419.183,321.166a.315.315,0,0,0,.083-.012.29.29,0,0,0,.195-.362l-.065-.219a.291.291,0,0,0-.557.167l.065.219A.29.29,0,0,0,1419.183,321.166Z" transform="translate(-1417.616 -316.328)" fill="#f4f4f2"/>
      </g>
      <g id="Gruppe_2922" data-name="Gruppe 2922" transform="translate(9.37)">
        <path id="Pfad_9307" data-name="Pfad 9307" d="M1391.725,294.5a.29.29,0,0,0,.286-.244l.519-3.17a.29.29,0,1,0-.573-.093l-.519,3.17a.29.29,0,0,0,.24.333A.246.246,0,0,0,1391.725,294.5Z" transform="translate(-1391.224 -290.745)" fill="#f4f4f2"/>
        <path id="Pfad_9308" data-name="Pfad 9308" d="M1396.307,319.129a.291.291,0,0,0,.287-.243l.038-.225a.291.291,0,1,0-.574-.1l-.038.225a.293.293,0,0,0,.24.335.261.261,0,0,0,.048,0Z" transform="translate(-1396.015 -314.164)" fill="#f4f4f2"/>
      </g>
    </g>
    <g id="Gruppe_2924" data-name="Gruppe 2924" transform="translate(561.955 5962.256)" opacity="0.82">
      <path id="Pfad_9309" data-name="Pfad 9309" d="M1803.432,275.709c.366,3.933-2.25,6.326-5.891,5.006-3.456-1.253-4.2,1.461-7.054,1.761-3.047.321-3.881-3.619-6.012-1.978-4.112,3.165-8.136.745-6.754-3.527,1.118-3.456,3.233-4.267,5.024-4.328,3.25-.11,2.5-2.873,6.273-3.078,4.822-.262,3.476,4.121,7.788,3.1,2.674-.63,6.434.962,6.629,3.04Z" transform="translate(-1777.443 -269.555)" fill="#f4f4f2" fill-rule="evenodd"/>
    </g>
    <path id="Pfad_9310" data-name="Pfad 9310" d="M812.923,446.855a69.689,69.689,0,0,1-16.653-1.8,4.768,4.768,0,0,1-2.817-1.408,3.836,3.836,0,0,1,.4-4.732,5.233,5.233,0,0,1,4.439-1.417,7.421,7.421,0,0,0,3.032.1c1.223-.389,2.033-1.618,2.853-2.687s1.93-2.128,3.194-1.96a7.628,7.628,0,0,1,2.536,1.4,1.81,1.81,0,0,0,2.55-.36c1.034-1.933-.418-7.236,4.908-7.236,7.687,0,6.431,5.336,7.357,6.469,1.4,1.716,3.9,1.339,5.932.758s4.451-1.132,6.02.4c1.36,1.332,1.5,3.771,2.945,4.988,1.538,1.3,3.724.6,5.588.023s4.267-.795,5.35.973a3.91,3.91,0,0,1-1.06,4.718,7.756,7.756,0,0,1-4.613,1.46c-10.53.7-20.091-.389-28.537.173q-1.723.115-3.424.142" transform="translate(-114.523 5559.209)" fill="#f4f4f2"/>
    <g id="Gruppe_2925" data-name="Gruppe 2925" transform="translate(669.907 6107.979)" opacity="0.58">
      <path id="Pfad_9311" data-name="Pfad 9311" d="M1118.818,1240.479c2.229,0,3.51.482,4.953.5s5.762-.253,6.047-2.031-.081-3.45-4.991-2.886-6.847,1.2-6.9,1.427a12.02,12.02,0,0,0,.9,2.99Z" transform="translate(-1112.367 -1235.951)" fill="#ccc"/>
      <path id="Pfad_9312" data-name="Pfad 9312" d="M1205.78,1250.118c-.442-1.693-.136-3.1-.831-2.957s-3.83.679-4.091,1.908-.1,1.936,1.341,1.956S1205.89,1250.543,1205.78,1250.118Z" transform="translate(-1200.754 -1245.462)" fill="#ccc"/>
    </g>
    <g id="Gruppe_2926" data-name="Gruppe 2926" transform="translate(690.574 6109.521)" opacity="0.58">
      <path id="Pfad_9313" data-name="Pfad 9313" d="M985.64,1249.609c1.98-.835,2.922-1.789,4.195-2.349s5.217-1.924,6.185-.309,1.319,3.372-3.266,4.673-6.561,1.416-6.7,1.217a13.5,13.5,0,0,1-.41-3.233Z" transform="translate(-979.825 -1246.188)" fill="#ccc"/>
      <path id="Pfad_9314" data-name="Pfad 9314" d="M1067.006,1270.449c.291,1.807,1.13,3.057.454,3.176s-3.672.784-4.4-.308-.872-1.837.4-2.4,3.471-.923,3.544-.47Z" transform="translate(-1062.507 -1266.615)" fill="#ccc"/>
    </g>
    <g id="Gruppe_2927" data-name="Gruppe 2927" transform="translate(698.218 6075.289)" opacity="0.58">
      <path id="Pfad_9315" data-name="Pfad 9315" d="M993.055,1022.327c-1.693-.752-2.49-1.476-3.577-1.975s-4.468-1.8-5.333-.844-1.2,2.073,2.734,3.4,5.638,1.609,5.765,1.494a6.515,6.515,0,0,0,.413-2.076Z" transform="translate(-983.59 -1019.164)" fill="#ccc"/>
      <path id="Pfad_9316" data-name="Pfad 9316" d="M951.212,1042.342c-.285,1.154-1.033,1.885-.451,2.034s3.156.9,3.8.256.786-1.113-.3-1.613-2.98-.967-3.051-.676Z" transform="translate(-940.618 -1038.772)" fill="#ccc"/>
    </g>
    <g id="Gruppe_2928" data-name="Gruppe 2928" transform="translate(680.794 6070.758)" opacity="0.58">
      <path id="Pfad_9317" data-name="Pfad 9317" d="M1099.28,992.834c-2.027-.116-3.225.172-4.537.112s-5.226-.48-5.371-1.79.294-2.511,4.726-1.847,6.152,1.224,6.19,1.393C1100.372,991.077,1099.28,992.834,1099.28,992.834Z" transform="translate(-1089.349 -989.12)" fill="#ccc"/>
      <path id="Pfad_9318" data-name="Pfad 9318" d="M1057.057,1002.888c.51-1.212.323-2.253.946-2.111s3.441.691,3.6,1.6-.032,1.416-1.345,1.356-3.328-.54-3.2-.844Z" transform="translate(-1045.839 -999.008)" fill="#ccc"/>
    </g>
    <g id="Gruppe_2929" data-name="Gruppe 2929" transform="translate(666.124 6072.742)" opacity="0.58">
      <path id="Pfad_9319" data-name="Pfad 9319" d="M1204.3,1004.049c-1.805-.437-2.725-1.006-3.889-1.3s-4.73-.974-5.4.124-.786,2.254,3.331,2.857,5.842.575,5.944.439a6.528,6.528,0,0,0,.01-2.117Z" transform="translate(-1194.656 -1002.266)" fill="#ccc"/>
      <path id="Pfad_9320" data-name="Pfad 9320" d="M1160.7,1014.438c-.06,1.187-.655,2.039-.056,2.082s3.269.317,3.785-.43.559-1.237-.6-1.534S1160.714,1014.139,1160.7,1014.438Z" transform="translate(-1149.872 -1012.456)" fill="#ccc"/>
    </g>
    <g id="Gruppe_2930" data-name="Gruppe 2930" transform="translate(649.534 6068.59)" opacity="0.58">
      <path id="Pfad_9321" data-name="Pfad 9321" d="M1306.672,978.3c-2.03-.075-3.218.237-4.533.2s-5.24-.374-5.425-1.68.214-2.515,4.665-1.942,6.19,1.1,6.232,1.267C1307.708,976.518,1306.672,978.3,1306.672,978.3Z" transform="translate(-1296.678 -974.731)" fill="#ccc"/>
      <path id="Pfad_9322" data-name="Pfad 9322" d="M1263.934,987.24c.471-1.221.25-2.259.878-2.131s3.461.62,3.649,1.526.014,1.416-1.3,1.383S1263.816,987.546,1263.934,987.24Z" transform="translate(-1252.647 -983.535)" fill="#ccc"/>
    </g>
    <g id="Gruppe_2931" data-name="Gruppe 2931" transform="translate(631.949 6072.045)" opacity="0.58">
      <path id="Pfad_9323" data-name="Pfad 9323" d="M1430.106,999.067c-1.837-.344-2.8-.864-3.984-1.1s-4.8-.73-5.377.4-.6,2.291,3.553,2.681,5.876.273,5.966.133A6.576,6.576,0,0,0,1430.106,999.067Z" transform="translate(-1420.468 -997.654)" fill="#ccc"/>
      <path id="Pfad_9324" data-name="Pfad 9324" d="M1386.72,1006.7c.035,1.187-.49,2.069.11,2.081s3.287.148,3.743-.623.46-1.262-.726-1.5S1386.711,1006.4,1386.72,1006.7Z" transform="translate(-1375.883 -1005.146)" fill="#ccc"/>
    </g>
    <g id="Gruppe_2932" data-name="Gruppe 2932" transform="translate(615.412 6068.783)" opacity="0.58">
      <path id="Pfad_9325" data-name="Pfad 9325" d="M1534.179,978.561c-2.015.258-3.125.76-4.426.943s-5.237.492-5.682-.76-.291-2.5,4.209-2.671,6.318.065,6.393.223a7.4,7.4,0,0,1-.495,2.266Z" transform="translate(-1523.905 -976.015)" fill="#ccc"/>
      <path id="Pfad_9326" data-name="Pfad 9326" d="M1488.689,979.822c.22-1.276-.205-2.259.439-2.235s3.534.042,3.9.9.3,1.387-1.006,1.571S1488.635,980.143,1488.689,979.822Z" transform="translate(-1477.114 -977.35)" fill="#ccc"/>
    </g>
    <g id="Gruppe_2933" data-name="Gruppe 2933" transform="translate(600.899 6073.674)" opacity="0.58">
      <path id="Pfad_9327" data-name="Pfad 9327" d="M1634.046,1011.774c-1.883.024-2.96-.294-4.178-.294s-4.876.226-5.149,1.437.008,2.343,4.169,1.914,5.812-.879,5.864-1.034c.118-.345-.7-2.022-.7-2.022Z" transform="translate(-1624.644 -1011.023)" fill="#ccc"/>
      <path id="Pfad_9328" data-name="Pfad 9328" d="M1593.229,1009.1c.342,1.146.059,2.107.65,2s3.25-.5,3.494-1.334.121-1.317-1.1-1.315S1593.143,1008.812,1593.229,1009.1Z" transform="translate(-1582.618 -1008.45)" fill="#ccc"/>
    </g>
    <g id="Gruppe_2934" data-name="Gruppe 2934" transform="translate(583.575 6072.031)" opacity="0.58">
      <path id="Pfad_9329" data-name="Pfad 9329" d="M1746.441,1000.125c-1.984.392-3.031.962-4.311,1.232s-5.178.84-5.78-.372-.6-2.462,3.877-2.93,6.329-.36,6.425-.21a7.122,7.122,0,0,1-.213,2.28Z" transform="translate(-1736.071 -997.693)" fill="#ccc"/>
      <path id="Pfad_9330" data-name="Pfad 9330" d="M1699.84,999.831c.062-1.28-.487-2.226.16-2.244s3.541-.2,4.016.63.47,1.356-.811,1.624S1699.823,1000.153,1699.84,999.831Z" transform="translate(-1688.176 -997.558)" fill="#ccc"/>
    </g>
    <g id="Gruppe_2935" data-name="Gruppe 2935" transform="translate(570.063 6077.455)" opacity="0.58">
      <path id="Pfad_9331" data-name="Pfad 9331" d="M1838.158,1042.09c-1.868.255-2.993.074-4.2.225s-4.81.822-4.873,2.048.406,2.307,4.469,1.372,5.627-1.58,5.653-1.739c.059-.354-1.045-1.9-1.045-1.9Z" transform="translate(-1829.075 -1040.798)" fill="#ccc"/>
      <path id="Pfad_9332" data-name="Pfad 9332" d="M1799.971,1034.567c.535,1.087.418,2.067.986,1.889s3.147-.888,3.246-1.743-.1-1.311-1.316-1.161-3.051.74-2.916,1.013Z" transform="translate(-1789.705 -1033.524)" fill="#ccc"/>
    </g>
    <g id="Gruppe_2936" data-name="Gruppe 2936" transform="translate(552.185 6078.238)" opacity="0.58">
      <path id="Pfad_9333" data-name="Pfad 9333" d="M1957.965,1048.483c-1.792.9-2.624,1.722-3.774,2.318s-4.735,2.176-5.692,1.185-1.351-2.179,2.826-3.817,5.994-2.026,6.134-1.909A7.057,7.057,0,0,1,1957.965,1048.483Z" transform="translate(-1947.87 -1045.108)" fill="#ccc"/>
      <path id="Pfad_9334" data-name="Pfad 9334" d="M1913.574,1041.6c-.341-1.232-1.164-1.984-.546-2.176s3.355-1.129,4.071-.47.876,1.163-.276,1.76S1913.66,1041.913,1913.574,1041.6Z" transform="translate(-1902.28 -1038.727)" fill="#ccc"/>
    </g>
    <g id="Gruppe_2937" data-name="Gruppe 2937" transform="translate(707.501 6099.768)" opacity="0.58">
      <path id="Pfad_9335" data-name="Pfad 9335" d="M895.038,1188.7c1.8-.707,3.025-.641,4.2-1.077s4.549-2.064,4.073-3.88-1.434-3.325-5.172-1.227-5.05,3.326-5.006,3.565a14.743,14.743,0,0,0,1.909,2.621Z" transform="translate(-889.528 -1181.495)" fill="#ccc"/>
      <path id="Pfad_9336" data-name="Pfad 9336" d="M959.779,1218.068c-1.028-1.5-1.341-2.969-1.843-2.609s-2.821,1.867-2.545,3.144.686,1.912,1.858,1.475S960.037,1218.444,959.779,1218.068Z" transform="translate(-955.368 -1210.291)" fill="#ccc"/>
    </g>
    <g id="Gruppe_2938" data-name="Gruppe 2938" transform="translate(722.782 6090.791)" opacity="0.58">
      <path id="Pfad_9337" data-name="Pfad 9337" d="M842.964,1128.687a31.294,31.294,0,0,0-.388-3.134c.02-.9.422-3.571,2.287-3.586s3.6.364,2.879,3.373-1.44,4.16-1.678,4.175a19.789,19.789,0,0,1-3.1-.829Z" transform="translate(-841.745 -1121.967)" fill="#ccc"/>
      <path id="Pfad_9338" data-name="Pfad 9338" d="M857.155,1172.316c1.758.428,3.237.365,3.066.786s-.813,2.327-2.105,2.378-2.025-.111-2.005-1.013S856.713,1172.207,857.155,1172.316Z" transform="translate(-856.11 -1164.718)" fill="#ccc"/>
    </g>
    <g id="Gruppe_2939" data-name="Gruppe 2939" transform="translate(712.832 6083.693)" opacity="0.58">
      <path id="Pfad_9339" data-name="Pfad 9339" d="M911.737,1079.425a27.612,27.612,0,0,1-1.233-2.661c-.463-.7-2.117-2.568-3.661-1.581s-2.786,2.217-.7,4.185,3.248,2.485,3.452,2.369A20.693,20.693,0,0,0,911.737,1079.425Z" transform="translate(-905.04 -1074.902)" fill="#ccc"/>
      <path id="Pfad_9340" data-name="Pfad 9340" d="M889.515,1108.4c-1.235,1.279-2.485,2.024-2.135,2.259s1.823,1.386,2.912.733,1.612-1.175,1.149-1.87-1.616-1.445-1.926-1.123Z" transform="translate(-882.241 -1103.283)" fill="#ccc"/>
    </g>
    <g id="Gruppe_2940" data-name="Gruppe 2940" transform="translate(554.266 6108.879)" opacity="0.58">
      <path id="Pfad_9341" data-name="Pfad 9341" d="M1892.029,1251.8c2.138.213,3.422-.175,4.807-.061s5.5.8,5.582,2.684-.452,3.594-5.1,2.545-6.44-1.891-6.47-2.134a13.519,13.519,0,0,1,1.185-3.035Z" transform="translate(-1885.813 -1250.239)" fill="#ccc"/>
      <path id="Pfad_9342" data-name="Pfad 9342" d="M1973.571,1243.213c-.608,1.727-.468,3.224-1.118,3.007s-3.6-1.065-3.718-2.372.111-2.03,1.5-1.915,3.491.847,3.338,1.28Z" transform="translate(-1968.708 -1241.921)" fill="#ccc"/>
    </g>
    <g id="Gruppe_2941" data-name="Gruppe 2941" transform="translate(572.054 6107.928)" opacity="0.58">
      <path id="Pfad_9343" data-name="Pfad 9343" d="M1765.989,1239.618c2.144.552,3.24,1.44,4.623,1.822s5.617,1.141,6.395-.866.9-4.055-3.981-4.62-6.929-.306-7.049-.056a16.884,16.884,0,0,0,.012,3.719Z" transform="translate(-1759.743 -1235.616)" fill="#ccc"/>
      <path id="Pfad_9344" data-name="Pfad 9344" d="M1853.422,1240.124c.057-2.09.753-3.661.042-3.664s-3.877-.163-4.48,1.209-.648,2.238.734,2.621S1853.407,1240.649,1853.422,1240.124Z" transform="translate(-1848.585 -1236.327)" fill="#ccc"/>
    </g>
    <g id="Gruppe_2942" data-name="Gruppe 2942" transform="translate(543.639 6086.621)" opacity="0.58">
      <path id="Pfad_9345" data-name="Pfad 9345" d="M2036.587,1112.175a31.311,31.311,0,0,0-.544,3.111c-.282.856-1.446,3.292-3.235,2.762s-3.34-1.4-1.769-4.067,2.592-3.559,2.826-3.5A19.837,19.837,0,0,1,2036.587,1112.175Z" transform="translate(-2030.39 -1108.038)" fill="#ccc"/>
      <path id="Pfad_9346" data-name="Pfad 9346" d="M2019.11,1097.665c-1.556-.923-2.99-1.3-2.7-1.647s1.457-1.987,2.708-1.66,1.9.7,1.623,1.555S2019.5,1097.9,2019.11,1097.665Z" transform="translate(-2012.491 -1094.315)" fill="#ccc"/>
    </g>
    <g id="Gruppe_2943" data-name="Gruppe 2943" transform="translate(548.187 6097.803)" opacity="0.58">
      <path id="Pfad_9347" data-name="Pfad 9347" d="M1982.652,1182.308a27.4,27.4,0,0,1,.925,2.784c.381.743,1.812,2.791,3.459,1.984s3.019-1.888,1.167-4.079-2.947-2.837-3.162-2.745A20.66,20.66,0,0,0,1982.652,1182.308Z" transform="translate(-1980.241 -1178.468)" fill="#ccc"/>
      <path id="Pfad_9348" data-name="Pfad 9348" d="M2014.522,1171.649c1.372-1.131,2.7-1.729,2.376-2s-1.654-1.582-2.811-1.057-1.734.985-1.354,1.728,1.443,1.618,1.787,1.334Z" transform="translate(-2012.618 -1168.464)" fill="#ccc"/>
    </g>
    <g id="Gruppe_2950" data-name="Gruppe 2950" transform="translate(587.336 5973.105)">
      <path id="Pfad_9349" data-name="Pfad 9349" d="M1281.263,728.77c.573,2.385-1.942,3.05-1.642,4.184s2.156-.678,2.188.858-1.9,4.208-.258,4.219,5.023-.493,4.625-2.722-1.484-7.229-2.192-8.014-2.722,1.473-2.722,1.473Z" transform="translate(-1210.494 -668.982)" fill="#cfd0d2"/>
      <g id="Gruppe_2944" data-name="Gruppe 2944" transform="translate(59.238 129.687)">
        <path id="Pfad_9350" data-name="Pfad 9350" d="M1349.969,1209.6c.269-2.167.244-7.675.244-7.675l-5.887-.364.113,8.272,3.829,2.729,1.7-2.964Z" transform="translate(-1343.499 -1201.56)" fill="#e6e6e6"/>
        <path id="Pfad_9351" data-name="Pfad 9351" d="M1280.006,1249.65c.617-.148.362.43.594,1.342.531,2.087,8.3,2.11,9.471,2.294a1.794,1.794,0,0,1-1.416,3.162c-2.6,0-10.935.033-13.782.015a1.3,1.3,0,0,1-1.264-.961c-.52-2.015-.392-5.146.4-5.216,1.2-.382,3.423-.021,6-.635Z" transform="translate(-1273.298 -1242.379)" fill="#424242"/>
      </g>
      <g id="Gruppe_2945" data-name="Gruppe 2945" transform="translate(9.289 121.591)">
        <path id="Pfad_9352" data-name="Pfad 9352" d="M1635.611,1157.531c1.68-1.442,5.425-5.566,5.425-5.566l-4.139-4.1-5.567,6.244.989,4.525,3.292-1.107Z" transform="translate(-1627.65 -1147.87)" fill="#e6e6e6"/>
        <path id="Pfad_9353" data-name="Pfad 9353" d="M1640.769,1187.955c.537.33-.065.555-.573,1.352-1.162,1.829,4.218,7.292,4.9,8.242a1.84,1.84,0,0,1-3.307,1.212c-1.808-1.824-7.624-7.645-9.589-9.654a1.256,1.256,0,0,1-.172-1.556c1.119-1.772,3.507-3.866,4.11-3.358C1637.25,1184.769,1638.531,1186.58,1640.769,1187.955Z" transform="translate(-1631.832 -1178.651)" fill="#424242"/>
      </g>
      <path id="Pfad_9354" data-name="Pfad 9354" d="M1383.534,767.021c-.083,1.279-8.568,1.312-8.99.281s2.413-26.117.075-33.071-9.2-29.63-9.2-29.63c-2.482,8.61-4.243,21.154-8.423,30.1-6.333,11.555-18.265,26.691-19.66,27.326s-7.444-5.724-6.687-6.813,16.78-19.935,18.214-24.559c1.145-3.693,1.169-18.8,2.47-31.387.36-3.483.789-6.783,1.313-9.605.009-.05.02-.1.029-.151q.2-1.047.412-2c.293-1.285,18.974-2.557,18.974-2.557l3.743-.66c2.664,9.375,7.79,42.839,8.113,47.654s-.277,33.417-.385,35.077Z" transform="translate(-1315.986 -632.602)" fill="#8e9290"/>
      <path id="Pfad_9355" data-name="Pfad 9355" d="M1420.273,394.373l-3.382-4.837a27.256,27.256,0,0,1,4.88-7,7.292,7.292,0,0,1,3.054-1.971l-.057,3.72.8,1.689a5.711,5.711,0,0,0-1.184,2.069,11.93,11.93,0,0,0-.639,4.294c.024,1.4-3.474,2.028-3.474,2.028Z" transform="translate(-1370.559 -374.68)" fill="#cfd0d2"/>
      <path id="Pfad_9356" data-name="Pfad 9356" d="M1420.025,399.013a7.9,7.9,0,0,0-1.261,2.289c-3.323-.583-1.493-5.1-.368-5.368.7-.17.641,1,.641,1l.989,2.079Z" transform="translate(-1365.012 -387.713)" fill="#5c5f76" opacity="0.2"/>
      <g id="Gruppe_2946" data-name="Gruppe 2946" transform="translate(51.882)">
        <path id="Pfad_9357" data-name="Pfad 9357" d="M1382.1,368.041c-.838,1.481-1.126,5.22-2.087,4.552s-1.767,3.13-2.814,2.455c-2.536-1.635-4.337-5.146-3.854-6.546a27.344,27.344,0,0,1,2.9-4.563l5.852,4.1Z" transform="translate(-1372.397 -360.558)" fill="#cfd0d2"/>
        <path id="Pfad_9358" data-name="Pfad 9358" d="M1359.908,348.572c.721.63.621.829,1.346.947s.287-1.279,1.422-.737,2.3,1.255,3.192.179c1.291-1.556-.386-2.333-1.444-2.781-.682-.288.041-1.663-1.188-2.432-.965-.6-1.221.009-2.1-.493-.534-.3-.96-1.8-2.152-1.743-2.21.1-1.922,2.292-3.938,2.633-2.351.4-1.083,5.588-.46,5.5.725-.107,1.045-1.981,1.722-2.005,1.02-.036.718.587.926,1.5.223.977,1.316,1.782,1.338.207S1359.256,348,1359.908,348.572Z" transform="translate(-1353.676 -341.511)" fill="#424242"/>
      </g>
      <g id="Gruppe_2948" data-name="Gruppe 2948" transform="translate(0 60.532)">
        <path id="Pfad_9359" data-name="Pfad 9359" d="M1642.786,778.392l5.092.662c.786.1,1.3,1.069,1.151,2.158l-.416,3.023a.026.026,0,0,1-.03.023l-.947-.124a.025.025,0,0,1-.023-.03l.293-2.131c.112-.814-.273-1.538-.859-1.613l-3.807-.495c-.586-.077-1.154.523-1.267,1.338l-.292,2.131a.026.026,0,0,1-.03.023l-.947-.124a.025.025,0,0,1-.023-.03l.416-3.023c.149-1.089.908-1.891,1.693-1.788Z" transform="translate(-1627.789 -773.038)" fill="#a8a8a8"/>
        <path id="Pfad_9360" data-name="Pfad 9360" d="M1647.3,743.591a.03.03,0,0,1,.02.026c.047,1.134.386.866.654,2.367s1.349,3.676.549,3.834-1.315-.784-1.677-1,.419.731-.112,1.4a3.085,3.085,0,0,1-3.358.256,3.752,3.752,0,0,1-1.238-3.305,16.55,16.55,0,0,1,1.24-4.031c.2-.6,3.639.37,3.921.451Z" transform="translate(-1627.762 -742.945)" fill="#cdcfd1"/>
        <path id="Pfad_9361" data-name="Pfad 9361" d="M1641.725,782.061c.785.1,1.3,1.069,1.15,2.158l-.416,3.023a.026.026,0,0,1-.03.023l-.947-.124a.025.025,0,0,1-.023-.03l.294-2.131c.112-.814-.273-1.538-.859-1.615h0l-.225-1.4a.026.026,0,0,1,.03-.03l1.028.122Z" transform="translate(-1621.634 -776.058)" fill="#a8a8a8"/>
        <g id="Gruppe_2947" data-name="Gruppe 2947" transform="translate(0 7.366)">
          <path id="Pfad_9362" data-name="Pfad 9362" d="M1602.065,798.4l-1.85,14.039a1.578,1.578,0,0,1-1.772,1.341l-.019,0-25.659-2.867c-2.891-.36-2.609-2.354-2.5-3.188l1.344-13.319a3.454,3.454,0,0,1,3.736-2.582l22.8,2.823.856.106a3.317,3.317,0,0,1,3.069,3.649Z" transform="translate(-1570.204 -791.791)" fill="#a8a8a8"/>
          <path id="Pfad_9363" data-name="Pfad 9363" d="M1574.13,814.518l-1.85,14.039a1.578,1.578,0,0,1-1.772,1.341h0a.026.026,0,0,1-.024-.021,10.875,10.875,0,0,1,.217-4.248c1-4.964.282-10.818-.487-14.83a.026.026,0,0,1,.03-.03l.819.1a3.317,3.317,0,0,1,3.068,3.649Z" transform="translate(-1542.269 -807.906)" fill="#ccc"/>
        </g>
      </g>
      <path id="Pfad_9364" data-name="Pfad 9364" d="M1487.538,714.83c-1.92,5.128-7.113,8.361-10.608,10.37.36-3.483.789-6.783,1.313-9.605.009-.05.02-.1.029-.151l9.266-.614Z" transform="translate(-1441.581 -658.537)" fill="#424242" opacity="0.52"/>
      <path id="Pfad_9365" data-name="Pfad 9365" d="M1397.11,431.637c2.01-.626,3.034,1.79,4.691,1.791,1.006,0,1.541-.986,1.972-1.493.265-.312.252-.107.97.179,1.95.781,4.931,40.152,4.931,40.152a42.731,42.731,0,0,1-9.908,2.078c-4.228.145-11.077-.98-11-2.434s4.543-37.954,4.543-37.954a11.577,11.577,0,0,1,3.809-2.321Z" transform="translate(-1350.421 -417.959)" fill="#fff"/>
      <path id="Pfad_9366" data-name="Pfad 9366" d="M1494.592,468.032c.106,3.109.951,7.684-1.823,9.569s-8.963,2.1-10.168,2.717c-1.463.754-4.677.009-3.758-2.989.611-1.989,4.108-8.235,5.471-12.93a12.762,12.762,0,0,0,.535-2.812v-.02c.014-.267.023-.522.026-.763.008-.422,0-.805-.021-1.137a5.864,5.864,0,0,0-.072-.63c-.044-.249-.094-.5-.145-.754-.031-.154-.065-.309-.1-.464-.021-.1-.042-.2-.065-.3-.093-.415-.193-.829-.292-1.235,0-.012-.006-.027-.011-.039-.016-.069-.035-.139-.051-.21-.029-.119-.059-.237-.089-.353l-.05-.2c-.282-1.1-.55-2.094-.7-2.82-.007-.038-.015-.075-.024-.11-.035-.178-.062-.338-.08-.477v0l0-.008c0-.029-.006-.059-.011-.086v-.009a1.515,1.515,0,0,1-.007-.315h0l0-.032c-.894.561-8.71,7.921-10.766,13.665a130.779,130.779,0,0,0-3.251,14.877c0,.014.014,0,0,0-2.23-.136-4.356.1-5.066-.492,0,0-.67-.271-.671-.278-.813-3.133,2.223-11,3.348-16.388,1.056-5.055,9.622-17.766,15.432-23.084,3.859-3.532,12.617-7.229,12.617-7.229.379,2.241-1.592,12.353,1.006,19.984,2.075,6.093-1.321,12.2-1.214,15.35Z" transform="translate(-1448.461 -418.95)" fill="#a8a8a8"/>
      <path id="Pfad_9367" data-name="Pfad 9367" d="M1529.209,558.268a2.422,2.422,0,0,1-.71.487,12.775,12.775,0,0,0,.535-2.812v-.02c.014-.267.023-.522.026-.763.008-.422,0-.805-.021-1.137a5.931,5.931,0,0,0-.072-.63c-.044-.249-.094-.5-.145-.754-.031-.154-.065-.309-.1-.464-.021-.1-.042-.2-.063-.3-.093-.415-.193-.831-.294-1.237,0-.012-.006-.027-.01-.039-.017-.069-.035-.14-.051-.21-.029-.119-.059-.237-.089-.353l-.05-.2c-.282-1.1-.55-2.095-.7-2.82-.008-.038-.015-.075-.024-.11-.035-.178-.062-.338-.08-.477v-.012l-.017-.409h0a15.628,15.628,0,0,1,3.6-2.206c.368,2.262-1.137,13.274-1.734,14.461Z" transform="translate(-1492.645 -513.305)" fill="#5c5f76" opacity="0.26"/>
      <g id="Gruppe_2949" data-name="Gruppe 2949" transform="translate(1.351 14.378)">
        <path id="Pfad_9368" data-name="Pfad 9368" d="M1459.414,445.807c-.21-.11-1.81,3.88-4.361,5.385a6.384,6.384,0,0,1-2.3.854c-2.411.36-9.656.211-12.74.116a23.441,23.441,0,0,1,2.808-2.7,41.611,41.611,0,0,0,9.426.213,9.333,9.333,0,0,0,2.577-.954,15.229,15.229,0,0,0,3.611-2.838c.465-.48.474-1.146,1.081-1.226.805-.107.167,1.289-.1,1.149Z" transform="translate(-1409.736 -443.476)" fill="#fdfeff" opacity="0.28"/>
        <path id="Pfad_9369" data-name="Pfad 9369" d="M1486.522,437.763a1.061,1.061,0,0,0-1.258-.888c-.636.084-.663.344-1.151.847a13.066,13.066,0,0,1-6.489,3.978c-2.8.568-9.638-2.465-13.741-1.179s-5.008,5.086-10.967,6.6-12.721-.377-14.476.091-2.8.953-2.684,1.641a3.506,3.506,0,0,0,2.423,2.123c1.3.372,12.43.068,15.31-.591,4.7-1.075,8.372-5.668,11.413-6.223s9.675.558,13.253.024c3.99-.6,6.795-5.477,7.077-5.329a1.119,1.119,0,0,0,1.046.118c.345-.121.308-.819.241-1.211Z" transform="translate(-1435.748 -436.861)" fill="#e6e6e6"/>
      </g>
      <path id="Pfad_9370" data-name="Pfad 9370" d="M1298.073,462.8c-1.427-2.548-4.913-12.918-5.634-11.306-.641,1.433.063,7.5.594,10.165s2.284,14.183.059,16.261c-2.266,2.117-8.61,3.157-9.483,1.705-.813-1.347,1.926-16.48,1.684-23.338s1.4-5.768.369-13.365l.353-9.357c.968-.021,2.438,1.146,3.673,2.055,8.681,6.393,13.548,21.552,14.4,24.108,1.261,3.776,2.806,16.349,3.2,18.984.145.955-4.524,3.777-5.818,2.529-1-.967-.766-13.734-3.4-18.446Z" transform="translate(-1232.168 -419.687)" fill="#a8a8a8"/>
    </g>
    <rect id="Rechteck_1477" data-name="Rechteck 1477" width="444" height="236.02" transform="translate(412 5921.609)" fill="none"/>
  </g>
</svg>
