<svg xmlns="http://www.w3.org/2000/svg" xmlns:xlink="http://www.w3.org/1999/xlink" width="444" height="236.021" viewBox="0 0 444 236.021">
  <defs>
    <clipPath id="clip-path">
      <rect id="Rechteck_1435" data-name="Rechteck 1435" width="444" height="236.02" transform="translate(444 236.02) rotate(180)" fill="none"/>
    </clipPath>
    <clipPath id="clip-path-2">
      <rect id="Rechteck_1433" data-name="Rechteck 1433" width="367.482" height="244.989" fill="none"/>
    </clipPath>
  </defs>
  <g id="img-routeplanner-to" transform="translate(-1056.304 -489)">
    <g id="genauigkeit-to" transform="translate(1056.304 489)" clip-path="url(#clip-path)">
      <g id="Gruppe_2581" data-name="Gruppe 2581" transform="translate(38.259)" clip-path="url(#clip-path-2)">
        <path id="Pfad_8189" data-name="Pfad 8189" d="M1200.942,280.66a34.193,34.193,0,0,0,11.311-.912,2.58,2.58,0,0,0,1.6-.881,2.623,2.623,0,0,0-2.672-3.97,3.7,3.7,0,0,1-1.707.041c-.685-.258-1.13-1.05-1.582-1.742s-1.068-1.377-1.781-1.279c-.534.074-.961.569-1.439.878a.941.941,0,0,1-1.431-.25c-.566-1.246.3-4.628-2.7-4.668-4.326-.057-3.664,3.369-4.2,4.086-.8,1.089-2.206.828-3.344.44s-2.5-.758-3.39.213c-.777.841-.876,2.4-1.7,3.171-.876.817-2.1.359-3.144-.027s-2.395-.541-3.019.582a2.74,2.74,0,0,0,.557,3.028,4.016,4.016,0,0,0,2.583.968c5.918.528,11.308-.1,16.056.324Z" transform="translate(-1041.598 -227.482)" fill="#e6eff1" opacity="0.8"/>
        <path id="Pfad_8190" data-name="Pfad 8190" d="M605.443,815.039c-55.343-.066-118.116-.579-173.445-.6a236.966,236.966,0,0,1-34.338-2.708c-10.025-1.79-25.6-5.15-30.114-15.314-4.213-9.417,9.528-14.134,9.165-24.074-.081-3.286-3.619-5.952-6.077-7.639a62.666,62.666,0,0,0-9.375-4.985c-12.84-5.56-26.4-9.1-40-12.2-36.218-7.975-73.209-11.855-110.157-14.413a1,1,0,0,0-.137,2c27.653,1.963,55.26,4.809,82.6,9.4,18.169,3.114,36.294,6.856,53.822,12.609,7.543,2.578,15.127,5.342,21.815,9.7,1.633,1.122,4.865,3.468,4.919,5.59.116,8.4-12.4,13-9.7,23.255,3.767,12.734,21.269,16.81,32.756,18.9,13.787,2.336,27.774,2.889,41.728,2.993,31.6.014,79.046.624,111.017.864,15.987.124,39.656.378,55.527.425a1.906,1.906,0,1,0,0-3.812Z" transform="translate(-216.622 -622.559)" fill="#003f5c"/>
        <path id="Pfad_8191" data-name="Pfad 8191" d="M1983.919,696.952c-1.849.024-5.6,3.886-.16,4.424s13.568.151,16.86.119c5.373-.05,6.7-.323,6.626-2.872-.044-1.476-.787-4.552-3.625-4.9-2.951-.363-.989,2.524-4.584,2.687-3.062.139-3.635-3.32-6.63-3.338-3.542-.021-2.842,3.72-4.884,4.358-2.244.7-1.755-.5-3.6-.477Z" transform="translate(-1720.484 -588.561)" fill="#e6eff1" opacity="0.82"/>
        <path id="Pfad_8192" data-name="Pfad 8192" d="M1530.11,985.385a24.3,24.3,0,0,1,17.222.611c-2.073-2.054-5.074-3.293-9.333-3.236a15.532,15.532,0,0,0-3.1.336,10.976,10.976,0,0,0-4.792,2.287Z" transform="translate(-1337.642 -834.567)" fill="#1f1f39" opacity="0.18"/>
        <path id="Pfad_8193" data-name="Pfad 8193" d="M1714.556,739.68a.009.009,0,0,1,0,.006l-.033-.026A.2.2,0,0,1,1714.556,739.68Z" transform="translate(-1494.245 -628.126)" fill="#1f1f39" opacity="0.46"/>
        <path id="Pfad_8194" data-name="Pfad 8194" d="M1576.759,935.839c-.181-1.244-.229-4.408-.229-4.408l3.423-.211.027,4.751-2.2,1.57Z" transform="translate(-1377.063 -790.801)" fill="#fff"/>
        <path id="Pfad_8195" data-name="Pfad 8195" d="M1542.6,958.381c-.366-.059-.187.261-.274.793-.2,1.217-4.7,1.552-5.373,1.705a1.042,1.042,0,0,0,.988,1.752c1.509-.107,6.345-.434,7.995-.561a.736.736,0,0,0,.682-.6c.2-1.176-.044-2.965-.508-2.972-.716-.169-1.987.13-3.51-.115Z" transform="translate(-1343.191 -813.86)" fill="#1f1f39"/>
        <path id="Pfad_8196" data-name="Pfad 8196" d="M1802.829,868.883c-1.248-.363-4.269-1.653-4.269-1.653l1.1-3.12,4.518,1.975.651,2.607-2,.189Z" transform="translate(-1565.613 -733.81)" fill="#fff"/>
        <path id="Pfad_8197" data-name="Pfad 8197" d="M1822.582,878c-.195.3.177.276.648.576,1.08.688-.318,4.816-.428,5.474a1.073,1.073,0,0,0,2.039-.137c.474-1.381,2.006-5.8,2.512-7.313a.745.745,0,0,0-.312-.858c-1.04-.668-2.829-1.209-3.013-.8-.433.563-.635,1.813-1.446,3.06Z" transform="translate(-1585.968 -742.886)" fill="#1f1f39"/>
        <path id="Pfad_8198" data-name="Pfad 8198" d="M1562.328,713.838a7.439,7.439,0,0,0,5.3.249c.74-2.2-1.6-16.67-.676-18.868a34.719,34.719,0,0,1,4.821-6.834c2.337-2.784,4.611-5.186,4.673-5.24,0,0,0,0,0,0a38.932,38.932,0,0,0,1.069,12.95c1.384,4.481,19.7,9.764,20.4,10.028s2.412-4.285,2.209-4.786c-2.554-2-15.521-5.994-16.174-7.766-.949-2.574.137-7.956.873-11.944.425-2.3.879-4.314,1.074-5.421.036-.21.063-.386.08-.526a9.925,9.925,0,0,0-.478-2.325c-.139-.745-3.52-1.639-5.514-.317-4.165,2.759-6.9-.1-6.9-.1-5.275,7.622-11.7,15.839-12.46,19.723-.535,2.717,1.716,20.259,1.7,21.18Z" transform="translate(-1363.488 -570.973)" fill="#3b3b4c"/>
        <path id="Pfad_8199" data-name="Pfad 8199" d="M1689.85,693.691c.528,2.095,3.39,5.141,4.783,6.047.425-2.3.879-4.314,1.074-5.421-.006-.035-.014-.069-.021-.1l-5.836-.523Z" transform="translate(-1473.295 -589.088)" fill="#1f1f39" opacity="0.62"/>
        <path id="Pfad_8200" data-name="Pfad 8200" d="M1635,736.382c2.337-2.784,4.611-5.186,4.673-5.24h0l.17-2.262a33.824,33.824,0,0,0-4.845,7.5Z" transform="translate(-1426.716 -618.972)" fill="#1f1f39" opacity="0.62"/>
        <path id="Pfad_8201" data-name="Pfad 8201" d="M1470.1,489.88c-1.957-.9-6.087-3.51-6.512-2.527-.231.534,2.544,1.033,1.953,1.754-.225.274-1.066,1.806.065,2.36,1.268.621,1.434-.761,3.762.948,1.09.8.733-2.533.733-2.533Z" transform="translate(-1281.136 -413.68)" fill="#eeada5"/>
        <path id="Pfad_8202" data-name="Pfad 8202" d="M1654.16,505.547l-2.77.544s-2.695.495-2.209-.094c.648-.783.568-1.589.819-2.113a4.234,4.234,0,0,0,.3-1.3,13.364,13.364,0,0,0,.06-1.7l-.045-.213.273-.612.8-1.794s1.689,1.087,1.831,2.278c.128,1.087,1.044,3.8.943,5Z" transform="translate(-1438.708 -423.136)" fill="#efaea6"/>
        <path id="Pfad_8203" data-name="Pfad 8203" d="M1656.922,512a13.443,13.443,0,0,0,.06-1.7l-.046-.213.273-.612.312-.125a12.524,12.524,0,0,1,1.178,1.045c.356.439-.425,1.929-1.779,1.6Z" transform="translate(-1445.331 -432.545)" fill="#1f1f39" opacity="0.14"/>
        <path id="Pfad_8204" data-name="Pfad 8204" d="M1642.168,527.8c-1.155-.372-1.349,1.546-2.532,1.58-.624.02-.475-.244-.757-.544-.174-.184-.335-.391-.633-.112-6.062,5.661-.626,20.942-1.41,21.952-.641.826,4.2,2.931,7.325,2.331,4.282-.823,4.215-5.422,4.127-6.3s-2.2-15.9-2.2-15.9a23.431,23.431,0,0,1-3.921-3Z" transform="translate(-1427.006 -448.172)" fill="#fff"/>
        <path id="Pfad_8205" data-name="Pfad 8205" d="M1495.455,505.457c.19.377,7.068,3.818,10.42,5.044,1.039.38,8.01,1.995,9.025,2.971.775.745,1.307,4.726,1.093,5.827-.173.885-.368,1.739-.466,2.372-.253,1.632-1.877,8.474.071,10.677,1.238,1.4,2.315,1.318,3.117.65,1.377-1.146.278-6.689,1.007-12.03a18.351,18.351,0,0,0-.559-6.374c-.055-.294-.1-.588-.142-.884-.014-.1-.024-.191-.035-.288-.014-.122-.026-.244-.036-.366-.015-.2-.026-.4-.03-.6a8.254,8.254,0,0,1,.116-1.555,15.361,15.361,0,0,0,.341-3.58c-3.716-.21-10.608-.618-12.074-1.1-.475-.155-1.662-.576-3.074-1.081s-3.029-1.084-4.408-1.571c-.468-.166-.906-.32-1.3-.457s-.749-.259-1.031-.353c-.33-.11-.567-.184-.677-.211-.072-.017-.2.069-.348.223l-.047.048a4.153,4.153,0,0,0-1.05,2.2.919.919,0,0,0,.086.434Z" transform="translate(-1308.14 -426.767)" fill="#00628f"/>
        <path id="Pfad_8206" data-name="Pfad 8206" d="M1674.216,554.364c1.561,1.79,5.881,2.284,7.214.559.923-1.194-1.177-4.313-1.8-7.6h0a18.321,18.321,0,0,1-.455-3.675c.024-.41.051-.76.075-1.075.006-.068.011-.134.016-.2h0c.027-.324.053-.609.079-.885.062-.692.112-1.326.134-2.34,0-.249.009-.52.009-.822s0-.63,0-1a18.893,18.893,0,0,0-.4-3.66,11.249,11.249,0,0,0-.416-1.485,4.114,4.114,0,0,0-.689-1.277,8.475,8.475,0,0,0-5.256-2.842,15.234,15.234,0,0,0-.688,2.933c-.03.416.014,1.336-.015,1.8-.044.721-.663,2.475-.693,3.268-.068,1.745.7,2.868.766,4.6a22.085,22.085,0,0,1,.582,3.422c.154,2.789-.481,3.771-.254,5.5.448,3.412.493,3.3,1.787,4.782Z" transform="translate(-1457.57 -448.434)" fill="#00628f"/>
        <path id="Pfad_8207" data-name="Pfad 8207" d="M1699.13,534.012c4.489,1.229,10.99,10.332,11.608,12.653.761,2.858,3.513,10.7,2.636,10.679s-3.328,1.232-3.421.733c-.163-.869-3.045-9.688-3.34-10.429-.651-1.63-7.073-7.7-7.073-7.7l-.407-5.935Z" transform="translate(-1481.176 -453.486)" fill="#00628f"/>
        <path id="Pfad_8208" data-name="Pfad 8208" d="M1662.611,540.029c.089-.1,1.864,1.714,3.593,2a3.844,3.844,0,0,0,1.444-.016c1.394-.306,4.038-1.009,4.038-1.009a10.135,10.135,0,0,0-2.37-1.558c-1.131.728-1.19,1.063-1.929,1.185a5.606,5.606,0,0,1-1.618.02,9.306,9.306,0,0,1-2.607-.781c-.362-.163-.517-.519-.865-.436-.463.109.2.73.315.6Z" transform="translate(-1449.759 -458.079)" fill="#1f1f39" opacity="0.18"/>
        <path id="Pfad_8209" data-name="Pfad 8209" d="M1659.527,516.61a.53.53,0,0,1,.43-.659c.326-.077.391.042.73.194a7.1,7.1,0,0,0,3.952.712c1.475-.246,4.178-2.966,6.428-3.106s3.458,1.517,6.654,1.143,6.095-2.532,7.042-2.631,1.55-.06,1.635.293a1.74,1.74,0,0,1-.746,1.467,41.72,41.72,0,0,1-7.547,2.545c-2.5.353-5.207-1.175-6.8-.879s-4.581,2.057-6.425,2.461c-2.057.451-4.4-1.375-4.51-1.252a.572.572,0,0,1-.484.25c-.191.006-.315-.336-.362-.537Z" transform="translate(-1447.532 -434.978)" fill="#e5af21"/>
        <path id="Pfad_8210" data-name="Pfad 8210" d="M1714.084,589.219c.006-.068.01-.134.017-.2h0c.027-.324.053-.609.078-.885.062-.692.112-1.325.134-2.34,0-.249.009-.52.009-.822l-1.972-1.981a52.343,52.343,0,0,0,1.736,6.229Z" transform="translate(-1492.403 -495.081)" fill="#1f1f39" opacity="0.3"/>
        <path id="Pfad_8211" data-name="Pfad 8211" d="M1643.217,485.05c-.505.89-2.383,2.193-1.713,2.485s-1.068,1.88-.368,2.215c1.7.811,4.144.664,4.723-.018a15.939,15.939,0,0,0,1.451-2.91l-4.091-1.772Z" transform="translate(-1431.783 -411.909)" fill="#efaea6"/>
        <path id="Pfad_8212" data-name="Pfad 8212" d="M1644.432,476.441c-.368-.457-.487-.181-.789-.522s.581-.541-.08-.965-.993-.751-.645-1.515a.961.961,0,0,1,1.448-.4c.377.264.623-.461,1.464-.148.665.249.656.765,1.17,1.227.282.253,1.26.275,1.626.908.677,1.176-.584,1.31-.1,2.459.566,1.342-2.559,2.138-2.951,2.072-.145-.026-.36-.44.16-.787.27-.18.638-.685.534-.863-.186-.315-.436-1.056-.909-.409-.336.46-.894,2.319-1.123,2.391-.59.185-3.494-.21-3.255-.861.3-.807,2.183.831,2.43-.021.189-.65-1.934-.843-1.885-1.408.057-.653,2.188,1.138,2.574.676a1.943,1.943,0,0,0,.329-1.834Z" transform="translate(-1431.784 -401.513)" fill="#1f1f39"/>
        <path id="Pfad_8213" data-name="Pfad 8213" d="M1773.65,708.1l-2.714.352c-.419.054-.7.579-.619,1.173l.213,1.647a.014.014,0,0,0,.017.012l.505-.065a.014.014,0,0,0,.012-.017l-.151-1.161c-.057-.443.149-.837.463-.878l2.03-.262c.314-.041.614.286.671.73l.151,1.161a.014.014,0,0,0,.017.012l.505-.065a.014.014,0,0,0,.012-.017l-.213-1.647c-.077-.593-.478-1.031-.9-.977Z" transform="translate(-1541.619 -601.317)" fill="#201b2c"/>
        <path id="Pfad_8214" data-name="Pfad 8214" d="M1771.917,689.132s-.011.008-.011.014c-.028.617-.208.47-.356,1.288s-.728,2-.3,2.087.7-.425.9-.541-.226.4.056.763a1.617,1.617,0,0,0,1.788.146,2.07,2.07,0,0,0,.668-1.8,9.1,9.1,0,0,0-.65-2.2c-.107-.329-1.939.2-2.09.24Z" transform="translate(-1542.288 -584.924)" fill="#eeada5"/>
        <path id="Pfad_8215" data-name="Pfad 8215" d="M1770.926,710.046c-.419.054-.695.581-.618,1.173l.214,1.647a.014.014,0,0,0,.016.012l.5-.065a.014.014,0,0,0,.012-.017l-.151-1.161c-.057-.443.15-.837.463-.878h0l.124-.761a.014.014,0,0,0-.016-.017l-.549.065Z" transform="translate(-1541.61 -602.921)" fill="#201b2c"/>
        <path id="Pfad_8216" data-name="Pfad 8216" d="M1730.35,719.067l.947,7.646a.843.843,0,0,0,.941.733h.01l13.675-1.518a1.341,1.341,0,0,0,1.339-1.731l-.678-7.253a1.841,1.841,0,0,0-1.983-1.411l-12.151,1.5-.456.056a1.8,1.8,0,0,0-1.644,1.981Z" transform="translate(-1507.677 -607.622)" fill="#54353a"/>
        <path id="Pfad_8217" data-name="Pfad 8217" d="M1730.342,727.613l.947,7.647a.843.843,0,0,0,.941.733h0s.011,0,.012-.011a6.06,6.06,0,0,0-.1-2.313,22.844,22.844,0,0,1,.3-8.073.015.015,0,0,0-.017-.017l-.436.053A1.8,1.8,0,0,0,1730.342,727.613Z" transform="translate(-1507.669 -616.168)" fill="#775155"/>
        <path id="Pfad_8218" data-name="Pfad 8218" d="M1461.19,923.923c-3.406-.6-3.86-2.116-4.39-6.793-.542,4.415-1.144,6.08-4.631,6.507,3,1.33,4.058,1.812,4.483,6.938C1457.516,925.411,1458.191,924.968,1461.19,923.923Z" transform="translate(-1271.455 -778.836)" fill="#e9bb42"/>
        <path id="Pfad_8219" data-name="Pfad 8219" d="M2155,1181.932c-2.437-.43-2.763-1.514-3.141-4.862-.387,3.159-.819,4.35-3.313,4.656,2.149.952,2.9,1.3,3.208,4.964C2152.374,1183,2152.859,1182.68,2155,1181.932Z" transform="translate(-1862.828 -999.579)" fill="#fff"/>
        <path id="Pfad_8220" data-name="Pfad 8220" d="M740.449,511.056c-2.925-.516-3.316-1.817-3.771-5.836-.466,3.792-.983,5.223-3.978,5.59,2.578,1.143,3.485,1.556,3.851,5.961.742-4.435,1.323-4.816,3.9-5.713Z" transform="translate(-660.474 -429.038)" fill="#e9bb42"/>
        <ellipse id="Ellipse_18" data-name="Ellipse 18" cx="6.544" cy="4.005" rx="6.544" ry="4.005" transform="translate(336.031 189.826)" fill="#003f5c"/>
        <ellipse id="Ellipse_19" data-name="Ellipse 19" cx="6.544" cy="4.005" rx="6.544" ry="4.005" transform="translate(264.339 189.435)" fill="#003f5c"/>
        <path id="Pfad_8221" data-name="Pfad 8221" d="M2480.161,1068.975a2.735,2.735,0,1,0,2.735-2.735A2.732,2.732,0,0,0,2480.161,1068.975Zm-10.938,0a2.735,2.735,0,1,0,2.735-2.735A2.732,2.732,0,0,0,2469.223,1068.975Zm8.2,9.913a6.864,6.864,0,0,1-5.418-2.658,1.707,1.707,0,1,0-2.838,1.9,10.248,10.248,0,0,0,16.514,0,1.708,1.708,0,0,0-2.841-1.9A6.862,6.862,0,0,1,2477.428,1078.888Z" transform="translate(-2134.856 -905.461)" fill="#00628f"/>
        <path id="Pfad_8222" data-name="Pfad 8222" d="M2435.166,1036.362c4.46-5.487,14.383-18.784,14.383-26.253a16.409,16.409,0,0,0-32.818,0c0,7.469,10,20.767,14.382,26.253a2.581,2.581,0,0,0,4.05,0h0Zm3.444-26.254a2.735,2.735,0,1,1,2.735-2.735A2.732,2.732,0,0,1,2438.61,1010.108Zm-10.94-5.469a2.735,2.735,0,1,1-2.735,2.735A2.732,2.732,0,0,1,2427.67,1004.638Zm10.889,9.991a1.708,1.708,0,0,1,2.84,1.9,10.248,10.248,0,0,1-16.514,0,1.707,1.707,0,1,1,2.838-1.9,6.85,6.85,0,0,0,10.836,0Z" transform="translate(-2090.569 -843.86)" fill="#74a1bb"/>
        <path id="Pfad_8223" data-name="Pfad 8223" d="M2004.963,1066.385a2.735,2.735,0,1,0,2.736-2.735A2.732,2.732,0,0,0,2004.963,1066.385Zm-10.94,0a2.735,2.735,0,1,0,2.735-2.735A2.732,2.732,0,0,0,1994.023,1066.385Zm8.2,9.913a6.863,6.863,0,0,1-5.418-2.659,1.707,1.707,0,1,0-2.838,1.9,10.248,10.248,0,0,0,16.515,0,1.708,1.708,0,0,0-2.841-1.9A6.864,6.864,0,0,1,2002.228,1076.3Z" transform="translate(-1731.311 -903.262)" fill="#00628f"/>
        <path id="Pfad_8224" data-name="Pfad 8224" d="M1959.966,1033.772c4.46-5.487,14.382-18.784,14.382-26.253a16.409,16.409,0,0,0-32.818,0c0,7.469,10,20.767,14.382,26.253a2.581,2.581,0,0,0,4.05,0h0Zm3.444-26.254a2.735,2.735,0,1,1,2.735-2.735A2.732,2.732,0,0,1,1963.41,1007.518Zm-10.938-5.469a2.735,2.735,0,1,1-2.736,2.735A2.732,2.732,0,0,1,1952.472,1002.049Zm10.887,9.99a1.708,1.708,0,0,1,2.841,1.9,10.248,10.248,0,0,1-16.514,0,1.707,1.707,0,1,1,2.837-1.9,6.85,6.85,0,0,0,10.836,0Z" transform="translate(-1687.025 -841.66)" fill="#74a1bb"/>
        <ellipse id="Ellipse_20" data-name="Ellipse 20" cx="6.544" cy="4.005" rx="6.544" ry="4.005" transform="translate(193.698 188.435)" fill="#003f5c"/>
        <path id="Pfad_8225" data-name="Pfad 8225" d="M1536.483,1059.766a2.735,2.735,0,1,0,2.735-2.735A2.732,2.732,0,0,0,1536.483,1059.766Zm-10.94,0a2.735,2.735,0,1,0,2.735-2.735A2.732,2.732,0,0,0,1525.543,1059.766Zm8.2,9.913a6.863,6.863,0,0,1-5.418-2.658,1.707,1.707,0,0,0-2.838,1.9,10.248,10.248,0,0,0,16.515,0,1.708,1.708,0,0,0-2.841-1.9A6.863,6.863,0,0,1,1533.748,1069.678Z" transform="translate(-1333.474 -897.64)" fill="#00628f"/>
        <path id="Pfad_8226" data-name="Pfad 8226" d="M1491.486,1027.152c4.46-5.487,14.382-18.784,14.382-26.253a16.409,16.409,0,1,0-32.818,0c0,7.469,10,20.767,14.382,26.253a2.581,2.581,0,0,0,4.05,0h0Zm3.444-26.254a2.735,2.735,0,1,1,2.735-2.735A2.732,2.732,0,0,1,1494.93,1000.9Zm-10.938-5.469a2.735,2.735,0,1,1-2.736,2.735A2.732,2.732,0,0,1,1483.992,995.428Zm10.887,9.99a1.708,1.708,0,0,1,2.841,1.9,10.248,10.248,0,0,1-16.515,0,1.707,1.707,0,0,1,2.838-1.9,6.85,6.85,0,0,0,10.836,0Z" transform="translate(-1289.187 -836.038)" fill="#74a1bb"/>
        <ellipse id="Ellipse_21" data-name="Ellipse 21" cx="6.544" cy="4.005" rx="6.544" ry="4.005" transform="translate(143.634 136.859)" fill="#003f5c"/>
        <path id="Pfad_8227" data-name="Pfad 8227" d="M1204.483,717.725a2.735,2.735,0,1,0,2.735-2.735A2.732,2.732,0,0,0,1204.483,717.725Zm-10.94,0a2.735,2.735,0,1,0,2.735-2.735A2.732,2.732,0,0,0,1193.543,717.725Zm8.2,9.913a6.863,6.863,0,0,1-5.418-2.658,1.707,1.707,0,0,0-2.838,1.9,10.248,10.248,0,0,0,16.515,0,1.708,1.708,0,0,0-2.841-1.9A6.863,6.863,0,0,1,1201.748,727.638Z" transform="translate(-1051.536 -607.176)" fill="#00628f"/>
        <path id="Pfad_8228" data-name="Pfad 8228" d="M1159.486,685.112c4.46-5.487,14.382-18.784,14.382-26.253a16.409,16.409,0,1,0-32.818,0c0,7.469,10,20.767,14.382,26.253a2.582,2.582,0,0,0,4.05,0h0Zm3.444-26.254a2.735,2.735,0,1,1,2.735-2.735A2.732,2.732,0,0,1,1162.93,658.858Zm-10.938-5.469a2.735,2.735,0,1,1-2.736,2.735A2.732,2.732,0,0,1,1151.992,653.388Zm10.887,9.99a1.708,1.708,0,0,1,2.841,1.9,10.248,10.248,0,0,1-16.515,0,1.707,1.707,0,1,1,2.838-1.9,6.85,6.85,0,0,0,10.836,0Z" transform="translate(-1007.249 -545.575)" fill="#74a1bb"/>
        <ellipse id="Ellipse_22" data-name="Ellipse 22" cx="6.544" cy="4.005" rx="6.544" ry="4.005" transform="translate(87.766 120.255)" fill="#003f5c"/>
        <path id="Pfad_8229" data-name="Pfad 8229" d="M833.973,607.605a2.735,2.735,0,1,0,2.735-2.735A2.732,2.732,0,0,0,833.973,607.605Zm-10.938,0a2.735,2.735,0,1,0,2.735-2.735A2.732,2.732,0,0,0,823.035,607.605Zm8.2,9.913a6.863,6.863,0,0,1-5.418-2.658,1.707,1.707,0,0,0-2.838,1.9,10.248,10.248,0,0,0,16.515,0,1.708,1.708,0,0,0-2.841-1.9A6.863,6.863,0,0,1,831.238,617.518Z" transform="translate(-736.896 -513.661)" fill="#00628f"/>
        <path id="Pfad_8230" data-name="Pfad 8230" d="M788.986,574.992c4.46-5.487,14.382-18.784,14.382-26.253a16.409,16.409,0,0,0-32.818,0c0,7.469,10,20.767,14.382,26.253a2.582,2.582,0,0,0,4.05,0h0Zm3.444-26.253A2.735,2.735,0,1,1,795.165,546,2.732,2.732,0,0,1,792.43,548.739Zm-10.94-5.471A2.735,2.735,0,1,1,778.755,546,2.732,2.732,0,0,1,781.49,543.268Zm10.889,9.991a1.708,1.708,0,0,1,2.841,1.9,10.248,10.248,0,0,1-16.515,0,1.707,1.707,0,1,1,2.838-1.9,6.85,6.85,0,0,0,10.836,0Z" transform="translate(-692.617 -452.06)" fill="#74a1bb"/>
        <ellipse id="Ellipse_23" data-name="Ellipse 23" cx="6.544" cy="4.005" rx="6.544" ry="4.005" transform="translate(19.981 109.512)" fill="#003f5c"/>
        <path id="Pfad_8231" data-name="Pfad 8231" d="M384.443,536.355a2.735,2.735,0,1,0,2.735-2.735A2.732,2.732,0,0,0,384.443,536.355Zm-10.938,0a2.735,2.735,0,1,0,2.735-2.735A2.732,2.732,0,0,0,373.5,536.355Zm8.2,9.913a6.863,6.863,0,0,1-5.418-2.659,1.707,1.707,0,0,0-2.838,1.9,10.248,10.248,0,0,0,16.515,0,1.708,1.708,0,0,0-2.841-1.9A6.863,6.863,0,0,1,381.708,546.268Z" transform="translate(-355.15 -453.155)" fill="#00628f"/>
        <path id="Pfad_8232" data-name="Pfad 8232" d="M339.456,503.742c4.46-5.487,14.382-18.784,14.382-26.253a16.409,16.409,0,0,0-32.818,0c0,7.469,10,20.767,14.382,26.253a2.581,2.581,0,0,0,4.05,0h0Zm3.444-26.254a2.735,2.735,0,1,1,2.735-2.735A2.732,2.732,0,0,1,342.9,477.488Zm-10.94-5.469a2.735,2.735,0,1,1-2.735,2.735A2.732,2.732,0,0,1,331.96,472.018Zm10.889,9.991a1.708,1.708,0,0,1,2.841,1.9,10.248,10.248,0,0,1-16.515,0,1.707,1.707,0,1,1,2.838-1.9,6.85,6.85,0,0,0,10.836,0Z" transform="translate(-310.872 -391.553)" fill="#74a1bb"/>
      </g>
      <rect id="Rechteck_1434" data-name="Rechteck 1434" width="444" height="236.02" transform="translate(444 236.02) rotate(180)" fill="none"/>
    </g>
    <g id="Gruppe_2565" data-name="Gruppe 2565" transform="translate(1343.651 540.125)">
      <path id="Pfad_7774" data-name="Pfad 7774" d="M946.38,38.525,932.42,30V11.575" transform="translate(-909.969 -6.018)" fill="none" stroke="#257e35" stroke-linecap="round" stroke-miterlimit="10" stroke-width="4"/>
      <path id="Pfad_7775" data-name="Pfad 7775" d="M912.9,38.525,926.858,30V11.575" transform="translate(-904.408 -6.018)" fill="none" stroke="#257e35" stroke-linecap="round" stroke-miterlimit="10" stroke-width="4"/>
      <text id="z" transform="translate(0 33.198)" fill="#257e35" font-size="8" font-family="Raleway-Bold, Raleway" font-weight="700"><tspan x="0" y="0">z</tspan></text>
      <text id="x" transform="translate(40.21 32.198)" fill="#257e35" font-size="8" font-family="Raleway-Bold, Raleway" font-weight="700"><tspan x="0" y="0">x</tspan></text>
      <text id="y" transform="translate(26.863 4)" fill="#257e35" font-size="8" font-family="Raleway-Bold, Raleway" font-weight="700"><tspan x="0" y="0">y</tspan></text>
      <path id="Pfad_7776" data-name="Pfad 7776" d="M910.143,29.76a6.917,6.917,0,1,1,6.917-6.917,6.916,6.916,0,0,1-6.917,6.917m-.649-6.917a.581.581,0,0,0,.289.516l2.594,1.729a.6.6,0,0,0,.875-.157.626.626,0,0,0-.157-.9l-2.3-1.535V19.169a.653.653,0,0,0-.673-.649.663.663,0,0,0-.648.649Z" transform="translate(-901.652 -7.258)" fill="#a7d2b8"/>
      <path id="Pfad_7777" data-name="Pfad 7777" d="M913.27,20.2v3.329l2.3,1.535a.626.626,0,0,1,.157.9.6.6,0,0,1-.875.157l-2.594-1.729a.581.581,0,0,1-.29-.516V20.2a.649.649,0,0,1,1.3,0" transform="translate(-904.144 -8.291)" fill="#257e35"/>
    </g>
  </g>
</svg>
