<svg id="img-what-if-grey" xmlns="http://www.w3.org/2000/svg" xmlns:xlink="http://www.w3.org/1999/xlink" width="444" height="236.021" viewBox="0 0 444 236.021">
  <defs>
    <clipPath id="clip-path">
      <rect id="Rechteck_1472" data-name="Rechteck 1472" width="444" height="236.02" fill="none"/>
    </clipPath>
  </defs>
  <g id="Gruppe_2696" data-name="Gruppe 2696" clip-path="url(#clip-path)">
    <g id="Gruppe_2695" data-name="Gruppe 2695" transform="translate(49.384 178.519)">
      <path id="Pfad_8713" data-name="Pfad 8713" d="M327.813,1245.6a.316.316,0,0,1-.256-.133.312.312,0,0,1,.075-.436l86.495-61.085a.313.313,0,0,1,.36.511l-86.5,61.085A.306.306,0,0,1,327.813,1245.6Z" transform="translate(-327.5 -1183.89)" fill="#bac1bf"/>
      <path id="Pfad_8714" data-name="Pfad 8714" d="M607.728,1248.608a.313.313,0,0,1-.214-.541l65.5-60.968a.313.313,0,0,1,.427.458l-65.5,60.968a.315.315,0,0,1-.213.084Z" transform="translate(-565.206 -1186.545)" fill="#bac1bf"/>
      <path id="Pfad_8715" data-name="Pfad 8715" d="M870.409,1255.317a.312.312,0,0,1-.246-.505l48.03-61.026a.313.313,0,0,1,.492.386l-48.03,61.027A.313.313,0,0,1,870.409,1255.317Z" transform="translate(-788.278 -1192.192)" fill="#bac1bf"/>
      <path id="Pfad_8716" data-name="Pfad 8716" d="M1097.924,1260.013a.306.306,0,0,1-.151-.039.314.314,0,0,1-.122-.425l33.573-60.609a.313.313,0,1,1,.547.3l-33.573,60.609A.315.315,0,0,1,1097.924,1260.013Z" transform="translate(-981.487 -1196.533)" fill="#bac1bf"/>
      <path id="Pfad_8717" data-name="Pfad 8717" d="M1373.007,1260.832a.35.35,0,0,1-.057,0,.312.312,0,0,1-.25-.365l11.228-60.672a.313.313,0,1,1,.615.115l-11.228,60.672a.313.313,0,0,1-.308.256Z" transform="translate(-1215.089 -1197.175)" fill="#bac1bf"/>
      <path id="Pfad_8718" data-name="Pfad 8718" d="M2232.369,1246.773a.305.305,0,0,1-.179-.057l-86.495-61.085a.313.313,0,0,1,.36-.511l86.495,61.085a.313.313,0,0,1-.181.568Z" transform="translate(-1871.416 -1184.886)" fill="#bac1bf"/>
      <path id="Pfad_8719" data-name="Pfad 8719" d="M2070.719,1249.775a.3.3,0,0,1-.212-.084l-65.5-60.968a.313.313,0,0,1,.427-.457l65.5,60.968a.313.313,0,0,1-.214.541Z" transform="translate(-1751.974 -1187.534)" fill="#bac1bf"/>
      <path id="Pfad_8720" data-name="Pfad 8720" d="M1906.4,1256.487a.313.313,0,0,1-.246-.119l-48.03-61.027a.313.313,0,0,1,.492-.386l48.03,61.026a.312.312,0,0,1-.246.505Z" transform="translate(-1627.263 -1193.186)" fill="#bac1bf"/>
      <path id="Pfad_8721" data-name="Pfad 8721" d="M1760.3,1261.183a.315.315,0,0,1-.274-.161l-33.573-60.609a.313.313,0,1,1,.547-.3l33.573,60.609a.314.314,0,0,1-.122.425A.305.305,0,0,1,1760.3,1261.183Z" transform="translate(-1515.47 -1197.527)" fill="#bac1bf"/>
      <path id="Pfad_8722" data-name="Pfad 8722" d="M1611.056,1261.993a.314.314,0,0,1-.308-.256l-11.228-60.672a.313.313,0,0,1,.615-.115l11.228,60.672a.313.313,0,0,1-.25.365.363.363,0,0,1-.057,0Z" transform="translate(-1407.707 -1198.161)" fill="#bac1bf"/>
      <path id="Pfad_8723" data-name="Pfad 8723" d="M1049.232,1201.472h0l-207.09-.416a.313.313,0,0,1,0-.626h0l207.09.416a.313.313,0,0,1,0,.626Z" transform="translate(-764.274 -1197.936)" fill="#bac1bf"/>
      <path id="Pfad_8724" data-name="Pfad 8724" d="M1012.8,1254.278h0l-225.8-.832a.313.313,0,0,1,0-.626h0l225.8.832a.313.313,0,0,1,0,.626Z" transform="translate(-717.44 -1242.426)" fill="#bac1bf"/>
      <path id="Pfad_8725" data-name="Pfad 8725" d="M937.1,1317.292h0l-254.911-.416a.313.313,0,0,1,0-.626h0l254.911.416a.313.313,0,0,1,0,.626Z" transform="translate(-628.443 -1296.292)" fill="#bac1bf"/>
      <path id="Pfad_8726" data-name="Pfad 8726" d="M872.038,1383.482h0l-283.606-.416a.313.313,0,0,1,0-.626h0l283.606.416a.313.313,0,0,1,0,.626Z" transform="translate(-548.821 -1352.5)" fill="#bac1bf"/>
      <path id="Pfad_8727" data-name="Pfad 8727" d="M809.247,1448.367h0L494.66,1446.5a.313.313,0,0,1,0-.626h0l314.585,1.871a.313.313,0,0,1,0,.626Z" transform="translate(-469.19 -1406.366)" fill="#bac1bf"/>
    </g>
  </g>
  <path id="Pfad_8728" data-name="Pfad 8728" d="M950.247,1353.111c.045,4.382-43.68,9.925-94.122,10.45s-91.37-2.6-91.415-6.986,40.808-8.36,91.251-8.885,94.241,1.037,94.286,5.419Z" transform="translate(-649.399 -1144.389)" fill="#5d605a" opacity="0.14"/>
  <path id="Pfad_8729" data-name="Pfad 8729" d="M1931.5,1274.255a19.2,19.2,0,0,1,2.643-2.263,8.62,8.62,0,0,0,2.589-2.747c.915-1.371,5.914-1.674,6.712-1.271,1.313.664-3.343,1.544-3.743,2.313-2.131,4.1.5,1.684.532,2.746s-1.926.7-3.251,1.485c-1.348.8-2.223,2.36-2.852,2.613S1931.5,1274.255,1931.5,1274.255Z" transform="translate(-1640.248 -1076.635)" fill="#e6e6e6"/>
  <path id="Pfad_8730" data-name="Pfad 8730" d="M936.849,1354.45c2.075.514,7.432,1.148,7.432,1.148l1.025-5.558-8.055-.879-3.091,3.318,2.687,1.971Z" transform="translate(-793.297 -1145.719)" fill="#ccc"/>
  <path id="Pfad_8731" data-name="Pfad 8731" d="M916.413,1347.9c.029.608-.479.259-1.4.307-2.1.11-2.648,4.6-3.039,5.665a1.759,1.759,0,0,1-2.781-1.922c.477-2.447,1.069-7.476,1.607-10.151a1.255,1.255,0,0,1,1.155-1.009c2.033-.113,5.02.591,4.943,1.351.146,1.2-.606,3.224-.487,5.757Z" transform="translate(-772.042 -1138.603)" fill="#3d3f51"/>
  <path id="Pfad_8732" data-name="Pfad 8732" d="M971.818,1165.894c1.557,1.464,5.918,4.64,5.918,4.64l3.616-4.343-6.593-4.711-4.32,1.38Z" transform="translate(-824.107 -986.34)" fill="#ccc"/>
  <path id="Pfad_8733" data-name="Pfad 8733" d="M920.2,1148.79c-.273.544-.546-.009-1.371-.416-1.888-.933-6.724,4.726-7.588,5.465a1.759,1.759,0,0,1-1.482-3.038c1.613-1.9,6.758-8.009,8.536-10.077a1.256,1.256,0,0,1,1.5-.314c1.828.9,4.088,2.974,3.648,3.6-.46,1.117-2.107,2.515-3.245,4.782Z" transform="translate(-772.05 -968.339)" fill="#3d3f51"/>
  <path id="Pfad_8734" data-name="Pfad 8734" d="M1064.47,1204.352a67.832,67.832,0,0,1-13.56,2.536h0c-.252.024-.5.048-.753.068h0c-15.932,1.426-33.525-.57-37.1-.771l-1.037-.057c-1.224-.068-3.023-.161-5.154-.275h0c-9.569-.51-25.833-1.4-26.984-1.787,0-.065,0-.128,0-.191,0-.1,0-.2,0-.3h0A46.161,46.161,0,0,1,980.1,1198h0a12.67,12.67,0,0,1,.291-1.764c1.758.053,6.795.5,12.466.855,6.945.436,14.838.734,18.817.014.075-.014.149-.027.222-.042.97-.193,3.687-.63,6.677-1.006a18.44,18.44,0,0,1-6.532-1.291c-2.562-1.307-5.468-2.927-8.435-4.656l-.033-.018c-10.3-5.992-20.3-12.477-21.334-13.27-.439-.336,3.943-6.869,5.077-6.125,1.523,1,25.128,13.743,30.163,14.636,1.1.195,3.093.407,5.709.587,1.693.116,3.648.22,5.783.294,2.437.086,5.11.134,7.908.125,4.132-.012,7.5-1.377,11.368-1.423.17,0,.341,0,.513,0,3.42.065,6.567.186,9.123.4.312.026.617.054.912.083.36.036.6.665.746,1.642.018.112.033.226.048.347a31.237,31.237,0,0,1,.288,5.517h0c0,.069,0,.131,0,.2v.009c-.012.676-.023,1.307-.03,1.868a8.135,8.135,0,0,0,.62,2.936,16.5,16.5,0,0,0,.872,1.873c.009.018.02.036.03.056.042.077.084.154.127.229h0c.023.042.045.083.068.124.472.829.977,1.6,1.432,2.239.216.3.421.582.6.825.517.68.873,1.092.873,1.092Z" transform="translate(-832.113 -994.118)" fill="#a8a8a8"/>
  <path id="Pfad_8735" data-name="Pfad 8735" d="M1413.336,1345.1a.042.042,0,0,1-.006.011l.069.01A.529.529,0,0,0,1413.336,1345.1Z" transform="translate(-1200.213 -1142.271)" fill="#3d3f51" opacity="0.46"/>
  <path id="Pfad_8736" data-name="Pfad 8736" d="M1686.792,1254.4l-.032-4.934c2.084-.654,6.626-3.322,8.6-3.541,2.164-.24,2.107-.024,2.107-.024l-.979,3.713-.46,1.748a5.694,5.694,0,0,0-2.185.823,11.828,11.828,0,0,0-3.176,2.812c-.864,1.062-3.872-.6-3.872-.6Z" transform="translate(-1432.412 -1057.953)" fill="#e6e6e6"/>
  <path id="Pfad_8737" data-name="Pfad 8737" d="M1729.046,1263.485a7.889,7.889,0,0,0-2.381.941c-2.119-2.452-.445-4.754.565-4.275a21.509,21.509,0,0,1,2.275,1.586Z" transform="translate(-1465.432 -1070.078)" fill="#3d3f51" opacity="0.14"/>
  <g id="Gruppe_2697" data-name="Gruppe 2697" transform="translate(261.438 180.901)">
    <path id="Pfad_8738" data-name="Pfad 8738" d="M1747.416,1227.618c-1.022,1.516-1.668,5.469-2.625,4.7s-2.156,3.206-3.2,2.419c-2.539-1.907-4.129-5.76-3.491-7.212a30.019,30.019,0,0,1,3.489-4.65l5.829,4.75Z" transform="translate(-1737.326 -1219.374)" fill="#e6e6e6"/>
    <path id="Pfad_8739" data-name="Pfad 8739" d="M1740.231,1207.247c.707.718.584.923,1.342,1.1s.419-1.339,1.574-.687,2.324,1.487,3.367.406c1.509-1.565-.2-2.5-1.279-3.052-.7-.353.195-1.764-1.039-2.663-.968-.706-1.3-.074-2.186-.665-.538-.357-.855-1.971-2.122-2-2.351-.047-2.245,2.305-4.412,2.53-2.527.264-1.653,5.863-.986,5.807.778-.065,1.288-2.034,2.007-2.014,1.084.03.707.672.844,1.657.148,1.052,1.234,1.983,1.4.311s.853-1.38,1.493-.73Z" transform="translate(-1733.785 -1199.685)" fill="#424242"/>
  </g>
  <path id="Pfad_8740" data-name="Pfad 8740" d="M1492.772,1243.061c1.117,1.686-1.59,3.93-1.232,5.477.217.938,1.446-.006,2.023.285.356.18.642.226.27.9-6.374,11.486-32.305,13.482-32.305,13.482s-2.518-10.72-6.14-12.543c-5.3-2.666-1.455-2.572-.051-2.824s31.417-7.095,31.417-7.095A19.269,19.269,0,0,1,1492.772,1243.061Z" transform="translate(-1233.622 -1053.648)" fill="#fff"/>
  <path id="Pfad_8741" data-name="Pfad 8741" d="M1487.08,1293.03c5.027,7.027,14.648,9.728,17.888,9.022s10.377-7.006,14.768-8.88c1.172,1.342,1.9,3.995,2.6,5.438-3.437,2.428-12.074,9.5-16.741,9.857-4.812.366-22.834-4.325-24.395-4.408-2.309-.122-13.325,2.72-15.758,3.8s-14.613,4.114-19.9,2.963c-2.873-.626,1.42-3.1,2.981-3.631,2.589-.888,9.427-4.5,16.349-5.888,6.59-1.318,10.849-.971,15.91-3.313A18.939,18.939,0,0,0,1487.08,1293.03Z" transform="translate(-1226.749 -1098.053)" fill="#5c5c5c"/>
  <path id="Pfad_8742" data-name="Pfad 8742" d="M1459.308,1227.635l-.018.009a4.55,4.55,0,0,0-.553.288s0,0,0,0c-.915.541-2.366,1.615-4.159,2.864-.336.232-.682.473-1.042.718-.264.178-.531.359-.805.541-.41.273-.835.549-1.268.825q-.832.531-1.713,1.051c-.38.223-.763.443-1.151.657-.639.354-1.288.695-1.947,1.013l-.014.006q-.416.2-.834.392h0c-.645.291-1.3.559-1.951.8q-.957.35-1.918.6h0c-.086.023-.17.045-.256.065l-.05.012c-.042.012-.086.021-.127.032a17.892,17.892,0,0,1-4.6.285c-.469-.018-.946-.045-1.419-.078-.1-.006-.19-.012-.283-.02-.175-.014-.35-.027-.523-.039l-.244-.02-.22-.018c-.081-.006-.163-.013-.244-.021s-.16-.013-.24-.021l-.228-.02-.391-.035c-.124-.012-.247-.021-.369-.033l-.091-.008-.359-.033-.083-.006c-.122-.012-.241-.021-.359-.032l-.084-.007c-.213-.02-.421-.036-.624-.053l-.087-.008c-.893-.071-1.7-.119-2.366-.109-.088,0-.173,0-.26.006h-.042c-.134,0-.267.011-.4.021a12.133,12.133,0,0,0-3.513.736c-2.217.823-4.445,2.892-6.451,4.228a5.1,5.1,0,0,1-3.317,1.19,2.078,2.078,0,0,1-.567-.17,1.339,1.339,0,0,1-.749-1.048,3.781,3.781,0,0,1-.015-1.084v-.009a13.319,13.319,0,0,1,.475-2.161c.321-1.117.742-2.34,1.092-3.534.382-1.306-1.286-.835-.292-3.767.442-1.3.623-2.14,1.713-2.576a11.8,11.8,0,0,1,4.427-.329c4.218.173,16.691-4.365,20.214-5.349q.665-.185,1.347-.369c3.477-.941,8.833,0,10.934.979a39.54,39.54,0,0,1,3.906,2.045,8.926,8.926,0,0,1,2.129,1.586Z" transform="translate(-1200.216 -1038.274)" fill="#5c5c5c"/>
  <g id="Gruppe_2698" data-name="Gruppe 2698" transform="translate(275.048 180.35)" opacity="0.77">
    <path id="Pfad_8743" data-name="Pfad 8743" d="M1838.536,1270.368a.171.171,0,0,0-.143.3c1.083.872,2.75,1.6,3.051.968C1841.7,1271.087,1839.6,1270.585,1838.536,1270.368Z" transform="translate(-1836.174 -1259.155)" fill="#e6e6e6"/>
    <path id="Pfad_8744" data-name="Pfad 8744" d="M1824.042,1200.248a.171.171,0,0,0,.308.121c1.117-1.508,2.036-3.966,1.134-4.317C1824.692,1195.742,1824.21,1198.909,1824.042,1200.248Z" transform="translate(-1824.041 -1196.03)" fill="#e6e6e6"/>
    <path id="Pfad_8745" data-name="Pfad 8745" d="M1841.934,1247.006a.171.171,0,0,0,.008.33c1.824.437,4.445.318,4.415-.651C1846.331,1245.834,1843.231,1246.635,1841.934,1247.006Z" transform="translate(-1839.131 -1238.726)" fill="#e6e6e6"/>
    <path id="Pfad_8746" data-name="Pfad 8746" d="M1840.646,1227.732a.171.171,0,0,0,.137.3c1.209-.232,2.619-.911,2.373-1.475C1842.945,1226.075,1841.44,1227.129,1840.646,1227.732Z" transform="translate(-1838.084 -1221.851)" fill="#e6e6e6"/>
  </g>
  <g id="Gruppe_2699" data-name="Gruppe 2699" transform="translate(219.893 61.526)" opacity="0.77">
    <path id="Pfad_8747" data-name="Pfad 8747" d="M1460.5,430.857a.3.3,0,0,1-.54.2c-1.337-2.009-2.337-5.009-1.194-5.427C1459.759,425.269,1460.3,428.979,1460.5,430.857Z" transform="translate(-1458.27 -422.955)" fill="#424242"/>
    <path id="Pfad_8748" data-name="Pfad 8748" d="M1549.108,480.18a.3.3,0,0,1-.161-.55c2.783-1.695,7.176-2.9,7.644-1.282C1557,479.765,1551.45,480.1,1549.108,480.18Z" transform="translate(-1535.151 -467.097)" fill="#424242"/>
    <path id="Pfad_8749" data-name="Pfad 8749" d="M1503.108,415.628a.3.3,0,0,1-.57-.065c-.467-3.222.151-7.734,1.822-7.53C1505.825,408.212,1503.955,413.446,1503.108,415.628Z" transform="translate(-1495.735 -408.026)" fill="#424242"/>
    <path id="Pfad_8750" data-name="Pfad 8750" d="M1531.53,439.9a.3.3,0,0,1-.5-.285c.591-2.055,1.987-4.385,2.924-3.871.807.443-1.255,2.879-2.42,4.156Z" transform="translate(-1520.046 -431.502)" fill="#424242"/>
  </g>
  <path id="Pfad_8751" data-name="Pfad 8751" d="M1505.48,1277.428c.464-.032.947-.053,1.448-.059,3.085-.044,9.221,1.129,12.819.274a40.869,40.869,0,0,0,5.153-1.91l-4.782-5.843C1517.987,1275.354,1508.42,1276.366,1505.48,1277.428Z" transform="translate(-1278.468 -1078.402)" fill="#3d3f51" opacity="0.17"/>
  <path id="Pfad_8752" data-name="Pfad 8752" d="M1645.99,1335.682a13.375,13.375,0,0,0,2.823,4.7c3.517-.89,7.32.41,8.533.473a36.825,36.825,0,0,1,4.656.754c-2.609-3.954-11.4-5.614-14.1-6.3-.394.051-1.508.321-1.915.372Z" transform="translate(-1397.79 -1133.958)" fill="#3d3f51" opacity="0.17"/>
  <g id="Gruppe_2700" data-name="Gruppe 2700" transform="translate(219.943 194.447)">
    <path id="Pfad_8753" data-name="Pfad 8753" d="M1627.165,1294.05c-.2-.051-.7,3.731-2.535,5.566a5.53,5.53,0,0,1-1.758,1.221c-1.959.817-7.739,1.689-10.362,2.257a13.515,13.515,0,0,1,1.43-2.4,35.562,35.562,0,0,0,8-1.8,8.042,8.042,0,0,0,1.972-1.366,13.331,13.331,0,0,0,2.443-3.209c.29-.511.157-1.089.651-1.286.657-.262.416,1.078.159,1.013Z" transform="translate(-1589.301 -1292.478)" fill="#a8a8a8" opacity="0.18"/>
    <path id="Pfad_8754" data-name="Pfad 8754" d="M1497.24,1290.077a2.458,2.458,0,0,1,.152.473c.048.238.047.472-.1.572a.907.907,0,0,1-.865.112c-.02,0-.042.015-.072.053-.16.223-.487,1.081-1.031,2.087-.032.057-.063.113-.095.173a8.467,8.467,0,0,1-2.8,3.176,4.452,4.452,0,0,1-.62.317,47.092,47.092,0,0,1-7.3,1.7c-.626.127-1.221.258-1.761.4-.172.045-.339.092-.5.139a8.374,8.374,0,0,0-1.108.4c-1.422.65-2.729,2.579-4.338,4.4a17.492,17.492,0,0,1-1.843,1.834,9.338,9.338,0,0,1-1.742,1.176,71.869,71.869,0,0,1-11.431,3.464,4.4,4.4,0,0,1-.769.1,2.914,2.914,0,0,1-2.381-1.261c-.234-.543.508-1.151,1.826-1.888a4.8,4.8,0,0,1,1.407-.378c2.34-.394,6.7-.682,10.224-2.6a10.9,10.9,0,0,0,3.6-3.073c1.31-1.7,2.013-3.4,3.884-4.56a5.409,5.409,0,0,1,.89-.437,11.042,11.042,0,0,1,2.771-.617c.547-.06,1.107-.1,1.666-.128,2.411-.121,4.792-.035,5.971-.6a7.99,7.99,0,0,0,2.024-1.417c.241-.225.468-.462.68-.7.143-.163.279-.327.41-.5a15.792,15.792,0,0,0,1.3-1.96c.258-.455.261-.678.606-.859.042-.023.092-.045.148-.069a.88.88,0,0,1,1.191.48Z" transform="translate(-1458.597 -1289.517)" fill="#a8a8a8"/>
  </g>
  <g id="Gruppe_2701" data-name="Gruppe 2701" transform="translate(305.603 198.591)">
    <path id="Pfad_8755" data-name="Pfad 8755" d="M2026.771,1345.434c-1.235,5.967,9.123,7.238,16.516,6.505,7.033-3.785,11.149-16.4,10.711-17.4a7.424,7.424,0,0,0-1.508-1.989Z" transform="translate(-2026.67 -1330.205)" fill="#5d605a" opacity="0.23"/>
    <path id="Pfad_8756" data-name="Pfad 8756" d="M2027.34,1342.385c0,2.928,8.17,5.419,15.563,4.687,7.033-3.785,12.1-15.123,11.664-16.123a7.429,7.429,0,0,0-1.508-1.989Z" transform="translate(-2027.239 -1327.156)" fill="#424242"/>
    <path id="Pfad_8757" data-name="Pfad 8757" d="M2044.115,1343.847l-.366.538c-1.178-.241-2.125-.689-2.971.577-.859,1.288-1.609,1.877-1.449,2.146a7.331,7.331,0,0,0,2.17.581l-.454.665s-2.821-.44-3.042-.807.807-1.173,1.978-2.93,2.491-1.1,4.133-.774Z" transform="translate(-2036.269 -1339.46)" fill="#a8a8a8"/>
    <path id="Pfad_8758" data-name="Pfad 8758" d="M2065.707,1345.922l-2.25,3.3-.057-.011,2.25-3.305C2065.67,1345.913,2065.688,1345.918,2065.707,1345.922Z" transform="translate(-2057.862 -1341.55)" fill="#5d605a"/>
    <path id="Pfad_8759" data-name="Pfad 8759" d="M2029.457,1327.656c1.758-2.462,8.363-10.849,12.32-10.655s12.393.694,11.514,2.648-7.666,14.348-10.962,15.007-14.848-1.332-15.069-2.431,2.2-4.57,2.2-4.57Z" transform="translate(-2027.159 -1316.998)" fill="#a8a8a8"/>
  </g>
  <path id="Pfad_8760" data-name="Pfad 8760" d="M1852.631,1479.152c1.341.579.567-.422,2.22.588,1.6.977,2.738,1.791,4.408,1.511,1.369-.23,3.678-.455,4.131,1.508.409,1.769-2.753,2.407-3.819,2.321-4.091-.332-1.612,1.457-2.788,2.037s-.4-1.529-3.325-2.9c-1.755-.822-2.113-.066-2.719-.645s1.892-4.423,1.892-4.423Z" transform="translate(-1571.584 -1256.108)" fill="#e6e6e6"/>
  <path id="Pfad_8761" data-name="Pfad 8761" d="M1612.9,1237.939c7.381,16.192,13.589,21.863,15.954,23.814s17.688,9.559,17.68,10.169-2.164,6.351-3.6,6.258-15.694-7.375-20.027-10.952-17.517-22.478-17.517-22.478-3.791-6.341.069-8.33,7.44,1.517,7.44,1.517Z" transform="translate(-1361.904 -1049.462)" fill="#5c5c5c"/>
  <path id="Pfad_8762" data-name="Pfad 8762" d="M1242.338,1219.922c-3.637,2.23-36.389,10.026-36.389,10.026s-33.56,12.2-37.9.94,69.127-12.217,69.127-12.217Z" transform="translate(-991.76 -1034.906)" fill="#5d605a" opacity="0.44"/>
  <g id="Gruppe_2702" data-name="Gruppe 2702" transform="translate(171.651 72.947)">
    <path id="Pfad_8763" data-name="Pfad 8763" d="M1278.21,578.255a12.849,12.849,0,0,1-7.541,5.033l-108.592,25.96a12.829,12.829,0,0,1-8.82-.983,13.026,13.026,0,0,1-6.489-16.07l33.382-99.774a13,13,0,0,1,21.676-4.652l5.318,5.219,69.893,68.6a13.018,13.018,0,0,1,1.17,16.67Z" transform="translate(-1144.839 -483.761)" fill="#424242"/>
    <path id="Pfad_8764" data-name="Pfad 8764" d="M1270.56,583.415a12.849,12.849,0,0,1-7.541,5.033l-108.592,25.96a12.829,12.829,0,0,1-8.82-.983,13.026,13.026,0,0,1-6.488-16.07l33.382-99.774a13,13,0,0,1,21.676-4.652l5.318,5.219,69.893,68.6a13.018,13.018,0,0,1,1.17,16.67Z" transform="translate(-1138.342 -488.142)" fill="#ccc"/>
    <path id="Pfad_8765" data-name="Pfad 8765" d="M1232.751,696.156a11.573,11.573,0,0,1-10.815-15.435l25.891-77.384,0-.013a11.556,11.556,0,0,1,19.2-4.141l58.333,57.249.015.015a11.557,11.557,0,0,1-5.649,19.245l-84.222,20.135a11.922,11.922,0,0,1-2.762.329Zm17.813-91.872-25.889,77.383,0,.014a8.66,8.66,0,0,0,10.171,11.33l84.223-20.135a8.66,8.66,0,0,0,4.246-14.406l-58.332-57.248-.015-.015a8.661,8.661,0,0,0-14.4,3.078Z" transform="translate(-1208.748 -578.772)" fill="#424242"/>
    <path id="Pfad_8766" data-name="Pfad 8766" d="M1443.42,722.3c1.749,7.3,5.816,24.28,8.087,31.566,1.594,8.554,6.57,10.12,12.149,5.424-.68-8.729-4.34-27.454-6.3-35.864C1455.722,715.611,1447.057,718.594,1443.42,722.3Zm11.888,52.026c1.856,9.99,16.5,6.489,13.642-3.262C1467.094,761.071,1452.446,764.573,1455.308,774.323Z" transform="translate(-1397.417 -683.116)" fill="#424242"/>
  </g>
  <path id="Pfad_8767" data-name="Pfad 8767" d="M2017.84,751.116a39.02,39.02,0,0,1-12.894-1.212,2.955,2.955,0,0,1-1.81-1.028,3,3,0,0,1,3.109-4.492,4.189,4.189,0,0,0,1.948.071c.785-.284,1.306-1.181,1.832-1.963s1.24-1.555,2.051-1.433c.608.092,1.087.663,1.628,1.022a1.074,1.074,0,0,0,1.638-.264c.664-1.413-.268-5.287,3.151-5.287,4.937,0,4.13,3.9,4.724,4.726.9,1.255,2.5.977,3.809.553s2.859-.828,3.866.294c.873.973.964,2.755,1.891,3.645.988.945,2.392.442,3.589.017s2.741-.581,3.437.71a3.129,3.129,0,0,1-.68,3.447,4.584,4.584,0,0,1-2.963,1.066c-6.763.513-12.9-.283-18.327.127Z" transform="translate(-1700.731 -625.468)" fill="#e6e6e6" opacity="0.86"/>
  <path id="Pfad_8768" data-name="Pfad 8768" d="M990.508,512.923c1.918,0,5.858,3.952.226,4.586s-14.069.342-17.481.356c-5.572.021-6.954-.243-6.909-2.888.026-1.531.754-4.73,3.691-5.133,3.055-.418,1.06,2.6,4.791,2.723,3.177.1,3.724-3.492,6.829-3.553,3.673-.071,3,3.82,5.124,4.453,2.337.7,1.813-.543,3.731-.543Z" transform="translate(-820.628 -432.259)" fill="#e6e6e6"/>
</svg>
