<svg xmlns="http://www.w3.org/2000/svg" xmlns:xlink="http://www.w3.org/1999/xlink" width="444" height="236.021" viewBox="0 0 444 236.021">
  <defs>
    <clipPath id="clip-path">
      <rect id="Rechteck_1471" data-name="Rechteck 1471" width="444" height="236.02" fill="none"/>
    </clipPath>
    <clipPath id="clip-path-2">
      <path id="Pfad_8712" data-name="Pfad 8712" d="M452.372,129.931H0V-171.65H452.372" transform="translate(0 171.65)" fill="none"/>
    </clipPath>
    <radialGradient id="radial-gradient" cx="0.326" cy="0.439" r="0.42" gradientTransform="matrix(0.918, 0.823, 1.33, -0.568, 90.354, -124.525)" gradientUnits="objectBoundingBox">
      <stop offset="0.15" stop-color="#e43625"/>
      <stop offset="0.23" stop-color="#e12d22"/>
      <stop offset="0.35" stop-color="#d9151c"/>
      <stop offset="0.41" stop-color="#d50819"/>
      <stop offset="0.86" stop-color="#b10a18"/>
    </radialGradient>
  </defs>
  <g id="img-what-if-to" clip-path="url(#clip-path)">
    <g id="Gruppe_2694" data-name="Gruppe 2694" transform="translate(0 -25.883)" clip-path="url(#clip-path-2)">
      <path id="Pfad_8526" data-name="Pfad 8526" d="M327.813,1245.6a.316.316,0,0,1-.256-.133.312.312,0,0,1,.075-.436l86.495-61.085a.313.313,0,0,1,.36.511l-86.5,61.085A.307.307,0,0,1,327.813,1245.6Z" transform="translate(-278.116 -979.487)" fill="#a5cee0"/>
      <path id="Pfad_8527" data-name="Pfad 8527" d="M607.728,1248.608a.313.313,0,0,1-.214-.541l65.5-60.968a.313.313,0,0,1,.427.458l-65.5,60.968a.314.314,0,0,1-.213.084Z" transform="translate(-515.822 -982.142)" fill="#a5cee0"/>
      <path id="Pfad_8528" data-name="Pfad 8528" d="M870.409,1255.318a.312.312,0,0,1-.246-.505l48.03-61.026a.313.313,0,0,1,.492.386l-48.03,61.027A.313.313,0,0,1,870.409,1255.318Z" transform="translate(-738.894 -987.789)" fill="#a5cee0"/>
      <path id="Pfad_8529" data-name="Pfad 8529" d="M1097.924,1260.013a.3.3,0,0,1-.151-.039.314.314,0,0,1-.122-.425l33.573-60.609a.313.313,0,0,1,.547.3l-33.574,60.609A.315.315,0,0,1,1097.924,1260.013Z" transform="translate(-932.103 -992.131)" fill="#a5cee0"/>
      <path id="Pfad_8530" data-name="Pfad 8530" d="M1373.007,1260.832a.364.364,0,0,1-.057,0,.312.312,0,0,1-.25-.365l11.228-60.672a.313.313,0,1,1,.615.115l-11.228,60.672a.313.313,0,0,1-.308.256Z" transform="translate(-1165.705 -992.773)" fill="#a5cee0"/>
      <path id="Pfad_8531" data-name="Pfad 8531" d="M2232.369,1246.773a.307.307,0,0,1-.18-.057l-86.495-61.085a.313.313,0,0,1,.36-.511l86.5,61.085a.313.313,0,0,1-.181.569Z" transform="translate(-1822.032 -980.483)" fill="#a5cee0"/>
      <path id="Pfad_8532" data-name="Pfad 8532" d="M2070.719,1249.775a.3.3,0,0,1-.213-.084l-65.5-60.968a.313.313,0,0,1,.427-.457l65.5,60.968a.313.313,0,0,1-.214.541Z" transform="translate(-1702.59 -983.131)" fill="#a5cee0"/>
      <path id="Pfad_8533" data-name="Pfad 8533" d="M1906.4,1256.487a.313.313,0,0,1-.246-.119l-48.03-61.026a.313.313,0,0,1,.492-.386l48.03,61.026a.312.312,0,0,1-.246.505Z" transform="translate(-1577.879 -988.783)" fill="#a5cee0"/>
      <path id="Pfad_8534" data-name="Pfad 8534" d="M1760.3,1261.183a.315.315,0,0,1-.274-.161l-33.573-60.609a.313.313,0,1,1,.547-.3l33.573,60.609a.314.314,0,0,1-.122.425A.3.3,0,0,1,1760.3,1261.183Z" transform="translate(-1466.086 -993.124)" fill="#a5cee0"/>
      <path id="Pfad_8535" data-name="Pfad 8535" d="M1611.056,1261.993a.314.314,0,0,1-.308-.256l-11.228-60.672a.313.313,0,0,1,.615-.115l11.228,60.672a.313.313,0,0,1-.25.365.363.363,0,0,1-.057,0Z" transform="translate(-1358.323 -993.758)" fill="#a5cee0"/>
      <path id="Pfad_8536" data-name="Pfad 8536" d="M1049.232,1201.472h0l-207.09-.416a.313.313,0,0,1,0-.626h0l207.09.416a.313.313,0,0,1,0,.626Z" transform="translate(-714.89 -993.533)" fill="#a5cee0"/>
      <path id="Pfad_8537" data-name="Pfad 8537" d="M1012.8,1254.278h0l-225.8-.832a.313.313,0,0,1,0-.626h0l225.8.832a.313.313,0,0,1,0,.626Z" transform="translate(-668.056 -1038.023)" fill="#a5cee0"/>
      <path id="Pfad_8538" data-name="Pfad 8538" d="M937.1,1317.292h0l-254.912-.416a.313.313,0,0,1,0-.626h0l254.912.416a.313.313,0,0,1,0,.626Z" transform="translate(-579.059 -1091.889)" fill="#a5cee0"/>
      <path id="Pfad_8539" data-name="Pfad 8539" d="M872.038,1383.482h0l-283.606-.416a.313.313,0,0,1,0-.626h0l283.606.416a.313.313,0,0,1,0,.626Z" transform="translate(-499.437 -1148.098)" fill="#a5cee0"/>
      <path id="Pfad_8540" data-name="Pfad 8540" d="M809.247,1448.367h0L494.66,1446.5a.313.313,0,0,1,0-.626h0l314.585,1.871a.313.313,0,0,1,0,.626Z" transform="translate(-419.807 -1201.963)" fill="#a5cee0"/>
      <path id="Pfad_8541" data-name="Pfad 8541" d="M1346.61,1491.994c0,1.9-22.147,4.1-47.665,4.1s-46.205-1.54-46.205-3.439,20.687-3.44,46.205-3.44,47.665.875,47.665,2.773Z" transform="translate(-1063.839 -1238.776)" fill="#323241" opacity="0.11"/>
      <path id="Pfad_8542" data-name="Pfad 8542" d="M1375.36,1026.116a.388.388,0,0,0,.222-.288,15.572,15.572,0,0,1,7.08-10.982.386.386,0,1,0-.425-.645,16.31,16.31,0,0,0-7.416,11.5.386.386,0,0,0,.318.445.4.4,0,0,0,.223-.029Z" transform="translate(-1167.506 -835.331)" fill="#603a3e"/>
      <path id="Pfad_8543" data-name="Pfad 8543" d="M1369.224,991.671a.388.388,0,0,0,.19-.187,17.85,17.85,0,0,1,3.817-5.5,18.96,18.96,0,0,1,5.612-3.6s0,0,0,0a.387.387,0,0,0-.317-.706,17.849,17.849,0,0,0-9.815,9.48.386.386,0,0,0,.51.516Z" transform="translate(-1162.294 -807.737)" fill="#603a3e"/>
      <path id="Pfad_8544" data-name="Pfad 8544" d="M103.028,212.874c1.8-10.647,8.352-26.082,7.236-30.161-3.028-11.068-19.428-19-28.466-19.395C68.77,162.746,71.03,173.7,75.02,184.439c4.549,12.241,9.513,14.936,11.311,19.788s.948,14.125-4.611,14.31-18.636-23-25.532-27.589S34.41,163.814,29.855,150.942c-9.329-7.138-12.235-5.931-19.769-3.614-.65.2-1.906.615-3.673,1.212l-.053.017c-2.566.87-6.194,2.117-10.6,3.648C-32.016,161.843-135.6,177.531-153,184.608l-.113.045,3.441-65.5c30.981-6.413,105.5-7.417,127.783-11.014,5.6-.9,10.741-1.651,15.332-2.2a114.832,114.832,0,0,1,16.427-1.074c36.28,1.221,42.93,2.722,60.745,13.5q1.463.887,3.037,1.856c20.209,12.467,28.153,16.51,32.823,24.01,10.421,16.735,16.751,33.417,16.676,39.917-.057,5-8.958,30.451-12.878,36.306-2.352,3.513-7.374-.859-7.249-7.576Z" transform="translate(130.022 -63.141)" fill="#efa88f"/>
      <path id="Pfad_8545" data-name="Pfad 8545" d="M4.468,138.9v.012c-.057,1.081-.311,1.791-.8,2.024-.535.258-3.871,1.588-9.378,3.77-18.384,7.28-105.967,18.93-149.694,36.9l4.163-79.254c33.583-6.207,107.859-5.965,125.161-7.93,9.839-1.117,15.8-1.3,16.456-.255A21.621,21.621,0,0,1-8.5,96.291,205.239,205.239,0,0,1-.635,116.98C2.291,125.924,4.682,134.919,4.468,138.9Z" transform="translate(131.967 -53.497)" fill="#e6eff1"/>
      <path id="Pfad_8546" data-name="Pfad 8546" d="M-7.9,148.818a.312.312,0,0,1-.063.03c-3.391,1.454-98.034,22.887-149.74,39.074l1.766-33.619,2.775-52.787c44.984-8.585,123.493-9.162,124.8-7.806a3.741,3.741,0,0,1,.335.431,42.256,42.256,0,0,1,2.245,4.074c2.324,4.619,5.736,12.136,8.995,19.984a228.4,228.4,0,0,1,8.07,21.955c.216.748.409,1.46.579,2.129.192.769.354,1.485.48,2.14.461,2.4.445,3.993-.238,4.393Z" transform="translate(133.92 -53.221)" fill="#a5cee0"/>
      <path id="Pfad_8547" data-name="Pfad 8547" d="M1.717,396.787c-.537.256-3.871,1.588-9.376,3.768.461,2.4.445,3.993-.238,4.393a.311.311,0,0,1-.063.03c-3.391,1.454-98.034,22.887-149.74,39.074l1.766-33.619c41.879-9.987,125.468-11.065,147.217-14.149,4.483-.635,8.248-1.137,11.181-1.518a.315.315,0,0,0,.051-.006c-.057,1.081-.311,1.79-.8,2.024Z" transform="translate(133.92 -309.351)" fill="#334" opacity="0.26"/>
      <path id="Pfad_8548" data-name="Pfad 8548" d="M1407.36,757.31a13.4,13.4,0,0,1,1.351,7.375c-.306,3.183-5.9-.24-5.677-.507s1.886-6.787,1.886-6.787l2.438-.08Z" transform="translate(-1191.464 -617.232)" fill="#efa88f"/>
      <path id="Pfad_8549" data-name="Pfad 8549" d="M1442.157,651.278a2.062,2.062,0,1,1-.454-.878,2.063,2.063,0,0,1,.454.878Z" transform="translate(-1221.236 -525.846)" fill="#19192e"/>
      <path id="Pfad_8550" data-name="Pfad 8550" d="M1440.177,654.945c-.181.4-.131.808.11.918s.585-.122.766-.519.131-.808-.11-.918S1440.358,654.548,1440.177,654.945Z" transform="translate(-1222.919 -529.838)" fill="#fff" opacity="0.15"/>
      <path id="Pfad_8551" data-name="Pfad 8551" d="M1447.807,655.238a2.063,2.063,0,0,1-3.067,2.253,2.639,2.639,0,0,0,2.613-3.13,2.064,2.064,0,0,1,.454.876Z" transform="translate(-1226.887 -529.805)" fill="#080815"/>
      <path id="Pfad_8552" data-name="Pfad 8552" d="M1434.359,675.592c-.831.032-3.64-.13-2.933.483s2.087.308,2.413,1.77c.348,1.567-.985,1.832-.722,1.993.511.268,1.826,1.659,1.224,2.643s-7.573,2.132-7.573,2.132a2.571,2.571,0,0,1-.217-3.222,1.956,1.956,0,0,1-1.345-2.446c.366-1.264,2.3-2.541.469-1.541-1.042.57-1.739,1.1-2.186,1.288-.338.142-.534.086-.627-.3-.217-.9-1.7-4.6-.758-4.658.039,0,.084,0,.133,0,1.12.006,4.628.659,3.483-.086-.84-.544-2.71-1.752-3.072-2.683-.152-.394-.036-.737.543-.961,1.945-.749,7.613-2.381,8.051-1.772a.81.81,0,0,1,.035.564c-.223,1.268-1.621,3.921-.882,3.7.887-.27,2.785-2.383,3.091-1.22.32,1.209,1.705,4.289.873,4.322Z" transform="translate(-1207.401 -541.469)" fill="#19192e"/>
      <path id="Pfad_8553" data-name="Pfad 8553" d="M1423.488,710.432c-.338.142-.534.086-.627-.3-.217-.9-1.7-4.6-.758-4.658.039,0,.084,0,.133,0a46.181,46.181,0,0,1,1.252,4.962Z" transform="translate(-1207.401 -573.209)" fill="#fff" opacity="0.15"/>
      <path id="Pfad_8554" data-name="Pfad 8554" d="M1435.745,668.8c-1.8.55-7.009,1.81-8.628,2.168-.152-.394-.036-.737.543-.961,1.945-.749,7.614-2.381,8.051-1.772A.81.81,0,0,1,1435.745,668.8Z" transform="translate(-1211.869 -541.478)" fill="#fff" opacity="0.15"/>
      <path id="Pfad_8555" data-name="Pfad 8555" d="M1454.913,821.008c.363,3.832-7.163,6.427-21.209,10.088s-21.468,3.429-21.468,3.429c-1.147-3.56-3.062-9.316-1.49-13.7a11.633,11.633,0,0,1,1.126-2.3c.823-1.3,1.695-2.456,2.446-3.578.05-.075.1-.151.148-.226.03-.047.062-.094.09-.139.015-.024.032-.048.045-.072l.164-.259c.042-.068.083-.134.124-.2s.1-.163.145-.244c.036-.065.073-.128.109-.191.018-.032.035-.065.051-.1s.038-.068.054-.1.035-.062.05-.095.038-.069.054-.106l.062-.125.045-.09c.006-.012.012-.026.018-.036.015-.03.029-.06.042-.09.035-.072.068-.146.1-.219h0l.031-.072.023-.053c.009-.02.017-.039.024-.059v0l.018-.045c.035-.086.069-.172.1-.259,0,0,0-.006,0-.009.032-.084.06-.169.087-.255.009-.029.018-.057.027-.084a.089.089,0,0,1,.006-.018l.018-.06a.716.716,0,0,0,.023-.08s0-.008,0-.012l0-.016c.008-.024.014-.05.021-.074a.111.111,0,0,0,.006-.023.175.175,0,0,0,.008-.029.028.028,0,0,1,0-.012c0-.018.011-.035.014-.053.012-.047.023-.092.035-.139.029-.125.056-.252.077-.379a6.5,6.5,0,0,0,.094-1.188c0-.166,0-.339,0-.522,0-.048,0-.1,0-.146s0-.119.008-.178c0-.118.01-.238.018-.363,0-.041,0-.08.008-.122.006-.081.01-.163.017-.247,0-.042.006-.084.009-.127q.05-.656.125-1.4c.124-1.236.286-2.649.434-4.2.009-.095.018-.192.027-.288s.018-.2.027-.3c.027-.3.051-.6.077-.9.009-.1.017-.2.024-.308.03-.409.061-.825.086-1.249v-.006c.006-.105.012-.213.018-.32l0-.074c.011-.19.02-.381.029-.573.006-.109.011-.219.014-.327.009-.219.017-.439.024-.662,0-.112.006-.222.009-.335q.025-1.007.012-2.048v-.024c0-.107,0-.216-.006-.324q-.011-.523-.032-1.054c-.044-1.062-.124-2.143-.25-3.239a37.075,37.075,0,0,0-.835-4.658c-1.2-4.848-1.692-7.766-2.262-10-.066-.259-.134-.51-.2-.754s-.142-.479-.217-.712l-.045-.137q-.138-.412-.3-.807l-.071-.175c-.045-.11-.092-.219-.142-.329l-.009-.021c-.039-.087-.08-.173-.121-.261l-.126-.261c-.023-.044-.044-.087-.066-.131-.066-.13-.136-.261-.208-.391h0c-.024-.045-.05-.09-.075-.136l-.077-.136c-.053-.091-.105-.181-.161-.273-.027-.045-.056-.092-.084-.137q-.127-.208-.267-.421c-.139-.211-.286-.427-.442-.651-.112-.157-.226-.318-.347-.481-.03-.041-.062-.083-.092-.125-.333-.449-.689-.912-1.06-1.386h0l-.185-.237c-.311-.394-.629-.792-.95-1.2l-.387-.486c-.177-.223-.354-.446-.531-.671l-.231-.294-.229-.294-.163-.21c-.181-.234-.359-.469-.535-.7q-.212-.281-.417-.561c-.3-.413-.594-.823-.869-1.23-1.635-2.422-2.67-4.69-1.935-6.3.727-1.585,3.488-3.1,6.877-4.279.039-.014.082-.027.121-.042a44.6,44.6,0,0,1,7.7-1.864l.1-.015c3.367-.493,6.374-.495,7.818.232,2.153,1.081,2.509,3.551,2.248,6.659h0c-.038.453-.09.915-.149,1.392-.021.172-.045.347-.069.522h0c-.056.4-.118.813-.182,1.228-.018.119-.038.24-.057.36s-.038.24-.059.362-.042.258-.062.386c-.059.359-.118.722-.178,1.087-.006.042-.014.084-.02.127h0c-.026.164-.053.33-.08.5s-.053.333-.08.5c-.041.252-.078.5-.116.755-.089.594-.174,1.191-.246,1.787h0c-.018.134-.033.265-.048.4-.01.1-.023.194-.032.292h0a17.008,17.008,0,0,0-.063,1.906h0c.072,4.129,1.368,9.344,2.86,14.574,1.5,5.258,5.7,14.244,8.2,19.289h0c.451.912.844,1.695,1.156,2.3a11.67,11.67,0,0,0,1.02,1.678c.042.057.084.112.126.166l.054.066c.029.036.059.072.087.107.054.063.109.127.164.188l.027.03c.026.029.053.057.082.086l.082.083c.068.069.139.136.209.2l.02.018.018.017.018.016c.073.065.145.128.219.189.092.075.186.146.281.216.027.021.056.041.084.06a.5.5,0,0,0,.048.033c.031.023.065.045.1.066.009.006.018.014.029.02l.091.057c.039.026.08.051.122.075s.082.051.124.075l.118.068.14.077c.032.018.063.035.1.051l.038.02c.089.047.181.094.276.139l.143.068.1.045.05.021c.027.014.056.026.084.038l.1.045c.039.018.08.035.122.053l.124.053.027.01.161.066c.109.044.22.089.335.133.79.306,1.715.62,2.818.991.632.213,1.322.445,2.079.7a6.242,6.242,0,0,1,2.74,2.268,14.243,14.243,0,0,1,.876,1.316,19.955,19.955,0,0,1,2.552,7.093Z" transform="translate(-1191.485 -610.42)" fill="#333345"/>
      <path id="Pfad_8556" data-name="Pfad 8556" d="M1507.288,1127.863c-.038.035-.077.068-.116.1-5.961,5.187-23.818,6.909-29.412,6.208a11.226,11.226,0,0,0,1.761-3.652l20.921-4.667s1.335-.353,2.947-.654a7.858,7.858,0,0,0,3.9,2.661Z" transform="translate(-1254.927 -929.647)" fill="#fff" opacity="0.09"/>
      <path id="Pfad_8557" data-name="Pfad 8557" d="M1445.152,804.9c-.231,1.82-.6,3.8-.9,5.826-.951.009-2.108.033-2.615.106-.935.134-7.258,1.242-7.433,1.285-.143.035-4.95,1.941-7.33,2.882-1.17-1.49-2.479-3.084-3.629-4.649,2.781-1.218,7.285-3.155,7.285-3.155l10.166-2.173,3.818-.413Z" transform="translate(-1208.629 -657.399)" fill="#fff" opacity="0.15"/>
      <path id="Pfad_8558" data-name="Pfad 8558" d="M1416.527,804.339c1.9-1.867,18.181-5.643,21.414-5.507.977.041,2.037-1.873-.285-1.981-1.775-.083-17.516,2.876-21.972,5.383-2.019,1.135.283,2.655.841,2.105Z" transform="translate(-1201.52 -650.808)" fill="#19192e"/>
      <path id="Pfad_8559" data-name="Pfad 8559" d="M1436.366,838.1c1.728-1.448,12.484-4.079,15.162-3.791,2.88.309,2.924-3.532.35-4.05-1.469-.3-13.936,1.466-17.419,3.946s.76,4.855,1.906,3.895Z" transform="translate(-1217.012 -679.15)" fill="#19192e"/>
      <path id="Pfad_8560" data-name="Pfad 8560" d="M1467.557,905.448c1.5,7.381,3.234,18.3.792,21.928a9.561,9.561,0,0,1-4.215,2.962,7.871,7.871,0,0,0,.458-1.359,6.433,6.433,0,0,0,.17-1.567c-.062-4.27,2.333-13.984-.148-23.985-2.239-9.034-2.005-11.362-4.435-15.081l2.586-.477c1.544,2.393,3.287,10.2,4.789,17.578Z" transform="translate(-1239.999 -728.104)" fill="#0f0f11" opacity="0.32"/>
      <path id="Pfad_8561" data-name="Pfad 8561" d="M1471.025,1100.861c3.016.837,18.436-2.339,21.454-4.48,3.247-2.3,6.133,3.361,3.39,5.75-1.565,1.363-19.509,6.672-25.3,5.579s-1.543-7.405.457-6.85Z" transform="translate(-1246.332 -904.715)" fill="#19192e"/>
      <path id="Pfad_8562" data-name="Pfad 8562" d="M1456.3,866.221c1.44-.9,10.4-3.251,12.479-3.253,2.238,0,2.5-2.117.516-2.25-1.132-.075-11.379,1.912-14.254,3.485S1455.348,866.818,1456.3,866.221Z" transform="translate(-1234.637 -705.045)" fill="#19192e"/>
      <path id="Pfad_8563" data-name="Pfad 8563" d="M1494.895,1184.955c.363,3.832-7.163,6.427-21.209,10.088s-21.468,3.429-21.468,3.429c-1.149-3.56-3.062-9.316-1.49-13.7,5.8,2.689,14.575,4.276,20.452,2.419,6.258-1.977,12.1-6.988,21.088-9.311.024-.006.05-.014.075-.018a19.985,19.985,0,0,1,2.553,7.095Z" transform="translate(-1231.467 -974.367)" fill="#19192e"/>
      <path id="Pfad_8564" data-name="Pfad 8564" d="M1378.03,763.653c.8,3.008.3,9.026-.8,10.73a6.743,6.743,0,0,1-1.8,2.107l-7.623-7.922,6.419-5.917Z" transform="translate(-1161.549 -621.766)" fill="#efa88f"/>
      <path id="Pfad_8565" data-name="Pfad 8565" d="M1012.3,505.064a.6.6,0,0,1-.576-.427c-.284-.924-.555-1.87-.81-2.811a.6.6,0,0,1,1.164-.314c.25.927.519,1.861.8,2.773a.6.6,0,0,1-.4.754.6.6,0,0,1-.176.027Zm149.927-.844a.594.594,0,0,1-.22-.042.6.6,0,0,1-.341-.783c.368-.936.722-1.892,1.054-2.839a.6.6,0,1,1,1.138.4c-.336.962-.7,1.932-1.071,2.883a.6.6,0,0,1-.561.383Zm-151.475-4.905a.6.6,0,0,1-.587-.466c-.176-.754-.345-1.523-.5-2.284a.6.6,0,1,1,1.182-.244c.155.751.323,1.509.5,2.254a.6.6,0,0,1-.449.725.619.619,0,0,1-.137.017ZM1164.2,498.6a.6.6,0,0,1-.576-.781c.226-.731.445-1.476.648-2.214a.6.6,0,0,1,1.163.321c-.208.749-.43,1.506-.659,2.248A.6.6,0,0,1,1164.2,498.6Zm-154.488-4.408a.6.6,0,0,1-.594-.5c-.173-1-.333-2.024-.475-3.034a.6.6,0,1,1,1.194-.166c.139,1,.3,2,.469,2.995a.6.6,0,0,1-.6.706Zm155.9-.78a.634.634,0,0,1-.139-.017.6.6,0,0,1-.449-.725c.22-.933.424-1.882.608-2.818a.6.6,0,1,1,1.184.231c-.187.952-.4,1.915-.618,2.864a.6.6,0,0,1-.587.464Zm-156.664-4.54a.6.6,0,0,1-.6-.535c-.11-.962-.205-1.941-.285-2.91a.6.6,0,1,1,1.2-.1c.078.956.173,1.923.282,2.873a.6.6,0,0,1-.531.668.529.529,0,0,1-.069,0Zm157.689-.588a.728.728,0,0,1-.1-.008.6.6,0,0,1-.5-.694c.164-.992.309-2,.434-3a.6.6,0,1,1,1.2.149c-.127,1.012-.274,2.036-.44,3.043A.6.6,0,0,1,1166.64,488.282Zm-158.173-5.347a.6.6,0,0,1-.6-.573c-.038-.777-.068-1.562-.087-2.337a.6.6,0,1,1,1.206-.03c.02.766.048,1.541.086,2.307a.6.6,0,0,1-.573.632h-.03Zm158.915-.562h-.053a.6.6,0,0,1-.549-.653c.066-.761.121-1.535.164-2.3a.6.6,0,0,1,1.2.068c-.044.778-.1,1.564-.166,2.337a.6.6,0,0,1-.6.552Zm-159.028-4.664h0a.6.6,0,0,1-.6-.606c.006-1.016.029-2.049.068-3.069a.6.6,0,1,1,1.2.047c-.039,1.007-.062,2.027-.068,3.029a.6.6,0,0,1-.6.6Zm159.3-.7h-.01a.6.6,0,0,1-.593-.612c.008-.413.011-.835.011-1.255,0-.543-.006-1.09-.017-1.627a.6.6,0,0,1,1.2-.026c.012.546.018,1.1.018,1.653,0,.425,0,.855-.011,1.274A.6.6,0,0,1,1167.656,477Zm-159.117-4.667h-.039a.6.6,0,0,1-.564-.639c.06-.968.137-1.95.229-2.915a.6.6,0,0,1,1.2.113c-.089.953-.166,1.921-.226,2.877a.6.6,0,0,1-.6.565Zm159.027-.559a.6.6,0,0,1-.6-.573c-.051-1-.124-2.024-.214-3.028a.6.6,0,0,1,1.2-.109c.092,1.021.166,2.055.217,3.075a.6.6,0,0,1-.572.633h-.032ZM1009.1,466.41a.437.437,0,0,1-.077,0,.6.6,0,0,1-.523-.674c.1-.771.207-1.549.323-2.316a.6.6,0,1,1,1.191.182c-.115.757-.222,1.526-.318,2.286a.6.6,0,0,1-.6.528Zm157.934-.578a.6.6,0,0,1-.6-.526c-.1-.76-.208-1.531-.327-2.289a.6.6,0,0,1,1.191-.187c.122.769.234,1.552.332,2.324a.6.6,0,0,1-.522.676.656.656,0,0,1-.077,0ZM1009.9,461.246a.558.558,0,0,1-.11-.011.6.6,0,0,1-.484-.7c.184-1,.388-2.015.6-3.008a.6.6,0,0,1,1.179.256c-.214.98-.413,1.98-.6,2.971A.6.6,0,0,1,1009.9,461.246Zm156.269-.728a.6.6,0,0,1-.591-.487c-.185-.938-.391-1.888-.611-2.823a.6.6,0,0,1,1.175-.276c.223.948.431,1.912.62,2.865a.6.6,0,0,1-.475.709.623.623,0,0,1-.118.012Zm-155.147-4.524a.592.592,0,0,1-.143-.018.6.6,0,0,1-.443-.728c.229-.942.478-1.894.737-2.827a.6.6,0,0,1,1.161.323c-.256.921-.5,1.861-.728,2.791a.6.6,0,0,1-.585.46Zm153.966-.578a.6.6,0,0,1-.582-.448c-.258-.97-.538-1.951-.832-2.915a.6.6,0,1,1,1.155-.353c.3.979.584,1.974.844,2.958a.6.6,0,0,1-.428.737.609.609,0,0,1-.155.02Zm-152.369-5.156a.626.626,0,0,1-.181-.027.6.6,0,0,1-.4-.757c.234-.742.478-1.49.728-2.221a.6.6,0,0,1,1.141.391c-.247.722-.489,1.46-.719,2.193A.6.6,0,0,1,1012.619,450.261Zm150.632-.547a.6.6,0,0,1-.57-.407c-.249-.724-.513-1.455-.784-2.173a.6.6,0,1,1,1.128-.425c.275.728.541,1.47.795,2.2a.6.6,0,0,1-.374.766.594.594,0,0,1-.2.033Zm-148.924-4.389a.6.6,0,0,1-.564-.817c.36-.953.743-1.912,1.137-2.85a.6.6,0,0,1,1.113.467c-.388.926-.766,1.871-1.122,2.812a.6.6,0,0,1-.564.389Zm147.007-.636a.6.6,0,0,1-.557-.371c-.368-.881-.758-1.77-1.16-2.643a.6.6,0,1,1,1.095-.5c.407.887.8,1.788,1.176,2.681a.6.6,0,0,1-.556.835Zm-144.952-4.325a.6.6,0,0,1-.549-.85c.4-.887.819-1.776,1.246-2.645a.6.6,0,1,1,1.081.534c-.421.856-.834,1.734-1.229,2.607a.6.6,0,0,1-.55.356Zm142.784-.439a.6.6,0,0,1-.541-.336c-.445-.9-.912-1.809-1.389-2.695a.6.6,0,0,1,1.063-.572c.484.9.958,1.817,1.408,2.732a.6.6,0,0,1-.541.87Zm-140.154-4.9a.589.589,0,0,1-.285-.072.6.6,0,0,1-.246-.817c.368-.685.749-1.374,1.135-2.046a.6.6,0,1,1,1.046.6c-.38.663-.757,1.341-1.119,2.016a.6.6,0,0,1-.532.318Zm137.336-.351a.6.6,0,0,1-.522-.3c-.385-.66-.784-1.327-1.19-1.98a.6.6,0,0,1,1.027-.635c.41.663.816,1.339,1.206,2.009a.6.6,0,0,1-.52.906ZM1021.627,430.5a.591.591,0,0,1-.317-.09.6.6,0,0,1-.194-.831c.54-.869,1.1-1.737,1.668-2.58a.6.6,0,0,1,1,.674c-.559.831-1.111,1.686-1.644,2.542A.6.6,0,0,1,1021.627,430.5Zm131.871-.389a.6.6,0,0,1-.5-.268c-.532-.8-1.086-1.6-1.645-2.373a.6.6,0,1,1,.98-.7c.567.789,1.128,1.6,1.668,2.407a.6.6,0,0,1-.166.837A.6.6,0,0,1,1153.5,430.11Zm-128.89-4.082a.6.6,0,0,1-.49-.954c.567-.792,1.154-1.582,1.746-2.349a.6.6,0,0,1,.954.737c-.583.755-1.163,1.535-1.721,2.313a.6.6,0,0,1-.492.252Zm125.85-.179a.6.6,0,0,1-.481-.238c-.608-.8-1.24-1.6-1.876-2.382a.6.6,0,1,1,.935-.763c.645.792,1.286,1.6,1.9,2.416a.6.6,0,0,1-.116.846A.6.6,0,0,1,1150.458,425.849Zm-122.2-4.53a.6.6,0,0,1-.461-.989c.5-.6,1.015-1.2,1.531-1.776a.6.6,0,0,1,.9.8c-.507.57-1.013,1.16-1.506,1.749a.6.6,0,0,1-.463.216Zm118.437-.09a.6.6,0,0,1-.454-.207c-.505-.578-1.024-1.157-1.544-1.719a.6.6,0,0,1,.887-.817c.528.572,1.054,1.158,1.565,1.743a.6.6,0,0,1-.454,1Zm-114.946-3.81a.6.6,0,0,1-.436-1.021c.709-.74,1.44-1.473,2.174-2.18a.6.6,0,0,1,.838.87c-.722.7-1.443,1.419-2.14,2.146a.6.6,0,0,1-.436.185Zm111.282-.128a.6.6,0,0,1-.428-.179c-.674-.68-1.369-1.359-2.067-2.018a.6.6,0,1,1,.828-.876c.707.668,1.413,1.357,2.1,2.046a.6.6,0,0,1-.428,1.028Zm-3.8-3.607a.593.593,0,0,1-.4-.154c-.752-.671-1.524-1.338-2.3-1.978a.6.6,0,0,1,.771-.927c.784.651,1.568,1.325,2.331,2.007a.6.6,0,0,1-.4,1.053Zm-103.626-.018a.6.6,0,0,1-.406-1.049c.722-.654,1.467-1.3,2.214-1.929a.6.6,0,0,1,.774.926c-.734.615-1.467,1.255-2.177,1.9a.606.606,0,0,1-.4.157Zm99.042-3.794a.592.592,0,0,1-.368-.127c-.609-.47-1.23-.938-1.847-1.387a.6.6,0,1,1,.71-.976c.626.457,1.256.93,1.874,1.408a.6.6,0,0,1-.37,1.08Zm-94.47-.03a.6.6,0,0,1-.368-1.081c.615-.475,1.247-.945,1.877-1.4a.6.6,0,1,1,.706.977c-.62.448-1.241.911-1.847,1.378a.6.6,0,0,1-.368.125Zm4.249-3.043a.6.6,0,0,1-.335-1.105c.849-.564,1.722-1.119,2.6-1.648a.6.6,0,1,1,.624,1.031c-.858.52-1.717,1.066-2.553,1.621a.6.6,0,0,1-.333.1Zm85.86-.078a.6.6,0,0,1-.336-.1c-.8-.537-1.61-1.065-2.422-1.57a.6.6,0,1,1,.638-1.024c.823.513,1.65,1.049,2.458,1.594a.6.6,0,0,1-.338,1.1ZM1049,403.99a.6.6,0,0,1-.3-1.128c.847-.478,1.714-.945,2.575-1.389a.6.6,0,0,1,.552,1.074c-.849.437-1.7.9-2.535,1.368a.6.6,0,0,1-.3.078Zm76.849-.053a.6.6,0,0,1-.3-.083c-.872-.508-1.761-1.006-2.645-1.476a.6.6,0,0,1,.567-1.065c.9.478,1.8.983,2.686,1.5a.6.6,0,0,1-.3,1.125Zm-71.556-2.666a.6.6,0,0,1-.255-1.151c.7-.326,1.422-.647,2.138-.955a.6.6,0,0,1,.475,1.108c-.706.3-1.414.618-2.1.939a.611.611,0,0,1-.253.056Zm66.3-.142a.612.612,0,0,1-.264-.06c-.692-.336-1.395-.665-2.09-.977a.6.6,0,1,1,.495-1.1c.706.317,1.42.65,2.123.992a.6.6,0,0,1-.264,1.146Zm-61.488-1.9a.6.6,0,0,1-.217-1.167c.95-.365,1.922-.716,2.889-1.045a.6.6,0,0,1,.388,1.141c-.951.323-1.909.67-2.845,1.028a.606.606,0,0,1-.216.041Zm56.575-.282a.589.589,0,0,1-.225-.044c-.888-.357-1.794-.7-2.693-1.021a.6.6,0,0,1,.406-1.135c.912.326,1.834.676,2.737,1.037a.6.6,0,0,1-.225,1.163Zm-51.5-1.469a.6.6,0,0,1-.177-1.181c.926-.283,1.871-.556,2.812-.808a.6.6,0,1,1,.312,1.166c-.926.249-1.858.516-2.77.8A.607.607,0,0,1,1064.186,397.484Zm46.585-.308a.61.61,0,0,1-.186-.029c-.958-.308-1.932-.6-2.9-.866a.6.6,0,0,1,.321-1.163c.98.271,1.969.567,2.943.881a.6.6,0,0,1-.186,1.178Zm-40.836-1.229a.6.6,0,0,1-.134-1.191c.753-.172,1.523-.336,2.288-.49a.6.6,0,1,1,.237,1.184c-.754.151-1.514.314-2.256.483A.592.592,0,0,1,1069.936,395.947Zm35.107-.36a.535.535,0,0,1-.137-.017c-.745-.173-1.5-.338-2.247-.486a.6.6,0,0,1,.235-1.182c.758.151,1.527.318,2.284.495a.6.6,0,0,1-.136,1.19Zm-29.979-.644a.6.6,0,0,1-.1-1.2c1-.164,2.022-.314,3.037-.445a.6.6,0,0,1,.154,1.2c-1,.13-2.01.277-3,.439A.543.543,0,0,1,1075.064,394.943Zm24.719-.375a.677.677,0,0,1-.094-.008c-.944-.146-1.9-.274-2.853-.382a.6.6,0,0,1,.134-1.2c.965.109,1.942.238,2.9.388a.6.6,0,0,1-.092,1.2Zm-19.4-.335a.6.6,0,0,1-.06-1.2c.961-.1,1.939-.184,2.912-.253a.6.6,0,1,1,.084,1.2c-.959.068-1.926.152-2.874.25Zm14.2-.27h-.048c-1-.078-2.011-.136-3.011-.169a.6.6,0,0,1,.041-1.2c1.018.035,2.049.092,3.066.172a.6.6,0,0,1-.047,1.2Zm-8.268-.149a.6.6,0,0,1-.023-1.2c.258-.011.516-.02.775-.027.52-.017,1.048-.027,1.567-.032h.006a.6.6,0,0,1,0,1.206c-.51,0-1.028.015-1.54.03-.256.008-.511.017-.766.027Z" transform="translate(-855.791 -307.474)" fill="#a5cee0"/>
      <path id="Pfad_8566" data-name="Pfad 8566" d="M961.5,978a3.3,3.3,0,0,0,.983.312q.143.025.294.041h0a5.71,5.71,0,0,0,2.48-.261l.039-.015a2.389,2.389,0,0,0,.944-.6,1.163,1.163,0,0,0,.311-.725,1.261,1.261,0,0,1,.056-.312,3.287,3.287,0,0,1,.428-.852c.4-.606,1-1.316,1.669-2.155,1.837-2.289,4.183-5.537,4.206-10.245.023-4.509-2.272-9.9-7.962-10.151-.044,0-.087,0-.133,0-5.626-.184-10.02,3.729-10.032,9.925-.012,5.926,4.364,9.832,5.674,12.6a3.114,3.114,0,0,1,.365,1.464v.047a1.072,1.072,0,0,0,.676.926Z" transform="translate(-810.817 -783.438)" fill="#f4ad00"/>
      <path id="Pfad_8567" data-name="Pfad 8567" d="M987.312,1047.062a.233.233,0,0,1-.033,0,.251.251,0,0,1-.216-.28c.039-.3.724-5.43,1.2-8.695a2.685,2.685,0,0,1-.816-.14,2.58,2.58,0,0,1-1-.671,2.451,2.451,0,0,1-.98.746,3.454,3.454,0,0,1-1.172.207c.5,3.437.78,8.278.8,8.559a.25.25,0,1,1-.5.029c0-.069-.3-5.175-.807-8.63a3.586,3.586,0,0,1-2.342-1.472,1.927,1.927,0,0,1-.078-1.984,1.136,1.136,0,0,1,1-.692c.336.01.828.225,1.258,1.176a11.528,11.528,0,0,1,.6,2.517,2.853,2.853,0,0,0,1.075-.181,2.02,2.02,0,0,0,.822-.665,3.3,3.3,0,0,1-.763-2.254.933.933,0,0,1,1.066-.78.954.954,0,0,1,.958.865,3.47,3.47,0,0,1-.627,2.146,2.164,2.164,0,0,0,.857.609,2.121,2.121,0,0,0,.733.113c.145-.98.264-1.731.329-2.028.347-1.6,1.154-1.671,1.484-1.63a1.4,1.4,0,0,1,1.119,1.411,2.985,2.985,0,0,1-1.321,2.21,2.946,2.946,0,0,1-1.173.5c-.484,3.311-1.2,8.729-1.215,8.8a.25.25,0,0,1-.247.217Zm-4.978-12.526a.681.681,0,0,0-.532.427,1.44,1.44,0,0,0,.042,1.457,3.086,3.086,0,0,0,1.858,1.249,10.484,10.484,0,0,0-.537-2.25c-.249-.552-.547-.873-.817-.882h-.011Zm7.692-.119c-.378,0-.7.457-.873,1.244-.059.271-.167.953-.3,1.852a2.628,2.628,0,0,0,1.915-2.194.9.9,0,0,0-.68-.9.389.389,0,0,0-.06,0Zm-3.687-.069c-.377,0-.464.2-.5.371a2.714,2.714,0,0,0,.571,1.721,2.867,2.867,0,0,0,.464-1.648.456.456,0,0,0-.486-.442h-.054Z" transform="translate(-833.182 -852.07)" fill="#fff" opacity="0.75"/>
      <path id="Pfad_8568" data-name="Pfad 8568" d="M1025.2,973.469c1.837-2.289,4.183-5.537,4.206-10.245.023-4.509-2.272-9.9-7.962-10.151-.044,0-.087,0-.133,0,8.321,9.74,6.89,12.8,3.887,20.4Z" transform="translate(-867.306 -783.473)" fill="#e84e1b" opacity="0.25"/>
      <path id="Pfad_8569" data-name="Pfad 8569" d="M990.5,1108.387a3.259,3.259,0,0,0,1.487,1.5c.065.032.13.062.2.089a3.2,3.2,0,0,0,1.137.24l.234.006a3.215,3.215,0,0,0,1.16-.182,3.313,3.313,0,0,0,.562-.262,3.265,3.265,0,0,0,1.577-2.383,3.117,3.117,0,0,0,.029-.357s0-.042.009-.116c.009-.116.024-.311.041-.556.02-.276.042-.615.063-.974.012-.19.023-.386.032-.582.017-.344.03-.686.038-.992,0-.195.006-.375,0-.532a1.59,1.59,0,0,0-.068-.576c-.166-.235-4.112-.394-5.888-.3-.25.014-.457.032-.6.056a.66.66,0,0,0-.222.063.529.529,0,0,0-.143.321,3.758,3.758,0,0,0-.062.5c-.015.21-.023.445-.026.693v.357c0,.386.017.786.033,1.148.006.124.012.243.018.356.03.558.062.958.062.958q0,.1,0,.2a3.054,3.054,0,0,0,.032.354,3.325,3.325,0,0,0,.1.463,3.164,3.164,0,0,0,.2.51Z" transform="translate(-840.768 -910.268)" fill="#454554"/>
      <path id="Pfad_8570" data-name="Pfad 8570" d="M990.216,1114.966c1.016-.25,5.983-.808,6.92-.93-.006-.124-.012-.243-.018-.356l-6.89.511a4.879,4.879,0,0,0-.014.775Z" transform="translate(-840.889 -919.864)" fill="#1f1f3b" opacity="0.6"/>
      <path id="Pfad_8571" data-name="Pfad 8571" d="M990.491,1126.281c1.339-.249,5.891-.8,6.748-.917a3.053,3.053,0,0,0-.03-.354l-6.807.44A4.051,4.051,0,0,0,990.491,1126.281Z" transform="translate(-841.057 -929.486)" fill="#1f1f3b" opacity="0.6"/>
      <path id="Pfad_8572" data-name="Pfad 8572" d="M995.336,1109.069l.008.092a.468.468,0,0,1-.43.5l-6.767.6a.464.464,0,0,1-.508-.419l-.008-.092a.468.468,0,0,1,.43-.5l6.767-.6A.464.464,0,0,1,995.336,1109.069Z" transform="translate(-838.704 -915.591)" fill="#5e5e6d"/>
      <path id="Pfad_8573" data-name="Pfad 8573" d="M995.5,1120.469l.008.092a.467.467,0,0,1-.425.5l-6.7.591a.463.463,0,0,1-.5-.419l-.008-.092a.467.467,0,0,1,.425-.5l6.7-.591a.463.463,0,0,1,.5.419Z" transform="translate(-838.908 -925.272)" fill="#5e5e6d"/>
      <path id="Pfad_8574" data-name="Pfad 8574" d="M991.7,1136.106a3.243,3.243,0,0,0,.338.722c1.538-.228,5.07-.719,6.145-.84a3.285,3.285,0,0,0,.071-.368l-6.553.486Z" transform="translate(-842.161 -938.496)" fill="#1f1f3b" opacity="0.6"/>
      <path id="Pfad_8575" data-name="Pfad 8575" d="M995.49,1131.049l.008.092a.467.467,0,0,1-.425.5l-6.7.591a.463.463,0,0,1-.5-.419l-.008-.092a.467.467,0,0,1,.425-.5l6.7-.591a.463.463,0,0,1,.5.419Z" transform="translate(-838.9 -934.257)" fill="#5e5e6d"/>
      <path id="Pfad_8576" data-name="Pfad 8576" d="M967.461,983.971a.292.292,0,0,1-.291-.27,6.622,6.622,0,0,1,2.167-5.7.292.292,0,1,1,.4.43,5.994,5.994,0,0,0-1.981,5.226.292.292,0,0,1-.268.314Z" transform="translate(-821.307 -804.579)" fill="#fff"/>
      <path id="Pfad_8577" data-name="Pfad 8577" d="M988.191,971a.292.292,0,0,1-.166-.532,3.918,3.918,0,0,1,.792-.427.292.292,0,0,1,.213.544,3.358,3.358,0,0,0-.673.363.291.291,0,0,1-.166.051Z" transform="translate(-838.932 -797.865)" fill="#fff"/>
      <line id="Linie_72" data-name="Linie 72" x2="4.442" y2="0.388" transform="translate(164.507 179.2)" fill="none" stroke="#fff" stroke-linecap="round" stroke-linejoin="round" stroke-width="3.23"/>
      <line id="Linie_73" data-name="Linie 73" x2="0.283" y2="0.024" transform="translate(163.412 179.105)" fill="none" stroke="#fff" stroke-linecap="round" stroke-linejoin="round" stroke-width="3.23"/>
      <line id="Linie_74" data-name="Linie 74" y1="1.38" x2="4.239" transform="translate(163.768 173.1)" fill="none" stroke="#fff" stroke-linecap="round" stroke-linejoin="round" stroke-width="3.23"/>
      <line id="Linie_75" data-name="Linie 75" y1="0.089" x2="0.271" transform="translate(162.721 174.732)" fill="none" stroke="#fff" stroke-linecap="round" stroke-linejoin="round" stroke-width="3.23"/>
      <line id="Linie_76" data-name="Linie 76" y1="2.934" x2="3.358" transform="translate(162.04 167.578)" fill="none" stroke="#fff" stroke-linecap="round" stroke-linejoin="round" stroke-width="3.23"/>
      <line id="Linie_77" data-name="Linie 77" y1="0.187" x2="0.216" transform="translate(161.212 171.049)" fill="none" stroke="#fff" stroke-linecap="round" stroke-linejoin="round" stroke-width="3.23"/>
      <line id="Linie_78" data-name="Linie 78" y1="4.102" x2="1.749" transform="translate(156.207 163.204)" fill="none" stroke="#fff" stroke-linecap="round" stroke-linejoin="round" stroke-width="3.23"/>
      <line id="Linie_79" data-name="Linie 79" y1="0.262" x2="0.112" transform="translate(155.776 168.055)" fill="none" stroke="#fff" stroke-linecap="round" stroke-linejoin="round" stroke-width="3.23"/>
      <line id="Linie_80" data-name="Linie 80" x1="1.226" y1="4.287" transform="translate(148.408 163.155)" fill="none" stroke="#fff" stroke-linecap="round" stroke-linejoin="round" stroke-width="3.23"/>
      <line id="Linie_81" data-name="Linie 81" x1="0.078" y1="0.273" transform="translate(149.857 168.227)" fill="none" stroke="#fff" stroke-linecap="round" stroke-linejoin="round" stroke-width="3.23"/>
      <line id="Linie_82" data-name="Linie 82" x1="4.441" y2="0.415" transform="translate(137.105 179.673)" fill="none" stroke="#fff" stroke-linecap="round" stroke-linejoin="round" stroke-width="3.23"/>
      <line id="Linie_83" data-name="Linie 83" x1="0.283" y2="0.027" transform="translate(142.357 179.571)" fill="none" stroke="#fff" stroke-linecap="round" stroke-linejoin="round" stroke-width="3.23"/>
      <line id="Linie_84" data-name="Linie 84" x1="4.05" y1="1.867" transform="translate(138.01 172.384)" fill="none" stroke="#fff" stroke-linecap="round" stroke-linejoin="round" stroke-width="3.23"/>
      <line id="Linie_85" data-name="Linie 85" x1="0.259" y1="0.119" transform="translate(142.799 174.591)" fill="none" stroke="#fff" stroke-linecap="round" stroke-linejoin="round" stroke-width="3.23"/>
      <line id="Linie_86" data-name="Linie 86" x1="2.992" y1="3.307" transform="translate(141.247 167.206)" fill="none" stroke="#fff" stroke-linecap="round" stroke-linejoin="round" stroke-width="3.23"/>
      <line id="Linie_87" data-name="Linie 87" x1="0.192" y1="0.211" transform="translate(144.785 171.117)" fill="none" stroke="#fff" stroke-linecap="round" stroke-linejoin="round" stroke-width="3.23"/>
      <path id="Pfad_8578" data-name="Pfad 8578" d="M1279.186,386.836a.374.374,0,0,1-.286-.32,9.735,9.735,0,0,0-.37-1.742.375.375,0,0,1,.139-.416l1.363-.983a.379.379,0,0,0,.125-.457c-.131-.3-.276-.6-.43-.885a.379.379,0,0,0-.425-.187l-1.668.427a.372.372,0,0,1-.4-.149,9.767,9.767,0,0,0-1.1-1.315.376.376,0,0,1-.071-.433l.751-1.5a.378.378,0,0,0-.1-.461q-.4-.319-.816-.6a.377.377,0,0,0-.463.032l-1.279,1.152a.373.373,0,0,1-.422.054,9.652,9.652,0,0,0-1.523-.635.374.374,0,0,1-.261-.35l-.035-1.689a.377.377,0,0,0-.3-.362q-.507-.1-1.03-.161a.377.377,0,0,0-.4.244l-.6,1.623a.377.377,0,0,1-.335.246c-.394.018-1.14.068-1.616.13a.377.377,0,0,1-.378-.191l-.825-1.494a.377.377,0,0,0-.434-.179c-.341.1-.674.208-1,.332a.378.378,0,0,0-.24.4l.222,1.7a.375.375,0,0,1-.2.382,9.7,9.7,0,0,0-1.344.841.374.374,0,0,1-.43.012l-1.425-.941a.375.375,0,0,0-.464.041q-.387.362-.74.758a.377.377,0,0,0-.029.467l.977,1.39a.374.374,0,0,1,0,.433,9.679,9.679,0,0,0-.817,1.374.372.372,0,0,1-.374.207l-1.708-.172a.377.377,0,0,0-.394.25q-.174.491-.306,1a.377.377,0,0,0,.193.43l1.509.775a.378.378,0,0,1,.2.377c-.057.514-.081,1.268-.089,1.656a.376.376,0,0,1-.235.341l-1.607.648a.376.376,0,0,0-.232.4c.047.339.109.674.182,1a.378.378,0,0,0,.371.294l1.683-.015a.378.378,0,0,1,.357.252,9.745,9.745,0,0,0,.7,1.553.379.379,0,0,1-.042.427l-1.114,1.31a.374.374,0,0,0-.018.464q.289.4.611.778a.376.376,0,0,0,.464.087l1.481-.793a.375.375,0,0,1,.434.057,9.67,9.67,0,0,0,1.393,1.093.375.375,0,0,1,.161.4l-.377,1.675a.38.38,0,0,0,.2.421c.285.142.578.273.875.392a.377.377,0,0,0,.452-.139l.943-1.392a.376.376,0,0,1,.412-.151,9.733,9.733,0,0,0,1.8.321.374.374,0,0,1,.33.276l.443,1.653a.37.37,0,0,0,.366.276h0c.315-.009.629-.03.938-.063a.378.378,0,0,0,.335-.332l.188-1.677a.375.375,0,0,1,.292-.324,9.678,9.678,0,0,0,1.775-.571.373.373,0,0,1,.424.09l1.151,1.247a.378.378,0,0,0,.464.071q.4-.231.787-.492a.378.378,0,0,0,.14-.448l-.615-1.582a.373.373,0,0,1,.105-.421,9.84,9.84,0,0,0,1.3-1.344.374.374,0,0,1,.419-.119l1.591.565a.376.376,0,0,0,.445-.154c.166-.264.323-.532.468-.808a.378.378,0,0,0-.086-.46l-1.286-1.119a.376.376,0,0,1-.1-.419,9.559,9.559,0,0,0,.5-1.769.375.375,0,0,1,.317-.3l1.665-.237a.377.377,0,0,0,.323-.345q.043-.6.027-1.212V387.3l-1.953-.463Zm-8.17.84a1.8,1.8,0,0,1-.008.222,1.722,1.722,0,0,1-.17.594,1.9,1.9,0,0,1-.112.193,1.747,1.747,0,0,1-.433.448,1.638,1.638,0,0,1-.188.118,1.722,1.722,0,0,1-.593.191,1.769,1.769,0,0,1-.179.014h-.044a1.773,1.773,0,0,1-.609-.107,1.491,1.491,0,0,1-.207-.093,1.735,1.735,0,0,1-.48-.375,1.708,1.708,0,0,1-.143-.182,1.757,1.757,0,0,1-.247-.546,1.45,1.45,0,0,1-.042-.232c-.006-.048-.009-.1-.011-.149a1.721,1.721,0,0,1,.412-1.172,1.671,1.671,0,0,1,.169-.173,1.757,1.757,0,0,1,.493-.309,1.74,1.74,0,0,1,.612-.128,1.785,1.785,0,0,1,.2.006,1.766,1.766,0,0,1,.237.038,1.726,1.726,0,0,1,.544.229,1.59,1.59,0,0,1,.189.14,1.744,1.744,0,0,1,.384.461,1.912,1.912,0,0,1,.1.208,1.707,1.707,0,0,1,.125.6v0Z" transform="translate(-1067.852 -293.287)" fill="#0267a4"/>
      <path id="Pfad_8579" data-name="Pfad 8579" d="M1305.6,417.684v.021a6.109,6.109,0,0,1-.029.832,6.526,6.526,0,0,1-2.692,4.658,6.4,6.4,0,0,1-.712.445,6.471,6.471,0,0,1-2.232.722,6.73,6.73,0,0,1-.68.054l-.161,0a6.486,6.486,0,0,1-2.291-.406,6.541,6.541,0,0,1-2.589-1.761,6.392,6.392,0,0,1-.538-.686,6.528,6.528,0,0,1-.931-2.057,6.436,6.436,0,0,1-.16-.875c-.021-.185-.035-.372-.039-.562a6.525,6.525,0,0,1,.165-1.656,6.4,6.4,0,0,1,.264-.863,6.51,6.51,0,0,1,1.122-1.889,6.339,6.339,0,0,1,.636-.651,6.5,6.5,0,0,1,1.856-1.163,6.641,6.641,0,0,1,.862-.286,6.646,6.646,0,0,1,2.194-.179,6.387,6.387,0,0,1,.89.14,6.523,6.523,0,0,1,5.065,6.161Z" transform="translate(-1097.638 -323.449)" fill="#1f1f39" opacity="0.25"/>
      <path id="Pfad_8580" data-name="Pfad 8580" d="M1320.1,435.377v.011a3.18,3.18,0,0,1-.015.433,3.374,3.374,0,0,1-.333,1.166,3.641,3.641,0,0,1-.219.38,3.435,3.435,0,0,1-.849.879,3.322,3.322,0,0,1-.371.231,3.368,3.368,0,0,1-1.161.375c-.116.015-.234.024-.354.029h-.084a3.371,3.371,0,0,1-1.193-.211,3.167,3.167,0,0,1-.406-.182,3.411,3.411,0,0,1-.941-.734,3.578,3.578,0,0,1-.281-.357,3.4,3.4,0,0,1-.484-1.071,3.249,3.249,0,0,1-.083-.455c-.011-.1-.018-.194-.021-.293a3.328,3.328,0,0,1,.086-.863,3.383,3.383,0,0,1,.721-1.433,3.516,3.516,0,0,1,.33-.339,3.384,3.384,0,0,1,2.165-.858,3.736,3.736,0,0,1,.392.011,3.38,3.38,0,0,1,1.532.52,3.448,3.448,0,0,1,.371.274,3.388,3.388,0,0,1,.95,1.313,3.358,3.358,0,0,1,.246,1.172Z" transform="translate(-1115.266 -341.045)" fill="none" stroke="#1f1f39" stroke-miterlimit="10" stroke-width="4.59" opacity="0.55"/>
      <path id="Pfad_8581" data-name="Pfad 8581" d="M1304.687,414.558a6.535,6.535,0,0,0-3.7-2.369,6.665,6.665,0,0,0-.89-.14,6.922,6.922,0,0,0-.754-.023,6.564,6.564,0,0,0-1.44.2,6.409,6.409,0,0,0-.863.287,6.531,6.531,0,0,0-1.856,1.163,6.3,6.3,0,0,0-.636.651,6.515,6.515,0,0,0-1.122,1.891,6.492,6.492,0,0,0-.428,2.518c.006.19.018.377.039.562a6.459,6.459,0,0,0,.85,2.553c-.08-.1-.155-.208-.229-.315a6.53,6.53,0,0,1-.93-2.057,6.714,6.714,0,0,1-.16-.873c-.021-.185-.035-.372-.039-.562a6.492,6.492,0,0,1,.428-2.518,6.54,6.54,0,0,1,1.122-1.891,6.324,6.324,0,0,1,.636-.651,6.5,6.5,0,0,1,1.856-1.163,6.724,6.724,0,0,1,.863-.286,6.564,6.564,0,0,1,1.44-.2,6.255,6.255,0,0,1,.754.023,6.394,6.394,0,0,1,.89.14,6.5,6.5,0,0,1,2.054.863,6.593,6.593,0,0,1,.713.528,6.526,6.526,0,0,1,1.407,1.672Z" transform="translate(-1097.621 -323.423)" fill="#1f1f39" opacity="0.25"/>
      <path id="Pfad_8582" data-name="Pfad 8582" d="M1385.9,334.449a.117.117,0,0,0,.1-.089,7.277,7.277,0,0,0,.173-1.8h0a.114.114,0,0,0-.069-.1l-1.475-.626a.113.113,0,0,1-.068-.086,5.6,5.6,0,0,0-.237-.9.116.116,0,0,1,.024-.116l1.039-1.1a.115.115,0,0,0,.02-.13,7.327,7.327,0,0,0-1.089-1.6.118.118,0,0,0-.119-.033l-1.536.47a.119.119,0,0,1-.107-.021,5.5,5.5,0,0,0-.549-.4.117.117,0,0,1-.053-.1l.092-1.543a.113.113,0,0,0-.065-.11,7.227,7.227,0,0,0-1.921-.6.116.116,0,0,0-.115.051l-.862,1.328a.112.112,0,0,1-.1.051c-.087,0-.175,0-.264,0-.106,0-.211.009-.315.018a.114.114,0,0,1-.1-.045l-.944-1.271a.115.115,0,0,0-.118-.044,7.257,7.257,0,0,0-1.88.719.114.114,0,0,0-.057.115l.188,1.535a.114.114,0,0,1-.045.106,6.113,6.113,0,0,0-.514.43.114.114,0,0,1-.105.029l-1.564-.372a.111.111,0,0,0-.116.041,7.23,7.23,0,0,0-.986,1.671.116.116,0,0,0,.027.128l1.107,1.031a.112.112,0,0,1,.032.115,5.9,5.9,0,0,0-.177.9.111.111,0,0,1-.062.089l-1.432.718c-.023.039-.041.068-.063.107a7.276,7.276,0,0,0,.288,1.8.113.113,0,0,0,.1.081l1.5.078a.116.116,0,0,1,.1.069,5.854,5.854,0,0,0,.585,1.045.118.118,0,0,1,.012.112l-.624,1.445a.113.113,0,0,0,.021.124,7.358,7.358,0,0,0,1.309,1.1.113.113,0,0,0,.131,0l1.2-.908a.113.113,0,0,1,.119-.011,5.731,5.731,0,0,0,1.309.457.116.116,0,0,1,.086.078l.439,1.472a.113.113,0,0,0,.1.081,7.241,7.241,0,0,0,.811.023,7.467,7.467,0,0,0,.849-.072.114.114,0,0,0,.095-.087l.345-1.5a.116.116,0,0,1,.081-.084,5.742,5.742,0,0,0,1.283-.538.116.116,0,0,1,.121,0l1.259.829a.113.113,0,0,0,.131,0,7.347,7.347,0,0,0,1.236-1.173.115.115,0,0,0,.014-.125l-.715-1.4a.113.113,0,0,1,0-.112,5.81,5.81,0,0,0,.525-1.09.115.115,0,0,1,.095-.075l1.49-.172Z" transform="translate(-1164.767 -250.585)" fill="#0267a4"/>
      <path id="Pfad_8583" data-name="Pfad 8583" d="M1401.871,351.6v.012a3.863,3.863,0,0,1-.4,1.837,3.686,3.686,0,0,1-.252.436,3.9,3.9,0,0,1-2.732,1.705,3.579,3.579,0,0,1-.406.032h-.1a3.894,3.894,0,0,1-1.369-.243,3.822,3.822,0,0,1-.466-.21,3.874,3.874,0,0,1-1.08-.844,4.238,4.238,0,0,1-.323-.41,3.89,3.89,0,0,1-.556-1.229,3.716,3.716,0,0,1-.095-.523c-.012-.11-.021-.223-.024-.336a3.916,3.916,0,0,1,.255-1.5A3.915,3.915,0,0,1,1395,349.2a3.833,3.833,0,0,1,.38-.389,3.9,3.9,0,0,1,2.487-.986,3.721,3.721,0,0,1,.451.014,3.858,3.858,0,0,1,1.76.6,3.756,3.756,0,0,1,.425.315,3.886,3.886,0,0,1,.864,1.04,3.949,3.949,0,0,1,.228.467,3.9,3.9,0,0,1,.283,1.345Z" transform="translate(-1183.858 -269.488)" fill="#1f1f39" opacity="0.25"/>
      <path id="Pfad_8584" data-name="Pfad 8584" d="M1410.536,362.233v.006a1.853,1.853,0,0,1-.009.259,2.021,2.021,0,0,1-.2.7,2.313,2.313,0,0,1-.131.228,2.046,2.046,0,0,1-.507.525,2.087,2.087,0,0,1-.222.139,2,2,0,0,1-.694.225,1.952,1.952,0,0,1-.211.017h-.05a2.04,2.04,0,0,1-.713-.127,2.343,2.343,0,0,1-.243-.109,2.046,2.046,0,0,1-.562-.439,2.1,2.1,0,0,1-.167-.214,2,2,0,0,1-.29-.639,2.045,2.045,0,0,1-.05-.271c-.006-.057-.011-.116-.012-.175a2.074,2.074,0,0,1,.051-.516,2.039,2.039,0,0,1,.081-.268,2.062,2.062,0,0,1,.348-.588,1.923,1.923,0,0,1,.2-.2,2.016,2.016,0,0,1,1.294-.513c.08,0,.157,0,.235.006a1.9,1.9,0,0,1,.277.044,2.049,2.049,0,0,1,.639.268,1.958,1.958,0,0,1,.222.164,2.019,2.019,0,0,1,.449.541,1.8,1.8,0,0,1,.118.243,2.036,2.036,0,0,1,.148.7Z" transform="translate(-1194.392 -280.058)" fill="none" stroke="#1f1f39" stroke-miterlimit="10" stroke-width="2.75" opacity="0.55"/>
      <path id="Pfad_8585" data-name="Pfad 8585" d="M1401.311,349.795a3.877,3.877,0,0,0-.561-.585,3.871,3.871,0,0,0-1.653-.829,3.877,3.877,0,0,0-.532-.083,4.058,4.058,0,0,0-.451-.014,3.939,3.939,0,0,0-.861.121,4.038,4.038,0,0,0-.516.17,3.913,3.913,0,0,0-1.11.7,3.863,3.863,0,0,0-.38.389,3.916,3.916,0,0,0-.671,1.129,3.982,3.982,0,0,0-.157.516,3.9,3.9,0,0,0-.1.989c0,.113.011.226.024.336a3.965,3.965,0,0,0,.1.523,3.866,3.866,0,0,0,.413,1c-.048-.062-.093-.124-.137-.188a3.9,3.9,0,0,1-.556-1.229,3.754,3.754,0,0,1-.1-.522c-.012-.112-.021-.223-.024-.336a3.9,3.9,0,0,1,.1-.989,3.77,3.77,0,0,1,.158-.516,3.946,3.946,0,0,1,.669-1.129,3.857,3.857,0,0,1,.38-.389,3.916,3.916,0,0,1,1.11-.7,3.931,3.931,0,0,1,1.377-.291,3.726,3.726,0,0,1,.451.014,3.861,3.861,0,0,1,1.76.6,3.8,3.8,0,0,1,.425.315,3.858,3.858,0,0,1,.84,1Z" transform="translate(-1183.832 -269.53)" fill="#1f1f39" opacity="0.25"/>
      <ellipse id="Ellipse_34" data-name="Ellipse 34" cx="1.867" cy="1.867" rx="1.867" ry="1.867" transform="matrix(1, -0.007, 0.007, 1, 199.551, 92.521)" fill="#fff"/>
      <path id="Pfad_8586" data-name="Pfad 8586" d="M1414.8,367.464a1.108,1.108,0,1,1-1.139-1.077A1.109,1.109,0,0,1,1414.8,367.464Z" transform="translate(-1199.582 -285.256)" fill="#fff" fill-rule="evenodd"/>
      <path id="Pfad_8587" data-name="Pfad 8587" d="M2014.133,882.673c6.445-1.763,18.167-.6,21.7,11.763,3.1,10.837-2.859,20.088-13.443,22.258-12.205,2.5-8.259-34.021-8.259-34.021Z" transform="translate(-1709.904 -723.139)" fill="#3b3b4c"/>
      <path id="Pfad_8588" data-name="Pfad 8588" d="M1970.276,894.952a18.046,18.046,0,0,1,.692,4.426,17.01,17.01,0,0,1-12.126,17.033,16.635,16.635,0,0,1-2.511.511,16.344,16.344,0,0,1-6.057-.389q-.622-.158-1.227-.363l-.047-.015a17.182,17.182,0,0,1-1.853-.755l-.122-.059q-.4-.192-.78-.406l-.027-.015q-.622-.344-1.214-.74l-.029-.018-.089-.06c-.11-.074-.217-.149-.326-.226l-.054-.039-.02-.014a17.182,17.182,0,0,1-1.778-1.469l-.1-.1c-.1-.092-.191-.185-.285-.279l-.033-.033a17.9,17.9,0,0,1-4.494-7.7,17.516,17.516,0,0,1,5.419-18.27,16.438,16.438,0,0,1,10.106-3.818h0a16.194,16.194,0,0,1,2.283.1,17.15,17.15,0,0,1,10.26,5.077h0a17.9,17.9,0,0,1,4.414,7.622Z" transform="translate(-1644.997 -723.242)" fill="#e6eff1"/>
      <path id="Pfad_8589" data-name="Pfad 8589" d="M1984.469,913.405a14.815,14.815,0,0,1,.568,3.631,13.962,13.962,0,0,1-9.952,13.978,14.362,14.362,0,0,1-7.891-27.6,13.794,13.794,0,0,1,13.653,3.735h0A14.683,14.683,0,0,1,1984.469,913.405Z" transform="translate(-1662.102 -740.863)" fill="#3b3b4c"/>
      <ellipse id="Ellipse_35" data-name="Ellipse 35" cx="10.582" cy="10.956" rx="10.582" ry="10.956" transform="translate(295.844 168.729) rotate(-16.03)" fill="#1991bf"/>
      <ellipse id="Ellipse_36" data-name="Ellipse 36" cx="7.316" cy="7.576" rx="7.316" ry="7.576" transform="translate(299.918 171.073) rotate(-16.03)" fill="#cd2b31"/>
      <ellipse id="Ellipse_37" data-name="Ellipse 37" cx="3.491" cy="3.614" rx="3.491" ry="3.614" transform="translate(304.69 173.818) rotate(-16.03)" fill="#f7b523"/>
      <path id="Pfad_8590" data-name="Pfad 8590" d="M1986.486,997.746l-1.891,2.658-.193.271-2.108,2.963-.2.283-.844,1.187-.143.2-.745,1.046-.211.3-1.632,2.294c-.024.036-.054.08-.089.13-.271.389-.82,1.146-.82,1.146l-.912,1.288-.062.066-.029-.018-.089-.06c-.11-.074-.217-.149-.326-.226l-.054-.039-.02-.014a17.189,17.189,0,0,1-1.778-1.469,1.472,1.472,0,0,0,.125-.169l1.669-1.882.223-.252,1.983-2.238.214-.241,1.983-2.236.133-.148.074-.083.071-.08,2.3-2.591.195-.22,2.458-2.773.722.908Z" transform="translate(-1676.628 -820.642)" fill="#4b4b5b" opacity="0.22"/>
      <path id="Pfad_8591" data-name="Pfad 8591" d="M1928.346,964.823c-1.265-.306-20.488-5.376-21.025-5.437-.579-.068-1.3,4.151-.617,4.269.651.11,21.356,2.692,21.557,2.708.49.042,1.08-1.3.083-1.54Z" transform="translate(-1618.954 -788.835)" fill="#a05437"/>
      <path id="Pfad_8592" data-name="Pfad 8592" d="M1912.8,945.836a13.928,13.928,0,0,0-1.6-3.058,2.39,2.39,0,0,0-1.348-.2c.5,1.686,1.092,2.776,1.882,3.019.409.127.7.24.876.291s.228.045.19-.051Z" transform="translate(-1621.863 -774.544)" fill="#9b9baa"/>
      <path id="Pfad_8593" data-name="Pfad 8593" d="M1920.486,948.065a12.787,12.787,0,0,0-1.564-2.885c-.131.326.495,2.581,1.375,2.934.164.05.228.045.19-.051Z" transform="translate(-1629.552 -776.773)" fill="#1f1f39" opacity="0.23"/>
      <path id="Pfad_8594" data-name="Pfad 8594" d="M1921.281,947.556a13.8,13.8,0,0,0-1.585-3.051,2.031,2.031,0,0,0-1.107-.282c.5,1.686.837,2.848,1.626,3.093.409.127.7.24.876.291S1921.319,947.653,1921.281,947.556Z" transform="translate(-1629.284 -775.959)" fill="#9b9baa"/>
      <path id="Pfad_8595" data-name="Pfad 8595" d="M1927.452,950.085a12.787,12.787,0,0,0-1.564-2.885,3.751,3.751,0,0,0,1.375,2.934c.164.05.228.045.19-.051Z" transform="translate(-1635.455 -778.488)" fill="#1f1f39" opacity="0.23"/>
      <path id="Pfad_8596" data-name="Pfad 8596" d="M1928.4,949.538a3.817,3.817,0,0,1-.624-1.068c0-.006,0-.012-.008-.018a7.211,7.211,0,0,0-.97-1.939,2.8,2.8,0,0,0-1.268-.333c.5,1.686,1.015,2.874,1.8,3.118.409.127.7.24.876.291l.054.015h0c.124.032.167.018.134-.066Z" transform="translate(-1635.178 -777.622)" fill="#9b9baa"/>
      <path id="Pfad_8597" data-name="Pfad 8597" d="M1935.461,952.145a3.818,3.818,0,0,1-.624-1.068c0-.006,0-.012-.007-.018a6.311,6.311,0,0,0-.965-1.809,4.977,4.977,0,0,0,1.375,2.934l.088.027h0C1935.451,952.243,1935.494,952.23,1935.461,952.145Z" transform="translate(-1642.24 -780.229)" fill="#1f1f39" opacity="0.23"/>
      <path id="Pfad_8598" data-name="Pfad 8598" d="M1936.758,951.581a12.733,12.733,0,0,0-1.514-2.942,3.777,3.777,0,0,0-1.294-.439c.5,1.686.953,2.9,1.742,3.141.409.125.7.24.876.291S1936.8,951.677,1936.758,951.581Z" transform="translate(-1642.328 -779.337)" fill="#9b9baa"/>
      <path id="Pfad_8599" data-name="Pfad 8599" d="M1944.031,954.052a12.63,12.63,0,0,0-1.5-2.942,5.794,5.794,0,0,0,1.309,2.993C1944,954.153,1944.068,954.148,1944.031,954.052Z" transform="translate(-1649.601 -781.808)" fill="#1f1f39" opacity="0.23"/>
      <path id="Pfad_8600" data-name="Pfad 8600" d="M1945.223,953.914a12.788,12.788,0,0,0-1.564-2.885,3.353,3.353,0,0,0-1.209-.419c.5,1.686,1.2,2.96,1.645,3.1.407.133.763.2.938.25s.228.045.19-.051Z" transform="translate(-1649.547 -781.384)" fill="#9b9baa"/>
      <path id="Pfad_8601" data-name="Pfad 8601" d="M1951.936,956.275a12.783,12.783,0,0,0-1.564-2.885c-.131.326.495,2.582,1.375,2.934.164.05.228.045.19-.051Z" transform="translate(-1656.26 -783.745)" fill="#1f1f39" opacity="0.23"/>
      <path id="Pfad_8602" data-name="Pfad 8602" d="M1952.772,956.459a12.147,12.147,0,0,0-1.606-2.686,5.073,5.073,0,0,0-1.077-.523c.5,1.686.828,2.725,1.618,2.968.409.125.7.24.876.291s.228.045.19-.051Z" transform="translate(-1656.035 -783.626)" fill="#9b9baa"/>
      <path id="Pfad_8603" data-name="Pfad 8603" d="M1925.25,963.972c-1.259-.329-17.532-4.625-18.069-4.687-.579-.068-1.3,4.151-.617,4.269.651.11,18.247,2.28,18.446,2.31.8.121,1.146-1.654.238-1.891Z" transform="translate(-1618.835 -788.75)" fill="#a05437"/>
      <ellipse id="Ellipse_38" data-name="Ellipse 38" cx="2.156" cy="2.156" rx="2.156" ry="2.156" transform="translate(285.57 171.001) rotate(-11.57)" fill="#754942"/>
      <path id="Pfad_8604" data-name="Pfad 8604" d="M1905.88,986.756a14.564,14.564,0,0,1-2.69,2.265,2.893,2.893,0,0,1-1.349-.264c1.1-1.307,2.2-2.287,3-2.2.412.045.716.057.893.08S1905.951,986.685,1905.88,986.756Z" transform="translate(-1615.06 -811.907)" fill="#9b9baa"/>
      <path id="Pfad_8605" data-name="Pfad 8605" d="M1914.3,987.236a13.272,13.272,0,0,1-2.545,2.2c.009-.341,1.478-2.346,2.4-2.319.166.02.22.047.149.118Z" transform="translate(-1623.476 -812.387)" fill="#1f1f39" opacity="0.23"/>
      <path id="Pfad_8606" data-name="Pfad 8606" d="M1915.206,987.681a13.662,13.662,0,0,1-2.606,2.194,2.239,2.239,0,0,1-1.03-.065c1.1-1.307,1.8-2.417,2.594-2.328.412.045.716.057.893.08s.22.047.149.118Z" transform="translate(-1623.323 -812.691)" fill="#9b9baa"/>
      <path id="Pfad_8607" data-name="Pfad 8607" d="M1921.66,988.168c-.146.146-1.956,2.119-2.49,2.223a3.746,3.746,0,0,1,2.34-2.34C1921.676,988.07,1921.731,988.1,1921.66,988.168Z" transform="translate(-1629.777 -813.178)" fill="#1f1f39" opacity="0.23"/>
      <path id="Pfad_8608" data-name="Pfad 8608" d="M1922.211,988.937a3.683,3.683,0,0,0-.968.709.093.093,0,0,1-.014.012,7,7,0,0,1-1.614,1.351,4.006,4.006,0,0,1-1.226-.02c1.1-1.307,1.983-2.34,2.781-2.25.412.045.716.057.893.08l.054.008h0C1922.24,988.846,1922.274,988.875,1922.211,988.937Z" transform="translate(-1629.115 -813.758)" fill="#9b9baa"/>
      <path id="Pfad_8609" data-name="Pfad 8609" d="M1929.421,989.4a3.685,3.685,0,0,0-.968.709l-.013.012a6.137,6.137,0,0,1-1.559,1.238,4.826,4.826,0,0,1,2.358-2.079l.088.009h0c.122.02.157.048.094.11Z" transform="translate(-1636.324 -814.223)" fill="#1f1f39" opacity="0.23"/>
      <path id="Pfad_8610" data-name="Pfad 8610" d="M1930.256,990.1a12.3,12.3,0,0,1-2.485,2.033,3.642,3.642,0,0,1-1.321-.11c1.1-1.307,1.968-2.209,2.766-2.122.412.045.716.057.893.08s.22.047.149.118Z" transform="translate(-1635.959 -814.742)" fill="#9b9baa"/>
      <path id="Pfad_8611" data-name="Pfad 8611" d="M1937.771,990.588a12.257,12.257,0,0,1-2.471,2.039,5.61,5.61,0,0,1,2.322-2.156C1937.788,990.49,1937.842,990.517,1937.771,990.588Z" transform="translate(-1643.475 -815.233)" fill="#1f1f39" opacity="0.23"/>
      <path id="Pfad_8612" data-name="Pfad 8612" d="M1938.7,991.3a12.422,12.422,0,0,1-2.508,1.962,3.243,3.243,0,0,1-1.238-.093c1.1-1.307,2.218-2.168,2.664-2.126.413.039.756.118.932.14S1938.767,991.229,1938.7,991.3Z" transform="translate(-1643.178 -815.717)" fill="#9b9baa"/>
      <path id="Pfad_8613" data-name="Pfad 8613" d="M1945.668,992.1a12.422,12.422,0,0,1-2.508,1.962c.009-.341,1.439-2.107,2.358-2.079C1945.684,992,1945.739,992.025,1945.668,992.1Z" transform="translate(-1650.15 -816.514)" fill="#1f1f39" opacity="0.23"/>
      <path id="Pfad_8614" data-name="Pfad 8614" d="M1946.408,992.54a11.838,11.838,0,0,1-2.467,1.769,4.9,4.9,0,0,1-1.161.05c1.1-1.307,1.79-2.1,2.588-2.016.412.045.716.057.893.08s.22.047.149.118Z" transform="translate(-1649.827 -816.817)" fill="#9b9baa"/>
      <path id="Pfad_8615" data-name="Pfad 8615" d="M1047.9,597.09l.011.139.06.825.02.271.006.091c0,.015,0,.032,0,.047a.671.671,0,0,1-.621.669l-1.327.1a.67.67,0,0,1-.716-.62l-.009-.122-.008-.1-.014-.184-.008-.1-.057-.786,0-.035a.693.693,0,0,1,.009-.169.671.671,0,0,1,.611-.547l1.327-.1a.67.67,0,0,1,.683.452.609.609,0,0,1,.033.166Z" transform="translate(-887.626 -480.643)" fill="#616172"/>
      <path id="Pfad_8616" data-name="Pfad 8616" d="M1048.323,606.654l.02.271a1.9,1.9,0,0,1-.229.09l-2.443-.03-.014-.184-.007-.1a12.67,12.67,0,0,1,2.672-.05Z" transform="translate(-887.976 -489.244)" fill="#3b3b4c"/>
      <path id="Pfad_8617" data-name="Pfad 8617" d="M1046.721,594.6l-.228.017a.67.67,0,0,1,.033.166l.01.139a11.592,11.592,0,0,0-2.669.089l0-.035a.693.693,0,0,1,.009-.169l-.253.018a3.94,3.94,0,0,1,.053-.715l3.162-.359-.116.851Z" transform="translate(-886.25 -478.335)" fill="#3b3b4c"/>
      <path id="Pfad_8618" data-name="Pfad 8618" d="M1030.9,551.109a3.529,3.529,0,0,0-3.465,3.559,3.138,3.138,0,0,0,1.387,2.343l-.1-1.356a2.1,2.1,0,0,1-.38-1.054,2.837,2.837,0,0,1,5.587-.406,2.094,2.094,0,0,1-.223,1.1l.1,1.356a3.138,3.138,0,0,0,1.034-2.52,3.529,3.529,0,0,0-3.942-3.022Z" transform="translate(-872.502 -442.113)" fill="#616172"/>
      <path id="Pfad_8619" data-name="Pfad 8619" d="M1041.575,575.241l.179,2.476a.618.618,0,0,1-.572.662l-.208.015-.228.017-2.619.19-.253.018-.182.014a.618.618,0,0,1-.662-.571l-.179-2.476a.62.62,0,0,1,.495-.651.441.441,0,0,1,.078-.011l.36-.026.269-.02.448-.033.357-.026.452-.033.279-.02.446-.032.38-.027.457-.033.041,0a.62.62,0,0,1,.662.573Z" transform="translate(-880.502 -462.132)" fill="#616172"/>
      <path id="Pfad_8620" data-name="Pfad 8620" d="M1040.888,578.994c.024.294-.035.472-.306.469-.252,0-.264-.958-.442-3.247a.453.453,0,0,1,.078-.011l.36-.026c.107.947.294,2.606.311,2.814Z" transform="translate(-883.297 -463.414)" fill="#3b3b4c"/>
      <path id="Pfad_8621" data-name="Pfad 8621" d="M1045.548,578.377c.024.294-.035.472-.306.469-.243,0-.262-.884-.422-2.983l.448-.033C1045.376,576.794,1045.533,578.187,1045.548,578.377Z" transform="translate(-887.271 -463.117)" fill="#3b3b4c"/>
      <path id="Pfad_8622" data-name="Pfad 8622" d="M1050.891,577.892c.024.294-.035.472-.306.469-.238,0-.262-.858-.415-2.888l.452-.033c.109.958.255,2.268.27,2.452Z" transform="translate(-891.814 -462.786)" fill="#3b3b4c"/>
      <path id="Pfad_8623" data-name="Pfad 8623" d="M1055.751,577.685c.024.294-.035.472-.306.469-.244,0-.262-.9-.425-3.022l.446-.032c.109.964.268,2.393.285,2.586Z" transform="translate(-895.933 -462.497)" fill="#3b3b4c"/>
      <path id="Pfad_8624" data-name="Pfad 8624" d="M1061.209,576.985c.024.294-.035.472-.306.469-.232,0-.261-.813-.4-2.731l.457-.033C1061.062,575.628,1061.2,576.81,1061.209,576.985Z" transform="translate(-900.586 -462.149)" fill="#3b3b4c"/>
      <path id="Pfad_8625" data-name="Pfad 8625" d="M982.334,630.852a15.57,15.57,0,0,1-21,6.611,15.94,15.94,0,0,1-8.15-10.586c-.06-.267-.115-.534-.163-.8-.012-.065-.023-.13-.033-.195-.018-.115-.036-.229-.051-.344a15.7,15.7,0,0,1-.149-1.957c0-.207,0-.415,0-.623a15.194,15.194,0,0,1,1.538-6.261q.086-.174.176-.348c.026-.05.051-.1.078-.148a15.062,15.062,0,0,1,1.454-2.224,15.232,15.232,0,0,1,3.441-3.2,15.929,15.929,0,0,1,16.248-.929,15.57,15.57,0,0,1,6.611,21Z" transform="translate(-809.111 -490.484)" fill="#616172"/>
      <path id="Pfad_8626" data-name="Pfad 8626" d="M982.334,630.852a15.57,15.57,0,0,1-21,6.611,15.94,15.94,0,0,1-8.15-10.586c-.06-.267-.115-.534-.163-.8-.012-.065-.023-.13-.033-.195-.018-.115-.036-.229-.051-.344a15.7,15.7,0,0,1-.149-1.957c0-.207,0-.415,0-.623a15.194,15.194,0,0,1,1.538-6.261q.086-.174.176-.348c.026-.05.051-.1.078-.148a15.062,15.062,0,0,1,1.454-2.224,15.232,15.232,0,0,1,3.441-3.2,15.929,15.929,0,0,1,16.248-.929,15.57,15.57,0,0,1,6.611,21Z" transform="translate(-809.111 -490.484)" fill="#00628f"/>
      <path id="Pfad_8627" data-name="Pfad 8627" d="M963.536,617.56a21.181,21.181,0,0,0-.066,2.23h0c.008.487.023.882.029,1.049,0,.057,0,.089,0,.089s-4.2,7.5-5.216,7.5h-.21c-.291,0-.685.012-1.122.014-.673,0-1.448-.012-2.1-.077a15.138,15.138,0,0,1,1.23-3.6q.086-.174.176-.348c.026-.05.051-.1.078-.148a15.058,15.058,0,0,1,1.454-2.224,15.23,15.23,0,0,1,3.441-3.2A15.811,15.811,0,0,1,963.536,617.56Z" transform="translate(-810.876 -498.555)" fill="#fff" opacity="0.17"/>
      <path id="Pfad_8628" data-name="Pfad 8628" d="M993.905,643.547a12.819,12.819,0,0,1-5.929,5.689,13.284,13.284,0,0,1-11.26.012c-.19-.087-.378-.181-.567-.279a13.78,13.78,0,0,1-2.285-1.5,13.051,13.051,0,0,1-3.354-16.227A12.652,12.652,0,0,1,983.28,624.4h0a13.844,13.844,0,0,1,4.323,1.2c.193.089.385.184.576.284a13.349,13.349,0,0,1,5.189,4.8,12.966,12.966,0,0,1,.535,12.862Z" transform="translate(-822.896 -504.299)" fill="#fff"/>
      <path id="Pfad_8629" data-name="Pfad 8629" d="M987.605,625.613a13.954,13.954,0,0,0-3.317-.78h0a12.7,12.7,0,0,0-12.813,6.866,13.1,13.1,0,0,0,3.364,16.282,13.75,13.75,0,0,0,1.877,1.277c-.19-.087-.378-.181-.567-.279a13.782,13.782,0,0,1-2.284-1.5,13.051,13.051,0,0,1-3.354-16.227,12.652,12.652,0,0,1,12.769-6.841h0a13.842,13.842,0,0,1,4.323,1.2Z" transform="translate(-822.896 -504.308)" fill="#0067a7" opacity="0.36"/>
      <path id="Pfad_8630" data-name="Pfad 8630" d="M1078.032,679.371a12.82,12.82,0,0,1-5.929,5.689,13.621,13.621,0,0,1-4.023,1.157,14.167,14.167,0,0,0,9.417-19.707,12.967,12.967,0,0,1,.535,12.862Z" transform="translate(-907.023 -540.123)" fill="#474756" opacity="0.26"/>
      <ellipse id="Ellipse_39" data-name="Ellipse 39" cx="7.353" cy="7.353" rx="7.353" ry="7.353" transform="translate(149.808 130.481) rotate(-28)" fill="#7c7c89"/>
      <ellipse id="Ellipse_40" data-name="Ellipse 40" cx="6.66" cy="6.66" rx="6.66" ry="6.66" transform="translate(150.796 136.419) rotate(-62.89)" fill="#fff"/>
      <path id="Pfad_8631" data-name="Pfad 8631" d="M1053.629,652.38l-.979.059-.96.059s.375-2.607.923-2.652c.68-.056,1.015,2.535,1.015,2.535Z" transform="translate(-893.105 -525.97)" fill="#7c7c89"/>
      <path id="Pfad_8632" data-name="Pfad 8632" d="M1058.443,760.71l-.92.018-.9.017s.552,2.577,1.04,2.535C1058.034,763.248,1058.443,760.71,1058.443,760.71Z" transform="translate(-897.292 -620.119)" fill="#7c7c89"/>
      <path id="Pfad_8633" data-name="Pfad 8633" d="M998.083,711.458l-.062-.953-.06-.935s-2.444.549-2.395,1.146,2.515.742,2.515.742Z" transform="translate(-845.443 -576.69)" fill="#7c7c89"/>
      <path id="Pfad_8634" data-name="Pfad 8634" d="M1106.161,705.98l-.1-.959-.095-.941s2.731.244,2.776.8c.036.443-2.585,1.1-2.585,1.1Z" transform="translate(-939.2 -572.028)" fill="#7c7c89"/>
      <path id="Pfad_8635" data-name="Pfad 8635" d="M1018.5,676.843h0a.341.341,0,0,1-.481.039l-1.155-.979a.341.341,0,0,1-.039-.481h0a.341.341,0,0,1,.481-.039l1.155.979a.342.342,0,0,1,.039.481Z" transform="translate(-863.427 -547.59)" fill="#7c7c89"/>
      <path id="Pfad_8636" data-name="Pfad 8636" d="M.312,0h.06A.313.313,0,0,1,.685.312V1.822a.313.313,0,0,1-.312.312H.312A.313.313,0,0,1,0,1.822V.312A.313.313,0,0,1,.312,0Z" transform="translate(164.516 137.718) rotate(-49.71)" fill="#7c7c89"/>
      <path id="Pfad_8637" data-name="Pfad 8637" d="M1088.106,670.273h0a.342.342,0,0,1,.039.481l-.982,1.16a.341.341,0,0,1-.481.039h0a.342.342,0,0,1-.039-.481l.982-1.16A.342.342,0,0,1,1088.106,670.273Z" transform="translate(-922.719 -543.25)" fill="#7c7c89"/>
      <path id="Pfad_8638" data-name="Pfad 8638" d="M1021.958,744.133h0a.342.342,0,0,1,.039.481l-.983,1.16a.341.341,0,0,1-.481.039h0a.341.341,0,0,1-.039-.481l.983-1.16a.342.342,0,0,1,.481-.039Z" transform="translate(-866.544 -605.973)" fill="#7c7c89"/>
      <path id="Pfad_8639" data-name="Pfad 8639" d="M1052.513,632.943c-.781.657-1.053-.9-1.378-1.33.065.46.1,1.034.14,1.5-.16.05-.455.143-.538-.078.009-.157-.354-2.239-.068-2.3.65-.36.869.78,1.126,1.175.231.618.021-.394.03-.621.026-.075-.154-.742.054-.682.229-.056.46-.047.464.271l.17,2.058Z" transform="translate(-892.144 -509.616)" fill="#616172"/>
      <path id="Pfad_8640" data-name="Pfad 8640" d="M1059.627,780.383a.761.761,0,0,1-.51-1.221c.249-.336,1.363-.41,1.179.267-.072.247-.324-.045-.523.03-.169,0-.345.139-.208.279.677.185,1.294.6.8,1.366-.262.365-1.506.4-1.262-.324.119-.273.369.127.608.036.445-.056.253-.4-.08-.433Z" transform="translate(-899.268 -635.576)" fill="#616172"/>
      <path id="Pfad_8641" data-name="Pfad 8641" d="M1125.806,700.337c-.128-.621,1.063-.383,1.35-.487.362.7-.394.562-.781.617l.03.372c.365.009.991-.285.781.419-.057.128-.629.094-.736.125l.035.421.838-.069a.624.624,0,0,1,.081.264c.137.5-.92.287-1.125.379-.575.084-.347-1.743-.474-2.042Z" transform="translate(-956.037 -568.436)" fill="#616172"/>
      <path id="Pfad_8642" data-name="Pfad 8642" d="M978.409,708.4c.734-.452.751.686.947,1.16a6.942,6.942,0,0,0,.036-.912c0-.29.006-.567.008-.858.318-.259.662-.03.578.4a10.515,10.515,0,0,1-.158,1.841c-.718.541-.891-.232-1.049-.849-.089.333.05.873-.246,1.048-.19.083-.531.1-.65-.1a11.9,11.9,0,0,1-.479-1.745c-.273-.474.419-.79.55-.268C978.266,709.407,978.243,710.435,978.409,708.4Z" transform="translate(-829.959 -575.081)" fill="#616172"/>
      <path id="Pfad_8643" data-name="Pfad 8643" d="M1009.857,752.315a.052.052,0,0,0-.035-.036,2.151,2.151,0,0,1-1.34-1.208.054.054,0,0,0-.1.044,2.251,2.251,0,0,0,1.4,1.265.054.054,0,0,0,.068-.033.057.057,0,0,0,0-.032Z" transform="translate(-856.325 -611.906)" fill="#603a3e"/>
      <path id="Pfad_8644" data-name="Pfad 8644" d="M1005.335,750.564a.053.053,0,0,0-.021-.03,2.468,2.468,0,0,1-.665-.642,2.638,2.638,0,0,1-.366-.844h0a.053.053,0,1,0-.1.027,2.462,2.462,0,0,0,1.075,1.547.053.053,0,0,0,.074-.014.052.052,0,0,0,.008-.044Z" transform="translate(-852.757 -610.181)" fill="#603a3e"/>
      <path id="Pfad_8645" data-name="Pfad 8645" d="M1106.3,660.326a.05.05,0,0,0,.03.039,2.091,2.091,0,0,1,1.211,1.334.056.056,0,0,0,.069.035.054.054,0,0,0,.039-.065,2.189,2.189,0,0,0-1.267-1.4.06.06,0,0,0-.076.024.053.053,0,0,0-.006.03Z" transform="translate(-939.48 -534.822)" fill="#603a3e"/>
      <path id="Pfad_8646" data-name="Pfad 8646" d="M1112.86,661.254a.049.049,0,0,0,.018.032,2.192,2.192,0,0,1,.846,1.565h0a.053.053,0,0,0,.062.044.055.055,0,0,0,.05-.059,2.293,2.293,0,0,0-.882-1.63.06.06,0,0,0-.08,0,.05.05,0,0,0-.015.042Z" transform="translate(-945.049 -535.608)" fill="#603a3e"/>
      <path id="Pfad_8647" data-name="Pfad 8647" d="M1035.258,709.355l-2.155-1.1-2.343-1.2s-2.4,9.676-2.321,10.9c0,.074.018.116.042.125.365.127,6.777-8.726,6.777-8.726Z" transform="translate(-873.358 -574.559)" fill="url(#radial-gradient)"/>
      <path id="Pfad_8648" data-name="Pfad 8648" d="M1048.338,661.524s3.037-10.475,2.431-10.776c-.273-.136-.938.835-1.969,2.1-2.052,2.514-4.959,6.381-4.959,6.381l2.343,1.2,2.155,1.1Z" transform="translate(-886.439 -526.728)" fill="#307ea2"/>
      <path id="Pfad_8649" data-name="Pfad 8649" d="M1028.439,673.918c.991-1.814,2.984-5.756,4.664-9.7,1.178-2.768,3.357-6.977,3.771-9.016-2.4,2.711-6.115,7.82-6.115,7.82S1028.359,672.7,1028.439,673.918Z" transform="translate(-873.358 -530.519)" fill="#fff" opacity="0.26"/>
      <ellipse id="Ellipse_41" data-name="Ellipse 41" cx="2.104" cy="2.104" rx="2.104" ry="2.104" transform="matrix(0.354, -0.935, 0.935, 0.354, 156.979, 134.823)" fill="#3b3b4c"/>
      <path id="Pfad_8650" data-name="Pfad 8650" d="M1050.29,704.931a1.449,1.449,0,0,1,1.249-.861" transform="translate(-891.916 -572.02)" fill="none" stroke="#fff" stroke-linecap="round" stroke-miterlimit="10" stroke-width="1.61" opacity="0.75"/>
      <path id="Pfad_8651" data-name="Pfad 8651" d="M1049.311,714.028a1.744,1.744,0,0,1-.048-.588" transform="translate(-891.038 -579.977)" fill="none" stroke="#fff" stroke-linecap="round" stroke-miterlimit="10" stroke-width="1.61" opacity="0.75"/>
      <path id="Pfad_8652" data-name="Pfad 8652" d="M1797.2,496.169a8.48,8.48,0,0,0,4.023.161,4.63,4.63,0,0,0-1.975-.279,5.539,5.539,0,0,0-2.049.118Z" transform="translate(-1526.199 -395.358)" fill="#32323f" opacity="0.23"/>
      <path id="Pfad_8653" data-name="Pfad 8653" d="M1763.952,495.189a8.48,8.48,0,0,0,4.023.161,4.631,4.631,0,0,0-1.975-.279,5.54,5.54,0,0,0-2.049.118Z" transform="translate(-1497.963 -394.526)" fill="#32323f" opacity="0.23"/>
      <path id="Pfad_8654" data-name="Pfad 8654" d="M1730.662,494.209a8.48,8.48,0,0,0,4.023.161,4.63,4.63,0,0,0-1.975-.279,5.541,5.541,0,0,0-2.049.118Z" transform="translate(-1469.693 -393.694)" fill="#32323f" opacity="0.23"/>
      <path id="Pfad_8655" data-name="Pfad 8655" d="M1695.942,493.189a8.48,8.48,0,0,0,4.023.161,4.63,4.63,0,0,0-1.975-.279,5.539,5.539,0,0,0-2.049.118Z" transform="translate(-1440.208 -392.827)" fill="#32323f" opacity="0.23"/>
      <path id="Pfad_8656" data-name="Pfad 8656" d="M1661.882,492.179a8.481,8.481,0,0,0,4.023.161,4.63,4.63,0,0,0-1.975-.279,5.539,5.539,0,0,0-2.049.118Z" transform="translate(-1411.284 -391.97)" fill="#32323f" opacity="0.23"/>
      <path id="Pfad_8657" data-name="Pfad 8657" d="M1769.429,397.318l-.407,14.043a.453.453,0,0,1-.421.475l-2.809-.081a.452.452,0,0,1-.394-.5l.407-14.043a.452.452,0,0,1,.421-.475l2.809.081a.45.45,0,0,1,.392.5Z" transform="translate(-1499.193 -311.031)" fill="#0267a4"/>
      <path id="Pfad_8658" data-name="Pfad 8658" d="M1783.609,397.625l-.407,14.043a.452.452,0,0,1-.421.475l-.6-.018c-.16-2.7-.075-9.132.128-15.025l.908.026a.45.45,0,0,1,.392.5Z" transform="translate(-1513.373 -311.338)" fill="#f4f3f2" opacity="0.11"/>
      <path id="Pfad_8659" data-name="Pfad 8659" d="M1798.614,419.414l-.315,10.842a.451.451,0,0,0,.394.5l2.809.081a.453.453,0,0,0,.421-.475l.315-10.842a.553.553,0,0,0-.08-.306.384.384,0,0,0-.312-.191l-1.591-.047-1.218-.035a.453.453,0,0,0-.421.475Z" transform="translate(-1527.132 -329.884)" fill="#0267a4"/>
      <path id="Pfad_8660" data-name="Pfad 8660" d="M1816.225,419.833l-.315,10.842a.453.453,0,0,1-.421.475l-.6-.018c-.16-2.7-.166-5.929.038-11.822l.908.026A.45.45,0,0,1,1816.225,419.833Z" transform="translate(-1541.119 -330.199)" fill="#f4f3f2" opacity="0.11"/>
      <path id="Pfad_8661" data-name="Pfad 8661" d="M1732.457,406.391l-.368,12.719a.394.394,0,0,0,.4.388l2.206.063.6.018a.393.393,0,0,0,.418-.363l.368-12.719a.394.394,0,0,0-.4-.388l-.908-.026-.469-.014-1.431-.041a.433.433,0,0,0-.2.042h0a.372.372,0,0,0-.219.321Z" transform="translate(-1470.906 -318.921)" fill="#0267a4"/>
      <path id="Pfad_8662" data-name="Pfad 8662" d="M1750.474,406.785l-.368,12.719a.393.393,0,0,1-.418.363l-.6-.018c.092-1.73-.211-11.483.084-13.479l.908.026a.393.393,0,0,1,.4.388Z" transform="translate(-1485.3 -319.21)" fill="#f4f3f2" opacity="0.11"/>
      <path id="Pfad_8663" data-name="Pfad 8663" d="M1701.473,378.048l-.49,16.852a.393.393,0,0,1-.418.363l-2.809-.081a.392.392,0,0,1-.4-.388l.49-16.852a.393.393,0,0,1,.418-.363l2.809.081A.393.393,0,0,1,1701.473,378.048Z" transform="translate(-1441.413 -294.76)" fill="#0267a4"/>
      <path id="Pfad_8664" data-name="Pfad 8664" d="M1716.139,378.355l-.49,16.852a.393.393,0,0,1-.418.363l-.6-.018c.013-.692.036-15.782.207-17.612l.908.026a.393.393,0,0,1,.4.388Z" transform="translate(-1456.08 -295.067)" fill="#f4f3f2" opacity="0.11"/>
      <path id="Pfad_8665" data-name="Pfad 8665" d="M1830.312,497.139a8.48,8.48,0,0,0,4.023.161,4.632,4.632,0,0,0-1.975-.279,5.542,5.542,0,0,0-2.049.118Z" transform="translate(-1554.316 -396.182)" fill="#32323f" opacity="0.23"/>
      <path id="Pfad_8666" data-name="Pfad 8666" d="M1835.843,382l-.49,16.852a.393.393,0,0,1-.418.363l-2.809-.081a.392.392,0,0,1-.4-.388l.49-16.852a.393.393,0,0,1,.418-.363l2.809.081A.393.393,0,0,1,1835.843,382Z" transform="translate(-1555.521 -298.115)" fill="#0267a4"/>
      <path id="Pfad_8667" data-name="Pfad 8667" d="M1850.509,382.3l-.49,16.852a.393.393,0,0,1-.418.363l-.6-.018c.014-.692.036-15.782.207-17.612l.908.026a.393.393,0,0,1,.4.388Z" transform="translate(-1570.188 -298.421)" fill="#f4f3f2" opacity="0.11"/>
      <path id="Pfad_8668" data-name="Pfad 8668" d="M1667.33,392.048l-.407,14.59a.393.393,0,0,1-.418.363l-2.809-.081a.392.392,0,0,1-.4-.388l.407-14.591a.393.393,0,0,1,.418-.363l2.809.081A.393.393,0,0,1,1667.33,392.048Z" transform="translate(-1412.489 -306.649)" fill="#0267a4"/>
      <path id="Pfad_8669" data-name="Pfad 8669" d="M1681.721,392.355l-.407,14.59a.393.393,0,0,1-.418.363l-.6-.018c.029-.8-.193-14.283.124-15.35l.908.026a.393.393,0,0,1,.4.388Z" transform="translate(-1426.88 -306.956)" fill="#f4f3f2" opacity="0.11"/>
      <path id="Pfad_8670" data-name="Pfad 8670" d="M1691.393,355.115c-.479,0-1.348-.724-3.3-2.545-.534-.5-1.134-1.056-1.324-1.178-.475.069-3.329.932-5.08,1.478a.269.269,0,0,1-.273-.068c-1.642-1.644-4.316-4.276-4.809-4.649-.523.119-3.156,1.169-5.487,2.146l-.045.015-.173.039a.272.272,0,0,1-.121-.531l.151-.033a59.552,59.552,0,0,1,5.725-2.189c.148,0,.324,0,5.027,4.7,1.856-.579,4.833-1.479,5.157-1.457.19.017.4.19,1.624,1.327a16.493,16.493,0,0,0,2.912,2.4,61.52,61.52,0,0,0,5.717-5.431.272.272,0,1,1,.391.378c-.863.89-5.207,5.34-5.961,5.579a.408.408,0,0,1-.124.018Zm-.006-.543Z" transform="translate(-1418.659 -269.302)" fill="#419671"/>
      <path id="Pfad_8671" data-name="Pfad 8671" d="M1668.727,356.449a1.108,1.108,0,1,1-.808-1.342A1.108,1.108,0,0,1,1668.727,356.449Z" transform="translate(-1415.245 -275.649)" fill="#419671"/>
      <path id="Pfad_8672" data-name="Pfad 8672" d="M1670.63,358.639a.7.7,0,1,1-.51-.847A.7.7,0,0,1,1670.63,358.639Z" transform="translate(-1417.544 -277.939)" fill="#fff"/>
      <path id="Pfad_8673" data-name="Pfad 8673" d="M1705.217,343.369a1.108,1.108,0,1,1-.808-1.342A1.108,1.108,0,0,1,1705.217,343.369Z" transform="translate(-1446.233 -264.541)" fill="#419671"/>
      <path id="Pfad_8674" data-name="Pfad 8674" d="M1707.12,345.569a.7.7,0,1,1-.51-.847A.7.7,0,0,1,1707.12,345.569Z" transform="translate(-1448.532 -266.84)" fill="#fff"/>
      <path id="Pfad_8675" data-name="Pfad 8675" d="M1738.667,374.389a1.108,1.108,0,1,1-.808-1.342A1.108,1.108,0,0,1,1738.667,374.389Z" transform="translate(-1474.639 -290.884)" fill="#419671"/>
      <path id="Pfad_8676" data-name="Pfad 8676" d="M1740.569,376.59a.7.7,0,1,1-.51-.847A.7.7,0,0,1,1740.569,376.59Z" transform="translate(-1476.938 -293.183)" fill="#fff"/>
      <path id="Pfad_8677" data-name="Pfad 8677" d="M1772.337,365.459a1.108,1.108,0,1,1-.808-1.342A1.109,1.109,0,0,1,1772.337,365.459Z" transform="translate(-1503.232 -283.301)" fill="#419671"/>
      <path id="Pfad_8678" data-name="Pfad 8678" d="M1774.24,367.65a.7.7,0,1,1-.51-.847A.7.7,0,0,1,1774.24,367.65Z" transform="translate(-1505.531 -285.591)" fill="#fff"/>
      <path id="Pfad_8679" data-name="Pfad 8679" d="M1803.677,389.049a1.108,1.108,0,1,1-.808-1.342A1.108,1.108,0,0,1,1803.677,389.049Z" transform="translate(-1529.846 -303.333)" fill="#419671"/>
      <path id="Pfad_8680" data-name="Pfad 8680" d="M1805.58,391.239a.7.7,0,1,1-.51-.847A.7.7,0,0,1,1805.58,391.239Z" transform="translate(-1532.145 -305.623)" fill="#fff"/>
      <path id="Pfad_8681" data-name="Pfad 8681" d="M1841.747,353.959a1.108,1.108,0,1,1-.808-1.342A1.108,1.108,0,0,1,1841.747,353.959Z" transform="translate(-1562.175 -273.535)" fill="#419671"/>
      <path id="Pfad_8682" data-name="Pfad 8682" d="M1843.65,356.15a.7.7,0,1,1-.51-.847A.7.7,0,0,1,1843.65,356.15Z" transform="translate(-1564.474 -275.825)" fill="#fff"/>
      <path id="Pfad_8683" data-name="Pfad 8683" d="M1894.485,538.345c-3.589,8.7-15.611,26.688-13.722,28.885,1.054,1.224,21.154,11.24,22.135,10.563,1.853-1.28,15.257-28,13.989-29.3s-21.331-12.74-22.4-10.148Z" transform="translate(-1596.992 -430.961)" fill="#e6eff1"/>
      <path id="Pfad_8684" data-name="Pfad 8684" d="M2062.26,616.771a2.328,2.328,0,0,1-.333.483,2.286,2.286,0,1,1,.588-1.606h0a2.289,2.289,0,0,1-.255,1.125Z" transform="translate(-1747.632 -495.055)" fill="#b71a2d"/>
      <path id="Pfad_8685" data-name="Pfad 8685" d="M2064.2,618.878a1.846,1.846,0,0,1-.273.4,1.876,1.876,0,1,1,.482-1.319h0a1.871,1.871,0,0,1-.209.923Z" transform="translate(-1749.938 -497.35)" fill="#fff"/>
      <ellipse id="Ellipse_42" data-name="Ellipse 42" cx="1.433" cy="1.429" rx="1.433" ry="1.429" transform="matrix(0.459, -0.888, 0.888, 0.459, 310.66, 121.27)" fill="#b71a2d"/>
      <path id="Pfad_8686" data-name="Pfad 8686" d="M2068.4,623.474a.988.988,0,1,1-.422-1.333A.99.99,0,0,1,2068.4,623.474Z" transform="translate(-1754.918 -502.351)" fill="#fff"/>
      <path id="Pfad_8687" data-name="Pfad 8687" d="M2070.652,625.932a.514.514,0,1,1-.22-.694A.515.515,0,0,1,2070.652,625.932Z" transform="translate(-1757.592 -505.026)" fill="#b71a2d"/>
      <path id="Pfad_8688" data-name="Pfad 8688" d="M1980.344,653.667c-.57,0-1.327-.024-1.374-.026a.04.04,0,0,1-.018,0l-.79-.409a.043.043,0,0,1,.039-.075l.783.4c.133,0,1.594.05,1.91.009a.043.043,0,0,1,.048.038.043.043,0,0,1-.038.048,5.558,5.558,0,0,1-.561.018Z" transform="translate(-1679.854 -528.777)" fill="#586063"/>
      <rect id="Rechteck_1455" data-name="Rechteck 1455" width="0.4" height="1.443" rx="0.2" transform="translate(296.654 123.768) rotate(-62.65)" fill="#3b3b4c" opacity="0.27"/>
      <path id="Pfad_8689" data-name="Pfad 8689" d="M1954.988,640.379l.7.36c.024.012.027.051.009.088l-.116.225c-.018.036-.053.054-.077.042l-.7-.36c-.024-.012-.027-.051-.009-.087l.116-.225C1954.929,640.385,1954.963,640.367,1954.988,640.379Z" transform="translate(-1660.02 -517.93)" fill="#3b3b4c" opacity="0.27"/>
      <rect id="Rechteck_1456" data-name="Rechteck 1456" width="0.4" height="0.826" rx="0.2" transform="translate(295.672 123.257) rotate(-62.65)" fill="#3b3b4c" opacity="0.27"/>
      <path id="Pfad_8690" data-name="Pfad 8690" d="M2033.226,635.283h-.009a.043.043,0,0,1-.033-.051c0-.011.22-1.039.285-1.434l-.427-.256a.043.043,0,0,1,.044-.074l.451.271a.042.042,0,0,1,.02.044c-.059.374-.29,1.455-.291,1.466a.043.043,0,0,1-.042.033Z" transform="translate(-1726.461 -512.058)" fill="#586063"/>
      <rect id="Rechteck_1457" data-name="Rechteck 1457" width="0.333" height="0.688" rx="0.167" transform="translate(306.912 123.476) rotate(-62.65)" fill="#3b3b4c" opacity="0.27"/>
      <rect id="Rechteck_1458" data-name="Rechteck 1458" width="0.333" height="1.202" rx="0.167" transform="translate(307.717 123.875) rotate(-62.65)" fill="#3b3b4c" opacity="0.27"/>
      <rect id="Rechteck_1459" data-name="Rechteck 1459" width="0.333" height="1.108" rx="0.167" transform="translate(309.196 124.639) rotate(-62.65)" fill="#3b3b4c" opacity="0.27"/>
      <path id="Pfad_8691" data-name="Pfad 8691" d="M1957.476,687.356a.044.044,0,0,1-.042-.038l-.155-1.33-.867-.449a.042.042,0,0,1-.018-.057.043.043,0,0,1,.057-.018l.888.46a.041.041,0,0,1,.022.033l.158,1.353a.041.041,0,0,1-.038.047h0Z" transform="translate(-1661.383 -556.215)" fill="#586063"/>
      <rect id="Rechteck_1460" data-name="Rechteck 1460" width="0.321" height="1.158" rx="0.161" transform="translate(291.59 127.676) rotate(-62.65)" fill="#3b3b4c" opacity="0.27"/>
      <rect id="Rechteck_1461" data-name="Rechteck 1461" width="0.321" height="1.068" rx="0.161" transform="translate(292.985 128.398) rotate(-62.65)" fill="#3b3b4c" opacity="0.27"/>
      <rect id="Rechteck_1462" data-name="Rechteck 1462" width="0.321" height="0.663" rx="0.161" transform="translate(294.031 128.934) rotate(-62.65)" fill="#3b3b4c" opacity="0.27"/>
      <path id="Pfad_8692" data-name="Pfad 8692" d="M1991.673,709.51a.042.042,0,0,1-.02,0l-.464-.24a.043.043,0,0,1-.02-.056c.006-.012.55-1.163.85-1.766a.043.043,0,0,1,.077.038c-.268.541-.736,1.523-.832,1.727l.428.222a.042.042,0,0,1,.018.057A.042.042,0,0,1,1991.673,709.51Z" transform="translate(-1690.916 -574.865)" fill="#586063"/>
      <rect id="Rechteck_1463" data-name="Rechteck 1463" width="0.348" height="1.258" rx="0.174" transform="translate(302.712 135.783) rotate(-62.65)" fill="#3b3b4c" opacity="0.27"/>
      <path id="Pfad_8693" data-name="Pfad 8693" d="M1996.767,721.212l.606.314c.021.011.024.045.008.075l-.1.2c-.017.032-.045.048-.066.038l-.606-.314c-.021-.011-.024-.045-.007-.075l.1-.2C1996.718,721.218,1996.746,721.2,1996.767,721.212Z" transform="translate(-1695.522 -586.574)" fill="#3b3b4c" opacity="0.27"/>
      <rect id="Rechteck_1464" data-name="Rechteck 1464" width="0.348" height="0.719" rx="0.174" transform="translate(301.86 135.341) rotate(-62.65)" fill="#3b3b4c" opacity="0.27"/>
      <path id="Pfad_8694" data-name="Pfad 8694" d="M1924.064,706.872a1.669,1.669,0,1,1,1.485-.9h0A1.671,1.671,0,0,1,1924.064,706.872Zm0-2.836a1.167,1.167,0,1,0,1.034,1.7h0a1.166,1.166,0,0,0-1.034-1.7Zm1.258,1.819Z" transform="translate(-1632.518 -571.563)" fill="#0069a8"/>
      <path id="Pfad_8695" data-name="Pfad 8695" d="M1949.609,625.3a5.264,5.264,0,0,1-2.738-.816.251.251,0,0,1,.279-.418,4.457,4.457,0,0,0,3.2.644,1.735,1.735,0,0,0,1.163-.9c.368-.712-.015-1.579-.419-2.5-.47-1.066-1-2.275-.219-3.31.876-1.154,2.53-.771,4.129-.4,1.392.323,2.707.627,3.293-.11.947-1.188.044-2.568-.912-4.026-.9-1.372-1.829-2.79-1.181-4.133a3.467,3.467,0,0,1,2.042-2.009c1.167-.356,2.654.051,4.819,1.319a.251.251,0,1,1-.253.434c-2.034-1.191-3.4-1.583-4.418-1.273a3,3,0,0,0-1.736,1.746c-.525,1.087.288,2.327,1.148,3.64,1.012,1.544,2.058,3.141.885,4.614-.784.985-2.318.629-3.8.286-1.443-.335-2.936-.68-3.616.214-.606.8-.177,1.772.277,2.8.434.986.885,2.006.407,2.931a2.215,2.215,0,0,1-1.484,1.151A3.453,3.453,0,0,1,1949.609,625.3Z" transform="translate(-1653.205 -489.759)" fill="#0069a8"/>
      <path id="Pfad_8696" data-name="Pfad 8696" d="M1958.8,696.65a19.657,19.657,0,0,0,.842,2.275" transform="translate(-1663.431 -565.719)" fill="none" stroke="#3b3b4d" stroke-linecap="round" stroke-linejoin="round" stroke-width="3.41"/>
      <path id="Pfad_8697" data-name="Pfad 8697" d="M1956.083,702.618a3.568,3.568,0,0,0-2.413.394" transform="translate(-1659.075 -570.7)" fill="none" stroke="#3b3b4d" stroke-linecap="round" stroke-linejoin="round" stroke-width="3.41"/>
      <path id="Pfad_8698" data-name="Pfad 8698" d="M1997.266,588.626a.044.044,0,0,1-.042-.038l-.155-1.33-.867-.449a.042.042,0,1,1,.039-.075l.888.46a.042.042,0,0,1,.023.033l.158,1.353a.041.041,0,0,1-.038.047h0Z" transform="translate(-1695.173 -472.372)" fill="#586063"/>
      <rect id="Rechteck_1465" data-name="Rechteck 1465" width="0.321" height="1.158" rx="0.161" transform="translate(297.59 112.79) rotate(-62.65)" fill="#3b3b4c" opacity="0.27"/>
      <rect id="Rechteck_1466" data-name="Rechteck 1466" width="0.321" height="1.068" rx="0.161" transform="translate(298.986 113.511) rotate(-62.65)" fill="#3b3b4c" opacity="0.27"/>
      <rect id="Rechteck_1467" data-name="Rechteck 1467" width="0.321" height="0.663" rx="0.161" transform="translate(300.037 114.055) rotate(-62.65)" fill="#3b3b4c" opacity="0.27"/>
      <path id="Pfad_8699" data-name="Pfad 8699" d="M1998.58,597.91a19.683,19.683,0,0,0,.842,2.275" transform="translate(-1697.213 -481.868)" fill="none" stroke="#3b3b4d" stroke-linecap="round" stroke-linejoin="round" stroke-width="3.41"/>
      <path id="Pfad_8700" data-name="Pfad 8700" d="M1995.863,603.878a3.567,3.567,0,0,0-2.413.394" transform="translate(-1692.856 -486.849)" fill="none" stroke="#3b3b4d" stroke-linecap="round" stroke-linejoin="round" stroke-width="3.41"/>
      <path id="Pfad_8701" data-name="Pfad 8701" d="M1994.75,686.76a25.378,25.378,0,0,0,1.089,2.943" transform="translate(-1693.96 -557.32)" fill="none" stroke="#3b3b4d" stroke-linecap="round" stroke-linejoin="round" stroke-width="3.41"/>
      <path id="Pfad_8702" data-name="Pfad 8702" d="M1991.232,694.488c-.923-.376-2.22.133-3.121.51" transform="translate(-1688.322 -563.77)" fill="none" stroke="#3b3b4d" stroke-linecap="round" stroke-linejoin="round" stroke-width="3.41"/>
      <path id="Pfad_8703" data-name="Pfad 8703" d="M2000.62,649.98a25.379,25.379,0,0,0,1.089,2.943" transform="translate(-1698.945 -526.086)" fill="none" stroke="#3b3b4d" stroke-linecap="round" stroke-linejoin="round" stroke-width="3.41"/>
      <path id="Pfad_8704" data-name="Pfad 8704" d="M1997.1,657.7c-.923-.375-2.22.133-3.121.51" transform="translate(-1693.307 -532.528)" fill="none" stroke="#3b3b4d" stroke-linecap="round" stroke-linejoin="round" stroke-width="3.41"/>
      <path id="Pfad_8705" data-name="Pfad 8705" d="M2023.49,620.82a22,22,0,0,0,.939,2.542" transform="translate(-1718.367 -501.323)" fill="none" stroke="#3b3b4d" stroke-linecap="round" stroke-linejoin="round" stroke-width="3.18"/>
      <path id="Pfad_8706" data-name="Pfad 8706" d="M2020.456,627.489a3.981,3.981,0,0,0-2.7.44" transform="translate(-1713.501 -506.89)" fill="none" stroke="#3b3b4d" stroke-linecap="round" stroke-linejoin="round" stroke-width="3.18"/>
      <path id="Pfad_8707" data-name="Pfad 8707" d="M2046.959,688.289h-.009a.039.039,0,0,1-.03-.048c0-.011.208-.974.269-1.345l-.4-.241a.041.041,0,1,1,.042-.069l.422.255a.039.039,0,0,1,.018.041c-.054.35-.271,1.365-.273,1.375a.042.042,0,0,1-.039.032Z" transform="translate(-1738.135 -557.166)" fill="#586063"/>
      <rect id="Rechteck_1468" data-name="Rechteck 1468" width="0.312" height="0.645" rx="0.156" transform="translate(308.957 131.356) rotate(-62.65)" fill="#3b3b4c" opacity="0.27"/>
      <rect id="Rechteck_1469" data-name="Rechteck 1469" width="0.312" height="1.128" rx="0.156" transform="translate(309.715 131.733) rotate(-62.65)" fill="#3b3b4c" opacity="0.27"/>
      <rect id="Rechteck_1470" data-name="Rechteck 1470" width="0.312" height="1.039" rx="0.156" transform="translate(311.104 132.451) rotate(-62.65)" fill="#3b3b4c" opacity="0.27"/>
      <path id="Pfad_8708" data-name="Pfad 8708" d="M2037.82,674.73a20.6,20.6,0,0,0,.882,2.385" transform="translate(-1730.536 -547.104)" fill="none" stroke="#3b3b4d" stroke-linecap="round" stroke-linejoin="round" stroke-width="2.99"/>
      <path id="Pfad_8709" data-name="Pfad 8709" d="M2034.979,680.987a3.727,3.727,0,0,0-2.529.413" transform="translate(-1725.975 -552.327)" fill="none" stroke="#3b3b4d" stroke-linecap="round" stroke-linejoin="round" stroke-width="2.99"/>
      <path id="Pfad_8710" data-name="Pfad 8710" d="M2048.033,612.666a.251.251,0,0,1-.059-.495l.8-.195c-.127-.317-.271-.669-.32-.766a.251.251,0,1,1,.446-.229c.1.188.412.989.447,1.08a.251.251,0,0,1-.011.208.248.248,0,0,1-.164.128l-1.083.262a.257.257,0,0,1-.059.008Z" transform="translate(-1738.995 -492.852)" fill="#0069a8"/>
      <path id="Pfad_8711" data-name="Pfad 8711" d="M2015.891,546.47c-.6.908-1.129,2.645,4.454,5.38s7.01,1.392,7.312.679c.452-1.069-3.1-2.01-2.645-2.576,1.407-1.757-2.646-2.524-4.218-3.357s-1.169.888-2.186.437S2016.394,545.708,2015.891,546.47Z" transform="translate(-1711.609 -437.929)" fill="#4a4963"/>
    </g>
  </g>
</svg>
