<svg id="img-berechnungsgeschwindigkei-grey" xmlns="http://www.w3.org/2000/svg" xmlns:xlink="http://www.w3.org/1999/xlink" width="444" height="179.848" viewBox="0 0 444 179.848">
  <defs>
    <clipPath id="clip-path">
      <rect id="Rechteck_1422" data-name="Rechteck 1422" width="283.841" height="12.273" rx="6.136" fill="none"/>
    </clipPath>
  </defs>
  <g id="Gruppe_2433" data-name="Gruppe 2433" transform="translate(79.115 26.519)">
    <g id="Gruppe_2429" data-name="Gruppe 2429">
      <path id="Pfad_7780" data-name="Pfad 7780" d="M950.747,331.881c.81,1.686,1.224,6.526,1.224,8.77,0,2.471-13.4-4.845-13.4-4.845l-6.5-3.056,2.342-5.8s4.693.674,9.344,1.387c3.533.541,6.33,2.168,6.992,3.545Z" transform="translate(-870.638 -299.099)" fill="#787878"/>
      <path id="Pfad_7781" data-name="Pfad 7781" d="M524.67,788.492c0,1.363,29.68,2.945,63.876,2.945s61.921-1.105,61.921-2.469-27.723-2.468-61.921-2.468-63.876.627-63.876,1.99Z" transform="translate(-524.67 -689.353)" fill="#727272" opacity="0.14"/>
      <path id="Pfad_7782" data-name="Pfad 7782" d="M702.683,455.07c-7.053,7.945-14.206,9.862-47.973,8.987s-30.751-1-41.032-1.3c-15.884-.481,2.71-11.127,17.831-11.855a32.242,32.242,0,0,1,9.444.917c10.81,2.723,27.6,1.7,31.8,1.291a29.1,29.1,0,0,0,10.641-3.029h0a24.446,24.446,0,0,0,3.23-2c5.843-4.285,8.443-10.281,8.7-14.211q.088-1.339.176-2.714c.584-8.913,1.377-18.577,5.944-24.924,2.589-3.6,4-1.977,2.248,1.458-3.645,7.144-2.85,14.467-1.021,14.4,2.263-.084,2.755-10.72,4.329-14.364,1.784-4.13,3.975-5.57,4.908-3.224a46.1,46.1,0,0,0-2.452,5.471c-1.8,6.249.594,9.063.193,14.888C708.888,436.072,713.073,443.366,702.683,455.07Z" transform="translate(-595.1 -363.993)" fill="#898989"/>
      <path id="Pfad_7783" data-name="Pfad 7783" d="M818.018,713.13c-2.194,4.771-8.551,11.041-25.52,10.008-22.864-1.392-26.369-9.186-26.369-9.186a32.242,32.242,0,0,1,9.444.917c10.809,2.725,27.6,1.7,31.8,1.291a29.068,29.068,0,0,0,10.641-3.028Z" transform="translate(-729.72 -627.047)" fill="#666" opacity="0.12"/>
      <path id="Pfad_7784" data-name="Pfad 7784" d="M767.11,436.23a79.873,79.873,0,0,0,10.249.359c22-.529,28.168-15.6,27.587-31.351a28.956,28.956,0,0,0-17.19-25.042,26.275,26.275,0,0,0-9.946-2.084,33.777,33.777,0,0,0-12.586,2.39c-.323.125-.644.253-.965.389a38.263,38.263,0,0,0-11.312,7.3A33.238,33.238,0,0,0,745.01,399.4a30.994,30.994,0,0,0-2.479,11.8c-.167,11.511,3.657,22.822,24.579,25.031Z" transform="translate(-709.675 -342.544)" fill="#d7d7d7"/>
      <path id="Pfad_7785" data-name="Pfad 7785" d="M842.883,436.59a19.861,19.861,0,0,1-12.009,9.364,33.1,33.1,0,0,1-9.963.749c-11.008-.544-20.892-7.837-21.295-19.457-.344-11.925,14.34-18.478,24.442-14.559,5.168,1.743,8.977,6.665,8.25,12.249-.353,3.023-2.01,6.44-5.193,7.3-4.53,1.114-11.5-.531-12.84-5.6a1.777,1.777,0,0,1,3.477-.734c1.217,2.726,5.777,3.351,8.395,2.652,1.479-.612,2.046-2.527,2.22-4.031.439-3.955-2.6-7.06-6.321-8.013-7.06-2.165-17.783,2.11-17.5,10.537.511,8.868,8.358,13.861,16.686,14.034a26.065,26.065,0,0,0,8.609-.948c8.183-2.754,11.383-12.677,8.8-20.444a16.812,16.812,0,0,0-8.538-10.635,39.762,39.762,0,0,0-12.117-3.807,105.736,105.736,0,0,0-16.561-1.265,34.833,34.833,0,0,1,11.487-7.282c1.128.164,2.487.339,3.6.54a63.69,63.69,0,0,1,10.8,2.7c6.252,2.194,12.225,6.075,15.423,12.038,4.023,7.515,4.56,17.128.151,24.612Z" transform="translate(-758.152 -358.331)" fill="#8b8b8b"/>
      <path id="Pfad_7786" data-name="Pfad 7786" d="M875.74,399.054v.009a.314.314,0,0,0,.047-.023A.374.374,0,0,0,875.74,399.054Z" transform="translate(-822.802 -360.319)" fill="#666" opacity="0.46"/>
      <g id="Gruppe_2423" data-name="Gruppe 2423" transform="translate(80.494 43.477)" opacity="0.94">
        <path id="Pfad_7787" data-name="Pfad 7787" d="M1063,433.876a31.27,31.27,0,0,0-4.522-3.3" transform="translate(-1058.48 -430.58)" fill="none" stroke="#fff" stroke-linecap="round" stroke-miterlimit="10" stroke-width="2"/>
        <path id="Pfad_7788" data-name="Pfad 7788" d="M1104.394,488.31c1.547-8.049.769-13.413-.3-16.607a20.282,20.282,0,0,0-3.824-7.024" transform="translate(-1093.968 -459.538)" fill="none" stroke="#fff" stroke-linecap="round" stroke-miterlimit="10" stroke-width="2"/>
      </g>
      <path id="Pfad_7789" data-name="Pfad 7789" d="M767.11,556.122c-20.922-2.208-24.746-13.518-24.579-25.031a31.022,31.022,0,0,1,2.479-11.8C745.5,536.75,747.81,550.054,767.11,556.122Z" transform="translate(-709.675 -462.436)" fill="#666" opacity="0.21"/>
      <path id="Pfad_7790" data-name="Pfad 7790" d="M1131.66,604.515c5.843-4.285,8.443-10.281,8.7-14.211.059-.893.116-1.8.177-2.714C1143.369,595.583,1145.314,604.053,1131.66,604.515Z" transform="translate(-1040.132 -520.437)" fill="#666" opacity="0.21"/>
      <path id="Pfad_7791" data-name="Pfad 7791" d="M893.05,380.5c5.558.024,14.937.006,22.533-.306a26.276,26.276,0,0,0-9.946-2.084A33.777,33.777,0,0,0,893.05,380.5Z" transform="translate(-837.501 -342.544)" fill="#666" opacity="0.21"/>
      <g id="Gruppe_2428" data-name="Gruppe 2428" transform="translate(34.144)">
        <g id="Gruppe_2424" data-name="Gruppe 2424" transform="translate(23.296 4.344)">
          <path id="Pfad_7792" data-name="Pfad 7792" d="M908.479,178.238a2.746,2.746,0,0,1-2.055-1.864c-.484-1.117,1.113-2.832-.5-3.978-1.06-.752.817-1.336.817-1.336l1.9,1.286.894.6a3.415,3.415,0,0,0,.032,1.395c.119.617-.184.484.386,1.416C910.378,176.458,909.231,177.226,908.479,178.238Z" transform="translate(-905.599 -171.06)" fill="#d4d4d4"/>
          <path id="Pfad_7793" data-name="Pfad 7793" d="M919.166,180.195a4.727,4.727,0,0,0,.059,1.529,2.234,2.234,0,0,1-2.277-1.487c-.107-.4,1.324-.647,1.324-.647Z" transform="translate(-915.232 -178.304)" fill="#666" opacity="0.14"/>
        </g>
        <path id="Pfad_7794" data-name="Pfad 7794" d="M886.4,398.588a.026.026,0,0,0,0,.008.3.3,0,0,0,.038-.026A.241.241,0,0,0,886.4,398.588Z" transform="translate(-865.999 -359.919)" fill="#666" opacity="0.46"/>
        <path id="Pfad_7795" data-name="Pfad 7795" d="M906.688,419.419c-2.342.585-1.662-3.551-4.585-14.048-1.33-5.367-2.2-9.871-3.706-11.317-1.157-1.105-13.244-5.394-15.566-7.093,1.392-.71,2.869-1.451,4.4-2.191l14.117,5.549,3.975,11.113C904.983,401.533,906.586,417.54,906.688,419.419Z" transform="translate(-862.967 -348.201)" fill="#666" opacity="0.21"/>
        <g id="Gruppe_2425" data-name="Gruppe 2425" transform="translate(42.429 62.698)">
          <path id="Pfad_7796" data-name="Pfad 7796" d="M1036.36,562.874c.051-1.372-.252-4.824-.252-4.824l-3.628.083.5,5.18,2.491,1.509Z" transform="translate(-1032.48 -558.05)" fill="#d4d4d4"/>
          <path id="Pfad_7797" data-name="Pfad 7797" d="M1036.763,586.041c.378-.1.226.268.377.84.345,1.307,5.125,1.261,5.848,1.366a1.129,1.129,0,0,1-.844,2c-1.6.021-6.73.109-8.482.121a.806.806,0,0,1-.786-.594c-.338-1.264-.285-3.234.2-3.284.734-.249,2.107-.041,3.684-.448Z" transform="translate(-1032.632 -581.807)" fill="#666"/>
        </g>
        <path id="Pfad_7798" data-name="Pfad 7798" d="M872.463,331.527c2.425.4,6.52.1,10.6,1.334-2.224.392-4.533,1.715-6.166,2.1-1.282.3-3.913,1.338-4.311,1.354-5.961.262-7.036-.906-7.036-.906,5.489-1.405,15.412,3.244,19.208,8.583,2.467,3.47,4.337,22.735,4.337,22.735-2.612,1.273-5.268,1.629-5.674,1.209-.816-3.335-3.161-18.8-5.407-21.189s-24.06-6.4-19.405-14.713c.406-.724,6.038-2.182,8.574-1.853,5.294.685,5.276,1.347,5.276,1.347Z" transform="translate(-841.849 -301.804)" fill="#787878"/>
        <path id="Pfad_7799" data-name="Pfad 7799" d="M1038.46,471.119a9.654,9.654,0,0,0,3.919-1.131s-.795-10.54-3.265-18.258c.13,9.839.106,19.3-.654,19.39Z" transform="translate(-995.129 -405.064)" fill="#787878"/>
        <path id="Pfad_7800" data-name="Pfad 7800" d="M872.38,199.19c1.172-.3,1.9,1.963,2.839,2.067.572.063.205-.445.41-.739.538-.775.409-.95.713-.608,5.213,5.866.446,19.743.446,19.743s-5.359.056-7.428,1.313c-3.293,2-3.886-1.018-3.717-1.853.648-3.2,4.236-16.991,4.236-16.991a11.5,11.5,0,0,1,2.5-2.933Z" transform="translate(-848.35 -190.582)" fill="#fff"/>
        <path id="Pfad_7801" data-name="Pfad 7801" d="M855.438,211.477c-.231,2.2-1.941,5.487-2.692,7.172-.778,1.742-.945,3.952-1.992,4.863-1.46,1.271-4.463,4.1-7.241,1.69-1.083-.939,2.471-4.552,3.176-8.735.356-2.117.5-4.972.749-8.334a11.969,11.969,0,0,1,2.716-5.968c2.3-2.357,3.242-2.684,3.242-2.684.063,1.327,2.533,7.319,2.042,12Z" transform="translate(-829.406 -190.851)" fill="#8b8b8b"/>
        <path id="Pfad_7802" data-name="Pfad 7802" d="M891.888,267.618q.111-.4.253-.828c.585-1.748,2.461-4.975,2.692-7.172a24.464,24.464,0,0,0-.057-3.283l-5.076-.166c1.644,3.136,2.17,9.58,2.188,11.447Z" transform="translate(-868.801 -238.992)" fill="#666" opacity="0.24"/>
        <path id="Pfad_7803" data-name="Pfad 7803" d="M964.636,372.38c-.472-.2-2.366-.976-2.366-.976a8.793,8.793,0,0,1,1.517-.044,39.933,39.933,0,0,1,5.15,1.42A29.086,29.086,0,0,0,964.636,372.38Z" transform="translate(-930.428 -336.803)" fill="#666" opacity="0.55"/>
        <path id="Pfad_7804" data-name="Pfad 7804" d="M962.8,171.138c-.427-1.736-2.491-3.152-3.185-4.038-.389-.5-2.686-.157-2.458.3s1.4-.5,1.95.728c.206.463-1.242.906-.973,1.541s1.775.4,2.073,1.616,2.591-.151,2.591-.151Z" transform="translate(-926.076 -163.144)" fill="#d4d4d4"/>
        <path id="Pfad_7805" data-name="Pfad 7805" d="M924.2,210.676a2.064,2.064,0,0,0,.777,1.834c.78.679,2.707,2.079,4.011.792a2.363,2.363,0,0,0,.207-.234c1.752-2.26.492-8.5.311-10.022-.074-.615-.234-1.443-.371-2.3-.171-1.068-.057-3.091.891-3.218,1.188-.158,8.09,2.924,9.872,1.145,1.61-1.607-4.1-11.222-4.821-12.012-.27-.3-3.192,1.1-3.07,1.684.219,1.053,3.655,6.16,3.445,6.43-.437.561-4.138-3.284-9.224-5.694a4.664,4.664,0,0,0-.03.585c0,.336.011.826.069,1.5.033.392.083.849.155,1.371.448,3.3-1.5,5.649-1.108,9.643a35.269,35.269,0,0,1,.063,5.048c-.075,1.629-1.2,2.295-1.174,3.452Z" transform="translate(-898.099 -179.928)" fill="#8b8b8b"/>
        <path id="Pfad_7806" data-name="Pfad 7806" d="M924.2,210.676a2.064,2.064,0,0,0,.777,1.834c.78.679,2.707,2.079,4.011.792a2.363,2.363,0,0,0,.207-.234c1.752-2.26.492-8.5.311-10.022-.074-.615-.234-1.443-.371-2.3-.171-1.068-.057-3.091.891-3.218,1.188-.158,8.09,2.924,9.872,1.145,1.61-1.607-4.1-11.222-4.821-12.012-.27-.3-3.192,1.1-3.07,1.684.219,1.053,3.655,6.16,3.445,6.43-.437.561-4.138-3.284-9.224-5.694a4.664,4.664,0,0,0-.03.585c0,.336.011.826.069,1.5.033.392.083.849.155,1.371.448,3.3-1.5,5.649-1.108,9.643a35.269,35.269,0,0,1,.063,5.048c-.075,1.629-1.2,2.295-1.174,3.452Z" transform="translate(-898.099 -179.928)" fill="#666" opacity="0.12"/>
        <g id="Gruppe_2426" data-name="Gruppe 2426" transform="translate(19.955 12.435)">
          <path id="Pfad_7807" data-name="Pfad 7807" d="M1003.7,366.778a7.486,7.486,0,0,1,3.538.686c1.01.317,3.5,1.769,2.408,3.589-.478.8-1.428.585-2.407.216s-1.191-1.763-2.989-2.192S1003.7,366.778,1003.7,366.778Z" transform="translate(-985.206 -345.356)" fill="#c8c8c8"/>
          <path id="Pfad_7808" data-name="Pfad 7808" d="M888.71,226.075c2.487,9.969,4.264,10.224,5.187,11.258s10.3,7.672,10.456,8.17c.382,1.238-1.16,2.841-1.226,3.435-.1.893-9.159-5.833-11.94-7.977-2.968-2.289-6.718-10.662-6.718-10.662s-2.357-3.97.06-5.207a3.458,3.458,0,0,1,4.178.982Z" transform="translate(-883.44 -224.718)" fill="#8b8b8b"/>
        </g>
        <path id="Pfad_7809" data-name="Pfad 7809" d="M882.394,210.183c-.1-.048-.353,2.3-2.052,3.215a22.331,22.331,0,0,1-6.2,1.166c.17-.544.549-1.175,1-2.173a14.867,14.867,0,0,0,3.985-.228,4.3,4.3,0,0,0,1.184-.5,7.162,7.162,0,0,0,1.632-1.42c.208-.237.2-.555.483-.6C882.8,209.568,882.522,210.245,882.394,210.183Z" transform="translate(-855.587 -199.47)" fill="#666" opacity="0.18"/>
        <path id="Pfad_7810" data-name="Pfad 7810" d="M778.429,207.513a.576.576,0,0,0-.7-.464c-.344.06-.353.205-.606.5a7.111,7.111,0,0,1-3.438,2.351c-1.509.377-5.284-1.155-7.484-.351s-2.612,2.933-5.813,3.9-6.912.071-7.855.369-1.5.59-1.422.97a1.912,1.912,0,0,0,1.36,1.123,42.773,42.773,0,0,0,8.3-.665c2.529-.7,4.424-3.329,6.063-3.7s5.263.1,7.194-.279c2.153-.419,3.572-3.188,3.729-3.112a.6.6,0,0,0,.57.042c.184-.074.149-.461.106-.677Z" transform="translate(-751.103 -197.267)" fill="#c8c8c8"/>
        <g id="Gruppe_2427" data-name="Gruppe 2427" transform="translate(21.053)">
          <path id="Pfad_7811" data-name="Pfad 7811" d="M904.519,153.05c.656.758,2.655,1.668,2.108,2.063s1.387,1.6.82,2.043c-1.374,1.071-3.64,1.359-4.317.813a16.452,16.452,0,0,1-1.96-2.514l3.349-2.4Z" transform="translate(-899.594 -151.422)" fill="#d4d4d4"/>
          <path id="Pfad_7812" data-name="Pfad 7812" d="M894.927,145.792c.235-.5.406-.258.608-.635s-.648-.413-.139-.932.743-.89.259-1.555a.9.9,0,0,0-1.41-.13c-.286.318-.669-.33-1.371.118-.553.353-.431.843-.8,1.374-.2.291-1.092.483-1.286,1.149-.362,1.238.819,1.143.627,2.324-.223,1.375,2.8,1.585,3.147,1.452.127-.05.232-.482-.318-.721-.285-.124-.733-.538-.676-.727.1-.333.167-1.081.74-.549.407.378,1.324,2.049,1.549,2.078.579.074,3.145-.813,2.785-1.392-.448-.716-1.812,1.173-2.224.407-.315-.585,1.583-1.141,1.413-1.671-.2-.611-1.751,1.467-2.2,1.095a2.006,2.006,0,0,1-.7-1.687Z" transform="translate(-890.72 -142.252)" fill="#666"/>
        </g>
      </g>
    </g>
    <g id="Gruppe_2432" data-name="Gruppe 2432" transform="translate(3.237 114.537)">
      <rect id="Rechteck_1421" data-name="Rechteck 1421" width="283.841" height="12.273" rx="4" fill="#d7d7d7"/>
      <g id="Gruppe_2431" data-name="Gruppe 2431" clip-path="url(#clip-path)">
        <g id="Gruppe_2430" data-name="Gruppe 2430" transform="translate(-6.786)">
          <path id="Pfad_7813" data-name="Pfad 7813" d="M582.53,914.1h4.956L594.8,901.83h-4.661Z" transform="translate(-570.257 -901.83)" fill="#898989"/>
          <path id="Pfad_7814" data-name="Pfad 7814" d="M623.23,914.1h4.957L635.5,901.83h-4.661Z" transform="translate(-604.82 -901.83)" fill="#898989"/>
          <path id="Pfad_7815" data-name="Pfad 7815" d="M663.92,914.1h4.956l7.316-12.273h-4.661Z" transform="translate(-639.374 -901.83)" fill="#898989"/>
          <path id="Pfad_7816" data-name="Pfad 7816" d="M704.62,914.1h4.956l7.316-12.273h-4.661Z" transform="translate(-673.937 -901.83)" fill="#898989"/>
          <path id="Pfad_7817" data-name="Pfad 7817" d="M745.31,914.1h4.957l7.318-12.273h-4.662Z" transform="translate(-708.491 -901.83)" fill="#898989"/>
          <path id="Pfad_7818" data-name="Pfad 7818" d="M786.01,914.1h4.956l7.316-12.273h-4.661Z" transform="translate(-743.054 -901.83)" fill="#898989"/>
          <path id="Pfad_7819" data-name="Pfad 7819" d="M826.71,914.1h4.957l7.316-12.273H834.32Z" transform="translate(-777.617 -901.83)" fill="#898989"/>
          <path id="Pfad_7820" data-name="Pfad 7820" d="M867.4,914.1h4.957l7.316-12.273h-4.661Z" transform="translate(-812.171 -901.83)" fill="#898989"/>
          <path id="Pfad_7821" data-name="Pfad 7821" d="M541.84,914.1H546.8l7.316-12.273H549.45Z" transform="translate(-535.703 -901.83)" fill="#898989"/>
          <path id="Pfad_7822" data-name="Pfad 7822" d="M501.14,914.1H506.1l7.316-12.273h-4.661Z" transform="translate(-501.14 -901.83)" fill="#898989"/>
        </g>
      </g>
    </g>
  </g>
  <rect id="Rechteck_1423" data-name="Rechteck 1423" width="444" height="179.848" fill="none"/>
</svg>
