<svg id="img-berechnungsgeschwindigkeit-to" xmlns="http://www.w3.org/2000/svg" xmlns:xlink="http://www.w3.org/1999/xlink" width="444" height="179.848" viewBox="0 0 444 179.848">
  <defs>
    <clipPath id="clip-path">
      <rect id="Rechteck_1425" data-name="Rechteck 1425" width="283.841" height="12.273" rx="6.136" fill="none"/>
    </clipPath>
  </defs>
  <g id="Gruppe_2452" data-name="Gruppe 2452" transform="translate(78.64 26.521)">
    <g id="Gruppe_2448" data-name="Gruppe 2448" transform="translate(99.706)">
      <g id="Gruppe_2444" data-name="Gruppe 2444">
        <g id="Gruppe_2437" data-name="Gruppe 2437" transform="translate(0 33.571)">
          <g id="Gruppe_2435" data-name="Gruppe 2435">
            <path id="Pfad_7823" data-name="Pfad 7823" d="M2379.422,520.97a.027.027,0,0,1,0,.008.246.246,0,0,0,.047,0,.306.306,0,0,0-.044-.006Z" transform="translate(-2198.973 -497.437)" fill="#1f1f39" opacity="0.46"/>
            <path id="Pfad_7824" data-name="Pfad 7824" d="M1686.966,454.992c-5.1-.279-7.695-.3-8.493-.289-4.644.044-3.234,11.637-.6,11.76,4.208.2,11.774.347,11.774.347Z" transform="translate(-1601.142 -441.161)" fill="#3b3b4c"/>
            <path id="Pfad_7825" data-name="Pfad 7825" d="M1813.54,400.062a71.093,71.093,0,0,1-18.673,6.982c-1.224.276-2.47.528-3.738.748a71.3,71.3,0,0,1-9.513,1.019c-.232.009-.465.018-.7.024q-1.072.029-2.155.041c-2.034.021-4.093,0-6.149-.066-1.665-.051-3.329-.125-4.984-.217-14.367-.817-27.8-3.093-32.372-3.524-1.74-.163-3.117-1.527-4.109-3.513-3.13-6.244-2.5-18.627,2.256-19.072,1.677-.157,7.5-1.713,14.888-3.424,2.1-.489,4.341-.989,6.639-1.473,2.818-.6,5.739-1.167,8.651-1.659,2.821-.479,5.633-.887,8.337-1.172a70.569,70.569,0,0,1,8.239-.44,61.915,61.915,0,0,1,15.13,2.336c14.064,3.833,26.8,11.418,26.811,15.307,0,2.01-3.232,5.109-8.562,8.1Z" transform="translate(-1646.819 -372.892)" fill="#e6e6e6"/>
            <path id="Pfad_7826" data-name="Pfad 7826" d="M1732.869,568.271c-.737.32-1.481.653-2.226.994-8.75,3.99-17.725,8.937-19.932,4.925-.9-1.639-.32-3.636.751-5.487a23.825,23.825,0,0,1,3.753-4.673c.315-.309.584-.562.783-.745.16-.146.276-.25.332-.3l.041-.035.086.006c1.4.08,19.425,1.148,18.989,2.671v0a3.763,3.763,0,0,1-1.08,1.583,7.335,7.335,0,0,1-1.5,1.059Z" transform="translate(-1630.722 -533.087)" fill="#307ea2"/>
            <path id="Pfad_7827" data-name="Pfad 7827" d="M1716.187,495.007s-18.918,7.378-23.02,6.826,2.337-6.749,5.082-7,21.806-1.286,17.938.172Z" transform="translate(-1615.07 -474.74)" fill="#307ea2"/>
            <path id="Pfad_7828" data-name="Pfad 7828" d="M1709.436,375.481a4.115,4.115,0,0,1-1.28-.216c-4.156-1.356-7.923-8.69-5.275-10.043,2.919-1.491,12.33,2.571,21.242,5.965a4.241,4.241,0,0,1,2.028,1.214c1.381,2.244-12.761,3.087-16.714,3.079Z" transform="translate(-1623.699 -364.905)" fill="#307ea2"/>
            <path id="Pfad_7829" data-name="Pfad 7829" d="M2141.354,420.232c-7.405-9.694-3.29-24.11.424-30.392,14.063,3.833,26.8,11.416,26.811,15.307C2168.594,408.971,2156.9,416.713,2141.354,420.232Z" transform="translate(-1993.305 -386.08)" fill="#307ea2"/>
            <path id="Pfad_7830" data-name="Pfad 7830" d="M1411.567,423.46c-4.807-1.431-9.458-2.966-13.95-3.435s-6.825-8.631-7.063-6.544.838,4.953-.2,4.887-7.929-6.62-7.553-4.213,4.138,7.39.588,5.783-19.713,2.651-14.4,5.035c1.832.82,4.929,9.194,15.561,8.191s12.452-1.1,11.362.124-2.061,5.54,3.254.688,10.552-7.6,9.354-5.5.979,1.045,2.888-.7c1.287-1.178,1.77-3.826.157-4.307Z" transform="translate(-1340.002 -405.867)" fill="#e5af21"/>
            <path id="Pfad_7831" data-name="Pfad 7831" d="M1824.382,545.08a71.085,71.085,0,0,1-18.672,6.983q-1.837.416-3.74.749a71.031,71.031,0,0,1-10.208,1.042c-18.552.516-39.688-3.2-45.661-3.765-1.741-.163-3.115-1.527-4.11-3.512,9.266.57,60.85,4.025,82.391-1.5Z" transform="translate(-1657.661 -517.911)" fill="#1f1f39" opacity="0.07"/>
            <path id="Pfad_7832" data-name="Pfad 7832" d="M1468.3,468.028c-1.854-.455-4.595-.932-5.643-1.751-2.07-1.618-1.454.505-.973,1.235s-8.759-4.038-7.705-2.177c.493.872,1.4,1.016-1.84,1.249-5.377.385-8.912,1.452-6.321,2.705s6.775,5.125,11.73,4.1,9.566-1.953,8.678-1.122-1.8,1.506.932.5,7.184-2.838,5.392-4.043-3.239-.449-4.251-.7Z" transform="translate(-1405.409 -449.822)" fill="#e84e1b"/>
            <path id="Pfad_7833" data-name="Pfad 7833" d="M1763.31,565.674c-5.327-.226-16.688-.994-20.23-1.6.566-.558.988-.933,1.114-1.045l.128-.029c1.4.08,19.425,1.148,18.989,2.671v0Z" transform="translate(-1658.586 -533.129)" fill="#1f1f39" opacity="0.28"/>
            <path id="Pfad_7834" data-name="Pfad 7834" d="M1730.633,601.662c-8.75,3.99-17.725,8.937-19.931,4.925-.9-1.639-.32-3.636.751-5.487.856.552,1.85,1.2,2.93,1.921,3.253,2.168,9.016-.2,16.249-1.359Z" transform="translate(-1630.713 -565.484)" fill="#1f1f39" opacity="0.16"/>
            <path id="Pfad_7835" data-name="Pfad 7835" d="M1744.11,417.7a4.117,4.117,0,0,1-1.28-.216,72.292,72.292,0,0,1,17.994-2.864C1762.205,416.864,1748.063,417.707,1744.11,417.7Z" transform="translate(-1658.374 -407.123)" fill="#1f1f39" opacity="0.16"/>
            <g id="Gruppe_2434" data-name="Gruppe 2434" transform="translate(150.154 9.722)" opacity="0.9">
              <path id="Pfad_7836" data-name="Pfad 7836" d="M2290.59,473.99c1.527.466,3.518,2.348,3.2,2.812" transform="translate(-2273.691 -467.263)" fill="none" stroke="#fff" stroke-linecap="round" stroke-miterlimit="10" stroke-width="2"/>
              <path id="Pfad_7837" data-name="Pfad 7837" d="M2178.52,429.38c3.61.627,10.893,2.943,13.434,4.677" transform="translate(-2178.52 -429.38)" fill="none" stroke="#fff" stroke-linecap="round" stroke-miterlimit="10" stroke-width="2"/>
            </g>
            <path id="Pfad_7838" data-name="Pfad 7838" d="M1191.321,579.048c-.216-1.517-2.714-2.2-3.535.421s-2.4,2.18-3.008,2.259-3.029.728-1.58,2.478,6.674,1.558,7.675,3.364,3.219,1.719,3.8-.122-.454-3.065,1.271-3.97,1.865-5.629-.181-4.883-4.142,2.559-4.442.452Z" transform="translate(-1182.743 -545.617)" fill="#fff"/>
            <path id="Pfad_7839" data-name="Pfad 7839" d="M1337.6,589.07c.258-.68-1.143-1.788-1.579-.564-.356,1-1.063,1.5-1.341,1.42-.986-.288-1.276.771-.52,1.362a2.008,2.008,0,0,1,1.062,1.947c.006.967,1.95.945,2.615.3s-.244-1.619.686-1.638,1.045-2.082.017-2.2-.938-.626-.938-.626Z" transform="translate(-1310.965 -554.323)" fill="#fff"/>
            <ellipse id="Ellipse_14" data-name="Ellipse 14" cx="9.578" cy="7.921" rx="9.578" ry="7.921" transform="translate(119.986 11.496) rotate(-0.38)" fill="#1f1f39"/>
            <path id="Pfad_7840" data-name="Pfad 7840" d="M2009.573,465.39c-.142.143-.292.277-.449.409a7.3,7.3,0,0,1-3.605,1.541,8.035,8.035,0,0,1-1.054.081c-3.72.044-6.773-2.414-6.817-5.492a5.211,5.211,0,0,1,2.31-4.272,7.576,7.576,0,0,1,4.348-1.381c3.387-.041,6.221,1.993,6.734,4.681a4.548,4.548,0,0,1,.083.811,5,5,0,0,1-1.547,3.622Z" transform="translate(-1874.767 -442.498)" fill="#5c5c68"/>
          </g>
          <g id="Gruppe_2436" data-name="Gruppe 2436" transform="translate(174.039 17.425)">
            <path id="Pfad_7841" data-name="Pfad 7841" d="M2337.5,483.666c-.566-.02-.759-1.689-.4-2.61.139-.353.356-.6.665-.6,4.643.029,12.228.933,12.213,1.77-.014.774-5.906,1.665-12.477,1.434Z" transform="translate(-2336.922 -480.46)" fill="#3b3b4c"/>
            <path id="Pfad_7842" data-name="Pfad 7842" d="M2338.13,481.056c.139-.353.356-.6.665-.6,4.643.029,12.228.933,12.213,1.77A56.11,56.11,0,0,0,2338.13,481.056Z" transform="translate(-2337.948 -480.46)" fill="#fff" opacity="0.21"/>
          </g>
        </g>
        <g id="Gruppe_2443" data-name="Gruppe 2443" transform="translate(100.702)">
          <g id="Gruppe_2442" data-name="Gruppe 2442" transform="translate(2.061)">
            <path id="Pfad_7843" data-name="Pfad 7843" d="M2194.635,217.27c2.284-.048,8.734-1.559,8.643-.734s-3.085.529-3.123,1.357.11,2.07-.826,2.131-1.523-.792-3.467-.176C2193.978,220.442,2194.635,217.27,2194.635,217.27Z" transform="translate(-2144.721 -205.128)" fill="#efaea6"/>
            <g id="Gruppe_2438" data-name="Gruppe 2438" transform="translate(22.981 3.552)">
              <path id="Pfad_7844" data-name="Pfad 7844" d="M2017.238,173.659a3.2,3.2,0,0,1-.27-3.222c.475-1.338,3.2-1.529,2.735-3.791-.306-1.485,1.758-.489,1.758-.489l.6,2.606.281,1.226a3.972,3.972,0,0,0-1.083,1.214c-.389.621-.541.267-.8,1.514-.19.933-1.777.677-3.224.941Z" transform="translate(-2016.645 -165.829)" fill="#efaea6"/>
              <path id="Pfad_7845" data-name="Pfad 7845" d="M2038.756,185.134a5.5,5.5,0,0,0-1.166,1.35c-2.1-.828-1.811-2.79-1.033-2.82a14.9,14.9,0,0,1,1.917.243l.281,1.226Z" transform="translate(-2033.062 -180.974)" fill="#1f1f39" opacity="0.14"/>
            </g>
            <g id="Gruppe_2439" data-name="Gruppe 2439" transform="translate(25.128)">
              <path id="Pfad_7846" data-name="Pfad 7846" d="M2045.045,159.847c-.2,1.1.413,3.462-.312,3.265s-.416,2.318-1.194,2.137c-1.885-.44-3.719-2.2-3.719-3.167a18.357,18.357,0,0,1,.805-3.452l4.42,1.218Z" transform="translate(-2038.473 -156.163)" fill="#efaea6"/>
              <path id="Pfad_7847" data-name="Pfad 7847" d="M2035.254,146.47c.57.228.552.371,1.018.283s-.095-.85.709-.771,1.662.259,1.978-.6c.458-1.244-.725-1.348-1.462-1.389-.475-.026-.324-1.031-1.234-1.23-.713-.157-.74.277-1.383.166-.387-.068-.96-.89-1.674-.593-1.324.552-.686,1.838-1.841,2.5-1.347.768.517,3.678.876,3.483.418-.228.219-1.452.624-1.616.612-.249.56.2.879.718.341.552,1.175.8.856-.17s.137-.98.655-.774Z" transform="translate(-2030.883 -142.272)" fill="#1f1f39"/>
            </g>
            <path id="Pfad_7848" data-name="Pfad 7848" d="M1939.68,387.306v.008a.372.372,0,0,0,.045-.014Z" transform="translate(-1928.305 -350.352)" fill="#1f1f39" opacity="0.46"/>
            <path id="Pfad_7849" data-name="Pfad 7849" d="M1949.359,411.556c-.894.985-1.737,3.079-2.674,2.96.011-.775.038-1.766.071-2.9.211-6.777.75-18.585.371-19.321-1.208-2.328-8.961-6.258-14.078-11.6,2.576-.46,5.012-1.4,7.481-1.675l10.489,10.349.514,12.4c-.369,0-.79,7.371-1.276,9.289a1.148,1.148,0,0,0-.9.5Z" transform="translate(-1922.674 -343.321)" fill="#1f1f39" opacity="0.21"/>
            <g id="Gruppe_2440" data-name="Gruppe 2440" transform="translate(23.725 68.062)">
              <path id="Pfad_7850" data-name="Pfad 7850" d="M2032.44,599.616c.481-1.362,1.258-4.923,1.258-4.923l-3.67-1.053L2028.91,599l2.03,2.3Z" transform="translate(-2027.804 -593.64)" fill="#e6eff1"/>
              <path id="Pfad_7851" data-name="Pfad 7851" d="M2026.648,625.881c.41.021.143.339.116.96-.064,1.422,4.751,2.87,5.445,3.2a1.189,1.189,0,0,1-1.475,1.745c-1.615-.479-6.792-2-8.554-2.533a.849.849,0,0,1-.6-.843c.056-1.374.725-3.337,1.23-3.234.816-.021,2.128.618,3.839.7Z" transform="translate(-2021.576 -620.419)" fill="#1f1f39"/>
            </g>
            <path id="Pfad_7852" data-name="Pfad 7852" d="M1940.026,326.156c3.158,1.707,5.674,3.532,7.407,4.573-2.177-.834-3.052-.4-6.276-.743-1.374-.148-4.417.021-4.821-.084-6.068-1.6-6.181-2.447-6.181-2.447,5.952.308,14.251,8.153,16.6,14.63S1944,366.271,1944,366.271c-3.02.46-5.8-.014-6.077-.561.224-3.605,2.709-19.864,1.2-22.971s-22.159-13.954-14.882-20.847c.633-.6,6.745-.3,9.189.822a44.681,44.681,0,0,1,6.6,3.443Z" transform="translate(-1913.877 -294.549)" fill="#3b3b4c"/>
            <path id="Pfad_7853" data-name="Pfad 7853" d="M2035.53,508.807a10.159,10.159,0,0,0,4.29.09s2.5-10.834,2.437-19.357c-2.949,9.921-5.935,19.416-6.725,19.267Z" transform="translate(-2009.702 -437.175)" fill="#3b3b4c"/>
            <path id="Pfad_7854" data-name="Pfad 7854" d="M1931.025,192.45c1.247.249.914,2.722,1.761,3.248.514.318.4-.33.724-.517.862-.492.819-.718.953-.255,2.3,7.929-8.508,18.95-8.508,18.95s-5.113-2.372-7.648-2.113c-4.034.412-3.23-2.725-2.69-3.441,2.063-2.743,11.709-14.217,11.709-14.217a12.105,12.105,0,0,1,3.7-1.654Z" transform="translate(-1907.488 -184.884)" fill="#e6eff1"/>
            <path id="Pfad_7855" data-name="Pfad 7855" d="M2007.534,212.854c-5.947.692-9.955,1.3-11.774,1.5-2.594.28-8.241-.25-9.85.648-1.3.725-5.273,7-5.87,8.559s-.154,2.008-1.417,3.969c-1.342,2.082-6.172,1.939-6.514.961-.587-1.677,2.663-3.562,5.112-7.259a38.451,38.451,0,0,0,4.525-9.231,15.673,15.673,0,0,0,.921-4.7c8.794,2.737,10.537,2.141,13.722,2.043s10.549-.576,11.458-.424c.706.119.014,2.425-.314,3.936Z" transform="translate(-1955.784 -197.494)" fill="#0771a5"/>
            <path id="Pfad_7856" data-name="Pfad 7856" d="M2007.534,212.854c-5.947.692-9.955,1.3-11.774,1.5-2.594.28-8.241-.25-9.85.648-1.3.725-5.273,7-5.87,8.559s-.154,2.008-1.417,3.969c-1.342,2.082-6.172,1.939-6.514.961-.587-1.677,2.663-3.562,5.112-7.259a38.451,38.451,0,0,0,4.525-9.231,15.673,15.673,0,0,0,.921-4.7c8.794,2.737,10.537,2.141,13.722,2.043s10.549-.576,11.458-.424c.706.119.014,2.425-.314,3.936Z" transform="translate(-1955.784 -197.494)" fill="#00628f" opacity="0.09"/>
            <path id="Pfad_7857" data-name="Pfad 7857" d="M1884.242,204.767c-1.214,1.981-4.453,4.2-5.8,5.591-3.114,3.224-3.337,5.961-5.62,6.8-1.911.7-6.911,1.38-8.459-2.162-.6-1.381,1.108-1.974,4.008-3.732,2.653-1.609,3.86-3.893,5.306-5.718a70.164,70.164,0,0,0,4.482-7.574,12.59,12.59,0,0,1,5.279-4.439c3.247-1.2,4.293-1.081,4.293-1.081C1887.19,193.74,1886.823,200.548,1884.242,204.767Z" transform="translate(-1864.241 -184.883)" fill="#00628f"/>
            <path id="Pfad_7858" data-name="Pfad 7858" d="M1954.33,248.888c.192-.222.4-.446.615-.671,1.347-1.395,4.587-3.61,5.8-5.591a25.878,25.878,0,0,0,1.431-3.143l-4.746-2.453c.142,3.723-2.272,10.079-3.1,11.86Z" transform="translate(-1940.746 -222.741)" fill="#1f1f39" opacity="0.24"/>
            <path id="Pfad_7859" data-name="Pfad 7859" d="M2007.79,371.375c-.411-.345-1.2-1-1.2-1a18.643,18.643,0,0,1,5.211.994C2010.045,371.315,2008.385,371.405,2007.79,371.375Z" transform="translate(-1985.125 -335.983)" fill="#1f1f39" opacity="0.55"/>
            <g id="Gruppe_2441" data-name="Gruppe 2441" transform="translate(16.577 10.259)">
              <path id="Pfad_7860" data-name="Pfad 7860" d="M2069.575,379.752a7.834,7.834,0,0,1,3.494,1.47c.971.544,2.8,1.87,1.283,3.507-.665.719-1.175,1-2.1.409s-.846-2.07-2.6-2.9-.071-2.485-.071-2.485Z" transform="translate(-2054.572 -354.199)" fill="#efaea6"/>
              <path id="Pfad_7861" data-name="Pfad 7861" d="M1979.9,212.351c.408,10.8,2.183,11.445,2.912,12.71s8.951,10.121,9,10.667c.127,1.357-1.806,2.675-2,3.272-.3.9-8.17-7.98-10.57-10.788-2.562-3-4.614-12.427-4.614-12.427s-1.57-4.6,1.185-5.347a3.636,3.636,0,0,1,4.089,1.914Z" transform="translate(-1974.177 -210.305)" fill="#00628f"/>
            </g>
            <path id="Pfad_7862" data-name="Pfad 7862" d="M1970.465,212.519a7.568,7.568,0,0,1-2.91,2.348c-2.4.808-6.293-.641-7.635-1.078a23.817,23.817,0,0,1,1.633-1.9,28.419,28.419,0,0,0,5.255,1.448,4.192,4.192,0,0,0,1.258-.1,7.033,7.033,0,0,0,1.96-.811c.267-.155.359-.454.636-.412.368.054-.1.6-.2.5Z" transform="translate(-1945.493 -201.392)" fill="#1f1f39" opacity="0.18"/>
          </g>
          <path id="Pfad_7863" data-name="Pfad 7863" d="M1878.233,201.723a.566.566,0,0,0-.506-.651c-.338-.051-.392.081-.718.271a6.962,6.962,0,0,1-3.928,1.111c-1.52-.121-4.549-2.722-6.844-2.661s-3.342,1.911-6.62,1.814-6.446-2.09-7.416-2.107-1.577.081-1.624.457a1.877,1.877,0,0,0,.914,1.469,41.857,41.857,0,0,0,7.918,1.969c2.568.139,5.151-1.713,6.791-1.55s4.862,1.731,6.772,1.984c2.132.282,4.314-1.849,4.436-1.73a.587.587,0,0,0,.517.217c.194-.012.284-.382.309-.6Z" transform="translate(-1850.573 -190.869)" fill="#e5af21"/>
        </g>
      </g>
      <g id="Gruppe_2445" data-name="Gruppe 2445" transform="translate(37.647 21.466)">
        <line id="Linie_69" data-name="Linie 69" y1="1.627" x2="44.029" transform="translate(0.422 0.329)" fill="#424242"/>
        <path id="Pfad_7864" data-name="Pfad 7864" d="M1477.276,284.852a.239.239,0,0,1,.006.087.458.458,0,0,1-.457.342l-44.031,1.627c-.232.009-.4-.131-.383-.312a.458.458,0,0,1,.457-.342l44.031-1.627a.348.348,0,0,1,.377.223Z" transform="translate(-1432.41 -284.627)" fill="#424242"/>
      </g>
      <g id="Gruppe_2446" data-name="Gruppe 2446" transform="translate(58.42 24.165)">
        <line id="Linie_70" data-name="Linie 70" y1="0.608" x2="16.48" transform="translate(0.421 0.329)" fill="#424242"/>
        <path id="Pfad_7865" data-name="Pfad 7865" d="M1587.484,302.752a.234.234,0,0,1,.006.087.458.458,0,0,1-.457.342l-16.48.609c-.232.009-.4-.131-.383-.312a.458.458,0,0,1,.457-.342l16.48-.609a.347.347,0,0,1,.377.223Z" transform="translate(-1570.169 -302.527)" fill="#424242"/>
      </g>
      <g id="Gruppe_2447" data-name="Gruppe 2447" transform="translate(70.239 18.807)">
        <line id="Linie_71" data-name="Linie 71" y1="0.609" x2="16.478" transform="translate(0.422 0.328)" fill="#424242"/>
        <path id="Pfad_7866" data-name="Pfad 7866" d="M1665.864,267.222a.236.236,0,0,1,.006.087.458.458,0,0,1-.457.342l-16.48.609c-.232.009-.4-.131-.383-.312a.458.458,0,0,1,.457-.342l16.48-.609a.348.348,0,0,1,.377.223Z" transform="translate(-1648.549 -266.997)" fill="#424242"/>
      </g>
    </g>
    <g id="Gruppe_2451" data-name="Gruppe 2451" transform="translate(0 114.534)">
      <rect id="Rechteck_1424" data-name="Rechteck 1424" width="283.841" height="12.273" rx="4" transform="translate(0 0)" fill="#e6eff1"/>
      <g id="Gruppe_2450" data-name="Gruppe 2450" transform="translate(0 0)" clip-path="url(#clip-path)">
        <g id="Gruppe_2449" data-name="Gruppe 2449" transform="translate(-6.786)">
          <path id="Pfad_7867" data-name="Pfad 7867" d="M557.91,914.1h4.957l7.316-12.273h-4.661Z" transform="translate(-545.637 -901.83)" fill="#a5cee0"/>
          <path id="Pfad_7868" data-name="Pfad 7868" d="M598.61,914.1h4.955l7.318-12.273H606.22Z" transform="translate(-580.2 -901.83)" fill="#a5cee0"/>
          <path id="Pfad_7869" data-name="Pfad 7869" d="M639.3,914.1h4.956l7.316-12.273h-4.661Z" transform="translate(-614.754 -901.83)" fill="#a5cee0"/>
          <path id="Pfad_7870" data-name="Pfad 7870" d="M680,914.1h4.957l7.316-12.273H687.61Z" transform="translate(-649.317 -901.83)" fill="#a5cee0"/>
          <path id="Pfad_7871" data-name="Pfad 7871" d="M720.69,914.1h4.956l7.316-12.273H728.3Z" transform="translate(-683.872 -901.83)" fill="#a5cee0"/>
          <path id="Pfad_7872" data-name="Pfad 7872" d="M761.39,914.1h4.957l7.316-12.273H769Z" transform="translate(-718.434 -901.83)" fill="#a5cee0"/>
          <path id="Pfad_7873" data-name="Pfad 7873" d="M802.08,914.1h4.956l7.316-12.273h-4.661Z" transform="translate(-752.989 -901.83)" fill="#a5cee0"/>
          <path id="Pfad_7874" data-name="Pfad 7874" d="M842.78,914.1h4.956l7.316-12.273h-4.661Z" transform="translate(-787.552 -901.83)" fill="#a5cee0"/>
          <path id="Pfad_7875" data-name="Pfad 7875" d="M883.47,914.1h4.956l7.318-12.273h-4.662Z" transform="translate(-822.106 -901.83)" fill="#a5cee0"/>
          <path id="Pfad_7876" data-name="Pfad 7876" d="M924.17,914.1h4.956l7.316-12.273h-4.661Z" transform="translate(-856.669 -901.83)" fill="#a5cee0"/>
          <path id="Pfad_7877" data-name="Pfad 7877" d="M964.87,914.1h4.957l7.316-12.273H972.48Z" transform="translate(-891.231 -901.83)" fill="#a5cee0"/>
          <path id="Pfad_7878" data-name="Pfad 7878" d="M1005.56,914.1h4.957l7.316-12.273h-4.661Z" transform="translate(-925.786 -901.83)" fill="#a5cee0"/>
          <path id="Pfad_7879" data-name="Pfad 7879" d="M1046.26,914.1h4.957l7.316-12.273h-4.661Z" transform="translate(-960.349 -901.83)" fill="#a5cee0"/>
          <path id="Pfad_7880" data-name="Pfad 7880" d="M1086.95,914.1h4.957l7.316-12.273h-4.661Z" transform="translate(-994.903 -901.83)" fill="#a5cee0"/>
          <path id="Pfad_7881" data-name="Pfad 7881" d="M1127.65,914.1h4.957l7.316-12.273h-4.661Z" transform="translate(-1029.466 -901.83)" fill="#a5cee0"/>
          <path id="Pfad_7882" data-name="Pfad 7882" d="M1168.34,914.1h4.957l7.318-12.273h-4.662Z" transform="translate(-1064.02 -901.83)" fill="#a5cee0"/>
          <path id="Pfad_7883" data-name="Pfad 7883" d="M1209.04,914.1H1214l7.316-12.273h-4.661Z" transform="translate(-1098.583 -901.83)" fill="#a5cee0"/>
          <path id="Pfad_7884" data-name="Pfad 7884" d="M1249.74,914.1h4.957l7.316-12.273h-4.662Z" transform="translate(-1133.146 -901.83)" fill="#a5cee0"/>
          <path id="Pfad_7885" data-name="Pfad 7885" d="M1290.43,914.1h4.957l7.316-12.273h-4.661Z" transform="translate(-1167.7 -901.83)" fill="#a5cee0"/>
          <path id="Pfad_7886" data-name="Pfad 7886" d="M1331.13,914.1h4.957l7.316-12.273h-4.661Z" transform="translate(-1202.263 -901.83)" fill="#a5cee0"/>
          <path id="Pfad_7887" data-name="Pfad 7887" d="M1371.82,914.1h4.956l7.316-12.273h-4.661Z" transform="translate(-1236.817 -901.83)" fill="#a5cee0"/>
          <path id="Pfad_7888" data-name="Pfad 7888" d="M1412.52,914.1h4.956l7.316-12.273h-4.661Z" transform="translate(-1271.38 -901.83)" fill="#a5cee0"/>
          <path id="Pfad_7889" data-name="Pfad 7889" d="M1453.21,914.1h4.957l7.318-12.273h-4.662Z" transform="translate(-1305.934 -901.83)" fill="#a5cee0"/>
          <path id="Pfad_7890" data-name="Pfad 7890" d="M1493.91,914.1h4.957l7.316-12.273h-4.661Z" transform="translate(-1340.497 -901.83)" fill="#a5cee0"/>
          <path id="Pfad_7891" data-name="Pfad 7891" d="M1534.61,914.1h4.955l7.318-12.273h-4.662Z" transform="translate(-1375.06 -901.83)" fill="#a5cee0"/>
          <path id="Pfad_7892" data-name="Pfad 7892" d="M1575.3,914.1h4.956l7.317-12.273h-4.661Z" transform="translate(-1409.614 -901.83)" fill="#a5cee0"/>
          <path id="Pfad_7893" data-name="Pfad 7893" d="M1616,914.1h4.957l7.316-12.273h-4.663Z" transform="translate(-1444.177 -901.83)" fill="#a5cee0"/>
          <path id="Pfad_7894" data-name="Pfad 7894" d="M1656.69,914.1h4.957l7.316-12.273H1664.3Z" transform="translate(-1478.731 -901.83)" fill="#a5cee0"/>
          <path id="Pfad_7895" data-name="Pfad 7895" d="M1697.39,914.1h4.956l7.317-12.273H1705Z" transform="translate(-1513.295 -901.83)" fill="#a5cee0"/>
          <path id="Pfad_7896" data-name="Pfad 7896" d="M1738.08,914.1h4.956l7.317-12.273h-4.661Z" transform="translate(-1547.849 -901.83)" fill="#a5cee0"/>
          <path id="Pfad_7897" data-name="Pfad 7897" d="M1778.78,914.1h4.957l7.316-12.273h-4.661Z" transform="translate(-1582.411 -901.83)" fill="#a5cee0"/>
          <path id="Pfad_7898" data-name="Pfad 7898" d="M1819.47,914.1h4.957l7.318-12.273h-4.662Z" transform="translate(-1616.966 -901.83)" fill="#a5cee0"/>
          <path id="Pfad_7899" data-name="Pfad 7899" d="M1860.17,914.1h4.957l7.316-12.273h-4.661Z" transform="translate(-1651.529 -901.83)" fill="#a5cee0"/>
          <path id="Pfad_7900" data-name="Pfad 7900" d="M1900.87,914.1h4.956l7.316-12.273h-4.662Z" transform="translate(-1686.091 -901.83)" fill="#a5cee0"/>
          <path id="Pfad_7901" data-name="Pfad 7901" d="M1941.56,914.1h4.957l7.316-12.273h-4.661Z" transform="translate(-1720.646 -901.83)" fill="#a5cee0"/>
          <path id="Pfad_7902" data-name="Pfad 7902" d="M1982.26,914.1h4.957l7.316-12.273h-4.661Z" transform="translate(-1755.209 -901.83)" fill="#a5cee0"/>
          <path id="Pfad_7903" data-name="Pfad 7903" d="M517.21,914.1h4.956l7.318-12.273h-4.662Z" transform="translate(-511.074 -901.83)" fill="#a5cee0"/>
          <path id="Pfad_7904" data-name="Pfad 7904" d="M476.52,914.1h4.957l7.316-12.273h-4.661Z" transform="translate(-476.52 -901.83)" fill="#a5cee0"/>
        </g>
      </g>
    </g>
  </g>
  <rect id="Rechteck_1426" data-name="Rechteck 1426" width="444" height="179.848" transform="translate(0 0)" fill="none"/>
</svg>
