<svg xmlns="http://www.w3.org/2000/svg" width="444" height="236.021" viewBox="0 0 444 236.021">
  <g id="img-quality-grey" transform="translate(-25)">
    <ellipse id="Ellipse_74" data-name="Ellipse 74" cx="137.161" cy="4.858" rx="137.161" ry="4.858" transform="translate(116.185 207.953)" fill="#2e2e3f" opacity="0.11"/>
    <path id="Pfad_9371" data-name="Pfad 9371" d="M1263.433,403.1c-.234,9.014-138.071,8.2-138.071,0,0-57.875-2.12-159.244,2.158-168.275,1.2-2.523,14.441-4.228,32.212-5.137,20.477-1.05,46.962-1.043,67.934-.015,19.974.979,36.831,2.648,36.853,5.45C1264.957,291.545,1264,381.309,1263.433,403.1Z" transform="translate(-955.221 -194.386)" fill="#acafaf"/>
    <path id="Pfad_9372" data-name="Pfad 9372" d="M1312.731,428.792c-2.081,8.461-122.187,6.133-122.487-.062-2.963-61.208,1.4-146.557,3.185-155.7,1.208-6.194,121.417-7.57,120.6-.431-6.687,58.249,3.56,136.454-1.294,156.194Z" transform="translate(-1009.913 -227.411)" fill="#42435e" opacity="0.24"/>
    <path id="Pfad_9373" data-name="Pfad 9373" d="M1299.636,422.742c-2.081,8.461-121.972,4.837-122.272-1.356-2.963-61.208,1.4-146.557,3.185-155.7,1.208-6.194,122.719-6.139,121.676.971-8.414,57.278,2.265,136.347-2.589,156.087Z" transform="translate(-998.976 -221.792)" fill="#fff"/>
    <g id="Gruppe_2953" data-name="Gruppe 2953" transform="translate(195.801 94.864)">
      <g id="Gruppe_2951" data-name="Gruppe 2951" transform="translate(25.078 6.482)" opacity="0.82">
        <path id="Pfad_9374" data-name="Pfad 9374" d="M1604.3,674.64l12.418.225a.959.959,0,0,1,.846.948l.169,2.722a.793.793,0,0,1-.73.92l-12.418-.225a.959.959,0,0,1-.846-.948l-.169-2.722A.793.793,0,0,1,1604.3,674.64Z" transform="translate(-1582.642 -674.256)" fill="#8b8d90"/>
        <path id="Pfad_9375" data-name="Pfad 9375" d="M1465.22,672.1l7.589.137c.258,0,.49.383.519.847l.181,2.915c.029.463-.157.834-.416.829l-7.589-.137c-.258,0-.49-.383-.519-.847l-.181-2.915C1464.775,672.466,1464.96,672.1,1465.22,672.1Z" transform="translate(-1464.801 -672.1)" fill="#8b8d90"/>
        <path id="Pfad_9376" data-name="Pfad 9376" d="M1541.128,674.33l.181,2.912a.711.711,0,0,1-.656.826l-6.593-.119a.863.863,0,0,1-.76-.852l-.181-2.912a.712.712,0,0,1,.656-.826l6.593.119A.863.863,0,0,1,1541.128,674.33Z" transform="translate(-1522.816 -673.169)" fill="#8b8d90"/>
        <path id="Pfad_9377" data-name="Pfad 9377" d="M1750.115,679.36l9.581.173c.326.006.614.386.642.849l.181,2.915c.029.463-.213.834-.538.828l-9.581-.173c-.326-.006-.614-.386-.642-.849l-.181-2.915C1749.549,679.724,1749.79,679.354,1750.115,679.36Z" transform="translate(-1706.634 -678.265)" fill="#8b8d90"/>
        <path id="Pfad_9378" data-name="Pfad 9378" d="M1835.409,681.74l.181,2.912c.029.463-.213.834-.538.829l-5.5-.1c-.326-.006-.614-.386-.642-.851l-.181-2.912c-.029-.463.213-.834.538-.829l5.5.1C1835.092,680.9,1835.38,681.275,1835.409,681.74Z" transform="translate(-1773.849 -679.479)" fill="#8b8d90"/>
      </g>
      <g id="Gruppe_2952" data-name="Gruppe 2952">
        <path id="Pfad_9379" data-name="Pfad 9379" d="M1303.673,633.694c-.685.929-2.166,11.893-1,12.4,1.88.825,11.623.581,12.66-.338s1.683-11.787,1.219-12.415-12.161-.623-12.878.348Z" transform="translate(-1301.674 -632.338)" fill="#fff"/>
        <path id="Pfad_9380" data-name="Pfad 9380" d="M1304.931,643.945a19.809,19.809,0,0,1-5.673-.55,1.223,1.223,0,0,1-.6-.847c-.591-2.217.561-11.318,1.375-12.422h0c.208-.282.632-.6,3.038-.82,1.344-.122,3.081-.192,4.893-.195h.121c5.258,0,5.59.448,5.75.665.121.163.285.384.265,2.423-.012,1.146-.084,2.627-.2,4.062-.314,3.922-.774,6.176-1.365,6.7-.748.662-4.311.985-7.6.985Zm-5.128-1.57a24.133,24.133,0,0,0,6.25.406c3.414-.084,5.383-.445,5.71-.677.718-.9,1.413-9.946,1.132-11.575a34.343,34.343,0,0,0-5.94-.261c-3.785.059-5.641.366-6.02.57a29.216,29.216,0,0,0-1.036,5.745c-.4,3.581-.284,5.385-.1,5.792Zm1.1-11.517Zm12.127-.287Z" transform="translate(-1298.493 -629.11)" fill="#7d807a"/>
      </g>
    </g>
    <g id="Gruppe_2957" data-name="Gruppe 2957" transform="translate(196.971 70.568)">
      <g id="Gruppe_2954" data-name="Gruppe 2954" transform="translate(24.235 7.546)" opacity="0.8">
        <path id="Pfad_9381" data-name="Pfad 9381" d="M1606.468,520.569l12.418.225a.959.959,0,0,1,.846.949l.169,2.722a.793.793,0,0,1-.73.92l-12.418-.225a.959.959,0,0,1-.846-.948l-.169-2.722A.793.793,0,0,1,1606.468,520.569Z" transform="translate(-1584.811 -520.186)" fill="#8b8d90"/>
        <path id="Pfad_9382" data-name="Pfad 9382" d="M1467.39,518.03l7.589.137c.258,0,.49.383.519.847l.181,2.915c.029.463-.157.834-.416.829l-7.589-.137c-.258,0-.49-.383-.519-.847l-.181-2.915C1466.945,518.4,1467.13,518.025,1467.39,518.03Z" transform="translate(-1466.971 -518.03)" fill="#8b8d90"/>
        <path id="Pfad_9383" data-name="Pfad 9383" d="M1543.3,520.26l.181,2.912a.712.712,0,0,1-.656.826l-6.593-.119a.863.863,0,0,1-.76-.852l-.181-2.912a.712.712,0,0,1,.656-.826l6.593.119A.863.863,0,0,1,1543.3,520.26Z" transform="translate(-1524.986 -519.099)" fill="#8b8d90"/>
        <path id="Pfad_9384" data-name="Pfad 9384" d="M1752.286,525.3l9.581.173c.326.006.614.386.642.849l.181,2.915c.029.463-.213.834-.538.828l-9.581-.173c-.326-.006-.614-.386-.642-.849l-.181-2.915C1751.718,525.664,1751.96,525.294,1752.286,525.3Z" transform="translate(-1708.803 -524.203)" fill="#8b8d90"/>
        <path id="Pfad_9385" data-name="Pfad 9385" d="M1837.579,527.678l.181,2.912c.029.463-.213.834-.538.829l-5.5-.1c-.326-.006-.614-.386-.642-.85l-.181-2.912c-.029-.463.213-.834.538-.828l5.5.1c.326.006.614.386.642.85Z" transform="translate(-1776.018 -525.418)" fill="#8b8d90"/>
      </g>
      <g id="Gruppe_2956" data-name="Gruppe 2956">
        <g id="Gruppe_2955" data-name="Gruppe 2955" transform="translate(0 1.532)">
          <path id="Pfad_9386" data-name="Pfad 9386" d="M1311.433,482.734c-.685.929-2.165,11.893-1,12.4,1.88.825,11.623.581,12.66-.338s1.683-11.787,1.218-12.415-12.161-.623-12.878.348Z" transform="translate(-1309.434 -481.378)" fill="#fff"/>
          <path id="Pfad_9387" data-name="Pfad 9387" d="M1312.691,492.985a19.809,19.809,0,0,1-5.673-.55,1.223,1.223,0,0,1-.6-.847c-.591-2.217.561-11.318,1.375-12.422h0c.208-.282.632-.6,3.037-.82,1.342-.122,3.079-.191,4.892-.195h.124c5.258,0,5.59.448,5.75.665.121.163.285.385.265,2.423-.012,1.146-.084,2.627-.2,4.062-.314,3.922-.774,6.176-1.365,6.7-.748.662-4.311.985-7.6.985Zm-5.128-1.57a24.205,24.205,0,0,0,6.25.406c3.414-.084,5.383-.445,5.71-.677.718-.9,1.413-9.946,1.133-11.575a34.5,34.5,0,0,0-5.94-.261c-3.785.059-5.641.366-6.02.57a29.214,29.214,0,0,0-1.036,5.745c-.4,3.581-.283,5.385-.1,5.792Zm1.1-11.517Zm12.127-.286Z" transform="translate(-1306.253 -478.15)" fill="#7d807a"/>
        </g>
        <path id="Pfad_9388" data-name="Pfad 9388" d="M1326.642,481.207c-2.033,0-2.767-1.387-3.545-2.854-.161-.3-.329-.62-.522-.961a1.149,1.149,0,1,1,2-1.134c.21.369.392.713.553,1.018.822,1.55.964,1.65,1.579,1.632.529-.015,1.592-1.11,2.939-2.5a85.457,85.457,0,0,1,8.976-8.177,1.15,1.15,0,0,1,1.427,1.8,83.807,83.807,0,0,0-8.754,7.977c-1.974,2.033-3.061,3.151-4.524,3.192l-.13,0Z" transform="translate(-1319.987 -467.987)" fill="#acafaf"/>
      </g>
    </g>
    <g id="Gruppe_2960" data-name="Gruppe 2960" transform="translate(194.278 138.767)">
      <g id="Gruppe_2958" data-name="Gruppe 2958" transform="translate(25.785 6.431)" opacity="0.82">
        <path id="Pfad_9389" data-name="Pfad 9389" d="M1598.888,965.449l12.418.225a.959.959,0,0,1,.846.948l.169,2.722a.792.792,0,0,1-.73.92l-12.418-.225a.959.959,0,0,1-.846-.948l-.169-2.722A.792.792,0,0,1,1598.888,965.449Z" transform="translate(-1577.232 -965.066)" fill="#8b8d90"/>
        <path id="Pfad_9390" data-name="Pfad 9390" d="M1459.81,962.91l7.589.137c.258,0,.49.383.519.848l.181,2.915c.029.463-.157.834-.416.829l-7.589-.137c-.258,0-.49-.383-.519-.847l-.181-2.915C1459.365,963.276,1459.551,962.905,1459.81,962.91Z" transform="translate(-1459.391 -962.91)" fill="#8b8d90"/>
        <path id="Pfad_9391" data-name="Pfad 9391" d="M1535.718,965.141l.181,2.912a.712.712,0,0,1-.656.826l-6.593-.119a.863.863,0,0,1-.76-.852l-.181-2.912a.712.712,0,0,1,.656-.826l6.593.119A.863.863,0,0,1,1535.718,965.141Z" transform="translate(-1517.406 -963.979)" fill="#8b8d90"/>
        <path id="Pfad_9392" data-name="Pfad 9392" d="M1744.705,970.18l9.581.173c.326.006.614.386.642.849l.181,2.915c.029.463-.213.834-.538.828l-9.581-.173c-.326-.006-.614-.386-.642-.849l-.181-2.915C1744.138,970.545,1744.38,970.174,1744.705,970.18Z" transform="translate(-1701.224 -969.083)" fill="#8b8d90"/>
        <path id="Pfad_9393" data-name="Pfad 9393" d="M1830,972.558l.181,2.912c.029.463-.213.834-.538.829l-5.5-.1c-.326-.006-.614-.386-.642-.85l-.181-2.912c-.029-.463.213-.834.538-.828l5.5.1c.326.006.614.386.642.85Z" transform="translate(-1768.438 -970.298)" fill="#8b8d90"/>
      </g>
      <g id="Gruppe_2959" data-name="Gruppe 2959">
        <path id="Pfad_9394" data-name="Pfad 9394" d="M1293.563,924.844c-.684.929-2.165,11.893-1,12.4,1.88.825,11.623.581,12.66-.338s1.683-11.787,1.218-12.415-12.161-.623-12.877.348Z" transform="translate(-1291.566 -923.488)" fill="#fff"/>
        <path id="Pfad_9395" data-name="Pfad 9395" d="M1294.83,935.095a19.789,19.789,0,0,1-5.671-.55,1.224,1.224,0,0,1-.6-.847c-.591-2.217.561-11.318,1.375-12.422h0c.208-.282.63-.6,3.035-.82,1.342-.122,3.079-.191,4.89-.194h.125c5.257,0,5.588.448,5.75.665.121.163.285.385.266,2.423-.012,1.146-.084,2.627-.2,4.062-.313,3.922-.773,6.176-1.365,6.7-.748.662-4.311.985-7.6.985Zm-5.128-1.57a24.21,24.21,0,0,0,6.25.406c3.414-.085,5.383-.445,5.71-.677.718-.9,1.413-9.946,1.132-11.575a34.322,34.322,0,0,0-5.94-.261c-3.785.059-5.641.366-6.02.57a29.241,29.241,0,0,0-1.036,5.747c-.4,3.581-.284,5.385-.1,5.792Zm13.23-11.8Z" transform="translate(-1288.393 -920.26)" fill="#7d807a"/>
      </g>
    </g>
    <g id="Gruppe_2964" data-name="Gruppe 2964" transform="translate(194.278 115.068)">
      <g id="Gruppe_2961" data-name="Gruppe 2961" transform="translate(26.248 6.7)" opacity="0.82">
        <path id="Pfad_9396" data-name="Pfad 9396" d="M1714.319,815.014l-9.58-.214c-.326-.008-.629.36-.676.822l-.3,2.9c-.047.461.178.841.5.849l9.58.214c.326.008.629-.36.676-.822l.3-2.9C1714.87,815.4,1714.645,815.021,1714.319,815.014Z" transform="translate(-1667.374 -813.703)" fill="#8b8d90"/>
        <path id="Pfad_9397" data-name="Pfad 9397" d="M1651.964,814.453l-.3,2.9c-.047.461.178.843.505.849l5.5.124c.326.008.629-.362.677-.823l.3-2.9c.047-.461-.178-.843-.505-.849l-5.5-.124C1652.315,813.622,1652.012,813.991,1651.964,814.453Z" transform="translate(-1623.13 -812.709)" fill="#8b8d90"/>
        <path id="Pfad_9398" data-name="Pfad 9398" d="M1476.046,807.807l-12.416-.278a.96.96,0,0,0-.884.914l-.279,2.713a.792.792,0,0,0,.692.948l12.416.277a.96.96,0,0,0,.884-.914l.279-2.713A.792.792,0,0,0,1476.046,807.807Z" transform="translate(-1462.461 -807.529)" fill="#8b8d90"/>
        <path id="Pfad_9399" data-name="Pfad 9399" d="M1572.79,810.8l-.3,2.9a.712.712,0,0,0,.623.852l6.593.148a.861.861,0,0,0,.793-.82l.3-2.9a.712.712,0,0,0-.623-.852l-6.593-.148A.861.861,0,0,0,1572.79,810.8Z" transform="translate(-1555.895 -809.609)" fill="#8b8d90"/>
      </g>
      <g id="Gruppe_2963" data-name="Gruppe 2963">
        <g id="Gruppe_2962" data-name="Gruppe 2962" transform="translate(0 1.531)">
          <path id="Pfad_9400" data-name="Pfad 9400" d="M1293.563,777.834c-.684.929-2.165,11.893-1,12.4,1.88.825,11.623.581,12.66-.338s1.683-11.787,1.218-12.415-12.161-.623-12.877.348Z" transform="translate(-1291.566 -776.478)" fill="#fff"/>
          <path id="Pfad_9401" data-name="Pfad 9401" d="M1294.83,788.085a19.789,19.789,0,0,1-5.671-.55,1.224,1.224,0,0,1-.6-.847c-.591-2.217.561-11.318,1.375-12.422h0c.208-.282.63-.6,3.035-.82,1.342-.122,3.079-.191,4.89-.195h.125c5.257,0,5.588.448,5.75.665.121.163.285.385.266,2.423-.012,1.146-.084,2.627-.2,4.062-.313,3.922-.773,6.176-1.365,6.7-.748.662-4.311.985-7.6.985Zm-5.128-1.57a24.2,24.2,0,0,0,6.25.406c3.414-.084,5.383-.445,5.71-.677.718-.9,1.413-9.946,1.132-11.575a34.511,34.511,0,0,0-5.94-.261c-3.785.059-5.641.366-6.02.57a29.24,29.24,0,0,0-1.036,5.747c-.4,3.583-.284,5.385-.1,5.792Zm13.23-11.8Z" transform="translate(-1288.393 -773.25)" fill="#7d807a"/>
        </g>
        <path id="Pfad_9402" data-name="Pfad 9402" d="M1308.772,776.317c-2.033,0-2.767-1.387-3.545-2.854-.161-.3-.329-.62-.522-.961a1.149,1.149,0,0,1,2-1.134c.209.369.392.715.553,1.018.822,1.55.965,1.651,1.579,1.632.529-.015,1.593-1.11,2.939-2.5a85.446,85.446,0,0,1,8.977-8.177,1.15,1.15,0,0,1,1.427,1.8,83.835,83.835,0,0,0-8.753,7.977c-1.974,2.033-3.061,3.152-4.524,3.192h-.13Z" transform="translate(-1302.118 -763.097)" fill="#acafaf"/>
      </g>
    </g>
    <g id="Gruppe_2967" data-name="Gruppe 2967" transform="translate(194.115 162.875)">
      <g id="Gruppe_2965" data-name="Gruppe 2965" transform="translate(26.191 5.033)" opacity="0.82">
        <path id="Pfad_9403" data-name="Pfad 9403" d="M1712.859,1120.993l-9.58-.214c-.326-.007-.629.36-.676.822l-.3,2.9c-.047.461.178.841.5.849l9.58.214c.326.008.629-.36.676-.822l.3-2.9C1713.409,1121.381,1713.185,1121,1712.859,1120.993Z" transform="translate(-1665.914 -1119.684)" fill="#8b8d90"/>
        <path id="Pfad_9404" data-name="Pfad 9404" d="M1650.5,1120.443l-.3,2.9c-.047.461.178.843.505.849l5.5.124c.326.007.629-.362.677-.823l.3-2.9c.047-.461-.178-.843-.505-.849l-5.5-.124C1650.855,1119.612,1650.552,1119.981,1650.5,1120.443Z" transform="translate(-1621.67 -1118.699)" fill="#8b8d90"/>
        <path id="Pfad_9405" data-name="Pfad 9405" d="M1474.586,1113.8l-12.416-.277a.96.96,0,0,0-.884.914l-.279,2.713a.792.792,0,0,0,.692.948l12.416.277a.96.96,0,0,0,.884-.914l.279-2.713A.792.792,0,0,0,1474.586,1113.8Z" transform="translate(-1461.001 -1113.519)" fill="#8b8d90"/>
        <path id="Pfad_9406" data-name="Pfad 9406" d="M1571.33,1116.79l-.3,2.9a.712.712,0,0,0,.623.852l6.593.148a.861.861,0,0,0,.793-.82l.3-2.9a.712.712,0,0,0-.623-.852l-6.593-.148A.861.861,0,0,0,1571.33,1116.79Z" transform="translate(-1554.435 -1115.6)" fill="#8b8d90"/>
      </g>
      <g id="Gruppe_2966" data-name="Gruppe 2966">
        <path id="Pfad_9407" data-name="Pfad 9407" d="M1292.493,1084.724c-.685.929-2.165,11.893-1,12.4,1.88.825,11.623.58,12.66-.338s1.683-11.787,1.218-12.415-12.161-.623-12.878.349Z" transform="translate(-1290.494 -1083.368)" fill="#fff"/>
        <path id="Pfad_9408" data-name="Pfad 9408" d="M1293.751,1094.975a19.812,19.812,0,0,1-5.673-.55,1.224,1.224,0,0,1-.6-.847c-.591-2.217.561-11.318,1.375-12.422h0c.208-.282.632-.6,3.037-.82,1.342-.122,3.079-.191,4.892-.194h.124c5.258,0,5.59.448,5.75.665.121.163.285.385.265,2.423-.012,1.146-.084,2.627-.2,4.062-.314,3.922-.774,6.176-1.365,6.7-.748.662-4.311.985-7.6.985Zm-5.128-1.57a24.131,24.131,0,0,0,6.25.406c3.414-.084,5.383-.445,5.71-.677.718-.9,1.413-9.946,1.133-11.575a34.5,34.5,0,0,0-5.94-.261c-3.785.059-5.641.366-6.02.57a29.212,29.212,0,0,0-1.036,5.745c-.4,3.581-.283,5.385-.1,5.792Zm13.23-11.8Z" transform="translate(-1287.313 -1080.14)" fill="#7d807a"/>
      </g>
    </g>
    <g id="Gruppe_2968" data-name="Gruppe 2968" transform="translate(203.452 16.596)">
      <path id="Pfad_9409" data-name="Pfad 9409" d="M1388.236,244.5c-30.092-.667-33.666-5.671-32.919-14.731a680,680,0,0,1,68.066,0c.38,4.822.333,15.516-35.146,14.731Z" transform="translate(-1354.327 -210.995)" fill="#42435e" opacity="0.24"/>
      <path id="Pfad_9410" data-name="Pfad 9410" d="M1349.469,127.433c-1.187,10.144,1.048,14.013,32.7,14.716,38.491.853,35.205-10.091,35-14.4-.308-6.451-17.8-2.444-17.848-6.463-.167-13.929-23.472-12.434-27.207-8.551-6.276,6.528-2.96,9.3-8.621,9.519s-13.437.131-14.026,5.177Z" transform="translate(-1349.235 -110.057)" fill="#919393"/>
    </g>
    <circle id="Ellipse_75" data-name="Ellipse 75" cx="3.703" cy="3.703" r="3.703" transform="translate(231.458 25.212) rotate(-45)" fill="#fff"/>
    <g id="Gruppe_2970" data-name="Gruppe 2970" transform="translate(333.034 63.02)">
      <path id="Pfad_9411" data-name="Pfad 9411" d="M700.337,864.863c1.939-.267,4.011-2.039,3.811-1.1s-.936,1.571-.335,1.371,4.145-1.871,3.61.2-.4,5.082-2.607,3.945-3.544-1.4-4.948-1.137.467-3.277.467-3.277Z" transform="translate(-678.878 -796.302)" fill="#cdd1d0"/>
      <g id="Gruppe_2969" data-name="Gruppe 2969" transform="translate(0 -0.001)">
        <path id="Pfad_9412" data-name="Pfad 9412" d="M457.942,493.871a18.078,18.078,0,0,0,4.178,4.234,25.762,25.762,0,0,0,3.93,2.458,29.134,29.134,0,0,0,3.878,1.633q.726.249,1.5.47c.246.071.493.13.745.178,6.662,1.307,15.305-4.608,21.837-13.336a53.735,53.735,0,0,0,4.222-6.6c6.894-12.745,5.958-26.678,3.978-31.585-1.3-3.227-5.205-7.592-12.035-11.131q-.47-.242-.959-.483l-2.036,3.524-.762,1.318-1.591,2.756-21.426,37.1-2.987,5.172-1.049,1.819-1.425,2.468Z" transform="translate(-438.652 -436.425)" fill="#cbcfce"/>
        <ellipse id="Ellipse_76" data-name="Ellipse 76" cx="17.163" cy="28.641" rx="17.163" ry="28.641" transform="matrix(-0.912, -0.41, 0.41, -0.912, 41.233, 66.321)" fill="#696969"/>
        <ellipse id="Ellipse_77" data-name="Ellipse 77" cx="17.163" cy="28.641" rx="17.163" ry="28.641" transform="matrix(-0.912, -0.41, 0.41, -0.912, 41.233, 66.321)" fill="#ccc" opacity="0.15"/>
        <path id="Pfad_9413" data-name="Pfad 9413" d="M495.042,533.422a17.108,17.108,0,0,0,3.188,6.255c9.443.14,20.375-8.595,26.477-22.076a48.443,48.443,0,0,0,3.679-11.958h0a104.7,104.7,0,0,0-6.027-17.81,9.319,9.319,0,0,0-2.055-.683c-13.193-2.758-32.584,22.2-25.26,46.27Z" transform="translate(-468.738 -476.533)" fill="#fff" opacity="0.72"/>
        <path id="Pfad_9414" data-name="Pfad 9414" d="M522.612,782.648a19.78,19.78,0,0,0,1.592,2.5c.3-.867.528-1.5.653-1.85,6.662,1.307,15.305-4.608,21.837-13.336-7.689,6.484-18.012,11.416-23.177,9.869h0c-.8-.24-1.273-.157-1.485.163a.823.823,0,0,0-.127.391A4.694,4.694,0,0,0,522.612,782.648Z" transform="translate(-491.338 -716.876)" fill="#0c0d1c" opacity="0.26"/>
        <path id="Pfad_9415" data-name="Pfad 9415" d="M493.987,453.828c7.331-16.2,21.637-25.544,31.951-20.876.327.149.647.309.959.483,7.072,3.916,10.013,13.983,8.123,25.342h0a48.476,48.476,0,0,1-3.679,11.959c-5.53,12.216-15.028,20.536-23.787,21.884q-.749.118-1.485.163c-.4.026-.807.035-1.2.029a13.685,13.685,0,0,1-5.474-1.2c-.185-.084-.37-.172-.549-.264-9.85-5.014-12.054-21.613-4.854-37.518Zm3.219,1.457a41.511,41.511,0,0,0-1.541,3.915c-3.117,9.266-2.456,18.321,1.475,23.626a11.57,11.57,0,0,0,4.539,3.729c8.538,3.865,20.378-3.872,26.446-17.276,5.192-11.471,4.475-23.374-1.185-29a11.237,11.237,0,0,0-3.287-2.277c-.167-.077-.339-.148-.508-.214-6.5-2.557-14.75,1.342-20.934,9.2a40.194,40.194,0,0,0-5,8.292Z" transform="translate(-475.375 -429.665)" fill="#a8a8a8"/>
        <path id="Pfad_9416" data-name="Pfad 9416" d="M493.987,453.828c7.331-16.2,21.637-25.544,31.951-20.876.327.149.647.309.959.483,7.072,3.916,10.013,13.983,8.123,25.342h0a48.476,48.476,0,0,1-3.679,11.959c-5.53,12.216-15.028,20.536-23.787,21.884q-.749.118-1.485.163c-.4.026-.807.035-1.2.029a13.685,13.685,0,0,1-5.474-1.2c-.185-.084-.37-.172-.549-.264-9.85-5.014-12.054-21.613-4.854-37.518Zm3.219,1.457a41.511,41.511,0,0,0-1.541,3.915c-3.117,9.266-2.456,18.321,1.475,23.626a11.57,11.57,0,0,0,4.539,3.729c8.538,3.865,20.378-3.872,26.446-17.276,5.192-11.471,4.475-23.374-1.185-29a11.237,11.237,0,0,0-3.287-2.277c-.167-.077-.339-.148-.508-.214-6.5-2.557-14.75,1.342-20.934,9.2a40.194,40.194,0,0,0-5,8.292Z" transform="translate(-475.375 -429.665)" fill="#a8a8a8" opacity="0.24"/>
        <path id="Pfad_9417" data-name="Pfad 9417" d="M699.279,840.2c0,.009-.008.02-.012.032-.023.054-.054.14-.1.258-.127.351-.348.983-.654,1.85-3.72,10.608-21.684,71.641-26,78.743-.018.027-.035.056-.051.081-.035.054-.068.1-.1.151s-.059.084-.088.121-.033.044-.05.063c-2.126,2.6-3.946,2.336-5.125,1.179a4.755,4.755,0,0,1-1.36-4.07c.872-2.857,25.886-76.688,27.307-80.4.024-.059.041-.1.051-.133.339-.908,1.736-.917,3.121-.5a7.186,7.186,0,0,1,2.321,1.163C699.131,839.216,699.464,839.742,699.279,840.2Z" transform="translate(-665.65 -774.074)" fill="#cbcfce"/>
        <path id="Pfad_9418" data-name="Pfad 9418" d="M697.83,848.251c0,.009-.008.02-.012.032-.023.054-.054.14-.1.258-.127.351-.348.983-.654,1.85-3.72,10.608-21.684,71.641-26,78.743-.018.027-.035.056-.051.081-.035.054-.068.1-.1.151s-.059.084-.087.121-.033.044-.05.063c-2.126,2.6-3.946,2.336-5.125,1.179,7.752-8.615,27.892-74.037,31.44-83.94.593.472.926,1,.74,1.461Z" transform="translate(-664.201 -782.121)" fill="#0c0d1c" opacity="0.2"/>
      </g>
      <path id="Pfad_9419" data-name="Pfad 9419" d="M712.663,861.7c1.069-.668,1.739-.736,2.107-.2.3.436-2.574,1.972-2.775,2.005S712.663,861.7,712.663,861.7Z" transform="translate(-688.094 -794.312)" fill="#cdd1d0"/>
    </g>
    <path id="Pfad_9420" data-name="Pfad 9420" d="M1873.057,375.116c-2.814-.445-3.215-1.724-3.737-5.686-.365,3.761-.829,5.186-3.69,5.614,2.5,1.072,3.372,1.461,3.817,5.807.615-4.4,1.163-4.791,3.61-5.736Z" transform="translate(-1584.31 -313.723)" fill="#fff"/>
    <g id="Gruppe_2975" data-name="Gruppe 2975" transform="translate(288.746 112.43)">
      <g id="Gruppe_2971" data-name="Gruppe 2971" transform="translate(35.075 90.16)">
        <path id="Pfad_9421" data-name="Pfad 9421" d="M917.271,1348.931c.213-1.458,1.107-5.106,1.107-5.106l-3.919-.315-.909,5.511,2.535,1.888,1.187-1.978h0Z" transform="translate(-912.865 -1343.51)" fill="#fff"/>
        <path id="Pfad_9422" data-name="Pfad 9422" d="M876.86,1372.455c.339-.255,1.068.672,1.211,1.289.329,1.414,4.747,1.663,5.532,1.8a1.21,1.21,0,0,1-1,2.113c-1.749-.036-7.354-.128-9.269-.18a.873.873,0,0,1-.835-.667c-.323-1.366-.312-4.558.223-4.595.718.177,2.844,1.209,4.135.234h0Z" transform="translate(-872.286 -1367.891)" fill="#666"/>
      </g>
      <g id="Gruppe_2972" data-name="Gruppe 2972" transform="translate(21.902 89.422)">
        <path id="Pfad_9423" data-name="Pfad 9423" d="M966.408,1344.647c-.464-1.4-1.178-5.049-1.178-5.049l3.839-.979,1.022,5.489-2.168,2.288-1.515-1.749h0Z" transform="translate(-959.198 -1338.62)" fill="#fff"/>
        <path id="Pfad_9424" data-name="Pfad 9424" d="M967.487,1365.193c-.419.078-.294.473-.366,1.1-.166,1.442-5.052,2.939-5.816,3.164a1.213,1.213,0,0,0,1.23,1.99c1.736-.228,7.294-.935,9.191-1.194a.871.871,0,0,0,.754-.754c.164-1.392-.167-5.125-.7-5.1-.694.255-2.378.44-4.292.793h0Z" transform="translate(-960.99 -1360.512)" fill="#666"/>
      </g>
      <path id="Pfad_9425" data-name="Pfad 9425" d="M896.961,1026.247c-.736.58-3.756,0-5.445-.317-.59-.653,4.062-19.184,3.117-23.837-.909-4.471-2.211-8.871-3.228-12.451a8.554,8.554,0,0,0-1.617-2.933s-5.522,12.3-5.612,15.963c-.155,6.386,4.679,21.666,4.316,22.3s-3.109,1.3-5.427,1.123c-.707-1.953-5.769-17.327-5.869-23.644-.051-3.228-.22-6.386,3.26-20.788.772-3.194,1.807-7.167,2.072-7.939,0,0-.685.051-.683.047.843-2.458,1.227,1.624,1.374.143a18.065,18.065,0,0,0,0-1.829c.021-.664,1.252-1.461,1.357-2.247-.113.838,3.483-7.072,13.113,1a12.339,12.339,0,0,1,1.816,2.839c.081.353.385,4.4.923,8.47.4,3,1.41,16.48,1.543,19.954.262,6.8-4.267,23.573-5,24.154h0Z" transform="translate(-855.907 -933.759)" fill="#a8a8a8"/>
      <path id="Pfad_9426" data-name="Pfad 9426" d="M961.1,1075.961v.009a.254.254,0,0,0,.047-.03.3.3,0,0,0-.048.021Z" transform="translate(-927.73 -1026.128)" fill="#656b89" opacity="0.46"/>
      <path id="Pfad_9427" data-name="Pfad 9427" d="M945.332,1073.966c.706.909,1.057,1.249,1.915,3.961l-.95-8.007-.967,4.047h0Z" transform="translate(-911.451 -1021.015)" fill="#656b89" opacity="0.46"/>
      <path id="Pfad_9428" data-name="Pfad 9428" d="M912.5,786.4l-3.259-1.164c.08-1.5,1.933-4.539,2.272-5.867.372-1.457,2.545-1.568,2.545-1.568l.657,2.064-.091.255a11.409,11.409,0,0,0-.069,3.785c.214.694-.017,1.681.633,2.769.487.814-2.689-.273-2.689-.273h0Z" transform="translate(-874.005 -772.945)" fill="#d0d3d4"/>
      <path id="Pfad_9429" data-name="Pfad 9429" d="M915.045,792.051a9.113,9.113,0,0,0-.268,2.651c-2.134.781-2.316-2.845-1.754-3.384.351-.336.858.134.858.134l1.164.6Z" transform="translate(-874.336 -784.321)" fill="#656b89" opacity="0.14"/>
      <path id="Pfad_9430" data-name="Pfad 9430" d="M898.274,804.5c1.562-.357,1.871,2.741,3.118,2.9.757.1.606-.25.98-.593a3.078,3.078,0,0,1,2.149.555c6.763,7.77-4.4,24.9-3.557,26.251.691,1.105-.513,4.739-4.3,3.818-8.728-2.122-6.532-4.261-5.935-7.506.2-1.09,2.658-21.492,2.658-21.492s2.48-1.933,4.887-3.931h0Z" transform="translate(-862.575 -795.593)" fill="#fff"/>
      <path id="Pfad_9431" data-name="Pfad 9431" d="M767.8,831.03c-1.953,1.2-11.525,7.721-14.731,7.191-3.292-.544-6.006-6.039-7.3-7.511h0a.031.031,0,0,0-.008-.007,1,1,0,0,0-.452-.35.184.184,0,0,0-.1.008c-.466.178-.746,2.515-.909,4.818-.148,2.079-.638,5.2-.644,5.609-.078,4.421.849,3.058,1.374,8.855.22,2.419-2.06,4.282-6.473,3.081-.669-.182-2.2-2.53-2-3.45.471-2.22,2.672-6.807,2.476-11.867-.214-5.536,2.5-8.684,2.164-13.265a23.172,23.172,0,0,1-.008-4.688c.009-.063.015-.092.015-.092.188.077.374.158.556.241q.382.174.746.367h0c7.238,3.785,10.04,12.271,11.57,12.662,2.214.568,12.493-6.594,12.722-5.425,0,0,1.386,3.593,1.007,3.827v0Z" transform="translate(-700.588 -808.238)" fill="#888a8a"/>
      <path id="Pfad_9432" data-name="Pfad 9432" d="M952.284,829.616a20.31,20.31,0,0,0-1.268,7.432,3.875,3.875,0,0,1-1.61,2.65c-2.508,2.039-5.974-.962-4.89-3.824,2.072-5.468.467-5.13,1.075-11.024a4.745,4.745,0,0,0-.045-.706c-.045-.808.124-2.809.234-4.234.047-.615.084-1.123.087-1.38v-.056c-.009-.872-1.435.909-1.347-.362.044-.623.107-1.359.2-2.273a19.184,19.184,0,0,1,1.654-6.543,4.01,4.01,0,0,1,.953-1.214h0a19.2,19.2,0,0,1,8.33-3.574c.119-.021.194-.03.22-.033h0c-.024,0,.008,0,.008,0h0a112.835,112.835,0,0,1-.81,15.954,45.9,45.9,0,0,1-2.8,9.191h0Z" transform="translate(-919.966 -795.597)" fill="#888a8a"/>
      <path id="Pfad_9433" data-name="Pfad 9433" d="M894.141,764.094c-.55,1.056-.659,3.654-1.35,3.23s-1.16,2.233-1.911,1.808c-1.82-1.03-3.171-3.387-2.868-4.373a19.391,19.391,0,0,1,1.92-3.269l4.207,2.6h0Z" transform="translate(-849.695 -759.094)" fill="#d0d3d4"/>
      <path id="Pfad_9434" data-name="Pfad 9434" d="M878.813,750.454c.522.407.457.547.97.6s.169-.9.979-.565,1.645.777,2.244,0c.867-1.126-.33-1.6-1.083-1.865-.485-.172-.014-1.151-.894-1.635-.692-.378-.856.054-1.488-.256-.382-.187-.719-1.2-1.553-1.119-1.547.154-1.289,1.66-2.695,1.977-1.639.368-.617,3.907-.184,3.818.505-.1.683-1.411,1.157-1.455.713-.065.517.377.686,1,.181.668.968,1.181.944.091s.451-.956.921-.587v0Z" transform="translate(-836.815 -745.606)" fill="#666"/>
      <path id="Pfad_9435" data-name="Pfad 9435" d="M996.589,876.72a17.91,17.91,0,0,1-.265,2.363,17.41,17.41,0,0,1-2.8,7.117q-.025-.342-.045-.706c-.045-.808.124-2.809.234-4.234-.406.321-.811.636-1.211.943l-.051-.792,1.35-1.531,2.791-3.161h0Z" transform="translate(-967.9 -856.948)" fill="#656b89" opacity="0.25"/>
      <g id="Gruppe_2973" data-name="Gruppe 2973" transform="translate(0 10.92)">
        <path id="Pfad_9436" data-name="Pfad 9436" d="M1130.415,826.269a14.957,14.957,0,0,1-2.069-1.74,5.7,5.7,0,0,0-2.31-1.722,7.2,7.2,0,0,1-2.633-2.425,1.41,1.41,0,0,1,1.975-1.135c.755.424,1.82,1.556,2.479,1.307.471-.178.1-2.586.526-2.538.95.11.564,3.1,1.576,4.058.884.84,2.091,1.41,2.365,1.858s-1.909,2.336-1.909,2.336h0Z" transform="translate(-1123.403 -818.015)" fill="#d0d3d4"/>
        <path id="Pfad_9437" data-name="Pfad 9437" d="M987.044,823.929c-.368,1.371-2.376,3.562-4.849,5.772-.116.1.772-1.727.651-1.622-.84.737-2.729,3.409-3.617,4.114-.406.321-.811.636-1.211.942-3.008,2.288-5.805,4.046-6.642,4.083-3.3.152-12.582-10.041-12.92-10.629-.087-.152.051-.477.3-.875a20.1,20.1,0,0,1,1.87-2.307c.3-.333.514-.553.514-.553s7.641,7.4,9.869,7.479c1.728.062,3.2-1.617,8.812-8.757q.459-.584.953-1.214h0c.074-.024,2.455-.8,4.516-1.369a1.15,1.15,0,0,1,.967.11c1.132.719,1.107,3.607.78,4.824h0Z" transform="translate(-953.416 -818.799)" fill="#888a8a"/>
      </g>
      <g id="Gruppe_2974" data-name="Gruppe 2974" transform="translate(3.604 5.546)">
        <path id="Pfad_9438" data-name="Pfad 9438" d="M934.295,818.23c-.113-.131-2.315,2.177-4.477,2.532a4.739,4.739,0,0,1-1.808-.024,27.547,27.547,0,0,1-5.306-1.591c2.5-2.027,2.052-1.687,3.133-2.027,1.425.93,1.558,1.7,2.485,1.862a6.932,6.932,0,0,0,2.027.029,11.367,11.367,0,0,0,3.256-.988c.451-.205.642-.659,1.08-.553.581.14-.244.927-.389.76Z" transform="translate(-899.284 -811.882)" fill="#656b89" opacity="0.18"/>
        <path id="Pfad_9439" data-name="Pfad 9439" d="M955.7,788.425a.729.729,0,0,0-.584-.9c-.437-.106-.523.056-.974.262a9.329,9.329,0,0,1-5.284.959c-1.978-.338-5.629-4.046-8.643-4.242s-4.611,2.057-8.9,1.54-8.192-3.461-9.461-3.6-2.076-.084-2.185.392a2.4,2.4,0,0,0,1.018,2,55.788,55.788,0,0,0,10.135,3.482c3.349.486,6.959-1.586,9.088-1.179s6.158,2.808,8.633,3.364c2.759.618,5.879-1.859,6.024-1.692a.773.773,0,0,0,.651.341c.256.009.418-.457.478-.728v0Z" transform="translate(-919.656 -782.383)" fill="#d0d3d4"/>
      </g>
    </g>
    <g id="Gruppe_2976" data-name="Gruppe 2976" transform="translate(195.607 94.576)">
      <path id="Pfad_9440" data-name="Pfad 9440" d="M1297.535,629.132l10.747,9.415,3,2.627a1.2,1.2,0,0,0,.8.332,1.132,1.132,0,0,0,.8-1.932l-10.747-9.415-3-2.627a1.2,1.2,0,0,0-.8-.332,1.132,1.132,0,0,0-.8,1.932Z" transform="translate(-1297.209 -627.2)" fill="#8f0e23"/>
      <path id="Pfad_9441" data-name="Pfad 9441" d="M1315.08,629.5a29.954,29.954,0,0,0-5.468,3.483,33.846,33.846,0,0,0-4.747,4.595,41.127,41.127,0,0,0-2.521,3.278A1.131,1.131,0,1,0,1304.3,642c.326-.469.659-.93,1-1.384l.139-.181c.074-.1-.084.109-.077.1l.06-.077c.086-.112.173-.222.261-.332q.271-.341.552-.676,1.061-1.267,2.233-2.432c.783-.775,1.571-1.485,2.41-2.167l.285-.229.143-.113.071-.056c.143-.112-.009,0-.062.047a6.6,6.6,0,0,1,.627-.469q.627-.457,1.277-.881a27.547,27.547,0,0,1,3-1.7,1.136,1.136,0,0,0,.406-1.547,1.16,1.16,0,0,0-1.547-.406h0Z" transform="translate(-1301.441 -629.037)" fill="#8f0e23"/>
    </g>
    <g id="Gruppe_2977" data-name="Gruppe 2977" transform="translate(194.853 138.731)">
      <path id="Pfad_9442" data-name="Pfad 9442" d="M1292.535,921.952l10.747,9.415,3,2.627a1.2,1.2,0,0,0,.8.332,1.132,1.132,0,0,0,.8-1.932l-10.747-9.415-3-2.627a1.2,1.2,0,0,0-.8-.332,1.132,1.132,0,0,0-.8,1.932Z" transform="translate(-1292.209 -920.02)" fill="#8f0e23"/>
      <path id="Pfad_9443" data-name="Pfad 9443" d="M1310.08,922.314a29.959,29.959,0,0,0-5.468,3.483,33.842,33.842,0,0,0-4.747,4.595,41.071,41.071,0,0,0-2.521,3.278,1.131,1.131,0,1,0,1.953,1.142c.326-.469.659-.93,1-1.384l.139-.181c.074-.1-.084.109-.077.1l.06-.077c.086-.112.173-.222.261-.332q.271-.341.552-.676,1.061-1.267,2.233-2.432c.783-.775,1.571-1.485,2.41-2.167l.285-.229.143-.113.071-.056c.143-.112-.009,0-.062.047a6.571,6.571,0,0,1,.627-.469q.626-.457,1.277-.881a27.57,27.57,0,0,1,3-1.7,1.136,1.136,0,0,0,.406-1.547,1.16,1.16,0,0,0-1.547-.406h0Z" transform="translate(-1296.441 -921.848)" fill="#8f0e23"/>
    </g>
    <g id="Gruppe_2978" data-name="Gruppe 2978" transform="translate(194.083 163.139)">
      <path id="Pfad_9444" data-name="Pfad 9444" d="M1287.425,1083.822l10.747,9.415,3,2.627a1.2,1.2,0,0,0,.8.332,1.132,1.132,0,0,0,.8-1.932q-5.374-4.707-10.747-9.415l-3-2.627a1.2,1.2,0,0,0-.8-.332,1.132,1.132,0,0,0-.8,1.932Z" transform="translate(-1287.099 -1081.89)" fill="#8f0e23"/>
      <path id="Pfad_9445" data-name="Pfad 9445" d="M1304.97,1084.194a29.972,29.972,0,0,0-5.468,3.483,33.826,33.826,0,0,0-4.747,4.595,41.055,41.055,0,0,0-2.521,3.278,1.131,1.131,0,1,0,1.953,1.141c.326-.469.659-.93,1-1.384l.139-.181c.074-.1-.084.109-.077.1l.06-.077c.086-.112.174-.222.261-.332q.272-.341.552-.676,1.061-1.267,2.233-2.432c.783-.775,1.571-1.485,2.41-2.167l.285-.229.143-.113.071-.056c.143-.112-.009,0-.062.047a6.573,6.573,0,0,1,.627-.469q.626-.457,1.277-.881a27.524,27.524,0,0,1,3-1.7,1.137,1.137,0,0,0,.406-1.547,1.159,1.159,0,0,0-1.547-.406h0Z" transform="translate(-1291.331 -1083.727)" fill="#8f0e23"/>
    </g>
    <rect id="Rechteck_1478" data-name="Rechteck 1478" width="444" height="236.021" transform="translate(25)" fill="none"/>
  </g>
</svg>
