<svg xmlns="http://www.w3.org/2000/svg" width="444" height="236.021" viewBox="0 0 444 236.021">
  <g id="img-optimierung-to" transform="translate(-1056 -5921.004)">
    <g id="Gruppe_2835" data-name="Gruppe 2835" transform="translate(1271.531 6010.168)">
      <path id="Pfad_9129" data-name="Pfad 9129" d="M1486.577,627.641a.46.46,0,0,0,.407-.344,29.318,29.318,0,0,0,.9-7.223v0a.462.462,0,0,0-.269-.418l-5.848-2.676a.46.46,0,0,1-.262-.351,23.061,23.061,0,0,0-.846-3.633.459.459,0,0,1,.112-.466l4.293-4.293a.459.459,0,0,0,.093-.519,29.226,29.226,0,0,0-4.189-6.54.458.458,0,0,0-.474-.145l-6.219,1.714a.464.464,0,0,1-.425-.1,23.375,23.375,0,0,0-2.155-1.674.458.458,0,0,1-.2-.419l.54-6.176a.459.459,0,0,0-.249-.451,28.986,28.986,0,0,0-7.643-2.6.46.46,0,0,0-.464.192l-3.61,5.235a.458.458,0,0,1-.4.2c-.351-.017-.7-.026-1.057-.026q-.638,0-1.268.035a.458.458,0,0,1-.4-.194l-3.645-5.2a.459.459,0,0,0-.466-.188,29.045,29.045,0,0,0-7.627,2.675.46.46,0,0,0-.246.452l.587,6.181a.458.458,0,0,1-.2.419,23.465,23.465,0,0,0-2.111,1.669.458.458,0,0,1-.424.1l-6.229-1.669a.456.456,0,0,0-.472.149,29.213,29.213,0,0,0-4.147,6.591.459.459,0,0,0,.1.517l4.326,4.264a.46.46,0,0,1,.115.464,22.886,22.886,0,0,0-.807,3.581.463.463,0,0,1-.259.353l-5.83,2.719c-.1.152-.17.268-.268.421a29.272,29.272,0,0,0,.952,7.244.462.462,0,0,0,.409.341l6,.481a.46.46,0,0,1,.391.29,23.051,23.051,0,0,0,2.23,4.257.459.459,0,0,1,.035.449l-2.67,5.726a.462.462,0,0,0,.072.5,29.43,29.43,0,0,0,5.13,4.554.458.458,0,0,0,.529,0l4.931-3.506a.458.458,0,0,1,.481-.03,22.946,22.946,0,0,0,5.2,1.981.46.46,0,0,1,.335.327l1.6,5.956a.461.461,0,0,0,.392.339,29.628,29.628,0,0,0,6.672-.018.46.46,0,0,0,.391-.342l1.552-5.961a.458.458,0,0,1,.333-.329,22.89,22.89,0,0,0,5.211-2.019.461.461,0,0,1,.481.027l4.958,3.471a.46.46,0,0,0,.529,0,29.4,29.4,0,0,0,5.091-4.57.461.461,0,0,0,.069-.5l-2.708-5.7a.46.46,0,0,1,.032-.449,23.152,23.152,0,0,0,2.227-4.317.457.457,0,0,1,.387-.293l6-.525Z" transform="translate(-1429.34 -591.315)" fill="#00628f"/>
      <g id="Gruppe_2834" data-name="Gruppe 2834" transform="translate(13.604 13.35)">
        <path id="Pfad_9130" data-name="Pfad 9130" d="M1550.888,695.467v.05a15.8,15.8,0,0,1-.125,1.993,15.537,15.537,0,0,1-1.689,5.329,15.687,15.687,0,0,1-5.08,5.659,15.607,15.607,0,0,1-7.135,2.6,15.786,15.786,0,0,1-1.635.084q-.195,0-.389,0a15.671,15.671,0,0,1-14.892-12.2,15.85,15.85,0,0,1-.326-2.108c-.038-.446-.057-.9-.057-1.353a15.614,15.614,0,0,1,4.012-10.469,15.715,15.715,0,0,1,6.1-4.183,15.968,15.968,0,0,1,2.087-.629,15.725,15.725,0,0,1,3.465-.385,15.892,15.892,0,0,1,1.807.1,15.587,15.587,0,0,1,6.99,2.6,15.48,15.48,0,0,1,1.672,1.313,15.687,15.687,0,0,1,3.349,4.27,15.4,15.4,0,0,1,.859,1.9,15.612,15.612,0,0,1,.985,5.428Z" transform="translate(-1519.56 -679.85)" fill="#1f1f39" opacity="0.25"/>
        <path id="Pfad_9131" data-name="Pfad 9131" d="M1548.964,687.992a15.663,15.663,0,0,0-8.722-5.931,15.445,15.445,0,0,0-2.125-.393,15.885,15.885,0,0,0-1.808-.1,15.709,15.709,0,0,0-3.465.385,15.887,15.887,0,0,0-2.087.627,15.638,15.638,0,0,0-10.109,14.651c0,.457.018.906.057,1.351a15.516,15.516,0,0,0,1.867,6.179q-.276-.378-.529-.771a15.536,15.536,0,0,1-2.416-7.1c-.039-.446-.057-.9-.057-1.353a15.718,15.718,0,0,1,.5-3.96,15.706,15.706,0,0,1,9.605-10.691,15.774,15.774,0,0,1,9.485-.514,15.712,15.712,0,0,1,9.8,7.624Z" transform="translate(-1519.568 -679.867)" fill="#1f1f39" opacity="0.25"/>
      </g>
    </g>
    <g id="Gruppe_2837" data-name="Gruppe 2837" transform="translate(1176.606 6081.297)">
      <path id="Pfad_9132" data-name="Pfad 9132" d="M850.9,1095.416a.408.408,0,0,0,.362-.306,26.154,26.154,0,0,0,.8-6.443v0a.409.409,0,0,0-.24-.372l-5.216-2.387a.407.407,0,0,1-.234-.314,20.452,20.452,0,0,0-.755-3.24.412.412,0,0,1,.1-.416l3.828-3.829a.411.411,0,0,0,.083-.463,26.125,26.125,0,0,0-3.737-5.834.41.41,0,0,0-.422-.13l-5.548,1.531a.413.413,0,0,1-.379-.088,20.73,20.73,0,0,0-1.923-1.493.413.413,0,0,1-.178-.374l.483-5.51a.408.408,0,0,0-.223-.4,25.8,25.8,0,0,0-6.819-2.322.413.413,0,0,0-.415.17l-3.221,4.67a.413.413,0,0,1-.357.177q-.468-.023-.944-.023-.57,0-1.131.032a.411.411,0,0,1-.359-.173l-3.251-4.643a.409.409,0,0,0-.416-.167,25.926,25.926,0,0,0-6.805,2.386.408.408,0,0,0-.219.4l.523,5.514a.407.407,0,0,1-.175.374,20.88,20.88,0,0,0-1.883,1.488.407.407,0,0,1-.378.09l-5.557-1.488a.414.414,0,0,0-.422.133,26.009,26.009,0,0,0-3.7,5.881.411.411,0,0,0,.086.462l3.859,3.8a.41.41,0,0,1,.1.415,20.381,20.381,0,0,0-.719,3.2.405.405,0,0,1-.232.314l-5.2,2.425-.238.375a26.083,26.083,0,0,0,.849,6.461.409.409,0,0,0,.365.3l5.355.43a.409.409,0,0,1,.348.259,20.591,20.591,0,0,0,1.99,3.8.41.41,0,0,1,.032.4l-2.382,5.109a.411.411,0,0,0,.065.446,26.251,26.251,0,0,0,4.577,4.062.41.41,0,0,0,.472,0l4.4-3.127a.41.41,0,0,1,.43-.027,20.457,20.457,0,0,0,4.641,1.767.408.408,0,0,1,.3.291l1.423,5.314a.413.413,0,0,0,.35.3,26.442,26.442,0,0,0,5.952-.017.411.411,0,0,0,.348-.3l1.384-5.318a.413.413,0,0,1,.3-.294,20.467,20.467,0,0,0,4.649-1.8.409.409,0,0,1,.43.024l4.423,3.1a.411.411,0,0,0,.472,0,26.237,26.237,0,0,0,4.542-4.077.41.41,0,0,0,.062-.448l-2.416-5.085a.41.41,0,0,1,.029-.4,20.525,20.525,0,0,0,1.986-3.851.41.41,0,0,1,.347-.261l5.35-.467Z" transform="translate(-799.83 -1063.013)" fill="#5d5d6d"/>
      <g id="Gruppe_2836" data-name="Gruppe 2836" transform="translate(12.142 11.91)">
        <path id="Pfad_9133" data-name="Pfad 9133" d="M908.316,1155.946v.045a14.142,14.142,0,0,1-.112,1.779,13.89,13.89,0,0,1-1.506,4.754,13.742,13.742,0,0,1-.946,1.535,14.024,14.024,0,0,1-5.136,4.423,13.855,13.855,0,0,1-4.816,1.41,14.133,14.133,0,0,1-1.458.075c-.116,0-.232,0-.347,0a13.94,13.94,0,0,1-4.877-1,13.742,13.742,0,0,1-1.65-.795,13.928,13.928,0,0,1-7.048-10.964c-.035-.4-.051-.8-.051-1.206a14,14,0,0,1,.451-3.533,13.71,13.71,0,0,1,.615-1.831,13.955,13.955,0,0,1,2.514-3.976,14.026,14.026,0,0,1,5.44-3.731,13.889,13.889,0,0,1,4.954-.9,14.172,14.172,0,0,1,1.612.092,13.924,13.924,0,0,1,6.237,2.319,14.089,14.089,0,0,1,4.482,4.981,13.72,13.72,0,0,1,.766,1.695,13.935,13.935,0,0,1,.879,4.842Z" transform="translate(-880.367 -1142.017)" fill="#1f1f39" opacity="0.25"/>
        <path id="Pfad_9134" data-name="Pfad 9134" d="M906.574,1149.244a13.875,13.875,0,0,0-1.947-2.152,13.888,13.888,0,0,0-5.834-3.14,13.84,13.84,0,0,0-1.9-.351,14.2,14.2,0,0,0-1.612-.092,13.952,13.952,0,0,0-13.974,13.972c0,.407.017.808.051,1.206a14.033,14.033,0,0,0,.29,1.88,13.866,13.866,0,0,0,1.377,3.633q-.246-.337-.472-.688a13.856,13.856,0,0,1-2.156-6.335q-.052-.6-.051-1.206a13.984,13.984,0,0,1,.449-3.533,13.738,13.738,0,0,1,.617-1.829,13.985,13.985,0,0,1,2.512-3.976,13.653,13.653,0,0,1,1.4-1.354,13.946,13.946,0,0,1,4.041-2.377,14.059,14.059,0,0,1,8.462-.46,13.863,13.863,0,0,1,4.341,1.968,13.684,13.684,0,0,1,1.493,1.172,13.967,13.967,0,0,1,2.907,3.663Z" transform="translate(-880.35 -1142)" fill="#1f1f39" opacity="0.25"/>
      </g>
    </g>
    <g id="Gruppe_2839" data-name="Gruppe 2839" transform="translate(1224.064 6052.867)">
      <path id="Pfad_9135" data-name="Pfad 9135" d="M1192.547,914.677a1.34,1.34,0,0,1-.992-1.175,34.833,34.833,0,0,0-1.149-6.273,1.343,1.343,0,0,1,.538-1.475l4.979-3.381a1.35,1.35,0,0,0,.492-1.621q-.66-1.642-1.452-3.21a1.348,1.348,0,0,0-1.5-.71l-6.012,1.36a1.337,1.337,0,0,1-1.419-.573,34.925,34.925,0,0,0-3.8-4.816,1.345,1.345,0,0,1-.208-1.556l2.839-5.314a1.352,1.352,0,0,0-.314-1.66q-1.382-1.183-2.862-2.244a1.348,1.348,0,0,0-1.662.066l-4.69,4a1.337,1.337,0,0,1-1.518.152,35.021,35.021,0,0,0-5.388-2.426,1.338,1.338,0,0,1-.9-1.276l.044-6.05a1.348,1.348,0,0,0-1.045-1.326q-1.807-.416-3.667-.682a1.35,1.35,0,0,0-1.443.834l-2.309,5.747a1.34,1.34,0,0,1-1.223.844c-1.413.026-4.088.127-5.8.3a1.349,1.349,0,0,1-1.335-.722l-2.8-5.433a1.352,1.352,0,0,0-1.535-.688q-1.841.468-3.619,1.089a1.352,1.352,0,0,0-.9,1.41l.621,6.093a1.34,1.34,0,0,1-.748,1.344,34.579,34.579,0,0,0-4.893,2.879,1.337,1.337,0,0,1-1.541,0l-5-3.509a1.352,1.352,0,0,0-1.669.1q-1.423,1.258-2.726,2.639a1.347,1.347,0,0,0-.148,1.671l3.361,5.073a1.34,1.34,0,0,1-.047,1.549,34.926,34.926,0,0,0-3.066,4.836,1.34,1.34,0,0,1-1.36.7l-6.1-.787a1.348,1.348,0,0,0-1.431.853q-.672,1.737-1.193,3.545a1.348,1.348,0,0,0,.647,1.558l5.324,2.927a1.348,1.348,0,0,1,.683,1.371c-.256,1.832-.421,4.531-.484,5.919a1.345,1.345,0,0,1-.878,1.2l-5.821,2.158a1.345,1.345,0,0,0-.87,1.414q.2,1.828.553,3.61a1.35,1.35,0,0,0,1.3,1.087l6.024.116a1.347,1.347,0,0,1,1.256.939,34.582,34.582,0,0,0,2.343,5.629,1.35,1.35,0,0,1-.192,1.521l-4.118,4.58a1.348,1.348,0,0,0-.113,1.66q1,1.468,2.11,2.845a1.346,1.346,0,0,0,1.653.36l5.38-2.692a1.346,1.346,0,0,1,1.552.249,34.989,34.989,0,0,0,4.875,4.053,1.348,1.348,0,0,1,.538,1.439l-1.517,5.958a1.352,1.352,0,0,0,.674,1.523c1.006.538,2.039,1.034,3.091,1.491a1.35,1.35,0,0,0,1.632-.449l3.515-4.889a1.342,1.342,0,0,1,1.487-.5,34.712,34.712,0,0,0,6.419,1.331,1.343,1.343,0,0,1,1.156,1.022l1.422,5.958a1.327,1.327,0,0,0,1.286,1.022h.012q1.7,0,3.363-.131a1.349,1.349,0,0,0,1.23-1.154l.843-5.98a1.34,1.34,0,0,1,1.078-1.131,34.539,34.539,0,0,0,6.41-1.87,1.339,1.339,0,0,1,1.509.365l4,4.576a1.352,1.352,0,0,0,1.652.3q1.468-.785,2.865-1.68a1.352,1.352,0,0,0,.544-1.591l-2.045-5.721a1.342,1.342,0,0,1,.418-1.5,34.928,34.928,0,0,0,4.776-4.679,1.343,1.343,0,0,1,1.512-.386l5.638,2.186a1.345,1.345,0,0,0,1.606-.505q.932-1.389,1.754-2.849a1.348,1.348,0,0,0-.261-1.654l-4.489-4.133a1.345,1.345,0,0,1-.33-1.509,34.418,34.418,0,0,0,1.975-6.277,1.347,1.347,0,0,1,1.163-1.056l5.98-.679a1.352,1.352,0,0,0,1.188-1.2,43.4,43.4,0,0,0,.217-4.34v-.136l-6.938-1.853Zm-29.321,2.191a6.493,6.493,0,0,1-.048.792,6.177,6.177,0,0,1-.67,2.113,6.807,6.807,0,0,1-.421.682,6.253,6.253,0,0,1-1.6,1.561,6.178,6.178,0,0,1-2.827,1.031c-.213.021-.43.032-.647.032-.053,0-.1,0-.155,0a6.183,6.183,0,0,1-2.167-.445,6.381,6.381,0,0,1-.731-.353,6.311,6.311,0,0,1-2.174-2.057,6.187,6.187,0,0,1-.959-2.815c-.017-.175-.023-.353-.023-.535a6.2,6.2,0,0,1,.2-1.57,6.046,6.046,0,0,1,.273-.813,6.223,6.223,0,0,1,1.117-1.766,6.021,6.021,0,0,1,.621-.6,6.242,6.242,0,0,1,1.8-1.056,6.459,6.459,0,0,1,.826-.249,6.264,6.264,0,0,1,1.375-.152,6.661,6.661,0,0,1,.716.039,6.764,6.764,0,0,1,.843.157,6.14,6.14,0,0,1,1.927.875,5.837,5.837,0,0,1,.662.519,6.234,6.234,0,0,1,1.33,1.692,6.051,6.051,0,0,1,.339.755,6.244,6.244,0,0,1,.391,2.152v.018Z" transform="translate(-1114.554 -874.473)" fill="#00628f"/>
      <path id="Pfad_9136" data-name="Pfad 9136" d="M1287.87,1023.885v.075a23.656,23.656,0,0,1-.187,2.977,23.277,23.277,0,0,1-4.1,10.524,23.441,23.441,0,0,1-8.594,7.4,23.2,23.2,0,0,1-8.06,2.358,23.71,23.71,0,0,1-2.438.125c-.195,0-.387,0-.581-.007a23.342,23.342,0,0,1-22.714-21.355q-.086-1-.086-2.018a23.439,23.439,0,0,1,.754-5.911,23.011,23.011,0,0,1,1.03-3.062,23.355,23.355,0,0,1,4.205-6.653,23.466,23.466,0,0,1,9.1-6.243,23.534,23.534,0,0,1,10.987-1.359,23.275,23.275,0,0,1,10.435,3.88,23.344,23.344,0,0,1,10.248,19.273Z" transform="translate(-1222.027 -981.564)" fill="#1f1f39" opacity="0.25"/>
      <path id="Pfad_9137" data-name="Pfad 9137" d="M1284.992,1012.692a23.286,23.286,0,0,0-3.257-3.6,23.564,23.564,0,0,0-2.5-1.962,23.243,23.243,0,0,0-10.435-3.877,23.728,23.728,0,0,0-2.7-.155,23.472,23.472,0,0,0-5.172.574,23.765,23.765,0,0,0-3.115.937,23.346,23.346,0,0,0-15.091,21.869c0,.682.027,1.353.086,2.018a23.143,23.143,0,0,0,2.788,9.222c-.274-.375-.538-.76-.789-1.149a23.177,23.177,0,0,1-3.607-10.6q-.086-1-.086-2.019a23.428,23.428,0,0,1,.752-5.911,23.036,23.036,0,0,1,1.031-3.061,23.423,23.423,0,0,1,4.2-6.654,23.1,23.1,0,0,1,2.343-2.266,23.4,23.4,0,0,1,17.747-5.332,23.661,23.661,0,0,1,3.171.588,23.25,23.25,0,0,1,7.264,3.292,22.958,22.958,0,0,1,2.5,1.96,23.39,23.39,0,0,1,4.866,6.128Z" transform="translate(-1222.035 -981.556)" fill="#1f1f39" opacity="0.25"/>
      <g id="Gruppe_2838" data-name="Gruppe 2838" transform="translate(56.433 70.382)">
        <path id="Pfad_9138" data-name="Pfad 9138" d="M1529.279,1348.8a.182.182,0,0,1-.169-.118.178.178,0,0,1,.107-.229,14.533,14.533,0,0,0,7.374-7.126.179.179,0,1,1,.32.163,14.689,14.689,0,0,1-7.571,7.3.172.172,0,0,1-.062.011Z" transform="translate(-1523.023 -1341.225)" fill="#564b37"/>
        <path id="Pfad_9139" data-name="Pfad 9139" d="M1488.979,1348.99a.179.179,0,0,1,0-.359,12.167,12.167,0,0,0,10.889-6.427.179.179,0,1,1,.317.169,12.516,12.516,0,0,1-11.2,6.617h0Z" transform="translate(-1488.8 -1341.976)" fill="#564b37"/>
      </g>
    </g>
    <g id="Gruppe_2840" data-name="Gruppe 2840" transform="translate(1296.17 6049.504)">
      <path id="Pfad_9140" data-name="Pfad 9140" d="M1596.41,861.72a3.7,3.7,0,0,0,2.468.887" transform="translate(-1595.857 -860.281)" fill="none" stroke="#564b37" stroke-linecap="round" stroke-linejoin="round" stroke-width="0.77" fill-rule="evenodd"/>
      <path id="Pfad_9141" data-name="Pfad 9141" d="M1592.74,852.18a3.132,3.132,0,0,0,2.711,1.772" transform="translate(-1592.74 -852.18)" fill="none" stroke="#564b37" stroke-linecap="round" stroke-linejoin="round" stroke-width="0.77" fill-rule="evenodd"/>
    </g>
    <g id="Gruppe_2841" data-name="Gruppe 2841" transform="translate(1202.181 6130.02)">
      <path id="Pfad_9142" data-name="Pfad 9142" d="M998.32,1393.584a.179.179,0,1,1,0-.359,11.36,11.36,0,0,0,7.315-3.266.179.179,0,1,1,.244.262,11.554,11.554,0,0,1-7.558,3.363h0Z" transform="translate(-993.81 -1389.34)" fill="#564b37"/>
      <path id="Pfad_9143" data-name="Pfad 9143" d="M973.126,1388.938a11.061,11.061,0,0,1-3.578-.615.179.179,0,0,1,.116-.339,9.5,9.5,0,0,0,9.7-1.812.179.179,0,1,1,.24.267,9.556,9.556,0,0,1-6.483,2.5Z" transform="translate(-969.427 -1386.125)" fill="#564b37"/>
    </g>
    <g id="Gruppe_2842" data-name="Gruppe 2842" transform="translate(1253.656 6082.746)">
      <path id="Pfad_9144" data-name="Pfad 9144" d="M1336.385,1085.382v.041a12.922,12.922,0,0,1-.1,1.629,12.7,12.7,0,0,1-1.378,4.352,12.5,12.5,0,0,1-.865,1.405,12.878,12.878,0,0,1-3.284,3.216,12.723,12.723,0,0,1-5.827,2.123,13.023,13.023,0,0,1-1.334.069c-.105,0-.213,0-.318,0a12.743,12.743,0,0,1-4.465-.92,12.571,12.571,0,0,1-1.509-.728,12.815,12.815,0,0,1-6.188-8.318,12.64,12.64,0,0,1-.266-1.722q-.047-.545-.047-1.1a12.772,12.772,0,0,1,.413-3.234,12.32,12.32,0,0,1,.564-1.675,12.791,12.791,0,0,1,2.3-3.64,12.437,12.437,0,0,1,1.282-1.24,12.757,12.757,0,0,1,3.7-2.176,12.869,12.869,0,0,1,6.01-.742,12.739,12.739,0,0,1,5.71,2.123,12.88,12.88,0,0,1,4.1,4.56,12.575,12.575,0,0,1,.7,1.552,12.745,12.745,0,0,1,.8,4.433Z" transform="translate(-1310.8 -1072.63)" fill="none" stroke="#1f1f39" stroke-miterlimit="10" stroke-width="17.29" opacity="0.55"/>
      <ellipse id="Ellipse_56" data-name="Ellipse 56" cx="7.03" cy="7.03" rx="7.03" ry="7.03" transform="translate(5.762 5.542)" fill="#fff"/>
    </g>
    <g id="Gruppe_2846" data-name="Gruppe 2846" transform="translate(1267.252 5938.398)">
      <g id="Gruppe_2844" data-name="Gruppe 2844">
        <path id="Pfad_9145" data-name="Pfad 9145" d="M1469.272,154.582a1.175,1.175,0,0,1-.728-1.129,30.263,30.263,0,0,0-.291-5.563,1.172,1.172,0,0,1,.632-1.217l4.691-2.369a1.178,1.178,0,0,0,.608-1.348q-.389-1.5-.9-2.943a1.179,1.179,0,0,0-1.221-.784l-5.361.5a1.173,1.173,0,0,1-1.165-.654,30.545,30.545,0,0,0-2.748-4.6,1.17,1.17,0,0,1,0-1.371l3.055-4.282a1.179,1.179,0,0,0-.086-1.473q-1.063-1.181-2.227-2.265a1.174,1.174,0,0,0-1.446-.128l-4.51,2.933a1.169,1.169,0,0,1-1.333-.039,30.479,30.479,0,0,0-4.393-2.705,1.171,1.171,0,0,1-.635-1.206l.718-5.234a1.177,1.177,0,0,0-.757-1.265q-1.518-.563-3.1-1a1.181,1.181,0,0,0-1.344.559l-2.645,4.718a1.173,1.173,0,0,1-1.155.594c-1.226-.137-3.554-.35-5.057-.389a1.176,1.176,0,0,1-1.074-.775l-1.814-5.02a1.18,1.18,0,0,0-1.251-.768q-1.647.2-3.257.537a1.18,1.18,0,0,0-.938,1.12l-.146,5.347a1.17,1.17,0,0,1-.8,1.08,30.09,30.09,0,0,0-4.561,1.944,1.169,1.169,0,0,1-1.335-.175l-3.94-3.6a1.183,1.183,0,0,0-1.457-.1q-1.373.93-2.657,1.978a1.177,1.177,0,0,0-.315,1.431l2.34,4.771a1.17,1.17,0,0,1-.214,1.336,30.707,30.707,0,0,0-3.2,3.844,1.167,1.167,0,0,1-1.256.457l-5.193-1.366a1.181,1.181,0,0,0-1.336.579c-.517.953-1,1.932-1.431,2.936a1.179,1.179,0,0,0,.385,1.422l4.282,3.133a1.177,1.177,0,0,1,.437,1.264c-.428,1.559-.873,3.877-1.084,5.071a1.179,1.179,0,0,1-.894.939l-5.284,1.215a1.176,1.176,0,0,0-.912,1.128q-.032,1.606.074,3.189a1.178,1.178,0,0,0,1,1.087l5.2.777a1.174,1.174,0,0,1,.982.954,30.359,30.359,0,0,0,1.4,5.139,1.177,1.177,0,0,1-.336,1.3l-4.08,3.5a1.179,1.179,0,0,0-.285,1.425q.7,1.384,1.508,2.7a1.176,1.176,0,0,0,1.39.5l4.962-1.727a1.172,1.172,0,0,1,1.315.391,30.535,30.535,0,0,0,3.767,4.058,1.176,1.176,0,0,1,.3,1.306l-1.983,4.99a1.181,1.181,0,0,0,.413,1.395q1.217.869,2.509,1.639a1.18,1.18,0,0,0,1.464-.207l3.593-3.839a1.172,1.172,0,0,1,1.344-.265,30.245,30.245,0,0,0,5.41,1.874,1.173,1.173,0,0,1,.887,1.015l.563,5.318a1.16,1.16,0,0,0,1,1.03h.011q1.47.192,2.927.265a1.179,1.179,0,0,0,1.2-.861l1.4-5.085a1.172,1.172,0,0,1,1.06-.858,30.193,30.193,0,0,0,5.762-.9,1.171,1.171,0,0,1,1.266.486l2.946,4.412a1.181,1.181,0,0,0,1.4.448q1.359-.516,2.669-1.134a1.182,1.182,0,0,0,.65-1.316l-1.128-5.186a1.173,1.173,0,0,1,.529-1.249,30.509,30.509,0,0,0,4.661-3.516,1.173,1.173,0,0,1,1.353-.164l4.638,2.526a1.174,1.174,0,0,0,1.448-.258q.964-1.1,1.84-2.269a1.179,1.179,0,0,0-.041-1.463l-3.425-4.085a1.175,1.175,0,0,1-.116-1.345,29.941,29.941,0,0,0,2.416-5.216,1.173,1.173,0,0,1,1.126-.783l5.255.084a1.18,1.18,0,0,0,1.164-.909q.425-1.83.675-3.734l.015-.118-5.8-2.384Zm-25.64-1.4a5.516,5.516,0,0,1-.131.68,5.409,5.409,0,0,1-.817,1.754,5.708,5.708,0,0,1-.44.543,5.457,5.457,0,0,1-1.556,1.172,5.206,5.206,0,0,1-.641.273,5.386,5.386,0,0,1-1.924.3,5.5,5.5,0,0,1-.564-.045c-.047-.006-.09-.012-.134-.02a5.429,5.429,0,0,1-1.828-.629,5.566,5.566,0,0,1-.594-.388,5.389,5.389,0,0,1-1.3-1.395,5.385,5.385,0,0,1-.847-2.44,5.034,5.034,0,0,1-.018-.739q.009-.231.041-.466a5.446,5.446,0,0,1,2.447-3.865,5.422,5.422,0,0,1,1.674-.712,5.838,5.838,0,0,1,.744-.124,5.5,5.5,0,0,1,1.208.023,5.316,5.316,0,0,1,1.327.345,5.381,5.381,0,0,1,1.571.974,5.48,5.48,0,0,1,1.478,2.14,5.64,5.64,0,0,1,.21.692,5.441,5.441,0,0,1,.1,1.908v.017Z" transform="translate(-1400.961 -115.352)" fill="#00628f"/>
        <path id="Pfad_9146" data-name="Pfad 9146" d="M1553.535,249.173l-.009.065a20.336,20.336,0,0,1-3.572,9.162,20.268,20.268,0,0,1-1.657,2.048,20.474,20.474,0,0,1-8.274,5.442,20.342,20.342,0,0,1-9.372.973q-.251-.032-.5-.072a20.292,20.292,0,0,1-6.878-2.372,19.857,19.857,0,0,1-2.241-1.463,20.532,20.532,0,0,1-6.222-7.627,20.25,20.25,0,0,1-1.933-9.586c.026-.582.075-1.169.152-1.758a20.455,20.455,0,0,1,1.316-5.035,20,20,0,0,1,1.237-2.536,20.368,20.368,0,0,1,4.39-5.29,19.889,19.889,0,0,1,2.283-1.7,20.326,20.326,0,0,1,13.651-3.063,20.783,20.783,0,0,1,2.319.436,20.328,20.328,0,0,1,8.6,4.533,20.228,20.228,0,0,1,1.942,1.978,20.5,20.5,0,0,1,3.615,6.081,20.1,20.1,0,0,1,.792,2.6,20.345,20.345,0,0,1,.364,7.182Z" transform="translate(-1495.983 -209.476)" fill="#00628f" opacity="0.25"/>
        <path id="Pfad_9147" data-name="Pfad 9147" d="M1552.3,239.158a20.411,20.411,0,0,0-10.28-9.129,20.15,20.15,0,0,0-2.681-.866,20.436,20.436,0,0,0-9.667-.059,20.387,20.387,0,0,0-15.524,17.246q-.115.884-.152,1.757a20.239,20.239,0,0,0,1.378,8.3c-.2-.357-.38-.718-.555-1.084a20.258,20.258,0,0,1-1.933-9.586q.038-.875.152-1.758a20.465,20.465,0,0,1,1.315-5.035,20.119,20.119,0,0,1,1.238-2.535,20.493,20.493,0,0,1,12.973-9.676,20.4,20.4,0,0,1,7.35-.378,20.346,20.346,0,0,1,2.318.437,20.665,20.665,0,0,1,2.681.866,20.472,20.472,0,0,1,11.389,11.5Z" transform="translate(-1495.995 -209.472)" fill="#00628f" opacity="0.25"/>
        <g id="Gruppe_2843" data-name="Gruppe 2843" transform="translate(49.178 62.326)">
          <path id="Pfad_9148" data-name="Pfad 9148" d="M1761.75,535.5a.156.156,0,0,1-.033-.309,12.686,12.686,0,0,0,7.187-5.344.156.156,0,1,1,.258.176,12.829,12.829,0,0,1-7.377,5.472A.135.135,0,0,1,1761.75,535.5Z" transform="translate(-1756.391 -529.615)" fill="#564b37"/>
          <path id="Pfad_9149" data-name="Pfad 9149" d="M1728.677,533.483a13.426,13.426,0,0,1-1.443-.08.157.157,0,1,1,.034-.312,10.629,10.629,0,0,0,10.153-4.344.157.157,0,1,1,.256.181,10.766,10.766,0,0,1-9,4.554Z" transform="translate(-1727.094 -528.68)" fill="#564b37"/>
        </g>
      </g>
      <g id="Gruppe_2845" data-name="Gruppe 2845" transform="translate(26.02 26.194)">
        <path id="Pfad_9150" data-name="Pfad 9150" d="M1595.776,301.637l0,.035a11.128,11.128,0,0,1-1.954,5.014,10.982,10.982,0,0,1-.908,1.12,11.234,11.234,0,0,1-3.206,2.417,11.13,11.13,0,0,1-5.285,1.184,11.32,11.32,0,0,1-1.164-.09c-.092-.012-.184-.026-.274-.039a11.116,11.116,0,0,1-3.764-1.3,10.877,10.877,0,0,1-1.226-.8,11.221,11.221,0,0,1-2.678-2.87,11.1,11.1,0,0,1-1.784-6.549q.021-.477.083-.962a11.171,11.171,0,0,1,10.029-9.688,11.274,11.274,0,0,1,2.487.045,11.135,11.135,0,0,1,1.268.238,11.316,11.316,0,0,1,1.467.473,11.2,11.2,0,0,1,6.281,6.416,10.852,10.852,0,0,1,.433,1.423,11.164,11.164,0,0,1,.2,3.93Z" transform="translate(-1573.517 -289.061)" fill="none" stroke="#1f1f39" stroke-miterlimit="10" stroke-width="15.1" opacity="0.55"/>
        <circle id="Ellipse_57" data-name="Ellipse 57" cx="6.139" cy="6.139" r="6.139" transform="translate(2.553 11.785) rotate(-50.31)" fill="#fff"/>
      </g>
    </g>
    <g id="Gruppe_2847" data-name="Gruppe 2847" transform="translate(1292.846 6031.23)">
      <path id="Pfad_9151" data-name="Pfad 9151" d="M1587.667,739.449v.027a8.454,8.454,0,0,1-.983,3.967,8.21,8.21,0,0,1-.574.933,8.5,8.5,0,0,1-3.12,2.686,8.439,8.439,0,0,1-2.925.857,8.594,8.594,0,0,1-.885.045c-.071,0-.14,0-.211,0a8.444,8.444,0,0,1-2.962-.611,8.3,8.3,0,0,1-1-.483,8.54,8.54,0,0,1-2.3-1.9,8.667,8.667,0,0,1-.676-.911,8.427,8.427,0,0,1-1.31-3.847q-.032-.362-.032-.733a8.529,8.529,0,0,1,.273-2.146,8.5,8.5,0,0,1,5.205-5.793,8.433,8.433,0,0,1,3.008-.549,8.739,8.739,0,0,1,.979.056,8.482,8.482,0,0,1,7.509,8.407Z" transform="translate(-1570.69 -730.99)" fill="none" stroke="#1f1f39" stroke-miterlimit="10" stroke-width="11.47" opacity="0.55"/>
      <circle id="Ellipse_58" data-name="Ellipse 58" cx="4.664" cy="4.664" r="4.664" transform="translate(1.894 8.339) rotate(-45)" fill="#fff"/>
    </g>
    <g id="Gruppe_2851" data-name="Gruppe 2851" transform="translate(1305.417 6059.615)">
      <ellipse id="Ellipse_59" data-name="Ellipse 59" cx="8.72" cy="8.72" rx="8.72" ry="8.72" transform="translate(16.339 22.959) rotate(-22.5)" fill="#382528"/>
      <g id="Gruppe_2848" data-name="Gruppe 2848">
        <path id="Pfad_9152" data-name="Pfad 9152" d="M1704.99,945.48a.877.877,0,0,1-.648-.768,22.653,22.653,0,0,0-.751-4.1.877.877,0,0,1,.351-.964l3.25-2.208a.879.879,0,0,0,.321-1.057q-.432-1.072-.948-2.1a.882.882,0,0,0-.981-.464l-3.925.888a.876.876,0,0,1-.927-.374,22.831,22.831,0,0,0-2.479-3.144.877.877,0,0,1-.136-1.016l1.853-3.468a.879.879,0,0,0-.205-1.083q-.9-.774-1.868-1.464a.877.877,0,0,0-1.084.044l-3.063,2.609a.873.873,0,0,1-.992.1,22.775,22.775,0,0,0-3.516-1.583.875.875,0,0,1-.587-.834l.029-3.949a.88.88,0,0,0-.683-.866q-1.181-.271-2.395-.445a.883.883,0,0,0-.943.544l-1.506,3.752a.877.877,0,0,1-.8.552c-.923.017-2.669.083-3.786.2a.881.881,0,0,1-.872-.472l-1.828-3.547a.884.884,0,0,0-1-.449q-1.2.305-2.363.712a.883.883,0,0,0-.588.921l.406,3.978a.875.875,0,0,1-.489.878,22.546,22.546,0,0,0-3.194,1.879.875.875,0,0,1-1.007,0l-3.266-2.29a.88.88,0,0,0-1.089.063q-.929.821-1.779,1.722a.879.879,0,0,0-.1,1.09l2.194,3.311a.875.875,0,0,1-.03,1.012,22.9,22.9,0,0,0-2,3.156.875.875,0,0,1-.888.46l-3.981-.514a.882.882,0,0,0-.935.558q-.439,1.135-.78,2.315a.882.882,0,0,0,.422,1.018L1658.88,942a.882.882,0,0,1,.446.9c-.167,1.2-.274,2.959-.317,3.863a.881.881,0,0,1-.573.783l-3.8,1.408a.88.88,0,0,0-.569.924q.131,1.194.362,2.357a.882.882,0,0,0,.847.71l3.933.075a.878.878,0,0,1,.82.614,22.792,22.792,0,0,0,1.529,3.675.881.881,0,0,1-.125.994l-2.688,2.99a.879.879,0,0,0-.074,1.083q.651.959,1.377,1.858a.878.878,0,0,0,1.078.235l3.512-1.757a.878.878,0,0,1,1.013.163,22.867,22.867,0,0,0,3.182,2.646.879.879,0,0,1,.351.939l-.991,3.889a.884.884,0,0,0,.44,1q.986.527,2.018.974a.88.88,0,0,0,1.064-.294l2.3-3.191a.876.876,0,0,1,.971-.326,22.652,22.652,0,0,0,4.19.87.878.878,0,0,1,.756.668l.929,3.889a.867.867,0,0,0,.84.668h.007q1.109,0,2.2-.086a.881.881,0,0,0,.8-.754l.551-3.9a.876.876,0,0,1,.7-.739,22.659,22.659,0,0,0,4.185-1.22.876.876,0,0,1,.986.238l2.609,2.989a.88.88,0,0,0,1.078.2q.959-.513,1.87-1.1a.884.884,0,0,0,.356-1.039l-1.335-3.735a.877.877,0,0,1,.273-.977,22.8,22.8,0,0,0,3.117-3.055.876.876,0,0,1,.988-.252l3.681,1.426a.877.877,0,0,0,1.048-.33q.608-.907,1.144-1.859a.88.88,0,0,0-.17-1.08l-2.931-2.7a.878.878,0,0,1-.216-.986,22.279,22.279,0,0,0,1.289-4.1.879.879,0,0,1,.76-.689l3.9-.443a.884.884,0,0,0,.777-.787,28.352,28.352,0,0,0,.142-2.833v-.089l-4.53-1.209Zm-19.143,1.431a4.155,4.155,0,0,1-.032.517,4.03,4.03,0,0,1-.437,1.378,4.386,4.386,0,0,1-.274.445,4.067,4.067,0,0,1-1.041,1.018,3.925,3.925,0,0,1-.449.264,4.05,4.05,0,0,1-1.4.41c-.139.013-.281.021-.422.021h-.1a4.033,4.033,0,0,1-1.414-.291,4.233,4.233,0,0,1-.478-.231,4.012,4.012,0,0,1-1.1-.909,4.022,4.022,0,0,1-.864-1.727,3.847,3.847,0,0,1-.084-.546c-.011-.115-.015-.231-.015-.35a4.059,4.059,0,0,1,2.616-3.791,4.025,4.025,0,0,1,1.438-.262,4.366,4.366,0,0,1,.468.026,4.432,4.432,0,0,1,.55.1,4,4,0,0,1,1.258.572,3.927,3.927,0,0,1,.433.339,4.037,4.037,0,0,1,1.345,3v.012Z" transform="translate(-1654.063 -919.234)" fill="#5d5d6d"/>
        <path id="Pfad_9153" data-name="Pfad 9153" d="M1767.277,1016.766v.048a15.213,15.213,0,0,1-1.767,7.135,14.908,14.908,0,0,1-1.033,1.677,15.289,15.289,0,0,1-5.611,4.83,15.157,15.157,0,0,1-5.261,1.54,15.409,15.409,0,0,1-1.592.081c-.126,0-.253,0-.378,0a15.235,15.235,0,0,1-14.829-13.942q-.056-.651-.056-1.318a15.343,15.343,0,0,1,.492-3.859,15.028,15.028,0,0,1,.672-2,15.228,15.228,0,0,1,2.746-4.343,14.772,14.772,0,0,1,1.529-1.479,15.186,15.186,0,0,1,9.826-3.583,15.222,15.222,0,0,1,3.832.484,15.246,15.246,0,0,1,4.742,2.147,15.041,15.041,0,0,1,1.63,1.28,15.279,15.279,0,0,1,3.263,4.162,15.166,15.166,0,0,1,1.8,7.141Z" transform="translate(-1724.281 -989.137)" fill="#1f1f39" opacity="0.25"/>
        <path id="Pfad_9154" data-name="Pfad 9154" d="M1765.394,1009.455a15.226,15.226,0,0,0-10.569-6.163,15.217,15.217,0,0,0-11.585,3.483,15.212,15.212,0,0,0-5.439,11.68q0,.667.056,1.316a15.14,15.14,0,0,0,1.82,6.021q-.269-.369-.516-.751a15.172,15.172,0,0,1-2.039-4.868,15.367,15.367,0,0,1-.317-2.052q-.056-.654-.056-1.318a15.281,15.281,0,0,1,.492-3.859,14.993,14.993,0,0,1,.674-2,15.317,15.317,0,0,1,8.687-8.42,15.45,15.45,0,0,1,2.034-.612,15.281,15.281,0,0,1,16.756,7.538Z" transform="translate(-1724.281 -989.129)" fill="#1f1f39" opacity="0.25"/>
      </g>
      <g id="Gruppe_2849" data-name="Gruppe 2849" transform="translate(21.568 55.61)">
        <path id="Pfad_9155" data-name="Pfad 9155" d="M1803.754,1295.956a11.677,11.677,0,0,1-6.552-2.275.258.258,0,1,1,.3-.422,10.708,10.708,0,0,0,7.256,2.114.257.257,0,1,1,.069.51,7.822,7.822,0,0,1-1.071.071Z" transform="translate(-1797.092 -1292.43)" fill="#564b37"/>
        <path id="Pfad_9156" data-name="Pfad 9156" d="M1813.687,1290.115a9.174,9.174,0,0,1-5.2-1.621.257.257,0,1,1,.29-.425,8.95,8.95,0,0,0,9.293.443.257.257,0,1,1,.231.46,10.243,10.243,0,0,1-4.614,1.143Z" transform="translate(-1806.673 -1288.024)" fill="#564b37"/>
      </g>
      <g id="Gruppe_2850" data-name="Gruppe 2850" transform="translate(18.465 18.488)">
        <path id="Pfad_9157" data-name="Pfad 9157" d="M1795.247,1051.172v.03a9.411,9.411,0,0,1-.075,1.191,9.31,9.31,0,0,1-1.642,4.213,9.335,9.335,0,0,1-7.645,3.958c-.077,0-.155,0-.232,0a9.343,9.343,0,0,1-4.373-1.206,9.407,9.407,0,0,1-3.28-3.1,9.315,9.315,0,0,1-1.25-2.984,9.416,9.416,0,0,1-.194-1.259c-.023-.267-.035-.535-.035-.808a9.425,9.425,0,0,1,.3-2.367,9.142,9.142,0,0,1,.413-1.226,9.376,9.376,0,0,1,9.729-5.708,9.51,9.51,0,0,1,1.27.235,9.281,9.281,0,0,1,2.909,1.318,8.96,8.96,0,0,1,1,.786,9.381,9.381,0,0,1,2,2.553,9.167,9.167,0,0,1,.514,1.135,9.337,9.337,0,0,1,.588,3.245Z" transform="translate(-1776.52 -1041.84)" fill="none" stroke="#1f1f39" stroke-miterlimit="10" stroke-width="12.66" opacity="0.55"/>
        <ellipse id="Ellipse_60" data-name="Ellipse 60" cx="5.104" cy="5.104" rx="5.104" ry="5.104" transform="translate(4.258 4.257)" fill="#fff"/>
      </g>
    </g>
    <g id="Gruppe_2852" data-name="Gruppe 2852" transform="translate(1195.85 6100.199)">
      <path id="Pfad_9158" data-name="Pfad 9158" d="M942.026,1195.641v.023a7.281,7.281,0,0,1-.844,3.409,7.143,7.143,0,0,1-.493.8,7.312,7.312,0,0,1-1.873,1.834,7.08,7.08,0,0,1-.808.474,7.263,7.263,0,0,1-2.514.736,7.457,7.457,0,0,1-.76.039c-.06,0-.121,0-.181,0a7.256,7.256,0,0,1-2.545-.525,7.081,7.081,0,0,1-.861-.415,7.309,7.309,0,0,1-1.974-1.633,7.544,7.544,0,0,1-.581-.782,7.22,7.22,0,0,1-1.125-3.307q-.027-.312-.027-.629a7.3,7.3,0,0,1,9.123-7.061,7.208,7.208,0,0,1,2.265,1.027,7.437,7.437,0,0,1,.78.611,7.287,7.287,0,0,1,1.559,1.989,6.986,6.986,0,0,1,.4.885,7.277,7.277,0,0,1,.458,2.527Z" transform="translate(-927.44 -1188.37)" fill="none" stroke="#1f1f39" stroke-miterlimit="10" stroke-width="9.86" opacity="0.55"/>
      <ellipse id="Ellipse_61" data-name="Ellipse 61" cx="3.976" cy="3.976" rx="3.976" ry="3.976" transform="matrix(0.159, -0.987, 0.987, 0.159, 2.732, 10.583)" fill="#fff"/>
    </g>
    <g id="Gruppe_2855" data-name="Gruppe 2855" transform="translate(1327.438 5999.096)">
      <path id="Pfad_9159" data-name="Pfad 9159" d="M1864.84,555.8a1.111,1.111,0,0,1-.667-1.086,28.73,28.73,0,0,0-.163-5.281,1.113,1.113,0,0,1,.623-1.142l4.5-2.152a1.116,1.116,0,0,0,.6-1.267q-.339-1.425-.792-2.809a1.119,1.119,0,0,0-1.143-.769l-5.094.368a1.11,1.11,0,0,1-1.092-.645,29.047,29.047,0,0,0-2.512-4.417,1.111,1.111,0,0,1,.022-1.3l2.984-4a1.117,1.117,0,0,0-.051-1.4q-.984-1.14-2.066-2.193a1.115,1.115,0,0,0-1.369-.151l-4.337,2.69a1.107,1.107,0,0,1-1.262-.063,28.918,28.918,0,0,0-4.112-2.655,1.11,1.11,0,0,1-.577-1.156l.786-4.949a1.117,1.117,0,0,0-.692-1.215q-1.43-.565-2.919-1.012a1.119,1.119,0,0,0-1.285.5l-2.6,4.421a1.109,1.109,0,0,1-1.107.54c-1.16-.154-3.364-.4-4.788-.472a1.115,1.115,0,0,1-1-.757l-1.62-4.8a1.12,1.12,0,0,0-1.172-.754q-1.568.154-3.1.443a1.12,1.12,0,0,0-.912,1.044l-.247,5.068a1.111,1.111,0,0,1-.78,1.007,28.589,28.589,0,0,0-4.364,1.751,1.108,1.108,0,0,1-1.262-.193l-3.663-3.494a1.119,1.119,0,0,0-1.378-.128q-1.321.853-2.561,1.823a1.118,1.118,0,0,0-.329,1.351l2.123,4.572a1.109,1.109,0,0,1-.229,1.262,29.1,29.1,0,0,0-3.111,3.58,1.111,1.111,0,0,1-1.2.409l-4.9-1.4a1.119,1.119,0,0,0-1.279.522c-.51.894-.985,1.813-1.417,2.757a1.117,1.117,0,0,0,.336,1.356l4,3.058a1.115,1.115,0,0,1,.389,1.208c-.437,1.469-.906,3.658-1.131,4.788a1.119,1.119,0,0,1-.867.873l-5.035,1.045a1.115,1.115,0,0,0-.888,1.051c-.042,1.015-.039,2.025.006,3.025a1.118,1.118,0,0,0,.927,1.051l4.92.841a1.116,1.116,0,0,1,.912.926,28.665,28.665,0,0,0,1.221,4.9,1.118,1.118,0,0,1-.345,1.221l-3.94,3.24a1.117,1.117,0,0,0-.3,1.345q.636,1.325,1.375,2.592a1.114,1.114,0,0,0,1.309.5l4.741-1.537a1.113,1.113,0,0,1,1.24.4,28.991,28.991,0,0,0,3.489,3.924,1.113,1.113,0,0,1,.262,1.244L1813.969,580a1.121,1.121,0,0,0,.364,1.332q1.135.848,2.346,1.6a1.119,1.119,0,0,0,1.392-.166l3.485-3.568a1.111,1.111,0,0,1,1.279-.225,28.617,28.617,0,0,0,5.092,1.886,1.11,1.11,0,0,1,.82.98l.425,5.056a1.1,1.1,0,0,0,.926,1h.009q1.389.213,2.77.311a1.117,1.117,0,0,0,1.151-.793l1.431-4.794a1.113,1.113,0,0,1,1.022-.793,28.722,28.722,0,0,0,5.481-.736,1.11,1.11,0,0,1,1.191.486l2.705,4.245a1.12,1.12,0,0,0,1.316.452q1.3-.461,2.554-1.021a1.123,1.123,0,0,0,.644-1.235l-.965-4.94a1.112,1.112,0,0,1,.528-1.173,29,29,0,0,0,4.492-3.239,1.111,1.111,0,0,1,1.286-.128l4.347,2.49a1.115,1.115,0,0,0,1.378-.214q.935-1.022,1.79-2.116a1.117,1.117,0,0,0-.009-1.387l-3.164-3.943a1.114,1.114,0,0,1-.083-1.277,28.4,28.4,0,0,0,2.4-4.9,1.115,1.115,0,0,1,1.084-.719l4.982.186a1.121,1.121,0,0,0,1.123-.84q.441-1.726.716-3.527l.017-.112-5.452-2.378Zm-24.288-1.841a5.573,5.573,0,0,1-.137.642,5.164,5.164,0,0,1-.81,1.647,5.7,5.7,0,0,1-.428.505,5.151,5.151,0,0,1-3.945,1.574c-.176-.009-.356-.027-.534-.054-.044-.006-.084-.014-.127-.021a5.13,5.13,0,0,1-1.72-.633,5.388,5.388,0,0,1-.555-.38,5.141,5.141,0,0,1-1.2-1.348,5.079,5.079,0,0,1-.323-.606,5.024,5.024,0,0,1-.433-1.725,4.955,4.955,0,0,1,0-.7c.009-.146.026-.293.048-.442a5.129,5.129,0,0,1,.359-1.261,5,5,0,0,1,.324-.632,5.128,5.128,0,0,1,1.134-1.307,5,5,0,0,1,.583-.416,5.15,5.15,0,0,1,1.6-.641,5.308,5.308,0,0,1,.707-.1,5.242,5.242,0,0,1,1.146.045,5.652,5.652,0,0,1,.58.121,5.355,5.355,0,0,1,.671.234,5.1,5.1,0,0,1,1.47.956,4.777,4.777,0,0,1,.478.508,5.186,5.186,0,0,1,.879,1.55,5.163,5.163,0,0,1,.237,2.47Z" transform="translate(-1800.101 -517.884)" fill="#5d5d6d"/>
      <path id="Pfad_9160" data-name="Pfad 9160" d="M1944.708,645.8l-.009.062a19.331,19.331,0,0,1-3.574,8.616,19.182,19.182,0,0,1-1.614,1.909,19.438,19.438,0,0,1-7.956,4.994,19.248,19.248,0,0,1-6.893.933,19.975,19.975,0,0,1-2.013-.2c-.158-.024-.317-.05-.475-.078a19.286,19.286,0,0,1-6.475-2.388,18.936,18.936,0,0,1-2.094-1.433,19.313,19.313,0,0,1-7.387-16.487q.054-.828.179-1.663a19.362,19.362,0,0,1,1.351-4.747,19.053,19.053,0,0,1,1.223-2.381,19.336,19.336,0,0,1,19.475-9.123,19.577,19.577,0,0,1,2.191.46,19.277,19.277,0,0,1,8.066,4.472,19.335,19.335,0,0,1,6,17.056Z" transform="translate(-1890.183 -607.651)" fill="#1f1f39" opacity="0.25"/>
      <path id="Pfad_9161" data-name="Pfad 9161" d="M1943.726,636.263a19.271,19.271,0,0,0-2.221-3.354,19.49,19.49,0,0,0-1.8-1.917,19.416,19.416,0,0,0-14.565-5.1,19.615,19.615,0,0,0-2.669.381,19.338,19.338,0,0,0-15.072,16.04q-.127.837-.181,1.663a18.968,18.968,0,0,0,.007,2.637,19.2,19.2,0,0,0,1.132,5.263c-.178-.342-.347-.689-.5-1.039a19.243,19.243,0,0,1-1.633-6.493,19.67,19.67,0,0,1-.008-2.634c.036-.553.1-1.107.181-1.665a19.43,19.43,0,0,1,1.35-4.748,19.132,19.132,0,0,1,1.224-2.379,19.432,19.432,0,0,1,12.5-8.913,19.482,19.482,0,0,1,11.692,1.125,19.428,19.428,0,0,1,10.569,11.134Z" transform="translate(-1890.178 -607.634)" fill="#1f1f39" opacity="0.25"/>
      <g id="Gruppe_2853" data-name="Gruppe 2853" transform="translate(54.214 3.791)">
        <path id="Pfad_9162" data-name="Pfad 9162" d="M2217.873,553.166a.218.218,0,0,1-.2-.139c-1.751-4.374-4.821-7.944-8.21-9.547a.22.22,0,0,1,.187-.4c3.541,1.674,6.614,5.24,8.431,9.782a.22.22,0,0,1-.122.286.226.226,0,0,1-.082.017Z" transform="translate(-2201.838 -543.056)" fill="#564b37"/>
        <path id="Pfad_9163" data-name="Pfad 9163" d="M2172.617,552.686a.222.222,0,0,1-.2-.136,14.944,14.944,0,0,0-12.586-9.09.22.22,0,0,1,.048-.437,15.367,15.367,0,0,1,12.944,9.357.22.22,0,0,1-.118.288.208.208,0,0,1-.084.017Z" transform="translate(-2159.631 -543.022)" fill="#564b37"/>
      </g>
      <g id="Gruppe_2854" data-name="Gruppe 2854" transform="translate(24.382 23.736)">
        <path id="Pfad_9164" data-name="Pfad 9164" d="M1984.315,687.294l0,.036a11.581,11.581,0,0,1-.187,1.425,11.222,11.222,0,0,1-2.316,4.926,11.316,11.316,0,0,1-4.374,3.278,11.2,11.2,0,0,1-3.952.872,11.421,11.421,0,0,1-1.178-.02c-.093-.006-.187-.014-.279-.023a11.211,11.211,0,0,1-3.869-1.075,11.032,11.032,0,0,1-1.283-.73,11.276,11.276,0,0,1-2.873-2.725,11.41,11.41,0,0,1-.813-1.268,11.21,11.21,0,0,1-1.258-3.687,11.382,11.382,0,0,1-.131-1.529c-.006-.321,0-.647.024-.974a11.337,11.337,0,0,1,.555-2.818,11.062,11.062,0,0,1,.6-1.438,11.274,11.274,0,0,1,2.239-3.062,10.988,10.988,0,0,1,1.2-1.013,11.221,11.221,0,0,1,7.417-2.149,11.69,11.69,0,0,1,1.292.161,11.239,11.239,0,0,1,6.028,3.231,11.223,11.223,0,0,1,3.164,8.578Z" transform="translate(-1961.797 -675.292)" fill="none" stroke="#1f1f39" stroke-miterlimit="10" stroke-width="15.24" opacity="0.55"/>
        <circle id="Ellipse_62" data-name="Ellipse 62" cx="6.145" cy="6.145" r="6.145" transform="translate(2.992 13.913) rotate(-62.65)" fill="#fff"/>
      </g>
    </g>
    <path id="Pfad_9165" data-name="Pfad 9165" d="M2163.49,1187.551a45.087,45.087,0,0,1-15.185-1.455,3.454,3.454,0,0,1-2.131-1.233,3.782,3.782,0,0,1,.3-4.148,3.623,3.623,0,0,1,3.358-1.242,4.855,4.855,0,0,0,2.293.086c.925-.341,1.538-1.417,2.158-2.355s1.46-1.865,2.416-1.719c.717.11,1.28.8,1.918,1.228a1.253,1.253,0,0,0,1.928-.317c.783-1.695-.315-6.344,3.712-6.344,5.815,0,4.865,4.679,5.564,5.671,1.062,1.5,2.949,1.173,4.486.665s3.367-.992,4.552.353c1.029,1.167,1.134,3.307,2.228,4.373,1.164,1.136,2.816.529,4.227.02s3.228-.7,4.046.852a3.8,3.8,0,0,1-.8,4.136,5.331,5.331,0,0,1-3.489,1.279c-7.965.615-15.2-.341-21.583.152Z" transform="translate(-766.138 4927.387)" fill="#e6eff1" opacity="0.92"/>
    <path id="Pfad_9166" data-name="Pfad 9166" d="M564.794,573.372c2.094,0,6.4,3.869.247,4.489s-15.369.335-19.1.348c-6.087.021-7.6-.238-7.549-2.827.029-1.5.823-4.632,4.032-5.026,3.339-.409,1.158,2.55,5.234,2.667,3.471.1,4.07-3.42,7.461-3.479,4.012-.069,3.277,3.74,5.6,4.359C563.273,574.586,562.7,573.372,564.794,573.372Z" transform="translate(598.792 5437.342)" fill="#e6eff1"/>
    <g id="Gruppe_2861" data-name="Gruppe 2861" transform="translate(1239.272 6067.932)">
      <path id="Pfad_9167" data-name="Pfad 9167" d="M1270.411,1001.667c0,15.07-12.644,27.289-27.712,27.289a27.293,27.293,0,0,1-9.031-53.047q.455-.161.917-.3a26.824,26.824,0,0,1,3.1-.765,27.423,27.423,0,0,1,3.734-.433h.008c.308-.013.618-.021.929-.026l.164,0,.182,0a27.726,27.726,0,0,1,27.712,27.289Z" transform="translate(-1215.41 -974.38)" fill="#307ea2"/>
      <path id="Pfad_9168" data-name="Pfad 9168" d="M1289.211,1023.753c0,11.272-8.494,20.676-19.239,22.876a23.852,23.852,0,0,1-4.8.489,23.364,23.364,0,1,1,0-46.729,24.049,24.049,0,0,1,8.877,1.705h0C1282.792,1005.567,1289.211,1013.957,1289.211,1023.753Z" transform="translate(-1237.829 -996.468)" fill="#fff"/>
      <g id="Gruppe_2859" data-name="Gruppe 2859" transform="translate(4.522 4.459)" opacity="0.74">
        <path id="Pfad_9169" data-name="Pfad 9169" d="M1394.156,1007.675h0a.856.856,0,0,1-.856-.857v-2.012a.856.856,0,0,1,.856-.857h0a.856.856,0,0,1,.857.857v2.012A.856.856,0,0,1,1394.156,1007.675Z" transform="translate(-1370.998 -1003.95)" fill="#0267a4"/>
        <path id="Pfad_9170" data-name="Pfad 9170" d="M1394.156,1286.134h0a.856.856,0,0,1-.856-.856v-2.012a.856.856,0,0,1,.856-.856h0a.856.856,0,0,1,.857.856v2.012A.856.856,0,0,1,1394.156,1286.134Z" transform="translate(-1370.998 -1240.421)" fill="#0267a4"/>
        <path id="Pfad_9171" data-name="Pfad 9171" d="M1526.02,1150.506h0a.856.856,0,0,1,.856-.856h2.011a.856.856,0,0,1,.857.856h0a.856.856,0,0,1-.857.857h-2.011A.856.856,0,0,1,1526.02,1150.506Z" transform="translate(-1483.705 -1127.68)" fill="#0267a4"/>
        <path id="Pfad_9172" data-name="Pfad 9172" d="M1245.4,1144.836h0a.856.856,0,0,1,.856-.856h2.012a.856.856,0,0,1,.857.856h0a.856.856,0,0,1-.857.857h-2.012A.856.856,0,0,1,1245.4,1144.836Z" transform="translate(-1245.4 -1122.865)" fill="#0267a4"/>
        <g id="Gruppe_2856" data-name="Gruppe 2856" transform="translate(2.861 2.739)">
          <path id="Pfad_9173" data-name="Pfad 9173" d="M1319.006,1022.232h0a.856.856,0,0,1,1.17.314l1.006,1.742a.856.856,0,0,1-.314,1.17h0a.856.856,0,0,1-1.17-.314l-1.006-1.742A.856.856,0,0,1,1319.006,1022.232Z" transform="translate(-1310.404 -1022.117)" fill="#0267a4"/>
          <path id="Pfad_9174" data-name="Pfad 9174" d="M1264.51,1074.2h0a.856.856,0,0,1,1.184-.256l1.692,1.089a.856.856,0,0,1,.256,1.184h0a.856.856,0,0,1-1.184.256l-1.692-1.089A.856.856,0,0,1,1264.51,1074.2Z" transform="translate(-1264.373 -1066.01)" fill="#0267a4"/>
        </g>
        <g id="Gruppe_2857" data-name="Gruppe 2857" transform="translate(32.403 3.234)">
          <path id="Pfad_9175" data-name="Pfad 9175" d="M1462.578,1025.512h0a.856.856,0,0,0-1.17.314l-1.006,1.742a.856.856,0,0,0,.314,1.17h0a.856.856,0,0,0,1.17-.313l1.006-1.742A.856.856,0,0,0,1462.578,1025.512Z" transform="translate(-1460.287 -1025.397)" fill="#0267a4"/>
          <path id="Pfad_9176" data-name="Pfad 9176" d="M1513.212,1077.476h0a.856.856,0,0,0-1.184-.256l-1.692,1.089a.856.856,0,0,0-.256,1.184h0a.856.856,0,0,0,1.184.256l1.692-1.089A.856.856,0,0,0,1513.212,1077.476Z" transform="translate(-1502.456 -1069.29)" fill="#0267a4"/>
        </g>
        <g id="Gruppe_2858" data-name="Gruppe 2858" transform="translate(31.967 32.319)">
          <path id="Pfad_9177" data-name="Pfad 9177" d="M1459.688,1268.988h0a.856.856,0,0,1-1.17-.314l-1.006-1.742a.856.856,0,0,1,.314-1.17h0a.856.856,0,0,1,1.17.314l1.006,1.742A.856.856,0,0,1,1459.688,1268.988Z" transform="translate(-1457.397 -1258.505)" fill="#0267a4"/>
          <path id="Pfad_9178" data-name="Pfad 9178" d="M1510.322,1220.692h0a.856.856,0,0,1-1.184.256l-1.692-1.089a.856.856,0,0,1-.256-1.184h0a.856.856,0,0,1,1.184-.256l1.692,1.089A.856.856,0,0,1,1510.322,1220.692Z" transform="translate(-1499.566 -1218.283)" fill="#0267a4"/>
        </g>
        <path id="Pfad_9179" data-name="Pfad 9179" d="M1311.456,1265.458h0a.856.856,0,0,0,1.17-.314l1.006-1.742a.856.856,0,0,0-.314-1.17h0a.856.856,0,0,0-1.17.314l-1.006,1.742A.856.856,0,0,0,1311.456,1265.458Z" transform="translate(-1301.131 -1223.188)" fill="#0267a4"/>
        <path id="Pfad_9180" data-name="Pfad 9180" d="M1262.55,1214.553h0a.856.856,0,0,0,1.184.256l1.692-1.089a.856.856,0,0,0,.256-1.184h0a.856.856,0,0,0-1.184-.256l-1.692,1.089A.856.856,0,0,0,1262.55,1214.553Z" transform="translate(-1259.848 -1180.75)" fill="#0267a4"/>
      </g>
      <path id="Pfad_9181" data-name="Pfad 9181" d="M1447.809,1033.367c0,11.272-8.494,20.676-19.239,22.876,5.039-1.852,18.054-8.257,17.481-22.876-.528-13.449-7.187-17.349-13.4-21.657C1441.39,1015.18,1447.809,1023.57,1447.809,1033.367Z" transform="translate(-1396.428 -1006.081)" fill="#056291"/>
      <g id="Gruppe_2860" data-name="Gruppe 2860" transform="translate(16.427 11.677)">
        <path id="Pfad_9182" data-name="Pfad 9182" d="M1334.346,1116.444c-3.057-1.867-7.481-4.052-8.532-5.293-.463-.547-1.742-2.363-1.41-2.732.309-.344,3.1-.012,3.6.442s7.283,6.042,7.276,6.54S1334.346,1116.444,1334.346,1116.444Z" transform="translate(-1324.35 -1099.764)" fill="#3b3b4c"/>
        <path id="Pfad_9183" data-name="Pfad 9183" d="M1392.96,1067.846c3.815-4.679,8.705-11.247,10.753-13.1.9-.816,3.767-3.186,4.055-2.907.267.259-1.532,3.981-2.342,4.813s-11.047,11.789-11.655,11.98-.811-.789-.811-.789Z" transform="translate(-1382.614 -1051.82)" fill="#3b3b4c"/>
        <circle id="Ellipse_63" data-name="Ellipse 63" cx="2.018" cy="2.018" r="2.018" transform="translate(8.016 17.017) rotate(-67.5)" fill="#3b3b4c"/>
      </g>
    </g>
    <g id="Gruppe_2877" data-name="Gruppe 2877" transform="translate(1273.839 5951.486)">
      <g id="Gruppe_2863" data-name="Gruppe 2863" transform="translate(7.425)">
        <path id="Pfad_9184" data-name="Pfad 9184" d="M1601.8,202.869c8.989-2.189,25.168-.122,29.579,17.121,3.868,15.12-4.735,27.693-19.469,30.286-16.988,2.99-10.112-47.407-10.112-47.407Z" transform="translate(-1584.359 -202.153)" fill="#3b3b4c"/>
        <g id="Gruppe_2862" data-name="Gruppe 2862" transform="translate(0 0.004)">
          <path id="Pfad_9185" data-name="Pfad 9185" d="M1539.993,220.558a25.063,25.063,0,0,1,.787,6.152,23.554,23.554,0,0,1-17.445,23.1,22.681,22.681,0,0,1-11.863-.163q-.853-.242-1.686-.55c-.023-.008-.044-.015-.065-.024a23.559,23.559,0,0,1-2.535-1.119c-.056-.029-.112-.057-.167-.087-.36-.187-.713-.385-1.063-.591l-.036-.021c-.564-.333-1.116-.692-1.651-1.072l-.038-.027c-.041-.029-.081-.057-.121-.087-.149-.107-.3-.216-.442-.326-.024-.017-.047-.036-.074-.056l-.026-.02a24.032,24.032,0,0,1-2.4-2.1l-.142-.142c-.13-.131-.258-.264-.383-.4-.015-.015-.03-.032-.045-.048a24.775,24.775,0,0,1-5.92-10.837,24.251,24.251,0,0,1,8.208-25.075,22.742,22.742,0,0,1,14.135-4.89h0a22.6,22.6,0,0,1,3.155.231,23.751,23.751,0,0,1,14,7.425h0a24.765,24.765,0,0,1,5.813,10.721Z" transform="translate(-1493.889 -202.18)" fill="#fff"/>
          <path id="Pfad_9186" data-name="Pfad 9186" d="M1559.593,246.025a20.488,20.488,0,0,1,.645,5.048,19.329,19.329,0,0,1-14.316,18.96c-10.27,2.627-20.8-3.865-23.52-14.5s3.4-21.382,13.671-24.009a19.094,19.094,0,0,1,18.751,5.7h0a20.338,20.338,0,0,1,4.771,8.8Z" transform="translate(-1517.554 -226.606)" fill="#3b3b4c"/>
          <ellipse id="Ellipse_64" data-name="Ellipse 64" cx="14.652" cy="15.171" rx="14.652" ry="15.171" transform="matrix(0.969, -0.249, 0.249, 0.969, 5.476, 13.143)" fill="#74a1bb"/>
          <ellipse id="Ellipse_65" data-name="Ellipse 65" cx="10.13" cy="10.489" rx="10.13" ry="10.489" transform="matrix(0.969, -0.249, 0.249, 0.969, 11.021, 16.554)" fill="#cd2b31"/>
          <ellipse id="Ellipse_66" data-name="Ellipse 66" cx="4.833" cy="5.005" rx="4.833" ry="5.005" transform="matrix(0.969, -0.249, 0.249, 0.969, 17.518, 20.544)" fill="#f7b523"/>
        </g>
      </g>
      <path id="Pfad_9187" data-name="Pfad 9187" d="M1559.406,362.366l-2.72,3.607-.279.368-3.032,4.019-.289.384-1.214,1.609-.207.273-1.071,1.419-.3.4-2.348,3.111-.128.176c-.391.528-1.181,1.555-1.181,1.555l-1.313,1.746-.088.089-.038-.027c-.041-.029-.081-.057-.121-.087-.149-.107-.3-.216-.442-.326-.024-.017-.047-.036-.074-.056l-.026-.02a24.032,24.032,0,0,1-2.4-2.1,2.205,2.205,0,0,0,.181-.229l2.382-2.539.318-.339,2.832-3.019.306-.326,2.83-3.017.189-.2.105-.112.1-.109,3.28-3.5.277-.3,3.51-3.743.965,1.285Z" transform="translate(-1527.43 -337.115)" fill="#4b4b5b" opacity="0.22"/>
      <path id="Pfad_9188" data-name="Pfad 9188" d="M1491.427,359.229c-1.681.089-27.393.915-28.082,1.036-.742.13-.081,5.63.816,5.52.847-.1,27.479-4.563,27.733-4.617.623-.13.858-2.01-.466-1.939Z" transform="translate(-1460.253 -335.542)" fill="#a05437"/>
      <g id="Gruppe_2876" data-name="Gruppe 2876" transform="translate(0 21.353)">
        <g id="Gruppe_2869" data-name="Gruppe 2869" transform="translate(1.688)">
          <g id="Gruppe_2864" data-name="Gruppe 2864" transform="translate(0 0.081)">
            <path id="Pfad_9189" data-name="Pfad 9189" d="M1460.7,347.555c-.17-.217-2.423-2.978-3.114-3.2a3.1,3.1,0,0,0-1.746.247c1.242,1.906,2.381,3.038,3.45,3.047.553,0,.958.038,1.194.038C1460.706,347.687,1460.783,347.66,1460.7,347.555Z" transform="translate(-1455.84 -344.295)" fill="#9b9baa"/>
            <path id="Pfad_9190" data-name="Pfad 9190" d="M1471.132,349.028c-.17-.217-2.318-2.776-3.007-3-.042.452,1.568,3.019,2.791,3.13C1471.138,349.16,1471.215,349.133,1471.132,349.028Z" transform="translate(-1466.272 -345.768)" fill="#1f1f39" opacity="0.23"/>
          </g>
          <g id="Gruppe_2865" data-name="Gruppe 2865" transform="translate(1.719 0.041)">
            <path id="Pfad_9191" data-name="Pfad 9191" d="M1471.811,347.316c-.17-.217-2.405-2.974-3.094-3.2a2.635,2.635,0,0,0-1.476.059c1.243,1.906,2.091,3.222,3.161,3.233.553,0,.958.038,1.194.038C1471.817,347.449,1471.894,347.422,1471.811,347.316Z" transform="translate(-1467.24 -344.034)" fill="#9b9baa"/>
            <path id="Pfad_9192" data-name="Pfad 9192" d="M1480.608,348.918c-.17-.217-2.318-2.776-3.007-3-.042.452.745,2.043,2.791,3.13C1480.614,349.05,1480.691,349.023,1480.608,348.918Z" transform="translate(-1476.037 -345.636)" fill="#1f1f39" opacity="0.23"/>
          </g>
          <g id="Gruppe_2866" data-name="Gruppe 2866" transform="translate(3.126 0.024)">
            <path id="Pfad_9193" data-name="Pfad 9193" d="M1481.371,347.162a4.929,4.929,0,0,1-1.169-1.093l-.015-.02a9.362,9.362,0,0,0-1.921-2.046,3.61,3.61,0,0,0-1.7.056c1.242,1.906,2.321,3.189,3.391,3.2.553,0,.957.038,1.194.038h.074c.164-.006.214-.039.142-.131Z" transform="translate(-1476.57 -343.916)" fill="#9b9baa"/>
            <path id="Pfad_9194" data-name="Pfad 9194" d="M1491.225,348.541a4.929,4.929,0,0,1-1.169-1.093l-.015-.02a8.211,8.211,0,0,0-1.867-1.888c-.042.452,1.253,2.227,2.79,3.13.041,0,.08,0,.118,0h0c.164-.006.214-.039.142-.131Z" transform="translate(-1486.424 -345.295)" fill="#1f1f39" opacity="0.23"/>
          </g>
          <g id="Gruppe_2867" data-name="Gruppe 2867" transform="translate(4.812 0.02)">
            <path id="Pfad_9195" data-name="Pfad 9195" d="M1492.483,347.1c-.17-.217-2.276-2.867-2.966-3.088a4.893,4.893,0,0,0-1.767-.065c1.243,1.906,2.253,3.241,3.322,3.25.553,0,.958.038,1.194.038.222,0,.3-.027.216-.133Z" transform="translate(-1487.75 -343.893)" fill="#9b9baa"/>
            <path id="Pfad_9196" data-name="Pfad 9196" d="M1502.541,347.734c-.17-.217-2.257-2.871-2.946-3.094-.042.452,1.345,2.278,2.731,3.227C1502.547,347.867,1502.624,347.84,1502.541,347.734Z" transform="translate(-1497.808 -344.527)" fill="#1f1f39" opacity="0.23"/>
          </g>
          <g id="Gruppe_2868" data-name="Gruppe 2868" transform="translate(6.537)">
            <path id="Pfad_9197" data-name="Pfad 9197" d="M1503.851,346.88c-.171-.217-2.318-2.776-3.007-3a4.358,4.358,0,0,0-1.654-.074c1.243,1.906,2.591,3.225,3.188,3.24.553.014,1.019-.036,1.256-.036s.3-.027.216-.133Z" transform="translate(-1499.19 -343.76)" fill="#9b9baa"/>
            <path id="Pfad_9198" data-name="Pfad 9198" d="M1513.162,347.568c-.17-.217-2.318-2.776-3.007-3-.042.452,1.568,3.019,2.791,3.13C1513.168,347.7,1513.245,347.673,1513.162,347.568Z" transform="translate(-1508.501 -344.448)" fill="#1f1f39" opacity="0.23"/>
          </g>
          <path id="Pfad_9199" data-name="Pfad 9199" d="M1514.163,347.517a15.723,15.723,0,0,0-2.984-2.735,6.626,6.626,0,0,0-1.529-.252c1.243,1.906,2.034,3.072,3.1,3.082.553,0,.958.038,1.194.038C1514.169,347.65,1514.246,347.623,1514.163,347.517Z" transform="translate(-1501.536 -344.414)" fill="#9b9baa"/>
        </g>
        <path id="Pfad_9200" data-name="Pfad 9200" d="M1487.273,360.237c-1.683.057-23.451.752-24.139.873-.742.13-.081,5.631.816,5.52.847-.1,23.47-3.924,23.727-3.96C1488.715,362.525,1488.487,360.2,1487.273,360.237Z" transform="translate(-1460.075 -357.752)" fill="#a05437"/>
        <ellipse id="Ellipse_67" data-name="Ellipse 67" cx="2.791" cy="2.791" rx="2.791" ry="2.791" transform="translate(0 7.813) rotate(-70.75)" fill="#754942"/>
        <g id="Gruppe_2875" data-name="Gruppe 2875" transform="translate(3.454 6.637)">
          <g id="Gruppe_2870" data-name="Gruppe 2870" transform="translate(0 1.048)">
            <path id="Pfad_9201" data-name="Pfad 9201" d="M1471.819,394.832c-.128.235-1.874,3.479-2.5,3.8a3.756,3.756,0,0,1-1.772.172c.875-2.027,1.883-3.651,2.9-3.836.528-.095.909-.193,1.135-.232s.29-.023.228.092Z" transform="translate(-1467.55 -394.722)" fill="#9b9baa"/>
            <path id="Pfad_9202" data-name="Pfad 9202" d="M1482.616,394.84c-.128.235-1.72,3.346-2.343,3.672-.115-.425.963-3.456,2.114-3.762.213-.036.29-.023.228.092Z" transform="translate(-1478.347 -394.731)" fill="#1f1f39" opacity="0.23"/>
          </g>
          <g id="Gruppe_2871" data-name="Gruppe 2871" transform="translate(1.92 0.828)">
            <path id="Pfad_9203" data-name="Pfad 9203" d="M1484,393.372c-.128.235-1.8,3.36-2.419,3.685a2.915,2.915,0,0,1-1.3.3c.875-2.027,1.334-3.661,2.355-3.847.528-.1.909-.193,1.135-.232S1484.06,393.257,1484,393.372Z" transform="translate(-1480.28 -393.262)" fill="#9b9baa"/>
            <path id="Pfad_9204" data-name="Pfad 9204" d="M1492.078,393.372c-.128.235-1.642,3.351-2.265,3.676a4.85,4.85,0,0,1,2.036-3.768c.213-.036.289-.023.228.092Z" transform="translate(-1488.36 -393.262)" fill="#1f1f39" opacity="0.23"/>
          </g>
          <g id="Gruppe_2872" data-name="Gruppe 2872" transform="translate(3.233 0.612)">
            <path id="Pfad_9205" data-name="Pfad 9205" d="M1492.969,391.942a4.77,4.77,0,0,0-.938,1.238.152.152,0,0,1-.012.021,9.106,9.106,0,0,1-1.5,2.272,5.193,5.193,0,0,1-1.529.428c.876-2.027,1.594-3.634,2.615-3.82.528-.1.909-.193,1.135-.232l.071-.011h0c.158-.021.211,0,.157.1Z" transform="translate(-1488.99 -391.832)" fill="#9b9baa"/>
            <path id="Pfad_9206" data-name="Pfad 9206" d="M1501.672,391.942a4.772,4.772,0,0,0-.938,1.238.154.154,0,0,1-.012.021,7.969,7.969,0,0,1-1.475,2.111c-.115-.425.834-2.336,2.155-3.452l.113-.021h0C1501.673,391.818,1501.726,391.841,1501.672,391.942Z" transform="translate(-1497.693 -391.832)" fill="#1f1f39" opacity="0.23"/>
          </g>
          <g id="Gruppe_2873" data-name="Gruppe 2873" transform="translate(4.759 0.388)">
            <path id="Pfad_9207" data-name="Pfad 9207" d="M1503.118,390.452c-.128.235-1.705,3.115-2.328,3.441a4.742,4.742,0,0,1-1.68.353c.875-2.027,1.623-3.468,2.643-3.654.528-.1.909-.193,1.135-.232s.289-.023.228.092Z" transform="translate(-1499.11 -390.342)" fill="#9b9baa"/>
            <path id="Pfad_9208" data-name="Pfad 9208" d="M1512.631,390.46c-.128.235-1.687,3.117-2.31,3.443-.115-.425.912-2.4,2.082-3.533.213-.036.29-.023.228.092Z" transform="translate(-1508.623 -390.351)" fill="#1f1f39" opacity="0.23"/>
          </g>
          <g id="Gruppe_2874" data-name="Gruppe 2874" transform="translate(6.412 0.219)">
            <path id="Pfad_9209" data-name="Pfad 9209" d="M1514.024,389.332c-.128.235-1.761,3.034-2.384,3.36a4.215,4.215,0,0,1-1.57.342c.875-2.027,1.948-3.509,2.517-3.622.526-.1.98-.133,1.208-.172C1514.007,389.2,1514.084,389.217,1514.024,389.332Z" transform="translate(-1510.07 -389.222)" fill="#9b9baa"/>
            <path id="Pfad_9210" data-name="Pfad 9210" d="M1522.818,389.332c-.128.235-1.761,3.034-2.384,3.36-.115-.425,1-3.144,2.155-3.452C1522.8,389.2,1522.879,389.217,1522.818,389.332Z" transform="translate(-1518.865 -389.222)" fill="#1f1f39" opacity="0.23"/>
          </g>
          <path id="Pfad_9211" data-name="Pfad 9211" d="M1523.826,387.88a15.31,15.31,0,0,1-2.405,3.106,6.387,6.387,0,0,1-1.42.492c.875-2.027,1.442-3.272,2.462-3.456.528-.1.909-.193,1.135-.232s.29-.023.228.092Z" transform="translate(-1512.091 -387.772)" fill="#9b9baa"/>
        </g>
      </g>
    </g>
    <g id="Gruppe_2893" data-name="Gruppe 2893" transform="translate(1337.489 6008.941)">
      <circle id="Ellipse_68" data-name="Ellipse 68" cx="18.016" cy="18.016" r="18.016" transform="translate(0 25.479) rotate(-45)" fill="#fff"/>
      <g id="Gruppe_2892" data-name="Gruppe 2892" transform="translate(12.564 14.123)">
        <g id="Gruppe_2884" data-name="Gruppe 2884" transform="translate(0 5.116)">
          <path id="Pfad_9212" data-name="Pfad 9212" d="M2068.86,812.107a8.953,8.953,0,1,0,1.794-.157A4.848,4.848,0,0,0,2068.86,812.107Z" transform="translate(-2050.949 -796.693)" fill="#32323f" opacity="0.23"/>
          <path id="Pfad_9213" data-name="Pfad 9213" d="M2039.68,812.107a8.953,8.953,0,1,0,1.795-.157A4.849,4.849,0,0,0,2039.68,812.107Z" transform="translate(-2026.169 -796.693)" fill="#32323f" opacity="0.23"/>
          <path id="Pfad_9214" data-name="Pfad 9214" d="M2010.45,812.107a8.953,8.953,0,1,0,1.794-.157A4.847,4.847,0,0,0,2010.45,812.107Z" transform="translate(-2001.347 -796.693)" fill="#32323f" opacity="0.23"/>
          <path id="Pfad_9215" data-name="Pfad 9215" d="M1979.98,812.107a8.952,8.952,0,1,0,1.794-.157A4.847,4.847,0,0,0,1979.98,812.107Z" transform="translate(-1975.471 -796.693)" fill="#32323f" opacity="0.23"/>
          <path id="Pfad_9216" data-name="Pfad 9216" d="M1950.08,812.107a8.952,8.952,0,1,0,1.795-.157A4.849,4.849,0,0,0,1950.08,812.107Z" transform="translate(-1950.08 -796.693)" fill="#32323f" opacity="0.23"/>
          <g id="Gruppe_2878" data-name="Gruppe 2878" transform="translate(13.684 2.269)">
            <path id="Pfad_9217" data-name="Pfad 9217" d="M2044.01,726.255l.006,12.327a.4.4,0,0,1-.357.427h-2.465a.4.4,0,0,1-.357-.425l-.006-12.327a.4.4,0,0,1,.357-.427h2.465A.4.4,0,0,1,2044.01,726.255Z" transform="translate(-2040.83 -725.829)" fill="#0267a4"/>
            <path id="Pfad_9218" data-name="Pfad 9218" d="M2055.389,726.247l.006,12.327a.4.4,0,0,1-.358.427h-.529c-.209-2.36-.3-8.005-.275-13.181h.8A.4.4,0,0,1,2055.389,726.247Z" transform="translate(-2052.208 -725.82)" fill="#f4f3f2" opacity="0.11"/>
          </g>
          <g id="Gruppe_2879" data-name="Gruppe 2879" transform="translate(18.041 5.08)">
            <path id="Pfad_9219" data-name="Pfad 9219" d="M2069.72,744.9l0,9.516a.4.4,0,0,0,.357.427h2.466a.4.4,0,0,0,.357-.428l0-9.516a.465.465,0,0,0-.079-.265.333.333,0,0,0-.279-.16h-2.465A.4.4,0,0,0,2069.72,744.9Z" transform="translate(-2069.72 -744.468)" fill="#0267a4"/>
            <path id="Pfad_9220" data-name="Pfad 9220" d="M2084.278,744.887l0,9.516a.4.4,0,0,1-.357.427h-.529c-.21-2.36-.3-5.195-.272-10.37h.8A.4.4,0,0,1,2084.278,744.887Z" transform="translate(-2081.098 -744.46)" fill="#f4f3f2" opacity="0.11"/>
          </g>
          <g id="Gruppe_2880" data-name="Gruppe 2880" transform="translate(9.278 3.628)">
            <path id="Pfad_9221" data-name="Pfad 9221" d="M2011.61,735.16l0,11.165a.342.342,0,0,0,.357.329h2.465a.345.345,0,0,0,.357-.33l0-11.164a.343.343,0,0,0-.357-.329h-2.465a.368.368,0,0,0-.173.042h0a.321.321,0,0,0-.182.288Z" transform="translate(-2011.61 -734.83)" fill="#0267a4"/>
            <path id="Pfad_9222" data-name="Pfad 9222" d="M2025.9,735.167l0,11.165a.345.345,0,0,1-.357.33h-.529c.036-1.518-.481-10.065-.274-11.822h.8a.343.343,0,0,1,.357.329Z" transform="translate(-2022.723 -734.839)" fill="#f4f3f2" opacity="0.11"/>
          </g>
          <g id="Gruppe_2881" data-name="Gruppe 2881" transform="translate(4.682)">
            <path id="Pfad_9223" data-name="Pfad 9223" d="M1984.31,711.1l0,14.792a.344.344,0,0,1-.357.33h-2.465a.343.343,0,0,1-.357-.329l0-14.793a.345.345,0,0,1,.357-.33h2.465A.343.343,0,0,1,1984.31,711.1Z" transform="translate(-1981.13 -710.77)" fill="#0267a4"/>
            <path id="Pfad_9224" data-name="Pfad 9224" d="M1995.608,711.1l0,14.792a.345.345,0,0,1-.357.33h-.529c-.006-.608-.375-13.841-.274-15.451h.8a.343.343,0,0,1,.357.329Z" transform="translate(-1992.428 -710.77)" fill="#f4f3f2" opacity="0.11"/>
          </g>
          <path id="Pfad_9225" data-name="Pfad 9225" d="M2097.92,812.107a8.952,8.952,0,1,0,1.794-.157A4.847,4.847,0,0,0,2097.92,812.107Z" transform="translate(-2075.627 -796.693)" fill="#32323f" opacity="0.23"/>
          <g id="Gruppe_2882" data-name="Gruppe 2882" transform="translate(22.468)">
            <path id="Pfad_9226" data-name="Pfad 9226" d="M2102.26,711.1l0,14.792a.344.344,0,0,1-.357.33h-2.466a.343.343,0,0,1-.357-.329l0-14.793a.344.344,0,0,1,.357-.33h2.465A.343.343,0,0,1,2102.26,711.1Z" transform="translate(-2099.08 -710.77)" fill="#0267a4"/>
            <path id="Pfad_9227" data-name="Pfad 9227" d="M2113.558,711.1l0,14.792a.345.345,0,0,1-.357.33h-.529c-.006-.608-.375-13.841-.274-15.451h.8a.343.343,0,0,1,.357.329Z" transform="translate(-2110.378 -710.77)" fill="#f4f3f2" opacity="0.11"/>
          </g>
          <g id="Gruppe_2883" data-name="Gruppe 2883" transform="translate(0.16 1.986)">
            <path id="Pfad_9228" data-name="Pfad 9228" d="M1954.32,724.269l.02,12.807a.345.345,0,0,1-.357.33h-2.465a.343.343,0,0,1-.357-.329l-.02-12.807a.344.344,0,0,1,.357-.33h2.466A.343.343,0,0,1,1954.32,724.269Z" transform="translate(-1951.14 -723.94)" fill="#0267a4"/>
            <path id="Pfad_9229" data-name="Pfad 9229" d="M1965.354,724.269l.02,12.807a.344.344,0,0,1-.357.33h-.529c0-.706-.538-12.52-.288-13.466h.8A.343.343,0,0,1,1965.354,724.269Z" transform="translate(-1962.173 -723.94)" fill="#f4f3f2" opacity="0.11"/>
          </g>
        </g>
        <g id="Gruppe_2891" data-name="Gruppe 2891" transform="translate(0.108 0)">
          <path id="Pfad_9230" data-name="Pfad 9230" d="M1972.752,690.482c-.424,0-1.206-.615-2.949-2.147-.484-.424-1.028-.9-1.2-1-.372.062-2.882.9-4.414,1.43a.239.239,0,0,1-.241-.051c-1.482-1.4-3.895-3.639-4.337-3.954-.456.118-2.739,1.107-4.757,2.024a.186.186,0,0,1-.039.014l-.151.039a.239.239,0,1,1-.119-.463l.131-.033a52.285,52.285,0,0,1,4.964-2.069c.13,0,.285-.011,4.531,3.994,1.612-.555,4.2-1.422,4.485-1.41.167.009.359.157,1.458,1.122a14.526,14.526,0,0,0,2.615,2.028,53.888,53.888,0,0,0,4.872-4.911.239.239,0,1,1,.353.323c-.734.8-4.429,4.816-5.083,5.045a.379.379,0,0,1-.12.02Zm-4.171-3.161Z" transform="translate(-1953.83 -683.149)" fill="#419671"/>
          <g id="Gruppe_2885" data-name="Gruppe 2885" transform="translate(0 2.255)">
            <path id="Pfad_9231" data-name="Pfad 9231" d="M1952.715,692.972a.972.972,0,1,1-.743-1.157A.973.973,0,0,1,1952.715,692.972Z" transform="translate(-1950.793 -691.793)" fill="#419671"/>
            <path id="Pfad_9232" data-name="Pfad 9232" d="M1954.379,694.909a.613.613,0,1,1-.469-.73A.614.614,0,0,1,1954.379,694.909Z" transform="translate(-1952.808 -693.807)" fill="#fff"/>
          </g>
          <g id="Gruppe_2886" data-name="Gruppe 2886" transform="translate(4.397)">
            <circle id="Ellipse_69" data-name="Ellipse 69" cx="0.973" cy="0.973" r="0.973" transform="matrix(0.841, -0.541, 0.541, 0.841, 0, 1.051)" fill="#419671"/>
            <path id="Pfad_9233" data-name="Pfad 9233" d="M1986.039,682.5a.613.613,0,1,1-.469-.73A.614.614,0,0,1,1986.039,682.5Z" transform="translate(-1984.091 -681.015)" fill="#fff"/>
          </g>
          <g id="Gruppe_2887" data-name="Gruppe 2887" transform="translate(9.319 4.355)">
            <path id="Pfad_9234" data-name="Pfad 9234" d="M2014.515,706.9a.972.972,0,1,1-.743-1.157A.973.973,0,0,1,2014.515,706.9Z" transform="translate(-2012.593 -705.723)" fill="#419671"/>
            <path id="Pfad_9235" data-name="Pfad 9235" d="M2016.179,708.84a.613.613,0,1,1-.469-.73A.613.613,0,0,1,2016.179,708.84Z" transform="translate(-2014.608 -707.738)" fill="#fff"/>
          </g>
          <g id="Gruppe_2888" data-name="Gruppe 2888" transform="translate(13.361 2.659)">
            <circle id="Ellipse_70" data-name="Ellipse 70" cx="0.973" cy="0.973" r="0.973" transform="matrix(0.841, -0.541, 0.541, 0.841, 0, 1.051)" fill="#419671"/>
            <path id="Pfad_9236" data-name="Pfad 9236" d="M2045.479,700.14a.613.613,0,1,1-.469-.73A.614.614,0,0,1,2045.479,700.14Z" transform="translate(-2043.532 -698.653)" fill="#fff"/>
          </g>
          <g id="Gruppe_2889" data-name="Gruppe 2889" transform="translate(17.863 5.944)">
            <ellipse id="Ellipse_71" data-name="Ellipse 71" cx="0.973" cy="0.973" rx="0.973" ry="0.973" transform="matrix(0.993, -0.115, 0.115, 0.993, 0, 0.224)" fill="#419671"/>
            <path id="Pfad_9237" data-name="Pfad 9237" d="M2073.569,720.02a.614.614,0,1,1-.469-.73A.614.614,0,0,1,2073.569,720.02Z" transform="translate(-2071.888 -718.821)" fill="#fff"/>
          </g>
          <g id="Gruppe_2890" data-name="Gruppe 2890" transform="translate(22.87 1.252)">
            <path id="Pfad_9238" data-name="Pfad 9238" d="M2104.386,686.322a.972.972,0,1,1-.744-1.157A.973.973,0,0,1,2104.386,686.322Z" transform="translate(-2102.463 -685.143)" fill="#419671"/>
            <path id="Pfad_9239" data-name="Pfad 9239" d="M2106.059,688.26a.614.614,0,1,1-.469-.73A.614.614,0,0,1,2106.059,688.26Z" transform="translate(-2104.486 -687.158)" fill="#fff"/>
          </g>
        </g>
      </g>
    </g>
    <circle id="Ellipse_72" data-name="Ellipse 72" cx="14.841" cy="14.841" r="14.841" transform="translate(1279.747 6039.107) rotate(-45)" fill="#fff"/>
    <circle id="Ellipse_73" data-name="Ellipse 73" cx="14.841" cy="14.841" r="14.841" transform="translate(1311.97 6087.365) rotate(-45)" fill="#fff"/>
    <g id="Gruppe_2897" data-name="Gruppe 2897" transform="translate(1293.92 6027.689)">
      <g id="Gruppe_2895" data-name="Gruppe 2895">
        <g id="Gruppe_2894" data-name="Gruppe 2894" transform="translate(0 2.351)">
          <path id="Pfad_9240" data-name="Pfad 9240" d="M1592.086,736a5.377,5.377,0,0,1-.467,2.227,5.227,5.227,0,0,1-.383.7,5.519,5.519,0,0,1-2.369,1.978l-.095.044a9.2,9.2,0,0,1-3.836.719,8.6,8.6,0,0,1-4.379-1.022,5.83,5.83,0,0,1-1.983-1.938,4.375,4.375,0,0,1-.754-2.348,1.587,1.587,0,0,1,1.635-1.6,1.388,1.388,0,0,1,.974.371,2.875,2.875,0,0,1,.674,1.092,7.308,7.308,0,0,0,.734,1.437,3,3,0,0,0,1.117.953,4.124,4.124,0,0,0,1.9.381,4.281,4.281,0,0,0,2.63-.742,2.262,2.262,0,0,0,1.018-1.876,1.991,1.991,0,0,0-.54-1.454,3.512,3.512,0,0,0-1.4-.856q-.862-.3-2.3-.633a16.952,16.952,0,0,1-3.234-1.072,5.245,5.245,0,0,1-2.063-1.662,4.293,4.293,0,0,1-.755-2.606,4.46,4.46,0,0,1,.82-2.63,5.12,5.12,0,0,1,2.346-1.761,7.944,7.944,0,0,1,1.494-.425,11.316,11.316,0,0,1,2.11-.178,11.515,11.515,0,0,1,1.172.062c.1.011.2.023.293.036a7.439,7.439,0,0,1,1.393.324,6.05,6.05,0,0,1,2,1.1,4.523,4.523,0,0,1,1.155,1.426s0,0,0,0a3.3,3.3,0,0,1,.362,1.458,1.72,1.72,0,0,1-.464,1.167,1.464,1.464,0,0,1-1.148.516,1.317,1.317,0,0,1-.948-.317,4.182,4.182,0,0,1-.7-1.025,4.675,4.675,0,0,0-1.169-1.592,3.441,3.441,0,0,0-2.2-.579,3.81,3.81,0,0,0-2.274.609,1.8,1.8,0,0,0-.868,1.484,1.507,1.507,0,0,0,.289.932,2.491,2.491,0,0,0,.805.677,5.342,5.342,0,0,0,1.039.445c.35.107.93.265,1.735.473q1.169.278,2.168.6c.2.063.389.128.576.194a8.4,8.4,0,0,1,2.09,1.051,4.274,4.274,0,0,1,1.341,1.555s0,.011.007.015a5.023,5.023,0,0,1,.465,2.283Z" transform="translate(-1577.82 -723.099)" fill="#0267a4"/>
          <path id="Pfad_9241" data-name="Pfad 9241" d="M1647.2,779.957a5.376,5.376,0,0,1-.467,2.227,5.211,5.211,0,0,1-.383.7,5.523,5.523,0,0,1-2.369,1.98c2.494-1.669,3.595-6.877-1.261-10,.2.063.389.128.578.195a8.4,8.4,0,0,1,2.09,1.051,4.273,4.273,0,0,1,1.34,1.555s0,.01.008.015a5,5,0,0,1,.464,2.283Z" transform="translate(-1632.934 -767.055)" fill="#1f1f39" opacity="0.12"/>
        </g>
        <path id="Pfad_9242" data-name="Pfad 9242" d="M1614.8,839.672v2.791a.783.783,0,0,1-.783.783h-2.007a.783.783,0,0,1-.783-.781V839.67h3.574Z" transform="translate(-1606.192 -819.742)" fill="#0267a4"/>
        <path id="Pfad_9243" data-name="Pfad 9243" d="M1614.785,708.038V710.3a.783.783,0,0,1-.784.783h-2.007a.783.783,0,0,1-.784-.783v-2.263a.528.528,0,0,1,.528-.528h2.52a.528.528,0,0,1,.528.528Z" transform="translate(-1606.175 -707.51)" fill="#0267a4"/>
      </g>
      <g id="Gruppe_2896" data-name="Gruppe 2896" transform="translate(1.415 3.631)">
        <path id="Pfad_9244" data-name="Pfad 9244" d="M1601.276,732.059a.12.12,0,0,1-.047-.231,2.929,2.929,0,0,1,.885-.238.125.125,0,0,1,.13.112.123.123,0,0,1-.112.13,2.672,2.672,0,0,0-.81.22.127.127,0,0,1-.047.009Z" transform="translate(-1599.053 -731.59)" fill="#fff"/>
        <path id="Pfad_9245" data-name="Pfad 9245" d="M1589.586,742.425a.108.108,0,0,1-.044-.009,3.517,3.517,0,0,1-2.331-3.479,3.07,3.07,0,0,1,1.241-2.251.12.12,0,0,1,.149.188,2.832,2.832,0,0,0-1.149,2.075,3.282,3.282,0,0,0,2.179,3.242.12.12,0,0,1-.044.232Z" transform="translate(-1587.206 -735.896)" fill="#fff"/>
      </g>
    </g>
    <g id="Gruppe_2910" data-name="Gruppe 2910" transform="translate(1323.009 6076.641)">
      <g id="Gruppe_2900" data-name="Gruppe 2900" transform="translate(4.33 4.111)">
        <path id="Pfad_9246" data-name="Pfad 9246" d="M1803.759,1074.694a2.021,2.021,0,0,0,.6.177c.059.009.118.015.179.021h0a3.486,3.486,0,0,0,1.511-.2l.024-.009a1.459,1.459,0,0,0,.567-.377.706.706,0,0,0,.18-.448.8.8,0,0,1,.029-.192,1.968,1.968,0,0,1,.249-.526c.232-.376.59-.817.988-1.341a9.812,9.812,0,0,0,2.417-6.315c-.053-2.753-1.532-6.012-5.009-6.08h-.081a5.746,5.746,0,0,0-5.979,6.206c.08,3.617,2.808,5.938,3.649,7.609a1.9,1.9,0,0,1,.244.888v.029a.655.655,0,0,0,.425.557Z" transform="translate(-1799.437 -1059.407)" fill="#f4ad00"/>
        <path id="Pfad_9247" data-name="Pfad 9247" d="M1818.358,1116.812a.152.152,0,0,1-.152-.14c0-.042-.26-3.155-.618-5.257a2.188,2.188,0,0,1-1.451-.864,1.176,1.176,0,0,1-.077-1.211.7.7,0,0,1,.6-.437h0c.205,0,.508.125.786.7a7.117,7.117,0,0,1,.4,1.528h0a1.785,1.785,0,0,0,.653-.125,1.222,1.222,0,0,0,.491-.418,2.016,2.016,0,0,1-.5-1.366.565.565,0,0,1,.617-.492h.023a.582.582,0,0,1,.6.514,2.123,2.123,0,0,1-.351,1.319,1.309,1.309,0,0,0,.532.359,1.391,1.391,0,0,0,.449.059c.074-.6.135-1.062.17-1.243.189-.979.679-1.037.882-1.016a.855.855,0,0,1,.7.844,1.827,1.827,0,0,1-.773,1.369,1.8,1.8,0,0,1-.709.32c-.247,2.028-.608,5.347-.612,5.391a.153.153,0,0,1-.3-.033c.02-.181.362-3.325.6-5.326a1.7,1.7,0,0,1-.5-.074,1.592,1.592,0,0,1-.621-.4,1.505,1.505,0,0,1-.588.47,2.037,2.037,0,0,1-.713.143c.354,2.09.6,5.042.611,5.214a.151.151,0,0,1-.14.164h-.012Zm-1.7-7.6c-.119,0-.24.1-.324.268a.878.878,0,0,0,.047.888,1.892,1.892,0,0,0,1.152.736,6.475,6.475,0,0,0-.36-1.366c-.16-.333-.347-.526-.513-.526Zm4.7-.186c-.234,0-.428.285-.522.772-.031.167-.089.583-.157,1.135a1.556,1.556,0,0,0,.489-.241,1.511,1.511,0,0,0,.648-1.125.551.551,0,0,0-.428-.538h-.03Zm-2.244.012c-.244,0-.3.125-.313.234a1.656,1.656,0,0,0,.374,1.042,1.745,1.745,0,0,0,.259-1.013.278.278,0,0,0-.3-.262Z" transform="translate(-1813.442 -1101.282)" fill="#fff" opacity="0.75"/>
        <path id="Pfad_9248" data-name="Pfad 9248" d="M1841.773,1071.8a9.811,9.811,0,0,0,2.417-6.315c-.053-2.753-1.532-6.012-5.009-6.08h-.082c5.222,5.823,4.393,7.713,2.672,12.4Z" transform="translate(-1833.119 -1059.4)" fill="#e84e1b" opacity="0.25"/>
        <g id="Gruppe_2898" data-name="Gruppe 2898" transform="translate(3.241 13.769)">
          <path id="Pfad_9249" data-name="Pfad 9249" d="M1822.712,1154.42a1.992,1.992,0,0,0,.93.893c.039.018.08.036.122.051a1.954,1.954,0,0,0,.7.13h.142a1.952,1.952,0,0,0,.706-.128,1.975,1.975,0,0,0,.339-.169,2,2,0,0,0,.889-1.252,1.8,1.8,0,0,0,.038-.226,2.1,2.1,0,0,0,.012-.219s0-.026,0-.071c0-.071.011-.19.017-.341.007-.169.017-.375.024-.6,0-.116.008-.235.011-.356.006-.21.009-.419.009-.606,0-.119,0-.229-.006-.326a.958.958,0,0,0-.05-.351,16.513,16.513,0,0,0-3.6-.1,3.39,3.39,0,0,0-.368.044.387.387,0,0,0-.134.042.328.328,0,0,0-.083.2,2.2,2.2,0,0,0-.03.3c-.006.128-.007.271-.006.424,0,.071,0,.145,0,.219.008.235.021.479.036.7.006.075.011.148.016.217.026.339.051.584.051.584,0,.042,0,.083,0,.124a2.049,2.049,0,0,0,.024.216,2.165,2.165,0,0,0,.068.282,1.957,1.957,0,0,0,.128.308Z" transform="translate(-1822.159 -1150.715)" fill="#454554"/>
          <path id="Pfad_9250" data-name="Pfad 9250" d="M1822.582,1158.117c.617-.167,3.642-.58,4.212-.67,0-.075-.011-.148-.017-.217l-4.2.413A2.8,2.8,0,0,0,1822.582,1158.117Z" transform="translate(-1822.322 -1156.248)" fill="#1f1f3b" opacity="0.6"/>
          <path id="Pfad_9251" data-name="Pfad 9251" d="M1822.875,1165.035c.814-.172,3.584-.578,4.106-.659a2.011,2.011,0,0,0-.024-.216l-4.148.368a2.525,2.525,0,0,0,.066.507Z" transform="translate(-1822.525 -1162.132)" fill="#1f1f3b" opacity="0.6"/>
          <path id="Pfad_9252" data-name="Pfad 9252" d="M1825.625,1154.408l.006.056a.284.284,0,0,1-.255.312l-4.123.463a.283.283,0,0,1-.317-.249l-.006-.056a.285.285,0,0,1,.255-.312l4.123-.463A.283.283,0,0,1,1825.625,1154.408Z" transform="translate(-1820.929 -1153.638)" fill="#5e5e6d"/>
          <path id="Pfad_9253" data-name="Pfad 9253" d="M1825.888,1161.378l.006.056a.284.284,0,0,1-.252.312l-4.082.458a.281.281,0,0,1-.313-.249l-.006-.056a.284.284,0,0,1,.251-.312l4.082-.458A.281.281,0,0,1,1825.888,1161.378Z" transform="translate(-1821.193 -1159.557)" fill="#5e5e6d"/>
          <path id="Pfad_9254" data-name="Pfad 9254" d="M1823.75,1171.032a2,2,0,0,0,.217.436c.937-.161,3.084-.514,3.738-.6a1.866,1.866,0,0,0,.038-.226Z" transform="translate(-1823.325 -1167.635)" fill="#1f1f3b" opacity="0.6"/>
          <path id="Pfad_9255" data-name="Pfad 9255" d="M1826.038,1167.838l.006.056a.284.284,0,0,1-.252.312l-4.082.458a.282.282,0,0,1-.314-.249l-.006-.056a.284.284,0,0,1,.252-.312l4.082-.458A.282.282,0,0,1,1826.038,1167.838Z" transform="translate(-1821.32 -1165.043)" fill="#5e5e6d"/>
        </g>
        <g id="Gruppe_2899" data-name="Gruppe 2899" transform="translate(1.123 1.62)">
          <path id="Pfad_9256" data-name="Pfad 9256" d="M1807.09,1078.861a.179.179,0,0,1-.178-.16,4.043,4.043,0,0,1,1.24-3.512.178.178,0,1,1,.247.256,3.657,3.657,0,0,0-1.132,3.219.179.179,0,0,1-.16.2h-.018Z" transform="translate(-1806.884 -1074.386)" fill="#fff"/>
          <path id="Pfad_9257" data-name="Pfad 9257" d="M1819.2,1070.748a.179.179,0,0,1-.105-.323,2.289,2.289,0,0,1,.478-.271.179.179,0,1,1,.137.33,2,2,0,0,0-.406.232.18.18,0,0,1-.1.035Z" transform="translate(-1817.194 -1070.14)" fill="#fff"/>
        </g>
      </g>
      <g id="Gruppe_2909" data-name="Gruppe 2909">
        <g id="Gruppe_2901" data-name="Gruppe 2901" transform="translate(16.046 9.628)">
          <path id="Pfad_9258" data-name="Pfad 9258" d="M1884.443,1096.738h-.009l-2.717-.172a.149.149,0,1,1,.02-.3l2.717.172a.149.149,0,0,1-.009.3Z" transform="translate(-1880.908 -1096.226)" fill="#f4ad00"/>
          <path id="Pfad_9259" data-name="Pfad 9259" d="M1877.459,1096.3h-.009l-.173-.01a.148.148,0,0,1-.139-.158.15.15,0,0,1,.158-.139l.173.011a.149.149,0,0,1-.009.3Z" transform="translate(-1877.137 -1095.987)" fill="#f4ad00"/>
        </g>
        <g id="Gruppe_2902" data-name="Gruppe 2902" transform="translate(15.562 5.894)">
          <path id="Pfad_9260" data-name="Pfad 9260" d="M1878.273,1072.427a.147.147,0,0,1-.14-.1.15.15,0,0,1,.09-.19l2.568-.9a.149.149,0,1,1,.1.28l-2.568.9A.14.14,0,0,1,1878.273,1072.427Z" transform="translate(-1877.491 -1071.224)" fill="#f4ad00"/>
          <path id="Pfad_9261" data-name="Pfad 9261" d="M1874.073,1078.68a.147.147,0,0,1-.14-.1.149.149,0,0,1,.09-.19l.164-.057a.149.149,0,1,1,.1.28l-.164.057A.143.143,0,0,1,1874.073,1078.68Z" transform="translate(-1873.924 -1077.254)" fill="#f4ad00"/>
        </g>
        <g id="Gruppe_2903" data-name="Gruppe 2903" transform="translate(14.587 2.562)">
          <path id="Pfad_9262" data-name="Pfad 9262" d="M1870.89,1051.268a.151.151,0,0,1-.11-.048.148.148,0,0,1,.009-.21l2.007-1.841a.148.148,0,0,1,.2.219l-2.007,1.841a.152.152,0,0,1-.1.039Z" transform="translate(-1870.246 -1049.13)" fill="#f4ad00"/>
          <path id="Pfad_9263" data-name="Pfad 9263" d="M1867.609,1063.985a.151.151,0,0,1-.11-.048.148.148,0,0,1,.009-.209l.128-.118a.148.148,0,1,1,.2.219l-.128.118a.151.151,0,0,1-.1.039Z" transform="translate(-1867.46 -1061.393)" fill="#f4ad00"/>
        </g>
        <g id="Gruppe_2904" data-name="Gruppe 2904" transform="translate(11.227)">
          <path id="Pfad_9264" data-name="Pfad 9264" d="M1846.97,1034.967a.148.148,0,0,1-.139-.2l1.007-2.53a.149.149,0,0,1,.276.11l-1.007,2.53a.147.147,0,0,1-.139.094Z" transform="translate(-1846.574 -1032.14)" fill="#f4ad00"/>
          <path id="Pfad_9265" data-name="Pfad 9265" d="M1845.328,1052.445a.133.133,0,0,1-.054-.011.148.148,0,0,1-.083-.193l.065-.161a.149.149,0,0,1,.276.11l-.065.161A.147.147,0,0,1,1845.328,1052.445Z" transform="translate(-1845.18 -1048.993)" fill="#f4ad00"/>
        </g>
        <g id="Gruppe_2905" data-name="Gruppe 2905" transform="translate(6.653 0.111)">
          <path id="Pfad_9266" data-name="Pfad 9266" d="M1815.806,1035.773a.149.149,0,0,1-.142-.1l-.811-2.6a.149.149,0,1,1,.285-.089l.811,2.6a.147.147,0,0,1-.142.193Z" transform="translate(-1814.846 -1032.876)" fill="#f4ad00"/>
          <path id="Pfad_9267" data-name="Pfad 9267" d="M1821.406,1053.738a.149.149,0,0,1-.142-.1l-.051-.166a.148.148,0,0,1,.283-.088l.051.166a.148.148,0,0,1-.1.186A.157.157,0,0,1,1821.406,1053.738Z" transform="translate(-1820.247 -1050.2)" fill="#f4ad00"/>
        </g>
        <g id="Gruppe_2906" data-name="Gruppe 2906" transform="translate(0 10.218)">
          <path id="Pfad_9268" data-name="Pfad 9268" d="M1770.873,1101.04a.149.149,0,0,1-.148-.131.148.148,0,0,1,.13-.164l2.7-.318a.148.148,0,1,1,.035.294l-2.7.318h-.018Z" transform="translate(-1770.724 -1100.347)" fill="#f4ad00"/>
          <path id="Pfad_9269" data-name="Pfad 9269" d="M1792.083,1100.22a.15.15,0,0,1-.148-.131.148.148,0,0,1,.13-.164l.172-.02a.148.148,0,0,1,.035.294l-.172.02h-.018Z" transform="translate(-1788.736 -1099.904)" fill="#f4ad00"/>
        </g>
        <g id="Gruppe_2907" data-name="Gruppe 2907" transform="translate(0.439 5.897)">
          <path id="Pfad_9270" data-name="Pfad 9270" d="M1776.285,1072.624a.166.166,0,0,1-.059-.012l-2.5-1.08a.149.149,0,1,1,.119-.273l2.5,1.08a.149.149,0,0,1-.06.285Z" transform="translate(-1773.636 -1071.246)" fill="#f4ad00"/>
          <path id="Pfad_9271" data-name="Pfad 9271" d="M1793.554,1080.083a.162.162,0,0,1-.059-.012l-.16-.069a.149.149,0,1,1,.119-.273l.16.069a.149.149,0,0,1-.059.285Z" transform="translate(-1790.289 -1078.439)" fill="#f4ad00"/>
        </g>
        <g id="Gruppe_2908" data-name="Gruppe 2908" transform="translate(2.341 2.688)">
          <path id="Pfad_9272" data-name="Pfad 9272" d="M1788.27,1052.24a.143.143,0,0,1-.107-.047l-1.874-1.975a.148.148,0,1,1,.216-.2l1.874,1.975a.149.149,0,0,1-.109.25Z" transform="translate(-1786.247 -1049.967)" fill="#f4ad00"/>
          <path id="Pfad_9273" data-name="Pfad 9273" d="M1801.224,1065.885a.143.143,0,0,1-.107-.047l-.119-.127a.147.147,0,0,1,.006-.21.148.148,0,0,1,.21.006l.119.127a.149.149,0,0,1-.109.25Z" transform="translate(-1798.739 -1063.125)" fill="#f4ad00"/>
        </g>
      </g>
    </g>
    <g id="Gruppe_2917" data-name="Gruppe 2917" transform="translate(1169.299 5938.807)">
      <path id="Pfad_9274" data-name="Pfad 9274" d="M1164.62,127.815c1.288-4.485,4.028-10.368,4.812-9.7s-1.924,4.388-1.185,4.509,2.925.992,2.248,2.47-1.954.626-2.408,2.972c-.709,3.667-3.467-.244-3.467-.244Z" transform="translate(-1102.304 -118.058)" fill="#efaea6"/>
      <g id="Gruppe_2916" data-name="Gruppe 2916" transform="translate(0 8.246)">
        <g id="Gruppe_2912" data-name="Gruppe 2912" transform="translate(6.921 71.89)">
          <path id="Pfad_9275" data-name="Pfad 9275" d="M857.637,681.741l.027-1.512.017-.887c0-.05,0-.1,0-.149a1.845,1.845,0,0,0-.317-.97.952.952,0,0,0-.742-.44l-.737-.014-.113,0-3.055-.057a.808.808,0,0,0-.419.11,1.646,1.646,0,0,0-.7,1.416l-.017.915-.029,1.475.767.015.029-1.479,0-.21a1.239,1.239,0,0,1,.513-1.054.6.6,0,0,1,.324-.087l2.693.05.226,0c.451.009.805.534.793,1.173l0,.182-.027,1.5v.009l.769.015Z" transform="translate(-843.364 -673.455)" fill="#201b2c"/>
          <path id="Pfad_9276" data-name="Pfad 9276" d="M859.07,649.732c.136.888.37.644.709,1.785s1.347,2.722.757,2.912-1.063-.493-1.356-.627.382.528.041,1.09a2.3,2.3,0,0,1-2.514.487,2.949,2.949,0,0,1-1.229-2.444,13.039,13.039,0,0,1,.578-3.218c.1-.505,3.016.015,3.016.015Z" transform="translate(-846.696 -649.497)" fill="#eeada5"/>
          <path id="Pfad_9277" data-name="Pfad 9277" d="M881.621,680.559l.017-.887c0-.05,0-.1,0-.149a1.846,1.846,0,0,0-.314-.976.95.95,0,0,0-.745-.442l-.737-.006h-.078l.074.267v0l.1.359.127.457c.451.009.805.535.793,1.173l0,.192-.029,1.5.768.015.029-1.5Z" transform="translate(-867.32 -673.787)" fill="#201b2c"/>
          <g id="Gruppe_2911" data-name="Gruppe 2911" transform="translate(0 6.625)">
            <path id="Pfad_9278" data-name="Pfad 9278" d="M820.617,696.215l-.146,11.015a1.183,1.183,0,0,1-1.2,1.167h-.036l-19.635-.011c-2.215-.03-2.18-1.594-2.171-2.245l-.172-10.394a2.63,2.63,0,0,1,2.592-2.313l17.468.222.656.008a2.566,2.566,0,0,1,2.642,2.553Z" transform="translate(-797.26 -693.434)" fill="#603a3e"/>
            <path id="Pfad_9279" data-name="Pfad 9279" d="M933.588,697.469l-.146,11.015a1.183,1.183,0,0,1-1.2,1.167h-.036a8.587,8.587,0,0,1-.22-3.311,32.646,32.646,0,0,0-1.7-11.43l.656.008a2.566,2.566,0,0,1,2.642,2.553Z" transform="translate(-910.23 -694.687)" fill="#775155"/>
          </g>
        </g>
        <path id="Pfad_9280" data-name="Pfad 9280" d="M1279.086,811.352c-.065-1.908-.825-6.662-.825-6.662l-5.021.474,1.208,7.131,3.6,1.846,1.037-2.788Z" transform="translate(-1194.546 -709.398)" fill="#fff"/>
        <path id="Pfad_9281" data-name="Pfad 9281" d="M1282.847,843.095c.516-.172.341.348.606,1.126.608,1.779,5.591,1.525,6.6,1.6.523.039,2.334,2.625-.231,2.842-2.217.187-8.423.546-10.851.736a1.12,1.12,0,0,1-1.147-.746c-.593-1.717-.715-4.454-.044-4.573.994-.418,2.916-.265,5.063-.983Z" transform="translate(-1198.018 -741.984)" fill="#1f1f39"/>
        <g id="Gruppe_2913" data-name="Gruppe 2913" transform="translate(37.292 124.345)">
          <path id="Pfad_9282" data-name="Pfad 9282" d="M1010.506,1004.008c.431-1.859.927-6.648.927-6.648l-5.011.294-.642,6.063,3,2.716,1.724-2.425Z" transform="translate(-1004.708 -997.36)" fill="#fff"/>
          <path id="Pfad_9283" data-name="Pfad 9283" d="M1004.842,1035.7c.541-.054.255.416.341,1.232.2,1.87,5.462,2.384,6.473,2.458a1.519,1.519,0,0,1-.983,2.771c-2.217.19-8.6-.822-11.006-1.176a1.118,1.118,0,0,1-.953-.983c-.2-1.806.291-4.5.973-4.468,1.062-.187,2.9.389,5.156.164Z" transform="translate(-998.67 -1029.747)" fill="#1f1f39"/>
        </g>
        <path id="Pfad_9284" data-name="Pfad 9284" d="M1019.34,601.6c.023.534-7.7,1.407-7.675.383s-3.93-23.247-4.979-24c-1.261-.909-6.279-.968-11.415-.758-6.273.255-12.722.909-12.722.909s-.7,17.808-1.181,23.5c-.535,6.391-2.211,27.825-2.384,28.894s-7.823.547-7.816-.621,1.5-24.015,1.393-28.576c-.152-6.329-4.827-31.36-5.9-34.9-.333-1.1,15.635-4.911,15.635-4.911l2.972,2.153c6.942,1.144,21.26,1.745,27.464,5.757,3.541,2.291,6.585,31.634,6.606,32.168Z" transform="translate(-934.192 -502.896)" fill="#3b3b4c"/>
        <path id="Pfad_9285" data-name="Pfad 9285" d="M969.9,334.516l-4.379-.715c-.265-1.947-1.948-6.372-1.844-8.155.115-1.953.3-1.87.3-1.87l3.144,1.425,1.478.671a4.895,4.895,0,0,0,.317,1.826c.024.077.053.157.084.237a10.658,10.658,0,0,0,2.015,3.238C971.82,332.1,969.9,334.516,969.9,334.516Z" transform="translate(-931.655 -301.002)" fill="#efaea6"/>
        <path id="Pfad_9286" data-name="Pfad 9286" d="M972.524,335.727c-2.363.784-5.055-1.012-4.533-1.755.362-.514,2.737-.742,2.737-.742l1.478.671a4.895,4.895,0,0,0,.317,1.826Z" transform="translate(-935.269 -309.03)" fill="#1f1f39" opacity="0.14"/>
        <g id="Gruppe_2914" data-name="Gruppe 2914" transform="translate(27.957 15.769)">
          <path id="Pfad_9287" data-name="Pfad 9287" d="M956.7,295.37c.846,1.163,3.595,2.7,2.766,3.2s1.79,2.456.926,3.019c-2.093,1.365-5.368,1.5-6.27.641a23.67,23.67,0,0,1-2.5-3.83Z" transform="translate(-949.38 -292.648)" fill="#efaea6"/>
          <path id="Pfad_9288" data-name="Pfad 9288" d="M942.6,282.551c.721-.329.838-.182,1.172-.7s-.878-.67-.086-1.348,1.725-1.318,1.206-2.379c-.751-1.537-1.9-.528-2.6.125-.448.419-1.252-.618-2.248.051-.783.525-.4.938-1.08,1.437-.409.3-1.687.1-2.046,1.031-.666,1.725,1.1,2.28.685,3.942-.486,1.939,3.889,2.8,4.028,2.291.161-.593-1.158-1.5-.95-2.025.314-.793.686-.342,1.452-.178.819.175,1.8-.378.6-.95S941.943,282.85,942.6,282.551Z" transform="translate(-936.763 -277.319)" fill="#1f1f39"/>
        </g>
        <path id="Pfad_9289" data-name="Pfad 9289" d="M955.282,358.829c1.383-.92,2.687.728,3.94.369.76-.217.5-.882.715-1.368.133-.3.594-.274,1.2-.436,1.6-.424,12.558,30.146,12.558,30.146a33.018,33.018,0,0,1-7.039,3.753c-3.167,1.028-8.594,1.642-8.857.5s-4.892-30.347-4.892-30.347a9.114,9.114,0,0,1,2.372-2.621Z" transform="translate(-922.518 -329.548)" fill="#fff"/>
        <path id="Pfad_9290" data-name="Pfad 9290" d="M874.653,383.032c2.906,4.264,1.677,9.726,2.45,12.139.761,2.382,2.405,5.739.722,7.8a22.4,22.4,0,0,1-6.618,5.2c-1.2.516-4.013.122-3.973-2.4.03-2.042,1.927-9.933,1.084-13.5a10.409,10.409,0,0,0-.608-1.942c-.176-.366-.368-.737-.565-1.105-.891-1.659-1.912-3.253-2.208-4v-.006a1.143,1.143,0,0,1-.077-.243c0-.009,0-.018,0-.024-.553.627-6.455,8.355-7.233,13.185-.617,6.832.282,11.909-.46,13.012-2.117-.182-3.667.341-4.849-.087,0,0-.188-9.2-.081-13.618.1-4.147,6.092-15.958,9.319-21.331,2.144-3.568,7.957-8.327,7.957-8.327C870.284,369.441,871.014,377.691,874.653,383.032Z" transform="translate(-836.993 -338.378)" fill="#00628f"/>
        <path id="Pfad_9291" data-name="Pfad 9291" d="M936.16,467.778l.106.318v0c.33.775,1.315,2.321,2.179,3.928.2.368.389.74.565,1.105a10.3,10.3,0,0,1,.608,1.942c.164.694.516,1.424.694,2.253.047-.157-.084-.279-.048-.475.192-1.047-1.087-9.892-1.861-11.563a12.283,12.283,0,0,0-2.242,2.487Z" transform="translate(-908.294 -421.176)" fill="#1f1f39" opacity="0.28"/>
        <g id="Gruppe_2915" data-name="Gruppe 2915" transform="translate(0 28.761)">
          <path id="Pfad_9292" data-name="Pfad 9292" d="M930.946,367.6c-.172-.074-1.146,3.236-3.042,4.622a4.99,4.99,0,0,1-1.742.846c-1.864.458-6.163.863-6.163.863a22.843,22.843,0,0,1,1.914-2.274,7.44,7.44,0,0,0,3.687-.449,7.217,7.217,0,0,0,1.953-.947,12.066,12.066,0,0,0,2.631-2.527c.33-.418.291-.952.762-1.059.624-.143.222,1.021,0,.927Z" transform="translate(-894.571 -366.179)" fill="#e5af21" opacity="0.18"/>
          <path id="Pfad_9293" data-name="Pfad 9293" d="M788.573,364.1a.8.8,0,0,0-1-.594c-.471.107-.472.308-.8.724a9.807,9.807,0,0,1-4.584,3.474c-2.057.623-7.366-1.236-10.347.021s-3.4,4.222-7.755,5.778-9.53.565-10.812,1.042-2.028.915-1.9,1.434a2.639,2.639,0,0,0,1.953,1.458,58.978,58.978,0,0,0,11.4-1.479c3.441-1.137,5.878-4.892,8.114-5.52s7.267-.223,9.905-.872c2.942-.724,4.712-4.64,4.932-4.546a.822.822,0,0,0,.79.02c.25-.115.175-.647.1-.941Z" transform="translate(-751.362 -363.479)" fill="#e5af21"/>
        </g>
        <path id="Pfad_9294" data-name="Pfad 9294" d="M1007.22,200.642c5-2.867,13.176-11.974,13.882-13.013,1.435-2.114,8.408-13.235,9.578-14.844.241-.332,5.021,1.309,4.809,2.4s-7.876,13.968-9.893,16.49c-2.474,3.094-8.48,11.439-9.185,13.511-.611,1.8,1.831,13.255,2.818,15.2s3.566,12.436,2.975,13.454c-1.271,2.191-5.635,3.256-6.587,2.292-1.74-1.764.816-5.591-1.761-13.007-1.812-5.211-2.119-10.438-4.564-16.092" transform="translate(-968.639 -172.742)" fill="#00628f"/>
        <path id="Pfad_9295" data-name="Pfad 9295" d="M851.9,603.888l.093,2.573,5.2-.587-.112-3.034Z" transform="translate(-836.74 -537.985)" fill="#0267a4"/>
        <path id="Pfad_9296" data-name="Pfad 9296" d="M1084.772,651.577c-6.273.255-12.722.909-12.722.909l.121-3.406S1080.782,649.71,1084.772,651.577Z" transform="translate(-1023.693 -577.253)" fill="#1f1f39" opacity="0.51"/>
      </g>
    </g>
    <path id="Pfad_9297" data-name="Pfad 9297" d="M1198.333,281.2c-3.664-.579-4.187-2.244-4.867-7.405-.475,4.9-1.081,6.754-4.806,7.312,3.25,1.4,4.391,1.9,4.972,7.564.8-5.733,1.514-6.24,4.7-7.47Z" transform="translate(46.579 5688.5)" fill="#fff"/>
    <path id="Pfad_9298" data-name="Pfad 9298" d="M911.162,897.483c-3.183-.5-3.637-1.95-4.228-6.433-.412,4.254-.939,5.867-4.174,6.351,2.823,1.212,3.815,1.653,4.319,6.57.7-4.979,1.315-5.419,4.085-6.489Z" transform="translate(289.367 5164.316)" fill="#fff"/>
    <rect id="Rechteck_1476" data-name="Rechteck 1476" width="444" height="236.02" transform="translate(1056 5921.004)" fill="none"/>
  </g>
</svg>
