<?xml version="1.0" encoding="UTF-8"?>
<svg id="Ebene_1" data-name="Ebene 1" xmlns="http://www.w3.org/2000/svg" viewBox="0 0 283.5 47.8">
  <defs>
    <style>
      .cls-1 {
        fill: #d63f8f;
      }

      .cls-2 {
        fill: #3a4247;
      }

      .cls-3 {
        fill: #2dafe6;
      }
    </style>
  </defs>
  <g>
    <g>
      <g>
        <polygon class="cls-1" points="53.3 4.5 39.4 25.6 33.4 25.6 47.2 4.5 53.3 4.5"/>
        <polygon class="cls-1" points="65.4 4.5 57 17.2 51 17.2 59.3 4.5 65.4 4.5"/>
        <polygon class="cls-1" points="77.5 4.5 63.6 25.6 57.6 25.6 71.5 4.5 77.5 4.5"/>
      </g>
      <polygon class="cls-3" points="41.6 4.5 38.7 8.9 36.1 12.8 30 12.8 32.6 8.9 11 8.9 13.9 4.5 41.6 4.5"/>
      <polygon class="cls-3" points="33.2 17.2 30.6 21.2 27.7 25.6 0 25.6 2.9 21.2 24.6 21.2 27.1 17.2 33.2 17.2"/>
      <polygon class="cls-3" points="8.4 12.8 5.5 17.2 27.1 17.2 30 12.8 8.4 12.8"/>
    </g>
    <g>
      <path class="cls-2" d="M98,8.2c-1.3-.8-2.7-1.2-4.3-1.2-.7,0-1.5.1-2.2.4-.7.2-1.4.6-2,1s-1.1.9-1.5,1.3h0V0h-4.2v25.5h4.1l.1-2.2c.4.5.9.9,1.4,1.3.6.4,1.3.7,2.1,1,.8.2,1.6.4,2.4.4,1.6,0,3-.4,4.2-1.2,1.3-.8,2.2-1.9,3-3.4.7-1.4,1.1-3.1,1.1-4.9s-.4-3.4-1.1-4.9c-.8-1.5-1.8-2.6-3.1-3.4ZM97.3,19.4c-.4.9-1,1.5-1.8,2s-1.6.7-2.6.7-1.9-.2-2.6-.7c-.8-.5-1.4-1.2-1.8-2-.4-.9-.7-1.9-.7-3s.2-2.1.7-2.9c.4-.9,1-1.5,1.8-2s1.6-.7,2.6-.7,1.9.2,2.6.7c.8.5,1.4,1.2,1.8,2,.4.9.6,1.8.6,2.9.1,1.2-.1,2.2-.6,3Z"/>
      <path class="cls-2" d="M115.3,7c-.9,0-1.8.2-2.6.6-.8.4-1.5,1-2.2,1.7-.3.3-.5.7-.8,1.1v-3.1h-4.2v18.2h4.3v-9.7c0-.6.1-1.2.3-1.7.2-.5.5-1,.9-1.4s.8-.7,1.4-.9c.5-.2,1.1-.3,1.6-.3.4,0,.7,0,1.1.1.4.1.7.2.9.3l1.1-4.7c-.2-.1-.5-.2-.9-.2h-.9Z"/>
      <path class="cls-2" d="M132.5,10c-.4-.5-.8-1-1.3-1.4-.6-.5-1.2-.9-2-1.1-.8-.3-1.6-.4-2.5-.4-1.6,0-3,.4-4.3,1.2-1.3.8-2.3,1.9-3,3.3s-1.1,3-1.1,4.9c0,1.8.4,3.4,1.1,4.9.7,1.4,1.7,2.6,2.9,3.4,1.2.8,2.6,1.2,4.1,1.2.9,0,1.7-.1,2.5-.4.8-.3,1.5-.6,2.1-1.1.6-.4,1.1-.9,1.5-1.4v2.6h4.3V7.4h-4.3v2.6ZM130.2,21.4c-.8.5-1.6.7-2.6.7s-1.9-.2-2.6-.7c-.7-.5-1.3-1.2-1.7-2-.4-.9-.6-1.9-.6-3s.2-2.1.6-2.9c.4-.9,1-1.5,1.7-2s1.6-.7,2.6-.7,1.9.2,2.6.7c.8.5,1.4,1.2,1.8,2,.4.9.6,1.8.6,2.9s-.2,2.1-.6,3c-.4.9-1,1.6-1.8,2Z"/>
      <path class="cls-2" d="M154.8,7.8c-.9-.6-2.1-.8-3.5-.8-1,0-1.9.2-2.8.6-.9.4-1.7,1-2.4,1.6-.2.2-.4.5-.6.7v-2.6h-4.1v18.2h4.3v-11c0-.6.1-1.1.3-1.5.2-.5.5-.9.9-1.2.4-.4.8-.6,1.3-.8.5-.2,1.1-.3,1.7-.3.8,0,1.4.1,1.9.4s.9.7,1.2,1.3c.3.6.4,1.4.4,2.3v10.8h4.2v-11c0-1.7-.2-3-.7-4.1-.5-1.2-1.2-2-2.1-2.6Z"/>
      <path class="cls-2" d="M175.2,9.5c-.3-.3-.6-.7-1-1-.6-.5-1.4-.8-2.2-1.1-.8-.3-1.7-.4-2.5-.4-1.6,0-3.1.4-4.3,1.2-1.3.8-2.3,1.9-3,3.4-.7,1.4-1.1,3-1.1,4.9,0,1.8.4,3.5,1.1,4.9.7,1.4,1.8,2.5,3,3.3,1.3.8,2.7,1.2,4.3,1.2.8,0,1.6-.1,2.4-.4.8-.3,1.5-.6,2.1-1.1.5-.4.9-.8,1.3-1.2l.1,2.3h4.1V0h-4.2v9.5h-.1ZM174.7,19.5c-.4.9-1,1.6-1.8,2.1s-1.6.8-2.6.8-1.9-.3-2.6-.8c-.8-.5-1.4-1.2-1.8-2.1-.4-.9-.6-1.9-.6-3s.2-2.1.6-3c.4-.9,1-1.6,1.8-2.1s1.6-.7,2.6-.7,1.9.2,2.6.7c.8.5,1.4,1.2,1.8,2.1.4.9.6,1.9.6,3s-.2,2.1-.6,3Z"/>
      <path class="cls-2" d="M208.8,7.9c-.9-.6-2.1-.8-3.5-.8-.6,0-1.2.1-1.9.3-.6.2-1.2.5-1.8.8-.6.4-1.1.8-1.6,1.2-.4.4-.7.8-1,1.3-.2-.6-.5-1.2-.9-1.7-.5-.7-1.2-1.2-1.9-1.5-.8-.3-1.7-.5-2.6-.5-.7,0-1.3.1-2,.3-.6.2-1.3.5-1.8.9-.6.4-1.1.8-1.5,1.3-.1.1-.2.3-.3.4l-.1-2.6h-4.2v18.2h4.3v-10.8c0-.6.1-1.1.3-1.5.2-.5.5-.9.9-1.2.4-.3.8-.6,1.3-.8.5-.2,1-.3,1.6-.3.7,0,1.3.2,1.8.5s.9.8,1.1,1.3c.3.6.4,1.3.4,2.2v10.7h4.3v-10.9c0-.6.1-1.1.3-1.5.2-.5.5-.9.9-1.2.4-.4.8-.6,1.3-.8.5-.2,1.1-.3,1.6-.3.7,0,1.4.1,1.8.4.5.3.9.7,1.1,1.3.2.6.4,1.4.4,2.3v10.7h4.3v-11c0-1.7-.2-3-.7-4.2-.3-1.1-1-1.9-1.9-2.5Z"/>
      <path class="cls-2" d="M229,10c-.4-.5-.8-1-1.3-1.4-.6-.5-1.2-.9-2-1.1-.8-.3-1.6-.4-2.5-.4-1.6,0-3,.4-4.3,1.2-1.3.8-2.3,1.9-3,3.3s-1.1,3-1.1,4.9c0,1.8.4,3.4,1.1,4.9.7,1.4,1.7,2.6,2.9,3.4,1.2.8,2.6,1.2,4.1,1.2.9,0,1.7-.1,2.5-.4.8-.3,1.5-.6,2.1-1.1.6-.4,1.1-.9,1.5-1.4v2.6h4.3V7.4h-4.3v2.6ZM226.8,21.4c-.8.5-1.6.7-2.6.7s-1.9-.2-2.6-.7c-.7-.5-1.3-1.2-1.7-2-.4-.9-.6-1.9-.6-3s.2-2.1.6-2.9c.4-.9,1-1.5,1.7-2s1.6-.7,2.6-.7,1.9.2,2.6.7c.8.5,1.4,1.2,1.8,2,.4.9.6,1.8.6,2.9s-.2,2.1-.6,3c-.5.9-1.1,1.6-1.8,2Z"/>
      <polygon class="cls-2" points="243.9 2.8 239.6 2.8 239.6 7.4 236 7.4 236 11.3 239.6 11.3 239.6 25.6 243.9 25.6 243.9 11.3 247.9 11.3 247.9 7.4 243.9 7.4 243.9 2.8"/>
      <path class="cls-2" d="M264.7,9.6c-.8-.8-1.7-1.4-2.7-1.9s-2.2-.7-3.3-.7c-1.4,0-2.6.2-3.7.7s-2.1,1.1-2.9,2-1.5,1.9-1.9,3.1c-.5,1.2-.7,2.5-.7,3.9,0,1.8.4,3.4,1.2,4.8.8,1.4,2,2.5,3.4,3.3,1.5.8,3.1,1.2,5.1,1.2.9,0,1.7-.1,2.6-.3s1.7-.5,2.5-.9,1.5-.9,2.1-1.5l-2.1-2.9c-.8.7-1.6,1.2-2.3,1.5-.7.3-1.5.4-2.3.4-1.2,0-2.3-.2-3.2-.7-.9-.5-1.6-1.1-2.1-2-.3-.6-.5-1.2-.7-2h13.4v-1.5c0-1.3-.2-2.5-.6-3.6-.4-1.2-1-2.2-1.8-2.9ZM255.8,11.4c.8-.4,1.7-.7,2.8-.7.7,0,1.4.2,2,.5s1.1.7,1.5,1.3c.4.5.6,1.2.7,1.9v.1h-9.2c.1-.5.2-.9.4-1.3.5-.7,1.1-1.4,1.8-1.8Z"/>
      <path class="cls-2" d="M283.2,18.5c-.2-.6-.5-1-.9-1.4-.4-.5-1-.9-1.8-1.3s-1.7-.7-2.8-1c-.8-.2-1.5-.4-2-.6s-.9-.4-1.1-.6-.4-.4-.5-.6-.2-.5-.2-.8.1-.6.2-.8c.1-.2.3-.4.5-.6s.5-.3.9-.4c.3-.1.7-.1,1.2-.1s1,.1,1.5.3c.5.2,1.1.5,1.6.8s1,.7,1.4,1.1l2.3-2.6c-.5-.6-1.2-1.1-1.9-1.5-.7-.4-1.6-.8-2.4-1-.9-.2-1.8-.3-2.7-.3s-1.8.1-2.6.4c-.8.3-1.6.6-2.2,1.1s-1.1,1.1-1.5,1.7c-.4.7-.5,1.4-.5,2.2,0,.6.1,1.2.3,1.8.2.6.5,1,.9,1.5.5.5,1.1,1,1.9,1.4s1.9.8,3.1,1.1c.8.2,1.4.4,1.9.6s.9.4,1.1.5c.4.3.6.8.6,1.3,0,.3-.1.6-.2.8s-.3.5-.5.6c-.2.2-.5.3-.8.4-.3.1-.7.1-1.1.1-.9,0-1.8-.2-2.7-.5-.9-.3-1.6-.9-2.3-1.7l-2.8,2.4c.8,1,1.8,1.8,3.1,2.3,1.3.5,2.7.8,4.3.8,1.3,0,2.5-.2,3.5-.7s1.9-1.2,2.5-2c.6-.9.9-1.8.9-2.9,0-.7-.1-1.3-.2-1.8Z"/>
    </g>
  </g>
  <g>
    <path class="cls-2" d="M228.6,44.3c-.7,0-1.3-.2-1.9-.6-.6-.4-1-.9-1.4-1.6-.3-.7-.5-1.4-.5-2.3s.2-1.6.5-2.3c.4-.7.8-1.2,1.4-1.6.6-.4,1.3-.6,2-.6.4,0,.8.1,1.2.2s.7.3,1,.5.5.5.7.8.3.6.3,1l-.4-.1v-2.2h1.7v8.5h-1.7v-2l.4-.1c-.1.3-.2.6-.4.9-.2.3-.5.5-.8.7s-.6.4-1,.5c-.2.2-.6.3-1.1.3ZM229.1,42.7c.5,0,1-.1,1.3-.4.4-.2.7-.6.9-1s.3-.9.3-1.5-.1-1-.3-1.5-.5-.8-.9-1-.8-.4-1.3-.4-.9.1-1.3.4c-.4.2-.7.6-.9,1s-.3.9-.3,1.5.1,1.1.3,1.5.5.8.9,1c.3.3.8.4,1.3.4Z"/>
    <path class="cls-2" d="M239.5,47.8c-.6,0-1.2-.1-1.8-.3s-1.1-.4-1.5-.7l.6-1.3c.2.2.5.3.8.4.3.1.6.2.9.3.3.1.6.1,1,.1.6,0,1.1-.1,1.5-.3s.7-.5.9-.9.3-.8.3-1.4v-1.6l.2.1c-.1.3-.2.7-.5,1-.3.3-.7.6-1.1.8-.4.2-.9.3-1.4.3-.8,0-1.5-.2-2.2-.6-.6-.4-1.1-.9-1.5-1.6-.4-.7-.6-1.4-.6-2.3s.2-1.6.5-2.3c.4-.7.9-1.2,1.5-1.6.6-.4,1.3-.6,2.1-.6.3,0,.6,0,.9.1.3.1.6.2.8.3.3.1.5.3.7.5s.4.4.5.6c.1.2.2.4.2.6l-.4.1v-2h1.7v8c0,.7-.1,1.3-.3,1.8-.2.5-.5,1-.9,1.3-.4.4-.8.6-1.4.8-.2.3-.9.4-1.5.4ZM239.5,42.7c.5,0,1-.1,1.4-.4.4-.2.7-.6,1-1,.2-.4.3-.9.3-1.5s-.1-1.1-.3-1.5c-.2-.4-.6-.8-1-1s-.9-.4-1.4-.4-1,.1-1.4.4c-.4.3-.7.6-1,1-.2.4-.3.9-.3,1.5s.1,1,.3,1.5c.2.4.6.8,1,1,.4.3.9.4,1.4.4Z"/>
    <path class="cls-2" d="M250.2,44.3c-.9,0-1.7-.2-2.3-.6-.7-.4-1.2-.9-1.6-1.5s-.6-1.4-.6-2.2c0-.7.1-1.3.3-1.8.2-.6.5-1,.9-1.4s.8-.7,1.4-.9,1.1-.3,1.7-.3,1.1.1,1.5.3c.5.2.9.5,1.2.9.4.4.6.8.8,1.3.2.5.3,1.1.3,1.6v.7h-7l-.4-1.3h5.9l-.2.3v-.4c0-.4-.2-.7-.4-1-.2-.3-.5-.5-.8-.7s-.7-.2-1-.2c-.6,0-1.1.1-1.5.3s-.7.5-.9,1c-.2.4-.3,1-.3,1.6s.1,1.1.4,1.6c.2.4.6.8,1.1,1s1,.4,1.6.4c.4,0,.8-.1,1.2-.2.4-.1.8-.4,1.2-.8l.8,1.2c-.3.3-.6.5-.9.7-.4.2-.8.3-1.2.5-.4-.2-.8-.1-1.2-.1Z"/>
    <path class="cls-2" d="M255.7,44.1v-8.5h1.7v1.8l-.3.2c.1-.4.3-.7.6-1,.3-.3.7-.6,1.1-.8s.9-.3,1.3-.3c.6,0,1.2.1,1.6.4.4.3.8.6,1,1.2.2.5.3,1.2.3,2v5.2h-1.7v-5.1c0-.5-.1-.9-.2-1.2s-.3-.6-.6-.7c-.3-.1-.6-.2-1-.2-.3,0-.6.1-.9.2-.3.1-.5.2-.7.4s-.4.4-.5.6c-.1.2-.2.5-.2.8v5.2h-1.2c0-.2-.2-.2-.3-.2Z"/>
    <path class="cls-2" d="M269,44.3c-.8,0-1.5-.2-2.1-.6-.6-.4-1.1-.9-1.5-1.6-.4-.7-.5-1.4-.5-2.3,0-.8.2-1.6.5-2.3.4-.7.9-1.2,1.5-1.6.6-.4,1.3-.6,2.1-.6s1.4.2,2.1.5c.6.3,1.1.7,1.4,1.3l-.9,1.1c-.2-.2-.4-.5-.7-.7-.3-.2-.6-.4-.9-.5s-.6-.2-.9-.2c-.5,0-1,.1-1.4.4-.4.3-.7.6-1,1-.2.4-.4.9-.4,1.5s.1,1,.4,1.5.6.8,1,1c.4.3.9.4,1.4.4.3,0,.6,0,.9-.1s.5-.2.8-.4.5-.4.7-.7l.9,1.1c-.3.5-.8.9-1.5,1.2-.6.4-1.2.6-1.9.6Z"/>
    <path class="cls-2" d="M275.2,47.8l1.7-4v1.3l-4.3-9.6h1.9l2.7,6.3c.1.1.1.3.2.5s.1.4.2.7l-.4.1c.1-.2.2-.5.3-.7.1-.2.2-.5.2-.7l2.2-6.2h2l-3.5,8.5-1.4,3.7h-1.8v.1Z"/>
  </g>
</svg>